<?xml version="1.0" encoding="utf-8"?>
<!-- Generator: Adobe Illustrator 24.0.1, SVG Export Plug-In . SVG Version: 6.00 Build 0)  -->
<svg version="1.1" id="Lager_1" xmlns="http://www.w3.org/2000/svg" xmlns:xlink="http://www.w3.org/1999/xlink" x="0px" y="0px"
	 viewBox="0 0 289.6 289.6" style="enable-background:new 0 0 289.6 289.6;" xml:space="preserve">
<style type="text/css">
	.st0{fill:#FFFFFF;}
	.st1{fill:#FFCC00;}
</style>
<g>
	<path d="M286.5,144.8c0,78.3-63.5,141.7-141.7,141.7c-78.3,0-141.7-63.5-141.7-141.7C3.1,66.5,66.5,3.1,144.8,3.1
		C223.1,3.1,286.5,66.5,286.5,144.8z"/>
</g>
<path class="st0" d="M212.3,104.7c5.8,10,6.8,21.5,3.8,31.7c-1.9-1.6-4.1-2.9-6.5-3.9c1.8-8,0.8-16.6-3.6-24.2
	c-4.4-7.6-11.3-12.9-19.1-15.2c0.3-2.3,0.3-4.7-0.1-7.1c0-0.1,0-0.3-0.1-0.4C197.2,88.1,206.6,94.7,212.3,104.7z M77.2,104.7
	c5.8-10,15.1-16.6,25.5-19.1c0,0.1,0,0.3-0.1,0.4c-0.3,2.4-0.4,4.8-0.1,7.2c-7.8,2.4-14.7,7.6-19.1,15.2c-4.4,7.6-5.5,16.2-3.6,24.2
	c-2.2,0.9-4.3,2.2-6.2,3.7c-0.1,0.1-0.2,0.1-0.3,0.2C70.4,126.1,71.4,114.7,77.2,104.7z M144.8,221.8c-11.5,0-22-4.8-29.4-12.6
	c0.1,0,0.2-0.1,0.3-0.1c2.3-0.9,4.4-2.1,6.3-3.5c6,5.6,14,9,22.8,9c8.8,0,16.8-3.4,22.7-8.9c1.9,1.4,4,2.6,6.3,3.5
	c0.1,0,0.3,0.1,0.4,0.1C166.7,217,156.3,221.8,144.8,221.8z M220.1,164c-1.4,5.2-4.6,9.6-8.8,12.5c-1.6,1.1-3.4,2-5.2,2.7
	c0.4,1.9,0.5,3.9,0.3,5.9c-0.4,5.1-2.6,10-6.4,13.9c-4.2,4.2-9.8,6.5-15.7,6.5c-5.9,0-11.5-2.3-15.7-6.5c-2.2-2.2-3.9-4.8-5-7.6l0,0
	l-18.8-44.2l-18.5,43.5l0,0c-1.1,3.1-2.9,5.9-5.2,8.3c-4.2,4.2-9.8,6.5-15.7,6.5c-5.9,0-11.5-2.3-15.7-6.5c-3.9-3.9-6-8.8-6.4-13.9
	c-0.2-2-0.1-3.9,0.3-5.9c-1.9-0.7-3.6-1.6-5.2-2.7c-4.2-2.9-7.4-7.2-8.8-12.5c-1.5-5.7-0.7-11.7,2.2-16.9c3-5.1,7.8-8.8,13.5-10.4
	c3-0.8,6-1,9-0.5l47.7,5.9l-28.9-38.4l0,0c-1.8-2.3-3.3-5.1-4.1-8.1c-3.2-11.8,3.9-24.1,15.7-27.2c1.9-0.5,3.8-0.8,5.8-0.8
	c3.4,0,6.6,0.8,9.5,2.1c1.8,0.8,3.4,1.9,4.9,3.2c1.5-1.3,3.1-2.4,4.9-3.2c2.9-1.4,6.1-2.1,9.5-2.1h0c1.9,0,3.9,0.3,5.8,0.8
	c11.8,3.2,18.9,15.4,15.7,27.2c-0.8,3-2.2,5.8-4.1,8.1l0,0l-28.9,38.3l47-5.8l0,0c1.3-0.2,2.6-0.4,3.9-0.4c1.9,0,3.9,0.3,5.8,0.8
	c5.7,1.5,10.5,5.2,13.5,10.4C220.9,152.2,221.6,158.2,220.1,164z"/>
<path class="st1" d="M220.6,141c4.6-12.5,3.8-26.8-3.4-39.2c-7.1-12.4-19.1-20.2-32.2-22.5h0c-4.7-11.6-16.8-19-29.8-17.2
	c-3.9,0.5-7.4,1.8-10.6,3.7c-3.1-1.9-6.7-3.2-10.6-3.8c-13-1.8-25.1,5.6-29.8,17.2h0c-13,2.3-25,10.1-32.1,22.5
	c-7.1,12.4-7.9,26.6-3.4,39.1c-7.8,9.9-8.1,24.1,0,34.4c2.4,3.1,5.3,5.5,8.5,7.3c-0.1,3.7,0.6,7.4,2,11c4.9,12.1,17.4,19,29.8,17.2
	c8.5,10.2,21.3,16.6,35.6,16.6c14.3,0,27-6.5,35.5-16.6c12.4,1.7,24.9-5.1,29.8-17.2c1.5-3.6,2.1-7.4,2-11
	c6.4-3.5,11.5-9.6,13.5-17.2C228,156.6,225.8,147.7,220.6,141z M212.3,104.7c5.8,10,6.8,21.5,3.8,31.7c-1.9-1.6-4.1-2.9-6.5-3.9
	c1.8-8,0.8-16.6-3.6-24.2c-4.4-7.6-11.3-12.9-19.1-15.2c0.3-2.3,0.3-4.7-0.1-7.1c0-0.1,0-0.3-0.1-0.4
	C197.2,88.1,206.6,94.7,212.3,104.7z M185.7,98.7c6.3,2,11.9,6.3,15.5,12.5c3.6,6.2,4.5,13.2,3.1,19.7c-1.9-0.4-3.7-0.6-5.6-0.6
	c-1.3,0-2.6,0.1-3.9,0.3l-0.1,0l-34.4,4.2l21.2-28.2C183.3,104.3,184.7,101.6,185.7,98.7z M108,106.6l21.2,28.2l-35-4.3v0h0
	c-3-0.4-6-0.3-8.9,0.3c-1.4-6.5-0.5-13.5,3.1-19.6c3.6-6.2,9.1-10.4,15.4-12.5C104.8,101.6,106.2,104.3,108,106.6z M77.2,104.7
	c5.8-10,15.1-16.6,25.5-19.1c0,0.1,0,0.3-0.1,0.4c-0.3,2.4-0.4,4.8-0.1,7.2c-7.8,2.4-14.7,7.6-19.1,15.2c-4.4,7.6-5.5,16.2-3.6,24.2
	c-2.2,0.9-4.3,2.2-6.2,3.7c-0.1,0.1-0.2,0.1-0.3,0.2C70.4,126.1,71.4,114.7,77.2,104.7z M144.8,221.8c-11.5,0-22-4.8-29.4-12.6
	c0.1,0,0.2-0.1,0.3-0.1c2.3-0.9,4.4-2.1,6.3-3.5c6,5.6,14,9,22.8,9c8.8,0,16.8-3.4,22.7-8.9c1.9,1.4,4,2.6,6.3,3.5
	c0.1,0,0.3,0.1,0.4,0.1C166.7,217,156.3,221.8,144.8,221.8z M144.7,161.7l13.8,32.4c1.2,2.8,2.8,5.3,4.8,7.6
	c-4.9,4.4-11.4,7.1-18.5,7.1c-7.1,0-13.6-2.7-18.6-7.1c2-2.3,3.6-4.8,4.8-7.6L144.7,161.7z M220.1,164c-1.4,5.2-4.6,9.6-8.8,12.5
	c-1.6,1.1-3.4,2-5.2,2.7c0.4,1.9,0.5,3.9,0.3,5.9c-0.4,5.1-2.6,10-6.4,13.9c-4.2,4.2-9.8,6.5-15.7,6.5c-5.9,0-11.5-2.3-15.7-6.5
	c-2.2-2.2-3.9-4.8-5-7.6l0,0l-18.8-44.2l-18.5,43.5l0,0c-1.1,3.1-2.9,5.9-5.2,8.3c-4.2,4.2-9.8,6.5-15.7,6.5
	c-5.9,0-11.5-2.3-15.7-6.5c-3.9-3.9-6-8.8-6.4-13.9c-0.2-2-0.1-3.9,0.3-5.9c-1.9-0.7-3.6-1.6-5.2-2.7c-4.2-2.9-7.4-7.2-8.8-12.5
	c-1.5-5.7-0.7-11.7,2.2-16.9c3-5.1,7.8-8.8,13.5-10.4c3-0.8,6-1,9-0.5l47.7,5.9l-28.9-38.4l0,0c-1.8-2.3-3.3-5.1-4.1-8.1
	c-3.2-11.8,3.9-24.1,15.7-27.2c1.9-0.5,3.8-0.8,5.8-0.8c3.4,0,6.6,0.8,9.5,2.1c1.8,0.8,3.4,1.9,4.9,3.2c1.5-1.3,3.1-2.4,4.9-3.2
	c2.9-1.4,6.1-2.1,9.5-2.1h0c1.9,0,3.9,0.3,5.8,0.8c11.8,3.2,18.9,15.4,15.7,27.2c-0.8,3-2.2,5.8-4.1,8.1l0,0l-28.9,38.3l47-5.8l0,0
	c1.3-0.2,2.6-0.4,3.9-0.4c1.9,0,3.9,0.3,5.8,0.8c5.7,1.5,10.5,5.2,13.5,10.4C220.9,152.2,221.6,158.2,220.1,164z"/>
<g>
	<path class="st1" d="M101.7,182.3v-29.7h6.7v29.7H101.7z"/>
</g>
<g>
	<path class="st1" d="M174.6,182.3v-29.7h19.8v4.8h-13.1v8.2h10.1v4.5h-10.1v12.2H174.6z"/>
</g>
<g>
	<path class="st1" d="M134,83.9h10.2c7,0,10.5,2.4,10.5,7.8c0,3.6-2.1,5.5-5.3,6.2V98c3.8,0.7,6.4,2.7,6.4,6.9c0,5.6-4,8.7-11.2,8.7
		H134V83.9z M144,95.9c2.8,0,4.1-1.2,4.1-3.7c0-2.4-1.3-3.6-4.1-3.6h-3.5v7.3H144z M144.3,108.9c3.2,0,4.6-1.7,4.6-4.3
		c0-2.7-1.5-4.3-4.6-4.3h-3.9v8.6H144.3z"/>
</g>
<path class="st1" d="M118,57l-4.7-18.3l-2.4,2.2l-1.4,0.4l-0.9-3.6l5.1-5.1l3.6-0.9l6.2,23.9L118,57z"/>
<path class="st1" d="M126.7,54l-0.4-4l2-0.2c0.6,0.5,1.9,1,3.9,0.8c4.6-0.5,5.8-3.2,5.8-7.6c-1.4,1.2-3.4,1.9-5.4,2.1
	c-4.7,0.5-8.3-1.8-8.8-6.6c-0.5-4.8,2.9-8.8,8.5-9.4c5.6-0.6,10.2,2.9,11,11c0.8,8.4-3.1,13.5-11,14.3
	C129.9,54.7,128.2,54.5,126.7,54z M137.7,39.5c-0.7-5.2-2.4-7.1-5.1-6.8c-2.9,0.3-3.7,2.4-3.5,5.1c0.3,2.6,1.8,3.8,4.2,3.5
	C135.1,41.1,136.7,40.3,137.7,39.5z"/>
<path class="st1" d="M148.8,53.4l0.9-18.9l-3,1.4l-1.4-0.1l0.2-3.7l6.3-3.4l3.7,0.2l-1.2,24.7L148.8,53.4z"/>
<path class="st1" d="M174.7,57L158,53.8l0.8-4.3l8.1-5.2c3.8-2.4,5.3-3.9,5.7-5.8c0.4-1.8-0.6-3.2-2.9-3.6c-2.3-0.4-4.2,0.2-5.5,0.8
	l-1.7-0.3l0.7-3.6c1.8-0.7,4.7-1.4,7.6-0.9c5.3,1,8.1,3.8,7.2,8.5c-0.7,3.5-3.4,5.5-7.8,8.2l-5.3,3.2l10.6,2.1L174.7,57z"/>
<path class="st1" d="M180.9,239c0,0,7.2-4.4,17.3-23c6.7-12.3,17-18.3,17-18.3s3.3,15.8-7.8,26.9C201,230.6,192.7,235.4,180.9,239z"
	/>
<path class="st1" d="M203.8,229.9c0,0,10.1-8,20.4-17.7c17.2-16.2,28.5-16.8,28.5-16.8s-2.5,13.3-17.3,24.4
	C227.6,225,219.6,224.6,203.8,229.9z"/>
<path class="st1" d="M227.8,206.4c0,0,6.9-10.2,13.7-22.6c11.3-20.8,22-25,22-25s1.8,13.4-8.7,28.6
	C249,194.7,241.2,196.4,227.8,206.4z"/>
<path class="st1" d="M243.5,177c0,0,2.5-9.4,5-23.3c4.2-23.2,13.5-32.4,13.5-32.4s5.9,12.2,0.7,29.9
	C259.5,159.9,253.1,162.6,243.5,177z"/>
<path class="st1" d="M249.4,142.6c0,0-0.3-9.2-2.5-23.2c-3.5-22.7,2-33.8,2-33.8s9.4,9.7,10,28.2
	C258.6,123.2,254.2,126.6,249.4,142.6z"/>
<path class="st1" d="M244.6,113.1c0,0-5.3-12.5-11.5-25.2c-8.4-17.2-7.9-31.8-7.9-31.8s12,6.2,18.3,23.6
	C246.3,88.7,243.2,95.7,244.6,113.1z"/>
<path class="st1" d="M173.4,243.4c0,0,12.6-3.6,25.6-9.4c20.4-9.2,32.3-7.3,32.3-7.3s-6.5,11.8-24.1,17.7
	C198.1,246.9,190.1,243.4,173.4,243.4z"/>
<path class="st1" d="M213.4,219.8c0,0,3.8-6.2,6.6-27.1c1.9-13.9,9.5-23.1,9.5-23.1s8.2,13.2,1.8,27.4
	C227.4,204.8,222.6,211.4,213.4,219.8z"/>
<path class="st1" d="M234.8,192c0,0,2.2-8.3-2.5-28.9c-3.1-13.7,0.7-25,0.7-25s12.1,8.1,11.2,25.6
	C243.4,172.4,241.5,181.7,234.8,192z"/>
<path class="st1" d="M245.9,158.4c0,0-0.6-9.7-12.2-27.3c-7.7-11.7-8.4-23.6-8.4-23.6s15.3,3.6,20.6,20.9
	C248.7,139.3,248.2,146.5,245.9,158.4z"/>
<path class="st1" d="M245.9,123.3c0,0-4.6-10.5-22.5-22.9c-11.6-8-16.3-19-16.3-19s15.6-0.7,25.6,12
	C237.8,100.6,242.9,111,245.9,123.3z"/>
<path class="st1" d="M145.8,247.1c0,0,4.7-0.2,20.4-1.5c22.2-1.8,34.1,3.9,34.1,3.9s-7.1,8.1-25.6,8.2
	C165.3,257.2,154.3,254.3,145.8,247.1z"/>
<path class="st1" d="M145.8,245.1c6.2-5.3,9.9-8,13-10.1c14.9-10.1,33-15.9,33-15.9s-3.9,16.4-19.6,22.8
	C165.3,244.7,149.4,245.5,145.8,245.1z"/>
<path class="st1" d="M231.2,88.2c0,0-14.7-16.9-23.7-27.5c-9.5-11.2-10.8-24.5-10.8-24.5s14.2,6.2,21.6,17.8
	C222.7,62.1,223.8,72.7,231.2,88.2"/>
<path class="st1" d="M226.6,85.4c0,0-9.5-4.4-27.5-13.9c-8.6-4.6-14.6-18.1-14.6-18.1s13.7,0.1,23.6,11.2
	C218,75.6,218,75.9,226.6,85.4"/>
<path class="st1" d="M109.2,239c0,0-7.2-4.4-17.3-23c-6.7-12.3-17-18.3-17-18.3s-3.3,15.8,7.8,26.9C89.1,230.6,97.5,235.4,109.2,239
	z"/>
<path class="st1" d="M86.4,229.9c0,0-10.1-8-20.4-17.7c-17.2-16.2-28.5-16.8-28.5-16.8s2.5,13.3,17.3,24.4
	C62.5,225,70.5,224.6,86.4,229.9z"/>
<path class="st1" d="M62.3,206.4c0,0-6.9-10.2-13.7-22.6c-11.3-20.8-22-25-22-25s-1.8,13.4,8.7,28.6
	C41.2,194.7,48.9,196.4,62.3,206.4z"/>
<path class="st1" d="M46.7,177c0,0-2.5-9.4-5-23.3c-4.2-23.2-13.5-32.4-13.5-32.4s-5.9,12.2-0.7,29.9C30.7,159.9,37,162.6,46.7,177z
	"/>
<path class="st1" d="M40.7,142.6c0,0,0.3-9.2,2.5-23.2c3.5-22.7-2-33.8-2-33.8s-9.4,9.7-10,28.2C31.5,123.2,35.9,126.6,40.7,142.6z"
	/>
<path class="st1" d="M45.6,113.1c0,0,5.3-12.5,11.5-25.2c8.4-17.2,7.9-31.8,7.9-31.8s-12,6.2-18.3,23.6
	C43.9,88.7,47,95.7,45.6,113.1z"/>
<path class="st1" d="M116.8,243.4c0,0-12.6-3.6-25.6-9.4c-20.4-9.2-32.3-7.3-32.3-7.3s6.5,11.8,24.1,17.7
	C92.1,246.9,100.1,243.4,116.8,243.4z"/>
<path class="st1" d="M76.8,219.8c0,0-3.8-6.2-6.6-27.1c-1.9-13.9-9.5-23.1-9.5-23.1s-8.2,13.2-1.8,27.4
	C62.7,204.8,67.6,211.4,76.8,219.8z"/>
<path class="st1" d="M55.3,192c0,0-2.2-8.3,2.5-28.9c3.1-13.7-0.7-25-0.7-25s-12.1,8.1-11.2,25.6C46.7,172.4,48.7,181.7,55.3,192z"
	/>
<path class="st1" d="M44.2,158.4c0,0,0.6-9.7,12.2-27.3c7.7-11.7,8.4-23.6,8.4-23.6s-15.3,3.6-20.6,20.9
	C41.5,139.3,41.9,146.5,44.2,158.4z"/>
<path class="st1" d="M44.3,123.3c0,0,4.6-10.5,22.5-22.9c11.6-8,16.3-19,16.3-19s-15.6-0.7-25.6,12C52.4,100.6,47.3,111,44.3,123.3z
	"/>
<path class="st1" d="M144.4,247.1c0,0-4.7-0.2-20.4-1.5c-22.2-1.8-34.1,3.9-34.1,3.9s7.1,8.1,25.6,8.2
	C124.9,257.2,135.9,254.3,144.4,247.1z"/>
<path class="st1" d="M144.4,245.1c-6.2-5.3-9.9-8-13-10.1c-14.9-10.1-33-15.9-33-15.9s3.9,16.4,19.6,22.8
	C124.9,244.7,140.8,245.5,144.4,245.1z"/>
<path class="st1" d="M59,88.2c0,0,14.7-16.9,23.7-27.5c9.5-11.2,10.8-24.5,10.8-24.5S79.4,42.5,72,54C67.4,62.1,66.4,72.7,59,88.2"
	/>
<path class="st1" d="M63.5,85.4c0,0,9.5-4.4,27.5-13.9c8.6-4.6,14.6-18.1,14.6-18.1S92,53.5,82.1,64.5
	C72.2,75.6,72.2,75.9,63.5,85.4"/>
</svg>
