<?xml version="1.0" encoding="utf-8"?>
<!-- Generator: Adobe Illustrator 24.0.1, SVG Export Plug-In . SVG Version: 6.00 Build 0)  -->
<svg version="1.1" id="Lager_1" xmlns="http://www.w3.org/2000/svg" xmlns:xlink="http://www.w3.org/1999/xlink" x="0px" y="0px"
	 viewBox="0 0 198.6 175.4" style="enable-background:new 0 0 198.6 175.4;" xml:space="preserve">
<style type="text/css">
	.st0{fill:#E9B646;}
	.st1{fill:#008E52;}
	.st2{fill:#FFFFFF;}
	.st3{fill-rule:evenodd;clip-rule:evenodd;fill:#FFFFFF;}
</style>
<g>
	<path class="st0" d="M126.4,153c-1.1,0.9-2.8,1.2-4.3,1.8c-1-0.2-16.5-9.1-23.2-11.3c-7.7,3.1-15.3,6.5-22,11.5l1.9,0
		c-1.6,0.3-6.9-1.3-8.5-1.4c7.1-5.3,15.7-8.8,24-12c-3-1-6-2.4-9.2-2.9c-7.7,3.9-17.9,7.9-26.5,3.5c-2.2-0.9-4.3-1.7-6.5-2.5
		c6.5-2,13-5.3,20.5-5.6c-3.5-1.4-8.2-0.9-12.1,0.2c-4.9,1.4-9.2,4.6-15,3.2c-4.9-0.9-9.1-3.1-13.1-6.1V131
		c7.5,1.5,14.9-1.1,22.6-1.1c-6.6-4.9-15,0.9-22.7-0.8c-6-1.4-8.6-5.3-12.5-10c6.1,3.3,14.8,0.6,21,3.3c-5.5-7.7-16.8-1.1-23-8.2
		c-3.2-3.1-5.9-7-7.5-11.5c1.7,1.3,3.9,2.8,6.2,3.4c4,0.9,8,2.1,11.6,3.8c-3.6-6.6-12.1-5.5-16.9-10.2c-4.4-3.8-6-8.9-6.7-14.5
		c3.3,5.4,11.1,5.5,15,10.7c-1.7-8.4-13.2-7.2-14.8-16C4.2,77,4,73.5,4.5,70.7c0.6,0.7,0.6,2.1,1.3,3.1c2.6,4.2,7.4,6.6,9.8,11
		c0.6-7-8.2-8.3-9.1-14.7C5.4,65.7,6,61.3,6.5,57c1.3,6.3,4.9,11.1,8.4,16.3c0.7-7.2-7.4-10.4-6.8-17.6c0-3.8,0.7-7.2,2.1-10.4
		c0.6,0.9,0.3,2.5,0.7,3.6c2.4,5,3.2,10.5,4.5,15.9c2.2-6.4-1.3-12.1-2.9-17.9c-0.8-4.1,0.2-8.2,1.9-11.4c0,5.7,3,10.1,3.6,15.6h0.3
		c0.8-4.3-1.4-7.7-1.7-11.8c-0.9-5.2,1.1-9.9,3.2-13.8l0.3,0.4c1.2,5.6,0.5,12.2,1,17.8l0.4-0.3c2.4-5.9-1.1-12.4,1-18.5
		c0.6-2.3,1.8-4.7,3.3-6.6C25.5,23.9,26,30.4,25,36.2c3.8-3.8,1.1-10.6,3.2-15.5c0.8-2.6,2.1-5.4,3.7-7.4c0.2,4.6,0.4,8.6-1,12.6
		c4.1-3.6,0.6-10.5,4.9-14.4l3.7-3.8c0,3-0.8,6.1-2,8.8C40.7,12.7,42.3,5.3,49,4.9c0.2,2.4-1.3,4.1-2.4,6C44,14,40,15.2,37.3,18.8
		c3.1-1.9,6.4-4.6,10.2-4.8c-1.6,5.9-8.2,8.2-13.5,10.5c-1.2,0.8-1.8,1.8-2.4,2.8c2.5-2.3,6.2-3.3,9.7-3.8c-2.4,4-6.8,7-11.6,8.3
		c-1.7,1.2-2.3,2.3-3.2,4.1c3.4-2.5,7.7-4.6,11.9-5.9c-2.1,4.2-5.4,9.2-10.5,9.8c-3.1,0-4.8,2.2-5.9,4.7v0.4c2.7-2.4,6.5-4.4,10.3-5
		c0.3-0.1,0.6-0.1,0.8-0.3c-2.5,5.4-7.8,8.8-13,11c-1.1,1-1.5,2.8-2,4.2c2.9-3,6.2-5.7,10.5-7.2l1.5-1.3c-0.3,2-1.6,3.8-2.6,5.4
		c-3,5.6-10.9,5.3-10.8,12.4c2.2-4.3,6.4-5.7,9.6-8.6c-2,5.7-4.1,11.2-9.2,15c-0.8,1.8-1.6,3.7-1.1,5.9c1.4-4.8,5.3-8.5,8.7-12.2
		c1.1,6-1.2,11.7-5,15.9c-1.7,1.7-2.6,3.9-2.5,6.4c0.6-0.7,1.1-2,1.8-3.1c2.3-3.1,6.1-5.7,6.2-10c0.9,0.5,0.2,1.5,0.6,2.3
		c2,7.1-4.7,12-5.4,18.5c0.1,1.8,1.1,3.2,1.9,4.7c0.2-6,2.2-11.2,4.5-16.2c2.6,5,3.7,12.2,1.3,17.8c-0.5,1.6-1.3,3.3-0.7,5.1
		c0.8,1.9,1.9,3.7,3.1,5.3C29,105,30.3,98.6,30.7,93c2.1,4.1,5.1,8.3,6.5,12.7h0.5c-0.8,0.2-0.1,0.8-0.1,1.2
		c1.3,4.3-0.7,9.5,2.4,13.1c1.5,1.1,2.4,2.2,4.1,3c-1.4-2.7-3.8-5.7-4.1-9.1c-0.1-3.3-0.7-6.8-1.3-9.8c5.5,4.3,9.4,10.5,11.2,17.2
		c2.1,4.1,5.4,7.9,10.1,8.8c-4.9-4.7-9.4-10.1-11.1-16.8l-1.4-2.1c6.2,2.7,13.2,7.2,16.2,14.1c2,4,5.6,7.8,10.7,7.8
		c-5.7-4.4-10.5-10-13.5-16.6c6.6,4,16.7,4.4,20,12.6c1.7,2.5,2.2,6.3,5.4,7.2c4.6,0.8,8.9,2.6,13.3,3.6l11.3-3.4
		c3.5-3.9,5.5-9.1,10.1-12.8c4.3-3.8,9.7-5.7,15.1-6.8c-3,6.3-8.6,11.3-12.8,16.8c6.7-1.2,9.1-7.2,11.8-12.5
		c3.6-4.7,8.3-8.3,13.5-10.5c-2.1,7-4.9,13.6-10.8,18.9c3.4-0.7,6.7-2.8,8.6-6c1.8-6.1,3.1-13.2,8.2-17.2l4.3-3.2
		c-0.2,1-0.6,2.3-1,3.5c-0.9,4.7-0.8,9.8-2.8,14c7.3-2.5,2.9-10.7,4.6-16.4c0.5-5,3.5-9,6.9-12.5c-0.7,6,0.9,12.7-0.5,18.7
		c1.6-2.2,4.1-4.3,4.4-7.6c-1.9-6.7-3.2-15.3,0.6-21.7c1,1.9,1.4,4.4,2.4,6.5c1.1,2.3,1.7,4.9,2.3,7.4c3.7-8.6-7.4-14.9-3.2-24.3
		c1.7,4.9,7.2,8.7,6.9,14.9c2.8-8.7-8.5-12.8-6-22L174,62c3,3.9,6.6,7.4,7.7,12.4c0.5-9.2-9.4-12.6-9.6-21.9
		c4.6,2.1,7.8,6,10.3,10.4c0.1-5-4-8.1-7.7-10.4v-0.3c-1-0.3-2.2-2-3-3.1l-2.5-5.2l0.3-0.1c4.6,0.9,8.2,4.9,11.5,7.9
		c-2.3-8-12.6-7.3-14.3-15.8c2.7,2.7,7.1,3.4,10.4,4.9c-1.7-5.6-8.9-3.5-11.8-8.1c-0.9-1.3-1.9-2.6-2.4-4c4.2,0.9,7.9,2.6,11.6,5.1
		c-2.7-4.4-9.5-5.1-13.2-8.9c-0.6-1.2-1.7-2.1-2.2-3.4c4.2,0,7.6,2.3,10.7,4.6c0-0.6-0.7-1.5-1.1-2.2c-3.6-3.8-11.4-2.8-13.2-8.7
		l-0.8-2.9c2.6,3,5.9,3.6,9.1,5.1c-2.9-4.4-8.7-5.3-10.4-10.6c-0.5-1.4-0.9-3.2-1.3-4.4c6.4,2.5,10,8.5,12.7,14.4
		c-0.6-3.6-2.7-6.8-2.4-10.8c4.7,3.1,5.1,9.5,6.1,15c0.6,1.2,1.2,2.6,1.9,3.7c-1.5-4-1.7-8.6-0.7-13.1c0.9,0.7,1.6,1.8,2.2,2.9
		c3.4,5.8-1,13.2,3.3,18.5c-0.2-3.1-1.4-6.9-0.1-10.1c0.7-1.5,1-3.1,1.3-4.7h0.5c2.7,5.6,2.5,13,0.6,19c0.2,1.3,0.4,2.8,1.1,3.9
		c0.5-5.6,1.8-11,2.5-16.4c4.2,5.6,2.9,14,0.2,20.2c-0.2,1.4-0.1,3,0.4,4.3c0.6-6,3.9-10.8,5-16.6h0.4c1.1,4.4,2.6,9.7,0.1,13.9
		c-2.3,4.2-4.4,8.4-4.2,13.7c1.2-1.6,1.5-4.3,2.5-6.3c1.7-3.2,3-6.5,4.2-9.9c1.5,4,3,9.8,0.2,13.7c-3.3,4.5-6.5,9.4-7,15.4h0.2
		c2.4-6,6.2-11,10.1-15.8c0.1-0.2,0-0.7,0.4-0.6c-0.3,5.6-0.4,11.5-4.1,15.4c-3.2,3-6.8,6.6-8,11.3c3.2-5.9,9.8-8.6,12.6-14.3
		c0.3,6.6-1.4,14-7.8,16.8c-4,1.9-8.2,4.7-9.2,9.4c3.4-4.7,7.9-7,12.9-9.2l3.5-2.5c-0.9,6.2-4.3,12.9-9.6,16.9
		c-5.1,2.9-11.6,3.2-14.8,9c5.4-3.6,12.7-3.6,17.5-8.5h0.3c-2.1,6-6.2,12.3-12.4,15.1c-5.5,2.1-12.4,0.6-17,4.6
		c6.1-1.2,13.8-0.3,19.5-3.1c-3.9,5.3-10.2,11.4-18.3,10.4c-5,0.6-10.6-1.2-15,1.1c6.6-0.4,13.1,2.3,19.6,0.8v0.5
		c-4.3,6-12.5,7.8-20,6.1c-5.5-2-11.9-4.2-17.9-1.8c7.4,0.3,14.1,2,20.2,5.2c-5.9,2-11.8,4.2-18.3,3.6c-4.4-0.2-8.6-1.2-12.2-3.4
		c-3.6-1.3-7,0.8-10.3,1.5c4.1,2.1,9.2,3.9,13.5,6.3C120.9,149.5,123.9,150.9,126.4,153L126.4,153z"/>
	<path class="st1" d="M106.9,14.4c16.1,0.6,31.2,4.2,45.3,9.8c-4.8,40.9-22.6,78.4-50.7,106.8c-1.1,1-2,2.4-3.1,2.8
		c-23.7-23.3-39.2-54.9-47.3-87.4c-1.5-7-2.6-14.1-3.3-21.5c14.6-6,31.5-9.8,47-10.6C98.6,14.4,102.8,14.1,106.9,14.4L106.9,14.4z"
		/>
	<path class="st2" d="M142.7,25.5l-17.3,14.6L73.6,83.3l-3.3,2.6c-8.6-18.1-15.4-37.2-17.7-58.1C78.9,17.4,115.1,15.7,142.7,25.5
		L142.7,25.5z"/>
	<path class="st1" d="M105,36.5H82.8L82.7,44H99l0.3,7.9H82.5l-0.3,16.8c-2.1,2.4-5.2,4.5-7.7,6.6h0.2v0.4h-0.2l-0.1-46.2l-0.1-0.1
		c9.5-0.5,20.5-0.2,30.7-0.3V36.5L105,36.5z"/>
	<path class="st2" d="M124.7,75.5l-5.2,4.6c-2.7-1.1-5.5-2-8.2-3c-0.5,3.4,0.3,6.9,0.2,10.4l-3.8,3.3l-1.4-23.3l4-3.6
		c0.2,2.7,0,5.6,0.6,8.1c4.3-6.5,5-15.7,12.4-19.9L114,71.6L124.7,75.5L124.7,75.5z"/>
	<path class="st2" d="M100.7,78.1c0.3,2.3-0.2,4.5-1.1,6.5c1.2-0.3,2.9-0.2,3.4,1.3c1.4,9.2-6.7,15.4-12.7,20.6L88.9,83
		c2.9-2.2,5.7-5.7,9.2-6.7C99.4,75.9,100.5,77,100.7,78.1L100.7,78.1z"/>
	<path class="st1" d="M97,83c0.2,2.6-1.7,4.3-3.4,6c-0.3-1.7-0.4-3.8-0.3-5.7C94.2,82.6,97.1,79.7,97,83L97,83z"/>
	<path class="st1" d="M99.3,90.2c0.3,4-2.7,6.5-5.2,8.8l-0.4-6.1c1.7-1.2,3-3.3,5.2-3L99.3,90.2L99.3,90.2z"/>
	<path class="st1" d="M47.9,154.7h26.4c0.7,0,1.4,0.1,2.1,0.1c3.6,0,45.7-0.1,45.7-0.1h26.3v3c8.1,0.2,16.8-0.1,25,0.2
		c-4.2,2.5-8.7,4.6-13.1,7.2l12,7.3l-0.4,0.3h-40.3l-0.2-0.3l14-3.7l-12.5-0.2H52.2l0.5,0.4c3.8,1.2,7.6,2.5,11.4,3.9l-0.4,0.2H23.8
		c3.6-2.6,7.2-4.4,10.9-6.9l-1.5-1.5c-3.2-2.1-6.8-4-10.3-6.1c7.9-0.5,16.9-0.1,24.9-0.4C48.1,157.1,48,155.7,47.9,154.7L47.9,154.7
		z"/>
	<polygon class="st2" points="54.1,164.9 56.7,164.9 56.7,163.1 57.4,162.4 59.4,164.9 62.6,164.9 59.1,161 62.1,158.5 59,158.5 
		56.7,160.7 56.7,160.7 56.7,158.5 54.1,158.5 54.1,164.9 	"/>
	<path class="st3" d="M69.7,162.7l0.8-2h0l0.7,2H69.7L69.7,162.7z M66.2,164.9h2.6l0.4-0.9h2.6l0.3,0.9h2.6l-3-6.4h-2.5L66.2,164.9
		L66.2,164.9z"/>
	<path class="st3" d="M79.8,164.9h2.5v-2.2h1.4c1,0,1.1,0.6,1.1,1.2c0,0.3,0.1,0.7,0.2,1h2.5c-0.2-0.3-0.2-1.1-0.3-1.4
		c-0.1-0.8-0.5-1.4-1.2-1.6c0.8-0.2,1.2-0.9,1.2-1.6c0-1.2-1.2-1.8-2.7-1.8h-4.8V164.9L79.8,164.9z M82.3,160.1h1.2
		c1,0,1.3,0.2,1.3,0.6c0,0.6-0.6,0.6-1.1,0.6h-1.3V160.1L82.3,160.1z"/>
	<polygon class="st2" points="91.6,164.9 97.8,164.9 97.8,163.3 94.1,163.3 94.1,158.5 91.6,158.5 91.6,164.9 	"/>
	<path class="st2" d="M100.8,162.8c0,2,2.7,2.3,3.6,2.3c1.8,0,3.8-0.5,3.8-2.2c0-1.2-1.2-1.6-2.3-1.8c-1.2-0.3-2.3-0.3-2.4-0.8
		c0-0.4,0.6-0.4,0.9-0.4c0.3,0,0.5,0,0.8,0.2c0.2,0.1,0.3,0.3,0.3,0.5h2.4c-0.1-1.6-1.7-2.1-3.4-2.1c-1.7,0-3.3,0.6-3.3,2.1
		c0,1.3,1.5,1.6,2.8,1.9c1.4,0.3,1.8,0.4,1.8,0.7c0,0.5-0.6,0.6-1.1,0.6c-0.5,0-1-0.1-1.2-0.5c-0.1-0.1-0.1-0.3-0.1-0.4H100.8
		L100.8,162.8z"/>
	<polygon class="st2" points="112.7,164.9 115.2,164.9 115.2,160.2 117.5,160.2 117.5,158.5 110.4,158.5 110.4,160.2 112.7,160.2 
		112.7,164.9 	"/>
	<path class="st3" d="M125,162.7l0.8-2h0l0.7,2H125L125,162.7z M121.5,164.9h2.6l0.4-0.9h2.6l0.3,0.9h2.6l-3-6.4h-2.5L121.5,164.9
		L121.5,164.9z"/>
	<path class="st3" d="M135,164.9h3.7c2.9,0,4.2-1.2,4.2-3.2c0-1.6-1-3.2-3.7-3.2H135V164.9L135,164.9z M137.6,160.2h0.8
		c1.8,0,2,1.1,2,1.5c0,0.6-0.2,1.6-1.8,1.6h-1V160.2L137.6,160.2z"/>
</g>
</svg>
