<?xml version="1.0" encoding="UTF-8"?><svg xmlns="http://www.w3.org/2000/svg" viewBox="0 0 299 299"><defs><style>.l{fill:#00573f;}.m{fill:#fff;}.n{fill:#c8102e;}</style></defs><g id="a"/><g id="b"><g id="c"><g><circle id="d" class="m" cx="149.5" cy="149.5" r="145.4"/><circle id="e" class="l" cx="149.5" cy="149.5" r="99.35"/><path id="f" class="m" d="M217.74,87.55c6.18,6.8,11.26,14.4,15.16,22.69v39.5c-5.03-1.12-10.09-2.15-15.16-3.07v-59.12Zm-30.33,54.86c5.07,.5,10.12,1.11,15.16,1.82V74.14c-4.76-3.36-9.82-6.26-15.16-8.67v76.94Zm-30.33-1.8c5.06,.1,10.11,.3,15.16,.6V60.16c-4.96-1.26-10.02-2.1-15.16-2.51v82.96Zm-30.33,.6c5.05-.3,10.11-.5,15.16-.6V57.65c-5.14,.42-10.2,1.25-15.16,2.51v81.05Zm-30.33,3.02c5.04-.71,10.1-1.31,15.16-1.82V65.47c-5.34,2.41-10.41,5.31-15.16,8.67v70.09Zm-30.33,5.5c5.03-1.12,10.09-2.15,15.16-3.07v-59.12c-6.18,6.8-11.26,14.4-15.16,22.69v39.5Z"/><path id="g" class="n" d="M232.9,163.49l-.75-.17c-27.07-6.22-54.88-9.37-82.65-9.37s-55.58,3.15-82.65,9.37l-.75,.17v-6.88c27.32-6.22,55.38-9.38,83.4-9.38s56.08,3.16,83.4,9.37v6.88Z"/><g id="h"><g><g><path class="l" d="M93.87,244.92l2.38-.76,6.72,3.47,.76,2.38-2.05,3.98-3.22-1.66,1.09-2.1-.16-.56-2.66-1.37-.58,.18-6.35,12.29,.18,.58,2.66,1.37,.55-.2,1.99-3.85-1.55-.8,1.61-3.18,4.79,2.47-4.63,8.97-2.38,.76-6.72-3.47-.76-2.38,8.32-16.12Z"/><path class="l" d="M93.02,266.96h-.02l-6.74-3.49-.78-2.43v-.02l8.35-16.14,2.43-.78h.02l6.74,3.49,.78,2.43v.02l-2.09,4.03-.05-.03-3.27-1.69,1.1-2.14-.15-.52-2.62-1.35-.53,.17-6.33,12.25,.17,.53,2.62,1.35,.5-.18,1.95-3.78-1.55-.8,.03-.05,1.64-3.24,4.9,2.53-.03,.05-4.64,9-2.43,.78Zm-6.66-3.57l6.67,3.45,2.34-.75,4.59-8.9-4.68-2.42-1.56,3.08,1.55,.8-2.03,3.93-.6,.21h-.02l-2.68-1.4-.2-.62v-.02l6.37-12.32,.62-.2h.02l2.68,1.4,.17,.61v.02l-1.07,2.05,3.11,1.61,2.02-3.9-.75-2.34-6.67-3.45-2.34,.75-8.3,16.08,.75,2.34Z"/></g><g><path class="l" d="M111.85,272.38l-2.25,1.08-6.89-2.41-1.08-2.25,6-17.12,2.25-1.08,6.89,2.41,1.08,2.25-6,17.12Zm-1.02-17.71l-.51,.24-4.57,13.06,.24,.51,2.58,.91,.54-.24,4.57-13.06-.27-.52-2.58-.91Zm3.62-7.92l-.64,1.83-1.05,.51-1.83-.64-.51-1.05,.64-1.83,1.06-.53,1.83,.64,.5,1.08Zm4.5,1.57l-.64,1.83-1.05,.51-1.83-.64-.53-1.06,.64-1.83,1.09-.52,1.83,.64,.5,1.08Z"/><path class="l" d="M109.6,273.53h-.02l-6.92-2.43v-.02l-1.11-2.28,6.01-17.17,2.3-1.11h.02l6.92,2.43,1.11,2.3-6.01,17.17-2.3,1.11Zm-6.85-2.53l6.85,2.4,2.21-1.06,5.98-17.08-1.06-2.21-6.85-2.4-2.21,1.06-5.98,17.08,1.06,2.21Zm5.83-1.55h-.02l-2.61-.92-.27-.55,4.59-13.1,.55-.27h.02l2.61,.92,.29,.56v.02l-4.59,13.08-.58,.26Zm-2.54-1.02l2.54,.89,.49-.22,4.56-13.01-.25-.47-2.54-.89-.46,.22-4.56,13.01,.22,.46Zm11.22-17.71h-.02l-1.85-.66-.56-1.11,.66-1.88,1.14-.55h.02l1.85,.66v.02l.52,1.1-.66,1.88-1.1,.53Zm-1.79-.75l1.78,.63,1.01-.49,.63-1.78-.48-1.04-1.78-.62-1.05,.5-.62,1.78,.51,1.02Zm-2.7-.82h-.02l-1.85-.66-.53-1.1,.66-1.88,1.11-.56,1.88,.66v.02l.52,1.1-.66,1.88-1.1,.53Zm-1.79-.75l1.78,.62,1.01-.49,.63-1.78-.48-1.04-1.78-.62-1.02,.51-.62,1.78,.49,1.01Z"/></g><g><path class="l" d="M128.36,259.46l-3.65,17.8-3.55-.73,3.65-17.8-3.83-.78,.7-3.44,11.21,2.3-.7,3.44-3.83-.79Z"/><path class="l" d="M124.75,277.33h-.06l-3.61-.75v-.06l3.65-17.74-3.83-.78v-.06l.73-3.5h.06l11.27,2.32v.06l-.73,3.5h-.06l-3.77-.79-3.65,17.8Zm-3.53-.84l3.43,.7,3.65-17.8h.06l3.77,.79,.68-3.32-11.09-2.27-.68,3.32,3.83,.78v.06l-3.65,17.74Z"/></g><g><path class="l" d="M136.29,257.22l10.36,.74-.25,3.5-6.74-.48-.39,5.38,5.01,.36-.25,3.5-5.01-.36-.41,5.75,6.74,.48-.25,3.5-10.36-.74,1.55-21.63Z"/><path class="l" d="M145.15,279.65h-.06l-10.42-.75v-.06l1.56-21.69h.06l10.42,.75v.06l-.26,3.56h-.06l-6.69-.48-.38,5.26,5.01,.36v.06l-.26,3.56-5.01-.36-.4,5.63,6.74,.48v.06l-.26,3.56Zm-10.35-.86l10.24,.73,.24-3.38-6.74-.48v-.06l.42-5.81,5.01,.36,.24-3.38-5.01-.36v-.06l.39-5.44h.06l6.69,.48,.24-3.38-10.24-.73-1.54,21.51Z"/></g><g><path class="l" d="M161.54,259.08l.43,7.06-1.66,1.87,1.87,1.66,.46,7.52-1.66,1.87-9.2,.56-1.32-21.64,9.2-.56,1.87,1.66Zm-3.21,6.91l-.28-4.58-.43-.4-3.3,.2,.33,5.44,3.3-.2,.37-.45Zm-3.46,4.16l.35,5.72,3.3-.2,.37-.45-.3-4.9-.42-.37-3.3,.2Z"/><path class="l" d="M151.74,279.69v-.06l-1.33-21.7h.06l9.22-.57,.02,.02,1.89,1.67v.02l.43,7.09-.02,.02-1.62,1.83,1.85,1.63v.02l.46,7.54-.02,.02-1.67,1.89h-.02l-9.26,.57Zm-1.2-21.65l1.32,21.52,9.11-.56,1.62-1.84-.46-7.47-1.9-1.68,1.68-1.9-.43-7.01-1.84-1.62-9.11,.56Zm4.63,17.89v-.06l-.36-5.78,3.39-.21,.46,.41v.02l.3,4.92-.4,.49h-.03l-3.36,.21Zm-.23-5.73l.34,5.6,3.22-.2,.34-.41-.3-4.85-.39-.34-3.22,.2Zm-.33-3.49l-.34-5.56,3.39-.21,.46,.44,.28,4.63-.4,.49h-.03l-3.36,.21Zm-.21-5.45l.33,5.32,3.22-.2,.34-.41-.28-4.54-.39-.37-3.22,.2Z"/></g><g><path class="l" d="M179.96,274.16l-1.38,2.08-7.16,1.45-2.08-1.38-3.59-17.78,1.38-2.08,7.16-1.45,2.08,1.38,3.59,17.78Zm-9.92-14.7l-.31,.47,2.74,13.56,.47,.31,2.68-.54,.34-.48-2.74-13.56-.5-.31-2.68,.54Z"/><path class="l" d="M171.41,277.75h-.02l-2.1-1.41v-.02l-3.6-17.81v-.02l1.41-2.1h.02l7.18-1.46h.02l2.1,1.41v.02l3.6,17.81v.02l-1.41,2.1h-.02l-7.18,1.46Zm-2.02-1.48l2.04,1.36,7.11-1.44,1.36-2.04-3.58-17.73-2.04-1.36-7.11,1.44-1.36,2.04,3.58,17.73Zm3.53-2.4l-.51-.34v-.02l-2.75-13.59,.34-.51h.02l2.71-.55,.54,.33v.03l2.75,13.59-.37,.52-2.73,.55Zm-.4-.41l.43,.28,2.64-.53,.31-.44-2.73-13.51-.46-.28-2.64,.53-.28,.43,2.73,13.51Z"/></g><g><path class="l" d="M180.01,253.54l8.83-3.11,2.26,1.08,3.23,9.15-1.08,2.26,4.48,7.38-3.36,1.19-4.48-7.38-2.05,.72,2.81,7.96-3.42,1.2-7.21-20.45Zm10.17,6.28l-1.78-5.06-.51-.24-3.28,1.16,2.06,5.84,3.28-1.16,.23-.54Z"/><path class="l" d="M187.19,274.06l-.02-.06-7.23-20.51,.06-.02,8.85-3.12,2.3,1.1v.02l3.24,9.17-1.08,2.25,4.5,7.41-.07,.02-3.41,1.2-4.48-7.38-1.94,.69,2.81,7.96-.06,.02-3.47,1.22Zm-7.1-20.49l7.17,20.34,3.3-1.16-2.81-7.96,.06-.02,2.09-.74,4.48,7.38,3.25-1.15-4.46-7.34v-.03l1.08-2.23-3.21-9.1-2.21-1.06-8.75,3.08Zm6.54,8.01l-.02-.06-2.08-5.9,.06-.02,3.31-1.17,.55,.27v.02l1.8,5.08-.25,.58h-.02l-3.34,1.19Zm-1.95-5.88l2.02,5.73,3.2-1.13,.21-.49-1.77-5.01-.46-.22-3.2,1.13Z"/></g><g><path class="l" d="M194.91,249.84l.76-2.38,6.71-3.48,2.38,.76,2.06,3.98-3.22,1.67-1.09-2.1-.55-.2-2.66,1.38-.18,.58,6.37,12.28,.58,.18,2.66-1.38,.16-.56-2-3.85-1.54,.8-1.67-3.15,4.79-2.48,4.65,8.96-.76,2.38-6.71,3.48-2.38-.76-8.36-16.1Z"/><path class="l" d="M205.65,266.77l-2.43-.77v-.02l-8.38-16.13,.77-2.43h.02l6.73-3.51,2.43,.77v.02l2.1,4.03-3.32,1.72-1.11-2.13-.5-.18-2.61,1.36-.17,.53,6.35,12.24,.53,.17,2.61-1.36,.14-.52-1.96-3.77-1.54,.8-1.72-3.26,.05-.03,4.84-2.51,.03,.05,4.66,8.99-.77,2.43h-.02l-6.73,3.5Zm-2.35-.87l2.34,.74,6.67-3.46,.74-2.34-4.61-8.89-4.68,2.43,1.61,3.05,1.55-.8,2.04,3.92-.17,.61h-.02l-2.68,1.4-.62-.2v-.02l-6.4-12.3,.2-.62h.02l2.68-1.4h.02l.57,.21v.02l1.07,2.05,3.11-1.61-2.02-3.9-2.34-.74-6.67,3.46-.74,2.34,8.33,16.06Z"/></g></g><g><g><path class="l" d="M30.5,105.36l-2.08,6.43,5.29,1.71,1.54-4.75,3.34,1.08-1.54,4.75,8.66,2.8-1.12,3.45-20.63-6.68,3.2-9.88,3.34,1.08Z"/><path class="l" d="M44.63,120.91l-.06-.02-20.68-6.7,.02-.06,3.22-9.94,.06,.02,3.4,1.1-.02,.06-2.06,6.38,5.18,1.68,1.54-4.75,.06,.02,3.4,1.1-.02,.06-1.52,4.69,8.66,2.8-.02,.06-1.13,3.5Zm-20.59-6.79l20.51,6.64,1.08-3.33-8.66-2.8,.02-.06,1.52-4.69-3.22-1.04-1.54,4.75-.06-.02-5.35-1.73,.02-.06,2.06-6.38-3.22-1.04-3.16,9.77Z"/></g><g><path class="l" d="M29.57,98.25l4.05-8.43,2.36-.83,8.74,4.2,.83,2.36,8.38,2.06-1.54,3.21-8.38-2.06-.94,1.95,7.61,3.66-1.57,3.27-19.54-9.39Zm11.63-2.73l-4.83-2.32-.53,.19-1.51,3.14,5.58,2.68,1.51-3.14-.21-.55Z"/><path class="l" d="M49.15,107.72l-19.65-9.44,4.09-8.51h.02l2.38-.84h.02l8.77,4.22v.02l.83,2.33,8.42,2.07-1.6,3.32h-.05l-8.33-2.06-.89,1.86,7.61,3.66-1.62,3.37Zm-19.49-9.5l19.44,9.34,1.52-3.16-7.61-3.66,.99-2.05h.05l8.33,2.06,1.49-3.1-8.34-2.05-.83-2.37-8.7-4.18-2.31,.81-4.02,8.36Zm10.29,1.06l-5.69-2.73,1.54-3.21,.58-.2,4.88,2.34,.23,.59-1.54,3.21Zm-5.53-2.79l5.47,2.63,1.47-3.06-.19-.5-4.79-2.3-.49,.17-1.47,3.06Z"/></g><g><path class="l" d="M36.24,75.33l1.62,1.07,.23,1.15-1.07,1.62-1.15,.23-1.62-1.07-.25-1.16,1.07-1.62,1.17-.21Zm2.64-3.97l1.62,1.07,.23,1.15-1.07,1.62-1.16,.25-1.62-1.07-.24-1.19,1.07-1.62,1.17-.21Zm21.55,12.83l.49,2.45-4.05,6.08-2.45,.49-15.11-10.05-.49-2.45,4.05-6.08,2.45-.49,15.11,10.05Zm-17.41-3.39l.11,.55,11.52,7.66,.55-.11,1.52-2.28-.1-.58-11.52-7.66-.57,.14-1.52,2.28Z"/><path class="l" d="M54.41,93.29h-.02l-15.13-10.08-.5-2.5v-.02l4.07-6.1,2.5-.5h.02l15.13,10.08,.5,2.5v.02l-4.07,6.1-2.5,.5Zm-15.04-10.15l15.07,10.02,2.4-.48,4.02-6.04-.48-2.4-15.07-10.02-2.4,.48-4.02,6.04,.48,2.4Zm15.27,5.95h-.02l-11.54-7.69-.12-.6,1.54-2.32,.62-.15h.02l11.54,7.69,.1,.63-1.54,2.32-.6,.12Zm-11.45-7.76l11.48,7.64,.51-.1,1.49-2.24-.09-.53-11.48-7.64-.52,.12-1.49,2.24,.1,.51Zm-7.33-1.86l-1.66-1.1-.27-1.21v-.02l1.1-1.64,1.22-.22,1.66,1.1,.24,1.2-1.1,1.66-1.2,.24Zm-1.55-1.17l1.57,1.05,1.1-.22,1.05-1.57-.22-1.1-1.57-1.05-1.12,.21-1.05,1.57,.24,1.11Zm4.17-2.77h-.02l-1.64-1.1-.25-1.24,1.1-1.66,1.22-.22,1.66,1.1,.24,1.2-1.1,1.66-1.21,.26Zm-1.55-1.17l1.57,1.05,1.11-.24,1.05-1.57-.22-1.1-1.57-1.05-1.12,.21-1.05,1.57,.23,1.14Z"/></g><g><path class="l" d="M64.53,81.84l-16.34-14.26,2.4-2.75,13.69,11.95,4.15-4.75,2.64,2.31-6.55,7.5Z"/><path class="l" d="M64.53,81.92l-.05-.04-16.38-14.3,2.48-2.84,.05,.04,13.65,11.91,4.15-4.75,2.73,2.39-.04,.05-6.59,7.55Zm-16.26-14.35l16.25,14.18,6.47-7.41-2.55-2.23-4.15,4.75-.05-.04-13.65-11.91-2.32,2.66Z"/></g><g><path class="l" d="M80.29,65.91l-5.48,4.83-2.5-.16-13.17-14.94,2.72-2.4,11.75,13.33,.56,.04,2.1-1.85,.04-.56-11.75-13.33,2.72-2.4,13.17,14.94-.16,2.5Z"/><path class="l" d="M74.83,70.8h-.02l-2.52-.16-.02-.02-13.21-14.98,2.81-2.48,.04,.04,11.74,13.31,.51,.03,2.06-1.82,.03-.51-11.78-13.36,2.81-2.48,.04,.04,13.19,14.96v.02l-.16,2.52-.02,.02-5.5,4.85Zm-2.49-.28l2.45,.15,5.44-4.8,.15-2.45-13.11-14.87-2.63,2.32,11.73,13.31-.04,.61-.02,.02-2.12,1.87-.61-.04-.02-.02-11.72-13.29-2.63,2.32,13.11,14.87Z"/></g><g><path class="l" d="M72.99,44.06l3.27-2.14,11.22,8.55-7.28-11.13,3.03-1.98,11.87,18.15-3.27,2.14-11.22-8.55,7.28,11.13-3.03,1.98-11.87-18.15Z"/><path class="l" d="M84.84,62.29l-11.93-18.25,3.36-2.19,.03,.03,10.94,8.34-7.12-10.89,3.13-2.05,11.93,18.25-3.36,2.19-.03-.03-10.94-8.34,7.12,10.89-3.13,2.05Zm-11.76-18.21l11.8,18.05,2.93-1.92-7.43-11.37,11.46,8.74,3.19-2.08-11.8-18.05-2.93,1.92,7.43,11.37-11.46-8.74-3.19,2.08Z"/></g><g><path class="l" d="M100.26,30.89l7.63,16.46-.86,2.35-8.33,3.86-9.12-19.67,8.33-3.86,2.35,.86Zm3.37,16.02l-5.82-12.55-.54-.22-2.92,1.36,6.18,13.33,2.92-1.36,.18-.56Z"/><path class="l" d="M98.66,53.65l-.03-.05-9.14-19.73,.05-.03,8.36-3.87h.02l2.37,.88v.02l7.65,16.48v.02l-.88,2.37h-.02l-8.39,3.9Zm-9.01-19.72l9.07,19.56,8.26-3.83,.84-2.3-7.61-16.42-2.3-.84-8.26,3.83Zm10.84,14.98l-.03-.05-6.2-13.38,3-1.39,.59,.24v.02l5.84,12.58-.2,.6-3,1.39Zm-6.07-13.38l6.13,13.22,2.85-1.32,.17-.51-5.8-12.51-.5-.2-2.85,1.32Z"/></g><g><path class="l" d="M114.26,42.07l.43,4.76-3.55,1.07-1.36-22.24,3.39-1.02,11.19,19.27-3.55,1.07-2.28-4.2-4.26,1.29Zm-1-10.99l.67,7.43,2.9-.88-3.56-6.55Z"/><path class="l" d="M111.08,47.98v-.08l-1.37-22.29,3.48-1.05,.02,.04,11.23,19.33-3.67,1.11-.02-.04-2.26-4.16-4.17,1.26,.43,4.76h-.05l-3.62,1.11Zm-1.24-22.28l1.35,22.12,3.43-1.04-.43-4.76h.05l4.31-1.32,.02,.04,2.26,4.16,3.43-1.04-11.13-19.16-3.3,1Zm4.04,12.88l-.7-7.79,3.74,6.87-3.04,.92Zm-.53-7.22l.63,7.07,2.75-.83-3.39-6.23Z"/></g><g><path class="l" d="M139.25,28.94l4.07-.26-.57-8.94,3.62-.23,1.38,21.64-3.62,.23-.59-9.2-4.07,.26,.59,9.2-3.62,.23-1.38-21.64,3.62-.23,.57,8.94Z"/><path class="l" d="M136.39,41.94v-.06l-1.39-21.7,3.74-.24v.06l.57,8.88,3.95-.25-.57-8.94,3.74-.24v.06l1.39,21.7-3.74,.24v-.06l-.59-9.14-3.95,.25,.59,9.2-3.74,.24Zm-1.26-21.65l1.38,21.52,3.5-.22-.59-9.2,4.19-.27v.06l.59,9.14,3.5-.22-1.38-21.52-3.5,.22,.57,8.94-4.19,.27v-.06l-.57-8.88-3.5,.22Z"/></g><g><path class="l" d="M162.86,40.23l-1.9,1.63-7.28-.54-1.63-1.9,1.35-18.1,1.9-1.63,7.28,.54,1.63,1.9-1.35,18.1Zm-5.58-16.84l-.43,.37-1.03,13.8,.37,.43,2.73,.2,.46-.37,1.03-13.8-.4-.43-2.73-.2Z"/><path class="l" d="M160.98,41.92l-7.33-.55-.02-.02-1.65-1.91v-.02l1.35-18.12,1.93-1.66,7.33,.55,.02,.02,1.65,1.91v.02l-1.35,18.12-1.93,1.66Zm-7.27-.66l7.23,.54,1.86-1.6,1.35-18.05-1.6-1.86-7.23-.54-1.86,1.6-1.35,18.05,1.6,1.86Zm5.23-3.01h-.02l-2.76-.21-.4-.47v-.02l1.03-13.82,.47-.4,2.78,.21,.43,.47v.03l-1.03,13.83-.5,.4Zm-2.72-.32l2.68,.2,.42-.34,1.02-13.75-.36-.39-2.68-.2-.39,.34-1.03,13.75,.34,.39Z"/></g><g><path class="l" d="M171.04,23.12l2.1-1.36,7.14,1.54,1.36,2.1-.94,4.38-3.54-.76,.48-2.23-.33-.51-2.68-.58-.51,.33-2.89,13.45,.33,.51,2.68,.58,.51-.33,.48-2.23,3.54,.76-.94,4.38-2.1,1.36-7.14-1.54-1.36-2.1,3.82-17.74Z"/><path class="l" d="M175.74,44.57h-.02l-7.17-1.55v-.02l-1.38-2.12v-.02l3.83-17.77h.02l2.12-1.38h.02l7.17,1.55v.02l1.38,2.12v.02l-.96,4.44-3.66-.79,.49-2.27-.3-.47-2.63-.57-.47,.3-2.88,13.4,.3,.47,2.63,.57,.47-.3,.49-2.27,3.66,.79-.96,4.46-2.14,1.38Zm-7.12-1.65l7.09,1.53,2.06-1.33,.92-4.3-3.43-.74-.47,2.2-.55,.36h-.02l-2.7-.59-.35-.55v-.02l2.9-13.47,.55-.36h.02l2.7,.59,.35,.55-.47,2.2,3.43,.74,.92-4.3-1.33-2.06-7.09-1.53-2.06,1.33-3.8,17.69,1.33,2.06Z"/></g><g><path class="l" d="M193.03,50.31l-3.72-1.37-.45-8.68-2.69,2.35-1.68,4.55-3.35-1.23,7.5-20.34,3.35,1.23-3.42,9.29,8.22-7.52,3.75,1.38-8.19,7.2,.69,13.15Z"/><path class="l" d="M193.09,50.39l-.09-.03-3.76-1.39v-.04l-.44-8.56-2.59,2.26-1.69,4.59-3.46-1.27,.02-.06,7.52-20.4,3.46,1.27-.02,.06-3.34,9.06,8.06-7.38,3.88,1.43-.08,.07-8.17,7.18,.69,13.21Zm-3.73-1.5l3.6,1.33-.68-13.08,.02-.02,8.11-7.13-3.62-1.33-8.37,7.66,.09-.23,3.4-9.23-3.23-1.19-7.46,20.23,3.23,1.19,1.66-4.51h.01l2.78-2.44v.12l.45,8.64Z"/></g><g><path class="l" d="M206.08,32.6l9.15,4.91-1.66,3.09-5.96-3.2-2.55,4.75,4.43,2.37-1.66,3.09-4.43-2.37-2.72,5.08,5.96,3.2-1.66,3.09-9.15-4.91,10.25-19.11Z"/><path class="l" d="M205.01,56.7l-.05-.03-9.21-4.94,.03-.05,10.28-19.16,.05,.03,9.21,4.94-.03,.05-1.69,3.15-.05-.03-5.91-3.17-2.49,4.65,4.43,2.37-.03,.05-1.69,3.15-.05-.03-4.37-2.34-2.67,4.97,5.96,3.2-.03,.05-1.69,3.15Zm-9.1-5.01l9.05,4.85,1.6-2.99-5.96-3.2,.03-.05,2.75-5.13,.05,.03,4.37,2.34,1.6-2.99-4.43-2.37,.03-.05,2.58-4.81,.05,.03,5.91,3.17,1.6-2.99-9.05-4.85-10.19,19Z"/></g><g><path class="l" d="M210.91,60.6l4.42-6.13,4.23-14.36,3.19,2.3-3.03,9.04,7.61-5.73,3.19,2.3-12.28,8.56-4.42,6.13-2.92-2.1Z"/><path class="l" d="M213.84,62.78l-.05-.03-2.97-2.14,4.45-6.17,4.25-14.43,.07,.05,3.23,2.33v.04l-2.98,8.85,7.49-5.64,.04,.03,3.26,2.35-12.35,8.6-4.45,6.17Zm-2.85-2.2l2.82,2.03,4.4-6.1,12.22-8.51-3.09-2.23-7.73,5.82,3.08-9.18-3.09-2.23-4.21,14.3-4.38,6.09Z"/></g><g><path class="l" d="M241.81,60.83l2.5,.16,4.83,5.48-.16,2.5-3.36,2.96-2.4-2.72,1.71-1.51,.04-.6-1.81-2.05-.6-.04-10.31,9.1-.04,.6,1.81,2.05,.6,.04,1.71-1.51,2.4,2.72-3.36,2.96-2.5-.16-4.83-5.48,.16-2.5,13.61-12Z"/><path class="l" d="M235.4,81.02h-.02l-2.52-.16-.02-.02-4.85-5.49v-.02l.16-2.52,.02-.02,13.62-12.02h.02l2.52,.16,.02,.02,4.85,5.49v.02l-.16,2.52-.02,.02-3.4,3-2.48-2.81,1.74-1.53,.03-.55-1.78-2.02-.55-.03-10.27,9.06-.03,.55,1.78,2.02,.55,.03,1.74-1.53,2.48,2.81-3.42,3.02Zm-2.49-.28l2.45,.15,3.29-2.91-2.32-2.63-1.69,1.49-.65-.04-.02-.02-1.83-2.07,.04-.65,.02-.02,10.33-9.11,.65,.04,.02,.02,1.83,2.07-.04,.65-.02,.02-1.67,1.47,2.32,2.63,3.3-2.91,.15-2.45-4.8-5.44-2.45-.15-13.57,11.97-.15,2.45,4.8,5.44Z"/></g><g><path class="l" d="M236.43,85.31l17.98-12.13,2.04,3.03-15.07,10.16,3.53,5.23-2.91,1.96-5.57-8.25Z"/><path class="l" d="M241.98,93.65l-.03-.05-5.6-8.3,18.08-12.19,.03,.05,2.08,3.08-15.07,10.16,3.53,5.23-3.01,2.03Zm-5.47-8.32l5.5,8.16,2.81-1.9-3.53-5.23,15.07-10.16-1.98-2.93-17.88,12.06Z"/></g><g><path class="l" d="M247.76,104.63l-3.26-6.54,.8-2.37,17.83-8.88,1.62,3.24-15.91,7.93-.18,.54,1.25,2.5,.54,.18,15.91-7.93,1.62,3.24-17.83,8.88-2.37-.79Z"/><path class="l" d="M250.14,105.49h-.02l-2.4-.81v-.02l-3.28-6.56v-.02l.81-2.4h.02l17.88-8.92,.03,.05,1.64,3.3-.05,.03-15.89,7.92-.16,.49,1.22,2.46,.49,.16,15.94-7.94,.03,.05,1.64,3.3-.05,.03-17.85,8.89Zm-2.33-.91l2.33,.78,17.75-8.84-1.56-3.14-15.88,7.91-.58-.2v-.02l-1.27-2.53,.2-.58h.02l15.86-7.91-1.56-3.14-17.75,8.84-.78,2.33,3.23,6.49Z"/></g><g><path class="l" d="M272.51,114.14l-6.71,2.25-2.24-1.12-1.12,2.24-7.14,2.39-2.24-1.12-2.93-8.74,20.56-6.88,2.93,8.74-1.12,2.24Zm-12.42-3.57l-5.44,1.82,1.05,3.14,.53,.24,4.65-1.56,.25-.51-1.05-3.14Zm4.91,2.27l4.36-1.46,.28-.51-1.05-3.14-5.17,1.73,1.05,3.14,.53,.24Z"/><path class="l" d="M255.3,119.97l-2.28-1.14v-.02l-2.95-8.8,.06-.02,20.62-6.9,.02,.06,2.93,8.76v.02l-1.14,2.26h-.02l-6.73,2.26-2.21-1.1-1.1,2.21h-.02l-7.17,2.41Zm-2.19-1.22l2.19,1.09,7.09-2.38,1.13-2.27,2.27,1.13,6.66-2.23,1.09-2.19-2.9-8.66-20.45,6.85,2.9,8.66Zm3.12-2.91l-.58-.26v-.02l-1.08-3.19,.06-.02,5.5-1.84,.02,.06,1.06,3.16-.27,.55h-.02l-4.68,1.57Zm-.48-.35l.49,.22,4.61-1.54,.23-.46-1.02-3.06-5.32,1.78,1.02,3.06Zm9.25-2.58l-.58-.26v-.02l-1.08-3.19,.06-.02,5.22-1.75,.02,.06,1.06,3.16-.3,.56-4.4,1.47Zm-.48-.35l.49,.22,4.31-1.44,.26-.47-1.02-3.06-5.05,1.69,1.02,3.06Z"/></g></g></g><polygon id="i" class="m" points="205.75 165.06 177.4 165.06 149.5 219.54 121.6 165.06 93.25 165.06 97.91 174.32 116.16 174.32 119.94 181.62 101.59 181.62 106.37 191.13 124.87 191.13 147.35 234.52 151.65 234.52 174.13 191.13 192.63 191.13 197.41 181.62 179.06 181.62 182.84 174.32 201.09 174.32 205.75 165.06"/><path id="j" class="n" d="M149.5,10.79c76.61,0,138.71,62.1,138.71,138.71s-62.1,138.71-138.71,138.71S10.79,226.11,10.79,149.5,72.89,10.79,149.5,10.79m0-5.27c-19.44,0-38.29,3.81-56.05,11.32-17.15,7.25-32.54,17.63-45.77,30.86-13.22,13.22-23.6,28.62-30.86,45.77-7.51,17.75-11.32,36.61-11.32,56.05s3.81,38.29,11.32,56.05c7.25,17.15,17.63,32.54,30.86,45.77,13.22,13.22,28.62,23.6,45.77,30.86,17.75,7.51,36.61,11.32,56.05,11.32s38.29-3.81,56.05-11.32c17.15-7.25,32.54-17.63,45.77-30.86,13.22-13.22,23.6-28.62,30.86-45.77,7.51-17.75,11.32-36.61,11.32-56.05s-3.81-38.29-11.32-56.05c-7.25-17.15-17.63-32.54-30.86-45.77-13.22-13.22-28.62-23.6-45.77-30.86-17.75-7.51-36.61-11.32-56.05-11.32h0Z"/><path id="k" class="l" d="M149.5,7.19c19.21,0,37.85,3.76,55.39,11.18,16.95,7.17,32.16,17.43,45.24,30.5,13.07,13.07,23.33,28.29,30.5,45.24,7.42,17.54,11.18,36.18,11.18,55.39s-3.76,37.85-11.18,55.39c-7.17,16.95-17.43,32.16-30.5,45.24-13.07,13.07-28.29,23.33-45.24,30.5-17.54,7.42-36.18,11.18-55.39,11.18s-37.85-3.76-55.39-11.18c-16.95-7.17-32.16-17.43-45.24-30.5-13.07-13.07-23.33-28.29-30.5-45.24-7.42-17.54-11.18-36.18-11.18-55.39s3.76-37.85,11.18-55.39c7.17-16.95,17.43-32.16,30.5-45.24,13.07-13.07,28.29-23.33,45.24-30.5,17.54-7.42,36.18-11.18,55.39-11.18m0-7.19C66.93,0,0,66.93,0,149.5s66.93,149.5,149.5,149.5,149.5-66.93,149.5-149.5S232.07,0,149.5,0h0Z"/></g></g></g></svg>