<?xml version="1.0" encoding="utf-8"?>
<!-- Generator: Adobe Illustrator 24.0.1, SVG Export Plug-In . SVG Version: 6.00 Build 0)  -->
<svg version="1.1" id="bild" xmlns="http://www.w3.org/2000/svg" xmlns:xlink="http://www.w3.org/1999/xlink" x="0px" y="0px"
	 viewBox="0 0 410.9 411.9" style="enable-background:new 0 0 410.9 411.9;" xml:space="preserve">
<style type="text/css">
	.st0{fill:#FFCC00;}
	.st1{fill:none;}
	.st2{fill:#D20A11;}
</style>
<g>
	<ellipse transform="matrix(0.7071 -0.7071 0.7071 0.7071 -85.508 205.2018)" cx="204.9" cy="205.8" rx="200" ry="200"/>
	<g>
		<path class="st0" d="M25.7,194c-0.2,2.1-1.6,3.4-3.7,3.1c-2.1-0.2-3.1-1.8-2.9-3.9l1.4-12c0.4-3.1,2-4.5,5.4-4.1l16.7,1.9
			c2.7,0.3,4.2,2.1,3.9,4.6c-0.3,2.5-2.1,3.9-4.8,3.6l-14.9-1.7L25.7,194z"/>
		<path class="st0" d="M40.8,217.2c2.7-0.1,4.5,1.4,4.6,3.9c0.1,2.5-1.5,4.1-4.3,4.2l-11.7,0.4c-7.7,0.3-10.7-4.9-11-11.9
			c-0.3-7,2.3-12.4,10.1-12.7l11.7-0.4c2.7-0.1,4.5,1.4,4.6,3.9c0.1,2.5-1.5,4.1-4.3,4.2l-11.6,0.4c-2.7,0.1-4.4,1.4-4.2,4.3
			c0.1,2.9,1.9,4.1,4.6,4L40.8,217.2z"/>
		<path class="st0" d="M30.1,248.5c0.4,2.1-0.5,3.7-2.6,4.1c-2.1,0.4-3.5-0.8-3.9-2.8l-2.3-11.9c-0.6-3.1,0.6-4.8,3.9-5.5l16.5-3.2
			c2.7-0.5,4.6,0.7,5.1,3.2c0.5,2.5-0.9,4.3-3.6,4.8l-14.8,2.8L30.1,248.5z"/>
		<path class="st0" d="M45.3,251.5c3.2-1.1,5.1-0.2,6.1,2.8l4.2,12.3c0.8,2.3,0,3.8-1.7,4.3c-1.7,0.6-3.2-0.1-4-2.4l-3.1-9l-3.4,1.2
			l2.5,7.2c0.8,2.3,0,3.8-1.7,4.3c-1.7,0.6-3.2-0.1-4-2.4l-2.5-7.2l-3.9,1.3l3.2,9.3c0.8,2.3,0,3.8-1.7,4.3c-1.7,0.6-3.2-0.1-4-2.4
			l-4.4-12.7c-1-3-0.1-4.9,3.1-6L45.3,251.5z"/>
		<path class="st0" d="M40.6,286.8l-1.9,0.4c-1.5,0.3-2.7-0.9-3.3-2c-0.8-1.6-0.5-4,1.2-4.8c1-0.5,3-0.8,4.8-1l15.9-2.1
			c2.3-0.3,3.8,0.1,4.7,2l1.2,2.3c0.9,1.8,0.4,3.3-1.1,5l-10.9,11.8c-1.2,1.3-2.6,2.8-3.6,3.3c-1.7,0.9-3.8-0.2-4.6-1.8
			c-0.6-1.1-0.8-2.8,0.3-3.9l1.4-1.4L40.6,286.8z M55.4,284L55.4,284l-9.6,1.8l2.6,5L55.4,284z M71.1,275.9c1.1,2.1,0.3,4.6-1.8,5.7
			c-2.1,1.1-4.6,0.3-5.7-1.8c-1.1-2.1-0.3-4.6,1.8-5.7C67.5,273,70,273.8,71.1,275.9z M65.6,278.7c0.5,0.9,1.6,1.3,2.5,0.8
			c0.9-0.5,1.3-1.6,0.8-2.5c-0.5-0.9-1.6-1.3-2.5-0.8C65.5,276.6,65.2,277.7,65.6,278.7z"/>
		<path class="st0" d="M82.1,316.3c2.1-1.8,4.4-1.7,6,0.3c1.6,1.9,1.4,4.2-0.7,6L73.9,334c-2.1,1.8-4.4,1.7-6-0.3
			c-1.6-1.9-1.4-4.2,0.7-6l4.5-3.9l-5.2-6.1l-4.5,3.9c-2.1,1.8-4.4,1.7-6-0.3c-1.6-1.9-1.4-4.2,0.7-6L71.7,304
			c2.1-1.8,4.4-1.7,6,0.3c1.6,1.9,1.4,4.2-0.7,6l-3.7,3.1l5.2,6.1L82.1,316.3z"/>
		<path class="st0" d="M102.1,329.3c5.2,4.4,7.3,11.9,1.5,18.8c-6,7.1-13.5,6.2-18.7,1.7c-5.2-4.4-7.5-11.7-1.5-18.8
			C89.1,324.2,96.9,325,102.1,329.3z M98,334.2c-2.6-2.2-5.7-1.1-8.4,2.1c-2.7,3.2-3.3,6.4-0.6,8.6c2.6,2.2,5.7,1.1,8.4-2.1
			C100,339.6,100.6,336.4,98,334.2z"/>
		<path class="st0" d="M124.3,345c5.2,3.1,7.3,8.5,5.4,11.6c-1,1.7-3.1,2.2-5.1,1c-1.3-0.8-1.6-1.3-1.6-3.4c0-2-0.8-3-2.3-4
			c-2.2-1.3-5.2-0.2-7.6,3.6c-2.1,3.6-2.2,6.8,0.7,8.6c1.3,0.8,2.1,0.8,4.7-0.3c1.2-0.5,2.4-0.5,3.4,0.1c1.8,1.1,2.5,3.2,1.4,5
			c-2.3,3.8-8.9,3-12.8,0.7c-5.9-3.5-9.2-10.3-4.4-18.3C110.6,342,118.4,341.5,124.3,345z"/>
		<path class="st0" d="M147.4,358.9c2.1-1,3.1-1.3,4.4-0.8c2,0.8,2.6,3.1,2.1,4.6c-0.4,1.1-1.2,1.5-2.6,2.1l-5.1,2.5l2.1,11.3
			c0.1,0.9,0.2,1.7-0.2,2.5c-0.8,2-3.3,2.7-5.3,1.9c-1.2-0.5-2.1-1.3-2.4-3l-1.9-10.1l-3.1,1.5l-1.3,3.3c-1,2.5-3.1,3.5-5.4,2.5
			c-2.3-1-3.2-3.1-2.1-5.6l6.7-16.4c1-2.5,3.1-3.5,5.4-2.5c2.3,1,3.2,3.1,2.1,5.6l-1.9,4.7L147.4,358.9z"/>
		<path class="st0" d="M156.7,365.4c0.8-3.3,2.6-4.4,5.7-3.6l12.6,3c2.4,0.6,3.2,2,2.8,3.7c-0.4,1.7-1.8,2.6-4.1,2.1l-9.2-2.2
			l-0.8,3.5l7.4,1.8c2.4,0.6,3.2,2,2.8,3.7c-0.4,1.7-1.8,2.6-4.1,2.1l-7.4-1.8l-1,4l9.6,2.3c2.4,0.6,3.2,2,2.8,3.7
			c-0.4,1.7-1.8,2.6-4.1,2.1l-13-3.1c-3.1-0.7-4.2-2.5-3.4-5.8L156.7,365.4z"/>
		<path class="st0" d="M193,369c1-1.6,2.4-2.3,4-2.1c2.2,0.2,3.7,2.2,3.5,4.2c-0.1,0.8-0.5,1.6-1.3,2.7l-6.8,9.6l-0.5,5.2
			c-0.3,2.7-2,4.2-4.5,4c-2.5-0.2-3.9-2-3.7-4.8l0.5-5.2l-4.9-10.7c-0.6-1.2-0.8-2-0.8-2.9c0.2-2,2-3.7,4.2-3.5
			c1.6,0.2,2.9,1.1,3.6,2.8l2.7,7.1L193,369z"/>
		<path class="st0" d="M218.9,377.4c2-0.1,3,1.4,3.1,3c0.1,1.6-0.9,3.1-2.8,3.2l-7.4,0.3l0.2,5c0.1,2.7-1.4,4.5-3.9,4.6
			c-2.5,0.1-4.2-1.5-4.3-4.2l-0.7-16.7c-0.1-3.4,1.3-4.9,4.4-5.1l11.7-0.5c3.1-0.1,3.9,1.4,4,3c0.1,1.6-0.7,3.2-3.7,3.4l-8.2,0.3
			l0.2,4L218.9,377.4z"/>
		<path class="st0" d="M236.1,363.8c6.7-1.3,13.8,1.8,15.6,10.6c1.8,9.1-3.6,14.4-10.4,15.7c-6.7,1.3-13.8-1.5-15.6-10.6
			C224,370.7,229.4,365.1,236.1,363.8z M230.3,356.6c1.7-0.3,3.5,0.8,3.8,2.5c0.3,1.7-0.8,3.5-2.5,3.8c-1.7,0.3-3.5-0.8-3.8-2.5
			C227.4,358.7,228.6,356.9,230.3,356.6z M237.3,370c-3.3,0.7-4.4,3.8-3.6,7.8c0.8,4.1,3,6.6,6.3,5.9c3.3-0.7,4.4-3.8,3.6-7.8
			C242.8,371.8,240.7,369.4,237.3,370z M238.7,355c1.7-0.3,3.5,0.8,3.8,2.5c0.3,1.7-0.8,3.5-2.5,3.8c-1.7,0.3-3.5-0.8-3.8-2.5
			C235.8,357,236.9,355.3,238.7,355z"/>
		<path class="st0" d="M252.4,365.8c-1.2-3.2-0.3-5.1,3-6.3l8.5-3.2c5.9-2.2,9.7-0.1,11,3.6c1.2,3.1,0,5.9-2.7,7.5l0,0.1
			c2.5-0.7,4.5-0.5,5.7,1.9l1,1.9c0.6,1.1,1.2,2.2,1.6,3.2c0.7,1.8-0.7,3.6-2.3,4.2c-2.2,0.8-4.3,0.6-5.5-1.7l-1.6-3
			c-1-1.8-2.5-1.9-4.3-1.2l-3,1.1l1.9,5c1,2.6,0.2,4.5-2.2,5.4c-2.4,0.9-4.3,0-5.2-2.6L252.4,365.8z M265.9,367.4
			c2.2-0.8,2.9-1.9,2.3-3.5c-0.6-1.6-1.8-2-4-1.2l-3.8,1.4l1.7,4.7L265.9,367.4z"/>
		<path class="st0" d="M277.3,356c-1.7-3-1.1-5,1.7-6.5l11.3-6.4c2.1-1.2,3.7-0.7,4.6,0.9c0.9,1.5,0.5,3.1-1.6,4.3l-8.3,4.7l1.8,3.1
			l6.6-3.7c2.1-1.2,3.7-0.7,4.6,0.9c0.9,1.5,0.5,3.1-1.6,4.3l-6.6,3.7l2,3.6l8.6-4.8c2.1-1.2,3.7-0.7,4.6,0.9
			c0.9,1.5,0.5,3.1-1.6,4.3l-11.7,6.6c-2.8,1.6-4.8,1-6.4-2L277.3,356z"/>
		<path class="st0" d="M310,332.9c-1.5-1.9-1.4-4.1,0.6-5.7c1.9-1.5,4.2-1.1,5.7,0.7l11.7,14.7c1.7,2.2,0.8,4.3-1.2,5.9
			c-1.7,1.3-3,1.6-5.8,0.5l-12.2-4.5l-0.1,0l6.3,7.9c1.7,2.1,1.5,4.2-0.5,5.8c-2,1.6-4.1,1.3-5.8-0.9l-11.3-14.2
			c-1.7-2.2-1.5-4.4,1-6.3c1.5-1.2,3.1-1.5,5-0.8l13.3,5.2l0.1,0L310,332.9z"/>
		<path class="st0" d="M319.5,324.9c-2-1.9-2.1-4.2-0.3-6c1.8-1.8,4.1-1.7,6,0.2l12.6,12.4c2,1.9,2.1,4.2,0.3,6
			c-1.8,1.8-4.1,1.8-6-0.2L319.5,324.9z"/>
		<path class="st0" d="M338.1,302.7c-1.9-1.4-2.3-3.7-0.8-5.6c1.5-2,3.8-2.1,5.7-0.7l15,11.4c2.2,1.7,1.9,4,0.3,6
			c-1.3,1.7-2.5,2.3-5.5,2l-13-1.3l0,0.1l8,6.1c2.2,1.7,2.5,3.7,1,5.7c-1.5,2-3.6,2.2-5.8,0.6l-14.4-11c-2.2-1.7-2.5-3.9-0.6-6.4
			c1.2-1.6,2.7-2.3,4.7-2l14.1,1.7l0-0.1L338.1,302.7z"/>
		<path class="st0" d="M363.7,286.2c-0.6,1.1-2,1.7-3.4,1c-1.5-0.8-2-2.1-1.2-3.7l2.4-4.7c1.1-2.1,3.3-2.6,5.2-1.6l6.5,3.4
			c1.4,0.8,2.7,2.1,1.7,4.1c-0.8,1.5-2.3,1.8-3.5,1.2l-0.6-0.3l0,0.1c1.3,2.1,0.8,5.5-0.5,8c-2.6,5.1-8.5,9.6-17.6,4.8
			c-8.6-4.5-8.6-12.5-5.9-17.6c3.8-7.3,8.5-7.4,10.3-6.5c1.4,0.8,2.6,2.9,1.4,5.1c-1.2,2.3-4.2,0.9-5.8,4c-1.3,2.4-0.5,5.3,4,7.7
			c3.8,2,6.8,2.2,8.7-1.4c1.2-2.2,0.9-4-0.6-5.4L363.7,286.2z"/>
		<path class="st0" d="M369.7,253.9l-1,3.7c-0.5,1.7-1.6,2.3-3.1,1.9c-1.7-0.5-2.1-1.2-1.8-4.1c0.2-2.2-0.5-3.5-1.5-4.7
			c-1.2-1.5-1.8-2.4-1.5-3.8c0.5-1.7,1.5-2.6,3.2-2.1l18.9,5.2c2.4,0.7,3.1,2.4,2.5,4.5c-0.6,2.1-2.1,3.2-4.5,2.6L369.7,253.9z"/>
		<path class="st0" d="M371,242c-4.7-0.7-7.9-4.7-7-11.1c1-7.1,6.1-10.3,14-9.2c7.5,1.1,12.5,5.1,11.3,13.3
			c-0.3,2.3-2.1,7.9-5.7,7.3c-1.8-0.3-2.8-1.7-2.5-3.4c0.3-2.3,2.9-2.9,3.2-4.9c0.5-3.2-2.3-4.3-5.4-4.8c1.1,1.7,1.4,3.5,1.1,5.4
			C379.3,239.6,376,242.7,371,242z M369.3,231.4c-0.3,2,1.1,3.4,2.7,3.6c1.9,0.3,3.3-0.7,3.6-2.7c0.3-2-1.1-3.4-2.7-3.6
			C371.3,228.4,369.6,229.3,369.3,231.4z"/>
		<path class="st0" d="M371.9,216.2c0,2.1-1.2,3.1-2.9,3.1c-1.8,0-2.9-1.1-2.8-3.2l0.2-13.9c0-2.2,0.9-3.5,3.2-3.5
			c1.3,0,2.5,0.8,5.1,3.3c1.5,1.5,6.9,4.5,11.9,5.2c4.5,0.6,5,2.5,4.9,4.3c0,1.6-1.5,3.1-3.3,3.1c-4.6-0.1-13.9-5.7-16.1-8.4
			L371.9,216.2z"/>
		<path class="st0" d="M371.6,193.2c0.3,2.1-0.7,3.3-2.5,3.5c-1.8,0.2-3-0.7-3.2-2.8l-1.7-13.7c-0.3-2.2,0.4-3.6,2.7-3.9
			c1.3-0.2,2.6,0.4,5.5,2.5c1.7,1.3,7.4,3.5,12.5,3.5c4.5,0,5.3,1.8,5.5,3.6c0.2,1.6-1,3.3-2.8,3.5c-4.6,0.6-14.5-3.7-17.1-6
			L371.6,193.2z"/>
	</g>
	<rect x="314.4" y="186.4" class="st1" width="15.6" height="7.5"/>
	<path class="st2" d="M342.3,172.9H330c0,0-26.1,0-31.1,0c-5.1,0-5.9,2.3-5.9,5c0,2.7,0,43.1,0,43.1h21.4v-13.5h15.1
		c0,6.1-0.5,13.5-0.5,13.5h16.4c0.5-5,0.8-10.1,0.8-15.2C346.2,194.5,344.8,183.5,342.3,172.9z M329,194h-14.6v-7.5H328
		C329,190.9,329,194,329,194z"/>
	<path class="st2" d="M64.5,221h49.3v-13.5H80.2c0,0-0.3-24.5,7.1-45.7H70.7c-4.5,13.9-7,28.7-7,44C63.7,211,64,216,64.5,221z"/>
	<polygon class="st2" points="199.9,207.5 199.9,172.9 178.5,172.9 178.5,221 226.9,221 226.9,207.5 	"/>
	<polygon class="st2" points="286.9,186.4 286.9,172.9 233.8,172.9 233.8,221 286.9,221 286.9,207.5 255.2,207.5 255.2,200.2 
		280.1,200.2 280.1,193.8 255.2,193.8 255.2,186.4 	"/>
	<path class="st1" d="M149.8,207.5v-0.1C149.8,207.4,149.7,207.4,149.8,207.5L149.8,207.5z"/>
	<path class="st2" d="M149.8,172.9v27.5c-0.1,1.7-2.3,3.1-4.9,3.1c-2.7,0-4.8-1.4-4.9-3.1v-27.5h-21.4v34.6
		c0,7.8,0.1,13.5,26.3,13.5c26.2,0,26.3-5.8,26.3-13.5v-34.6H149.8z"/>
	<path class="st2" d="M325.6,152.4H317c-3.6,0-6.5,2.9-6.5,6.5v4.3c0,3.6,2.9,6.5,6.5,6.5h8.6c3.6,0,6.5-2.9,6.5-6.5v-4.3
		C332.1,155.3,329.2,152.4,325.6,152.4z M325.3,161.8c0,1.3-1.1,2.4-2.4,2.4h-3.2c-1.3,0-2.4-1.1-2.4-2.4v-1.6
		c0-1.3,1.1-2.4,2.4-2.4h3.2c1.3,0,2.4,1.1,2.4,2.4V161.8z"/>
	<g>
		<path class="st0" d="M122.9,119.4c0,0-18.5,30-18.6,30.2c-1.5,2-4,5.5-4,7.9c0,0.8,0,3,9.1,12.1c1,1,2.6,1,3.5,0
			c0.5-0.5,0.7-1.1,0.7-1.8c0-0.6-0.2-1.3-0.7-1.8c-3.2-3.2-6.8-7.3-7.6-8.7c0.2-0.8,1.6-3,2.9-4.7l0.1-0.1l18.8-30.4
			c0.3-0.4,0.4-0.9,0.4-1.3c0-0.8-0.4-1.7-1.2-2.1C125.2,117.8,123.7,118.2,122.9,119.4z"/>
	</g>
	<g>
		<path class="st0" d="M291.6,114.3c-1.2,0.7-1.6,2.2-1,3.4c3.8,6.8,13.7,25.8,13.7,32.3c0,5.9-8.9,13.1-12.4,15.4
			c-1.1,0.8-1.5,2.3-0.7,3.5c0.8,1.1,2.3,1.5,3.5,0.7c1.5-1,14.6-10,14.6-19.6c0-8.9-12.9-32.1-14.3-34.7
			C294.3,114,292.8,113.6,291.6,114.3z"/>
	</g>
	<path class="st0" d="M226,85.3c-8.8-3.5-25.4-4.3-34.8,5.1c-5.4,5.4-8.2,12.6-8.2,20.5c0,3.2,0.5,6.5,1.4,9.8
		c2.3,7.9,6.4,12.7,9.3,13.3c2,0.5,4.4-1.5,5.2-2.3l11-10.4c-1.2-1.3-2.2-2.7-2.8-3.8c-1.2-2.5,0.2-6.3,3.2-8.9l4.3-3.6
		c1.6-1.3,3.2-1.4,4.7-1.2c1.5,0.2,2.6,2.3,2.9,3.9c0.1,0.3,0.2,0.9,0.3,1.5l12.7-12.1c0,0,1.6-1.5,1.6-3.3
		C236.8,92.2,233.9,88.5,226,85.3z M195.7,111.4c-2.2,1.2-3.6-1.9-3.6-5.3c0-3.4,1.1-5.7,2.3-6.3
		C194.5,105.8,197.9,110.2,195.7,111.4z M207.3,102.4c-4.8,5.9-7.4-6-7.4-6S210.1,98.9,207.3,102.4z M215.1,95.8
		c-1.7,1.7-5-2.8-10.7-4.6c0.9-0.9,3.4-1.3,6.7-0.4C214.3,91.8,216.8,94,215.1,95.8z"/>
	<path class="st0" d="M214.6,123.1c1.9,1.4,4.5,1.6,5.6,0.5c1.1-1.1,2-4.7,1.4-8l-1.4-7.3c-0.2-1.3-0.8-2.1-1.6-2.4
		c-0.8-0.3-1.7,0-2.7,0.8l-4.3,3.6c-2.5,2-3.4,5-2.7,6.4C209.9,118.5,212.5,121.4,214.6,123.1z"/>
	<path class="st0" d="M272.6,133.8c-0.8-3.3-4.6-8.6-5.1-9.2c-0.8-1.1-2.4-1.4-3.5-0.6c-1.1,0.8-1.4,2.4-0.6,3.5
		c1.4,1.9,3.8,5.7,4.3,7.5c0.5,1.9,0.5,3.4-0.1,4.1c-0.5,0.7-1.8,1-3.7,1h-35.9c0,2.8-1.2,8-6.9,9.6l-0.2-0.9c4-1.6,5.4-4.5,5.4-8.7
		l0-7.6c0,0,8.1,1.9,9.9,0c4.1-4.1,0.4-17.6,0.4-17.6l3.6-1.2c0,0,0.6-10-5.5-13.2l-2.9,2.7v3.2h-3.3l-5.6,5.3l0.6,3.5
		c0.7,3.7-0.1,8-1.9,9.8c-1.9,1.9-5.5,1.8-8.3-0.3c-0.7-0.5-1.4-1.2-2.1-1.9l-10.9,10.4c-0.1,0.1-3,3.2-6.3,3l-5.2,3.6h-36.8
		c-2.6,0-2.9-0.6-3-2.3c-0.1-0.9,1-2.3,1.8-3c1-0.9,1.1-2.5,0.2-3.5c-0.9-1-2.5-1.1-3.5-0.2c-0.4,0.3-3.7,3.4-3.5,7.1
		c0.3,4.6,3,6.9,8,6.9h36.2c0.9,2.4,2.8,5.6,6.9,8.9c8.3,6.7,20.2,11,20.2,11s8.8-4.5,11.7-9.6c1.6-2.7,3.1-6.7,4.2-9.9H264
		c3.5,0,6.1-1,7.6-2.9C273.2,140.2,273.5,137.4,272.6,133.8z"/>
	<path class="st0" d="M247.1,65.2c-0.4,2.3-2.3,3.9-4.4,3.6l0,0c-2-0.3-3.4-2.5-3-4.8l2.1-12.7c0.4-2.3,2.3-3.9,4.4-3.6l0,0
		c2,0.3,3.4,2.5,3,4.8L247.1,65.2z"/>
	<path class="st0" d="M256.4,45.9c-2-0.3-4,1.3-4.4,3.6l-0.4,2.4c0,0,0,0,0,0l-2.1,12.7c-0.4,2.3,1,4.5,3,4.8c2,0.3,4-1.3,4.4-3.6
		l0.4-2.4v0l2.1-12.7C259.8,48.4,258.5,46.2,256.4,45.9z"/>
	<path class="st0" d="M266.9,64.8c-0.4,2.3-2.3,3.9-4.4,3.6l0,0c-2-0.3-3.4-2.5-3-4.8l2.1-12.7c0.4-2.3,2.3-3.9,4.4-3.6l0,0
		c2,0.3,3.4,2.5,3,4.8L266.9,64.8z"/>
	<path class="st0" d="M276.9,64.2c-0.4,2.3-2.3,3.9-4.4,3.6l0,0c-2-0.3-3.4-2.5-3-4.8l1.7-10.4c0.4-2.3,2.3-3.9,4.4-3.6l0,0
		c2,0.3,3.4,2.5,3,4.8L276.9,64.2z"/>
	<path class="st0" d="M168.6,77.2c0.1,2.3,1.9,4.2,3.9,4.1l0,0c2.1-0.1,3.6-2.1,3.5-4.4l-0.6-12.8c-0.1-2.3-1.9-4.2-3.9-4.1l0,0
		c-2.1,0.1-3.6,2.1-3.5,4.4L168.6,77.2z"/>
	<path class="st0" d="M162,60c2.1-0.1,3.8,1.7,3.9,4.1l0.1,2.4c0,0,0,0,0,0l0.6,12.8c0.1,2.3-1.5,4.3-3.5,4.4
		c-2.1,0.1-3.8-1.7-3.9-4.1l-0.1-2.4v0l-0.6-12.8C158.4,62.1,160,60.1,162,60z"/>
	<path class="st0" d="M149.5,80.5c0.1,2.3,1.9,4.2,3.9,4.1l0,0c2.1-0.1,3.6-2.1,3.5-4.4l-0.6-12.8c-0.1-2.3-1.9-4.2-3.9-4.1l0,0
		c-2.1,0.1-3.6,2.1-3.5,4.4L149.5,80.5z"/>
	<path class="st0" d="M140.1,83.8c0.1,2.3,1.9,4.2,3.9,4.1l0,0c2.1-0.1,3.6-2.1,3.5-4.4L147.1,73c-0.1-2.3-1.9-4.2-3.9-4.1l0,0
		c-2.1,0.1-3.6,2.1-3.5,4.4L140.1,83.8z"/>
	<path class="st0" d="M295.4,108.1c-0.8-1.7-13.9-29.4-15.3-33.4s-0.4-10.2-0.4-10.2l-1.7,0.3c-0.5,3-3,4.7-5.7,4.2
		c-1.2-0.2-2.3-0.9-3.1-1.9c-0.6-0.8-0.9-1.8-1-2.8l-0.1,0.7c-0.5,3-3.1,5.1-5.8,4.6c-1.2-0.2-2.3-0.9-3.1-1.9
		c-0.5-0.8-0.9-1.7-1-2.6l-0.2,0.9c-0.5,3-3.1,5.1-5.8,4.6c-1.2-0.2-2.3-0.9-3.1-1.9c-0.6-0.8-0.9-1.8-1-2.9
		c-0.6,2.8-3.1,4.7-5.7,4.2c-1.2-0.2-2.3-0.9-3.1-1.9c-0.9-1.2-1.2-2.8-1-4.3l0.4-2.3c0,0-3-4.8-8.1-3.5c-5.6,1.5,1.2,10.8,4.3,16.4
		c3.2,5.7,11.2,12.8,11.2,12.8s8,2.3,11.7,0c-2.1,3.9-10.2,2.4-10.2,2.4s13,31.4,13.6,32.7c0.6,1.3,1.8,0.9,4.2,0
		c2.5-0.9,27.4-10.1,28.5-10.6C296.5,110.5,296.1,109.5,295.4,108.1z"/>
	<path class="st0" d="M319.4,57.2l-1.3-8.2l-38.4,6c-0.1,1.9-1.5,8.9-1.5,8.9L319.4,57.2z"/>
	<path class="st1" d="M148.8,83.4l0.2-0.1c-0.1-0.2-0.2-0.3-0.3-0.5L148.8,83.4z"/>
	<path class="st0" d="M185.3,66.8c-4.7-1.8-7.8,4.1-7.8,4.1l-0.5,0.2l0.3,5.7c0.1,1.6-0.5,3.1-1.5,4.2c-0.9,1-2,1.5-3.3,1.6
		c-2,0.1-3.8-1.2-4.7-3.1c0,1.5-0.5,2.9-1.4,3.9c-0.9,1-2,1.5-3.3,1.6c-1.2,0.1-2.4-0.4-3.4-1.3c-0.8-0.7-1.3-1.6-1.6-2.7
		c-0.1,1.2-0.6,2.4-1.4,3.2c-0.9,1-2,1.5-3.3,1.6c-1.8,0.1-3.5-0.9-4.4-2.5l-0.2,0.1l0,0c0.1,1.6-0.5,3.1-1.5,4.2
		c-0.9,1-2,1.5-3.3,1.6c-1.3,0.1-2.6-0.5-3.5-1.4c-2.9,4.7-14.5,23.2-15,24c-0.8,1.5-1,3.2,0.7,4.2c0.7,0.4,23.7,12.5,25,13.1
		c1.2,0.6,3.3,0.6,4.2-1.1c0.6-1.1,14.8-28.8,14.8-28.8s-5.9,1.4-8.7-3.1c5.2,1.7,10.3,0,10.3,0l15.5-22.7
		C187.5,73.4,190,68.6,185.3,66.8z"/>
	<path class="st0" d="M188.4,73.9L188.4,73.9l-3.5,5.1l47.3-7.7c-1.7-3-3.5-5.9-4-8.3l-39.3,6.1C189.6,71.4,188.4,73.8,188.4,73.9z"
		/>
	<path class="st0" d="M138.7,77l-12.8,1.9c0,0-26-24-29.4-27.4c-3.3-3.3-8.2-4.1-10.9-2c-2.7,2.1-6.3,5.9-6.3,5.9L118,89.8l21.6-3.5
		C138.9,85.8,138.7,77,138.7,77z"/>
	<path class="st2" d="M344.3,229h-15.8c-2.5,10.7-6.1,21.6-6.1,21.6l-5.8-21.6h-16.3l11.5,43c-3.1,5.8-7,10.1-7,10.1v23.6
		C325.1,285.4,339.3,258.8,344.3,229z"/>
	<path class="st2" d="M269,228.6h-16.3l-9.3,34.8v-34.8H227v116.7c5.6-0.9,11-2.1,16.3-3.6v-50.1l8.5,47.4c5.2-1.8,10.3-4,15.2-6.4
		l-10.4-57.9L269,228.6z"/>
	<path class="st2" d="M286.5,301.4v-27.1h12v-13.2h-12v-19.3h12v-13.2h-12h-16.3v13.2v19.3v13.2v25.8v31
		c10.3-5.3,19.8-11.9,28.3-19.5v-21.9C295.5,293.2,291.6,296.9,286.5,301.4z"/>
	<path class="st2" d="M105.3,229v13H84.6c-2.3-7.1-3.3-13.4-3.3-13.4L65.6,229c4.1,25,14.8,47.7,30.2,66.5v-27.7c0,0-4-6.4-5.7-12.6
		h15.1v50.7c5.1,5.1,10.5,9.7,16.3,14V229H105.3z"/>
	<path class="st2" d="M170,334.7v-99c0-3.9-3.2-7.1-7.1-7.1h-25.7c-3.9,0-7.1,3.2-7.1,7.1c0,0,0,80.2,0,84.3s0.5,5.7,3.3,7.7
		c2.8,2,20.5,10.4,31.7,13.7C168,340.4,170,337.8,170,334.7z M154.3,313.2c0,2.3-1.9,4.2-4.2,4.2c-2.3,0-4.2-1.9-4.2-4.2v-64.9
		c0-2.3,1.9-4.2,4.2-4.2c2.3,0,4.2,1.9,4.2,4.2V313.2z"/>
	<path class="st2" d="M211.4,228.6h-25.7c-3.9,0-7.1,3.2-7.1,7.1v105c0,1.6,0.5,3,1.4,4.2c8.1,1.4,16.4,2.2,24.9,2.2
		c3.4,0,6.9-0.1,10.2-0.4c2-1.3,3.3-3.5,3.3-6v-41.5h0c0-1.3-1-2.3-2.3-2.3h-11c-1.3,0-2.3,1-2.3,2.3h0v26.1c0,2.3-1.9,4.2-4.2,4.2
		c-2.3,0-4.2-1.9-4.2-4.2v-76.9c0-2.3,1.9-4.2,4.2-4.2c2.3,0,4.2,1.9,4.2,4.2v26.1h0c0.2,1.1,1.1,2,2.3,2h11c1.2,0,2.1-0.9,2.3-2h0
		v-38.8C218.5,231.8,215.4,228.6,211.4,228.6z"/>
</g>
</svg>
