<?xml version="1.0" encoding="utf-8"?>
<!-- Generator: Adobe Illustrator 24.2.3, SVG Export Plug-In . SVG Version: 6.00 Build 0)  -->
<svg version="1.1" id="Lager_1" xmlns="http://www.w3.org/2000/svg" xmlns:xlink="http://www.w3.org/1999/xlink" x="0px" y="0px"
	 viewBox="0 0 460.3 173" style="enable-background:new 0 0 460.3 173;" xml:space="preserve">
<style type="text/css">
	.st0{fill:#FFFFFF;}
</style>
<g>
	<g>
		<polygon class="st0" points="328.2,81.9 311,155.4 356,155.4 388.2,17.6 364.6,17.6 		"/>
	</g>
	<polygon class="st0" points="329,17.6 284,17.6 251.9,155.4 275.5,155.4 311.9,91.1 	"/>
	<g>
		<path class="st0" d="M85.9,61c-6.1-1.8-3.4-10.1,2.9-10.1h66.1l18.9-33.4H91.6c-50,0-64.6,63.9-29.4,75.2l55.4,17
			c6.9,2.2,3.7,10.5-1.8,10.5H37.5l-19.9,35.2h104.7l40.6-71.7L85.9,61z"/>
	</g>
	<g>
		<polygon class="st0" points="380.8,120.3 358,155.4 422.9,155.4 442.8,120.3 		"/>
		<polygon class="st0" points="220.6,68.1 232.3,17.6 208.7,17.6 172.3,81.9 155.2,155.4 200.2,155.4 212.6,102.3 248.1,102.3 
			270.3,68.1 		"/>
	</g>
</g>
</svg>
