<?xml version="1.0" encoding="utf-8"?>
<!-- Generator: Adobe Illustrator 25.1.0, SVG Export Plug-In . SVG Version: 6.00 Build 0)  -->
<svg version="1.1" id="Lager_1" xmlns="http://www.w3.org/2000/svg" xmlns:xlink="http://www.w3.org/1999/xlink" x="0px" y="0px"
	 viewBox="0 0 100 94.6" style="enable-background:new 0 0 100 94.6;" xml:space="preserve">
<style type="text/css">
	.st0{fill:#FBB906;}
	.st1{fill-rule:evenodd;clip-rule:evenodd;}
	.st2{fill-rule:evenodd;clip-rule:evenodd;fill:#FBB906;}
</style>
<path class="st0" d="M50.2,79.5c-1.4,1-2.8,2.2-4.2,3.4c-5.8,4.7-12.9,10.1-20.6,11.4c1.4-3.1,0.4-5.9-2.2-7.2
	c-0.1-0.1-0.2-0.1-0.3-0.1c-1.1-0.5-2.6-0.7-4.2-0.7L16,86.4c1.6-2.8,1.2-5.5-0.7-7.1c-0.6-0.8-1.8-1.2-3.2-1.4
	c-0.7-0.1-1.6-0.2-2.5-0.1l-4.3,0.2c2-1.6,8.5-6.6,8.1-12C12.9,60.2,3.3,56.7,0,55.6l0.6-0.2c7.1-2.4,8-8.7,2.4-12.6
	c5.4-1.7,7-7.3,2.8-13.3c6.3,3,11.8-0.2,12.2-7.3c4.6,5.9,10.6,12.7,13,10.6c1.5-1.3-3.5-5.5-6.3-15l1.6,0.5
	c6.5,2.2,10.5-2.4,7.7-8.9l-0.3-0.8C40.5,15,48.3,9.6,50,0c1.6,9.6,9.5,15.4,16.3,9.1l-0.3,0.8c-2.8,6.5,1.2,11.2,7.7,8.9l1.6-0.5
	c-2.8,9.4-7.8,13.7-6.3,15c2.4,2.1,8.4-4.8,13-10.6c0.4,7.1,5.9,10.4,12.2,7.3c-4.2,5.9-2.6,11.6,2.8,13.3
	c-5.6,3.9-4.7,10.2,2.4,12.6l0.6,0.2c-3.3,1-12.9,4.5-13.4,10.3c-0.4,5.4,6,10.3,8.1,12l-4.3-0.2c-0.9-0.1-1.7,0-2.5,0.1
	c-1.4,0.2-2.6,0.6-3.2,1.4c-1.9,1.6-2.3,4.3-0.7,7.1l-2.8-0.2c-1.7-0.1-3.1,0.2-4.2,0.7c-0.1,0-0.2,0.1-0.3,0.1
	c-2.6,1.3-3.6,4.1-2.2,7.2c-7.7-1.3-14.8-6.7-20.6-11.4C52.6,82.1,51.6,80.4,50.2,79.5L50.2,79.5z"/>
<path d="M50.5,75.4c-3,0-5.5-1.8-6.6-4.4l22-28.8c-0.5,3.1-0.8,6.3-0.8,9.6c0,3.5,0.3,7,0.9,10.3c0.1,0.3,0.1,0.7,0.2,1.1
	c0,0.4,0.1,0.6,0.1,0.9c0,3.7-3.1,6.8-7,6.8c-0.8,0-1.6-0.1-2.3-0.4C56.1,73.4,53.7,75.4,50.5,75.4L50.5,75.4z"/>
<path d="M34.8,61.5c0.5-3.1,0.8-6.4,0.8-9.6c0-3.5-0.3-6.9-0.9-10.2c-0.1-0.3-0.1-0.7-0.2-1.1c0-0.4-0.1-0.6-0.1-0.9
	c0-3.7,3.1-6.8,7-6.8c0.8,0,1.6,0.1,2.3,0.4c0.9-2.8,3.5-4.9,6.7-4.9c3,0,5.3,1.8,6.3,4.3L34.8,61.5L34.8,61.5z"/>
<path class="st1" d="M41.4,72.5c-4.7,0-8.6-3.7-8.6-8.3c0-0.4,0-0.7,0.1-1.1c0.1-0.5,0.1-0.8,0.2-1.2c0.5-3.2,0.9-6.6,0.9-10
	c0-3.4-0.3-6.7-0.9-9.9c-0.1-0.4-0.1-0.7-0.2-1.2c-0.1-0.4-0.1-0.7-0.1-1.1c0-4.6,3.9-8.3,8.6-8.3c0.4,0,0.9,0,1.4,0.1
	c1.4-2.7,4.3-4.6,7.7-4.6c3.4,0,6.1,1.9,7.4,4.6c0.4-0.1,0.9-0.1,1.3-0.1c4.7,0,8.6,3.7,8.6,8.3c0,0.4,0,0.7-0.1,1.1
	c-0.1,0.5-0.1,0.8-0.2,1.2c-0.5,3.2-0.9,6.5-0.9,9.9c0,3.4,0.3,6.8,0.9,10c0.1,0.4,0.1,0.7,0.2,1.2c0.1,0.4,0.1,0.7,0.1,1.1
	c0,4.6-3.9,8.3-8.6,8.3c-0.4,0-0.9,0-1.3-0.1c-1.3,2.7-4,4.6-7.4,4.6c-3.3,0-6.3-1.9-7.7-4.6C42.3,72.4,41.9,72.5,41.4,72.5
	L41.4,72.5z M43.1,71.8C42.5,71.9,42,72,41.4,72c-4.4,0-8.1-3.4-8.1-7.8c0-0.4,0-0.6,0.1-1.1c0.1-0.4,0.1-0.8,0.2-1.1
	c0.6-3.3,0.9-6.7,0.9-10.1c0-3.4-0.3-6.8-0.9-10c-0.1-0.3-0.1-0.7-0.2-1.1c-0.1-0.4-0.1-0.7-0.1-1.1c0-4.3,3.6-7.8,8.1-7.8
	c0.5,0,1.1,0.1,1.6,0.2c1.2-2.8,4.1-4.7,7.4-4.7c3.3,0,5.9,1.9,7.1,4.7c0.5-0.1,1.1-0.2,1.6-0.2c4.4,0,8.1,3.4,8.1,7.8
	c0,0.4,0,0.6-0.1,1.1c-0.1,0.4-0.1,0.8-0.2,1.1c-0.6,3.3-0.9,6.6-0.9,10c0,3.4,0.3,6.8,0.9,10.1c0.1,0.3,0.1,0.7,0.2,1.1
	c0.1,0.4,0.1,0.7,0.1,1.1c0,4.3-3.6,7.8-8.1,7.8c-0.5,0-1.1-0.1-1.6-0.2c-1.2,2.7-3.8,4.7-7.1,4.7C47.2,76.5,44.3,74.6,43.1,71.8
	L43.1,71.8z"/>
<path class="st1" d="M41.4,70.4c-3.6,0-6.5-2.8-6.5-6.2c0-0.1,0-0.3,0-0.4L58,33.6c0.4-0.1,0.8-0.1,1.2-0.1c3.6,0,6.5,2.8,6.5,6.2
	c0,0.1,0,0.2,0,0.3L42.5,70.3C42.2,70.4,41.8,70.4,41.4,70.4L41.4,70.4z M42.8,70.8c-0.5,0.1-0.9,0.1-1.4,0.1c-3.9,0-7-3-7-6.8
	c0-0.2,0-0.4,0-0.6l23.3-30.5c0.5-0.1,1-0.1,1.5-0.1c3.9,0,7,3,7,6.8c0,0.2,0,0.3,0,0.5L42.8,70.8L42.8,70.8z"/>
<path class="st1" d="M40.3,59.3l0.5-0.7l0.3-0.4l7.5,1.7l-1,1.3l-1.5-0.4l-2.3,3l0.8,1.4l-1,1.3l-3.5-6.9L40.3,59.3L40.3,59.3z
	 M41.4,59.6l1.7,3.1l1.7-2.2L41.4,59.6L41.4,59.6z"/>
<polygon points="52.3,55.1 46.7,50.8 47.6,49.6 53.2,53.9 52.3,55.1 "/>
<polygon points="53.4,42.2 55.8,44 55.8,39 57,37.3 57.1,41.4 62.6,41.4 61.6,42.8 57.1,42.7 57.1,45 58.9,46.4 58,47.6 52.4,43.3 
	53.4,42.2 "/>
<path class="st1" d="M40.8,57.1l9.6,2.2l-2.4,3.1l-1.5-0.4l-1.5,2l0.8,1.4l-2.3,3l-4.5-8.8l0.7-0.9l0.5-0.7L40.8,57.1L40.8,57.1z
	 M47.5,48.2l7.1,5.5l-2.1,2.7L45.4,51L47.5,48.2L47.5,48.2z M54.8,38.7l3.2-4.2l0,5.9l6.6,0.1l-2.6,3.3l-4-0.1l0,0.8l2.2,1.7
	L58.2,49l-7.1-5.5l2.1-2.8l1.6,1.3L54.8,38.7L54.8,38.7z M55.3,43l0-4.2l2.3-2.9l0,5l6,0.1l-1.8,2.4l-4.3-0.1l0,1.5l2,1.6l-1.5,2
	l-6.3-4.9l1.5-2L55.3,43L55.3,43z M46,50.9l1.5-2l6.3,4.9l-1.5,2L46,50.9L46,50.9z M40.5,58.3l0.5-0.6l8.6,1.9l-1.7,2.2l-1.5-0.4
	l-1.9,2.5l0.8,1.4l-1.6,2.1l-4-7.8l0.5-0.6L40.5,58.3L40.5,58.3z"/>
<path class="st1" d="M39.1,64.8c0.8,0,1.4,0.6,1.4,1.4s-0.6,1.4-1.4,1.4c-0.8,0-1.4-0.6-1.4-1.4S38.3,64.8,39.1,64.8L39.1,64.8z
	 M41,66.2c0,1-0.8,1.9-1.9,1.9c-1,0-1.9-0.8-1.9-1.9s0.8-1.9,1.9-1.9C40.1,64.3,41,65.1,41,66.2L41,66.2z M38.2,66.2
	c0-0.5,0.4-0.9,0.9-0.9c0.5,0,0.9,0.4,0.9,0.9s-0.4,0.9-0.9,0.9C38.6,67.1,38.2,66.7,38.2,66.2L38.2,66.2z"/>
<path class="st1" d="M47.1,54.5c0.8,0,1.4,0.6,1.4,1.4c0,0.8-0.6,1.4-1.4,1.4c-0.8,0-1.4-0.6-1.4-1.4C45.8,55.1,46.4,54.5,47.1,54.5
	L47.1,54.5z M49,55.9c0,1-0.8,1.9-1.9,1.9c-1,0-1.9-0.8-1.9-1.9c0-1,0.8-1.9,1.9-1.9C48.2,54,49,54.8,49,55.9L49,55.9z M46.2,55.9
	c0-0.5,0.4-0.9,0.9-0.9c0.5,0,0.9,0.4,0.9,0.9c0,0.5-0.4,0.9-0.9,0.9C46.6,56.8,46.2,56.4,46.2,55.9L46.2,55.9z"/>
<path class="st1" d="M52.8,47.3c0.8,0,1.4,0.6,1.4,1.4c0,0.8-0.6,1.4-1.4,1.4c-0.8,0-1.4-0.6-1.4-1.4C51.4,47.9,52,47.3,52.8,47.3
	L52.8,47.3z M54.7,48.6c0,1-0.8,1.9-1.9,1.9c-1,0-1.9-0.8-1.9-1.9c0-1,0.8-1.9,1.9-1.9C53.8,46.8,54.7,47.6,54.7,48.6L54.7,48.6z
	 M51.9,48.6c0-0.5,0.4-0.9,0.9-0.9c0.5,0,0.9,0.4,0.9,0.9c0,0.5-0.4,0.9-0.9,0.9C52.3,49.5,51.9,49.1,51.9,48.6L51.9,48.6z"/>
<path class="st1" d="M61.4,36.2c0.8,0,1.4,0.6,1.4,1.4c0,0.8-0.6,1.4-1.4,1.4c-0.8,0-1.4-0.6-1.4-1.4C60,36.8,60.7,36.2,61.4,36.2
	L61.4,36.2z M63.3,37.6c0,1-0.8,1.9-1.9,1.9c-1,0-1.9-0.8-1.9-1.9c0-1,0.8-1.9,1.9-1.9C62.4,35.7,63.3,36.6,63.3,37.6L63.3,37.6z
	 M60.5,37.6c0-0.5,0.4-0.9,0.9-0.9c0.5,0,0.9,0.4,0.9,0.9c0,0.5-0.4,0.9-0.9,0.9C60.9,38.5,60.5,38.1,60.5,37.6L60.5,37.6z"/>
<path class="st2" d="M41.2,38.6c0.3,0.5-0.1,1.3,0.6,1.4c0.3,0.1,0.5,0.4,0.4,0.7c-0.1,0.3-0.8,0.5-1.1,0.1C41,40.8,41,40.7,41,40.6
	c0.2-0.2,0.4,0.4,0.8,0.2c0.1-0.1,0.2-0.3,0.1-0.4c-0.3-0.3-0.4-0.1-0.5-0.2c-0.3-0.2-0.1-1.3-0.5-1.6c-0.3-0.2-0.5-0.3-0.9-0.3
	c0,0-0.5,0.1-0.5,0C39.4,38,40.6,37.9,41.2,38.6L41.2,38.6z M42.8,38c0.3,0,0.8,0.1,0.8,0.2c0,0.1-0.5,0-0.8,0c-0.4,0-0.9,0.4-1,0.3
	C41.8,38.4,42.3,38.1,42.8,38L42.8,38z M39.3,39.3c0.2-0.3,0.4-0.5,0.7-0.5c0.3,0,0.5,0.2,0.7,0.5c-0.2,0.2-0.4,0.5-0.7,0.5
	C39.6,39.8,39.4,39.6,39.3,39.3L39.3,39.3z M42,39.4c0.2-0.3,0.4-0.5,0.7-0.5c0.3,0,0.5,0.2,0.7,0.5c-0.2,0.2-0.4,0.5-0.7,0.5
	C42.4,39.8,42.2,39.6,42,39.4L42,39.4z M40,41.4c-0.1,0.2-0.2,0.3-0.3,0.4c-0.1,0.1-0.2,0-0.1-0.1c0.1-0.1,0.2-0.2,0.2-0.4
	C39.9,41.2,40.1,41.3,40,41.4L40,41.4z M42.7,41.4c0.1,0.2,0.2,0.3,0.3,0.4c0.1,0.1,0.2,0,0.1-0.1c-0.1-0.1-0.2-0.2-0.2-0.4
	C42.8,41.2,42.7,41.3,42.7,41.4L42.7,41.4z M42.4,41.8c-0.3,0.1-0.6,0.5-1,0.5c-0.4,0-0.6-0.4-1-0.5c0.3-0.1,0.6-0.3,1-0.3
	C41.8,41.6,42.1,41.8,42.4,41.8L42.4,41.8z M41.5,45.6l-0.6-2.2l-1.3,1.8l0.2-2.3L37.9,44l1-2l-2.1,0.2l1.6-1.4l-2-0.7l2-0.7
	L36.8,38l2.1,0.2l-1-2l1.9,1.1L39.5,35l1.3,1.8l0.6-2.2l0.6,2.2l1.3-1.8l-0.2,2.3l1.9-1.1l-1,2l2.1-0.2l-1.6,1.4l2,0.7l-2,0.7
	l1.6,1.4L44.1,42l1,2l-1.9-1.1l0.2,2.3l-1.3-1.8L41.5,45.6L41.5,45.6z"/>
<path class="st2" d="M55.2,65.9c-0.8,0-1.3-0.7-1.3-1.5c0-1.2,0.6-1.7,1.4-1.7c0.7,0,1.1,0.4,1.3,1c0.2,0.5,0.2,1.1,0.2,1.5
	c0,1.8-0.8,2.4-1.5,2.4c-0.7,0-1.2-0.5-1.3-1.3l0-0.1h0.9l0,0.1c0,0.3,0.2,0.4,0.4,0.4c0.3,0,0.5-0.2,0.6-0.9l0-0.1l-0.1,0.1
	C55.7,65.9,55.5,65.9,55.2,65.9L55.2,65.9z M55.9,64.4c0-0.5-0.2-0.8-0.6-0.8c-0.2,0-0.5,0.1-0.5,0.7c0,0.6,0.3,0.8,0.5,0.8
	C55.7,65.1,55.9,64.9,55.9,64.4L55.9,64.4z M61.2,63.5c0.8,0,0.9-0.4,0.9-0.7l0-0.1h0.8v4.8H62v-3.2h-1v-0.8H61.2L61.2,63.5z
	 M57.6,64.4c0-1.6,1-1.7,1.4-1.7c0.8,0,1.5,0.5,1.5,1.5c0,0.8-0.5,1.3-0.9,1.6c-0.3,0.2-0.5,0.4-0.6,0.5l-0.1,0.1l-0.1,0.1l1.7,0v1
	h-2.9l0-0.1c0-0.6,0.1-1.2,1-1.9c0.7-0.6,1-0.8,1-1.3c0-0.3-0.1-0.6-0.5-0.6c-0.5,0-0.5,0.4-0.5,0.8l0,0.1L57.6,64.4L57.6,64.4
	L57.6,64.4z M51.5,63.5c0.8,0,0.9-0.4,0.9-0.7l0-0.1h0.8v4.8h-0.9v-3.2h-1v-0.8H51.5L51.5,63.5z"/>
</svg>
