<?xml version="1.0" encoding="utf-8"?>
<!-- Generator: Adobe Illustrator 26.0.2, SVG Export Plug-In . SVG Version: 6.00 Build 0)  -->
<svg version="1.1" id="Lager_1" xmlns="http://www.w3.org/2000/svg" xmlns:xlink="http://www.w3.org/1999/xlink" x="0px" y="0px"
	 viewBox="0 0 200 200.4" style="enable-background:new 0 0 200 200.4;" xml:space="preserve">
<style type="text/css">
	.st0{fill:none;}
	
		.st1{fill-rule:evenodd;clip-rule:evenodd;fill:#FFFFFF;stroke:#CCDCE5;stroke-width:1.7699;stroke-linecap:round;stroke-linejoin:round;stroke-miterlimit:2.6131;}
	
		.st2{fill-rule:evenodd;clip-rule:evenodd;fill:#124A97;stroke:#CCDCE5;stroke-width:1.7699;stroke-linecap:round;stroke-linejoin:round;stroke-miterlimit:2.6131;}
	.st3{fill-rule:evenodd;clip-rule:evenodd;fill:#FFFFFF;}
	.st4{fill-rule:evenodd;clip-rule:evenodd;fill:#E33125;}
</style>
<g>
	<rect y="0.2" class="st0" width="200" height="200"/>
	<g>
		<path class="st1" d="M18.5,1.2c-5.8,0-7.6,1.1-7.6,7.4l3.2,105.7c2.5,67.9,60.5,84.9,85.9,84.9c25.5,0,83.4-17,85.9-84.9
			l3.2-105.7c0-6.4-1.8-7.4-7.6-7.4H18.5L18.5,1.2z"/>
		<path class="st2" d="M21.2,148.6c16.8,39.6,58.3,50.6,78.8,50.6c20.5,0,62.1-10.9,78.8-50.6c-5.3-3.1-7.8-6.6-14.3-6.6
			c-10.4,0-13.8,8-27.8,8c-16.8,0-17.9-11.1-36.8-11.1c-18.9,0-20,11.1-36.8,11.1c-14,0-17.3-8-27.8-8
			C29,141.9,26.5,145.6,21.2,148.6L21.2,148.6z"/>
		<polygon class="st3" points="55.5,160.7 51.4,160.7 51.4,157.5 63.1,157.5 63.1,160.7 59,160.7 59,181.1 55.5,181.1 55.5,160.7 		
			"/>
		<polygon class="st3" points="64.8,157.5 68.3,157.5 68.3,181.1 64.8,181.1 64.8,157.5 		"/>
		<polygon class="st3" points="71.7,157.5 75.1,157.5 79.6,170 79.7,170 84.2,157.5 87.6,157.5 87.6,181.1 84.1,181.1 84.1,166.7 
			84,166.7 80.5,176.9 78.8,176.9 75.3,166.7 75.3,166.7 75.3,181.1 71.7,181.1 71.7,157.5 		"/>
		<path class="st3" d="M90.8,157.5h5.7c4.2,0,6.2,2.3,6.2,6.9c0,2.7-0.8,4.7-3,5.9l3.8,10.7h-3.7L96.4,171h-2.1v10.1h-3.5V157.5
			L90.8,157.5z M94.3,168h2c2.5,0,2.8-1.3,2.8-3.7c0-2.4-0.4-3.7-3-3.7h-1.8V168L94.3,168z"/>
		<path class="st3" d="M110.4,150.1c1.9,0,3.5,1.6,3.5,3.4c0,1.9-1.6,3.4-3.5,3.4c-1.9,0-3.5-1.6-3.5-3.4
			C106.9,151.6,108.5,150.1,110.4,150.1L110.4,150.1z M110.4,155.5c1.2,0,2.1-0.9,2.1-2c0-1.1-0.9-2-2.1-2c-1.2,0-2.1,0.9-2.1,2
			C108.3,154.6,109.2,155.5,110.4,155.5L110.4,155.5z M110.4,164.3L110.4,164.3l-1.8,8.5h3.5L110.4,164.3L110.4,164.3z M108.9,157.5
			h2.9l5.5,23.6h-3.5l-1-5.1H108l-1,5.1h-3.5L108.9,157.5L108.9,157.5z"/>
		<polygon class="st3" points="124,157.5 127.6,157.5 127.6,181.1 124,181.1 124,157.5 		"/>
		<polygon class="st3" points="131,157.5 134.5,157.5 134.5,168.3 134.6,168.3 139.8,157.5 143.3,157.5 138.5,166.9 144.2,181.1 
			140.4,181.1 136.4,170.6 134.5,174 134.5,181.1 131,181.1 131,157.5 		"/>
		<path class="st4" d="M64.7,14.4c0.8,0.1,1.4,0.4,2.1,0.2c0.1,0.1,0.2,0.1,0.4,0.2c0.3,0.6,0.6,1.1,1.2,1.2
			c0.2-0.2,0.4-0.5,0.7-0.5c0.3,0.4,0.8,0.4,1.2,0.4c0.8,0.3,1.5,0.7,1.6,1.6c0.3,0.1,0.4-0.2,0.7-0.2c0.8,1.4,2.6,1.4,4.1,1.6
			c0.4,0.3,0.5,0.7,0.7,1.1c0.3-0.1,0.6,0.2,0.9,0.2c0.3,0.2,0.4,0.5,0.4,0.9c0.1,0.1,0.2,0.1,0.4,0.2c2-0.6,3.3,1.9,3.7,3.5
			c0,0.2,0,0.5,0,0.7c0.9,1.3,0.6,2.9-0.4,4.1c0,0.3,0,0.6,0,0.9c-0.2,0.2-0.4,0.4-0.5,0.5c-1.8,0.4-3.7,0.3-4.9-1.2
			c-0.5,0-1.1,0-1.6-0.2c-0.6,0.3-1.3,0.2-1.9,0.5c-1.2-0.6-2.6-1.1-3.9-0.4c-0.5,0.8-1.1,1.5-1.4,2.5c0,0.9,0,1.9,0,2.8
			c0.3,0.6,0.8,1.1,1.2,1.6c1.2,0.3,2.3,0.8,3.4,1.4c0.4,0,0.8,0,1.2,0c0.6,0.6,1.4,0.9,2.1,1.2c0.7-0.1,1.3,0.3,1.9,0.2
			c1.6,0.7,3.1,1.8,4.8,2.3c0.6,0.5,1,1.1,1.6,1.6c0.2,0.1,0.5,0.2,0.7,0.4c1.2,0.1,2.4,0.3,3.2,1.2c0,0.7,0.1,1.5-0.4,2.1
			c1.3,1,0.2,2.4-0.2,3.5c0,0.2,0,0.4,0,0.5c-0.5,0.5-0.5,1.5-1.4,1.8c-0.2,0.8-0.9,1.4-1.2,2.1c-0.3,0.1-0.5,0.3-0.7,0.5
			c-0.1,0.7-0.5,1.1-1.1,1.6c-1-0.1-2,0.3-3,0.4c-0.5,0.4-1.1,0.4-1.8,0.4c-0.2,0.1-0.5,0.2-0.7,0.4c-0.7,0-1.5,0-2.1-0.4
			c-0.2,0-0.5,0-0.7,0c-0.2-0.1-0.5-0.2-0.7-0.4c-0.1,0.1-0.1,0.1-0.2,0.2c-0.6-0.5-1.2,0.1-1.8,0c-1.3-0.8-2.7-0.3-4.1,0
			c-0.7,0.5-0.8,1.5-1.6,1.9c-0.4,1.8-0.2,3.6,0,5.5c-0.3,0.4,0,0.9-0.4,1.2c0.3,0.8,0.8,1.2,1.4,1.8c0.4,0.1,0.3-0.4,0.5-0.5
			c0.7,0,1.5,0,2.1-0.4c0.7,0,1.4-0.1,1.9,0.4c0.5,0,1.1,0,1.6,0c1.7,0.7,3.4,1.6,5.3,1.6c1.1,0.9,2.5,0.9,3.9,0.7
			c0.7,0.6,1.4,1,2.3,0.7c0.1,0.1,0.2,0.1,0.4,0.2c0.5-0.5,1.2-1,1.9-0.9c0.9,1,2.2,1.7,3.5,1.6c0.8,0.4,1.1,1.3,1.8,1.8
			c0.2,0.5,0.5,0.9,0.9,1.2c0.2,1.5,0.7,3,0,4.4c-0.5,0.5-0.9,1.1-1.6,1.4c-0.4,1.4-1.2,2.8-1.1,4.2c-0.6,0.9-0.7,2-0.9,3
			c-0.6,0.6-1.5,0.5-1.9,1.2c-0.7,0.2-1.4-0.1-2.1,0c-0.2,0.4-1-0.1-1.1,0.5c-0.9,0-1.8,0.2-2.7-0.2c-0.2,0.3-0.6,0.1-0.9,0.2
			c-1.5-0.4-2.4-1.6-2.7-3c0.1-0.1,0.1-0.2,0.2-0.4c-0.3-0.7-0.7-1.5-1.6-1.4c-0.2,0.1-0.5,0.2-0.7,0.4c-2.1,2.5-4.9,4.1-7.4,6
			c-1.5,2-2.8,4.2-3.4,6.7c0,1.6-0.1,3.2,0,4.8c-0.2,0.2-0.1,0.6-0.4,0.9c0.4,1.4,0,2.8,0.2,4.2c-0.1,0.2-0.2,0.3-0.2,0.5
			c0.3,1.4-0.2,2.9,0,4.4c0.2,0.2,0.2,0.5,0.2,0.7c-0.2,0.3-0.2,0.6-0.2,0.9c0.8,2.5,0.2,5.1,0.4,7.6c0.1,0.2,0.2,0.5,0.4,0.7
			c-0.2,1.1,0.5,2,0.5,3c0.2,0.5,0.5,0.9,0.9,1.2c0,0.4,0.3,0.6,0.4,0.9c3,2.8,7.2,2.1,11,2.5c0.2,0.2,0.6,0.1,0.9,0.4
			c0.4,0,0.8,0,1.2,0c1,0.8,2.9,0.8,3.2,2.3c-0.2,0.2-0.4,0.4-0.5,0.5c-1-0.1-2.1,0.5-3-0.2c-0.2,0.3-0.5,0.1-0.7,0.2
			c-0.5-0.4-1-0.7-1.6-0.9c-1.7,0.7-3.5,0.7-5.3,0.7c-1.1,0.2-1.2,1.2-0.9,2.1c0.8,0.7,1.7,1.1,2.7,1.6c0.9,0,1.6,0.7,2.5,1.1
			c0,0.6-0.6,1.3-1.2,1.2c-0.8,0.3-1.7,0.2-2.5,0.7c-0.9,0-1.8,0-2.7,0c-1-0.6-2.2-0.7-3-1.6c-0.9-0.5-1.8-1-2.8-1.2
			c-0.8,0.4-1.6,0.8-1.8,1.8c0.2,0.8,0.4,1.6,0.7,2.3c-0.3,0.6-0.5,1.2-1.1,1.6c-0.8,0.5-1.5,0-1.8-0.9c-0.3-0.1-0.8-0.2-0.7-0.7
			c0.7-1.1-0.1-2.2,0-3.4c-0.5-0.6-1.1-1.3-1.9-1.1c-1.8,0.6-3.3,1.7-5.1,2.3c-1.2,0-2.5,0-3.7,0c-0.3-0.1-0.5-0.3-0.7-0.5
			c0.1-0.7,0.6-1.1,1.1-1.6c1.2-0.3,2.2-1.1,3.2-1.8c0.1-0.6,0.5-1,0.7-1.6c0-0.7-0.8-0.9-1.2-1.2c-1.3-0.1-2.5-0.3-3.7-0.5
			c-0.8-0.5-1.6-0.4-2.5-0.7c-0.1,0.1-0.1,0.1-0.2,0.2c-0.9-0.1-1.6-0.4-2.5-0.9c-0.3-0.3-0.4-0.7-0.4-1.1c3.5-2.1,7.7-0.7,11.5-1.4
			c0.4-0.1,0.4-0.6,0.9-0.5c2.4-1.5,2.5-4.6,3-7.1c-0.1-0.2-0.2-0.3-0.2-0.5c0.4-0.7,0-1.6,0.4-2.3c-0.3-0.4-0.1-0.8-0.2-1.2
			c0.2-0.2,0.1-0.6,0.4-0.9c-0.4-0.4-0.1-0.9-0.2-1.4c0.1-0.1,0.1-0.2,0.2-0.4c-0.3-0.2-0.2-0.5-0.2-0.7c0.3-1.8,0.3-3.5,0.4-5.3
			c0.2-0.1,0.3-0.3,0.4-0.5c-0.1-0.2-0.2-0.5-0.4-0.7c-0.1-1.4,0.2-2.8-0.2-4.2c0.1-0.7-0.2-1.4,0.2-2.1c0.1-0.4-0.1-0.7-0.2-1.1
			c0.4-0.9,0.1-1.8,0.2-2.7c-0.2-0.2-0.2-0.5-0.2-0.7c0.1-0.1,0.1-0.2,0.2-0.4c-0.3-3-2.5-5.2-4.6-7.1C53.7,87,52.3,86,50.6,86
			c-0.9,0.2-1.5,1-2.3,1.4c-0.4,0-0.7,0-1.1,0c-0.8,0.4-1.6,0.7-2.5,0.9c-1.5-0.6-2.9,0.4-4.4,0.2c-0.2-0.2-0.6-0.1-0.9-0.4
			c-0.7-1.1-1.9-0.9-3-1.2c-0.3-0.5-0.4-1-0.4-1.6c-0.2-0.5-0.6-0.7-0.9-1.1c0-0.6,0-1.2,0-1.8c-0.4-0.6-0.4-1.3-0.4-1.9
			c-0.1-0.2-0.2-0.5-0.4-0.7c-0.7-0.2-1.2-0.8-1.6-1.4c0.1-0.1,0.1-0.2,0.2-0.4c-0.5-0.7,0.1-1.4,0-2.1c-0.3-0.4-0.1-0.9-0.2-1.4
			c0.5-0.2,0.9-0.5,1.4-0.7c0-0.1,0-0.2,0-0.4c0.4-0.6,0.9-1,1.4-1.4c0.5,0,0.9,0,1.4,0c1-0.4,1.9-1.2,3-1.1
			c0.6-0.4,1.3-0.7,1.9-1.1c0.5,0,0.9,0,1.4,0c1.9-1,4-1.7,6.2-1.6c0.4-0.2,0.7-0.4,1.1-0.5c0.8,0.1,1.6-0.2,2.3,0.2
			c0.5-0.3,1.1-0.1,1.6-0.5c0.4,0,0.8,0,1.2,0c1.1-0.6,2.3-0.6,3.5-0.9c0.8-0.4,1.4-1.1,1.6-1.9c-0.4-0.8,0-1.6,0-2.5
			c-0.4-0.7-0.4-1.5-0.4-2.3c-0.1-0.3-0.5-0.5-0.4-0.9c0.1-0.1,0.1-0.2,0.2-0.4c-0.6-0.7-0.7-1.5-1.1-2.3c-0.6-0.5-1.4-0.8-2.1-1.1
			c-1.6,0.7-3.3,1.4-5.1,1.2c-0.5,0.2-0.9,0.5-1.2,0.9c-1,0.1-2.2-0.4-3,0.5c-0.7,0.1-1.2-0.2-1.8-0.5c-0.6,0-1.2,0.4-1.8,0
			c-0.1-0.2-0.2-0.5-0.4-0.7c-1-0.6-2.3-0.7-2.8-1.9c-0.6-0.1-1.1-0.6-1.8-0.5c-0.2-0.3-0.7-0.3-0.7-0.7c0.1-0.2,0.2-0.5,0.4-0.7
			c-0.3-0.8-0.6-1.6,0-2.3c0.1-1.3,0.3-2.6,0.4-3.9c0.9-0.8,1-2.1,1.1-3.2c0.1-0.2,0.3-0.3,0.5-0.4c1.3,0.3,2.3-0.5,2.5-1.8
			c1.1-0.6,2.4-0.4,3.5-1.1c0.3,0,0.6,0,0.9,0c0.6-0.3,1.2-0.6,1.8-0.9c0.8,0.2,1.7-0.5,2.5,0c1.1-0.8,2.5-0.4,3.7-0.4
			c0.5-0.2,0.9-0.6,1.4-0.5c0.3,0.2,0.6,0.2,0.9,0.2c0.6-0.3,1.1-0.7,1.8-0.5c1.6-0.3,2-2,2.8-3.2c0.1-1.2-0.1-2.4-0.5-3.5
			c-0.9-0.6-1.4-1.7-2.3-2.3c-0.4-0.3-1-0.3-1.4-0.5c-0.2,0.2-0.3,0.3-0.7,0c-0.1,0.1-0.2,0.1-0.4,0.2c-0.1-0.1-0.2-0.1-0.4-0.2
			c-1.3,0.7-2,2.2-3.5,2.5c-0.7,0-1.4-0.2-2.1-0.4c-0.9,0.4-1.7,0.9-2.7,1.2c-0.2,0-0.5,0-0.7,0c-0.9-0.6-1.8-1.5-3-1.4
			c-0.1-0.1-0.2-0.2-0.4-0.4c0-0.3,0-0.6,0-0.9c-0.8-1.2-1-2.7,0-3.9c0.5-0.1,1-0.4,1.6-0.4c0.5-0.3,0.7-0.8,1.2-1.1
			c0.2-0.4,0.2-0.9,0.5-1.2c0-0.2,0-0.5,0-0.7c0.6-0.7,1.3-1.9,2.3-1.4c0.6-0.4,1-1.1,1.8-1.2c0-0.2,0.1-0.3,0.2-0.4
			c0.5,0.1,0.6-0.4,0.7-0.7c0.4-0.4,1-0.6,1.4-0.9c0.1,0.1,0.2,0.1,0.4,0.2c0.1-0.2,0.3-0.3,0.5-0.4c0-0.1,0-0.2,0-0.4
			c0.4-0.5,0.9-0.9,1.6-1.1c0.1-0.2,0.2-0.4,0.4-0.5c0.6-0.1,1.2,0.2,1.8,0.4c0.1-0.1,0.2-0.1,0.4-0.2c0.1-0.5,0.4-0.7,0.7-1.1
			C61.7,14.7,63.2,14.4,64.7,14.4L64.7,14.4z M60.1,81.4c-0.9-0.7-2-0.3-2.7,0.5c-0.8-0.1-1.6,0.5-1.9,1.2c0,0.4-0.1,0.9,0.2,1.2
			c-0.1,0.1-0.1,0.2-0.2,0.4c1.9,0.2,2.9,2,4.2,3.2c0.6,0.1,1.1,0.4,1.8,0.2c0.3-0.5,0.2-1.1,0.5-1.6c-0.4-0.4,0-1-0.5-1.2
			c0-0.2,0-0.4,0-0.5C61,83.6,60.9,82.4,60.1,81.4L60.1,81.4z M66,80.3c-0.3,0.8-0.5,1.5-0.7,2.3c0.1,1.2,0.1,2.3,0,3.5
			c0.7,0.7,1.8,0.9,2.7,0.4c0-0.4,0.3-0.6,0.5-0.9c0.1-0.2,0.2-0.3,0.2-0.5c1.4-1.2,1.1-3.1,0.4-4.6C68.2,79.6,66.9,79.6,66,80.3
			L66,80.3z M72.5,80.1c-0.9,1-1.1,2.4-1.1,3.7c0.3,1,1.5,0.9,2.3,0.7c0.4-0.5,1-0.7,1.4-1.1c0.4-0.7,0.6-1.4,0.9-2.1
			c0-0.4-0.1-0.7-0.4-0.9C74.7,80.2,73.7,79.3,72.5,80.1L72.5,80.1z"/>
		<path class="st4" d="M136.7,14.7c0.8,0.1,1.7-0.2,2.3,0.4c0.2-0.3,0.6-0.1,0.9-0.2c1,0.4,1.9,0.3,2.8,0.9c0.3-0.1,0.5-0.5,0.9-0.4
			c0.8,0.5,1.5,1,2.3,1.4c1.8,0.2,2.7,2,4.1,3c0,0.1,0,0.2,0,0.4c0.1,0.3,0.3,0.5,0.5,0.7c0.4,0.2,0.9,0.4,1.1,0.9
			c1.1-0.1,2.1,0.7,2.5,1.6c0.7,0.2,1.3,0.6,1.9,1.1c0.1,0.8,0.4,1.5,0,2.3c0,0.3,0,0.5,0.2,0.7c0.1,0.8-0.1,1.7-0.2,2.5
			c-0.9,0.4-1.7,0.9-2.7,0.7c-0.4-0.1-0.5-0.5-0.9-0.5c-0.8-0.2-1.5-0.2-2.3-0.2c-0.4-0.3-0.8-0.7-1.2-1.1c-0.3-0.2-0.6-0.2-0.9-0.2
			c-1.4-1.3-3.6-2.1-5.3-1.1c-0.7,0.5-0.9,1.2-1.2,1.9c-0.1,0.1-0.2,0.1-0.4,0.2c0.1,0.7-0.2,1.4-0.5,1.9c-0.4,3-0.4,7,2.8,8.3
			c2.4,0,4.7,0.7,7.1,0.5c1.4,1.1,3,1,4.6,1.2c0.7,0.6,1.5,0.9,2.1,1.6c0.4-0.1,0.6,0.3,0.9,0.4c0.4,0.7,0.5,1.6,0.9,2.3
			c2,0.8,2,3.3,1.9,5.1c-0.6,0.7-1.3,1.5-2.1,1.9c-0.1,0.2-0.2,0.4-0.5,0.5c-0.1,0.8-1,1.1-1.6,1.6c-0.2,0-0.5,0-0.7,0
			c-0.6,0.2-1.2,0.5-1.8,0.9c-1.5,0-2.9,0-4.4,0c-0.8-0.3-1.5-0.8-2.3-1.2c-0.3-0.8-1.2-0.8-1.8-1.2c-1.4,0.6-3.1,1.6-3.2,3.2
			c-0.6,0.7-0.7,1.7-1.2,2.5c0,0.2,0,0.4,0,0.5c-0.7,1-0.1,2.2-0.2,3.4c0.4,0.5,0.5,1.4,1.2,1.6c0.5,0,1.1-0.1,1.6,0.4
			c0.1,0.6,0.5,1.1,0.7,1.6c0.6,0.3,1.4,0.1,1.9,0.5c0.4-0.5,0.8,0.1,1.2,0c0.6,0.9,1.5,1.2,2.5,1.6c0.5,0.8,0.6,1.7,1.6,1.9
			c1.2-0.4,2.5-0.5,3.7,0c0.9-0.5,1.9-0.8,2.8-1.2c0.4,0.3,0.9,0.1,1.4,0.2c1.3-0.4,2.8-1,4.1-0.4c0.2,0,0.4,0,0.5,0
			c0.6,0.1,0.5,0.8,1.1,0.9c-0.1,1.2,0,2.5,0.9,3.5c0.2,1.3,0,2.6-0.4,3.9c0.1,0.1,0.1,0.2,0.2,0.4c-0.2,0.4-0.6,0.8-0.9,1.2
			c-0.7,2.1-1.6,4.1-3,5.8c-0.4,0-0.6,0.3-0.9,0.5c-0.2,0-0.5,0-0.7,0c-1.1,0.4-2.1,1.1-3.4,0.9c-0.1-0.2-0.3-0.3-0.5-0.4
			c-0.8,0.1-1.2-0.6-1.9-0.7c-0.4-0.7-0.6-1.5-1.2-1.9c-0.5-0.9-0.3-2.3-1.4-2.7c-1.9,0-3.8,1-5.1,2.3c-0.2,0.1-0.5,0.2-0.7,0.4
			c-1.1,1.4-2.7,2.3-3.5,3.9c-0.4,0.4-0.7,0.7-1.1,1.1c-0.2,0.3-0.2,0.7-0.5,0.9c-0.4,1-0.9,1.9-1.1,3c-0.1,0.1-0.2,0.1-0.4,0.2
			c0.2,1-0.3,1.9,0,2.8c-0.5,0.6-0.1,1.4-0.2,2.1c-0.1,0.1-0.1,0.2-0.2,0.4c0.3,0.4,0.1,0.9,0.2,1.4c-0.2,0.2-0.3,0.3,0,0.7
			c0.1,0.3-0.2,0.6-0.2,0.9c0.2,0.2,0.3,0.3,0,0.7c0.1,0.1,0.1,0.1,0.2,0.2c-0.2,0.6-0.3,1.1-0.2,1.8c-0.1,0.1-0.1,0.2-0.2,0.4
			c0.5,0.6-0.1,1.3,0,1.9c0.2,0.2,0.2,0.5,0.2,0.7c-0.2,0.2-0.2,0.5-0.2,0.7c0.3,1.3,0.2,2.6,0.2,3.9c0.3,0.7,0.2,1.5,0.4,2.3
			c-0.1,0.2-0.2,0.3-0.2,0.5c0.4,1.1,0.1,2.2,0.2,3.4c0.2,0.2,0.1,0.6,0.4,0.9c0.2,2.8,1.3,5.6,3.4,7.6c1.1,1.1,2.6,1.6,4.1,1.9
			c2,0.1,4-0.4,6,0.2c0.4,0.1,0.7-0.3,1.1-0.2c0.8,0.7,1.8,0.8,2.8,0.7c0.2,0.2,0.4,0.5,0.7,0.5c0.1,0,0.2,0,0.4,0
			c0.6,0.6,1.5,0.8,2.3,1.2c0.9,0.4,1.1,1.4,0.4,2.1c-1.2,0-2.3-0.2-3.4-0.7c-0.1,0.1-0.1,0.1-0.2,0.2c-0.7-0.4-1.5-0.2-2.1-0.5
			c-0.6,0.5-1.3-0.1-1.9,0c-0.2,0.2-0.3,0.3-0.7,0c-0.1,0.1-0.1,0.1-0.2,0.2c-0.3,0-0.6-0.3-0.9-0.2c-1.1,0.6-2.5,0-3.7,0.2
			c-0.1,0.1-0.2,0.1-0.4,0.2c-0.9-0.2-2,0-2.8,0.5c-0.4,0.8-1.1,1.7-0.5,2.7c0.2,0.1,0.5,0.2,0.7,0.4c1.2-0.1,2.4,0.2,3.5-0.2
			c0.7-0.1,1.4,0,2.1,0.2c1,0.7,2.4,0.9,2.8,2.1c0.1,0.7-0.2,1.2-0.7,1.6c-0.6,0.4-1.3,0.1-1.8-0.2c-1.8-0.2-3.6,0.7-5.3,0
			c-2.4,0.9-4.9-0.6-7.1-1.4c-1.1,0.2-0.9,1.4-0.9,2.3c0.2,0.4,0.5,0.6,0.4,1.1c0.2,0.6,0.5,1.1,0.9,1.6c0,0.5-0.6,0.5-0.9,0.7
			c0,0.2-0.1,0.3-0.2,0.4c-0.4,0-0.8,0-1.2,0c-0.7-0.3-1.1-1-1.8-1.4c0.1-0.1,0.1-0.2,0.2-0.4c-0.7-0.9-1.2-1.9-1.6-3
			c-0.4,0.1-0.2-0.5-0.5-0.5c-0.5-0.3-1.1-0.1-1.6-0.2c-0.4,0.1-0.5,0.5-0.9,0.5c-1-0.1-1.8,0.7-2.8,0.7c-0.4,0.2-0.9,0.3-1.2,0.5
			c-0.4,0-0.7,0.1-1.1-0.2c-0.6,0.4-1.2,0.1-1.8,0.2c-0.7-0.2-1.2-0.8-1.1-1.6c1.2-1.5,3-2.4,4.6-3.4c1,0.2,1.3-0.9,1.8-1.6
			c-0.1-0.5-0.7-0.6-1.1-0.9c-1,0.3-1.8-0.5-2.8-0.2c-0.4-0.2-0.9-0.3-1.2-0.5c-0.1,0.1-0.1,0.1-0.2,0.2c-0.3-0.3-0.8,0-1.1-0.4
			c-0.8,0.3-1.6-0.1-2.5-0.2c-0.2,0.2-0.3,0.3-0.7,0c-0.4,0.3-1,0.2-1.2,0.7c-1.2-0.4-2.6-0.5-3.7,0.2c-0.2-0.2-0.3-0.3-0.7,0
			c-0.9,0-1.5-0.5-2.1-1.1c0-0.1,0-0.2,0-0.4c0.4-0.3,1-0.3,1.4-0.5c0.1-0.2,0.2-0.5,0.4-0.7c0.5-0.2,0.9-0.5,1.2-0.9
			c0.5-0.2,1.1-0.3,1.6-0.7c2.3-0.1,4.6-0.6,6.9,0c0.3-0.3,0.7-0.2,1.1-0.2c1.2,0.5,2.5-0.1,3.7-0.2c0.4-0.1,0.6-0.5,0.9-0.7
			c0.1,0,0.2,0,0.4,0c1.6-0.9,2.5-2.8,2.1-4.6c0.8-0.9,0.6-2.1,0.5-3.2c0.3-1.3,0.3-2.6,0.5-3.9c-0.1-0.2-0.2-0.3-0.2-0.5
			c0.1-0.1,0.1-0.2,0.2-0.4c-0.5-1.2-0.1-2.6,0.4-3.7c-0.3-0.1-0.1-0.5-0.4-0.7c0.3-2.7,0.5-5.4,0.7-8.1c-0.2-0.3-0.2-0.6-0.2-0.9
			c0.3-0.3,0.2-0.7,0.2-1.1c-0.3-0.4-0.1-0.8-0.2-1.2c0.4-1.9,0-3.9,0.2-5.8c-0.1-0.7-0.7-1.4-0.7-2.1c-1.1-1.9-2.9-3.3-4.6-4.6
			c-2.1-0.9-4.3-1.6-6.4-2.5c-1.4-0.3-1.9,1.1-2.3,2.1c-0.2,0.2-0.4,0.4-0.5,0.5c-1,0-1.7,0.7-2.3,1.4c-0.3,0.7-0.6,1.5-1.4,1.8
			c-1.7,0.3-3-0.8-3.9-2.1c-0.4-0.2-0.8-0.4-1.2-0.4c-0.4-0.3-0.8-0.5-1.1-0.9c-0.1-0.7-0.8-0.9-1.1-1.4c0.1-0.5-0.1-1-0.4-1.4
			c0-1.6,0.1-3.2-0.2-4.8c0.6-1.5,0-3.2,0.2-4.8c0.2-0.2,0.5-0.4,0.5-0.7c-0.1-0.7,0.4-1.5,1.1-1.8c0.5,0.1,1-0.1,1.4-0.4
			c0.6,0.3,1.4,0,1.9,0.5c0.9,0,1.5-0.6,2.1-1.1c0-0.4,0.3-0.8,0.7-0.9c0.7-0.1,1.4,0.3,2.1,0.2c0.8-0.3,1.4-0.9,2.1-1.4
			c0.6,0.1,1.1-0.1,1.6-0.4c0.4-0.4,0.7-0.7,1.1-1.1c1.3-0.4,2.4-1.4,3.7-1.8c0.4,0.3,0.9,0.1,1.4,0.2c0.9-0.3,1.4-1.1,2.1-1.6
			c1.4,0.3,3,0.2,4.1-0.9c1.8-3.4-0.7-7.2-4.1-8.3c-0.5-0.1-1,0.1-1.4,0.4c-0.3,0.6-1,1-0.5,1.8c-0.2,0.4-0.3,0.8-0.7,1.1
			c-1.3,0.1-1.8,1.4-2.8,1.9c-0.4,0-0.7,0-1.1,0c-0.9-1.5-2.7-0.6-4.1-0.7c-1.5-0.6-2.3-2.3-2.7-3.9c0.1-0.1,0.1-0.2,0.2-0.4
			c-0.4-0.9-0.9-1.7-1.4-2.5c-0.7-1.9-0.5-4-0.7-6c0.1-0.2,0.2-0.3,0.2-0.5c0.8-0.3,2,0,2.3-1.1c-0.2-1.2,0.8-2,1.4-2.8
			c1-0.3,2-0.1,3-0.4c0.9-0.5,1.8-1.1,2.7-1.8c0.9-0.1,2.1-0.5,2.7,0.5c0.7,0.3,1.7-0.1,2.3-0.7c0.6,0.1,1.2-0.2,1.8,0.2
			c0.4,0.1,0.7-0.2,1.1-0.4c1.7,0.3,3.3-0.5,3.9-2.1c0.2-0.7,0-1.4,0.4-2.1c0.1-1-0.5-1.9-0.4-2.8c-0.5-0.7-0.8-1.8-1.8-1.9
			c-0.1-0.1-0.1-0.2-0.2-0.4c-0.5,0.1-1-0.2-1.4-0.4c-0.6-0.1-1.2,0.3-1.6,0.9c-0.3,0-0.6,0-0.9,0c-1,0.6-2.2,1-3.4,0.9
			c-0.4,0.2-0.7,0.4-1.1,0.7c-0.3,0-0.6,0-0.9,0c-0.9-0.8-2.1-0.9-3.2-0.4c-0.5-0.3-0.6-0.9-0.5-1.4c-0.5-0.8-1.2-1.4-1.9-1.9
			c-0.9-1.5,0.4-2.6,1.8-3c0.2-0.4,0.4-0.8,0.4-1.2c0.6-0.7,1.2-2,2.5-1.4c0.4-0.1,0.4-0.5,0.7-0.7c1-0.6,2.2-0.9,3.2-1.4
			c0.7-1,2-1.3,3-1.9c0.4-0.3,0.4-0.9,0.7-1.2c0.9-0.6,1.8-1,2.8-1.4c0.9,0.7,1.7-0.2,2.3-0.9C136.1,14.7,136.4,14.7,136.7,14.7
			L136.7,14.7z M134.6,80.8c-0.7-1.2-2-2.5-3.5-2.5c-0.9,0.6-1,1.8-1.6,2.7c0,1.7,1.6,2.5,2.8,3.4c0.1,0,0.2,0,0.4,0
			c0.2,0.8,1.1,0.4,1.6,0.2C134.4,83.3,135.3,82,134.6,80.8L134.6,80.8z M142.9,78c-0.8-0.6-1.7-0.6-2.5,0c0,0.6-0.3,1-0.5,1.4
			c0,1.4-0.5,3.9,1.6,4.1c0.8-0.4,1.6-0.7,2.3-1.2c0-0.6,0.5-0.9,0.7-1.4C144.7,79.6,143.8,78.7,142.9,78L142.9,78z"/>
	</g>
</g>
</svg>
