<?xml version="1.0" encoding="utf-8"?>
<!-- Generator: Adobe Illustrator 24.0.1, SVG Export Plug-In . SVG Version: 6.00 Build 0)  -->
<svg version="1.1" id="Lager_1" xmlns="http://www.w3.org/2000/svg" xmlns:xlink="http://www.w3.org/1999/xlink" x="0px" y="0px"
	 viewBox="0 0 322.8 321.9" style="enable-background:new 0 0 322.8 321.9;" xml:space="preserve">
<style type="text/css">
	.st0{fill:#FFFFFF;}
	.st1{fill:#BE9E55;}
	.st2{fill:#002F60;}
	.st3{fill:#EC732B;}
</style>
<g>
	<path class="st0" d="M322.8,161c0,88.9-72.3,161-161.4,161C72.3,321.9,0,249.9,0,161C0,72.1,72.3,0,161.4,0
		C250.6,0,322.8,72.1,322.8,161"/>
	<path class="st1" d="M320.5,160.9c0,87.3-71.1,158.2-158.8,158.2C73.9,319,2.8,248.2,2.8,160.9C2.8,73.5,73.9,2.7,161.6,2.7
		C249.4,2.7,320.5,73.5,320.5,160.9"/>
	<path class="st2" d="M313.8,160.9c0,83.6-68.2,151.3-152.3,151.3c-84.1,0-152.3-67.7-152.3-151.3C9.3,77.3,77.4,9.6,161.5,9.6
		C245.6,9.6,313.8,77.3,313.8,160.9"/>
	<path class="st1" d="M161.5,315C76,315,6.4,245.9,6.4,160.9C6.4,75.9,76,6.8,161.5,6.8c85.5,0,155.1,69.1,155.1,154.1
		C316.7,245.9,247.1,315,161.5,315z M161.5,12.4C79.1,12.4,12.1,79,12.1,160.9c0,81.9,67,148.5,149.5,148.5
		c82.4,0,149.5-66.6,149.5-148.5C311,79,244,12.4,161.5,12.4z"/>
	<path class="st0" d="M161.5,11.1c-82.7,0-149.8,67.1-149.8,149.8c0,82.7,67.1,149.8,149.8,149.8c82.7,0,149.8-67.1,149.8-149.8
		C311.3,78.2,244.2,11.1,161.5,11.1 M161.5,14c81,0,147,65.9,147,147c0,81-65.9,147-147,147c-81,0-147-65.9-147-147
		C14.5,79.9,80.4,14,161.5,14"/>
	<path class="st0" d="M162.1,87.5h-0.6l-0.1,0l-0.2,0h-0.5c-5.1,0-31.4,0.7-63.9,13.8c-2.2,7.8-8.4,32.5-5.4,60.6
		c2.1,19.6,8.1,37,17.9,51.8c11.9,17.9,29.4,32,52.2,42.1c22.9-10.1,40.4-24.3,52.3-42.3c9.8-14.8,15.8-32.3,17.8-52
		c2.9-28.1-3.2-52.5-5.4-60.2C193.5,88.2,167.2,87.5,162.1,87.5"/>
	<path class="st3" d="M224,103.3c-32.3-12.8-58.9-13.2-61.9-13.2c-0.1,0-0.3,0-0.3,0l0,0h-0.5c0,0-30,0.3-62.3,13.2
		c-2.4,8.7-7.8,32.1-5,58.6c4.5,42.4,27.2,73.1,67.5,91.2c40.5-18.2,63.1-49,67.5-91.8C231.7,135,226.4,111.9,224,103.3z"/>
	<path class="st1" d="M162.1,81.6h-0.7h-0.7c-4.8,0-33.8,0.6-68.8,15.4c0,0-41.2,118.3,69.5,165.5h0.1
		C271.4,215.8,231,96.9,231,96.9C195.9,82.2,166.9,81.6,162.1,81.6 M162.1,87.5c5.1,0,31.4,0.7,64,13.9c2.2,7.7,8.3,32.2,5.4,60.2
		c-2,19.7-8,37.2-17.8,52c-11.9,18-29.4,32.2-52.3,42.3c-22.8-10.1-40.3-24.2-52.2-42.1C99.5,199,93.5,181.6,91.4,162
		c-3-28.1,3.2-52.9,5.4-60.6c32.6-13.2,58.9-13.8,63.9-13.8h0.5l0.2,0l0.1,0H162.1"/>
	<path class="st0" d="M125.1,125.7c1.3,0,2.2,0.3,2.6,0.8c0.3,0.4,0.5,0.8,0.4,1.3c-0.1,1.4,0.7,2.9,0.8,3l0.1,0.2
		c0.2,0.4,0.4,0.8,1.8,1.7c0.4,0.3,0.9,0.6,1.4,1c1.4,1,3.1,2.2,4.2,2.8l4-2.3c0-0.1,0-0.3,0-0.5c0-0.3,0.1-0.5,0.2-0.6
		c-2.6-4.3-8.7-13.3-15.7-13.5l-0.6,6c0.2,0,0.4,0.1,0.5,0.1L125.1,125.7z M119.5,143.2l0.3-2.9c-1.4-0.1-2.7-0.3-3.5-1.2
		c0,0-1.9-1.4-0.4-4.6c0.1-0.2,0.4-0.7-0.3-1.6c-0.1-0.1-1-1.6,1-3.3c0,0,0.9-0.9,0.3-1.6c-0.1-0.2-0.4-0.7-0.3-1.3
		c0.1-0.3,0.3-0.6,0.8-0.9c0.7-0.4,1.7-0.8,2.9-0.8c0.3,0,0.5,0,0.8,0.1l0.5-5.6c-0.3,0-0.6-0.1-1-0.1c-6.6,0-13.5,7-16.5,10.4
		c0.1,0.2,0.2,0.3,0.2,0.5c0.1,0.4,0,0.7-0.1,0.9L119.5,143.2z M122.5,143.5l3.4-1.7c-0.5-0.5-1.1-0.9-1.6-1.2
		c-0.3-0.2-0.9-0.2-1.4-0.2L122.5,143.5z M121.5,154.2c0.9,0.3,1.7,0.8,2.7,1.6c0.2,0.2,0.5,0.4,0.7,0.6c1.2,1.1,2.6,2.4,4.4,2.4
		c0.2,0,0.4,0,0.6,0c2.1-0.3,7.2-3.2,9.7-4.7c-0.7-0.9-2.4-2.8-6-4.9c-4.7-2.9-5.4-4.1-5.8-4.9l-0.1-0.1l-5.6,3L121.5,154.2z
		 M181.4,223.5c-0.2,0-0.5-0.1-0.6-0.4c-0.1-0.3-2.7-5.7-0.5-9.1c-0.7-0.1-1.6-0.2-2.6-0.2c-2.1,0-3.9,0.5-5.3,1.4
		c-0.1,0.1-0.2,0.1-0.4,0.1c-0.1,0-0.2,0-0.3-0.1c-0.2-0.1-0.3-0.4-0.3-0.6c0-0.1,1.4-7.1,7.7-7.9c0.1,0,0.4-0.1,0.4-0.2
		c0.1-0.5-1-2-2.1-3c-0.2-0.2-0.3-0.4-0.2-0.7c0.1-0.2,0.3-0.4,0.6-0.4c0.2,0,0.4,0,0.6,0c5.2,0,8.5,3.2,8.6,3.4
		c0,0,0.1,0.1,0.1,0.1c0.3,0.3,1.1,0.8,2,0.8c1.1,0,1.7-0.9,1.8-2.8c0,0,0.1-3.8-7.8-5.8c-0.4-0.1-0.7-0.1-1.1-0.1
		c-2.8,0-4.8,2.7-4.8,2.7c-0.1,0.2-0.3,0.3-0.5,0.3c-0.1,0-0.2,0-0.3-0.1c-3.4-2.3-0.6-8.6-0.2-9.4c0.3-1.6-0.4-2.1-1.7-3
		c-1-0.6-2.2-1.4-3.2-2.8c-2.1,0.2-6.7,0.8-8.1,1.8c-0.8,0.5-1.3,1.7-1.4,2.8c0,1.1,0.4,2,1.1,2.6c0.1,0.1,5.4,3,3.9,7
		c-0.1,0.2-0.2,0.3-0.4,0.4c-0.1,0-0.1,0-0.2,0c-0.2,0-0.3-0.1-0.4-0.2c0,0-1.2-1-2.6-1c-0.4,0-0.8,0.1-1.1,0.2
		c0.3,2.3,1,11.7-8.2,13.7c-1.5,0.3-5.7,1.1-7.1,1.9c-0.1,0-2.3,1.1-2.9,3.3c-0.3,1.1-1.5,3.3-4.1,3.3c-1.3,0-2.7-0.5-4.2-1.6
		c-0.1,0-3.5-2.5-8.5-3.2c-1.1-0.2-2-0.3-2.9-0.3c-1.4,0-2.6,0.2-4.1,0.5c-0.7,0.1-1.5,0.3-2.4,0.4c0,0-0.1,0-0.1,0
		c-0.2,0-0.3-0.1-0.4-0.2c-0.1-0.1-0.2-0.3-0.2-0.5c0-0.2,0.7-5.3,5.7-7.8c-1.2-1.6-4.7-5.6-8.8-5.7c-0.3,0-0.5-0.2-0.6-0.4
		c-0.1-0.2,0-0.5,0.1-0.7c0.1-0.1,3.5-3.6,8.6-3.6c1.2,0,2.5,0.2,3.7,0.6c0.2-0.5,0.3-1.3,0.1-2c-0.2-0.6-0.8-1.1-1.6-1.4
		c-0.2-0.1-0.4-0.3-0.4-0.6c0-0.3,0.1-0.5,0.3-0.6c0.1,0,1.6-0.8,3.4-0.8c1.9,0,4.4,0.8,5.8,4.3l1-1.7c0.1-0.2,0.3-0.3,0.6-0.3
		c0,0,0,0,0,0c0.1,0,0.9,0.1,1.6,0.9c0.8,1,1,2.8,0.6,5.1c-0.1,0.7-0.1,2.7,0.7,3.6c0.2,0.2,0.5,0.4,0.8,0.4c0.7,0,2.1-0.5,4.5-2.7
		l2.2-2.4c-0.7-0.5-2-1.6-3.8-3.3c-2.6-2.5-2.9-4-3.2-5.2l0-0.1c-0.6-0.3-2.8-1.3-5.3-1.3c-0.8,0-1.5,0.1-2.2,0.3
		c-0.1,0-0.1,0-0.2,0c-0.2,0-0.3-0.1-0.4-0.2c-0.2-0.1-0.2-0.4-0.2-0.6c0.1-0.3,1.4-7.2,12.2-8.5c1.2-1.2,8.7-7.7,30-7.7l0.7,0
		c0.1-0.4,0.3-1.3-0.1-2.1c-0.5-1-1.7-1.8-3.7-2.3c-2.9-0.7-4.9-1-6.4-1.2c-1.8-0.3-3-0.5-4.5-1.1c-1.1-0.5-2.7-1.4-4.2-2.2
		c-1.9-1.1-4-2.3-4.9-2.4l-0.2,0c-0.5-0.1-1-0.2-1.4-0.2c-0.8,0-1.8,0.2-3.6,1.8c-0.8,0.7-1.3,1.3-1.7,1.8c-0.2,0.2-0.4,0.5-0.6,0.6
		c-1.2,2.7-3.3,6-6.2,6.6c0,0-0.1,0-0.1,0c-0.2,0-0.4-0.1-0.5-0.3c-0.1-0.2-0.2-0.5,0-0.7c0.1-0.1,1.2-1.9,0.4-4.3
		c-2.4,0.1-4.5,0.2-6,0.3l-0.8,0c-0.1,0-4.1,0.2-8.4,1.1l-0.9,8.9c0,0.3-0.3,0.6-0.6,0.6c0,0-1.4-0.1-1.4-0.1
		c-0.2,0-0.3-0.1-0.4-0.2c-0.1-0.1-0.2-0.3-0.1-0.5l0.7-8.5c-2-0.3-3.2-1.6-3.3-3.7c0-0.2,0.4-2.2-0.8-3.8c-1.3-1.9-0.3-3.4,0.4-4.4
		c0.2-0.2,0.3-0.4,0.4-0.7c0.8-1.5,2.5-4.1,4.6-4.1c0,0,0,0,0.1,0l0.6-6.7l-17-13.8c0,0,0,0,0,0c0,0-0.1,0-0.1,0c0,0-0.4,0-0.5,0
		c0,0-0.1,0-0.1,0c-1.4-0.1-2.4-1.5-2.2-2.9c0.1-1.4,1.2-2.5,2.5-2.5c0,0,0.1,0,0.1,0c6.7-11.5,16.7-13.9,20.4-14.4l0-0.3
		c-0.5-0.1-1-0.4-1.3-0.8c-0.7-1-0.4-2.4-0.4-2.6c0.8-3.2,3.8-5.9,3.9-6c0.1,0,0.2-0.1,0.3-0.1c0.1,0,0.2,0,0.3,0.1
		c0.1,0,0.1,0.1,0.2,0.2c0.6,0.8,2.4,3.6,2.6,6.4c0,0.2,0,1.6-0.8,2.5c-0.4,0.4-0.9,0.6-1.4,0.6c0,0-0.1,0-0.1,0l0,0.2
		c3.6,1.1,13.1,5.2,17.7,18.1c1.4,0.2,2.3,1.4,2.2,2.9c-0.1,1.4-1.2,2.5-2.5,2.5c-0.1,0-0.4,0-0.4,0c-0.2,0-0.5,0-0.8-0.2l-2.7,1.6
		c0.5,0.3,0.9,0.4,1.3,0.6c0.3,0.1,0.5,0.1,0.7,0.1c0.3,0,0.6-0.1,1.2-0.5c0.3-0.1,0.6-0.3,1-0.5c0.6-0.3,1.1-0.4,1.7-0.4
		c1,0,2.1,0.4,3.2,0.9c0.3,0.1,0.7,0.3,1.1,0.4l0.5,0.2c1.1,0.4,1.8,0.7,2.4,0.7c0.5,0,1.1-0.2,1.8-0.6c0.8-0.5,0.9-0.8,1-1.1
		c0-0.1,0-0.1,0.1-0.2c0.3-0.7-1.2-2.3-2.5-3.1c-0.1-0.1-0.2-0.3-0.3-0.4c0-0.2,0-0.4,0.2-0.5c0.7-0.8,1.6-1.2,2.9-1.2
		c2.3,0,4.9,1.4,5,1.5c0.4,0.3,0.8,0.4,1.3,0.4c1.4,0,2.9-1.3,3.3-3.2c-0.6,0.1-1.4,0.1-2.4,0.1c-3.1,0-5.2-0.7-6.3-2.1
		c-0.8-1-1-2.4-0.6-4.1c0.1-0.2,0.3-0.4,0.5-0.5c2.8-0.4,5.9-1.1,7.4-1.7c-0.9-0.2-2.2-0.3-3.8-0.3c-1.9,0-3.8,0.2-5.8,0.6
		c-1.4,0.3-2.7,0.5-3.8,0.5c-3.3,0-4.8-1.4-5.4-2.5c-0.3-0.4-0.6-1.8-0.1-2.8c0.3-0.5,0.9-1.1,2.1-1.2c0,0,0,0,0,0
		c0.2,0,0.3,0.1,0.5,0.2c0.1,0.1,0.2,0.3,0.2,0.5l-0.1,0.5c0,0.1-0.2,0.9,0.3,1.5c0.5,0.6,1.5,0.9,2.9,0.9c1,0,2.2-0.2,3.7-0.5
		c3.1-0.7,5.7-1,7.8-1c0.8,0,1.5,0.1,2,0.1c-0.7-0.8-2.1-1.6-5.1-1.6c-1.2,0-2.6,0.1-4.1,0.4c0,0-0.1,0-0.1,0
		c-0.3,0-0.5-0.2-0.6-0.5c-0.1-0.2-1.5-5.2-1-10.1c0.1-0.7,0.6-1.9,1.9-1.9c0.4,0,0.7,0.1,1.1,0.3c0,0,2.3,0.9,4.4,0.9
		c1.2,0,2.2-0.3,2.7-0.9c0,0,0.8-1,2.9-1c1.3,0,2.8,0.4,4.6,1.1c0.6,0.3,1,0.4,1.2,0.4c0.2,0,0.4-0.2,1-1c0.1-0.2,0.3-0.4,0.4-0.6
		c0.8-1.2,1.7-2.5,3-2.5c0.5,0,0.9,0.2,1.4,0.5c1.5,1,2,2,2.3,3c0.6-0.3,1.6-0.7,3-0.7c2,0,4.3,0.7,6.8,2.1c0.1,0,0.2,0.1,0.2,0.2
		c0.2,0.2,3.8,5.6-4.3,14c1.2,1.5,4.4,6.3,1.5,10.8c-0.1,0.2-0.3,0.3-0.5,0.3c-0.1,0-0.1,0-0.2,0c0,0-1.9-0.6-2.9-0.6
		c-0.1,0-0.1,0-0.2,0c0.1,0.1,0.2,0.3,0.4,0.6c0.2,0.2,4,4.3,2.1,9c0,0.1-1,2.6-3.7,3.5c-1.2,0.4-3.3,1.4-4,3.5
		c-0.8,2.2,0,5.2,2.4,8.8c0.1,0.2,8.5,13.7,17.9,13.7c0,0,0.3,0,0.5,0c0.2,0,3.6,0,4.5-1.9c0.7-1.4-0.3-3.7-2.7-6.7c0,0-0.1,0-0.1,0
		c-0.9,0-3.1-0.2-4.5-1.9c-1.6-1.9-1.4-4.1-0.5-5.5c-0.1-0.1-0.2-0.3-0.3-0.5c-6.7-10.2-7.3-18.8-1.8-25.4c0.1-0.1,3.3-4.2,7-4.2
		c2.7,0,4.9,2,6.5,5.9c0,0.1,3,7.1,14.3,10.3c0.2,0.1,0.4,0.3,0.4,0.5c0,0.2,0,0.5-0.2,0.6c-0.1,0.1-3.5,2.7-9,2.7
		c-5.4,0-10.9-2.4-16.2-7.3c-0.4,0.2-1.1,0.6-1.5,1.3c-0.5,0.8-0.5,2,0,3.3c1.4,4.3,3.3,8.6,4.3,10.2c0.5-0.2,1.4-0.5,2.6-0.5
		c1.4,0,3,0.4,4.6,1.2c3,1.5,6.1,2.3,8.7,2.3c1.7,0,3.1-0.4,4-1c0.1-0.1,0.2-0.1,0.4-0.1c0.1,0,0.3,0,0.4,0.1
		c0.2,0.2,0.3,0.4,0.2,0.7c0,0.1-2.1,6.6-11.4,6.6c-1,0-2-0.1-3.1-0.2c0.9,1.2,2.2,2.9,3.2,4.8c0,0.1,1.3,2.5,0.5,5.1
		c-0.5,1.7-1.8,3.1-3.7,4.1c-0.1,0-2.8,1.7-8.4,1.7c-1.5,0-3.1-0.1-4.8-0.4c-0.1,2.1-0.1,6,1.1,7.5c0,0,1.7,2.4,3.5,2.4
		c1.6,0,2.8-2.1,3.4-3.8c0.1-0.2,0.3-0.4,0.6-0.4c0,0,0,0,0,0c0.1,0,1.7,0.1,3,1.7c1.5,1.9,1.8,5.1,0.9,9.4c0,0.1-0.6,1.7,1.6,4.2
		c0.1,0.1,1.5,2-0.1,5c0,0-1.1,2.4,0,3.4c0.2,0.2,0.3,0.4,0.2,0.7c-0.1,0.2-0.3,0.4-0.5,0.4c0,0-1.1,0.2-1.9,2.2
		c0,0-0.7,3.4-3.2,3.4c-0.5,0-1-0.1-1.5-0.4c-0.2,0.5-0.4,1.3-0.6,2.5c0,0-0.6,3.8-5.7,3.8c-0.2,0-0.3,0-0.5,0
		c-0.2,0-0.4-0.1-0.5-0.3c-0.1-0.2-0.1-0.4,0-0.6c0,0,0.6-1.2,0.2-2.1c-0.1-0.4-0.4-0.7-0.9-0.9c0,0-0.4-0.2-1.1-0.2
		c-0.5,0-1,0.1-1.5,0.4c-1.7,0.8-4,3.8-5.5,5.8c-1.1,1.5-1.5,2-1.9,2.1C181.6,223.5,181.5,223.5,181.4,223.5"/>
	<path class="st1" d="M122.7,147.4l4.7-2.5c0.6,0.9,1.7,2.2,5.8,4.7c2.8,1.7,4.5,3.3,5.3,4.3c-2.9,1.8-7.1,4.1-8.8,4.3
		c-0.2,0-0.3,0-0.5,0c-1.6,0-2.9-1.2-4-2.2c-0.2-0.2-0.5-0.4-0.7-0.6c-0.9-0.7-1.7-1.2-2.5-1.5L122.7,147.4z M123.3,142.3l0.1-1.4
		c0.2,0,0.4,0.1,0.6,0.1c0.2,0.1,0.5,0.3,0.8,0.5L123.3,142.3z M119,142l-2.2-1.7c0.7,0.4,1.5,0.5,2.3,0.6L119,142z M140.5,138.1
		l1.3-0.8c0.2,0.1,0.5,0.1,0.7,0.1l0.2,0c0,0,0.1,0,0.1,0c-0.3,0.1-0.5,0.3-0.8,0.4c-0.5,0.3-0.7,0.4-0.9,0.4c-0.1,0-0.3,0-0.5-0.1
		C140.6,138.1,140.5,138.1,140.5,138.1 M125,125.1l0.5-4.8c6.2,0.7,11.8,8.7,14.4,12.8c-0.1,0.2-0.1,0.3-0.1,0.5c0,0.1,0,0.2,0,0.2
		l-3.3,1.9c-1-0.6-2.5-1.7-3.8-2.6c-0.5-0.4-1-0.7-1.4-1c-1.2-0.9-1.4-1.2-1.6-1.5c0-0.1-0.1-0.2-0.1-0.2c-0.3-0.5-0.8-1.7-0.7-2.6
		c0.1-0.7-0.1-1.3-0.6-1.8C127.5,125.4,126.5,125.1,125,125.1L125,125.1z M104.9,129.8c3.1-3.4,9.6-9.9,15.8-9.9c0.1,0,0.2,0,0.3,0
		l-0.4,4.4c-0.1,0-0.1,0-0.2,0c-1.3,0-2.5,0.5-3.2,0.9c-0.7,0.4-1,0.9-1.1,1.3c-0.2,0.9,0.2,1.6,0.3,1.8c0,0,0.1,0.1,0.1,0.1
		c0.2,0.2-0.3,0.8-0.3,0.8c-1.9,1.6-1.6,3.3-1.1,4.1c0,0,0.1,0.1,0.1,0.1c0.3,0.4,0.3,0.6,0.3,0.8c-0.1,0.1,0,0.1-0.1,0.2
		c-1.3,2.7-0.3,4.4,0.3,5.1l-10.6-8.4c0-0.2,0-0.5,0-0.8C105,130,105,129.9,104.9,129.8 M176.5,102.1L176.5,102.1
		c-1.7,0-2.7,1.5-3.5,2.8c-0.1,0.2-0.3,0.4-0.4,0.6c-0.3,0.4-0.5,0.6-0.6,0.7c-0.2-0.1-0.5-0.2-0.8-0.3l-0.1,0
		c-1.8-0.8-3.4-1.2-4.8-1.2c-2.1,0-3.1,0.9-3.4,1.2c-0.5,0.4-1.2,0.7-2.3,0.7c-2,0-4.1-0.9-4.2-0.9c-0.5-0.2-0.9-0.3-1.4-0.3
		c-1.5,0-2.4,1.3-2.5,2.4c-0.5,5,0.9,10.1,1,10.3c0.2,0.5,0.7,0.9,1.2,0.9c0.1,0,0.2,0,0.2,0c1.5-0.3,2.8-0.4,4-0.4
		c0.9,0,1.6,0.1,2.2,0.2c-2,0.1-4.3,0.4-7,1c-1.4,0.3-2.6,0.5-3.5,0.5c-1.2,0-2.1-0.2-2.4-0.7c-0.3-0.4-0.2-0.9-0.2-0.9
		c0,0,0-0.1,0-0.1l0.1-0.5c0.1-0.4-0.1-0.8-0.3-1.1c-0.2-0.3-0.6-0.4-0.9-0.4c0,0-0.1,0-0.1,0c-1.7,0.1-2.4,1-2.7,1.5
		c-0.7,1.3-0.2,2.9,0.1,3.4c0.7,1.3,2.3,2.8,5.9,2.8c1.2,0,2.5-0.2,3.9-0.5c1.9-0.4,3.8-0.6,5.6-0.6c0.1,0,0.2,0,0.4,0
		c-1.3,0.3-2.8,0.6-4.1,0.8c-0.5,0.1-0.9,0.5-1,0.9c-0.5,1.9-0.2,3.4,0.7,4.6c1.2,1.6,3.5,2.4,6.8,2.4c0.5,0,1.1,0,1.5-0.1
		c-0.5,1.2-1.5,1.9-2.4,1.9c-0.3,0-0.6-0.1-0.9-0.3c-0.1-0.1-2.8-1.6-5.3-1.6c-1.4,0-2.6,0.5-3.4,1.4c-0.2,0.3-0.3,0.6-0.3,1
		c0,0.4,0.2,0.7,0.5,0.9c1.1,0.8,2.2,1.9,2.2,2.4c0,0.1-0.1,0.1-0.1,0.2c-0.1,0.1-0.1,0.3-0.7,0.7c-0.7,0.5-1.2,0.5-1.4,0.5
		c-0.6,0-1.2-0.3-2.2-0.6l-0.4-0.2c-0.4-0.1-0.7-0.3-1.1-0.4c-1.2-0.5-2.3-0.9-3.5-0.9c-0.1,0-0.2,0-0.3,0c0.7-0.6,1.3-1.4,1.3-2.5
		c0.2-1.7-0.8-3.2-2.3-3.5c-4.2-11.4-12.2-15.9-16.5-17.6c0.1-0.1,0.2-0.2,0.3-0.3c1-1,1-2.6,1-2.9c-0.2-3-2.1-5.9-2.7-6.7l0,0
		c-0.1-0.1-0.2-0.3-0.4-0.4c-0.2-0.1-0.4-0.2-0.7-0.2c-0.2,0-0.4,0-0.5,0.1c-0.3,0.2-3.4,3-4.3,6.4c-0.1,0.3-0.4,2,0.5,3.2
		c0.1,0.1,0.2,0.2,0.3,0.3c-4.5,0.9-13.2,3.9-19.3,14.2c-1.5,0.1-2.7,1.4-2.9,3.1c-0.2,1.8,1.1,3.4,2.8,3.6c0.1,0,0.2,0,0.2,0
		c0.1,0,0.2,0,0.3,0c0,0,0.1,0,0.1,0l16.6,13.4l-0.5,5.8c-2,0.3-3.7,2.5-4.7,4.3c-0.1,0.2-0.2,0.4-0.4,0.6c-0.7,1-2,2.8-0.4,5.1
		c1,1.4,0.7,3.2,0.7,3.2c0,0.1,0,0.2,0,0.3c0,2.2,1.2,3.6,3.2,4.2l-0.7,7.9c0,0.3,0.1,0.7,0.3,0.9c0.2,0.3,0.5,0.4,0.9,0.5l1.4,0.1
		c0,0,0.1,0,0.1,0c0.6,0,1.2-0.5,1.3-1.1l0.8-8.4c4-0.9,7.8-1,7.8-1l0.8,0c1.4-0.1,3.3-0.2,5.5-0.3c0.4,1.8-0.5,3.3-0.5,3.3
		c-0.3,0.4-0.3,1,0,1.4c0.2,0.3,0.6,0.5,1,0.5c0.1,0,0.2,0,0.2,0c3.1-0.6,5.3-4,6.6-6.8c0.2-0.2,0.3-0.4,0.5-0.6
		c0.4-0.5,0.9-1.1,1.7-1.7c1.7-1.5,2.5-1.7,3.2-1.7c0.4,0,0.8,0.1,1.3,0.1l0.2,0c0.8,0.1,2.9,1.3,4.7,2.3c1.5,0.9,3.1,1.8,4.3,2.2
		c1.5,0.6,2.8,0.8,4.6,1.1c1.6,0.2,3.5,0.5,6.4,1.2c1.7,0.4,2.9,1.1,3.3,1.9c0.2,0.4,0.2,0.8,0.1,1.2h-0.2
		c-20.6,0-28.6,6.2-30.3,7.8c-11.1,1.3-12.5,8.6-12.5,9c-0.1,0.4,0.1,0.9,0.4,1.2c0.2,0.2,0.5,0.3,0.8,0.3c0.1,0,0.2,0,0.3,0
		c0.6-0.2,1.3-0.3,2.1-0.3c2,0,3.9,0.7,4.7,1.1c0.3,1.2,0.7,2.9,3.3,5.4c1.4,1.4,2.6,2.3,3.3,2.9l-1.7,1.9c-2.5,2.3-3.6,2.5-4,2.5
		c-0.2,0-0.3-0.1-0.4-0.1c-0.5-0.5-0.6-2.1-0.5-3.1c0.4-2.5,0.2-4.4-0.7-5.6c-0.8-1-1.9-1.1-2.1-1.1c0,0,0,0-0.1,0
		c-0.5,0-0.9,0.2-1.1,0.6l-0.4,0.6c-1.7-3.1-4.3-3.6-5.9-3.6c-2,0-3.6,0.8-3.7,0.9c-0.4,0.2-0.7,0.7-0.7,1.2c0,0.5,0.3,0.9,0.8,1.1
		c0.7,0.3,1.1,0.6,1.3,1.1c0.1,0.3,0.1,0.7,0.1,1c-1.1-0.3-2.1-0.4-3.2-0.4c-5.3,0-8.9,3.6-9,3.8c-0.3,0.4-0.5,0.9-0.3,1.4
		c0.2,0.5,0.6,0.8,1.1,0.8c3.4,0.1,6.4,3.2,7.8,4.9c-4.7,2.8-5.4,7.7-5.4,7.9c0,0.4,0.1,0.8,0.4,1.1c0.2,0.2,0.6,0.4,0.9,0.4
		c0.1,0,0.1,0,0.2,0c0.9-0.1,1.7-0.3,2.4-0.4c1.5-0.3,2.6-0.5,4-0.5c0.9,0,1.8,0.1,2.8,0.2c4.8,0.8,8.2,3.1,8.2,3.1
		c1.7,1.1,3.2,1.7,4.6,1.7c2.9,0,4.3-2.5,4.7-3.8c0.5-1.9,2.5-2.8,2.5-2.8c0,0,0.1,0,0.1-0.1c1.1-0.7,4.8-1.5,6.8-1.8
		c8.1-1.8,9.3-9.3,8.8-13.9c0.1,0,0.3,0,0.4,0c1.2,0,2.2,0.9,2.2,0.9c0.2,0.2,0.5,0.3,0.8,0.3c0.1,0,0.2,0,0.3,0
		c0.4-0.1,0.7-0.4,0.9-0.8c1.6-4.3-3.4-7.3-4.2-7.8c-0.7-0.6-0.8-1.5-0.8-2c0-1,0.5-1.9,1.1-2.3c1.2-0.8,4.9-1.4,7.5-1.6
		c1,1.3,2.2,2.1,3.1,2.7c1.4,0.9,1.7,1.1,1.5,2.2c-0.6,1.3-3.4,7.6,0.4,10.1c0.2,0.1,0.5,0.2,0.7,0.2c0.4,0,0.8-0.2,1-0.5
		c0,0,1.8-2.4,4.3-2.4c0.3,0,0.6,0,0.9,0.1c7.3,1.8,7.3,5.1,7.3,5.1c-0.1,1.4-0.5,2.2-1.2,2.2c-0.6,0-1.4-0.4-1.5-0.6
		c0-0.1-0.1-0.1-0.2-0.2c-0.5-0.5-3.9-3.5-9-3.5c-0.2,0-0.4,0-0.7,0c-0.5,0-1,0.4-1.1,0.9c-0.2,0.5,0,1,0.4,1.4
		c0.8,0.7,1.6,1.6,1.8,2.1c-6.6,1.1-8,8.1-8,8.4c-0.1,0.5,0.1,1,0.6,1.3c0.2,0.1,0.4,0.2,0.7,0.2c0.3,0,0.5-0.1,0.7-0.2
		c1.3-0.9,2.9-1.3,4.9-1.3c0.6,0,1.2,0,1.7,0.1c-1.5,3.7,0.8,8.7,0.9,8.9c0.2,0.5,0.7,0.7,1.1,0.7c0.2,0,0.3,0,0.5-0.1
		c0.5-0.2,0.9-0.7,2.1-2.3c1.4-1.8,3.6-4.8,5.2-5.6c0.4-0.2,0.8-0.3,1.2-0.3c0.5,0,0.7,0.1,0.7,0.1c0.4,0.2,0.5,0.4,0.6,0.6
		c0.2,0.6-0.1,1.4-0.2,1.6c-0.2,0.4-0.2,0.8,0,1.2c0.2,0.4,0.6,0.6,1,0.6c0.2,0,0.4,0,0.5,0c4.5,0,6.1-2.8,6.3-4.3
		c0.1-0.8,0.3-1.4,0.4-1.8c0.4,0.1,0.8,0.2,1.1,0.2c2.4,0,3.5-2.4,3.8-3.9c0.5-1.4,1.2-1.7,1.3-1.7c0.5,0,0.9-0.3,1.1-0.8
		c0.2-0.5,0-1.1-0.5-1.4c-0.5-0.5-0.1-1.9,0.2-2.6c1.4-2.6,0.7-4.8,0-5.6c0,0,0-0.1-0.1-0.1c-1.9-2.2-1.5-3.5-1.5-3.5
		c0-0.1,0-0.1,0.1-0.2c0.9-4.5,0.6-7.9-1-10c-1.4-1.8-3.2-1.9-3.4-2c0,0,0,0-0.1,0c-0.5,0-1,0.3-1.2,0.8c-0.5,1.3-1.5,3.4-2.8,3.4
		c-1.2,0-2.6-1.5-3-2.1c-0.9-1.2-1.1-4.2-1-6.5c1.4,0.2,2.8,0.3,4.2,0.3c5.5,0,8.3-1.6,8.8-1.8c2.1-1.1,3.4-2.6,4-4.4
		c0.9-2.9-0.5-5.5-0.6-5.6c-0.7-1.3-1.5-2.6-2.3-3.7c0.6,0,1.1,0.1,1.7,0.1c9.1,0,11.6-6,11.9-7c0.1-0.2,0.1-0.3,0.1-0.5
		c0-0.7-0.6-1.3-1.3-1.3h0c-0.3,0-0.6,0.1-0.8,0.3c-0.7,0.5-2,0.9-3.6,0.9c-2.5,0-5.5-0.8-8.4-2.3c-1.7-0.9-3.3-1.3-4.9-1.3
		c-1,0-1.8,0.2-2.4,0.4c-0.9-1.6-2.5-5.3-3.9-9.6c-0.4-1.2-0.4-2.1,0-2.8c0.2-0.4,0.5-0.7,0.8-0.8c5.4,4.7,10.9,7.1,16.3,7.1
		c5.7,0,9.2-2.7,9.4-2.8c0.4-0.3,0.6-0.8,0.5-1.2c-0.1-0.5-0.4-0.8-0.9-1c-11-3.1-13.8-9.9-13.9-9.9c-1.8-4.2-4.2-6.3-7.1-6.3
		c-4.1,0-7.4,4.3-7.6,4.5c-5.7,6.8-5.1,15.6,1.8,26.1c0,0,0.1,0.1,0.1,0.1c-0.9,1.6-0.9,3.8,0.8,5.8c1.5,1.8,3.7,2.1,4.8,2.2
		c2.1,2.6,3,4.6,2.5,5.8c-0.6,1.2-3,1.5-3.8,1.5c0,0-0.1,0-0.1,0c-0.2,0-0.3,0-0.5,0c-9.1,0-17.3-13.3-17.3-13.4
		c-2.3-3.4-3.1-6.3-2.4-8.3c0.7-1.9,2.5-2.8,3.6-3.1c3-1,4.1-3.8,4.1-3.9c1.6-3.9-0.5-7.5-1.7-8.9c0.6,0.1,1.2,0.3,1.5,0.4
		c0.1,0,0.3,0.1,0.4,0.1c0.4,0,0.8-0.2,1.1-0.6c2.9-4.4,0.2-9.1-1.2-11.1c8-8.6,4.2-14.2,4-14.4c-0.1-0.2-0.3-0.3-0.4-0.4
		c-2.7-1.4-5.1-2.2-7.1-2.2c-1.1,0-1.9,0.2-2.6,0.4c-0.3-0.9-1-1.8-2.3-2.7C177.7,102.3,177.1,102.1,176.5,102.1 M219.5,155.3
		L219.5,155.3 M129.3,159.4c0.2,0,0.4,0,0.6,0c2.9-0.4,10.5-5.2,10.5-5.2s-1.5-2.5-6.5-5.7c-5-3.1-5.3-4.1-5.8-5
		c0,0-0.2-0.3-0.4-0.3c0,0-0.1,0-0.1,0l-6.1,3.3l-0.7,8.1c1.1,0.4,2,0.8,3,1.6C125.2,157.4,126.8,159.4,129.3,159.4 M121.8,144.5
		l5.2-2.7c-0.6-0.7-1.5-1.5-2.4-1.9c-0.5-0.3-1.3-0.3-2.3-0.3L121.8,144.5z M124.8,126.4c0.1,0,0.2,0,0.2,0c0.8,0,2.6,0.1,2.4,1.4
		c-0.1,1.5,0.6,2.9,0.9,3.4c0.3,0.5,0.4,0.9,2.1,2.1c1.7,1.2,4.6,3.3,5.9,4l4.7-2.7c-0.2-0.4-0.2-0.3-0.2-0.8c0-0.3,0.3-0.4,0.4-0.6
		c-2.8-4.7-9.2-14.2-16.8-14.2c-0.1,0-0.2,0-0.3,0l-0.7,7.2C124.1,126.3,124.5,126.4,124.8,126.4 M120,144.4l0.5-4.8
		c-1.5,0-2.9-0.1-3.8-1c0,0-1.6-1.2-0.3-3.9c0,0,0.7-0.9-0.4-2.3c0,0-0.7-1.1,0.9-2.5c0,0,1.4-1.3,0.4-2.5c0,0-0.5-0.8,0.3-1.2
		c0.6-0.3,1.6-0.7,2.6-0.7c0.3,0,0.5,0,0.8,0.1c0.2,0,0.4,0.1,0.5,0.1l0.6-7c-0.6-0.1-1.1-0.1-1.7-0.1c-6.8,0-14,7.1-17.3,10.9
		c0.1,0.3,0.3,0.4,0.3,0.7c0.1,0.5-0.1,0.7-0.3,1L120,144.4z M176.5,103.3c0.3,0,0.6,0.1,1,0.4c1.8,1.2,2,2.4,2.2,3.6
		c0,0,1-1.2,3.4-1.1c1.6,0,3.7,0.5,6.5,2c0,0,3.7,5.2-4.7,13.6c0,0,5,5.6,1.8,10.5c0,0-1.9-0.6-3.1-0.6c-0.9,0-1.4,0.4-0.2,1.6
		c0,0,3.8,4,2,8.3c0,0-0.9,2.3-3.3,3.1c-2.2,0.7-8.2,3.7-1.9,13.3c0,0,8.5,14,18.4,14c0.2,0,0.3,0,0.5,0h0c0.5,0,10.1-0.1,1.9-9.8
		c0,0-0.1,0-0.4,0c-0.8,0-2.8-0.2-4-1.7c-1.5-1.8-1.2-3.8-0.2-5c0.3-0.3-11.7-14.4-2.3-25.5c0,0,3.1-4,6.6-4c2,0,4.2,1.3,6,5.5
		c0,0,3,7.3,14.7,10.7c0,0-3.3,2.5-8.6,2.5c-4.2,0-9.8-1.6-16.1-7.4c0,0-3.8,1-2.2,5.5c1.5,4.6,3.6,9.6,4.7,10.8c0,0,1-0.7,2.8-0.7
		c1.1,0,2.6,0.3,4.3,1.2c3.4,1.7,6.5,2.4,9,2.4c1.9,0,3.4-0.4,4.3-1.1c0,0-1.9,6.2-10.7,6.2c-1.4,0-2.9-0.2-4.7-0.5
		c0,0,2.6,2.9,4.2,6c0,0,2.9,5.3-2.9,8.3c0,0-2.6,1.6-8.1,1.6c-1.5,0-3.3-0.1-5.3-0.5c0,0-0.6,6.4,1.1,8.6c0,0,1.8,2.6,4,2.6
		c1.3,0,2.8-1,4-4.2c0,0,5.4,0.2,3.3,10.4c0,0-0.8,1.9,1.8,4.8c0,0,1.2,1.6-0.2,4.3c0,0-1.4,2.9,0.1,4.2c0,0-1.5,0.1-2.4,2.7
		c0,0-0.6,3-2.6,3c-0.5,0-1.1-0.2-1.8-0.6c0,0-0.6,0.8-1,3.3c0,0-0.5,3.2-5,3.2c-0.2,0-0.3,0-0.5,0c0,0,1.4-2.8-0.9-3.9
		c0,0-0.5-0.3-1.3-0.3c-0.5,0-1.1,0.1-1.8,0.4c-2.8,1.4-6.6,7.6-7.3,7.8c0,0-3-6.3,0-9.3c0,0-1.7-0.5-3.8-0.5
		c-1.8,0-3.9,0.3-5.6,1.5c0,0,1.2-6.6,7.2-7.4c2.8-0.6-1.4-4.3-1.4-4.3c0.2,0,0.4,0,0.6,0c5,0,8.2,3.2,8.2,3.2c0,0,0.1,0.1,0.1,0.1
		c0.4,0.4,1.4,1,2.4,1c1.1,0,2.3-0.8,2.4-3.4c0,0,0.3-4.3-8.3-6.4c-0.4-0.1-0.8-0.1-1.2-0.1c-3.2,0-5.3,3-5.3,3
		c-3.2-2.1,0.1-8.7,0.1-8.7c0.8-3.6-2.8-3-5.2-6.7c0,0-6.8,0.6-8.8,1.9c-1.9,1.2-2.4,4.9-0.3,6.5c0,0,5,2.7,3.7,6.3
		c0,0-1.3-1.2-3-1.2c-0.6,0-1.2,0.1-1.8,0.5c0,0,2.2,11.3-7.6,13.4c0,0-5.5,1-7.3,2c0,0-2.6,1.1-3.2,3.7c0,0-0.7,2.8-3.5,2.8
		c-1,0-2.3-0.4-3.9-1.5c0,0-3.5-2.5-8.8-3.3c-1.2-0.2-2.2-0.3-3-0.3c-2.2,0-3.9,0.5-6.7,0.9c0,0,0.6-5.3,6.1-7.6
		c0,0-4.3-6.4-9.7-6.6c0,0,3.3-3.4,8.1-3.4c1.2,0,2.6,0.2,4,0.8c0,0,1.8-3.5-1.7-4.8c0,0,1.4-0.7,3.1-0.7c2,0,4.5,1,5.7,5.2l1.7-2.9
		c0,0,2.5,0.1,1.6,5.3c0,0-0.5,4.7,2.2,4.7c1.1,0,2.6-0.8,4.9-2.9l2.7-3c0,0-1.6-1.1-4.3-3.6c-2.7-2.6-2.8-4.1-3.1-5.2
		c0-0.2-2.7-1.6-5.8-1.6c-0.8,0-1.6,0.1-2.4,0.3c0,0,1.2-6.9,11.8-8c0,0,6.8-7.7,29.7-7.7c0.4,0,0.7,0,1.1,0c0,0,2.2-4.1-4-5.6
		c-6.2-1.5-8.2-1.2-10.8-2.3c-2.6-1.1-7.5-4.4-9.2-4.6c-0.6-0.1-1.1-0.2-1.7-0.2c-1.1,0-2.2,0.4-4,2c-1.2,1.1-1.8,1.9-2.4,2.5
		c-0.7,1.5-2.7,5.7-5.7,6.3c0,0,1.5-2.4,0.4-5.3c-3,0.1-5.6,0.2-7.3,0.3c0,0-4.4,0.2-8.9,1.3l-0.9,9.3l-1.4-0.1l0.8-9.1
		c-1.3-0.1-3.3-0.6-3.3-3.1c0,0,0.4-2.3-0.9-4.2c-1.3-1.9,0.3-3.2,0.9-4.4c0.6-1.1,2.2-3.7,4.1-3.7c0.2,0,0.4,0,0.5,0.1
		c0,0,0.1,0,0.1,0l0.7-7.7l-17.3-14c-0.2-0.1-0.4-0.1-0.5-0.1c-0.2,0-0.3,0-0.5,0c0,0-0.1,0-0.1,0c-1-0.1-1.7-1.1-1.6-2.2
		c0.1-1.1,0.9-1.9,1.9-1.9c0.1,0,0.1,0,0.2,0c0.1,0,0.2,0,0.3,0.1c6.9-12.1,17.4-14.2,20.6-14.6l0.1-1.4l-0.4-0.1
		c-1.9-0.2-1.3-2.6-1.3-2.6c0.8-3,3.6-5.5,3.6-5.5c0,0,2.3,3,2.5,6.1c0,0,0.1,2.4-1.6,2.4c-0.1,0-0.1,0-0.2,0l-0.5,0l-0.1,1.4
		c2.7,0.7,13.2,4.5,17.9,18.3c0.1,0,0.2,0,0.3,0c0,0,0.1,0,0.1,0c1,0.1,1.7,1.1,1.6,2.2c-0.1,1.1-0.9,1.9-1.9,1.9c0,0-0.1,0-0.1,0
		c-0.4,0-0.6,0-1-0.3l-4,2.3c0.9,0.5,1.6,1,2.4,1.2c0.3,0.1,0.6,0.2,0.9,0.2c0.7,0,1.1-0.4,2.4-1c0.5-0.3,1-0.4,1.5-0.4
		c1.2,0,2.4,0.6,4.1,1.3c1.3,0.5,2.2,0.9,3.1,0.9c0.6,0,1.3-0.2,2.1-0.7c1.2-0.7,1.2-1.2,1.3-1.5c0.7-1.5-2.7-3.9-2.7-3.9
		c0.6-0.7,1.5-1,2.4-1c2.2,0,4.7,1.4,4.7,1.4c0.5,0.3,1.1,0.5,1.6,0.5c2,0,3.9-2,4-4.6c0,0-1.4,0.2-3.1,0.2c-3.1,0-7.4-0.8-6.3-5.4
		c0,0,7.8-1.2,8.7-2.5l0-0.2c-0.5-0.2-2.3-0.7-5.2-0.7c-1.6,0-3.6,0.2-5.9,0.7c-1.4,0.3-2.6,0.4-3.7,0.4c-2.7,0-4.1-0.9-4.8-2.2
		c-0.3-0.5-0.9-2.9,1.5-3.1l-0.1,0.5c0,0-0.9,3.2,3.8,3.2c1,0,2.2-0.1,3.8-0.5c3.5-0.8,5.9-1,7.6-1c2,0,2.9,0.3,3.2,0.5
		c-0.1-0.6-1-3.2-6.4-3.2c-1.2,0-2.6,0.1-4.2,0.4c0,0-1.5-5-1-9.8c0,0,0.2-1.3,1.3-1.3c0.2,0,0.5,0.1,0.9,0.2c0,0,2.4,1,4.6,1
		c1.2,0,2.4-0.3,3.2-1.1c0,0,0.6-0.8,2.4-0.8c1,0,2.4,0.3,4.3,1.1c0.7,0.3,1.1,0.5,1.5,0.5c0.5,0,0.9-0.3,1.5-1.3
		C174.5,105,175.3,103.3,176.5,103.3"/>
	<polygon class="st1" points="26,150.8 26.1,156.8 44,161 26.3,165.8 26.4,171.8 52.2,163.5 52.2,158.3 	"/>
	<path class="st1" d="M43.1,138.9l-0.7,4.5l-8.6-3.7L43.1,138.9z M27.4,142.5l24.5,11.4l1-5.8l-6-2.7l1.1-6.8l6.5-0.6l1-5.8
		l-26.9,3.1L27.4,142.5z"/>
	<rect x="22.1" y="133" transform="matrix(0.1607 -0.987 0.987 0.1607 -113.095 137.4455)" class="st1" width="4.4" height="4.4"/>
	
		<rect x="21.1" y="138.9" transform="matrix(0.1607 -0.987 0.987 0.1607 -119.7044 141.4493)" class="st1" width="4.4" height="4.4"/>
	<polygon class="st1" points="39,102.1 36.8,108.2 42.6,114.8 34,115.7 31.7,122.1 46.2,119.6 55.9,131.6 58.1,125.6 52.3,118.5 
		61.2,117.1 63.5,110.7 48.4,113.7 	"/>
	<g>
		<path class="st1" d="M64.3,94.9L48.8,86l-2.9,5l16.3,9.3c0.9,0.5,1.4,1,1.7,1.5c0.2,0.5,0.2,1-0.1,1.6c-0.4,0.7-1,1-1.9,1
			c-0.4,0-0.9-0.1-1.4-0.2l-0.3-0.1l-1.9,5.5l0.3,0.1c0.9,0.3,1.9,0.5,2.7,0.5c2.6,0,4.8-1.5,6.5-4.3
			C69.5,102.9,70.9,98.6,64.3,94.9"/>
		<path class="st1" d="M74.5,87.6c-0.8,0.9-1.7,1.4-2.9,1.4h0c-2.8,0-6-2.5-6.8-3.2c-0.8-0.6-2.6-2.3-3.7-4.3c-1-2-1-3.6,0.2-5
			C62,75.5,63,75,64.2,75c2.8,0,6,2.5,6.8,3.2c0.8,0.6,2.6,2.3,3.7,4.3C75.7,84.5,75.7,86.2,74.5,87.6 M74.9,73.7
			c-3-2.5-6.5-3.9-9.7-3.9c-3,0-5.6,1.2-7.5,3.6c-2.2,2.6-2.9,5.8-2,9c0.8,2.8,2.6,5.6,5.3,7.8c3,2.5,6.5,3.9,9.7,3.9
			c3,0,5.6-1.2,7.5-3.6c2.2-2.6,2.9-5.8,2-9C79.4,78.7,77.5,75.9,74.9,73.7"/>
	</g>
	
		<rect x="50.4" y="70.9" transform="matrix(0.6437 -0.7652 0.7652 0.6437 -37.2112 66.3491)" class="st1" width="4.4" height="4.4"/>
	<rect x="54.3" y="66.4" transform="matrix(0.6441 -0.765 0.765 0.6441 -32.354 67.6244)" class="st1" width="4.4" height="4.4"/>
	<polygon class="st1" points="95.8,66.8 84.8,48.9 79.8,52 93.5,74.1 107.4,65.5 104.8,61.3 	"/>
	<path class="st1" d="M115.6,49.4l-4.2,1.8l-1.5-9.2L115.6,49.4z M104.1,38.1l3.7,26.7l5.4-2.4l-1-6.5l6.4-2.8l4.1,5.2L128,56
		l-17.2-20.9L104.1,38.1z"/>
	<polygon class="st1" points="142.3,26.3 135.7,27.8 130.7,39 128.6,29.4 123,30.6 128.6,56 134.2,54.7 132.5,47.1 134.1,43.8 
		142.2,53 148.7,51.5 136.8,38.1 	"/>
	<polygon class="st1" points="155.3,46.5 155.1,40.8 164,40.6 163.8,35.6 155,35.8 154.8,30.5 165.5,30.2 165.3,25.2 148.9,25.7 
		149.7,51.7 166.8,51.1 166.6,46.2 	"/>
	<g>
		<path class="st1" d="M178,31.3l2.1,0.3c1.6,0.2,3.4,0.5,4.2,1.5c0.4,0.5,0.5,1.2,0.4,2c-0.2,1.5-1.1,2.1-2.9,2.1
			c-0.8,0-1.7-0.1-2.4-0.2l-2.1-0.3L178,31.3z M183.3,27.1l-10.2-1.6l-4,25.7l5.7,0.9l1.6-10.4l3.2,0.5l2.9,11.1l6,0.9l-3.3-12.4
			c2.7-0.8,4.7-3.1,5.1-5.8c0.3-1.9-0.1-3.8-1.2-5.4C188.5,29.3,186.7,27.6,183.3,27.1"/>
		<path class="st1" d="M207.3,32.9c-1-0.4-2-0.5-3.1-0.5c-3.6,0-6.6,2.1-7.8,5.3c-1.7,4.8,1.7,7.4,4.5,9.5c2.4,1.8,3.8,2.9,3.2,4.7
			c-0.6,1.5-1.7,1.9-2.6,1.9c-0.5,0-1-0.1-1.5-0.3c-1.8-0.7-2.6-2.1-2.3-4.5l0-0.3l-5.7-1.1l-0.1,0.4c-0.9,4.9,1.3,8.5,6.3,10.3
			c1.2,0.4,2.4,0.6,3.5,0.6c4,0,6.7-2.6,7.6-5.2c1.9-5.4-1.6-8-4.5-10.1c-2.2-1.7-3.6-2.7-3-4.4c0.4-1,1.3-1.7,2.4-1.7
			c0.3,0,0.7,0.1,1,0.2c1.4,0.5,2,1.9,1.9,4.2l0,0.3l5.2,0.9l0.1-0.3C213.7,38.3,211.6,34.4,207.3,32.9"/>
	</g>
	<polygon class="st1" points="244.4,53.5 238.6,61.5 232.4,57 238.2,49 233.5,45.6 218.2,66.6 222.9,70 229.4,61.1 235.6,65.6 
		229.1,74.5 233.7,78 249,56.9 	"/>
	<g>
		<path class="st1" d="M258.4,76.9c-1,2.1-2.7,3.8-3.5,4.5c-0.9,0.8-4,3.5-6.9,3.5c-1.1,0-2-0.4-2.8-1.2c-1.2-1.3-1.3-3-0.4-5
			c0.9-2.1,2.7-3.8,3.5-4.5c0.9-0.8,4-3.5,6.9-3.5c1.1,0,2,0.4,2.8,1.2C259.1,73.2,259.3,74.8,258.4,76.9 M263.8,77.6
			c0.7-3.3-0.1-6.4-2.4-8.9c-2-2.2-4.4-3.2-7.2-3.2c-3.3,0-6.9,1.6-10,4.4c-2.6,2.4-4.3,5.2-4.9,8.1c-0.7,3.3,0.1,6.4,2.4,8.9
			c2,2.2,4.4,3.2,7.2,3.2c3.3,0,6.9-1.6,10-4.4C261.5,83.3,263.2,80.5,263.8,77.6"/>
		<path class="st1" d="M267.5,108.4l0.3-0.1l-2.3-5.1l-0.3,0.1c-3,1.1-5,0.7-6.3-1.3c-2.4-4,3.6-7.9,4.9-8.7
			c1.1-0.7,3.9-2.2,6.4-2.2c1.6,0,2.8,0.6,3.5,1.8c1.2,2,0.7,4-1.8,6.2l-0.3,0.2l3.5,4.3l0.3-0.2c4.2-3.6,5.1-8.3,2.2-12.9
			c-1.9-3.1-4.9-4.8-8.6-4.8c-2.7,0-5.7,0.9-8.4,2.6c-5.7,3.5-9.7,9.8-5.8,16.2c1.9,3.2,4.8,4.9,8.1,4.9
			C264.5,109.4,266,109.1,267.5,108.4"/>
	</g>
	<polygon class="st1" points="268.1,133.1 279.8,119.5 292.1,123.3 289.8,117 278.1,113.6 287.3,110.2 285.3,104.8 260.9,113.8 
		262.9,119.3 270.3,116.5 273.7,117.6 265.8,126.9 	"/>
	<polygon class="st1" points="273.7,138 279.3,137 280.9,145.7 285.8,144.9 284.2,136.2 289.5,135.2 291.4,145.7 296.3,144.9 
		293.4,128.7 267.8,133.2 270.8,150 275.7,149.1 	"/>
	<polygon class="st1" points="297,165.6 286.3,160.3 296.9,154.9 296.8,148.7 281.4,157.5 270.9,157.6 271,163.4 281.5,163.2 
		297.1,171.6 	"/>
	<g>
		<path class="st1" d="M65.5,236.9c-1-2.6-1.5-4.2-0.2-5.3c1.1-0.9,2.8-0.6,3.7,0.6c0.9,1.2,0.7,2.7-0.6,4.5l-0.2,0.3l3.9,3.5
			l0.2-0.2c3.2-3,3.5-7.5,0.7-11c-1.7-2.1-4.2-3.4-6.8-3.4c-1.8,0-3.5,0.6-4.9,1.7c-4,3.2-2.5,7.1-1.3,10.4c1,2.7,1.6,4.5,0.1,5.6
			c-1.4,1.1-3.1,0.7-4.3-0.8c-1.2-1.5-1-3.2,0.5-5l0.2-0.3l-4.2-4l-0.2,0.3c-3.4,3.6-3.4,7.9-0.2,12.1c2.4,3.1,5.1,3.7,6.9,3.7
			c1.8,0,3.6-0.6,4.9-1.6C68.4,244.3,66.8,240.2,65.5,236.9"/>
	</g>
	<polygon class="st1" points="89.1,253.3 92.5,249.6 78.6,236.9 75.2,240.6 80,245 65.9,260.5 70.1,264.4 84.3,248.9 	"/>
	<g>
		<path class="st1" d="M90.8,264c1.6-2.6,4.3-5.4,6.8-5.4c0.7,0,1.3,0.2,2,0.6c3.9,2.5,0.3,8.7-0.5,9.9c-0.8,1.3-3.6,5.4-6.8,5.4
			c-0.7,0-1.3-0.2-2-0.6C86.4,271.5,90,265.2,90.8,264 M102,255.2c-1.7-1-3.4-1.6-5.2-1.6c-4.1,0-8.2,2.7-11,7.2
			c-3.5,5.7-4.3,13.1,2,17.1c1.7,1,3.4,1.6,5.2,1.6c4.1,0,8.2-2.7,11-7.2C107.5,266.6,108.3,259.2,102,255.2"/>
		<path class="st1" d="M116.1,268.6l1.9,0.7c1.5,0.6,3.2,1.2,3.7,2.4c0.3,0.6,0.2,1.2-0.1,2.1c-0.4,1.1-1.1,1.6-2.2,1.6
			c-1.1,0-2.3-0.5-3.3-0.9l-2-0.7L116.1,268.6z M122.1,265.5l-9.6-3.7l-9.2,24.3l5.4,2l3.7-9.8l3.1,1.2l0.5,11.4l5.7,2.2l-0.6-12.8
			c2.8-0.2,5.2-2,6.2-4.6C128.5,272.3,127.5,267.6,122.1,265.5"/>
	</g>
	<polygon class="st1" points="129.7,273.6 136.1,274.8 132.2,295.4 137.9,296.5 141.8,275.9 148.2,277.1 149.2,272.2 130.6,268.7 	
		"/>
	<polygon class="st1" points="173.8,271.6 174.7,281.5 167.1,282.1 166.2,272.3 160.5,272.8 162.7,298.7 168.4,298.2 167.5,287.1 
		175.1,286.5 176,297.6 181.7,297.1 179.6,271.2 	"/>
	<g>
		<path class="st1" d="M195.3,267.1l-5.6,1.4l4.7,18.2c0.7,2.8-0.7,3.2-1.1,3.3c-0.2,0-0.3,0.1-0.5,0.1c-1.2,0-1.9-1.2-2.3-1.9
			l-0.2-0.3l-5.2,2.5l0.2,0.3c1.4,2.8,3.6,4.2,6.4,4.2c0.8,0,1.8-0.1,2.7-0.4c3.2-0.8,7.2-2.8,5.3-10.2L195.3,267.1z"/>
	</g>
	
		<rect x="199.1" y="257.9" transform="matrix(0.914 -0.4057 0.4057 0.914 -88.1916 104.0048)" class="st1" width="4.4" height="4.4"/>
	
		<rect x="204.5" y="255.4" transform="matrix(0.9141 -0.4055 0.4055 0.9141 -86.7232 105.9524)" class="st1" width="4.4" height="4.4"/>
	<path class="st1" d="M213.9,275.6l-4.2,1.8l-1.6-9.2L213.9,275.6z M202.3,264.4l3.9,26.7l5.4-2.4l-1.1-6.5l6.3-2.8l4.1,5.1l5.4-2.4
		L209,261.4L202.3,264.4z"/>
	<g>
		<path class="st1" d="M231.3,259.2c-0.2,1.3-1.8,2.4-3.1,3.2l-1.7,1.2l-3.1-4.5l1.7-1.2c1.2-0.8,2.5-1.7,3.7-1.7
			c0.8,0,1.4,0.4,2,1.3C231.3,258,231.4,258.6,231.3,259.2 M235.6,254c-1.1-1.6-3.3-3.3-6.2-3.3c-1.7,0-3.4,0.6-5.1,1.7l-8.5,5.8
			l14.7,21.4l4.8-3.3l-5.9-8.7l2.7-1.8l9.7,6.1l5-3.4l-10.8-6.8C237.3,259.4,237.2,256.3,235.6,254"/>
	</g>
	<polygon class="st1" points="248.8,237.5 245.3,233.9 231.8,247.1 235.3,250.7 240,246.1 254.7,261.1 258.8,257.1 244.1,242.1 	"/>
	<path class="st1" d="M260.6,238.2l-5.9-7.2l8.6,3.6L260.6,238.2z M252.2,224.6l-4.4,5.9l16.5,21.4l3.5-4.7l-4.1-5.1l4.1-5.5
		l6.1,2.5l3.5-4.7L252.2,224.6z"/>
	<polygon class="st1" points="276.9,193.9 280,182.4 283.2,193.8 295.1,193.2 285.2,199.8 289.5,210.9 280.1,203.5 270.9,211 
		275,199.9 265.1,193.4 	"/>
	<polygon class="st1" points="39.9,193.9 43,182.4 46.2,193.8 58.1,193.2 48.2,199.8 52.5,210.9 43.1,203.5 33.9,211 38,199.9 
		28.1,193.4 	"/>
</g>
</svg>
