<?xml version="1.0" encoding="utf-8"?>
<!-- Generator: Adobe Illustrator 24.0.1, SVG Export Plug-In . SVG Version: 6.00 Build 0)  -->
<svg version="1.1" id="DIF_primära_sköld" xmlns="http://www.w3.org/2000/svg" xmlns:xlink="http://www.w3.org/1999/xlink"
	 x="0px" y="0px" viewBox="0 0 311.7 379.4" style="enable-background:new 0 0 311.7 379.4;" xml:space="preserve">
<style type="text/css">
	.st0{fill:none;}
	.st1{fill:#CFB571;}
	.st2{fill:#FFEC0D;}
	.st3{fill:#0568AF;}
	.st4{fill:#E21F26;}
</style>
<rect x="-91.4" y="-90.9" class="st0" width="494.6" height="561.3"/>
<g>
	<g>
		<g>
			<path class="st1" d="M304.1,31.1l-1.4-6l-6,1.3C222.3,42.2,159.6,5,159,4.6l-3.3-2l-3.2,2C151.8,5,89.3,42.4,14.9,26.7l-6-1.3
				l-1.4,6c-0.3,1.2-6.5,28.8-5.1,74.5C6.8,249.3,99.1,342.4,153,374.8l3.2,2l3.2-2c53.8-32.6,145.8-126,149.9-269.3
				C310.7,59.8,304.3,32.2,304.1,31.1z"/>
		</g>
	</g>
	<g>
		<path class="st2" d="M213.8,38.1c-29.1-6.2-50.2-16.7-58.1-21c-13.9,7.7-69.6,34.9-137.2,23c-1.7,10.3-4.7,33.4-3.7,65.4
			c1.2,37.3,8.5,71,19.6,101L213.8,38.1z"/>
		<path class="st3" d="M156.2,362.1c51.3-32.6,134.7-119.7,140.4-252L90.8,303.3C113.3,330.2,137,350,156.2,362.1z"/>
		<path class="st4" d="M110.2,210.1c7.3,7.8,5.1,16.2-0.1,21l-0.9,0.8l-20.9-22.3l1-0.9C94.7,203.6,103.5,203,110.2,210.1z
			 M296.9,97.9L85.3,296.6c-17.9-22.6-34.7-49.8-47.4-81.3L224.4,40.1c20.2,3.3,43.6,4.2,68.6-0.3C294.6,49.3,297.2,69.7,296.9,97.9
			z M122.8,198.3c-11.8-12.5-30.4-13.5-42.8-1.8l-14.9,14l42,44.6l14.9-14C134.3,229.5,134.6,210.8,122.8,198.3z M159.1,195.6
			c-3.5-3.8-9.4-3.9-13.2-0.4c-3.8,3.5-3.9,9.4-0.4,13.2c3.5,3.8,9.4,3.9,13.2,0.4C162.4,205.3,162.6,199.4,159.1,195.6z
			 M190.8,176.3l-41.9-44.7l-12.9,12.1l41.9,44.7L190.8,176.3z M213,145.1c-3.5-3.8-9.4-3.9-13.2-0.4c-3.8,3.5-3.9,9.4-0.4,13.2
			c3.5,3.8,9.4,3.9,13.2,0.4C216.3,154.7,216.5,148.8,213,145.1z M231.1,111.2l13.6-12.8L234,87l-13.6,12.8l-6.9-7.3l13.9-13
			L216.6,68L190,93l42,44.6l12.8-12L231.1,111.2z M270.5,91.1c-3.5-3.8-9.4-3.9-13.2-0.4c-3.8,3.5-3.9,9.4-0.4,13.2
			c3.5,3.8,9.4,3.9,13.2,0.4C273.8,100.8,274,94.8,270.5,91.1z"/>
	</g>
</g>
</svg>
