<svg xmlns="http://www.w3.org/2000/svg" viewBox="0 0 200 200"><defs><style>.cls-1{fill:#041c2c;}.cls-2{fill:#00263e;}.cls-3{fill:#d8d8d8;}.cls-4{fill:#fff;}.cls-5{fill:none;}</style></defs><g id="Lager_2" data-name="Lager 2"><g id="Layer_1" data-name="Layer 1"><polygon class="cls-1" points="159.12 23.27 100 1.02 40.88 23.27 24.5 154.89 100 199.02 175.5 154.89 159.12 23.27"/><polyline class="cls-2" points="100 1.02 40.88 23.27 24.5 154.89 100 199.02"/><path class="cls-3" d="M153.84,27.42,100,7.16,46.16,27.42,30.67,151.84,100,192.37l69.33-40.53ZM36.84,148.8,51.43,31.58,100,13.3l48.57,18.28L163.16,148.8,100,185.72Z"/><path class="cls-3" d="M110.27,31H89.73L76.47,128.57,50.31,132.7a2.9,2.9,0,0,0-2.43,3.24l1,8.11a2.91,2.91,0,0,0,3.53,2.46l29.74-6.88A6.74,6.74,0,0,0,87.33,134l2.26-16.62,10.41-10,10.42,10L112.67,134a6.74,6.74,0,0,0,5.15,5.65l29.74,6.88a2.91,2.91,0,0,0,3.53-2.46l1-8.12a2.9,2.9,0,0,0-2.42-3.23l-26.17-4.13ZM100,91.38,92.08,99,100,40.68,107.92,99Z"/><polygon class="cls-3" points="122.68 93.43 131.11 93.43 135.26 126.49 147.07 128.36 136 40.1 123.85 35.55 129.67 81.94 121.11 81.94 122.68 93.43"/><polygon class="cls-3" points="68.89 93.43 77.32 93.43 78.89 81.94 70.33 81.94 76.17 35.55 64 40.1 52.93 128.36 64.74 126.49 68.89 93.43"/><path class="cls-3" d="M112.63,150.33c-2.59-1.79-7.28-3-12.63-3s-10,1.2-12.63,3a4.22,4.22,0,0,0-2.14,3.22v7.66c0,3.43,6.61,6.22,14.77,6.22s14.77-2.79,14.77-6.22v-7.66A4.18,4.18,0,0,0,112.63,150.33Z"/><polygon class="cls-4" points="100 13.3 100 7.16 46.16 27.42 30.67 151.84 100 192.37 100 185.72 36.84 148.79 51.43 31.58 100 13.3"/><path class="cls-4" d="M145.77,139h0l-27.32-5.38-2.59-19L100,99.35v8l10.42,10h0L112.67,134a6.74,6.74,0,0,0,5.15,5.64l29.74,6.88A2.9,2.9,0,0,0,150,146Z"/><polygon class="cls-4" points="92.08 99.01 84.16 114.61 84.16 114.61 100 99.36 100 91.38 92.08 99.01"/><path class="cls-4" d="M105.14,35.84h0L100,40.68h0L107.92,99h0l7.92,15.6-10.7-78.77h0L110.27,31H89.73L76.47,128.57,50.3,132.7a2.91,2.91,0,0,0-2.42,3.24l1,8.11A2.89,2.89,0,0,0,50.05,146l4.18-7h0l27.32-5.38h0l2.59-19h0l10.7-78.77Z"/><polygon class="cls-4" points="121.11 81.94 121.89 87.69 136.18 87.69 130.67 43.8 123.85 35.57 129.67 81.94 129.66 81.94 121.11 81.94"/><polygon class="cls-4" points="135.26 126.47 135.26 126.49 147.07 128.36 140.51 122.19 136.18 87.69 136.18 87.69 131.11 93.43 135.26 126.47"/><polygon class="cls-4" points="59.49 122.19 69.33 43.8 76.17 35.55 64 40.1 52.93 128.36 52.93 128.36 59.49 122.19"/><polygon class="cls-4" points="70.33 81.94 63.82 87.69 78.1 87.69 78.89 81.94 70.34 81.94 70.33 81.94"/><path class="cls-4" d="M112.63,150.33c-2.59-1.79-7.28-3-12.63-3s-10,1.2-12.63,3a4.22,4.22,0,0,0-2.14,3.22v7.66c0,3.43,6.61,6.22,14.77,6.22s14.77-2.79,14.77-6.22v-7.66A4.18,4.18,0,0,0,112.63,150.33ZM100,165.11c-8.09,0-12.46-2.77-12.46-3.9v-4.32c2.63,1.73,7.22,2.88,12.46,2.88s9.83-1.15,12.46-2.88v4.32C112.46,162.34,108.09,165.11,100,165.11Z"/><rect class="cls-5" width="200" height="200"/></g></g></svg>