<?xml version="1.0" encoding="utf-8"?>
<!-- Generator: Adobe Illustrator 24.0.1, SVG Export Plug-In . SVG Version: 6.00 Build 0)  -->
<svg version="1.1" id="Lager_1" xmlns="http://www.w3.org/2000/svg" xmlns:xlink="http://www.w3.org/1999/xlink" x="0px" y="0px"
	 viewBox="0 0 231.5 185.4" style="enable-background:new 0 0 231.5 185.4;" xml:space="preserve">
<style type="text/css">
	.st0{fill:#FFFFFF;}
	.st1{fill:#002D74;}
	.st2{fill:#C10230;}
</style>
<g>
	<g>
		<path class="st0" d="M41,73.1v30.7c0,7.7,8.1,14.8,22.8,19.8c13.8,4.8,32.2,7.4,51.6,7.4s37.7-2.6,51.6-7.4
			c14.7-5,22.8-12.1,22.8-19.8V73.1c0-7.7-8.1-14.8-22.8-19.8c-13.8-4.8-32.2-7.4-51.6-7.4c-19.4,0-37.7,2.6-51.6,7.4
			C49.1,58.3,41,65.4,41,73.1z"/>
		<path class="st0" d="M228.8,101.2c1.3-2.8,2.5-7.3,2.1-10.3l-0.4-3l-2,0.7c1.5-2.8,2-6.1,2.3-10.3c0.1-1.3,0.2-3.8,0.2-5.3
			l-0.1-3.9L229,70c2.3-5.4,1.1-13.1-0.2-16.1l-1-2.5l-1.9,1c0.5-3.6-0.4-8.8-2.4-13.3l-1.7-3.8l-1.1,1.4c-0.1-0.4-0.2-0.7-0.3-1.1
			c-1-2.9-5.7-9-6.7-10.1l-1.8-2.2l-1.6,1.7c-0.3-1.4-1-2.9-1.8-4c-1.2-1.7-2.7-3-4.2-4.4c-1.5-1.4-2.9-2.7-3.9-4.2l-2.8-4.3
			l-1.1,3.2c-1-1.9-2.3-3.3-3.5-4.4c-1.6-1.5-3-2.3-4.4-3.1c-0.8-0.5-1.7-0.9-2.6-1.6L183,0l-0.7,3.8c0,0.1-0.3,1.8-0.3,4.1
			c-3.2-3.3-8.4-3.7-10.5-3.7c-1.5,0-2.9,0.2-4.1,0.4l-2.6,0.6l0.8,2.5c0.3,0.9,0.4,1.6,0.6,2.3c0.4,2.1,0.8,4.2,4,6
			c0,0,0.1,0,0.1,0.1c-1.3,0.4-2.5,0.8-3.7,1.4l-2.1,1l0.9,2.2c1.9,4.4,5,6.8,9.5,7.3c-0.1,0.1-0.2,0.2-0.3,0.2l-1.6,1.3l0.9,1.8
			c0.7,1.3,1.4,2.1,2.1,2.7c2.3,2.1,4.8,3.2,7.2,3.8l-0.4,0.1l0.3,1.9c0.5,3.6,3.5,5.8,6.9,7.3l0.2,2.3c0.1,1.1,0.8,5.5,5.6,9.1
			l-1,0l0.5,3c0.6,3.8,2.3,7.8,4.6,10.7l-0.8,1.7c-1.3,2.8-0.6,7.4,1,11.1l-0.5-0.4l-1.3,2.6c-0.7,1.5-2.2,5.3-1.4,10.1l-0.4-0.4
			l-1.7,2.2c-2.2,2.8-3.2,6.6-2.8,11.4l-1.6,0.9c-2.6,1.4-5,6.1-6,9.7l0-0.1l-2.1,0.6c-1.7,0.5-2.9,2-3.8,3.1
			c-0.2,0.2-0.4,0.5-0.5,0.6c-2.2,2.4-3.4,5-4.3,7.4l-2.4,1.3c-0.5,0.3-1,0.6-1.6,0.8c-0.6,0.3-1.2,0.6-1.8,1
			c-0.5,0.3-1,0.5-1.5,0.8c-2.8,1.5-6,3.2-7.7,5.6c-0.1,0.1-0.1,0.2-0.2,0.3l-2,0.2c-4.1,0.3-9.6,2.9-12.8,5.2
			c-1.6,1.1-3.3,2.8-4.8,4.6c-2.1,2.5-2.8,3.9-2.4,5.2c-0.2,0-0.5,0-0.7,0h-41c-0.2,0-0.5,0-0.7,0c0.4-1.3-0.3-2.7-2.4-5.2
			c-1.5-1.8-3.3-3.4-4.8-4.6c-3.1-2.3-8.7-4.9-12.8-5.2l-2-0.2c-0.1-0.1-0.1-0.2-0.2-0.3c-1.7-2.4-4.9-4.1-7.7-5.6
			c-0.5-0.3-1-0.6-1.5-0.8c-0.6-0.3-1.2-0.6-1.8-1c-0.5-0.3-1.1-0.6-1.6-0.8l-2.4-1.3c-0.8-2.5-2.1-5.1-4.3-7.4
			c-0.2-0.2-0.3-0.4-0.5-0.6c-1-1.2-2.2-2.6-3.8-3.1l-2.1-0.6l0,0.1c-1-3.6-3.4-8.3-6-9.7l-1.6-0.9c0.3-4.7-0.6-8.5-2.8-11.4
			l-1.7-2.2l-0.4,0.4c0.7-4.8-0.7-8.5-1.4-10.1L31,84.8l-0.5,0.4c1.6-3.7,2.3-8.3,1-11.1l-0.8-1.7c2.2-2.9,4-6.9,4.6-10.7l0.5-3
			l-1,0c4.8-3.6,5.5-8,5.6-9.1l0.2-2.3c3.3-1.5,6.3-3.8,6.9-7.3l0.3-1.9l-0.4-0.1c2.3-0.6,4.8-1.7,7.2-3.8c0.7-0.6,1.5-1.4,2.1-2.7
			l0.9-1.8L56,28.2c-0.1-0.1-0.2-0.1-0.3-0.2c4.5-0.5,7.7-2.9,9.5-7.3l0.9-2.2l-2.1-1c-1.2-0.6-2.4-1-3.7-1.4c0,0,0.1,0,0.1-0.1
			c3.2-1.8,3.6-4,4-6c0.1-0.7,0.3-1.5,0.6-2.3l0.8-2.5l-2.6-0.6c-1.2-0.3-2.7-0.4-4.1-0.4c-4.5,0-8.2,1.4-10.5,3.7
			c0-2.3-0.3-4-0.3-4.1L47.6,0l-3.2,2.2c-1,0.7-1.8,1.2-2.6,1.6c-1.4,0.8-2.8,1.6-4.4,3.1c-1.2,1.1-2.5,2.6-3.5,4.4l-1.1-3.2
			L30,12.4c-1,1.5-2.4,2.8-3.9,4.2c-1.4,1.3-2.9,2.7-4.2,4.4c-0.8,1.1-1.4,2.5-1.8,4l-1.6-1.7l-1.8,2.2c-0.9,1.2-5.7,7.2-6.7,10.1
			c-0.1,0.3-0.2,0.7-0.3,1.1l-1.1-1.4l-1.7,3.8c-2,4.5-3,9.7-2.4,13.3l-1.9-1l-1,2.5c-1.2,3-2.4,10.7-0.2,16.1l-1.9-0.9L-0.4,73
			c0,1.5,0.1,4,0.2,5.3C0,82.4,0.5,85.8,2,88.6l-2-0.7l-0.4,3c-0.4,3,0.7,7.5,2.1,10.3c0.9,1.9,2.5,3.5,4.1,4.8l-3.6-0.2l1.2,3.5
			c0.4,1.2,1.2,3.4,2.1,4.9c1.7,2.7,3.4,4.5,5.2,5.6l-1.8,0.2l1.2,3.1c0.8,2,5,6.8,5.6,7.4c1.3,1.4,2.8,2.4,4.2,3.2l-4,0.3l3.5,3.7
			c0.6,0.7,1.2,1.2,1.6,1.7c0.6,0.6,1.1,1.1,1.6,1.7c0.2,0.3,0.5,0.5,0.7,0.8c1.4,1.6,2.9,3.3,4.9,4.4l-4,0.7l5.8,3.4
			c2.7,1.6,4,2.7,5.1,3.6c0.6,0.5,1.1,1,1.8,1.4c1.6,1.2,3,1.8,4.1,2.2l-1.7,0.5l4,3c0.1,0.1,7.6,5.6,12.6,6.1
			c0.7,0.1,1.5,0.1,2.2,0.1c1.4,0,2.8-0.2,4.1-0.4c-0.4,1.2,0.1,2.4,1.2,3.1c1.2,0.7,5,2.9,10.6,2.9c2.8,0,5.7-0.5,8.6-1.6
			c0.6-0.2,1.3-0.5,2.1-0.8c1.3-0.5,2.9-1.1,4.8-1.8c2.2-0.8,7.7-1.9,13.4-2.2c-3.8,3.3-8.3,7.8-11,12.7c-0.6,1-0.4,2.3,0.5,3.2
			c0.4,0.4,2.5,2.3,4.7,2.3c1.3,0,2.4-0.6,3.1-1.6c3.3-4.8,11.9-12.8,14.9-14.4c3,1.6,11.6,9.6,14.9,14.4c0.7,1,1.8,1.6,3.1,1.6
			c2.3,0,4.4-1.9,4.7-2.3c0.8-0.8,1-2.1,0.5-3.2c-2.6-4.9-7.1-9.4-11-12.7c5.7,0.3,11.2,1.4,13.4,2.2c2,0.7,3.5,1.3,4.8,1.8
			c0.8,0.3,1.5,0.6,2.1,0.8c2.9,1.1,5.8,1.6,8.6,1.6c5.6,0,9.3-2.2,10.6-2.9c1.1-0.6,1.6-1.9,1.2-3.1c1.3,0.2,2.6,0.4,4.1,0.4
			c0.7,0,1.5,0,2.2-0.1c5-0.5,12.5-6,12.6-6.1l4-3l-1.7-0.5c1.2-0.4,2.5-1,4.1-2.2c0.7-0.5,1.2-1,1.8-1.4c1.1-1,2.4-2,5.1-3.6
			l5.8-3.4l-4-0.7c2-1.1,3.5-2.7,4.9-4.4c0.2-0.3,0.5-0.5,0.7-0.8c0.5-0.6,1-1.1,1.6-1.7c0.5-0.5,1-1,1.6-1.7l3.5-3.7l-4-0.3
			c1.5-0.8,2.9-1.8,4.2-3.2c0.6-0.6,4.9-5.4,5.6-7.4l1.2-3.1l-1.8-0.2c1.8-1.2,3.6-2.9,5.2-5.6c0.9-1.5,1.7-3.7,2.1-4.9l1.2-3.5
			l-3.6,0.2C226.4,104.7,228,103.1,228.8,101.2z"/>
	</g>
	<g>
		<path class="st1" d="M166.9,93.1c-13.9,4.8-32.2,7.4-51.6,7.4s-37.8-2.6-51.6-7.4c-9.8-3.4-16.7-7.6-20.2-12.4v23.1
			c0,13.6,32.3,24.7,71.8,24.7c39.6,0,71.8-11.1,71.8-24.7V80.7C183.6,85.5,176.7,89.8,166.9,93.1z"/>
		<path class="st2" d="M115.3,97.8c39.6,0,71.8-11.1,71.8-24.7c0-13.6-32.3-24.7-71.8-24.7c-39.6,0-71.8,11.1-71.8,24.7
			C43.5,86.7,75.7,97.8,115.3,97.8z"/>
	</g>
	<g>
		<g>
			<path class="st0" d="M55.8,110.9c-1.5-0.8-2.9-1.7-4.4-2.5c-1.6-0.9-2.4-2.3-2.4-4.3c0-3,0-5.9,0-8.9c0-2,0.8-2.6,2.4-1.8
				c1.5,0.7,2.9,1.5,4.4,2.2c1.6,0.8,2.4,2.3,2.4,4.3c0,3.1,0,6.1,0,9.2C58.2,111.3,57.4,111.8,55.8,110.9z M51.5,96.8
				c0,2.8,0,5.6,0,8.4c0,0.2,0,0.3,0.1,0.4c0.1,0.1,0.1,0.2,0.3,0.2c1.2,0.7,2.4,1.3,3.6,2c0.1,0.1,0.2,0.1,0.3,0.1
				c0.1,0,0.1-0.1,0.1-0.3c0-2.9,0-5.7,0-8.6c0-0.2,0-0.3-0.1-0.4c-0.1-0.1-0.1-0.2-0.3-0.2c-1.2-0.6-2.4-1.2-3.6-1.9
				c-0.1-0.1-0.2-0.1-0.3,0C51.5,96.5,51.5,96.6,51.5,96.8z"/>
			<path class="st0" d="M67.7,104.9c0-0.5,0-1.1,0-1.6c0-0.2,0-0.3-0.1-0.4c-0.1-0.1-0.2-0.1-0.3-0.2c-1.1-0.3-2.1-0.7-3.2-1
				c-0.1,0-0.2,0-0.3,0c-0.1,0.1-0.1,0.2-0.1,0.3c0,0.6,0,1.1,0,1.7c0,0.2,0,0.4,0.1,0.5c0.1,0.1,0.3,0.3,0.5,0.4
				c1.2,0.7,2.3,1.3,3.5,2c0.9,0.5,1.6,1.1,2,1.7c0.4,0.6,0.7,1.4,0.7,2.4c0,0.9,0,1.8,0,2.6c0,2.1-0.9,2.9-2.6,2.2
				c-1.4-0.5-2.9-1-4.3-1.5c-1.7-0.6-2.6-1.9-2.6-4c0-0.6,0-1.3,0-1.9c0.9,0.3,1.7,0.6,2.6,0.9c0,0.6,0,1.2,0,1.7
				c0,0.2,0,0.3,0.1,0.4c0.1,0.1,0.2,0.2,0.3,0.2c1.2,0.4,2.3,0.8,3.5,1.2c0.1,0,0.2,0,0.3,0c0.1,0,0.1-0.2,0.1-0.3
				c0-0.6,0-1.3,0-1.9c0-0.2,0-0.4-0.1-0.6c-0.1-0.1-0.3-0.3-0.5-0.4c-1.2-0.7-2.3-1.4-3.5-2c-0.9-0.5-1.6-1.1-2-1.7
				c-0.4-0.6-0.7-1.4-0.7-2.3c0-0.8,0-1.6,0-2.4c0-2.1,0.9-2.8,2.6-2.3c1.3,0.4,2.7,0.8,4,1.2c1.7,0.5,2.6,1.9,2.6,4
				c0,0.6,0,1.2,0,1.8C69.5,105.5,68.6,105.2,67.7,104.9z"/>
			<path class="st0" d="M81.7,119.5c-1.1-2.6-2.1-5.2-3.2-7.7c-0.7,0.8-1.3,1.7-2,2.5c0,1.3,0,2.7,0,4c-0.9-0.2-1.8-0.4-2.7-0.6
				c0-5.3,0-10.7,0-16c0.9,0.2,1.8,0.4,2.7,0.5c0,2.5,0,5,0,7.6c1.6-2.2,3.2-4.4,4.8-6.6c1.1,0.2,2.2,0.4,3.3,0.7
				c-1.4,1.9-2.8,3.7-4.2,5.5c1.5,3.6,3,7.2,4.4,10.9C83.8,120,82.8,119.7,81.7,119.5z"/>
			<path class="st0" d="M94.7,118c-1.6-0.2-3.2-0.4-4.9-0.7c-0.3,1.2-0.6,2.3-0.9,3.5c-1-0.1-2-0.3-3-0.4c1.4-5.3,2.8-10.6,4.2-16
				c1.4,0.2,2.7,0.3,4.1,0.5c1.4,5.7,2.8,11.5,4.2,17.2c-0.9-0.1-1.9-0.3-2.8-0.4C95.3,120.5,95,119.2,94.7,118z M93.9,114.8
				c-0.6-2.4-1.2-4.8-1.8-7.2c-0.5,2.3-1.1,4.5-1.6,6.8C91.7,114.5,92.8,114.6,93.9,114.8z"/>
			<path class="st0" d="M111.4,122.9c-1-0.1-2-0.1-3.1-0.2c-0.8-2-1.5-4-2.3-6.1c-0.8,0-1.5-0.1-2.3-0.1c0,2,0,3.9,0,5.9
				c-0.9-0.1-1.9-0.1-2.8-0.2c0-5.6,0-11.2,0-16.7c2.4,0.1,4.8,0.2,7.3,0.3c1.8,0.1,2.8,1.3,2.8,3.5c0,1.4,0,2.7,0,4.1
				c0,1.9-0.6,2.9-1.9,3.2C109.9,118.7,110.6,120.8,111.4,122.9z M103.8,113.5c1.3,0.1,2.6,0.1,4,0.2c0.1,0,0.2,0,0.3-0.1
				c0.1-0.1,0.1-0.2,0.1-0.4c0-1.2,0-2.5,0-3.7c0-0.2,0-0.3-0.1-0.4c-0.1-0.1-0.2-0.1-0.3-0.1c-1.3-0.1-2.6-0.1-4-0.2
				C103.8,110.4,103.8,111.9,103.8,113.5z"/>
			<path class="st0" d="M121.1,111.2c0-0.6,0-1.1,0-1.7c0-0.2,0-0.3-0.1-0.4c-0.1-0.1-0.2-0.1-0.3-0.1c-1.1,0-2.3,0-3.4,0.1
				c-0.1,0-0.2,0-0.3,0.1c-0.1,0.1-0.1,0.2-0.1,0.4c0,0.6,0,1.2,0,1.8c0,0.3,0,0.4,0.1,0.5c0.1,0.1,0.3,0.2,0.5,0.3
				c1.2,0.3,2.4,0.6,3.7,0.9c0.9,0.2,1.7,0.6,2.1,1.1c0.5,0.5,0.7,1.3,0.7,2.3c0,0.9,0,1.9,0,2.8c0,2.2-0.9,3.4-2.8,3.4
				c-1.5,0-3,0.1-4.5,0.1c-1.8,0-2.8-1.1-2.8-3.3c0-0.7,0-1.4,0-2.1c0.9,0,1.8,0,2.8-0.1c0,0.6,0,1.3,0,1.9c0,0.2,0,0.3,0.1,0.4
				c0.1,0.1,0.2,0.1,0.3,0.1c1.2,0,2.4-0.1,3.7-0.1c0.1,0,0.2,0,0.3-0.1c0.1-0.1,0.1-0.2,0.1-0.4c0-0.7,0-1.3,0-2
				c0-0.3,0-0.4-0.1-0.5c-0.1-0.1-0.3-0.2-0.5-0.3c-1.2-0.3-2.4-0.6-3.7-0.9c-0.9-0.2-1.7-0.6-2.1-1.1c-0.5-0.5-0.7-1.3-0.7-2.3
				c0-0.9,0-1.7,0-2.6c0-2.2,0.9-3.4,2.8-3.4c1.4,0,2.8-0.1,4.3-0.1c1.8,0,2.8,1.1,2.8,3.3c0,0.6,0,1.3,0,1.9
				C122.9,111.2,122,111.2,121.1,111.2z"/>
			<path class="st0" d="M127.4,122.5c0-5.6,0-11.2,0-16.8c0.9-0.1,1.9-0.2,2.8-0.3c0,2.2,0,4.4,0,6.6c1.6-0.2,3.2-0.3,4.9-0.5
				c0-2.2,0-4.4,0-6.6c0.9-0.1,1.9-0.2,2.8-0.2c0,5.5,0,11.1,0,16.6c-0.9,0.1-1.9,0.2-2.8,0.3c0-2.3,0-4.6,0-6.9
				c-1.6,0.2-3.2,0.3-4.9,0.5c0,2.3,0,4.7,0,7C129.3,122.3,128.4,122.4,127.4,122.5z"/>
			<path class="st0" d="M149.1,115.8c-1.6,0.3-3.2,0.6-4.8,0.9c-0.3,1.2-0.6,2.5-0.9,3.7c-1,0.2-2,0.4-3,0.6
				c1.4-5.8,2.8-11.5,4.1-17.2c1.4-0.2,2.7-0.5,4.1-0.7c1.4,5.2,2.8,10.4,4.2,15.5c-0.9,0.2-1.9,0.4-2.8,0.5
				C149.7,118.1,149.4,117,149.1,115.8z M148.3,112.9c-0.6-2.2-1.2-4.4-1.7-6.6c-0.5,2.4-1.1,4.8-1.6,7.2
				C146.1,113.3,147.2,113.1,148.3,112.9z"/>
			<path class="st0" d="M168.3,98.5c0,5.2,0,10.3,0,15.5c-0.9,0.3-1.8,0.6-2.7,0.8c0-3.3,0-6.6,0-10c-1,2.9-1.9,5.8-2.9,8.8
				c-0.7,0.2-1.3,0.4-2,0.6c-1-2.4-1.9-4.8-2.9-7.2c0,3.4,0,6.8,0,10.2c-0.9,0.3-1.7,0.6-2.6,0.9c0-5.4,0-10.7,0-16.1
				c1-0.3,2-0.6,3-0.9c1.1,2.8,2.2,5.6,3.3,8.4c1.2-3.5,2.5-6.9,3.7-10.3C166.3,99,167.3,98.7,168.3,98.5z"/>
			<path class="st0" d="M179,93.6c0.8-0.4,1.6-0.8,2.4-1.1c0,4.9,0,9.8,0,14.8c-0.8,0.4-1.6,0.9-2.4,1.3c-1.6-2.5-3.1-5-4.7-7.5
				c0,3.4,0,6.8,0,10.1c-0.8,0.5-1.6,0.9-2.4,1.4c0-5.1,0-10.2,0-15.3c0.9-0.5,1.7-0.9,2.6-1.3c1.5,2.5,3,4.9,4.5,7.4
				C179,100,179,96.8,179,93.6z"/>
		</g>
		<g>
			<rect x="82.2" y="57.7" class="st0" width="15.7" height="30.4"/>
			<polygon class="st0" points="151,57.7 132.9,57.7 122.2,69.8 122.2,57.7 106.5,57.7 106.5,88.1 122.2,88.1 122.2,76 132.9,88.1 
				151,88.1 136.3,72.9 			"/>
		</g>
	</g>
	<g>
		<path class="st1" d="M164,153c4.9-3.5,8.8-13.3,8.5-16.5c-1.1,0.6-2.3,1.2-3.4,1.8c-2.7,1.5-6.7,3.3-8.4,5.7
			c-1.8,2.6-2.6,5.8-3.9,8.6c-0.2,0.4-1.3,2.8-1.7,4.4C157.3,156.5,160.5,155.5,164,153z"/>
		<path class="st1" d="M195.2,26.2c0.1-3,0.2-5.9,0.3-9.3c0.1-3.4-1.7-6-4-8.2c-2.3-2.2-4.1-2.6-6.7-4.5c-0.3,1.7-0.9,7.9,2.4,12.6
			C190.4,21.5,193.7,25.2,195.2,26.2z"/>
		<path class="st1" d="M171.3,13.9c3.2,1.8,5,1.7,7.9,2c2.6,0.3,4.2,1,5.3,1.5c-0.7-2-1.1-3.8-4-7.4c-2.9-3.7-9.6-3.8-12.7-3.1
			C169,10.6,168.3,12.2,171.3,13.9z"/>
		<path class="st1" d="M208,46.3c0.5,4.4,1.9,7.4,3,9.3c0.9-2.8,1.8-5.3,3.1-8.1c1.3-2.8,2.5-4.2,3.9-7c0.8-1.7,0.5-3.3,0.2-4.2
			c-0.7-2.2-4.6-7.3-6.3-9.4C209.7,29.2,207.5,41.9,208,46.3z"/>
		<path class="st1" d="M205.7,43.3c0.1-1.4,0.2-5.9,1.2-9.5c1-3.6,1.2-5,1.3-6.4c0.1-1.6-0.6-3.7-1.5-4.9c-2.3-3.1-6-5.4-8.2-8.7
			c-0.4,1.3-0.7,3.5-0.8,4.9c-0.5,6,0.3,11.6,2.6,16C200.7,35.7,205.2,42.6,205.7,43.3z"/>
		<path class="st1" d="M150.7,158.4c1.1-0.5,5.8-11.4,6-12.9c-3.3,0.3-8.4,2.5-11.5,4.7c-3.1,2.3-6.5,6.5-6.3,7.1
			C140.1,157.8,149.9,158.6,150.7,158.4z"/>
		<path class="st1" d="M213,57.7c0,3,1.8,7.1,2.5,8c0.8-1.8,1.4-3.1,3.2-5.5c1.8-2.4,4.4-5.3,4.8-8.2c0.5-3.2-0.5-8-2.2-11.9
			c-1.3,1.7-2.2,3.2-3,4.4C216,48.4,213,54.8,213,57.7z"/>
		<path class="st1" d="M179.7,127.3c-4.3,4.8-4.6,10.7-5.9,14.5c-0.9,2.6-2.1,4.9-3.4,7.6c1.6-0.7,3.2-1.4,4.9-2.1
			c2.3-0.9,6.3-3.6,7.8-6.9c0.8-1.7,1.4-3.9,1.5-6c0.3-3.5-0.3-7.5-1.7-10.3C181.8,124.6,180.6,126.3,179.7,127.3z"/>
		<path class="st1" d="M183.5,25.3c4.2,0.2,5.5,0.7,7,1c-0.8-2.4-4.6-5.6-7.3-6.8c-2.5-1.1-7.5-1.8-10.3-1.4c-2.1,0.3-3.9,1-5.3,1.7
			C171.2,28.1,179,25,183.5,25.3z"/>
		<path class="st1" d="M202.6,59.4c3.3,1.1,7.3,3.8,8.9,4.9c-0.6-3-2.6-8.3-5-10.4c-3.1-2.7-9.2-4.6-13.9-4.6
			C192.9,51.7,194.8,56.7,202.6,59.4z"/>
		<path class="st1" d="M196.9,47.1c3.7,1.1,6.2,1.8,8.3,2.2c-1.7-4.5-5.6-8.9-7.9-9.9c-2.6-1.2-9.9-0.5-11.7,0.2
			C186.2,43.9,193.1,45.9,196.9,47.1z"/>
		<path class="st1" d="M197.9,37.2c-0.5-1.7-3.1-6.2-5.8-7.9c-1.2-0.8-4.8-1.9-8.5-1.6c-3.6,0.2-6.3,1.5-7.5,2.5c0.5,1,1,1.5,1.6,2
			c4.5,4.1,9.7,3.8,12.8,3.9C193.7,36.3,196.6,36.8,197.9,37.2z"/>
		<path class="st1" d="M217.3,82.7c-2,2.9-3,6.6-3.9,10.1c-0.4,1.8-1.1,4.2-1.2,6.2c1.9-1.4,4.5-4.1,6.9-5.8c2.6-1.8,5.4-3,6.9-5.4
			c1.5-2.4,2-5.5,2.2-9.8c0.1-1.3,0.2-3.7,0.2-5.1c-1.6,0.8-3.4,2-4.7,3.1C221.4,78.1,219.1,80.2,217.3,82.7z"/>
		<path class="st1" d="M201.1,120.5c1.1-1.7,1.9-3.3,2-5.1c0.3-4-3.8-11.9-6.4-14.6c-5.7,7.2,0.7,21.6,1.4,23.4
			C199.3,123.1,200,122.2,201.1,120.5z"/>
		<path class="st1" d="M212.1,86.7c0.1-3.8-3.5-7.2-5.7-8.8c-1.3-1-3.5-2.3-5.1-2.9c-1.3,2.7,0.2,8.9,2.8,12.2
			c2.6,3.4,4.6,7.3,5.8,8.8C210.3,93.4,212.1,90.5,212.1,86.7z"/>
		<path class="st1" d="M211.7,68.9c-2.2-3.6-4.7-4.9-7-6c-2.1-0.9-4.3-1.6-6.9-1.8c0.6,3.5,2.3,7.6,4.7,10.3
			c1.7,1.9,3.5,2.6,5.9,4.5c2.2,1.8,3.7,4.3,4.9,6.3C213.7,80.2,213.8,72.5,211.7,68.9z"/>
		<path class="st1" d="M208.4,101.3c0.4-3.9-4.4-10.4-7.8-12.8c-1.1,2.3-2.1,6.4-0.7,11c1.5,4.6,3.8,8.5,4.9,10.9
			C205.6,109.5,207.9,105.2,208.4,101.3z"/>
		<path class="st1" d="M191.8,134.4c2-2.2,7.6-8.4-0.3-20.7c-2.5,1.3-5.2,7.7-5.1,10.4c0,2.3,0.8,4.8,0.9,7.1
			c0.1,2.1-0.7,5.7-1.1,7.4C187.3,138,189.8,136.6,191.8,134.4z"/>
		<path class="st1" d="M215.9,72.5c-0.2,2.6,0,5.1,0.7,7.6c1.8-2,3.8-5,8-8.2c4.3-3.3,3.4-13.4,1.9-17.1c-1.3,0.7-3,2.5-3.9,3.6
			C219.2,62.7,216.4,66.7,215.9,72.5z"/>
		<path class="st1" d="M164.1,156.6c-2.3,0.8-7.2,2.5-9.9,3c1.6,0.5,5.3,1.7,6.3,2.1c4.2,1.6,8.3,3.6,13.8,3c3.4-0.4,9.2-4,11.4-5.6
			c-4.7-1.4-9.1-2.6-13.4-3.5C169.4,155,166.4,155.8,164.1,156.6z"/>
		<path class="st1" d="M163.3,165.7c-6.1-3-13.4-5.3-27.6-5.3h-41c-14.1,0-21.5,2.2-27.6,5.3c-0.5,0.3-2.3,1.3-2.5,1.9
			c0,0.1,0,0.1,0.1,0.2c2.1,1.2,8.1,4.4,17,1.1c1.5-0.6,3.7-1.4,7-2.6c3.7-1.4,14-3,21.4-2.2c-3.3,2.1-12.1,9-16,16.2
			c0,0.1,0,0.2,0,0.2c0.9,0.9,3.1,2.4,4.1,1c3.5-5,13.7-14.8,17-15.6c3.3,0.8,13.5,10.6,17,15.6c0.9,1.4,3.2-0.2,4.1-1
			c0.1-0.1,0.1-0.1,0-0.2c-3.9-7.3-12.7-14.1-16-16.2c7.5-0.8,17.7,0.8,21.4,2.2c3.2,1.2,5.5,2.1,7,2.6c8.9,3.3,14.9,0.1,17-1.1
			c0.1,0,0.1-0.1,0.1-0.2C165.5,167,163.8,166,163.3,165.7z"/>
		<path class="st1" d="M228.5,91.2c-1.6,0.6-3.5,1.7-4.8,2.5c-5.7,3.5-10.2,6.6-13.8,13.1c-1,1.7-1.5,2.9-1.9,4.7
			c1.5-0.9,3-1.8,5.2-2.7c2.2-0.9,4.7-1.8,6.5-2.6c2.1-1,5.7-3.4,7-6.1C227.9,97.4,228.8,93.5,228.5,91.2z"/>
		<path class="st1" d="M208,115c-1.3,1.1-2.1,2-2.9,3.4c-0.4,0.6-1.6,3.5-1.6,4.3c2-0.8,2.6-1.3,6.8-2.3c4.5-1.2,8.9-1.1,12.8-7.5
			c0.6-1,1.3-2.7,1.9-4.4c-3.8,0.2-7,1.3-10.2,2.6C211.4,112.4,210,113.2,208,115z"/>
		<path class="st1" d="M200.3,126.8c-1.9,1.7-3.7,5.7-3.9,6.6c1.3,0.3,4.1,0.4,5,0.3c4.5-0.5,8.5-1.8,11.7-5c1-1.1,4.6-5.3,5.1-6.6
			C210.9,121.4,202.3,125.1,200.3,126.8z"/>
		<path class="st1" d="M180.7,148.5c-2.7,0.8-7,2.9-9.4,4.6c4,0.5,6.9,1.1,10.8,1.8c1.7,0.3,3.7,1.1,5.5,0.7
			c1.3-0.3,2.7-0.8,4.5-2.1c1.9-1.4,2.9-2.7,7.1-5.2C192.5,147.1,185.3,147.2,180.7,148.5z"/>
		<path class="st1" d="M192.4,138c-2.4,1.4-5.6,5.1-6.6,7c2.4,0.1,5.9,0.1,8.3,0.2c1.7,0.1,3.6,0.2,6-0.6c2.4-0.9,4.1-3,6-5.1
			c1-1.1,1.8-1.9,3.3-3.4C203.3,135.5,197.1,135.4,192.4,138z"/>
		<path class="st1" d="M58.1,136.5c-0.3,3.2,3.6,13,8.5,16.5c3.5,2.5,6.7,3.5,8.9,4c-0.4-1.6-1.6-4-1.7-4.4c-1.3-2.8-2-6.1-3.9-8.6
			c-1.7-2.4-5.7-4.2-8.4-5.7C60.4,137.7,59.2,137.1,58.1,136.5z"/>
		<path class="st1" d="M43.4,16.9c3.3-4.7,2.7-10.9,2.4-12.6c-2.7,1.9-4.4,2.3-6.7,4.5c-2.3,2.2-4.1,4.8-4,8.2
			c0.1,3.4,0.2,6.3,0.3,9.3C36.8,25.2,40.2,21.5,43.4,16.9z"/>
		<path class="st1" d="M51.3,16c2.9-0.3,4.7-0.2,7.9-2c3-1.7,2.3-3.3,3.4-6.9c-3.2-0.7-9.8-0.6-12.7,3.1c-2.8,3.6-3.2,5.4-4,7.4
			C47.1,17,48.7,16.3,51.3,16z"/>
		<path class="st1" d="M16.5,47.6c1.3,2.8,2.2,5.2,3.1,8.1c1.1-1.9,2.5-4.9,3-9.3c0.5-4.4-1.8-17.2-3.9-19.3
			c-1.7,2.1-5.5,7.2-6.3,9.4c-0.3,0.9-0.6,2.5,0.2,4.2C14,43.4,15.2,44.8,16.5,47.6z"/>
		<path class="st1" d="M24.9,43.3c0.5-0.7,5-7.6,5.5-8.6c2.2-4.5,3.1-10,2.6-16c-0.1-1.4-0.4-3.6-0.8-4.9c-2.2,3.2-5.8,5.5-8.2,8.7
			c-0.9,1.2-1.6,3.3-1.5,4.9c0.1,1.4,0.3,2.7,1.3,6.4C24.7,37.4,24.7,41.9,24.9,43.3z"/>
		<path class="st1" d="M79.9,158.4c0.8,0.3,10.6-0.5,11.8-1c0.2-0.7-3.2-4.9-6.3-7.1c-3.1-2.3-8.2-4.5-11.5-4.7
			C74.1,147,78.8,157.9,79.9,158.4z"/>
		<path class="st1" d="M11.9,60.2c1.7,2.4,2.4,3.7,3.2,5.5c0.7-0.8,2.5-5,2.5-8c0-3-2.9-9.4-5.3-13.2c-0.7-1.2-1.6-2.7-3-4.4
			C7.6,44,6.6,48.8,7.1,52C7.5,54.9,10.2,57.8,11.9,60.2z"/>
		<path class="st1" d="M47.4,140.4c1.6,3.3,5.6,6,7.8,6.9c1.7,0.7,3.3,1.4,4.9,2.1c-1.3-2.7-2.5-5-3.4-7.6
			c-1.3-3.8-1.6-9.7-5.9-14.5c-0.9-0.9-2-2.7-3.3-3.1c-1.3,2.8-1.9,6.7-1.7,10.3C46.1,136.5,46.6,138.7,47.4,140.4z"/>
		<path class="st1" d="M47.3,19.5c-2.6,1.2-6.5,4.4-7.3,6.8c1.5-0.3,2.8-0.7,7-1c4.5-0.3,12.2,2.9,15.8-5.5
			c-1.4-0.7-3.2-1.3-5.3-1.7C54.9,17.7,49.8,18.4,47.3,19.5z"/>
		<path class="st1" d="M37.9,49.3c-4.7,0-10.8,1.9-13.9,4.6c-2.4,2.1-4.4,7.4-5,10.4c1.6-1.1,5.6-3.7,8.9-4.9
			C35.7,56.7,37.7,51.7,37.9,49.3z"/>
		<path class="st1" d="M33.3,39.3c-2.3,1.1-6.2,5.5-7.9,9.9c2.1-0.4,4.5-1.1,8.3-2.2s10.7-3.2,11.3-7.5
			C43.2,38.9,35.9,38.1,33.3,39.3z"/>
		<path class="st1" d="M54.4,30.2c-1.2-1-3.9-2.3-7.5-2.5c-3.6-0.2-7.3,0.8-8.5,1.6c-2.6,1.7-5.3,6.2-5.8,7.9c1.3-0.5,4.2-1,7.3-1.1
			c3.1-0.2,8.4,0.2,12.8-3.9C53.4,31.6,53.9,31.1,54.4,30.2z"/>
		<path class="st1" d="M4.5,87.9c1.5,2.4,4.3,3.6,6.9,5.4c2.5,1.7,5.1,4.4,6.9,5.8c-0.1-2-0.8-4.4-1.2-6.2
			c-0.9-3.6-1.9-7.2-3.9-10.1c-1.7-2.5-4.1-4.6-6.5-6.6c-1.2-1-3.1-2.3-4.7-3.1c0,1.4,0.1,3.8,0.2,5.1C2.5,82.4,3,85.5,4.5,87.9z"/>
		<path class="st1" d="M29.5,120.5c1.1,1.7,1.7,2.6,3,3.8c0.7-1.8,7.1-16.2,1.4-23.4c-2.6,2.7-6.7,10.5-6.4,14.6
			C27.6,117.2,28.4,118.7,29.5,120.5z"/>
		<path class="st1" d="M26.4,87.3c2.6-3.4,4.1-9.5,2.8-12.2c-1.6,0.6-3.8,1.9-5.1,2.9c-2.2,1.6-5.8,5-5.7,8.8
			c0.1,3.8,1.8,6.7,2.2,9.4C21.8,94.6,23.8,90.6,26.4,87.3z"/>
		<path class="st1" d="M17.4,82.3c1.2-2,2.7-4.4,4.9-6.3c2.4-2,4.2-2.6,5.9-4.5c2.3-2.7,4.1-6.7,4.7-10.3C30.2,61.3,28,62,25.9,63
			c-2.3,1-4.9,2.4-7,6C16.7,72.5,16.9,80.2,17.4,82.3z"/>
		<path class="st1" d="M25.7,110.4c1.1-2.4,3.4-6.3,4.9-10.9c1.5-4.6,0.5-8.7-0.7-11c-3.4,2.4-8.2,8.9-7.8,12.8
			C22.6,105.2,25,109.5,25.7,110.4z"/>
		<path class="st1" d="M44.3,138.6c-0.4-1.7-1.1-5.4-1.1-7.4c0.1-2.3,0.9-4.8,0.9-7.1c0.1-2.6-2.6-9.1-5.1-10.4
			c-7.9,12.3-2.3,18.5-0.3,20.7C40.8,136.6,43.3,138,44.3,138.6z"/>
		<path class="st1" d="M5.9,71.9c4.2,3.2,6.2,6.2,8,8.2c0.8-2.5,0.9-5,0.7-7.6c-0.4-5.8-3.2-9.8-6.7-14.1c-0.9-1.1-2.6-2.9-3.9-3.6
			C2.5,58.5,1.6,68.6,5.9,71.9z"/>
		<path class="st1" d="M76.4,159.6c-2.7-0.5-7.6-2.2-9.9-3c-2.4-0.9-5.4-1.6-8.2-1c-4.3,0.9-8.6,2.1-13.4,3.5
			c2.2,1.6,8,5.2,11.4,5.6c5.4,0.6,9.6-1.4,13.8-3C71.1,161.3,74.8,160.1,76.4,159.6z"/>
		<path class="st1" d="M10.9,106.2c1.8,0.8,4.3,1.7,6.5,2.6c2.2,0.9,3.7,1.9,5.2,2.7c-0.4-1.8-0.9-3.1-1.9-4.7
			c-3.6-6.5-8.1-9.7-13.8-13.1c-1.4-0.8-3.2-2-4.8-2.5c-0.3,2.3,0.6,6.2,1.9,8.9C5.2,102.8,8.8,105.2,10.9,106.2z"/>
		<path class="st1" d="M27.1,122.7c0-0.8-1.3-3.7-1.6-4.3c-0.8-1.4-1.7-2.2-2.9-3.4c-2-1.8-3.4-2.6-6.6-3.9
			c-3.2-1.3-6.4-2.4-10.2-2.6c0.6,1.7,1.2,3.4,1.9,4.4c3.9,6.4,8.3,6.3,12.8,7.5C24.5,121.4,25.1,121.9,27.1,122.7z"/>
		<path class="st1" d="M34.1,133.4c-0.2-0.9-2-4.9-3.9-6.6c-2-1.7-10.5-5.4-17.9-4.7c0.5,1.3,4,5.5,5.1,6.6c3.2,3.3,7.2,4.5,11.7,5
			C30,133.8,32.9,133.8,34.1,133.4z"/>
		<path class="st1" d="M59.3,153.1c-2.4-1.7-6.7-3.8-9.4-4.6c-4.7-1.4-11.9-1.4-18.5-0.3c4.2,2.4,5.2,3.8,7.1,5.2
			c1.8,1.3,3.1,1.8,4.5,2.1c1.8,0.4,3.8-0.4,5.5-0.7C52.4,154.2,55.3,153.6,59.3,153.1z"/>
		<path class="st1" d="M36.5,145.2c2.4-0.1,5.8-0.1,8.3-0.2c-1-1.9-4.2-5.6-6.6-7c-4.7-2.6-10.9-2.5-16.9-2c1.4,1.5,2.3,2.3,3.3,3.4
			c1.9,2.1,3.6,4.3,6,5.1C32.9,145.4,34.8,145.3,36.5,145.2z"/>
	</g>
</g>
</svg>
