<?xml version="1.0" encoding="UTF-8"?><svg id="Lager_2" xmlns="http://www.w3.org/2000/svg" viewBox="0 0 200 200"><defs><style>.cls-1{fill:none;}.cls-2,.cls-3{fill:#fff;}.cls-3,.cls-4{fill-rule:evenodd;}.cls-4{fill:#007a4e;}</style></defs><g id="Lager_1-2"><g><rect class="cls-1" width="200" height="200"/><g><rect class="cls-2" x="25.79" y="162.95" width="150.59" height="34.93"/><polygon class="cls-3" points="146.04 55.21 109.72 55.21 90.43 55.21 54.94 55.21 54.94 73.17 90.43 73.17 90.43 164.25 109.72 164.25 109.72 73.17 146.04 73.17 146.04 55.21"/><path class="cls-3" d="M66.88,161.66l2.13-2.59s-.68-2.66-1.06-3.04-.61-5.05-.61-5.05l-1.08-3.85-2.18-4.11-1.68-5.48-1.84-3.27-2.88-.8-.98-3.77-.9-2.9h-1.8l-2.06,.62-3,2.6-.68-1.31,2.97-6.77-.45-6.39-2.52-2.97,.99-2.85v-3.65l-1.84-2.4-1.92-.59-.86-1.62-1.05-4.37-1.82-.96-3.74-.3,1.18-4.19,2.12-5.1,2.87-1.83,1.78-2.66-.46-2.92-1.15-1.64-.27-1.98,2.32-2.05,.44-3.3-4.21-3.39-4.82-.84,3.49-3.27,3.66-4.47,3.65-.55,3.31-2.13,.53-3.88-3.53-3.42,2.66-4.41-2.81-3.56-3.27-.7,4.52-2.04,7.51-.77,5.24-2.89,3.04,.42,2.15,.64,1.96-1.98,1.22-2.05,1.33-1.37,2.25-1.23,.76-3.41-1.37-2.57-1.39-1.54h9.76l2.59-.53,1.67-2.82h2.3l2.64,.91,1.84-1.37,1.67-2.89s1.13-.5,1.44-.74,3.09-1.26,3.09-1.26c0,0,.95,1.25,1.18,1.26s2.74,1.89,2.74,1.89l1.85,1.83,1.58,1.67s1.9,.6,2.36,.61,3.58-.45,3.58-.45c0,0,1.67,2.21,1.98,2.21s2.59,.76,2.59,.76l9.6-.15-2.21,3.62v2.99s1.41,2.06,1.73,2.21,1.77,.78,1.77,.78l1.14,2.99,2.43,2.39,3.8-1.45,2.28,.46,3.9,1.84,4.04,.9,3.7-.08,1.56,.99,2.47,.93-3.74,2.19-.82,2.97,1.15,3.83-2.37,3.63-.33,3.35,2.43,1.99,3.95,.9s2.39,2.36,2.55,2.59,4.75,4.49,4.75,4.49l-3.3,1.83-3.58,2.17-1.32,3.46,1.32,2.89,1.37,1.14-1.37,3.2-.91,2.51,1.11,1.77,3.3,2.19,2.01,2.28,.75,1.52,1.72,4.8v2.48l-3.21-.57-2.14,.98-1.11,1.35-1.01,3.84-1.7,1.14-1.97,1.44-1.21,2.06s-.34,2.59,0,2.89,.9,1.98,.9,1.98l-1.07,2.66-.85,3.96,1.02,6.09,2.1,2.89-.85,2.05-2.65-2.28-2.65-.99-2.14,.84-1.76,3.2,.08,2.36-2.21,1.74-2.58,1.84-.15,2.51-.38,2.89-2.59,3.58-1.67,2.89-.23,3.8,.53,2.21-1.62,3.12-.66,2.82,3.8,.68h10.96l6.83-.3,4.2-.08,1.46-2.36s2.65-1.75,2.96-1.75,2.56-.9,2.56-.9l.56-1.84,1.14-.76,2.84-1.67s.24-.88,.57-1.29,.71-1.52,.71-1.75,.15-1.67,.34-2.28,.67-2.37,.81-2.36,1.13-1.97,1.13-1.97l-.41-3.42-1.54-2.66-1.62-.92,7.75-6.61,1.87-2.36,.85-3.11,3.52-3.65,.39-2.59-.31-2.63,.31-2.09,.98-3.08-.98-3.32-2.01-2.73-2.75-1.45,7.87-10.58,1.84-2.97-.83-3.71,1.81-1.77,2.96-5.02-.67-3.65-3.02-2.67-1.08-3.87-3.31-2.66-1.66,.38,.85-6.24-.07-2.74-.55-1.68,2.31-2.99v-3.92l-.51-2.06-1.25-.83,.85-2.82v-2.74l-2.09-2.1-3.4-.5-1.86-2.66-2.26-1.67-3.82,.46-1.54,1.22-3.67-4.72-1.49-5.86-.53-3.04-2.19-2.43-3.16-.76-1.8-.91-2.81-4.49-2.13-.68-4.89-1.16-3.41-1.42h-2.82l-1.45,2.1-.86,2.1-2.31-.93-1.39-1.84-1.9-1.42h-2.89l-2.21-.31-3.65-3.58-3.65-.46-2.24,.84-3.09-1.22-3.27-.99-2.82,1.37-2.43,1.14-3.27,1.18-1.57,1.48-2.84-3.2-4.11-1.98-3.35-1.52-4.11,1.52-3.65,.53-3.96-.38-3.27,2.05-2.05,2.15h-3.8l-1.98,1.35-2.89,2.1-1.52,.84-.99-2.94-1.97-1.35-4.08,.36-2.8,1.52-2.18,.89h-1.97l-1.67,1.51-1.6,2.39-1.29,1.87-3.56,.42-2.3,1.83-.85,2.82-.71,3.92-1.51,3.2-2.18,2.8-1.4,1.35-3.62-1.36-1.87,.52-3.61,3.2-2.27,1.37-2.46,1.15-.79,2.67,.79,2.5v1.52l-1.42,1.22-.6,1.9,.39,2.66,1.96,2.74,.64,1.45-1.64,2.89,.68,4.64,.97,2.13-3.63,1.29-1.95,2.07-.58,2.35v1.43l-2.88,2.2-.5,2.99,.91,3,2.47,3.3,1.49,.99-.84,2.82,1.29,3.96,2.58,3.58,3.44,4.95,1.32,2.21-2.84,2.15-2.1,3.71v2.93l1.4,2.85-.54,3.35,.86,2.36,1.9,2.75,1.36,2.57,.54,1.63,3.35,4.46,3.75,3.31,2.48,1.48-1.98,2.36-1.7,2.82,.94,2.36,1.62,2.96-.18,3.2,.86,2.78,2.72,2.32,2.56,1.14,2.57,2.53,3.37,.97,3.08,1.14,2.36,2.43,2.97,.46,4.58-.38h5.23l5.86,.08Z"/><g><path class="cls-4" d="M177.57,162.95v35.92H24.84v-35.92H177.57Zm-3.5,32.55v-31.25H28.34v31.25H174.06Zm-2.96-2.83H31.04v-25.59H171.1v25.59h0Zm-18.86-20.07v-3.37h-23.3v21.01h3.91l.13-9.43h14.41v-3.5l-14.55-.13,.13-4.58h19.26Zm-49.83,17.51v-20.74h-4.58v20.74h4.58Zm-21.68,0l-11.31-20.88c-2.12,.57-5.89-1.45-6.33,1.75l-12.66,19.12h5.25l2.69-4.04,15.62,.13,2.15,3.91h4.58Zm-19.8-7.95l5.66-8.89,4.98,8.89h-10.64Z"/><path class="cls-4" d="M33.23,150.98c1.05,.98,2.36,1.7,3.74,1.96,.67,.34,1.25,1.14,.81,1.89,1.58,.91,3.33,1.45,4.98,2.15,1.28,.88,3.1,.37,4.18,1.75l-.13-.94c-3.47-1.83-7.19-3.76-9.94-6.81h3.72c2.07,1.55,4.16,3.08,6.48,3.98,.94,.84,2.96,.77,2.83,2.56,.84,1.01,2.19,.91,3.23,1.48-.07,.07-.13,.17-.27,.13,.77,.51,1.82,.3,2.69,.54-.77-.54-.1-1.82-1.08-2.15l.13-.13c-1.66-2.1-3.25-4.23-4.76-6.41h2.39c2.17,3.1,4.58,6.05,7.49,8.7-.03-2.89-.29-6.01-1.28-8.7h2.95c.07,.12,.14,.23,.21,.35,.2,2.59,.71,5.22,.81,7.68h-.13l.13,.13c-.17,.74,.81,.47,.81,.54l-.13-.13c.51,0,1.35-.03,1.89,.27,.64,.3,1.21-.91,2.02-.94,.71-2.22-1.48-2.9-1.48-4.85,1.24-.51,.89-1.92,.93-3.04h2.56c.06,.63,.07,1.28,0,1.96-1.89,2.83,3.3,3.87,1.48,7-.2,.37-.61,.91-1.08,.94h18.86v-9.91h4.31v9.91h13.87v-9.91h4.31v9.91h18.86c.03-2.05,1.45-3.5,1.89-5.39-.46-1.58-.47-3.08-.2-4.52h2.53c-.02,.11-.03,.23-.04,.35-.07,1.21-.61,3.06,.67,3.77,.57,1.99-1.65,2.79-2.02,4.58-.27,.51-.13,1.28,.54,1.35l4.31-.27c.24-.98,.64-1.89,.67-2.96,.07-2.42,.44-4.8,1.5-6.81h3.16c-.38,.32-.71,.65-.89,1.02-1.18,2.73-.98,5.99-1.75,8.89h1.48c1.45-2.22,3.5-4.44,5.12-6.73,.68-1.07,1.39-2.12,2.1-3.17h2.49c-1.79,2.63-3.67,5.23-5.67,7.75l.13,.13c-.47,.74-1.21,1.21-1.75,2.02,2.56,.3,4.34-1.21,6.6-1.62-.24-.3-.3-.67-.27-1.08,1.52-1.41,3.54-2.29,5.39-3.23,1.49-1.39,4.36-2.25,5.54-3.99h3c-.02,.12-.04,.24-.06,.35-2.79,3.64-6.94,5.79-10.77,7.81,.13,.44-.17,1.28-.67,1.75,1.08-.07,2.32,.3,2.96-.81,.94-.51,2.22-2.05,3.64-2.42,.94-.88,3.47-.67,2.96-2.42,.44-1.31,1.89-.77,2.69-1.48,1.21-.67,2.36-1.59,3.04-2.77h2.71c-.6,1.84-1.98,3.36-3.73,4.39-.98,.71-2.56,.74-2.69,2.29-1.75,1.48-3.94,1.95-5.79,3.23l19.12,.13v1.93H24.84v-1.93h20.47l.13-.13c-.71-1.04-2.22-.71-3.23-1.35-2.36-1.35-5.76-1.52-6.87-4.44-1.95-.7-4.15-2.19-5.33-4.12h3.21Z"/><path class="cls-4" d="M29.99,139.01c-.06,.11-.11,.22-.16,.33-.54,2.15,1.31,3.7,2.02,5.52,.51,1.78-.74,3.2,.27,4.85,.32,.46,.7,.88,1.11,1.27h-3.21c-.25-.41-.45-.83-.6-1.27-1.01-1.75,.88-3.84-.54-5.25-.88-1.66-2.11-3.33-1.54-5.45h2.65Zm5.45,0c-.95,3.17,3.33,4.02,3.81,6.53-.57,1.18-1.18,2.69-.54,4.04,.62,.46,1.24,.93,1.87,1.4h-3.72c-.29-.32-.57-.65-.84-1-.27-1.48-.13-3.13,.4-4.44-1.58-1.18-3.33-2.73-3.5-4.71-.04-.63-.04-1.23,.03-1.81h2.48Zm9.17,0c2.53,3.98,4.9,8.08,7.62,11.97h-2.39c-1.3-1.88-2.54-3.78-3.73-5.71-1.29-2.17-2.82-4.17-4.11-6.26h2.6Zm10.86,0c.82,.66,1.57,1.52,2.37,2.22,.74,1.65,1.48,3.94,.4,5.66,1.56,.94,2.28,2.62,3.15,4.09h-2.95c-.02-.06-.05-.13-.07-.19-.4-1.55-1.89-1.45-2.83-2.56-.34-1.01,.17-2.02,.67-2.83-.24-2.02-1.45-3.74-3.1-4.71-2.05,.21-2.73-.55-2.93-1.68h5.27Zm8.61,0c.04,.6,.06,1.21,.09,1.81,2.09,3.1,4.47,6.23,4.84,10.16h-2.56c0-.06,0-.13,.01-.19-.54-2.76-1.95-4.78-3.5-7.14-1.92-1.01-1.47-2.89-1.47-4.64h2.59Zm28.51,0v11.97h-4.31v-11.97h4.31Zm18.18,0v11.97h-4.3l.02-11.97h4.28Zm27.97,0c-.3,1.41,.13,3.13-.22,4.37-1.48,1.01-1.55,2.86-2.96,4.04-.22,1.44-1.45,2.18-1.71,3.56h-2.53c.62-3.22,2.71-6.1,4.64-8.68,.25-1.03,.06-2.22,.15-3.3h2.63Zm11.19,0c-.03,.63-.05,1.24-.1,1.81-.51,1.21-1.82,1.01-2.83,1.21-1.72,.98-2.93,2.9-2.96,4.85,1.89,2-.05,2.97-1.4,4.1h-3.16c.58-1.1,1.36-2.08,2.41-2.89-1.01-1.31-.4-3.3,0-4.71,1.25-1.95,3.2-3.84,5.52-4.04-.02-.11-.03-.22-.04-.33h2.57Zm8.81,0c-2.38,4-4.86,8.03-7.54,11.97h-2.49c2.69-3.94,5.52-7.83,7.74-11.96h2.3Zm8.13,0c.09,.15,.16,.3,.2,.47,.84,3.16-1.11,5.72-3.37,7.54,.5,1.18,.65,2.61,.46,3.96h-3c.47-.7,.67-1.54,.39-2.62-2.49-3,2.39-3.64,2.96-6.06,.57-1.34-.06-2.34-.81-3.29h3.17Zm5.33,0c.72,1.23,1.08,2.62,.52,4.24-.61,1.68-2.73,3.27-1.75,5.12,.07,.92-.04,1.8-.31,2.62h-2.71c.42-.73,.65-1.56,.6-2.49-1.55-2.9,2.15-4.65,1.89-7.54-.3-.72-.59-1.36-1.08-1.94h2.85Z"/><path class="cls-4" d="M31.32,133.02c.98,.64,2.03,1.1,3.22,1.2,.02-.38-.01-.8,0-1.2h2.62c-.1,.54-.09,1.08,.22,1.61,.64,1.65-.98,2.69-1.75,3.91-.07,.16-.13,.32-.18,.48h-2.48c.11-.82,.38-1.58,.91-2.23-.54,.13-.74-.4-1.21-.4-1.29,.4-2.08,1.5-2.66,2.64h-2.65c.02-.08,.04-.14,.06-.21,.71-1.28,1.08-2.79,2.56-3.64-.71-.81-1.53-1.49-2.36-2.14h3.72Zm9.99,0c.87,.98,1,2.27,1.58,3.35,.59,.87,1.16,1.75,1.72,2.63h-2.6c-1.11-1.79-2.04-3.65-2.49-5.73,.09-.08,.17-.17,.26-.25h1.53Zm5.54,0c-.68,.63-1.44,1.26-2.34,.66-.13-.22-.26-.44-.42-.66h2.76Zm5.16,0c.67,1.52,.96,3.21,.71,4.97,1.08-.07,1.95,.38,2.75,1.02h-5.27c-.31-1.75,.51-4.38-.84-5.73-.04-.09-.08-.18-.12-.26h2.78Zm8.54,0c.7,.33,1.44,.64,2,1.2,1.15,1.33,1.41,3.03,1.52,4.79h-2.59c0-1.1-.17-2.16-1.23-2.9-.24-.77-1.41-1.04-2.15-1.48-.74-.36-1.15-.94-1.42-1.6h3.86Zm32.03,0v5.99h-4.31v-5.99h4.31Zm18.18,0v5.99h-4.28v-5.99h4.28Zm33.13,0c-.06,.34-.14,.65-.27,.93-.27,1.85-2.32,2.26-3.64,2.96v.27c-.75,.46-1.1,1.1-1.26,1.82h-2.63c.03-.4,.11-.79,.25-1.15,.47-2.36,2.83-3.37,4.71-4.31,.04-.18,.07-.35,.1-.53h2.73Zm13.46,0c-.66,.58-1.24,1.24-1.75,2.01-1.72,.94-2.32-1.65-3.91-1.48-1.57,1.31-1.7,3.45-1.78,5.46h-2.57c-.23-2.18,.37-4.23,1.46-5.99h8.54Zm8.52,0c-.47,.7-.67,1.5-.3,2.55,.84-.37,1.95-.17,2.69-.81,.7-.57,1.4-1.14,2.1-1.74h3.82c-.26,.21-.53,.44-.81,.66l-3.23,2.69c.72,.81,1.48,1.67,2.03,2.63h-2.85c-.22-.25-.48-.5-.8-.74-.84-.27-1.41-.64-2.29-.13,.18,.3,.43,.58,.61,.88h-3.17c-.27-.34-.56-.68-.81-1.02-.5-1.65,.37-3.36-.2-4.98h3.2Zm-9.45,5.99c.7-1.3,1.33-2.62,1.88-3.98,.4-.4,.77-1.45,1.62-1.08,1.72,1.08-.37,2.36-.27,3.5-.31,.52-.62,1.04-.92,1.56h-2.3Z"/><path class="cls-4" d="M24.98,127.04c.47,.57,.98,1.13,1.47,1.66,1.58,1.36,3.09,3.15,4.86,4.32h-3.72c-1.27-1-2.57-1.97-3.57-3.38-.67,.3-.3-.5-.67-.67-.54-.57-1.04-1.22-1.46-1.93h3.08Zm8.33,0c.61,1.05,1.42,1.95,2.44,2.47,.81-.81,1.75-1.31,2.83-1.48-.18-.33-.36-.66-.54-.99h2.27c.1,.2,.19,.39,.29,.59h.4c.07-.18,.13-.38,.2-.59h2.84c-.02,.11-.04,.21-.07,.32-.2,.57-.84,1.11-.4,1.75,.74,.3,1.41,1.11,1.89,1.75,1.03-1.14,1.63-2.45,2.11-3.82h2.68c-.03,.14-.06,.29-.07,.45,.2-.13,.4-.29,.6-.45h6.46c1.06,1.3,1.52,3.11,1.69,4.76,.39,.58,.99,.92,1.64,1.22h-3.86c-.77-1.92-.32-4.6-2.89-5.13-1.18,.71-2.59,1.68-2.96,3.1,.46,.64,.86,1.32,1.18,2.03h-2.78c-.79-1.57-1.53-.79-2.38,0h-2.76c-1.44-2.06-3.97-3.77-6.32-2.03-.15,.65-.49,1.34-.62,2.04h-2.62c0-.34,.04-.67,.14-.96-1.79-1.3-3.44-3.01-4.28-5.03h2.92Zm59.27,0v5.99h-4.31v-5.99h4.31Zm18.18,0v5.99h-4.27v-5.98h4.27Zm36.81,0c.91,.5,1.69,1.28,2.25,1.66-.01-.61-.21-1.15-.45-1.66h2.72c.65,1.88,1.16,3.83,2.59,5.03,.61-.91,1.92-1.28,2.02-2.29-.45-.87-.66-1.81-.67-2.74h2.49c.01,.36,.07,.73,.21,1.13,.37,.2,.03,.94,.67,.81,.31-.65,.64-1.29,.98-1.94h2.31c-.4,.77-.78,1.55-1.14,2.34,1.11,.1,2.15,.74,2.83,1.62,1.5-.97,2.48-2.38,3.07-3.96h2.63l-.31,1.4c-.4,2.05-2.82,3.05-3.87,4.6h-3.2c-.08-.24-.19-.46-.34-.69-.88-.5-1.92-.61-2.96-.67-.73,.37-1.41,.83-2.02,1.36h-8.54c.15-.24,.3-.47,.46-.69-.3-1.48-1.92-2.63-3.23-3.1-2.08,.33-1.88,2.24-2.15,3.79h-2.73c.44-2.31,.88-4.85,3.34-5.99h3.07Zm31.25,0c-.87,2.36-2.52,4.19-4.63,5.98h-3.82c2.14-1.8,4.22-3.76,5.69-5.99h2.76Zm-139.05,5.99c.3-.3,.59-.57,1.09-.42,.16,.13,.31,.27,.44,.41h-1.53Z"/><path class="cls-4" d="M19.17,115.06c-.13,.15-.26,.3-.39,.44-.84,2.66,2.32,4.68,4.18,6.2-.2,2.12,.79,3.82,2.03,5.33h-3.08c-.72-1.22-1.19-2.63-1.23-4.12-2.46-1.95-5.22-4.44-4.44-7.81,.02-.01,.04-.03,.05-.04h2.89Zm6.59,0c-.25,.96-.64,2-.11,2.86,1.21,2.79,4.18,3.57,6.33,5.25,.21,1.3,.65,2.68,1.33,3.86h-2.92c-.31-.75-.51-1.55-.57-2.38-2.12-.88-4.24-2.36-5.66-4.44-1.03-1.4-1.74-3.6-1.12-5.15h2.71Zm8.54,0c1.67,4.13,4.03,7.97,6.01,11.97h-2.27c-2.12-3.94-4.22-7.87-5.91-11.98h2.16Zm8.28,0c-.17,1.63-.62,3.29-.76,4.75,1.65,2.01,2.78,4.43,2.22,7.23h-2.84c.35-1.15,.59-2.56-.06-3.59-3.05-2.36-1.44-5.29-1.07-8.38h2.51Zm9.35,0c.78,2.34,.63,5.11-.01,7.44,.03,1.75-1.32,2.95-1.68,4.53h-2.68c.21-.6,.4-1.21,.58-1.83,1.41-2.96,2.42-6.73,1.21-10.1v-.03h2.57Zm40.66,0v11.97h-4.31v-11.97h4.31Zm18.18,0v11.97h-4.26l.02-11.97h4.24Zm41.47,0c-.52,.3-1.1,.58-1.33,1.11-1.11,2.46-.67,5.72,0,8.22,.51,.8,.86,1.71,1.18,2.64h-2.72c-.44-.92-1.05-1.78-1.03-2.91-.91-2.77-1.03-6.37,.37-9.05h3.53Zm7.81,0c-.07,1.46,.64,3.24,.68,4.61,.74,2.77-2.31,4.59-2.23,7.35h-2.49c-.03-2.13,.93-4.28,2.29-5.87-.3-2.01-.71-3.99-.79-6.1h2.53Zm8.47,0c-1.41,4.22-3.8,8.01-5.84,11.97h-2.31c2.06-3.89,4.5-7.75,5.92-11.97h2.23Zm9.46,0c-.25,.41-.64,.75-1.22,.98,.34,.54,.51,1.11,.54,1.75,0,3.84-3.84,6.87-7,8.22l-.23,1.03h-2.63c.27-.72,.45-1.48,.57-2.24,1.04-1.41,2.79-1.75,4.18-2.69,1.14-1.58,3.37-3.2,2.15-5.25-.23-.61-.2-1.24,.01-1.79h3.63Zm5.23,0c.02,.15,.07,.29,.15,.44,.74,1.04,.88,2.69,.4,3.91-1.14,1.75-2.46,3.64-4.31,4.85-.1,1.01-.31,1.93-.62,2.78h-2.76c.31-.47,.58-.95,.83-1.44-1.11-3.74,3.7-3.91,4.44-6.87,.71-1.08-.03-2.22-.94-2.96-.07-.25-.1-.48-.08-.71h2.89Zm-132.45,11.97c1.21-.98,2.35-2.32,4.11-1.57,1,.29,1.76,.85,2.35,1.57h-6.46Zm93.75,0c.06-.03,.13-.06,.19-.09,1.03-.6,2.01-.38,2.87,.09h-3.07Z"/><path class="cls-4" d="M18.25,109.08c.1,1.35,.59,2.66,1.33,3.73,.6,.79,.14,1.59-.42,2.25h-2.89c1.79-1.28-.13-2.94-.46-4.27-.05-.57-.07-1.15-.06-1.71h2.5Zm6.2,0c-.25,1.15-.2,2.37,.25,3.46,1.41,.54,1.32,1.49,1.05,2.53h-2.71c.05-.13,.11-.25,.18-.37-.44-.4-.84-.94-1.35-1.21-.21-1.51-.25-3-.02-4.4h2.6Zm7.69,0c.15,.46,.34,.91,.64,1.31,.38,1.62,.9,3.17,1.51,4.69h-2.16c-.8-1.96-1.51-3.95-2.09-5.99h2.1Zm7.15,0c.47,.55,1.74,.51,2.24,1.31,1.08,1.34,1.21,2.99,1.03,4.68h-2.51c.08-.7,.1-1.41,0-2.12-.44-1.68-2.76-1.08-3.77-2.56-.1-.45-.09-.88,0-1.31h3.01Zm11.91,0c0,.55-.08,1.12-.24,1.71-.17,.54-.77,1.08-.54,1.62,.68,.77,1.17,1.68,1.5,2.66h-2.58c-.25-1.27-1.72-.81-2.28-1.85-.37-.88,.03-1.75,.81-2.29,.21-.57,.45-1.2,.58-1.85h2.76Zm41.37,0v5.99h-4.31v-5.99h4.31Zm18.18,0v5.99h-4.24v-5.99h4.24Zm40.85,0c-.13,.49-.16,1.02-.04,1.57,.91,.64,.27,1.92,1.48,2.42,.57,1.15-.07,1.57-.82,1.99h-3.53c.3-.58,.67-1.11,1.12-1.59-.78-1.21-.94-2.89-.75-4.4h2.54Zm11.76,0c.3,.75,.57,1.52,.58,2.38-.57,1.18-1.75,1.38-2.83,1.62-.77,.48-1.05,1.18-1.09,1.99h-2.53c-.01-.26-.02-.51-.02-.77-.1-2.12,1.99-3.33,3.64-4.04-.15-.38-.31-.77-.46-1.17h2.71Zm7.06,0c-.28,1.21-.61,2.4-1.22,3.46-.19,.86-.43,1.7-.7,2.52h-2.23c.19-.57,.36-1.14,.51-1.72,.82-1.28,1.06-2.82,1.51-4.27h2.14Zm7.51,0c.1,.26,.2,.52,.3,.77-.08,1.58,.58,3.83-.26,5.22h-3.63c.22-.58,.65-1.05,1.2-1.31,.03-1.35,.57-2.79,0-4.04-.16-.17-.29-.39-.4-.63h2.8Zm6.32,0c.12,1.13,.08,2.3-.09,3.46-.4,.78-1.1,1.67-.96,2.53h-2.89c.08-1.21,1.28-2.14,1.56-3.34,.14-.95,.06-1.82-.12-2.65h2.5Z"/><path class="cls-4" d="M20.87,103.09c-1.24,.87-2.21,2.07-2.36,3.66-.23,.76-.31,1.55-.26,2.33h-2.5c.04-2.22,.55-4.32,1.72-5.99h3.39Zm6.94,0c0,.75,0,1.5-.15,2.17-.34,.77-1.14,1.01-1.89,1.08-.65,.77-1.11,1.73-1.33,2.73h-2.6c.32-1.91,1.14-3.64,2.71-5.02,.77,.19,.76-.41,.69-.96h2.55Zm11.74,0c.08,.09,.16,.19,.24,.29,.57,1.72,.17,3.67-.67,5.12-.01,.25,.06,.44,.18,.58h-3.01c.17-.86,.61-1.68,.95-2.47,1.25-2.5-.56-2.85-2.15-3.52h4.47Zm8.69,0s.02,.01,.03,.02c1.69,1.66,2.96,3.63,2.94,5.96h-2.76c.13-.69,.14-1.4-.18-2.06-.74-2.32-3.17-1.92-4.71-3.1,.01-.27,.02-.55,.03-.82h4.65Zm44.34,0v5.99h-4.31v-5.99h4.31Zm18.18,0v5.99h-4.23v-5.99h4.23Zm45.77,0c-.02,.63,.03,1.28,.16,1.9-.44,1.04-1.52,1.18-2.56,1.08-1.05,.66-2.16,1.7-2.52,3h-2.54c.05-.39,.12-.76,.21-1.12,.84-1.78,2.46-4.31,4.71-4.44,.02-.14,.03-.28,.04-.42h2.49Zm10.23,0c-.67,1.68-2.94,1.5-4.15,2.71-.1,1.23,.36,2.24,.76,3.27h-2.71c-.52-1.37-.92-2.86-.34-4.35,.45-.57,.97-1.18,1.56-1.64h4.87Zm14.78,0c1.61,1.56,2.48,3.69,2.72,5.99h-2.5c-.21-.99-.55-1.92-.83-2.87-.98-2.15-3.33-3.1-5.52-2.83-1.38-.07-.17,1.18-.54,1.89,1.7,.58,2.46,2.26,3.07,3.82h-2.8c-.37-.8-.62-1.76-1.76-1.53-1.45-.95-1.19-2.78-1.21-4.46h9.36Zm-151.5,5.98c-.29-1.03-.54-2.08-.76-3.14,.4-.37,.71-.88,1.35-.67,1.07,1.04,1.11,2.51,1.52,3.81h-2.1Zm138.25,0c.27-.88,.61-1.72,1.19-2.47,.64-.2,.94,.3,1.35,.67-.13,.59-.26,1.2-.39,1.8h-2.14Z"/><path class="cls-4" d="M16.46,91.12c1.24,1.81,2.78,3.49,3.8,5.39,1.25,.91,1.48,4.21,3.77,2.69-.61-2.73-3.1-4.65-3.23-7.54-.12-.18-.25-.37-.37-.55h2.95c.2,2.38,1.74,4.81,3.75,6.2,.47-.34,.98-.54,.94-1.21-.3-1.66-.58-3.32-.84-4.99h2.1c.27,1.81,.57,3.61,.89,5.39,.88,.1,1.78,.24,2.42,.94,.54-.34,.54-.91,.81-1.35,1.35-2.44-1.72-3.01-1.88-4.99h2.78c.32,1.1,2.18,1.58,1.79,3.11,.24-.1,.37-.37,.67-.27,.43-.94,.83-1.88,1.18-2.83h2.67c-.45,1.48-.77,2.95-1.57,3.91,1.18-.3,2.42-.03,3.5,.27,2.93,1.21,3.16,4.24,3.5,6.87,.76,.17,1.46,.46,2.12,.92h-4.65c.01-1.61-.22-3.31-.97-4.69-.74-.71-1.72-.91-2.83-.81-1.58,.34-2.69,2.05-2.96,3.5,1.09,.18,1.99,1.1,2.73,2h-4.47c-.94-.38-1.79-.88-1.89-2-1.31-.71-2.19-2.53-4.04-2.02-1.37,.89-1.35,2.46-1.34,4.02h-2.55c-.04-.35-.1-.67-.01-.79-.57-.4-1.31-.34-2.02-.4-.8,.29-1.62,.68-2.35,1.19h-3.39c.63-.9,1.46-1.67,2.51-2.27v-.54c-1.45-3.27-4.61-6.02-6.43-9.17h2.9Zm76.12,0v11.97h-4.31v-11.97h4.31Zm18.18,0v11.97h-4.22l.02-11.97h4.21Zm50.93,0c.45,1.71,.71,3.53,2.26,4.45-.44-1.72,1.75-2.02,1.89-3.5-.24-.32-.48-.63-.73-.94h2.98c.21,.46,.36,.96,.44,1.48-.67,.91-.88,2.12-2.02,2.69-.1,1.35,.03,2.59,.94,3.5,.64-.71,1.55-.84,2.42-.94,.41-2.23,.77-4.47,1.09-6.74h2.16c-.33,2.25-.7,4.5-1.09,6.74l.27,.4c.34,.2,.88,.71,1.21,.13,1.52-1.65,3.2-3.67,3.1-5.93,.36-.44,.7-.89,1.03-1.35h3c-.43,.58-.85,1.16-1.2,1.75-.13,2.96-2.79,4.88-3.37,7.68,.61-.1,1.08,.17,1.62,.27,2.36-2.83,3.84-6.06,6.2-8.89,.15-.26,.32-.53,.49-.81h2.88c-.89,1.99-2.44,3.81-3.78,5.53l-3.5,5.25c.58,.35,1.09,.74,1.55,1.19h-9.36c0-.46-.04-.91-.13-1.32-.94-2.79-3.84-.57-5.12,.67-.03,.24-.09,.46-.16,.65h-4.87c.43-.32,.89-.57,1.4-.65-.17-1.18-1.18-1.99-1.75-2.96-.88-.54-2.05-.67-3.1-.4-1.28,.89-1.85,2.41-1.91,4.02h-2.49c.25-2.35,.57-4.77,2.92-6.17,1.18-.64,2.86-.94,4.18-.4-.88-1.48-1.65-3-1.89-4.71-.02-.24-.06-.47-.12-.68h2.57Zm2.94,8.09l-.27-.81h-.4l.67,.81h0Zm-129.29-1.21l.81-.94h-.4l-.4,.94h0Zm129.97,2.15l-.4-.54,.27,.4,.13,.13h0Z"/><path class="cls-4" d="M11.68,79.15c.07,.25,.11,.52,.09,.8,.47,1.62,2.12,1.99,3.23,3.1,.44,.98-.17,1.89-.54,2.69,.03,2.06,.89,3.77,1.99,5.38h-2.9c-1.14-1.97-1.76-4.09-1.11-6.59l.13-.13c-1.78-1.08-3.03-3.06-3.64-4.98-.09-.09-.17-.17-.25-.26h2.98Zm12.17,0c-.3,.4-.8,.74-1.04,1.07-.51-.3-1.25,.03-1.75-.27-.91,.37-1.89,.77-2.42,1.75-.27,3.8,2.76,6.26,4.71,9.16,0,.09,0,.17,.02,.26h-2.95c-2.03-2.87-4.7-5.48-4.47-9.28,.29-1,.9-1.93,1.68-2.68h6.22Zm4.08,0c.34,4.04,.8,8.03,1.4,11.97h-2.1c-.62-3.94-1.11-7.92-1.44-11.97h2.14Zm10.24,0c.4,.36,.83,.73,.94,1.2,.54,4.04-1.99,7.1-4.71,9.97-.11,.31-.11,.57-.04,.8h-2.78s0-.08,0-.13c.77-3.4,4.68-5.49,5.12-9.02-.64-2.15-3.27-1.14-4.58-2.56-.01-.08-.02-.17-.03-.25h6.09Zm9,0c.78,1.44,.32,3.44-.24,4.84-.74,1.21-1.99,2.32-3.23,2.83-1.8,.87-2.49,2.59-3.01,4.31h-2.67c.36-.98,.68-1.96,.97-2.96,1.14-2.49,3.74-3.43,5.39-5.25,.76-1.28,.36-2.59-.3-3.76h3.1Zm45.41,0v11.97h-4.31v-11.97h4.31Zm18.18,0v11.97h-4.21l.02-11.97h4.19Zm46.03,0c-.34,.89-.93,1.71-1.32,2.55-1.48,4.65,4.71,3.64,5.52,7.54,.32,.57,.52,1.22,.7,1.89h-2.57c-.9-3.5-5.84-3.07-6.35-7-.75-1.82,.04-3.72,1.21-4.98h2.8Zm11.25,0c.04,.45,.07,.9,.09,1.34-.94,2.02-3.84,.4-4.58,2.56-.03,3.18,3.28,5.24,4.55,8.07h-2.98c-1.72-2.18-3.59-4.32-4.12-7-.71-1.85,.57-3.47,1.62-4.44-.19-.11-.14-.33-.13-.53h5.56Zm6.38,0c-.28,4.05-.73,8.03-1.3,11.97h-2.16c.56-3.94,1-7.93,1.31-11.97h2.15Zm6.08,0c1.27,.63,2.49,1.52,3.25,2.82,1.47,3.7-1.05,6.41-3.11,9.16h-3c1.4-1.93,2.56-3.94,3.82-5.93-.13-1.08,.4-2.46-.81-3.1-1.08-1.92-3.74,.54-4.44-1.62-.1-.46-.08-.91,.04-1.34h4.26Zm11.61,0c-.07,.27-.16,.53-.29,.8-1.25,1.99-1.95,4.51-4.31,5.66,.78,1.98,.5,3.81-.26,5.52h-2.88c.94-1.56,1.92-3.38,.72-5.12-.24-.71-.24-1.68,.54-2.15,2.31-.63,2.61-2.82,3.37-4.71h3.11Z"/><path class="cls-4" d="M11.63,73.16c-.31,.46-.59,.99-.93,1.53-1.24,1.73,.54,2.92,.98,4.45h-2.98c-.82-.94-1.23-2.12-.83-3.38,.26-.86,.55-1.76,.92-2.61h2.84Zm8.97,0c1.11,1.36,2.61,3.01,3.3,4.76,.33,.48,.22,.88-.04,1.22h-6.22c.87-.83,1.95-1.46,3.03-1.76-.81-1.54-2.83-2.62-3.75-4.22h3.68Zm6.93,0c.1,2.01,.24,4,.41,5.98h-2.14c-.16-1.97-.28-3.96-.35-5.98h2.08Zm7.38,0c.08,1.52,0,3.07-.24,4.49h1.35c.34-.64-.1-1.58,.4-2.15,.52-.64,.91-1.55,1.39-2.34h2.75c-.45,.97-1.1,1.83-1.99,2.74-.34,.37,.13,1.11-.54,1.35-1.12,.78-.53,1.31,.13,1.9h-6.09c-.23-1.98,.33-4,.31-5.99h2.53Zm12.98,0c-.18,1.32-.81,2.54-2.17,3.28,0,.98,.5,1.41,1.08,2.15,.15,.17,.28,.35,.38,.54h-3.1c-.24-.42-.52-.84-.78-1.22-.54-1.68,.2-3.13,1.62-4.17,.02-.2,.05-.39,.07-.58h2.91Zm44.69,0v5.99h-4.31v-4.32l-35.42-.13v-1.53h39.73Zm55.1,0v1.67h-36.92v4.32h-4.19v-5.99h41.1Zm7.24,0c0,1.48,.7,2.87,2.04,3.82,.22,.79,.1,1.5-.16,2.17h-2.8c.05-.05,.09-.1,.14-.15,1.28-1.45-1.14-2.15-1.62-3.1-.25-.95-.31-1.86-.24-2.74h2.65Zm6.15,0c1.43,1.47,3.05,3.26,2.89,5.57,.2,.91,.91-.03,1.48,.27-.1-1.78-.37-3.5-.27-5.39,.03-.15,.06-.3,.1-.45h2.61c-.33,1.93-.02,4,.16,5.99h-5.56c0-.05,0-.1,0-.15-1.28-.67-.71-2.49-2.15-3.1-.37-.57-.3-1.45-1.08-1.75-.05-.37,0-.71,.19-.99h1.63Zm13.63,0c-.05,2.02-.14,4.01-.28,5.99h-2.15c.15-1.99,.27-3.98,.36-5.99h2.06Zm8.91,0c-.18,2.47-3.43,3.8-4.04,5.57,.31,.13,.62,.26,.93,.42h-4.26c.19-.74,.64-1.44,1.18-2.03,1.08-1.35,1.85-2.49,3.23-3.37,.09-.19,.17-.39,.23-.59h2.73Zm6.92,0c1.15,1.83,2.13,3.9,1.58,5.99h-3.11c.21-.54,.46-1.05,.8-1.49-.34-1.38-.88-2.69-1.62-3.91-.95,.05-1.47-.19-1.76-.59h4.1Z"/><path class="cls-4" d="M15.11,67.17c-.16,.15-.33,.28-.51,.38-.74,1.21-.17,2.9-.81,4.04-1.08,.25-1.67,.83-2.17,1.56h-2.84c.59-1.33,1.4-2.55,2.71-3.31-.12-.93,0-1.83,.34-2.67h3.27Zm6.07,0c.06,.12,.11,.25,.16,.38,.59,.07,1.11-.06,1.57-.37h2.57c-.04,.47-.09,.93-.24,1.32-1.01,2.19-3.77,1.38-5.79,1.75-.1,.47-.67,.94-.27,1.48,.17,.57,.64,1.35,1.35,1.35l.07,.08h-3.68c-.35-.6-.53-1.29-.43-2.1-.17-1.52,.64-2.53,1.89-3.23,.41-.25,1.46,.03,1.38-.65h1.42Zm15.68,0c-1.07,.21-2.04,.68-2.73,1.59,.43,1.29,.69,2.82,.78,4.39h-2.53c0-.8-.11-1.59-.41-2.37-1.3-.74-1.6-2.25-1.87-3.62h6.75Zm9.1,0c1.07,1.07,1.59,2.7,1.91,4.15,.08,.61,.1,1.23,.02,1.84h-2.91c.13-1.14,.17-2.19-.2-3.32-.93-1.6-2.73-1.65-4.01-2.67h5.19Zm11.07,0v3.3l35.56,.05v2.64H52.85v-5.99h4.18Zm90.7,0l-.05,5.99h-41.1v-2.78h37.04v-3.21h4.1Zm17.87,0c.75,.52,1.46,.98,2.14,1.19,.1-.3,.57-.64,.27-.94,.05-.09,.09-.17,.13-.25h2.28c-.21,.27-.36,.59-.38,1.06-.84,1.04,.17,3.43-1.89,3.91-.11,.34-.19,.68-.25,1.03h-2.61c.23-1.02,.53-2.07,.71-2.92-.67-1.18-2.15-1.58-3.5-1.75-2.93-.67-5.56,.84-7.27,2.96-.2,.57-.29,1.14-.29,1.71h-2.65c.09-1.19,.43-2.32,.91-3.46,.73-1.14,1.9-1.98,3.15-2.54h9.26Zm11.51,0c.1,.44,.15,.88,.06,1.32,.51,.3,1.18,.57,1.75,.27,.06-.58,.29-1.09,.57-1.59h3.14c-.82,.42-2.17,.63-2.23,1.72,.47-.1,.81,.17,1.21,.27,1.58,.61,2.09,1.99,2.02,3.64,0,.12,0,.24,0,.36h-2.73c.16-.6,.12-1.2-.36-1.71-1.52,0-3.06,.07-4.44-.27-1.48-.85-1.4-2.56-1.69-4.02h2.71Zm10.42,0c.63,.77,1.09,1.66,1.22,2.67,.03,1.01-.2,1.78,.94,2.02,.28,.41,.57,.85,.86,1.29h-4.1c-.75-1.01,.01-3.1-.93-4.26-.84-.46-1.31-1.52-2.3-1.73h4.31Zm-162.08,5.99c-.03-.97-.06-1.94-.07-2.91l.67-.67c.64-.2,.94,.3,1.35,.67,.04,.97,.08,1.95,.13,2.91h-2.08Zm12.37,0c.58-.96,1.3-1.76,2.51-1.7,.2,.3,.74,.47,.54,.94-.09,.26-.19,.51-.3,.76h-2.75Zm121.63,0c.09-.13,.2-.25,.35-.35,.4-.03,.74,.07,1.08,.13,.07,.07,.14,.14,.21,.22h-1.63Zm13.21,0c.02-.52,.05-1.04,.06-1.57l.67-.67c.64-.2,.94,.3,1.35,.67,0,.52-.01,1.05-.03,1.57h-2.06Z"/><path class="cls-4" d="M18.99,61.19c.29,2.18,1.34,4.04,2.18,5.98h-1.42s-.02-.1-.03-.16c-.47-.34-.94-.71-1.48-.94-1.4-.94-2.22,.29-3.13,1.1h-3.27c.47-1.2,1.36-2.25,2.49-2.99,.71-.71,1.68-.74,2.56-1.08,0-.63-.07-1.27-.19-1.92h2.29Zm5.89,0c.16,.29,.32,.57,.5,.84l1.89-.27c.08-.19,.15-.38,.23-.57h2.02c-.12,.71-.02,1.37,.57,1.92,.68-.35,1.26-1.2,1.69-1.92h2.65c-.34,1.4-.83,2.72-2.45,3.4-.27,1.01-.13,1.72,.4,2.56,2.78-2.39,6.7-3.38,9.21-5.96h3.14c-.2,.38-.4,.75-.63,1.11l-3.64,2.69c1.21,.3,3.3,.37,4.58,1.48,.34,.19,.65,.42,.92,.69h-5.19s-.02-.01-.03-.02c-1.26-.14-2.64-.23-3.87,.02h-6.75c-.09-.44-.17-.86-.29-1.23-.44-.94-1.65-1.35-2.83-1.35-1.33,.28-1.4,1.46-1.51,2.58h-2.57s.03-.01,.04-.02c-.37-1.55,1.31-2.96,.13-4.18-.75-.33-1.16-1.03-1.48-1.79h3.27Zm32.15,0v5.99h-4.18v-5.99h4.18Zm90.75,0l-.05,5.99h-4.1v-5.99h4.15Zm9.73,0c1.12,1.79,2.71,3.01,4.83,3.94,1.12,.47,2.21,1.32,3.25,2.04h-9.26c1.11-.5,2.3-.77,3.31-.83l-.13-.13c-2.13-1.27-3.89-2.93-5.06-5.02h3.06Zm10.49,0c.22,1.33,.53,2.62,2.02,3.27,.07-.07,.13-.17,.27-.13,.2-.34,.54-.77,.4-1.08-.24-.68-.48-1.37-.72-2.05h2.14c.24,.69,.48,1.37,.73,2.05,.64,.03,1.35-.1,1.89,.13,.3-.74,.68-1.46,1.03-2.19h3.29c-.35,.94-.8,1.84-1.21,2.73-1.84,.66-1.05,1.91-.73,3.26h-2.71c-.02-.1-.04-.2-.06-.3-.71-.74-1.72-1.21-2.83-.81-.38,.46-.8,.72-1.1,1.1h-2.28c1.01-2.2-2.65-2.12-2.42-4.33,.06-.62,0-1.16-.15-1.65h2.45Zm15.67,0c-.22,1.06-.47,2.13-.46,3.13,1.49,.52,3.18,1.49,4.3,2.85h-4.31c-.16-.03-.34-.04-.53-.03l-.05,.03h-3.14c.38-.67,.85-1.31,1.04-2.05,.13-1.3,.79-2.69,.47-3.94h2.68Z"/><path class="cls-4" d="M19.41,55.2c-.38,1.11-.96,2.25-.77,3.33,0,.54,1.04,.98,.27,1.48,0,.4,.03,.79,.08,1.17h-2.29c-.36-2.06-1.02-4.18-.1-5.99h2.8Zm4.1,0c-.16,2.07,.41,4.2,1.36,5.98h-3.27c-.24-.58-.43-1.19-.68-1.71,.39-1.26-.16-2.78-.02-4.27h2.6Zm8.1,0c-.28,.8-.57,1.59-.85,2.39-.21,1.12-1.04,2.42-1.25,3.61h-2.02c.77-1.96,1.42-3.97,2.05-5.99h2.08Zm8.08,0c-.52,.44-1.07,.8-1.66,1.04-2.94,.66-3.11,2.89-3.61,4.94h-2.65s.04-.06,.06-.1c-.27-2.83,1.38-4.48,3.36-5.89h4.5Zm109.25,0c-.07,3.54,5.85,1.4,7.61,4,.27,.73,.59,1.39,.96,1.98h-3.06c-.16-.29-.32-.59-.46-.9-2.26,.34-4.31-.61-6.2-1.62l-.02,2.52h-4.15v-3.6H57.03v3.6h-4.18v-4.14c-1.78,1.45-4.14,1.99-6.46,1.75-.78,.63-1.21,1.52-1.66,2.39h-3.14c.08-.08,.15-.16,.22-.24,1.38-1.08,1.18-3.43,3.1-4.04,1.48-1.01,3.94-.03,5.12-1.48,.23-.05,.39-.13,.51-.23h98.41Zm14.13,0c1.05,.77,2.07,1.61,3.18,2.25,1.37,.83,1.52,2.31,1.76,3.73h-2.45c-.85-2.75-4.63-3.68-6.49-5.99h4Zm7.06,0c.65,2,1.3,4,1.99,5.99h-2.14c-.68-1.99-1.33-3.99-2-5.99h2.15Zm8.65,0c.08,.4,.21,.79,.4,1.17,.2,1.55-.4,3.13,0,4.44-.04,.12-.09,.25-.13,.37h-3.29c.61-1.3,1.1-2.64,.86-4.27-.3-.56-.45-1.13-.53-1.71h2.68Zm4.2,0c-.07,.15-.12,.32-.16,.5,1.6,1.55,1.28,3.52,.86,5.49h-2.68c-.02-.08-.04-.16-.07-.24,1.08-1.48,.34-3.03-.4-4.44-.06-.46-.04-.89,.03-1.31h2.42Z"/><path class="cls-4" d="M17.44,49.22c.34,.84,.86,1.63,1.21,2.45,1.39,1.08,1.2,2.3,.77,3.54h-2.8c.17-.34,.4-.67,.69-.98-.61-1.89-2.49-2.19-2.83-4.18,.03-.27,.05-.55,.05-.83h2.92Zm6.14,0c.25,1.15,.69,2.31,.46,3.66-.29,.75-.46,1.53-.52,2.32h-2.6c0-.05,.01-.11,.02-.17,.87-1.87,.38-3.87,.12-5.81h2.52Zm10.21,0c-.74,1.98-1.45,3.99-2.16,5.99h-2.08c.62-2.01,1.23-4.02,1.92-5.99h2.32Zm6.1,0c1.29,1.01,1.61,2.63,1.39,4.33-.46,.59-.99,1.17-1.57,1.66h-4.5c1.17-.84,2.46-1.6,3.51-2.47,.61-2.26-1.78-.88-2.42-2.42-.11-.38-.09-.74,0-1.1h3.59Zm12.09,0c1.27,1.05,2.54,2.33,1.96,4.2h92.26c1.04-1.04,1.41-3.16,3.23-3.77-.07-.14-.14-.28-.21-.43h2.98c0,1.98-2.48,2.53-2.91,4.33-.23,.66-.33,1.21-.34,1.66H50.54c.54-.47,.1-1.4,.43-2.06,.47-2.22-1.95-2.32-2.69-3.92h3.69Zm111.4,0c.39,.59,.63,1.28,.6,2.18-.47,.88-1.45,1.38-2.29,1.35-.5,.27-.17,.91-.27,1.35,.57,.33,1.12,.72,1.66,1.11h-4c-.08-.1-.16-.2-.23-.31-.47-2.09,.57-3.77,2.02-4.85-.41-.25-.8-.53-1.17-.83h3.67Zm4.74,0c.71,1.98,1.37,3.98,2.02,5.98h-2.15c-.67-2-1.36-4.01-2.11-5.99h2.24Zm11.08,0c-.09,1.92-.8,4.04-.41,5.98h-2.68c-.24-1.98,.56-4.05,.48-5.98h2.61Zm6.41,0c0,.72-.03,1.46,.05,2.18-.31,1.87-2,2.26-2.66,3.81h-2.42c.38-2.1,2.16-3.74,2.4-5.98h2.63Z"/><path class="cls-4" d="M19.05,43.23c.15,.59,.3,1.17,.4,1.7-.64,.71-1.65,.77-2.15,1.48-.37,1.05-.21,1.96,.14,2.81h-2.92c.05-2.21-.41-4.46,2.1-5.5-.15-.15-.27-.31-.37-.48h2.81Zm12.26,0c-.24,.88-.59,1.71-1.35,2.37-1.68,1.01-4.14,.98-6.06,.54-.63,1.09-.55,2.08-.32,3.08h-2.52c-.25-1.87-.28-3.68,1.36-5.23,1.04-.13,1.99-.88,3.1-.4,.47,.13,1.35-.37,1.75,0,.37,.17,1.04,.3,1.35-.13,.03-.07,.05-.15,.07-.22h2.63Zm4.89,0c-.88,1.97-1.67,3.97-2.42,5.98h-2.32c.51-1.45,1.07-2.89,1.73-4.29,.24-.57,.47-1.14,.71-1.7h2.31Zm7.21,0c-.51,2.31-2.21,4.25-4.16,5.6,.07,.07,.13,.17,.27,.13,.13,.08,.25,.16,.36,.25h-3.59c.18-.74,.67-1.43,.95-2.13,1.87-.76,2.84-2.18,3.34-3.85h2.84Zm8.8,0c0,.12,0,.23-.02,.35-.07,1.72-.84,3.1-1.48,4.58,.37,.33,.82,.68,1.27,1.05h-3.69c-.06-.11-.1-.24-.14-.38-1.18-1.95,1.48-2.32,1.62-3.91,.18-.57,.18-1.15,.06-1.69h2.39Zm98.7,0c-.46,.78-.93,1.57-.68,2.64,.34,1.01,.84,2.09,1.89,2.69,.06,.23,.08,.45,.08,.65h-2.98c-.81-1.71-1.45-3.61-1.14-5.63,.07-.12,.15-.23,.23-.35h2.61Zm8.39,0c.07,.49,.11,.96,.09,1.43,.62,2.11,2.89,2.92,3.98,4.56h-3.67c-1.77-1.45-3.04-3.46-3.01-5.77-.02-.08-.06-.15-.1-.21h2.71Zm6.45,0c.87,1.96,1.64,3.96,2.37,5.99h-2.24c-.77-2.03-1.6-4.03-2.54-5.98h2.42Zm5.4,0c.12,.56,.26,1.13,.5,1.7,.54,.3,1.14,.03,1.62-.27,1.04,.74,2.69-.34,3.91,.4,1.76,1.1,2.1,2.56,2.03,4.15h-2.61c-.02-.59-.12-1.17-.36-1.73-1.62,.37-3.84,.51-5.39-.13-1.83-.75-2.11-2.47-2.31-4.13h2.62Zm13.17,0c-.09,.69-.32,1.32-.82,1.83,2,.83,2.11,2.42,2.1,4.15h-2.63c.04-.33,.04-.69,0-1.06-.2-1.11-1.58-1.11-2.29-1.89,.2-.88,.1-1.85,.67-2.56,.02-.16,.04-.32,.06-.49h2.91Z"/><path class="cls-4" d="M21.73,37.25c-.84,.06-1.72,.03-2.28,.81-1.21,1.46-.83,3.4-.4,5.18h-2.81c-.92-1.51-.27-3.75-.3-5.44,.13-.18,.26-.37,.4-.55h5.38Zm14.72,0c-.9,.42-1.78,.88-2.72,1.22-1.9,1.14-1.94,3.04-2.42,4.77h-2.63c.52-1.66,.35-3.18,1.41-4.63,.25-.55,.78-.94,1.22-1.35h5.14Zm7.29,0l.09,1.49c.77-.03,1.45-.4,2.15-.67,.32-.31,.66-.58,1.02-.81h12.12c-1.06,.49-2.14,.95-3.18,1.49-2.42,.17-5.08-1.04-7.27,.54l1.08,.54c1.03,.94,2.44,1.94,2.45,3.42h-2.39c-.13-.61-.4-1.18-.74-1.67-.81-.77-1.85-1.01-2.96-1.08-.98,.13-1.92,.71-2.56,1.35,0,.48-.05,.95-.15,1.4h-2.84c.56-1.86,.55-4.04,.56-5.99h2.61Zm90.88,0s-.01,0-.02,0c-1.22,.77-2.48,.53-3.64,0h3.66Zm10.06,0c.93,.19,1.91,.21,2.98,0h2.37c2.21,.62,3.84,2.7,6.25,2.83,.03-.77-.1-1.62,.13-2.29-.28-.18-.57-.37-.85-.55h12.54c.12,.92,1.02,1.67,1.65,2.3,.94,1.17,1.11,2.41,1.39,3.7h-2.62c-.04-.3-.07-.59-.11-.87-1.82-3.2-5.35-4.48-8.75-4.98-1.39,1.69-.64,3.81-.36,5.85h-2.71c-.27-.4-.87-.65-1.24-1-1.31-.84-3.03-.24-4.18,.54-.08,.15-.17,.31-.26,.46h-2.61c.8-1.14,2.18-2.25,3-2.62-1.21-.61-2.46-1.18-4.04-.94-3.13,1.21-5.84-.74-8.46-2.44h5.89Zm37.67,0c.69,.54,1.36,1.1,1.81,1.89-.02,1.24,.32,2.77,.14,4.1h-2.91c.18-1.62,.15-3.48-1.41-4.37-1.76,.35-2.74-.51-3.57-1.62h5.94Zm-148.46,5.98c.64-1.52,1.34-3.01,2.39-4.36,.27,.03,.61-.1,.81,.13,.57,.13,.57,.71,.54,1.21-.5,1-.98,2.01-1.43,3.02h-2.31Zm129.43,0c-.27-.56-.55-1.12-.84-1.67-.13-.61,.13-1.14,.67-1.35,.88-.3,1.31,.74,1.75,1.21,.29,.6,.57,1.2,.83,1.8h-2.42Z"/><path class="cls-4" d="M34.99,31.26c-.35,.4-.72,.78-1.13,1.14-.57,.91,.84,1.68,.54,2.83,1.45-.84,3.13-1.04,4.58-1.89,.44-.27,1.25,.07,1.35-.67-.47-.03-.64-.3-.94-.67,.1-.25,.19-.5,.3-.74h2.16c-.06,.11-.11,.22-.16,.34,.17-.1,.33-.22,.5-.34h4.57c-1.5,1.09-3.15,1.93-4.39,3.17l.27,.27c2.03-1.27,4.11-2.41,6.23-3.43h4.91c-3.5,1.39-6.87,3.08-10.06,5.18l.05,.8h-2.61c0-.09,0-.18,0-.26l-.67-.94c-1.47,.06-2.75,.6-4.01,1.2h-5.14c.62-.56,1.09-1.16,.53-2.28-.81-.74-1.04-1.75-2.15-2.02-3.7-2.12-5.05,2.36-7.14,4.18-.26,.08-.54,.11-.82,.13h-5.38c1.21-1.57,2.81-2.9,4.98-2.42,1.15-1.05,1.82-2.52,2.88-3.57h10.78Zm37.47,0c-.61,.55-.35,1.62-.76,2.36-.57,1.82-2.53,2.05-3.91,2.83-1.72-.07-2.93-1.25-4.44-1.75-1.29,1.12-2.75,1.87-4.23,2.56h-12.12c2.63-1.72,6.15-1.51,9.35-1.48,2.09-1.14,4.28-1.99,6.2-3.5,2.29-1.21,3.2,1.72,5.25,1.48,1.42-.17,1.64-1.35,1.81-2.49h2.85Zm57.61,0c.39,1.01,.44,2.36,1.03,3.16,2.22,2.12,3.7-1.65,6.2-.94,2.43,1.3,4.67,3.22,7.39,3.76h-5.89c-.59-.39-1.18-.76-1.77-1.07-.97-.43-1.6,.69-2.4,1.07h-3.66c-.57-.26-1.11-.6-1.62-.93-1.18-1.01-.98-2.73-1.75-3.77-.69-.28-1.42-.73-2.07-1.28h4.54Zm18.42,0c3.12,1.32,6.13,2.89,9,4.78l.27-.27-1.08-1.08c-1.84-.74-3.45-1.97-4.86-3.43h4.15c.8,.58,1.62,1.1,2.46,1.55-.26-.53-.54-1.04-.83-1.55h2.25l.87,1.41v.54c-.24,.47-.57,.77-.94,.94l.4,.4c1.95,.37,3.67,1.35,5.52,2.02,.1-.84,.27-1.65,.81-2.29-.96-.94-1.78-1.95-2.47-3.02h3.18c.43,.44,.87,.86,1.31,1.27,2.09-.81,5.35-1.99,7.27,0,1.65,1.52,2.49,4.85,5.52,3.91,.33,.28,.68,.54,1.02,.8h-5.94c-.79-1.05-1.44-2.35-2.49-3.09-1.99-.54-4.38,.17-5.52,1.89-.27,.43-.35,.83-.3,1.2h-12.54c-4.06-2.53-8.35-4.49-12.84-5.98h5.77Zm-.84,5.98c.18-.04,.36-.08,.54-.13,.66-.09,1.27-.03,1.83,.13h-2.37Z"/><path class="cls-4" d="M38.19,25.27c-.63,2.19-1.64,4.23-3.19,5.99h-10.78c.44-.43,.94-.79,1.57-1.01,2.09-.44,4.04,.2,5.79,.94,2.12-1.57,3.3-3.69,4.1-5.92h2.51Zm7.61,0c-1.53,1.83-2.88,3.8-3.95,5.98h-2.16c.9-2.14,2.11-4.12,3.52-5.98h2.59Zm6.08,0c-.89,1.06-1.61,2.44-2.52,3.36-.7,1.1-1.62,1.91-2.61,2.63h-4.57c.58-.44,1.14-.93,1.79-1.15,.91-.57,1.55-1.72,2.56-2.02,.85-.84,1.51-1.83,2.17-2.82h3.18Zm24.94,0s.01,.08,.02,.13c-.07,2.42-1.82,4.71-4.04,5.66-.13,.05-.23,.12-.32,.2h-2.85c.06-.4,.11-.79,.21-1.14,.51-1.99,2.83-.71,3.64-2.56,.64-.72,.76-1.5,.63-2.28h2.72Zm49.49,0c-.25,.48-.41,1.02-.45,1.61,.24,1.21,.88,2.39,2.02,3.1,1.32-.15,1.88,.45,2.21,1.28h-4.54c-.74-.63-1.36-1.4-1.7-2.23-.84-1.22-.58-2.51-.13-3.76h2.6Zm18.08,0c-1.53,.56-3.09,1.49-4.66,.13-.03-.04-.06-.09-.09-.13h4.75Zm5.99,0c1.51,2.41,3.47,4.42,5.62,5.98h-4.15c-1.47-1.53-2.71-3.31-3.76-5.05-.32-.43-.65-.73-.98-.93h3.28Zm5.46,0c.34,.36,.67,.72,1,1.07l3.03,4.92h-2.25c-1.26-2.18-2.79-4.14-4.48-5.98h2.69Zm8.35,0c.13,.66,.31,1.29,.6,1.88,.32,1.57,1.32,2.91,2.46,4.1h-3.18c-1.19-1.82-2-3.84-2.49-5.99h2.62Zm-115.32,5.99c4.83-2.33,9.9-4.06,15.18-5.32,.67-.24,1.72-.61,2.15,.4,.13,.54-.17,.91-.54,1.21-4.07,.99-8.06,2.17-11.89,3.7h-4.91Zm93.88,0c-2.52-.83-5.09-1.52-7.72-2.09l-1.08-.81c-.2-.64,.3-.94,.67-1.35,4.79,1.01,9.45,2.37,13.9,4.25h-5.77Z"/><path class="cls-4" d="M39.16,19.29c-.02,.06-.04,.12-.05,.19-.12,2-.4,3.96-.93,5.8h-2.51c.18-.49,.33-.99,.48-1.49,.08-1.48,.15-3.08,.56-4.5h2.45Zm12.6,0c-2.14,1.89-4.18,3.84-5.97,5.98h-2.59c1.63-2.14,3.53-4.12,5.57-5.99h2.99Zm35.46,0c-.51,.61-1.35,1.12-1.38,1.8-2.9,1.45-6.83,.03-10.24,.67,.46,1.14,1.04,2.25,1.2,3.51h-2.72c-.13-.83-.54-1.67-.9-2.43-1.25-1.01-2.9-1.41-4.44-1.21-2.96-.71-6.7-.24-8.48,2.56-1.45,1.08-3.47,.34-4.85-.4-1.6-.3-2.66,.44-3.54,1.49h-3.18c1.1-1.64,2.2-3.25,4.16-4.05,2.12-.71,3.77,.64,5.66,.94,.94-1.18,2.26-2.63,3.91-2.69-.01-.06-.03-.12-.04-.18h24.86Zm5.52,0c-.95,.47-1.96,.74-3.13,.32-.2-.07-.39-.19-.58-.32h3.72Zm22.71,0c.22,.36,.41,.75,.56,1.13,3.2-.1,6.57,.17,9.83,.27,2.76-.84,6.46-1.85,9.56-.67-.18-.18-.14-.47-.13-.73h3c-.18,.53-.39,1.05-.58,1.54,1.65,.07,2.96,1.52,3.91,2.69,1.01,.1,1.72-.64,2.56-.94,2.32-.67,4.24,.37,5.79,2.02,.13,.23,.27,.46,.41,.68h-3.28c-.88-.52-1.79-.33-2.71,0h-4.75c-2.26-3.23-7.03-2.9-10.42-2.3-1.25,.38-2.33,1.18-2.92,2.3h-2.6c.27-.74,.6-1.47,.8-2.16-1.18-.03-2.42,.1-3.5-.13-2.59-.57-5.52,1.31-7-1.08-1.04-4.14-3.6,.57-5.93-.94-1.11-.28-1.94-.89-2.59-1.67h9.98Zm34.29,0c2.13,1.93,4.18,3.99,6.08,5.99h-2.69c-1.95-2.12-4.11-4.07-6.35-5.99h2.96Zm13.24,0c.94,1.74,.81,3.97,1.19,5.99h-2.62c-.33-1.47-.52-3.01-.56-4.59-.45-.54-1-1.08-1.63-1.4h3.61Z"/><path class="cls-4" d="M47.32,13.3c-.5,.8-.85,1.7-1.21,2.54-1.25,1.82-3.47,2.29-5.52,2.02-.4,.62-1.2,.78-1.43,1.43h-2.45c.44-1.54,1.28-2.87,2.94-3.59,1.45-1.11,3.91,.64,4.58-1.48,.09-.31,.2-.61,.33-.92h2.76Zm11.43,0c-2.32,2.03-4.71,3.97-6.98,5.99h-2.99c1.65-1.53,3.4-2.98,5.16-4.39l.13-.4c.54-.21,1.07-.7,1.59-1.19h3.1Zm5.78,0c-.17,.14-.33,.26-.5,.38,.03,.71-.1,1.52,.13,2.15,2.49-.76,4.93-1.64,7.37-2.54h6.16c-4.29,1.46-8.53,3.04-12.85,4.43-.03,.3,.1,.71-.13,.94,2.53-.98,5.82-.57,8.22,.4,3.3,.44,7.27-.3,10.91,.13,.24-.37,1.04-.71,.94-1.35,.57-1.28,2.05-2.05,3.5-2.02,.91,1.01,2.32,.77,3.64,.81,1.33-.39,1.69-2.08,2.1-3.35h5.23l-1.41,1.06c-2.56-.27-2.02,2.66-3.23,3.91-.61,.32-1.22,.72-1.85,1.03h-3.72c-.5-.36-1.01-.77-1.57-.36-.06,.12-.14,.24-.24,.35h-24.86c-.4-1.6-1.36-2.94-1.17-4.79,.15-.37,.26-.77,.33-1.19h3Zm39.29,0c.65,.22,1.35,.33,1.96,.65l1.62,3.77c.94,.44,2.32,.3,3.37,.13,.61-.07,.91-.88,1.62-.67,1.37,.08,2.4,.99,3.08,2.1h-9.98c-.76-.9-1.28-2.04-1.72-3.18-1.66-.29-3.19-1.43-4.2-2.81h4.26Zm21.13,0c3.66,1.32,7.29,2.7,11,3.88l.13-2.15c-.65-.53-1.26-1.12-1.87-1.73h4.35c-.12,.69-.12,1.41,.08,2.14,.38,1.28,.08,2.6-.36,3.85h-3c0-.08,0-.15,0-.22-5.69-2.03-11.39-4.04-17.21-5.77h6.88Zm17.76,0c1.14,1.03,2.64,1.74,3.48,2.94,1.2,.96,2.39,1.98,3.56,3.04h-2.96c-1.75-1.5-3.54-2.99-5.31-4.52l-.27-.81c.32-.11,.55-.48,.86-.65h.65Zm12.15,0c.72,1.38,.94,3.01,2.5,3.48,1.41-.34,2.93-.07,4.04,.81,.73,.47,1.23,1.05,1.58,1.7h-3.61c-.6-.3-1.27-.39-2-.08-3.66-.03-3.59-4.1-5.79-5.9h3.28Z"/><path class="cls-4" d="M44.57,13.3c.69-1.62,1.93-3.19,3.57-3.93,5.42,.94,10.03-6.8,14.68-.94l1.08,2.02c.61-.67,1.62-1.41,2.02-2.29,1.31-.44,2.22-1.89,3.77-1.75,3.77,1.41,4.51-2.76,7.14-3.64,3.1-1.72,6.8,1.18,9.56-.94,2.46-1.65,6.43-1.11,8.35,1.08,2.32,.2,4.65,1.82,5.52,4.04,1.31-1.68,3.27-2.36,5.25-2.69,1.48-2.05,4.14-2.26,6.6-1.89,2.26,1.21,4.61,2.22,7.27,1.21,3.77-.54,5.79,1.78,7.95,4.04,2.26,.2,5.05-.07,6.73,1.89l2.02,2.29c1.01-1.58,2.26-4.31,4.71-4.18,2.96-.4,4.98,1.52,7.27,2.69,1.85,.57,4.31-.24,5.66,1.62,.52,.37,.86,.85,1.13,1.37h-3.28c-.13-.1-.26-.2-.41-.29l-2.96-.13c-2.93-.67-5.42-4.38-8.75-2.02-.39,.75-.74,1.58-.89,2.45h-4.35c-1.03-1.04-2.05-2.12-3.25-2.99-1.99-.44-4.01,.44-5.52-1.08-1.62-2.12-3.97-3.54-6.6-3.1-4.44,2.73-7.27-4.17-11.31-.4-.91,1.75-3.74,.54-4.58,2.42-.94,1.14-1.08,3.13-.4,4.44,.37,.35,.81,.55,1.27,.7h-4.26c-.04-.06-.07-.11-.11-.16l-.21,.16h-5.23c.02-.05,.03-.11,.05-.16,.67-1.58,2.96-.71,3.77-2.29,.17-1.04,.34-2.46-.27-3.37-.74-1.62-2.63-2.19-4.44-2.29-.24-.81-1.11-1.21-1.75-1.62-1.45-.64-3.03-.03-4.31,.54-2.05,2.26-5.19,.24-7.68,.67-2.9-.13-3.8,3.6-6.46,4.04-3.88-1.51-5.98,2.46-8.39,4.47h-3c.19-1.22-.03-2.57-.73-3.52l-.81-.81c-4.38-1.21-6.46,3.94-11.04,2.69-.7,.41-1.21,.99-1.62,1.64h-2.76Zm11.09,0c1.04-.96,2.07-1.9,3.26-.7-.24,.13-.1,.44-.13,.67l-.03,.03h-3.1Zm15.88,0c4.9-1.81,9.77-3.68,14.99-4.74,1.55-.44,3.67-1.52,5.12-.13,.13,.54-.17,.91-.54,1.21-4.63,.85-9.05,2.18-13.41,3.66h-6.16Zm46.53,0c-1.62-.48-3.24-.94-4.88-1.37-1.35-1.04-3.54-.07-4.71-1.48-.2-.64,.3-.94,.67-1.35,.54,0,1.14-.03,1.62,.13,4.93,.86,9.58,2.4,14.18,4.06h-6.88Zm23.99,0c.17-.1,.37-.13,.62-.02l.02,.02h-.65Z"/></g></g></g></g></svg>