<?xml version="1.0" encoding="UTF-8"?><svg id="Lager_2" xmlns="http://www.w3.org/2000/svg" viewBox="0 0 240 240"><defs><style>.cls-1{fill:#c5c4c4;}.cls-1,.cls-2,.cls-3,.cls-4,.cls-5,.cls-6,.cls-7{stroke-width:0px;}.cls-2{fill:none;}.cls-3{fill:#000;}.cls-4{fill:#ba0c2f;}.cls-5{fill:#f3c944;}.cls-6{fill:#2f261b;}.cls-7{fill:#fff;}</style></defs><g id="Lager_6"><polygon class="cls-3" points="75.57 20.58 81.35 20.58 81.35 18.14 79.86 18.14 79.86 11.82 84.01 20.58 88.26 11.82 88.26 18.14 86.99 18.14 86.99 20.58 92.28 20.58 92.28 18.12 91.29 18.12 91.29 7.14 92.23 7.14 92.23 4.58 88.71 4.58 84.15 14.21 79.59 4.59 75.57 4.59 75.57 7.07 77.19 7.07 77.19 18.14 75.57 18.14 75.57 20.58"/><polygon class="cls-3" points="119.7 20.58 125.48 20.58 125.48 18.14 123.99 18.14 123.99 11.82 128.15 20.58 132.39 11.82 132.39 18.14 131.13 18.14 131.13 20.58 136.41 20.58 136.41 18.12 135.42 18.12 135.42 7.14 136.37 7.14 136.37 4.58 132.85 4.58 128.28 14.21 123.73 4.59 119.7 4.59 119.7 7.07 121.33 7.07 121.33 18.14 119.7 18.14 119.7 20.58"/><path class="cls-3" d="M93.72,18.1h1.06l4.29-13.53h1.99l4.29,13.55h1.1v2.44h-5.39v-2.46h1.66l-.38-1.21h-4.52l-.38,1.23h1.64v2.46h-5.35v-2.48ZM98.57,14.52h2.96l-1.51-4.79-1.45,4.79Z"/><polygon class="cls-3" points="107.9 20.6 118.25 20.6 118.25 14.4 115.54 14.4 115.54 18.13 111.97 18.13 111.97 7.12 113.32 7.12 113.32 4.59 107.92 4.59 107.92 7.11 109.23 7.11 109.23 18.14 107.9 18.14 107.9 20.6"/><rect class="cls-3" x="139.48" y="1.19" width="2.12" height="2.12"/><rect class="cls-3" x="143.52" y="1.19" width="2.13" height="2.12"/><path class="cls-3" d="M137.86,19.1V6.13l1.9-1.55h5.61l1.9,1.63v12.89l-1.89,1.46h-5.61l-1.9-1.46ZM144.31,7.12h-3.51v11.02h3.51V7.12Z"/><path class="cls-7" d="M196.93,84.54c-1.33-9.2,1-16.09,7.11-21.07l10.05-8.17-58.37-35.91-4.88,3.18c-8.35,5.45-26.1,7.93-39.05,7.93h-.53c-12.95,0-30.69-2.48-39.05-7.93l-4.88-3.18-.81.5L8.99,55.3l10.05,8.17c6.12,4.98,8.44,11.87,7.11,21.07-.9,6.2-3.48,13.34-7.48,20.64-5.95,10.88-9.23,22.96-9.23,34.02,0,17.43,6.07,33.73,17.55,47.14,10.26,11.99,24.24,20.82,39.36,24.86,28.42,7.59,34.63,12.99,39.16,16.93l6.03,5.24,6.03-5.24c4.53-3.94,10.74-9.33,39.16-16.93,15.12-4.04,29.09-12.87,39.36-24.86,11.48-13.41,17.55-29.71,17.55-47.14,0-11.06-3.28-23.14-9.23-34.02-3.99-7.3-6.58-14.43-7.48-20.64Z"/><path class="cls-3" d="M151.66,23.82c-8.61,5.61-26.7,8.17-39.86,8.17h-.53c-13.16,0-31.25-2.56-39.86-8.17l-4.08-2.66L11.57,55.47l8.41,6.84c6.56,5.34,9.06,12.68,7.65,22.44-.92,6.38-3.57,13.69-7.64,21.14-5.83,10.66-9.05,22.48-9.05,33.3,0,17.07,5.94,33.03,17.19,46.17,10.07,11.76,23.78,20.42,38.61,24.39,28.75,7.68,35.11,13.21,39.76,17.25l5.05,4.39,5.05-4.39c4.64-4.04,11-9.56,39.76-17.25,14.83-3.96,28.54-12.62,38.61-24.39,11.25-13.14,17.19-29.1,17.19-46.17,0-10.81-3.21-22.64-9.05-33.3-4.08-7.45-6.72-14.76-7.64-21.14-1.41-9.77,1.09-17.11,7.65-22.44l8.41-6.84-55.76-34.31-4.08,2.66Z"/><path class="cls-3" d="M184.92,79.63c0-9.18,3.11-16.86,9.26-22.92-4.7-2.89-36.13-22.23-38.34-23.59-11.34,6.62-30.59,9.01-44.04,9.01h-.53c-13.45,0-32.7-2.39-44.04-9.01-2.21,1.36-33.65,20.7-38.34,23.59,6.15,6.06,9.26,13.74,9.26,22.92,0,2.11-.16,4.3-.49,6.57-.95,6.59-3.28,13.62-6.9,20.94h161.56c-3.63-7.32-5.95-14.35-6.9-20.94-.33-2.27-.49-4.46-.49-6.57Z"/><path class="cls-4" d="M200.33,112.03H22.74c-3.01,6.33-6.56,16.14-6.56,27.16,0,15.8,5.51,30.58,15.93,42.75,9.39,10.96,22.16,19.04,35.97,22.73,29.92,8,36.81,13.98,41.84,18.35l1.6,1.39,1.6-1.39c5.03-4.37,11.92-10.36,41.84-18.35,13.81-3.69,26.59-11.76,35.97-22.73,10.42-12.17,15.93-26.96,15.93-42.75,0-11.02-3.55-20.83-6.56-27.16Z"/><path class="cls-7" d="M198.49,108.41c-6.95-12.69-16.01-36.09,1.3-50.17l2.67-2.17-46.63-28.69-1.3.85c-9.56,6.23-28.35,9.02-42.73,9.02h-.53c-14.38,0-33.17-2.79-42.73-9.02l-1.3-.85-46.63,28.69,2.67,2.17c17.31,14.08,8.25,37.48,1.3,50.17-.56,1.02-1.19,2.24-1.84,3.62h177.59c-.65-1.38-1.28-2.59-1.84-3.62ZM30.76,107.14c3.63-7.32,5.95-14.35,6.9-20.94.33-2.27.49-4.46.49-6.57,0-9.18-3.11-16.86-9.26-22.92,4.7-2.89,36.13-22.23,38.34-23.59,11.34,6.62,30.59,9.01,44.04,9.01h.53c13.45,0,32.7-2.39,44.04-9.01,2.21,1.36,33.65,20.7,38.34,23.59-6.15,6.06-9.26,13.74-9.26,22.92,0,2.11.16,4.3.49,6.57.95,6.59,3.28,13.62,6.9,20.94H30.76Z"/><path class="cls-3" d="M52.38,57.74s-2.23.21-2.23.21v10.98l1.88-.74c2.09-.97,2.37-3.5,2.37-5.85,0-.54-.05-3.3-1.1-4.27-.27-.25-.58-.36-.92-.33Z"/><path class="cls-4" d="M174.4,70.26l-1.34-1.87c-1.83-2.51-3.27-4.49-3.25-7.42.01-1.43.38-2.53,1.02-3.02.33-.26.73-.34,1.14-.23,1.64.42,2.77,3.29,3.04,7.68.2.06,3.17,1.02,3.57,1.15,0-.47.11-15.3.11-15.65-.31,0-3.26.02-3.56.02,0,.32-.09,4.98-.09,4.98h0c-.73-3.53-2.39-5.22-3.9-5.47-.81-.13-1.69.16-2.48.82-1.12.94-3,3.44-3.04,9.61-.05,6.83,2.4,10.2,4.76,13.47,2.18,3.02,4.25,5.86,4.25,11.14-.01,1.93-.51,3.35-1.32,3.8-.39.21-.83.18-1.26-.09-1.75-1.12-2.98-5.06-2.98-9.48,0-.12,0-.23,0-.35-.16-.09-2.37-1.29-2.8-1.52,0,.57-.1,13.63-.1,13.8.13.09,2.34,1.74,2.79,2.08,0-.58.02-4.03.02-4.03h0c.02.06,1.58,5.43,4.22,7.74.48.42,1.85,1.17,3.19.5,1.36-.68,2.99-3.03,3.05-10.35.07-8.68-2.51-13.62-5.04-17.31Z"/><path class="cls-4" d="M57.77,73.81c0-2.85-2.32-3.19-2.42-3.21l-.48-.06.4-.26c2.39-1.57,2.86-4.36,2.86-8.65,0-6.55-1.9-10.78-4.83-10.78h-9.73v7.93c.34-.04,2.5-.31,2.5-.31v31.98s-1.39,1.09-1.52,1.19v8.18c2.14-2.24,4.53-4.38,7.14-6.38v-6.82c-.37.23-1.55.97-1.55.97v-12.66s1.49-.6,1.5-.6c.05-.02,1.15-.37,1.89.16.41.3.62.81.63,1.51.07.34.1,2.26.1,4.71,0,3.71-.06,8.58-.09,10.92,1.63-1.14,3.37-2.27,5.18-3.34,0-.18,0-5.39,0-5.91-.36.18-1.54.76-1.54.76l-.06-9.32ZM52.03,68.19l-1.88.74v-10.98s2.23-.21,2.23-.21c.34-.03.65.09.92.33,1.05.97,1.1,3.73,1.1,4.27,0,2.35-.28,4.88-2.37,5.85Z"/><path class="cls-4" d="M60.69,56.92c.33-.03,2.22-.22,2.22-.22v23.98s-1.86.85-2.05.93c0,.21,0,5.25,0,5.78,4.2-2.33,8.76-4.37,13.55-6.07v-9.5c-.36.09-2.5.6-2.72.65-.02.25-.36,4.96-.36,4.96l-4.47,1.69v-9.25s3.57-.85,3.83-.91v-5c-.37.06-3.83.63-3.83.63v-8.19l4.61-.31s.28,4.3.3,4.66c.32-.04,2.38-.33,2.64-.37v-9.56h-13.73v6.11Z"/><path class="cls-4" d="M90.51,54.33c-1.37-2.49-3.11-3.51-6.01-3.51h-8.56v4.92c.31-.02,1.83-.12,1.83-.12v19.79s-1.61.52-1.83.59v4.82c3.15-1.06,6.38-1.99,9.66-2.75,5.09-1.24,6.9-8.5,6.9-14.33,0-3.85-.67-7.02-1.99-9.42ZM84.36,73.89h0,0s0,0,0,0l-2.72.6v-19.06s2.54-.06,2.54-.06c.92-.04,1.72.27,2.39.91,1.41,1.36,2.16,4.15,2.16,8.08,0,5.58-1.55,8.96-4.37,9.54Z"/><polygon class="cls-4" points="84.36 73.89 84.36 73.89 84.35 73.89 84.36 73.89"/><path class="cls-4" d="M101.54,54.68h1.7v5.69l-4.93.2v-5.83s1.42-.04,1.7-.05v-3.87h-7.7v4.05c.3,0,1.98-.02,1.98-.02v17.37s-1.72.25-1.98.29v4.26c2.56-.42,5.15-.75,7.7-.98v-4.15c-.3.02-1.7.13-1.7.13v-7.39l4.93-.2v7.25s-1.43.08-1.7.1v4.13c2.42-.19,4.89-.3,7.37-.32v-4.12c-.29,0-1.65.03-1.65.03v-16.62h1.98v-3.81h-7.7v3.86Z"/><path class="cls-4" d="M121.81,54.76s1.45.06,1.75.07v-3.99h-10.54v3.82c.28,0,1.86.06,1.86.06l-3.06,16.58s-1.08-.05-1.37-.06v4.08c2.26,0,4.56.09,6.84.23v-4.13c-.29-.02-2.3-.14-2.3-.14l.99-4.56h4.66l.95,4.99s-1.91-.16-2.24-.18v4.16c2.66.22,5.29.54,7.84.94v-4.28c-.25-.04-1.45-.21-1.45-.21l-3.94-17.4ZM117.13,62.72c.06-.35.84-5.1,1.04-6.32.27,1.2,1.34,5.95,1.42,6.32h-2.46Z"/><path class="cls-4" d="M157.34,68.02l5.25-10.87s1.48.15,1.79.18v-6.49h-6.74v5.91c.27.02,1.78.16,1.78.16l-5.28,10.6v-11.08s1.44.13,1.75.16v-5.75h-6.65v5.21c.26.02,1.41.12,1.41.12v21.89s-1.54-.56-1.91-.69v5.05c2.45.96,4.85,2.03,7.15,3.17v-5.52c-.2-.08-1.75-.7-1.75-.7v-10.47h0l5.09,12.67s-1.57-.71-1.95-.88v5.61c2.55,1.32,5.04,2.79,7.43,4.35v-6.32c-.16-.09-1.33-.71-1.33-.71l-6.03-15.6Z"/><path class="cls-4" d="M141.78,55.56c.27.01,1.55.07,1.55.07l-2.7,14.69-.2-.92-2.51-14.05s1.19.06,1.47.07v-4.57h-5.4v4.31c.27.01,1.48.07,1.48.07l-2.62,13.76-.19-.95-2.61-13.02s1.33.02,1.62.03v-4.2h-6.58v4.01c.26.01,1.41.06,1.41.06,0,0,4.5,22.16,4.55,22.39.2.04,2.45.51,2.75.58.07-.34,2.62-13.06,2.62-13.06h0s2.56,14.14,2.6,14.35c.19.06,2.87.84,3.21.95.07-.39,4.11-24.26,4.11-24.26,0,0,1.09.07,1.38.08v-5.11h-5.95v4.71Z"/><path class="cls-7" d="M113.83,85.31c8.34-2.67,14.64-1.77,18.85-.96,6.93,1.34,10.02,4.17,10.02,4.17l-.06.65s3.03.65,4.62,1.31c1.91.8,5.01,2.51,6.88,3.64,1.87,1.13,5.36,3.64,5.36,3.64l.31,1.69s1.65.62,7.89,4.66c8.12,5.26,14.11,14.54,14.11,14.54l-.54.75s3.76,4.59,7.69,9.4c5.5,6.73,5.66,9.4,5.66,9.4,0,0,1.56.5,2.78,1.76,1.5,1.55,2.03,3.69,2.03,3.69,0,0,1.03.78,1.92,2.03.8,1.12.8,2.46.8,2.46,0,0,.66-.11.6-.14,0,0,.41.79.85,1.33.44.54,1.25.98,1.52,1.47.85,1.54.03,1.31.92,3.76.96,2.64,4.87,7.91,4.87,7.91l-10.65,28.52s-24.87,9.98-30.59,7.91c-2.86-1.03-4.1-4.06-4.1-4.06-1.37,1.07-6.26,2.17-6.26,2.17,0,0-.71,1.68-4.34,1.69-2.41,0-7.24.65-10.39,1.52-4.76,1.32-6.88,2.08-10.01,3.52-3.13,1.45-10.4,4.61-10.67,5.31-1.24,3.18-4.89,3.18-4.89,3.18l-15.84-.02s-3.09-.64-4.3-2.75c0,0-5-2.71-7.78-4-9.82-4.55-15.86-5.57-21.4-6.05-5.54-.48-6.5-1.93-6.5-1.93-5.78-.96-12.78-5.2-12.78-5.2-1.15-.7-2.63-2.09-2.79-2.25l-1.25-1.19s0,0,0,0c-.38-.09-.76-.18-.76-.18,0,0,.01-1.65.01-1.67-1.48-.55-5.74-2.88-5.74-2.88l.78-1.63s.02-.02.02-.03c-1.18-.65-3.74-2.75-3.74-2.75l.91-1.65c.07-.07.14-.14.22-.21-2.67-1.84-6.38-6.69-7.73-17.04l1.54-.03c-.72-2.03-1.63-4.32-1.85-7.77-.1-1.57-.55-4.12.89-9.68l1.27.54c.17-1.9.57-5.03,1.33-7.31,2.18-6.53,6.51-12.54,10.08-13.99l.26-.11s.44-.04.47-.05c-.25-1.08-.72-3.09-.72-3.09l10.54-12.63.25-.16c.27-.17,6.7-4.28,13.2-6.63l.44-.16s.87.12,1.18.16c.51-1.59,1.54-4.77,1.54-4.77l15.48-6.93s2.24.46,3.67.75c.26-1.06.79-3.28.79-3.28l5-1.23,4.84,2.83c-.58.14,9.63-.82,13.25-1.98Z"/><path class="cls-6" d="M202.91,211.61s0,.04,0,.07c0,0,0,0,0,0v-.07Z"/><path class="cls-6" d="M152.34,105.15s.04.04.05.06c0,0,0,0,.01.01l-.07-.07Z"/><path class="cls-6" d="M105.21,88.77s.02-.01.02-.02c0,0,.02-.02.03-.03l-.05.05Z"/><path class="cls-6" d="M172.07,129.09s.03.05.05.07c.01.02.03.03.04.05l-.1-.12Z"/><path class="cls-6" d="M179.85,142.87s-.05-.07-.07-.11c-.02-.03-.04-.05-.04-.05l.11.16Z"/><path class="cls-7" d="M171.39,129.78s.01.01.02.02l-.04-.04s.01.02.02.03Z"/><path class="cls-6" d="M107.59,98.27l-.07-2.59-.94-.09c-.16-.02-.29-.03-.42-.05.03.38.06.76.09,1.08.08,0,.15.02.23.03,0,.29.01.42.02.71-.05,0-.11.02-.18.03.03.11.14.53.27,1.04.46-.07,1-.16,1-.16Z"/><path class="cls-7" d="M206.88,217.67c-.1-1.21-.33-2.48-.56-3.7-.18-.96-.34-1.86-.44-2.7v-.04s0-.03,0-.03c-2.14-13.21-4.84-23.11-8.26-30.28l-.05-.1s-.18-.27-.29-.43c-.05-.19-.1-.4-.1-.4-.47-1.85-1.2-3.83-2.29-6.23l-2-4.17s-.77-1.58-.84-1.7c0-.05-.02-.11-.02-.11,0-.04-.26-1.57-.26-1.57-.15-.75-.35-1.44-.58-2.05-.57-1.48-1.42-2.61-2.52-3.4-.01-.01-.01-.01-.03-.03-.15-.19-.35-.46-.35-.46l-.61-.62h-.02s-.12-.1-.23-.19c0,0,0,0,0-.01.03-.22.07-.42.06-.67-.02-1.01-.37-2.22-1.48-3.45,0,0-.17-.18-.17-.18,0,0-.11-.12-.19-.21-.01-.02-.02-.04-.03-.07.1-.33.17-.7.16-1.14-.01-.48-.11-1.01-.36-1.59,0,0-.6-1.09-.6-1.09,0,0-.35-.45-.57-.75-.03-.12-.15-.63-.15-.63-.24-.89-.62-1.7-1.24-2.64l-.04-.05s-.49-.68-.58-.79c-.06-.1-.26-.45-.26-.45,0,0-.18-.26-.25-.35-.03-.07-.12-.22-.12-.22l-.3-.54c-.29-.47-.66-.9-1.12-1.34-.05-.07-.31-.4-.4-.52.02.04.05.07.07.11l-.11-.16s.02.02.04.05c-.66-1.08-1.51-1.9-2.53-2.47-.38-1.71-1.49-3.22-3.06-4.29,0-.02.01-.05.02-.07.02-.15.02-.3.02-.47-.01-.51-.12-1.14-.35-2-.1-1.68-.68-3.12-1.75-4.3-.52-.67-1.17-1.24-1.87-1.75.18-.41.3-.85.35-1.33l.13-1.28-.68-1.09c-1.11-1.77-3.39-4.17-6.23-5.35-.08-.16-.17-.33-.17-.33l-.32-.63s-.2-.39-.2-.39l-.14-.27-.57-.47c-.29-.24-.56-.54-.89-.98l-.68-.99-.5-.74c-.99-1.43-2.34-3.04-4.71-4.18-.29-.22-.56-.53-.98-1.16,0,0-.31-.47-.31-.47l-.62-.93c-.44-.63-.88-1.16-1.34-1.64-.75-.87-1.62-1.58-2.59-2.21,0-.06.03-.12.03-.18-.02-.95-.48-1.89-1.29-2.7-.03-.12-.09-.42-.09-.42l-.97-.81c-1.27-1.06-2.53-2.2-3.87-3.41-1.35-1.22-2.74-2.48-4.19-3.7-1.81-1.51-4.38-3.54-7.48-5.23-.86-.69-1.82-.47-2.81-.89,0,0,0,0,0,0-1-.56.25,1.1-.92.75-3.14-1.47-6.9-1.09-11.1-.03,0,0-.04-.05-.04-.05l-1.67,1.05s-2.81-4.33-2.93-4.25c-4.6-5.47-9.19-10.58-14-15.58l-.03-.03-8.48-6.71.67,1.8,4.41,11.78.32.33s3.21,3.24,3.21,3.24c3.05,3.07,5.49,6.7,8.32,9.43-.43.31-1.27.95-1.66,1.35-.39.38-.8.87-1.12,1.34-.92,1.35-1.14,2.57-1.12,3.49,0,.2.02.38.05.55h0s.01.1.01.1c0-.03,0-.07-.01-.1l.3,3.75,1.05,3.96.11.18c.42.69,1.33,2.52,2.29,4.45l1.19,2.39c1.31,2.6,2.78,5.48,3.87,7,.44,1.01,1.1,2.44,1.89,3.76,1.25,2.09,2.57,3.47,4.03,4.22l-.05-.03s1.4.79,2,1.14c.46,1.13,1.5,3.48,2.17,4.3.56.69,1.16,1.32,1.74,1.93l.28.3c1.19,1.26,1.67,1.93,1.77,2.46l.05.27.15.23c.21.34,2.08,3.33,3,4.45,1.1,1.35,2.18,2.39,3.38,3.27.03.04.08.11.17.34.16.41.29.89.42,1.39l.1.36c.19.72.49,1.79,1.04,2.86.57,1.1,2.56,2.79,3.15,3.28l1.2.99s.36-.47.64-.84c.34,1.53.72,3.2.72,3.2l.06.14c.58,1.29,1.59,1.81,1.92,1.98.02.01.67.33,1.01.49.66.61,1.32,1.25,1.69,1.66-.05.22-.28,1.15-.28,1.15l1.06,1.4c.12.16,1.25,1.63,2.38,2.23l.08.04.08.03c.14.06.34.09.53.13.4,1.59,1.23,4.57,2.19,5.95.65.93,1.38,1.8,2.08,2.64,0,0,1.41,1.74,1.49,1.84.38.73.85,1.33,1.19,1.72,0,0,.81.89.81.89l.49.52c.7.76.8,1.03.81,1.06v-.06s.05.33.05.33l.21.39s2.04,2.89,2.21,3.14c.09.22,1.18,2.82,1.18,2.82l.11.16.54.78s.64,1.29.64,1.29l.13.27.49,1.02c.61,1.18,1.92,2.05,2.68,2.48.23.5.57,1.27.57,1.27,1.17,2.58,2.37,5.25,3.77,7.97,0,0,1.83,3.54,1.83,3.54l9.94,15.71c4.44,6.94,8.36,12.32,12.32,16.92,1.28,1.43,3.32,3.29,6.51,3.22h0,.54s.52-.18.52-.18c1.69-.57,2.9-1.86,3.5-3.76,0,0,.27-1.11.27-1.11l.25-1.07s.64-3.99.65-4.01c.5-1.85.58-3.71.58-5.28l.08-2.04c.05-.9.1-1.83.08-2.8,0-.33-.02-.66-.05-1ZM171.41,129.79s-.01-.01-.02-.02c0,0-.01-.02-.02-.03l.04.04Z"/><path class="cls-3" d="M206.88,217.67c-.1-1.21-.33-2.48-.56-3.7-.18-.96-.34-1.86-.44-2.7v-.04s0-.03,0-.03c-2.14-13.21-4.84-23.11-8.26-30.28l-.05-.1s-.18-.27-.29-.43c-.05-.19-.1-.4-.1-.4-.47-1.85-1.2-3.83-2.29-6.23l-2-4.17s-.77-1.58-.84-1.7c0-.05-.02-.11-.02-.11,0-.04-.26-1.57-.26-1.57-.15-.75-.35-1.44-.58-2.05-.57-1.48-1.42-2.61-2.52-3.4-.01-.01-.01-.01-.03-.03-.15-.19-.35-.46-.35-.46l-.61-.62h-.02s-.12-.1-.23-.19c0,0,0,0,0-.01.03-.22.07-.42.06-.67-.02-1.01-.37-2.22-1.48-3.45,0,0-.17-.18-.17-.18,0,0-.11-.12-.19-.21-.01-.02-.02-.04-.03-.07.1-.33.17-.7.16-1.14-.01-.48-.11-1.01-.36-1.59,0,0-.6-1.09-.6-1.09,0,0-.35-.45-.57-.75-.03-.12-.15-.63-.15-.63-.24-.89-.62-1.7-1.24-2.64l-.04-.05s-.49-.68-.58-.79c-.06-.1-.26-.45-.26-.45,0,0-.18-.26-.25-.35-.03-.07-.12-.22-.12-.22l-.3-.54c-.29-.47-.66-.9-1.12-1.34-.05-.07-.31-.4-.4-.52.02.04.05.07.07.11l-.11-.16s.02.02.04.05c-.66-1.08-1.51-1.9-2.53-2.47-.38-1.71-1.49-3.22-3.06-4.29,0-.02.01-.05.02-.07.02-.15.02-.3.02-.47-.01-.51-.12-1.14-.35-2-.1-1.68-.68-3.12-1.75-4.3-.52-.67-1.17-1.24-1.87-1.75.18-.41.3-.85.35-1.33l.13-1.28-.68-1.09c-1.11-1.77-3.39-4.17-6.23-5.35-.08-.16-.17-.33-.17-.33l-.32-.63s-.2-.39-.2-.39l-.14-.27-.57-.47c-.29-.24-.56-.54-.89-.98l-.68-.99-.5-.74c-.99-1.43-2.34-3.04-4.71-4.18-.29-.22-.56-.53-.98-1.16,0,0-.31-.47-.31-.47l-.62-.93c-.44-.63-.88-1.16-1.34-1.64-.75-.87-1.99.41-2.96-.22,0-.06.4-2.11.4-2.17-.02-.95-.48-1.89-1.29-2.7-.03-.12-.09-.42-.09-.42l-.97-.81c-1.27-1.06-2.53-2.2-3.87-3.41-1.35-1.22-2.74-2.48-4.19-3.7-1.81-1.51-4.38-3.54-7.48-5.23-.86-.69-.88.17-1.87-.25,0,0-1.78-.31-1.78-.31-1-.56-2.63.04-3.8-.31-3.83-.18-3.17-.35-7.37.7,0,0-1.62.56-1.62.56l-2.94-3.81h0c-4.6-5.47-9.26-10.58-14.08-15.58l-.03-.03-8.48-6.71.67,1.8,4.41,11.78.32.33s3.21,3.24,3.21,3.24c3.05,3.07,5.49,6.7,8.32,9.43-.43.31-1.27.95-1.66,1.35-.39.38-.8.87-1.12,1.34-.92,1.35-1.14,2.57-1.12,3.49,0,.2.02.38.05.55h0s.01.1.01.1c0-.03,0-.07-.01-.1l.3,3.75,1.05,3.96.11.18c.42.69,1.33,2.52,2.29,4.45l1.19,2.39c1.31,2.6,2.78,5.48,3.87,7,.44,1.01,1.1,2.44,1.89,3.76,1.25,2.09,2.57,3.47,4.03,4.22l-.05-.03s1.4.79,2,1.14c.46,1.13,1.5,3.48,2.17,4.3.56.69,1.16,1.32,1.74,1.93l.28.3c1.19,1.26,1.67,1.93,1.77,2.46l.05.27.15.23c.21.34,2.08,3.33,3,4.45,1.1,1.35,2.18,2.39,3.38,3.27.03.04.08.11.17.34.16.41.29.89.42,1.39l.1.36c.19.72.49,1.79,1.04,2.86.57,1.1,2.56,2.79,3.15,3.28l1.2.99s.36-.47.64-.84c.34,1.53.72,3.2.72,3.2l.06.14c.58,1.29,1.59,1.81,1.92,1.98.02.01.67.33,1.01.49.66.61,1.32,1.25,1.69,1.66-.05.22-.28,1.15-.28,1.15l1.06,1.4c.12.16,1.25,1.63,2.38,2.23l.08.04.08.03c.14.06.34.09.53.13.4,1.59,1.23,4.57,2.19,5.95.65.93,1.38,1.8,2.08,2.64,0,0,1.41,1.74,1.49,1.84.38.73.85,1.33,1.19,1.72,0,0,.81.89.81.89l.49.52c.7.76.8,1.03.81,1.06v-.06s.05.33.05.33l.21.39s2.04,2.89,2.21,3.14c.09.22,1.18,2.82,1.18,2.82l.11.16.54.78s.64,1.29.64,1.29l.13.27.49,1.02c.61,1.18,1.92,2.05,2.68,2.48.23.5.57,1.27.57,1.27,1.32,2.92,2.37,5.25,3.77,7.97,0,0,1.83,3.54,1.83,3.54l9.94,15.71c4.44,6.94,8.36,12.32,12.32,16.92,1.28,1.43,3.32,3.29,6.51,3.22h0,.54s.52-.18.52-.18c1.69-.57,2.9-1.86,3.5-3.76,0,0,.27-1.11.27-1.11l.25-1.07s.64-3.99.65-4.01c.5-1.85.58-3.71.58-5.28l.08-2.04c.05-.9.1-1.83.08-2.8,0-.33-.02-.66-.05-1ZM204.3,221.33s-.08,2.15-.08,2.15c0,1.54-.07,3.17-.52,4.77v.03s-.02.06-.02.06c0,0-.65,4.05-.65,4.05,0,0-.44,1.85-.44,1.85-.34,1.07-.95,1.76-1.86,2.06l.16-.03s-.23.06-.29.08c-.07,0-.16,0-.16,0-1.67.04-3.02-.67-4.52-2.34-3.87-4.5-7.71-9.78-12.09-16.62l-9.9-15.65s.01.05.03.08c-.12-.27-.49-1-1.77-3.49-1.37-2.67-2.56-5.3-3.72-7.86,0,0-.88-1.94-.88-1.94,0,0-.27-.6-.27-.6l-.87-.03c-.32-.01-.84-.41-1.29-1.29,0,0-.45-.94-.45-.94,0,0-.13-.27-.13-.27,0,0,0,.03.01.06-.06-.15-.23-.5-.7-1.46-.02-.03-.35-.61-.35-.61l-.02-.04-.04-.05s-.18-.22-.25-.31c-.03-.07-.08-.19-.08-.19,0,0-.32-.75-.55-1.31.12-.02.24-.05.24-.05v-.51c-.24-.54-.43-.99-.43-.99l-.08-.1s-.62-.88-1.2-1.69c-.06-.09-.12-.18-.19-.26-.26-.37-.49-.7-.64-.91-.21.26-.37.46-.43.53,0-.05-.02-.17-.02-.17-.07-.72-.49-1.44-1.46-2.5,0,0-.51-.55-.51-.55,0,0-.75-.82-.75-.82-.28-.33-.65-.79-.91-1.32,0,0-.05-.11-.05-.11l-1.68-2.08c-.68-.81-1.37-1.62-1.94-2.45-1.32-1.9-1.95-3.63-1.99-5.45,0,0-.03-1.39-.03-1.39l-1.34-.05c-.15,0-.32-.05-.49-.11-.59-.33-.9-.69-1.01-.83l.05.08-.51-.72s-.19-.26-.34-.45c.07-.28.21-.88.21-.88l-.06-.25c-.17-.69-.43-1.13-.81-1.63,0,0-.58-.72-.58-.72l-.96-.59s-.65-.35-.65-.35c-.02-.01-1.2-.59-1.2-.59-.25-.13-.54-.32-.73-.74,0-.01-.25-.5-.25-.5h0s-.04-.08-.06-.12c-.02-.12-1.45-7.71-1.45-7.71,0,0-2.02,2.66-2.48,3.27-.64-.47-1.18-1.05-1.59-1.85-.43-.82-.67-1.71-.84-2.35,0,0-.09-.35-.09-.35-.15-.56-.3-1.14-.52-1.69-.21-.53-.45-.91-.74-1.22l-.03-.03-.07-.06-.04-.03c-1.08-.78-2.06-1.71-3.06-2.94-.71-.87-1.35-1.79-2.04-2.77,0,0-.43-.61-.58-.82-.02-.11-.05-.24-.05-.24-.24-1.22-1.04-2.25-2.42-3.72l-.28-.3c-.55-.58-1.11-1.17-1.61-1.79-.74-.91-1.25-1.74-1.62-2.61,0,0-.04-.09-.06-.15,0-.07-.02-.17-.02-.17,0-.01-.02-.1-.24-1.07-.01-.04-.12-.4-.12-.4l-.07-.22-2.82-1.46c-1.02-.53-2.01-1.6-3-3.26-.75-1.25-1.39-2.66-1.8-3.61l-.05-.11-.07-.1c-.98-1.31-2.45-4.19-3.75-6.78l-1.19-2.38c-1.03-2.07-1.91-3.85-2.39-4.64l.08.26-.14-.37s-.02-.03-.04-.07c-.02-.09-.04-.2-.04-.2,0,0-.25-1.11-.41-1.82.12-.02-.59-5-.59-5-.02-.63.21-1.29.68-1.97.27-.4,3.39-2.87,3.39-2.87l-1.61-2.38s0,0-.01-.01c-2.66-3.02-12.05-12.54-12.09-12.63-.02-.04-1.57-4.2-1.57-4.2,0,0-1.99-5.33-2.03-5.42,1.84,1.45,5.36,4.25,5.41,4.28.6.62,7.78,7.77,13.68,15.2.12.12,1.76,2.1,1.76,2.1l2.19,3.19s.82-1.63.91-1.73c.12-.03,1.53-.81,1.53-.81,4.63-1.16,9.78-.67,13.45,1.39l-2.57-1.89.05.03h.03c2.24.96,4.14,2.98,5.97,4.94,1.03,1.1,2,2.13,3.04,3,1.42,1.19,2.79,2.43,4.12,3.63,1.36,1.23,2.64,2.39,3.95,3.48,0,0,.17.14.29.24.02.08.07.35.07.35l.29.24c.48.39.76.83.77,1.2l-.03.21.03-.07-.38,1.18.38.21.63.36c1.02.58,1.83,1.24,2.56,2.1.43.44.79.89,1.18,1.44l.58.86s.32.48.32.48c.54.81,1.01,1.4,1.69,1.88l.04.03.08.05.04.02c1.93.89,3,2.16,3.86,3.41l.47.7s.74,1.07.74,1.07c.47.64.88,1.09,1.34,1.47,0,0,.1.08.17.14.05.09.1.2.1.2,0,0,.28.56.28.56,0,0,.4.78.4.78.01.02.27.47.27.47l.48.17c2.28.82,4.34,2.84,5.37,4.49,0,0,.12.19.21.34-.02.17-.04.4-.04.4-.04.39-.16.69-.39.93l-1.22,1.34,1.58.88c.85.47,1.55,1.07,2.11,1.8l.02.02.03.04.02.02c.74.79,1.11,1.74,1.14,2.94v.12s.04.12.04.12c.07.26.27,1.05.28,1.5v.13s-.02.07-.02.07h0s.01-.03.02-.04c-.05.07-.15.24-.53.85l-.3.49,1.36.71c1.35.71,2.28,1.84,2.56,3.11,0,0,.27,1.21.27,1.21l.66.29c.81.36,1.45.95,1.96,1.82l.02.03.04.06.55.71.07.06c.36.34.62.63.82.95,0,0,.2.36.2.36,0,0,.21.4.21.4l.03.04.24.34s.24.43.24.43v.03s.68.91.68.91c.45.67.71,1.23.88,1.85,0,0,.07.3.07.3,0,0,.17.67.17.67,0,0,.07.11.07.11,0,0,.08.15.08.15l.02.04.08.1s.5.65.57.74c.03.06.36.64.39.71.09.22.15.43.15.63,0,.19-.03.38-.12.55,0,0,.01,0,.02,0-.04.06-.07.12-.09.16,0,0-.22.47-.22.47l.7,1.41.47.52s.14.15.14.15c.23.25.79.88.81,1.78,0,.17-.01.36-.05.55l.14-.26-.28.8.13.14.57,1.07s.62.49.64.51c.07.08.17.17.31.31.03.04.31.41.31.41.01.02.06.08.06.08.03.04.17.18.17.18l.04.04.09.06c.75.49,1.33,1.27,1.74,2.34.18.47.34,1.02.46,1.64,0,0,.24,1.4.24,1.4,0-.01.07.45.07.45v.08s1.03,2.07,1.03,2.07c0,0,1.97,4.11,1.97,4.11,1.02,2.25,1.7,4.1,2.13,5.8l.21.83s.38.57.42.63c3.3,6.94,5.92,16.6,8.02,29.53.1.87.28,1.86.46,2.82.22,1.17.44,2.36.52,3.45l.04.85c.02.88-.03,1.76-.07,2.6Z"/><path class="cls-4" d="M96.99,73.09c4.15,4.23,8.24,8.39,11.81,12.45,20.82,25.09,42,48.52,58.65,76.02,4.61,7.98,9.29,15.84,13.45,24.06,4.82,10.27,9.44,20.62,13.91,31.21.18.23.52.22.63,0l-.07-.84c-7.46-18.81-15.67-35.4-25.04-52.82-.29-.55-.38-1.13-.85-1.61-6.42-12.41-15.82-22.06-23.79-33.62-15.39-19.75-30.56-39.92-48.63-58.67l-2.4-2,2.33,5.83Z"/><path class="cls-4" d="M195.89,218.08c.24-.12.64-.43.63-1.23v-.06s-.02-.06-.02-.06c-1.17-3.73-2.56-7.08-4.04-10.63l-1.53-3.74c-3.7-8.23-9.6-20.92-11.74-24.85.61.18,1.57.47,1.57.47,1.28.36,2.48.71,3.63,1.26h.03s.03.02.03.02c1.34.41,2.68,1.02,3.97,1.62,1.83.84,3.71,1.69,5.63,1.98,3.21,6.8,5.78,16.26,7.83,28.93.1.88.28,1.85.45,2.78.21,1.14.43,2.32.52,3.42.02.28.04.55.04.83.02.88-.03,1.73-.07,2.57l-.08,2.09c0,1.43-.07,2.94-.48,4.37l-.2.7s.11-.03.18-.04c-.17.91-.64,3.43-.64,3.43v-.05s-.19.87-.19.87c-.17.87-.36,1.75-1.1,2.04-1.2,0-2.14-.51-3.33-1.83-7.34-8.54-13.5-18.76-19.46-28.64,0,0-2.84-4.69-3.14-5.19,1.13-1.22,1.14-2.77,1.14-4.15,0-1.05,0-2.04.44-2.85l.05-.09v-.1c.09-1.57.09-3.19.08-4.75,0-2.46.02-4.99.36-7.32,4.5,8.18,7.89,15.89,11.46,24.03,1.93,4.41,3.93,8.97,6.16,13.71l.04.09.07.06c.42.34,1.16.57,1.7.31Z"/><path class="cls-3" d="M168.64,172.46c.51,2.19,1.28,4.26.42,6.48.75,1.19-1.48,3.77-.78,5.18.5,1.55-.75,2-.04,3.37,1.56,3.41,3.02,6.8,4.84,10.32l.32-1.41-.04.07c.39-1.27.01-3.19.73-4.76.04-3.24.32-6.96.28-10.3.58-1.49-.13-3.15.89-4.51l-5.6-9.9c-.1,1.84.28,3.66-1.02,5.47Z"/><path class="cls-6" d="M231.33,213.86s0-.07,0-.11v-.06s0,.17,0,.17Z"/><path class="cls-6" d="M108.36,93.9s.01-.02.02-.03c0,0,.01-.02.02-.03l-.04.06Z"/><polygon class="cls-6" points="195.28 143.53 195.28 143.53 195.28 143.53 195.28 143.53"/><path class="cls-6" d="M230.37,213.76s0-.03,0-.05h0s0,.05,0,.05Z"/><path class="cls-6" d="M108.05,99.25v.02s.01.06.02.08l-.02-.1Z"/><path class="cls-7" d="M231.03,208.4h0s-.27-2.02-.27-2.02c-.14-1.2-.28-2.44-.61-3.75-.31-1.23-.73-2.52-1.14-3.76l-.76-2.43-.02-.07c-3.98-10.57-8-20.69-13.39-28.3-.02-.02-.35-.47-.52-.7-.03-.06-.05-.12-.05-.12-.78-1.74-1.83-3.56-3.3-5.73l-2.68-3.76s-.89-1.23-.92-1.27c-.02-.03-.09-.13-.16-.24-.38-1.16-.81-2.38-1.49-3.51-.63-1.06-1.36-1.7-1.93-2.14l-.64-.47-1.13-.85-.17-.08s-.36-.12-.41-.14c-.05-.07-.19-.24-.23-.29-1.36-.99.03-.48-1.31-1.52.01-.13-1.11-1.1-1.11-1.24-.02-.69-.67-1.04-1.11-1.68l-.37-.7s-.95-1.05-.95-1.05c-.03-.03-.89-1.47-.89-1.47,0,0-2.47-1.94-2.47-1.94l-.12-1.1c-.8-1.12-1.6-2.23-2.27-2.98-1.54-1.72-2.18-2.9-2.18-2.9,0,0-1.17-1.94-1.17-1.94,0,0-1.45-1.65-1.45-1.65,0,0-1.44-1.37-1.44-1.37-.02-.05-1.3-1.38-1.3-1.38l-1.6-2.21c-.37-.76-3.57-3.62-4.42-4.33-.53-.45,1.66-.44.69-.87.17-.51-1.63-2.38-4.12-5.17-1.29-1.18-2.87-2.58-3.8-3.76-1.74-2.21-2.95-3.47-5.24-4.29-.11-.04-1.77-1.08-2.76-2.07,0,0-3.05-2.35-3.05-2.35-.38-.38-1.21-1.39-1.69-1.75-.73-.56-1.21-1.26-2.06-1.54-.18-1.28-1.77-1.5-3.04-2.15-3.49-1.79-3.87-2.69-7.39-3.61-4.89-1.28-3.92-1.61-7.51-3.25-5.33-2.43-13.8-4.01-19.59-1.74l-.82-.25-1.28.85s-.72-.39-.74-.37c-5.92-4.2-11.74-8.04-17.74-11.7l-.03-.02-11.64-5.08,1.09,1.55,8.33,11.92.49.29,3.91,2.31c3.66,2.16,7.13,4.2,10.32,6.34-.38.39-.71.81-1.01,1.25-.32.44-.64,1-.88,1.52-.48,1.06-.63,1.99-.61,2.77.01.5.1.91.2,1.27.01.09.1.75.12.85,0,.06-.01.13-.01.19.01.54.16,1.01.29,1.33,0,0-.09.03-.09.03l.9,1.91c.15.31.42.94.92,2.23l.23.61.43.49c.36.41,1.05,1.34,1.75,2.28l2.82,3.83c1.73,2.33,3.66,4.9,4.99,6.2.6.91,1.48,2.2,2.5,3.37,1.58,1.83,3.11,2.96,4.68,3.44,0,0,1.17.36,1.94.6.04.11.08.2.08.2l.15.51.28.44c.64,1,1.46,1.92,2.51,2.84.68.58,1.38,1.11,2.06,1.61l.3.22c1.38,1.03,1.96,1.59,2.15,2.09,0,0,.29.75.29.75l.56.56.52.52c.84.84,1.7,1.7,2.61,2.49,1.31,1.13,2.55,1.96,3.88,2.62.03.03.09.1.22.3.23.37.43.81.65,1.29l.16.35c.31.67.78,1.67,1.5,2.63.89,1.17,1.99,2.03,3.26,2.53h.04s2.14.74,2.14.74c0,0,.08-.16.13-.25.28.74.68,1.84.68,1.84l.3.42s.31.42.31.42l-.04-.06c.8,1.18,1.88,1.51,2.23,1.61.03,0,1.29.36,1.29.36,0,0,.48.14,1.1.4.14.12.27.24.3.27.16.15.25.25.32.35-.02.34-.1,1.43-.1,1.43l1.29,1.2.58.57c.39.36,1.08.86,2.15,1.21l.09.03.09.02c.12.02.23.02.35.03.55,1.94,1.62,3.74,3.33,5.46.8.81,1.67,1.55,2.5,2.23,0,0,.18.15.18.15,0,0,1.5,1.31,1.6,1.39.5.65,1.07,1.16,1.47,1.48l.94.72.57.43c.77.59.93.83.96.88.06.21.53,1.97.53,1.97,0,0,2.62,1.38,3.41,2.68.29.46.51.8.51.8,0,0,.31.49.31.49,0,0,.38.34.49.43.07.08.27.32.27.32l.85,1.17.15.21.68.95c.9,1.19,1.99,1.87,3.09,2,.31.46.75,1.1.75,1.1,1.58,2.33,3.22,4.75,5.06,7.18l2.37,3.13s1.15.95,1.31,1.09c.77.88,7.75,8.94,11.15,12.64,5.54,6.04,10.3,10.64,14.98,14.46,1.5,1.18,3.83,2.65,6.96,2.01,0,0,.53-.11.53-.11l.47-.26c1.56-.86,2.53-2.35,2.8-4.31,0,0,.08-1.17.08-1.17l.05-.81v-.16s-.02-4.12-.02-4.12c0,.04,0,.07,0,.11v-.17s0,.06,0,.06c.19-1.93-.05-3.79-.31-5.36ZM108.05,99.26v-.02s.02.1.02.1c0-.03-.01-.06-.02-.08ZM230.38,213.72s0,.03,0,.05v-.06s0,.01,0,.01Z"/><path class="cls-3" d="M231.03,208.4h0s-.27-2.02-.27-2.02c-.14-1.2-.28-2.44-.61-3.75-.31-1.23-.73-2.52-1.14-3.76l-.76-2.43-.02-.07c-3.98-10.57-8-20.69-13.39-28.3-.02-.02-.35-.47-.52-.7-.03-.06-.05-.12-.05-.12-.78-1.74-1.83-3.56-3.3-5.73l-2.68-3.76s-.89-1.23-.92-1.27c-.02-.03-.09-.13-.16-.24-.38-1.16-.81-2.38-1.49-3.51-.63-1.06-1.21-1.27-1.78-1.71l-.91-.69-.91-1.18-1.23.32s.05.02,0,0c-.05-.07.36-.66.32-.71-.13-2.06-1.23-3.14-2.58-4.18.01-.13-.84-1.99-.9-2.11-.96-2.14-2.44-2.35-2.89-3,0,0-1.38-.35-1.38-.35-.03-.03-.08-.76-.08-.76-.57-1.15-.67-1.64-1.49-3.07-1.03-1.79-2.41-3.12-3.91-5.1-1.33-1.75-4.71-6.21-4.71-6.21-1.89-2.03-2.76-3.53-4.04-4.4l.8-.91c-.7-1.12-2.31-3.03-4.05-5-4-4.54-6.23-6.41-13.9-11.41l-3.91-2.12-.06-1.42c-2.7-1.47-9.44-7.64-17.52-8.41l.46-.86s-1.69-1.1-3.44-1.85c-6.61-2.87-16.13-3.8-22.96-.61h0s.02-.03,0,0c-5.92-4.2-11.74-8.04-17.74-11.7l-.03-.02-11.64-5.08,1.09,1.55,8.31,11.95,4.42,2.57c3.66,2.16,7.13,4.2,10.32,6.34-.38.39-.71.81-1.01,1.25-.32.44-.64,1-.88,1.52-.48,1.06-.63,1.99-.61,2.77.01.5.1.91.2,1.27.01.09.1.75.12.85,0,.06-.01.13-.01.19.01.54.16,1.01.29,1.33,0,0-.09.03-.09.03l.9,1.91c.15.31.42.94.92,2.23l.23.61.43.49c.36.41,1.05,1.34,1.75,2.28l2.82,3.83c1.73,2.33,3.66,4.9,4.99,6.2.6.91,1.48,2.2,2.5,3.37,1.58,1.83,3.11,2.96,4.68,3.44,0,0,1.17.36,1.94.6.04.11.08.2.08.2l.15.51.28.44c.64,1,1.46,1.92,2.51,2.84.68.58,1.38,1.11,2.06,1.61l.3.22c1.38,1.03,1.96,1.59,2.15,2.09,0,0,.29.75.29.75l.56.56.52.52c.84.84,1.7,1.7,2.61,2.49,1.31,1.13,2.55,1.96,3.88,2.62.03.03.09.1.22.3.23.37.43.81.65,1.29l.16.35c.31.67.78,1.67,1.5,2.63.89,1.17,1.99,2.03,3.26,2.53h.04s2.14.74,2.14.74c0,0,.08-.16.13-.25.28.74.68,1.84.68,1.84l.3.42s.31.42.31.42l-.04-.06c.8,1.18,1.88,1.51,2.23,1.61.03,0,1.29.36,1.29.36,0,0,.48.14,1.1.4.14.12.27.24.3.27.16.15.25.25.32.35-.02.34-.1,1.43-.1,1.43l1.29,1.2.58.57c.39.36,1.08.86,2.15,1.21l.09.03.09.02c.12.02.23.02.35.03.55,1.94,1.62,3.74,3.33,5.46.8.81,1.67,1.55,2.5,2.23,0,0,.18.15.18.15,0,0,1.5,1.31,1.6,1.39.5.65,1.07,1.16,1.47,1.48l.94.72.57.43c.77.59.93.83.96.88.06.21.53,1.97.53,1.97,0,0,2.62,1.38,3.41,2.68.29.46.51.8.51.8,0,0,.31.49.31.49,0,0,.38.34.49.43.07.08.27.32.27.32l.85,1.17.15.21.68.95c.9,1.19,1.99,1.87,3.09,2,.31.46.75,1.1.75,1.1,1.58,2.33,3.22,4.75,5.06,7.18l2.37,3.13s1.15.95,1.31,1.09c.77.88,7.75,8.94,11.15,12.64,5.54,6.04,10.3,10.64,14.98,14.46,1.5,1.18,3.83,2.65,6.96,2.01,0,0,.53-.11.53-.11l.47-.26c1.56-.86,2.53-2.35,2.8-4.31,0,0,.08-1.17.08-1.17l.05-.81v-.16s-.02-4.12-.02-4.12c0,.04,0,.07,0,.11v-.17s0,.06,0,.06c.19-1.93-.05-3.79-.31-5.36ZM108.05,99.26v-.02s.02.1.02.1c0-.03-.01-.06-.02-.08ZM197.86,146.58c2.64,2.23,1.33,2.92,1.33,2.92,0,0,.36.46.45.58.04.15.31,1.1.31,1.1l.51-.13c.21-.05.36-.04.46-.01,0,0,.03.01.06.02.15.11.99.75.99.75l.57.42c.45.35.97.8,1.42,1.56.61,1.03,1.02,2.21,1.38,3.32l.02.07.32.49s.95,1.31.95,1.31l2.64,3.71c1.41,2.07,2.4,3.79,3.13,5.42l.15.33.64.85c5.25,7.39,9.21,17.38,13.14,27.82,0,0,.76,2.41.76,2.41.39,1.21.8,2.47,1.1,3.64.3,1.18.44,2.35.57,3.48l.28,2.13h0c.17,1.02.32,2.1.35,3.22.01.55,0,1.12-.06,1.69v.03s.02,4.2.02,4.2c0,.12-.12,1.85-.12,1.85-.18,1.32-.78,2.27-1.77,2.81,0,0-.13.07-.2.11-.09.02-.23.05-.23.05-1.8.37-3.38-.11-5.27-1.6-4.59-3.75-9.28-8.29-14.76-14.25-3.56-3.88-11.12-12.6-11.19-12.69l-.02-.02s-1.58-1.49-1.64-1.55c-.05-.07-2.41-3.18-2.41-3.18-1.29-1.71-2.72-3.81-4.23-6.04l-1.59-2.34-.54.08c-.58.09-1.32-.38-1.98-1.24l-.64-.89-.15-.21-.91-1.25s-.42-.51-.42-.51h-.02s-.27-.25-.35-.32c-.05-.08-.15-.24-.15-.24,0,0-.08-.11-.32-.48,0,0,0-.01,0-.02,0-.06-.1-.19-.23-.34,0,0,0,0,0,0,0,0,0,0,0,0-.84-.91-3.61-3.1-3.48-3.45-.08-.31-.17-.65-.17-.65-.15-.57-.64-1.13-1.67-1.92l-.6-.45-.87-.67c-.37-.3-.85-.72-1.23-1.25l-.04-.05-1.79-1.56-.17-.15c-.78-.65-1.61-1.35-2.35-2.1-1.7-1.72-2.66-3.41-3.03-5.32l-.16-.83-.83.12c-.22.03-.46.02-.69-.02-.73-.25-1.17-.58-1.37-.76l-.57-.56s-.35-.33-.58-.54c.02-.31.07-1.03.07-1.03l-.05-.12c-.25-.56-.53-.9-.95-1.29-.01-.01-.6-.53-.6-.53l-.08-.03c-.85-.36-1.53-.56-1.55-.57,0,0-1.26-.35-1.26-.35-.34-.1-.78-.29-1.13-.81-.02-.02-.32-.42-.32-.42,0,0-.08-.11-.13-.18-.05-.13-2.19-5.89-2.19-5.89,0,0-1.16,2.25-1.43,2.78-.22-.08-.45-.15-.45-.15-.91-.36-1.7-.98-2.37-1.86-.6-.78-1.01-1.67-1.28-2.26l-.15-.34c-.23-.51-.47-1.03-.77-1.51-.26-.42-.51-.71-.79-.91l-.04-.03-.04-.02c-1.24-.59-2.39-1.36-3.62-2.42-.85-.74-1.66-1.54-2.51-2.39l-.53-.53s-.15-.15-.25-.25c-.05-.12-.13-.34-.13-.34-.4-1.04-1.3-1.86-2.84-3,0,0-.31-.23-.31-.23-.65-.48-1.32-.98-1.94-1.51-.92-.79-1.6-1.55-2.13-2.39,0,0-.08-.12-.13-.2-.02-.08-.07-.23-.07-.23l-.39-.96s-.07-.13-.07-.13l-.1-.2-2.81-.86c-1.19-.37-2.42-1.29-3.74-2.83-.98-1.13-1.85-2.41-2.42-3.28l-.03-.05-.05-.04c-1.21-1.15-3.16-3.74-4.89-6.07l-2.82-3.83c-.84-1.13-1.47-1.97-1.86-2.41,0,0-.12-.14-.19-.22-.04-.1-.11-.28-.11-.28-.39-1-.69-1.75-.92-2.24.47-.17,1.48-.52,1.48-.52l-.32-1.62-.48.04c-.9.08-1.34.05-1.54.02-.06-.18-.11-.36-.11-.51,0-.05,0-.1,0-.15v-.08s-.05-.44-.05-.44c0,0-.09-.66-.09-.66v-.05s-.02-.05-.02-.05c-.1-.29-.15-.58-.16-.89-.01-.58.13-1.21.43-1.88.22-.48.49-.92.68-1.18.04-.05,1.77-2.01,1.77-2.01l-1.61-1.16s0,0,0,0c-3.29-2.22-6.83-4.3-10.59-6.51,0,0-4.08-2.42-4.2-2.49-.11-.16-5.49-7.86-7.11-10.18,2.35,1.03,8.03,3.51,8.09,3.53,6.05,3.69,11.9,7.56,17.87,11.8.24.17,2.05.16,2.05.16,0,0,0,.01,0,0,.01,0,9.77-1.99,15.98-.44,1.8.45,3.54.85,5.86,1.92.16.08-2.03,1.87-1.89,1.98.14.11,2.98.11,3.16.13,2.98.28,5.5,1.22,7.07,1.92,2.79,1.24,6.76,3.37,9.35,5.83,0,0-2.52.96-3.83,2.03h0s3.39-1.14,6.31.57c11.67,6.86,14.52,10.2,19.53,16.09l-1.32.87s.44-.18,2.93,3.09c2.66,3.48,3.25,4.13,5.12,6.57q1.03,1.34,4.72,6.08c2.62,3.36,2.39,4.44,2.39,4.44l-1.49.46c.12.19,3.16.55,3.29.74,1.41,2.06,2.33,2.04,2.86,3.31.51,1.23.71,1.98.71,1.98l.79.81ZM230.38,213.72s0,.03,0,.05v-.06s0,.01,0,.01Z"/><path class="cls-4" d="M96.49,81.62c5.3,3.17,10.03,6.28,14.4,9.24,26.34,18.9,49.97,39.48,70.99,63.57,5.88,7.03,11.81,13.93,17.29,21.28,6.47,9.25,12.77,18.62,18.94,28.25.22.2.55.13.62-.11l-.21-.81c-10.51-17.19-21.38-32.05-33.53-47.53-.38-.49-.57-1.05-1.11-1.43-8.41-11.07-18.73-20.43-28.53-30.39-18.47-16.69-43.39-37.04-59.63-46.18l-3.11-1.28,3.87,5.4Z"/><path class="cls-3" d="M111.33,95.99s-1.2,1.63-.71,2.56c.55,3.34-.44.07.7,3.08.03.17.19.16,1.28,3,1.61,1.84,7.88,10.97,9.59,12.3,1.32,2.02,3.46,5.12,5.5,5.74.32-1.38.32-1.77.05-3.03.77-1.02-1.2-3.81.11-4.2.68.18.81,1.1,1.01,1.94-.3.81-.05,1.53.14,2.26.56,2.2,2.51,4.2,3.12,6.29,1.99,3.13,6.16,4.27,7.36,7.44,1.98,1.97,3.8,3.93,6.3,5.06,2.52,1.5,4.54,6.31,4.54,6.31.14-.28.47-.24.49-.52.06-.69.15-1.56.56-2.24-.1-1.21-.01-2.71,1.46-3.3-.02,1.63.95,3.13,1.16,4.85l.02.54,1.94,5.21c.27.36.3.4.35.48.11.16.14.12,1.52.52,0,0,1.23.35,2.41.94-.22.05.15.1.47.56.88.83,1.58,1.73,1.5,2.97.42.39.71.77,1.14.93,1.64.33,1.87-5.77,2.79-2.61-.2.91-.85,3.13.08,3.85.33,4.4,4.46,6.58,7.1,9.15.92,1.55,4.09,2.61,4.73,4.99l.6.17c.62-1.27-.06-2.38-.27-3.59.45-.84-.43-2.62.76-2.61,1.12.3.18,1.47.15,2.23.14,1.28.38,3.66.8,5.32,0,0-.21-.52,1.97,2.96.92.72,2.96,4.11,2.79,3.47.34-.48.25-1.57.24-2.72-.01-1.25.03-2.56-.32-2.98.29-2.2.43-4.14-.5-6.01-.55-1.51-1.19-2.96-.34-4.59-.28-1.5-.38-3.39,0-4.79-4.41-4.85-8.82-9.87-13.35-14.61-8.68-9.1-17.69-17.72-27.08-26-2.85-2.51-5.73-4.98-8.66-7.42-6.67-5.54-13.49-11.11-20.67-16.04-1.21.37-2.23,1.2-2.83,2.15Z"/><path class="cls-3" d="M190.56,160.64s-1.48-1.89-2.19-2.8c3.65,1.02,7.35,1.45,11.04,1.24h.03c.72-.09,1.47,0,2.2.08.88.1,1.78.18,2.62-.02.23.31.77,1.06.77,1.06,1.91,2.62,3.85,5.32,5.19,8.06-.84-.11-1.72-.28-2.65-.48,0,0-2.47-.5-2.49-.5-1.51-.45-2.94-.63-4.33-.81-1.23-.16-2.51-.32-3.87-.66l-.07-.02s-.03,0-.06,0c0,0-.38-.1-.38-.1-.53-.15-1.29-.36-1.88-.19-1.37-1.54-2.67-3.22-3.92-4.86Z"/><path class="cls-4" d="M195.19,168.02s.04.02.07.03h0s-.04-.02-.06-.03ZM219.39,204.99c.19-.13.46-.43.45-.99,0-.1-.01-.21-.04-.33v-.06s-.04-.05-.04-.05c-1.78-3.46-3.71-6.51-5.75-9.73l-2.14-3.41c-5.03-7.45-12.97-18.89-15.73-22.37.63.07,1.64.18,1.64.18,1.32.13,2.56.25,3.79.59h.03s.03.01.03.01c3.18.38,6.37.94,10.02,1.78,5.07,7.2,8.94,16.94,12.78,27.13,0,0,.75,2.39.75,2.39.38,1.17.77,2.38,1.07,3.53.29,1.14.42,2.26.54,3.35l.27,2.07c.16.95.3,1.94.32,2.93.01.48,0,.97-.06,1.45l-.08.73s.11-.05.17-.07c-.02.93-.06,3.49-.06,3.49v-.05s-.05.89-.05.89c-.02.89-.06,1.8-.75,2.22-1.18.22-2.19-.12-3.58-1.21-8.66-7.09-16.45-16.05-23.97-24.71,0,0-3.59-4.12-3.97-4.55.68-1.01.88-2.03.86-3.06-.02-.67-.12-1.33-.22-1.99-.1-.67-.21-1.36-.22-2.05,0-.07,0-.14,0-.21v-.03s0-.03,0-.03c-.18-1.56-.46-3.15-.72-4.69-.42-2.42-.84-4.91-.9-7.26,0-.02,0-.03,0-.05,5.82,7.26,10.46,14.25,15.34,21.63,2.64,4,5.38,8.13,8.37,12.4l.06.08.08.05c.47.26,1.23.35,1.72,0Z"/><path class="cls-3" d="M184.89,164.95c.87,2.06,1.97,3.97,1.5,6.31.94,1.04-.3,7.35.63,8.57,2.11,3.08,4.12,6.16,6.49,9.3l.08-1.45-.03.07c.17-1.33-.52-3.15-.08-4.82-.5-3.2-.77-6.41-1.36-9.69.32-1.57-.8-2.78-.03-4.3l-7.06-9.09c.21,1.83.83,3.09-.15,5.11Z"/><path class="cls-3" d="M203.51,156.86c-.26-.72-.65-2.04-1.89-3.1-1.23-1.06-1.1-.7-1.95-.56-.84.14-1-.55-1.28-1.87l-10.44-.04s1.03-.14,1.03-.18l9.05-1.31c-.22-.68-.53-1.16-1.14-1.74-.87-.83-1.84-1.9-1.99-3.11-.15-1.21-1.02-.79-2.4-3.17l-5.76-1.45s0,0,0,0c-.09-.3-.18-.58-.27-.87l3.59-.8c0-.72-.58-1.46-2.01-3.13-3.25-3.79-5.16-6.56-6.03-7.63,0,0-2.07-2.24-3.72-4.86-.53-.85-3.32-3.61-3.84-4.43,0,0-.03.02-.07.07,0,0,0,0,0-.01l.97-.68c-2.86-3.94-5.09-5.34-6.84-7.01-1.58-1.5-8.96-6.61-11.57-7.94-1.39-.71-4.01-.72-5.88-.65l-.41-1.01c1.49-1.73,2.39-2.07,2.39-2.07,0,0-3.32-2.45-6.75-4.06-1.72-.81-4.51-1.58-6.74-1.92l-3.87-1.8-2.39.39c.96-.89,1.78-1.42,1.78-1.42-1.87-.72-3.55-1.17-5.44-1.52l-.08-.16c-2.98-1.26-7.7-2.23-7.7-2.23,0,0-.61-.23-3.84-.61-7.51-.89-17.85,1.01-17.85,1.01l-1.83-1.19-5.98,1.46-.95,3.94-4.88-.99-14.14,6.33-1.77,5.49-2.3-.31c-6.37,2.3-12.82,6.44-12.82,6.44l-9.74,11.67,1,4.3-2.38.23c-2.84,1.15-6.91,6.6-8.98,12.81-2.09,6.26-1.07,11.82-1.07,11.82-.84-.38-2.16-1.84-2.16-1.84-1.69,9.36,2.87,15.24,2.87,15.24-.21-.02-2.12.19-2.12.19,2.3,12.74,8,15.02,8,15.02,0,.23-.7,1.67-.7,1.67l3.23,2.48c-.15.54-.41,1.48-.41,1.48l4.55,2.43v1.48s2.15.51,2.15.51l-.77,1s1.45,1.39,2.46,1.99c7.75,4.68,13.06,5.03,13.06,5.03,0,0,.52,1.56,6.89,2.33,9.28,1.12,16.96,4.6,21.79,6.98,4.83,2.38,7.98,3.91,7.98,3.91,0,0,10.19,7.04,11.99,5.32s13.98-8.93,22.23-12.5c7.17-3.1,15.29-4.38,18.72-4.55,3.34-.17,3.87-1.81,3.87-1.81,4.15-.54,4.07-.9,7.68-2.52,3.61-1.62,7.94-4.33,7.94-4.33-1.89-1.08,2.26-2.44,2.26-2.44-2.8-.81,3.34-2.53,3.34-2.53-2.71-2.08,1.35-2.89,1.35-2.89-1.71-3.25-.99-2.89,1.08-4.87,5.73-5.49,6.31-14.34,6.31-14.34l-1.71.18c.81-1.68,1.39-3.28,1.82-4.76.82.24,2.25.59,3.67.64,2.18.07,4.72.37,6.54.57,1.82.2,1.2-.51,3.37-.57,2.17-.05,2.18.07,1.92-.65Z"/><path class="cls-7" d="M180.73,166.04s2.17-2.4,4.23-6.97c2.06-4.57,1.71-8.34,1.71-8.34,0,0-.23,1.14-1.6,3.08-1.37,1.94-3.08,2.17-3.08,2.17.11-1.03,2.4-6.74,3.08-9.71.69-2.97-.91-7.31-1.94-9.82-1.03-2.51-1.83-3.77-3.88-6.62-2.06-2.86-2.74-3.08-4.8-2.51-10.79,3-14.96,7.54-16.68,8.91-1.71,1.37-11.54,10.17-11.54,10.17,16.11-18.62,26.27-19.3,26.39-19.65.11-.34,1.48-4,.91-5.48-.57-1.49-7.54-9.94-10.62-11.88-3.08-1.94-8.45-3.77-8.45-3.77,0,0-2.74-.11-4.8.91-2.06,1.03-6.28,5.25-9.25,8.45-2.97,3.2-8.11,11.42-8.11,11.42,1.71-3.31,5.71-10.28,9.14-14.39,3.43-4.11,8.8-7.31,8.8-7.31,0,0-2.17-5.03-2.63-5.25-.46-.23-12.11-5.6-12.11-5.6,0,0-2.28.34-3.2.46-.91.11-1.69.41-1.69.41,0,0-1.01.65-3.87,3.39-2.86,2.74-8.14,11.16-8.14,11.16,5.25-10.17,10.99-15.14,10.99-15.14l-1.86-3.82c-11.88-3.65-20.33-2.4-23.53-2.17-2.63.19-8.79,1.83-9.25,2.4-.46.57-1.37,4-1.37,4l4.23,4.11c4.23,4.11,6.4,10.74,6.4,10.74-3.54-7.88-10.28-13.36-10.85-13.93-.57-.57-1.24-1.21-2.26-1.35-1.32-.18-3.45-.47-4.02-.25-.57.23-11.65,4.91-11.99,5.48-.34.57-1.83,5.48-1.83,5.48,10.62,5.14,17.02,19.65,17.02,19.65-6.05-10.85-13.14-15.99-15.65-17.59-2.51-1.6-4.34-2.4-5.83-1.83-1.48.57-9.25,3.88-10.51,5.03-1.26,1.14-9.02,10.39-9.02,10.39l1.49,5.48c16.22,6.05,21.93,20.22,21.93,20.22-10.85-17.36-22.96-19.42-22.96-19.42-.2-.02-.39-.03-.58-.04-6.21-.18-8.95,6.93-11.02,13.41-2.14,6.68-.13,11.39.33,12.94.47,1.57,1.21,2.7,1.21,2.7-2.03-1.18-3.74-4.49-3.74-4.49-.53,7.52,5.24,14.5,5.24,14.5-1.34,1.18-4.1-1.32-4.1-1.32,0,0-.11.69.92,3.37,1.78,4.6,4.06,6.59,5.6,7.52,1.55.93,1.92,1.18,2.14,2.26.22,1.08-2.14,1.8-2.14,1.8,1.92.03,2.54.5,3.25,1.83.59,1.1-.59,1.61-1.03,1.75,0,0,0,0,0,0,.28-.03,1.06.03,3.13.75,2.94,1.02,1.39,2.17,1.39,2.17,1.36-.19,2.91.68,3.03,1.36.12.68-.56.84-.56.84,0,0,.9.62,2.76,1.76,5.41,3.33,8.59,3.5,8.59,3.5-.72-3.22,3.97-5.14,8.08-4.46,4.12.68,11.77,3.99,15.06,5.23,3.28,1.24,8.48,4.02,8.48,4.02-.06-.19-.43-2.17-.5-3.72-.06-1.55.25-2.41.25-2.41l-.03-.4c-.15-.68-2.48-9.54-2.6-10.09-.04-.18-.12-.61-.21-1.13-.02-.12-.05-.26-.07-.4-.17-1.02-.36-2.16-.36-2.16l-.23-6.09.09.39s.48-.79,1.14-2.85c.66-2.06,7.31-14.95,7.84-16.24.53-1.3,2.14-6.13,2.14-6.13,0,0,.28,1.14,1.28-.14,1-1.28,1,.29,2.14-1.28s4.84-3.56,6.7-3.56,5.12,4.73,5.98,4.42,1.28,4.27,1.28,4.27l1-.14s.29,1.57.21,2.62c-.08,1.06,2.78,4.93,3.92,7.35s3.56,10.03,3.56,10.03l1.03,8.45-3.49,12.37s.4.08.63,2.25c.23,2.17-.8,4.68-.8,4.68,0,0,19.38-10.27,25.92-9.93,6.47.34,5.77,4.92,5.77,4.92,5.83-.46,11.61-5.11,11.61-5.11-.33-.07-1.49-.5-.81-1.3.69-.8,2.86-1.03,2.86-1.03-.8-.69-.46-1.26.91-1.94,1.37-.69,3.66-1.37,3.66-1.37-1.48-1.14-1.37-1.48-.46-2.4.91-.91,2.06-.91,2.06-.91-2.22-2.07-.91-2.86.46-3.88,1.37-1.03,2.97-2.63,4.11-4.23,1.53-2.14,2.63-6.97,2.63-6.97,0,0-1.48.91-2.17,1.14-.69.23-2.51.8-2.51.8Z"/><path class="cls-7" d="M110.92,166.62c.06,0,.11-.02.17-.02-.06,0-.11.01-.17.02Z"/><path class="cls-7" d="M111.43,166.58s-.01,0-.02,0-.01,0-.02,0c0,0,.01,0,.02,0s.01,0,.02,0Z"/><path class="cls-7" d="M111.39,166.58s-.02,0-.03,0c0,0,.02,0,.03,0h0Z"/><polygon class="cls-7" points="111.43 166.58 111.43 166.58 111.43 166.58 111.43 166.58"/><path class="cls-7" d="M111.08,166.6c.09,0,.19-.01.28-.02-.09,0-.19,0-.28.02Z"/><path class="cls-7" d="M110.78,166.64s.09-.01.13-.02c-.04,0-.09.01-.13.02Z"/><path class="cls-7" d="M111.43,166.58h0s-.01,0-.02,0c0,0,.01,0,.02,0Z"/><polygon class="cls-7" points="111.39 166.58 111.39 166.58 111.39 166.58 111.39 166.58"/><path class="cls-7" d="M111.41,166.58s-.01,0-.02,0h0s0,0,0,0h0s.01,0,.02,0Z"/><path class="cls-7" d="M111.39,166.58s0,0,.02.02c.01-.01.02-.02.02-.02,0,0-.01,0-.02,0s-.01,0-.02,0Z"/><path class="cls-5" d="M79.18,192.39c-10.04-3.21-11.64.94-9.01,1.13,2.61.19,8.16,1.3,11.75,2.42,6.44,2.1,11.48,4.66,16.11,7.31l.25.13s.2.53.26.75c.07.24.28.9.23.87-8.41-4.99-16.55-8.64-31.12-10.29-1.77-.2-1.62-1.39-1.16-2.19.72-1.33,2.98-4.07,12.68-.12Z"/><path class="cls-5" d="M147.26,191.19c8.83-2.28,8.17,1.94,5.54,2.13-2.61.19-8.16,1.3-11.75,2.42-6.02,1.97-10.96,4.38-16.46,7.43l-.54,1.64c9.13-5.23,17.4-8.81,31.26-10.3,1.22-.13,1.56-1.13,1.27-2.16-.28-1.04-1.64-3.71-9.33-1.15Z"/><path class="cls-1" d="M87.94,136.94c1.35,2.57,3.13,8.36,3.13,8.36,0,0-3.76-7.96-7.01-12.51-2.62-3.66-7.53-8.76-7.53-8.76,0,0,5.03,3.87,7.65,7.2,1.56,1.98,2.42,3.14,3.77,5.71Z"/><path class="cls-1" d="M43.22,169.23c2.41,2.66,4.07,4.24,6.98,6.31l1.33.66c-3.32-2.49-4.07-6.23-8.31-6.98Z"/><path class="cls-1" d="M128.49,145.99s1.95-3.38,3.49-5.34c2.58-3.29,7.78-7.39,7.78-7.39,0,0-4.99,4.93-7.43,8.64-1.55,2.36-3.47,6.37-3.47,6.37l-.36-2.27Z"/><path class="cls-1" d="M52.13,121.16s7.91-9.19,8.73-9.78c.81-.58,7.22-3.49,9.19-4.07,1.98-.58,3.49-1.05,3.49-1.05,0,0-.03-.03-.08-.09-1.94-1.12-3.43-1.61-4.68-1.13-1.48.57-9.25,3.88-10.51,5.03-1.26,1.14-9.02,10.39-9.02,10.39l1.49,5.48c12.63,4.71,18.89,14.34,21.04,18.37l.83,1.7s-5.35-16.95-20.48-24.86Z"/><path class="cls-1" d="M91.09,94.1c-1.22-.16-3.45-.47-4.02-.25-.57.23-11.65,4.91-11.99,5.48-.34.57-1.83,5.48-1.83,5.48,9.53,4.61,15.65,16.75,16.81,19.2,2.72,5.58,4.32,9.16,4.32,9.16-1.87-10.69-8.5-22.49-12.1-26.22s-5.47-5.47-5.47-5.47c0,0,.12-.58,3.03-2.1,2.91-1.51,8.5-3.72,8.5-3.72h3.49c.82,0,1.81.38,2.64.79-.59-.54-.99-.89-1.12-1.01-.57-.57-1.24-1.22-2.26-1.35Z"/><path class="cls-1" d="M103.11,102.61c-2.09-4.84-6.98-10.2-6.98-10.2,4.07-1.86,13.97-2.79,20.13-2.21,6.17.58,10.32,2.14,10.01,2.56-.68.93-3.33,4.94-5.36,8.46-2.54,4.41-3,9.39-3,9.39.2-.37,1.13-2.22,1.32-2.55,5.07-9.35,10.35-13.94,10.35-13.94l-1.86-3.82c-11.88-3.65-20.33-2.4-23.53-2.17-2.63.19-8.79,1.83-9.25,2.4-.46.57-1.37,4-1.37,4t1.17,1.14c.72.64,1.4,1.31,2.04,1.98.31.3.64.63,1.01.98,3.5,3.4,5.58,8.52,6.2,10.19,1.21,2.81,1.67,4.76,1.67,4.76,0,0-.63-6.52-2.56-10.98Z"/><path class="cls-1" d="M135.12,95.67c1.16.47,10.71,5.12,11.06,5.7.35.58-.93.47-4.89,5.35-3.96,4.89-8.38,15.6-12.69,27.47,0,0,1.45-3.56,4-8.26-.19.3-.3.47-.3.47,1.71-3.31,5.71-10.28,9.14-14.39,3.43-4.11,8.8-7.31,8.8-7.31,0,0-2.17-5.03-2.63-5.25-.46-.23-12.11-5.6-12.11-5.6,0,0-2.28.34-3.2.46-.91.11-1.69.41-1.69.41,0,0-.23.15-.77.59,1.35-.01,4.38,0,5.28.36Z"/><path class="cls-1" d="M153.85,107.43c.93.12,5.82,1.98,8.85,4.66,3.03,2.68,7.91,8.61,7.91,9.89,0,0-7.35,4.28-12.57,9.43-5.49,5.41-10.19,11.25-16.18,20.09,0,0,3.44-4.15,4.9-5.57-.34.3-.53.48-.53.48,16.11-18.62,26.27-19.3,26.39-19.65.11-.34,1.48-4,.91-5.48-.57-1.49-7.54-9.94-10.62-11.88-3.08-1.94-8.45-3.77-8.45-3.77,0,0-2.74-.11-4.8.91-.48.24-1.07.65-1.74,1.18,1.64-.12,5.22-.38,5.93-.29Z"/><path class="cls-3" d="M174.29,147.82l.88.37h0c-.77.49-1.03,1.01-1.2,1.18.46-.08,1.74.08,2.28.43h0c-4.72,2.08-1.55,2.35-1.55,2.35,0,0-1.52,1.38-3.31,2.56-.16.1.16-.09,0,0,.58-.03,1.71-.16,2.35-.64h0s-.19.94-.69,1.71c-.43.64-1.02,1.12-1.87,1.66.14.03.46.18.59.24l1.16.33-1.04.78c-.6.46-1.27.79-1.91,1.06-.56.24-1.13.44-1.68.68.43-.13,1.9,1.09,1.9,1.09,0,0-.74.49-.81.58.18.07.42.39,1.59.67h0c-1.24.65-1.38,1.02-1.59,1.19.34-.09,1.56-.17,1.99-.43h0c-.21.82-.91,1.74-1.11,1.92l-.7.61c-.12.1-.25.21-.36.32-.11.11-.2.23-.27.36l-.11.35c-.37,1.15-1.26,1.72-2.1,2.11-.11.05-.21.1-.35.17,1.7.24,2.34.03,2.34.03.17.36-1.28,1.37-1.41,1.66-.12.26-.31.65-1.21,1.32-3.09,2.26-7.69,4.51-14.77,5.61-1.09,1.52-2.62,1.71-4.04,1.62l-1.41-.16c-.69-.07-1.71-.4-2.94.21,0,0-.38-.67-.69-1.14,0,0-.67.26-1.31.33-.64.07-1.5-.52-2.42-.97-.93-.45-1.64-.59-2.23-.4-.59.19-.93-.09-1.5.17-.57.26-1.76,1.12-2.92,2.02,0,0-1.67,1.06-2.21,1.44s0,0,.21-2.14c.21-2.14-.27-7.96-.69-9.24,0,0,.22-1.11.8-2.19.49-.91,3.4-5.46,4.08-6.89,0,0,.08,2.09.72,3.92.83,2.38,3.1,4.36,8.02,1.42s10.69-10.23,14.85-17.1c5.09-8.41,13.14-15.92,15.76-16.51,0,0-6.2,6.31-8.18,9.19-1.69,2.47-4.16,6.88-5.73,9.86,0,0,8.13-2.32,12.57-6.22s6.36-7,6.36-7c-.43,8.23-4.14,9.51-4.14,9.51Z"/><path class="cls-6" d="M171.38,154.71s0,0,0,0c.04-.02.07-.04,0,0Z"/><path class="cls-5" d="M139.06,168.92s1.45-.11,2.85-.68c0,0,.07,1.96,1.88,2.84,1.81.88,3.68,1.3,6.95-.26,3.27-1.56,6.17-4.95,6.59-10.17.32-3.97-.35-5.27-.35-5.27,0,0,1.49-2.28,1.64-2.33s1.45-.32,1.45-.32c0,0,3.01,6.9-.31,13.53-3.32,6.64-10.48,10.74-16.33,8.81-4.72-1.56-4.37-6.16-4.37-6.16Z"/><path class="cls-7" d="M151.56,161.63s2.17-2.21,2.71-2.95c0,0,1.06,2.65-.05,4.37-.88,1.36-2.3,1.22-2.73.15-.4-1,.07-1.58.07-1.58Z"/><path class="cls-1" d="M172.21,178.82c-2.74,2.31-4.6,3.66-7.76,5.33l-1.41.48c3.62-2.03,4.86-5.63,9.16-5.81Z"/><path class="cls-1" d="M180.73,166.04s2.17-2.4,4.23-6.97c2.06-4.57,1.71-8.34,1.71-8.34,0,0-.23,1.14-1.6,3.08-1.37,1.94-3.08,2.17-3.08,2.17,1.56-2.35,2.86-6.3,3.31-9.39.44-3.02-.92-7.74-1.95-10.25-1.03-2.51-1.18-3.41-3.23-6.27-2.06-2.86-3.61-3.33-5.67-2.75-.32.09-.63.18-.94.27,3.03-.27,6.42,2.87,9.16,11.4,1.28,3.99,1.37,5.99.88,8.65-.59,3.2-1.47,6.04-4.02,10.35h0c3.55-.17,4.8-1.38,4.8-1.38,0,0-1.38,3.33-2.85,5.84-1.88,3.22-3.42,5.63-3.42,5.63,0,0,1.01-.1,2.57-.35,1.27-.2,2.56-.71,2.56-.71,0,0-1.28,3.7-3.28,5.27-1.99,1.57-5.7,3.42-4.13,6.27,0,0-2.42,1.42-1.71,3.28,0,0-2.71.57-3.28,1.43s-.43,1.57-.43,1.57c0,0-2.99.71-2.99,1.43s.29,1.28.29,1.28c0,0-5.27,3.56-8.69,3.99,0,0-.18-3.4-4.84-4.06-4.15-.59-8.98,1.5-12.82,2.78s-9.69,3.7-12.4,5.13c0,0,.43-1.71-.43-4.13l2.49-8.83s1.92-1.14,2.56-1.64,1.35-1.28,1.57-1.28.93.14,1.35.07,1.71.21,2.35.78,1.99.78,2.49.64.36-.07.36-.07l.71,1s1.28-.71,2.21-.57,3.57.76,6.06-.07c1.71-.57,1.78-1.71,1.78-1.71,0,0,4.77-.57,8.69-2.21,3.92-1.64,6.13-2.99,6.91-4.13.54-.79.78-1.35.78-1.35,0,0,1.57-1.5,1.78-2.21s.21-1.07.21-1.07c0,0-.5-.28.5-1.14s1.85-2.78,2.07-3.63l-.64-.57-.78-.93.93-.36s-.85-.93-1.07-1.07c0,0,2.56-1.42,3.21-2.49l.64-1.07s-.78-.21-1.14-.36c0,0,1.35-1.28,1.28-3.92l.85-.78s-1.14-.57-.21-1.07,1.92-.93,1.92-.93c0,0-.64-1.07-1.14-1.42l-.5-.36s3.7-5.84,2.21-11.9c0,0-4.01,5.81-8.69,9.12-3.46,2.45-8.98,4.46-8.98,4.46,0,0,2.74-4.79,4.42-7.52,1.48-2.4,6.56-7.83,10.01-11.26,0,0-2.75-.2-6.54,2.42-3.96,2.73-8.4,6.95-11.66,12.02-3.22,5-11.86,16.52-16.51,18.76-5.54,2.66-6.16-2.91-6.16-2.91,2.25-5.88,5.96-14.03,9.77-20.83.12-.22.72-1.18,1.61-2.52-1.97,1.92-11.57,13.26-16.78,30.12l.33,1.14s1.87-2.22,3.74-5.86c.02.3.09.66.25,1.1,1.08,2.92,4.15,4.19,9.06,1.25s10.69-10.23,14.85-17.1c5.09-8.41,13.14-15.92,15.76-16.51,0,0-6.2,6.31-8.18,9.19-1.69,2.47-4.16,6.88-5.73,9.86,0,0,8.13-2.32,12.57-6.22s6.36-7,6.36-7c-.43,8.23-4.14,9.51-4.14,9.51l.88.37c-.77.49-1.03,1.01-1.2,1.18.46-.08,1.74.08,2.28.43-4.72,2.08-1.55,2.35-1.55,2.35,0,0-1.52,1.38-3.31,2.56.07-.04.04-.02,0,0,.59-.03,1.7-.16,2.34-.64,0,0-.19.94-.69,1.71-.43.64-1.02,1.12-1.87,1.66.14.03.46.18.59.24l1.16.33-1.04.78c-.6.46-1.27.79-1.91,1.06-.56.24-1.13.44-1.68.68.43-.13,1.9,1.09,1.9,1.09,0,0-.74.49-.81.58.18.07.42.39,1.59.67-1.24.65-1.38,1.02-1.59,1.19.34-.09,1.56-.17,1.99-.43-.21.82-.91,1.74-1.11,1.92l-.7.61c-.12.1-.25.21-.36.32-.11.11-.2.23-.27.36l-.11.35c-.37,1.15-1.26,1.72-2.1,2.11-.11.05-.21.1-.35.17,1.7.24,2.34.03,2.34.03.17.36-1.28,1.37-1.41,1.66-.12.26-.31.65-1.21,1.32-3.09,2.26-7.69,4.51-14.77,5.61-1.09,1.52-2.62,1.71-4.04,1.62l-1.41-.16c-.69-.07-1.71-.4-2.94.21,0,0-.38-.67-.69-1.14,0,0-.67.26-1.31.33-.64.07-1.5-.52-2.42-.97-.93-.45-1.64-.59-2.23-.4-.59.19-.93-.09-1.5.17-.57.26-1.76,1.12-2.92,2.02,0,0-1.67,1.06-2.21,1.44l-.18.58-.22,1.11-2.2,7.79s.23.7.46,2.87c.23,2.17-.8,4.68-.8,4.68,0,0,19.38-10.23,25.92-9.93,6.43.3,5.77,4.92,5.77,4.92,5.83-.46,11.61-5.11,11.61-5.11-.33-.07-1.49-.5-.81-1.3.69-.8,2.86-1.03,2.86-1.03-.8-.69-.46-1.26.91-1.94,1.37-.69,3.66-1.37,3.66-1.37-1.48-1.14-1.37-1.48-.46-2.4.91-.91,2.06-.91,2.06-.91-2.22-2.07-.91-2.86.46-3.88,1.37-1.03,2.97-2.63,4.11-4.23,1.53-2.14,2.63-6.97,2.63-6.97,0,0-1.48.91-2.17,1.14-.69.23-2.51.8-2.51.8Z"/><path class="cls-1" d="M95.29,194.45c-.06-1.55.25-2.41.25-2.41l-.03-.4c-.15-.68-2.48-9.54-2.6-10.09-.04-.18-.34-10.72-.34-10.72l.2-.95.51-2.11c-2.22-15.98-18.35-29.13-18.35-29.13,9.88,11.44,13.5,21.77,13.78,22.6-.22.49-.65,1.2-1.49,2.19-1.16,1.36-4.22,3.34-9.26-1.39-8.37-7.84-9.08-11.27-16.32-20.8-7.23-9.54-12.14-11.84-12.14-11.84,12.79,18.99,12.08,20.42,12.08,20.42,0,0-3.13-1.06-8.7-5.32-7.58-5.79-8.61-9.93-8.61-9.93,0,0-1.15,2.65-1.33,5.52-.17,2.82,1.75,5.5,1.75,5.5l-1.07.93c1.07.57,2.49,1.66,2.49,1.66,0,0-1.42.91-1.56,2.13,0,0,2.16.7,2.87,1.44.89.93.97,1.55.97,1.55l-2.05.05s.22.85.64,1.82c.54,1.23,1.76,2.51,1.76,2.51l-1.39.69s2.46,2.19,3.74,2.73c0,0-1.17.71-1.82.91l1.44,1.39-2.03.43c.9,2.75,3.27,4.05,3.27,4.05,0,1.35,1.19,1.83,1.19,1.83l-.87.79s.48.46,1.67,1.89,2.57,2.68,6.06,3.35c3.35.64,1.99,1.85,1.99,1.85,0,0,3.25.21,6.98,1.64s3.72,2.32,3.72,2.32l1.75.4c.72-.56,1.59-.24,3.18-.16,1.59.08,3.18-.72,3.18-.72,0,0,1.11.4,3.02-.56,1.91-.95,3.18-.95,3.89-.48.72.48,1.03.95,2.07,1.51,1.03.56,1.35.72,1.83,1.43.48.72,2.54,9.3,2.54,9.3-.4,1.35-.05,3.63-.05,3.63-4.15-2.65-9.49-4.1-14.02-5.77-4.53-1.67-8.17-2.8-11.47-2.42-4.99.57-5.08,3.93-5.08,3.93-3.86-.61-8.52-3.93-8.52-3.93.52-1.55-2.7-3.05-2.7-3.05.28-1.9-3.69-2.39-3.69-2.39.16-2.15-1.27-2.7-1.27-2.7l.4-.4-.65-.57c1.43-1.47-.23-3.01-.86-3.33s-2.29-1.6-3.74-2.94c-2.37-2.2-3.07-4.83-3.07-4.83,0,0,1.94.41,3.87-.74,0,0-1.26-1.92-3.12-4.96-1.77-2.89-2.28-5.45-2.28-5.45,1.34,1.65,4.01,1.75,4.01,1.75-1.33-3.19-1.73-4.66-2.35-6.95-.93-3.42-1.15-8.46-.11-12.18,1.45-5.17,3.53-8.23,5.84-10.12,1.83-1.5,4.07-2.12,4.07-2.12h-.22c-5.73-.16-9.46,5.07-11.39,11.6-2.24,7.59.33,13.65.85,15.18.33.97,1.06,2.28,1.06,2.28-1.9-.97-3.74-4.49-3.74-4.49-.53,7.52,5.24,14.5,5.24,14.5-1.34,1.18-4.1-1.32-4.1-1.32,0,0-.11.69.92,3.37,1.78,4.6,4.06,6.59,5.6,7.52,1.55.93,1.92,1.18,2.14,2.26.22,1.08-2.14,1.8-2.14,1.8,1.92.03,2.54.5,3.25,1.83.59,1.1-.59,1.61-1.03,1.75,0,0,0,0,0,0,.28-.03,1.06.03,3.13.75,2.94,1.02,1.39,2.17,1.39,2.17,1.36-.19,2.91.68,3.03,1.36.12.68-.56.84-.56.84,0,0,.9.62,2.76,1.76,5.41,3.33,8.59,3.5,8.59,3.5.08-3.35,3.97-5.14,8.08-4.46,4.12.68,11.77,3.99,15.06,5.23,3.28,1.24,8.48,4.02,8.48,4.02-.06-.19-.43-2.17-.5-3.72Z"/><path class="cls-3" d="M92.62,171.37c-.55-2.48-3.03-7.97-3.03-7.97-.2,1.02-1.14,2.41-2.76,3.21-4.23,2.11-10.08-1.73-14.19-6.84-4.9-6.09-10.33-16.5-14.19-21.18-3.86-4.68-6.84-7.28-6.84-7.28,0,0,6.24,8.25,9.14,14.27l2.9,6.02s-9.32-1.66-19.11-13.92c0,0-.51,2.91.25,4.91.57,1.5,2.33,3.49,2.33,3.49l-1.21.64s.74.39,1.25.73c.47.31.99.95.99.95-1.39.31-2.24,1.45-2.24,1.45,0,0,1.4-.03,3.06,2.28.57.79.84,2.07.84,2.07h-.92c-.55,0-.93.14-.93.14.75,1.66,3.11,3.06,3.34,3.13l-1.7.84s2.14,1.8,4.37,2.28c0,0-.42,1.12-2.82,1.55l1.64.98s-.3,1.38-2.28,1.43c.21,1.12,3.32,2.44,3.32,2.44,0,0-.15.82.52,1.34.67.52,1.49,1.11,2.01,1.19,0,0-.71,1.13-2.1.97,0,0,2.25,2.45,4.63,3.27,2.38.82,6.97.97,5.04,2.54,0,0,3.58.36,5.96,1.4,2.38,1.04,3.52,2.09,3.52,2.09l1.24.14s.61-.43,1.8-.35c1.19.07,2.95.06,3.55-.24l.59-.3s.67.3,1.49-.07c.82-.37,2.97-1.41,4.24-1.34,1.26.07,2.82.59,3.72,1.49.89.89,1.63,1.19,2.08,1.41s.97.89.97.89c0,0,.38-6.28-.45-10.03Z"/><path class="cls-7" d="M71.56,161.99s-.75-.77-1.18-1.19c-.43-.42-1.48-1.62-1.48-1.62,0,0-.19.87-.18,1.65,0,.61.16,2.06.76,2.85.51.67,1.23.94,1.73.34.45-.53.57-1.1.35-2.04Z"/><path class="cls-5" d="M81.5,168.23s1.62.39,2.57.27c0,0,.96,3.15-2.3,5.66-3.26,2.51-8.98,1.76-13.14-1.87-4.17-3.63-5.94-7.61-6.39-11.58-.43-3.79,1.22-7.43,1.92-8.29,0,0,.94,1.57,2.23,3.5,0,0-1.32,4.54.85,9.15,1.76,3.74,4.54,6.43,9.24,6.64,4.7.21,5.01-3.49,5.01-3.49Z"/><path class="cls-3" d="M112.12,141.2c-3.1,0-5.24,2.99-5.66,3.42l-.75-1.5s-1.39,2.14-1.71,2.78l-1.07-2.78s-.43,3.63-1.18,5.77c-.75,2.14-1.71,5.13-2.99,7.27-1.28,2.14-5.34,9.19-6.09,13.68-.75,4.49-1.18,5.98.32,12.08,1.5,6.09,2.46,9.4,2.56,10.05,0,0-.64,1.39-.11,3.85s.75,2.99,1.39,3.95,1.07,2.67,1.5,3.74.75,2.89,1.07,3.53.85,2.14,2.14,2.78l.43.21s1.39,5.88,2.24,9.72c.85,3.85,1.82,9.62,3.21,13.14,1.39,3.53,2.78,5.34,3.95,6.31,0,0,1.92-1.5,2.67-3.42.75-1.92,1.92-4.81,2.89-9.4.96-4.6,2.67-11.97,3.1-13.57s.64-2.56.64-2.56c0,0,.85-.21,1.5-1.07s1.28-2.03,1.71-3.63.53-2.78,1.28-4.06,1.92-3.63,2.24-6.52c.32-2.89-.47-3.93-.36-4.25s1.32-5.05,2.07-7.72,1.82-5.13,1.5-8.87-2.56-10.26-3.85-13.14-3.21-5.88-3.74-6.63-.75-1.92-.64-2.89-.11-3.63-.11-3.63l-1.22,1.84s.04-1.52-.49-2.8-1.71-2.78-1.71-2.78l-.32,1.28s-1.29-1.9-3.1-3.31c-.96-.75-3.31-.85-3.31-.85Z"/><path class="cls-5" d="M128.58,172.22c-.44-2.51-2.16-8.15-3.41-11.18-.84-2.02-2.11-3.97-3.05-5.39-.48-.73-.86-1.31-1.01-1.65-.23-.52-.29-1.11-.29-1.57,0-.04,0-.08,0-.12-.38.44-1.23,1.44-1.23,1.44v-.58s0-2.36-.11-3.83c-.07-.98-.37-1.6-.56-1.9-.16.19-.48.58-.48.58l-.16-.13s-.58-.47-1.65-2.3c-.96-1.63-2.61-2.67-4.42-2.78-1.61-.1-3.26,1.45-3.99,2.38-.75.96-2,2.21-2.05,2.26l-.2.2s-.33-.6-.49-.88c-.3.51-1.75,2.95-1.75,2.95,0,0-.25-.7-.35-.97-.13.45-.35,1.15-.68,2.15-.59,1.76-2.22,5.22-4.61,9.76-2.27,4.32-3.24,6.8-4.15,10.64-.23.95-.34,1.98-.34,3.09,0,2.41.54,5.2,1.62,8.44.75,2.25,1.24,4.96,1.42,6.05.53-.73,1.61-2.25,1.92-2.87.46-.93,1.07-2.85,1.37-5.06.32-2.34,1.28-6.53,1.94-8.07.41-.97,2.04-4.31,5.53-6.72,3.35-2.31,5.68-1.27,7.61-.11,1.94,1.16,3.08,3.23,4.3,5.42l.48.86c1.2,2.12,2.07,4.51,2.59,7.12.52,2.59,1.02,4.47,1.37,5.18.34.67,1.75,3.02,2.31,3.96.28-.93.97-3.29,1.78-6.69.66-2.76.97-4.96.97-6.91,0-.96-.08-1.86-.23-2.73Z"/><path class="cls-7" d="M118.38,204.69c.75-4.92,1.71-8.44.53-20.41-1.14-11.57-7.11-17.31-7.5-17.68-.4.37-6.37,6.1-7.5,17.68-1.18,11.97-.21,15.5.53,20.41s3.74,15.25,4.17,18.92c.95,8.2,2.83,13.33,2.83,13.33,0,0,1.66-4.57,2.77-13.33.46-3.66,3.42-14,4.17-18.92Z"/><path class="cls-1" d="M104.44,204.69c-.75-4.92-1.71-8.44-.53-20.41,1.14-11.57,7.11-17.31,7.5-17.68-.01-.01-.02-.02-.02-.02,0,0-.02,0-.03,0-.09,0-.19,0-.28.02-.06,0-.11.01-.17.02-.04,0-.09.01-.13.02-3.21.58-6.19,4.7-7.09,6.4-.96,1.82-2.14,6.82-3.11,13.11-.98,6.29-.09,10.2.87,14.79.96,4.6,2.67,9.72,5.02,21.48,2.35,11.76,4.96,14.51,4.96,14.51,0,0-1.88-5.14-2.83-13.33-.42-3.67-3.42-14-4.17-18.92Z"/><path class="cls-1" d="M122,186.25c-.98-6.29-2.28-10.23-3.24-12.05-.96-1.81-3.94-7.58-7.33-7.62h0,0s0,0-.02.02c.4.37,6.37,6.1,7.5,17.68,1.18,11.97.21,15.5-.53,20.41-.75,4.92-3.7,15.26-4.17,18.92-1.11,8.76-2.77,13.33-2.77,13.33,0,0,2.33-2.8,4.68-14.55,2.35-11.76,4.29-16.84,5.25-21.43.96-4.6,1.61-8.4.63-14.69Z"/><path class="cls-1" d="M103.77,209.29s-2.32-1.18-3.18-3.96c-.85-2.78-2.38-5.81-2.78-6.63-.76-1.54-1.5-4.81-.85-6.63s1.18-2.03,1.71-2.89-.19-.01-.06,3.85c.29,8.66,5.16,16.25,5.16,16.25Z"/><path class="cls-1" d="M119.02,209.23s2.32-1.18,3.18-3.96,2.46-5.77,2.78-6.63,1.66-4.2.85-6.63c-.41-1.23-.62-1.68-1.12-2.56-.63-1.1-1.31-2.42-1.31-2.42-.5-1.02.96,2.34.82,6.2-.29,8.18-5.21,15.99-5.21,15.99Z"/><path class="cls-3" d="M119.98,168.93h0c.1.37.25.88.74,2.03.48,1.14,1.45,2.92,1.45,2.92,0,0,.73-.92,1.06-2.72.23-1.24-.03-2.68-.68-3.63-.92-1.34-3.13-2.18-2.56,1.39Z"/><path class="cls-3" d="M102.52,168.93h0c-.1.37-.25.88-.74,2.03-.48,1.14-1.45,2.92-1.45,2.92,0,0-.73-.92-1.06-2.72-.23-1.24.03-2.68.68-3.63.92-1.34,3.13-2.18,2.56,1.39Z"/><rect class="cls-2" width="240" height="240"/></g></svg>