<?xml version="1.0" encoding="utf-8"?>
<!-- Generator: Adobe Illustrator 24.0.1, SVG Export Plug-In . SVG Version: 6.00 Build 0)  -->
<svg version="1.1" id="Lager_1" xmlns="http://www.w3.org/2000/svg" xmlns:xlink="http://www.w3.org/1999/xlink" x="0px" y="0px"
	 viewBox="0 0 151.8 158" style="enable-background:new 0 0 151.8 158;" xml:space="preserve">
<style type="text/css">
	.st0{fill:#FFFFFF;}
	.st1{fill:#007A33;}
	.st2{fill:#AB2328;}
	.st3{fill:#F6BE00;}
</style>
<g>
	<path class="st0" d="M102.3,14.2c0.9-1.3,0.9-3,0-4.3c-0.9-1.4-3.5-2.1-5.2-1.9c-1.6,0.2-4.6,0.5-10.4,2c0,0-0.2,0.1-0.4,0.1
		c-0.5,0-0.8-0.3-1-0.7c-1.3-2.3-3.1-5.5-3.9-6.9c-0.9-1.5-2.1-2.3-3.7-2.4c-1.5,0.1-2.7,0.9-3.7,2.4c-0.9,1.4-2.7,4.7-3.9,6.9
		c-0.2,0.4-0.5,0.7-1,0.7c-0.1,0-0.4-0.1-0.4-0.1c-5.8-1.5-8.7-1.9-10.4-2c-1.7-0.2-4.3,0.5-5.2,1.9c-0.8,1.3-0.8,3,0,4.3
		C24.5,24.3,3.9,51.7,3.9,84c0,40.9,33.1,74,74,74s74-33.1,74-74C151.8,51.7,131.1,24.3,102.3,14.2"/>
	<path class="st1" d="M41.2,84.6c0,2.7-1.1,3.5-4.5,4.5c-0.9,0.3-1.2-0.4-1.2-0.8c0-2,0-4.7,0-4.7c0-2.3,2.3-2.3,2.3-2.3h1
		c2.3,0,2.3,2.3,2.3,2.3S41.2,84.3,41.2,84.6 M39.7,128.8c2.8,2.3,5.7,4.4,8.9,6.2l0-0.1c-0.9-1.8-1.6-3.3-1.6-6l0-32.2
		c0-3.6-3.7-6-4-6.1c3.5-2.2,4-4,4-6.6c0-0.3,0,0.8,0-1.8c0-2.6-1-6-5.6-6H27.9v4.9c1.9,0.3,1.9,2.3,1.9,2.3v19.8
		c0,1.7-1.2,2.2-1.9,2.3v3c0,5.6,2,9.6,3.9,12.1c0.2,0.2,1.8,2.1,2.4,2.8c0,0,1.3,1.3,1.9,2c0,0,0.9,0.9,1.4,1.3v-21.2
		c-0.7-0.1-1.9-0.6-1.9-2.3v-9h3.1c2.3,0,2.3,2.9,2.3,2.9l0,6c0,1.3-0.7,1.8-1.3,2.1V128.8z M57.6,71.8c0-1.4-1.2-2.6-2.6-2.6
		c-1.4,0-2.6,1.2-2.6,2.6c0,1.4,1.2,2.6,2.6,2.6C56.4,74.4,57.6,73.2,57.6,71.8 M64.6,71.8c0-1.4-1.2-2.6-2.6-2.6
		c-1.4,0-2.6,1.2-2.6,2.6c0,1.4,1.2,2.6,2.6,2.6C63.4,74.4,64.6,73.2,64.6,71.8 M58.9,105.7h-1c-2.3,0-2.3-2.3-2.3-2.3V83.5
		c0-2.3,2.3-2.3,2.3-2.3h1c2.3,0,2.3,2.3,2.3,2.3v19.8C61.3,105.7,58.9,105.7,58.9,105.7 M58.4,139.4c3.6,1.3,7.4,2.2,11.3,2.7
		c-0.6-0.7-1-1.4-1.3-2c-1.3-2.6-1.3-4.5-1.3-4.6c0,0,0-53.7,0-53.8c-0.1-2-0.8-3.7-2.3-4.7c-1.5-0.9-4.7-1-6.3-1
		c-1.6,0-4.8,0.1-6.3,1c-1.6,1-2.2,2.9-2.3,5.1c0,0,0,11.9,0,11.9s0,0,0,0.1l0,34.9c0,6.5,4.5,8.7,6.7,9.7c0.3,0.1,0.6,0.3,0.8,0.3
		C57.4,139,58,139.3,58.4,139.4 M87,86.5c0,0,0-3,0-4.6c0-0.5-0.1-1.6-0.2-1.9c-0.3-1.3-1-2.4-2-3c-1.5-0.9-4.7-1-6.3-1
		c-1.6,0-4.8,0.1-6.3,1c-1.6,0.9-2.2,2.7-2.3,4.7c0,0.1,0,1.9,0,1.9l0,51.7c0,0,0,1.6,1.1,3.6c1.3,2.5,3.6,3.8,6.8,3.8h0.4
		c0.4,0,0.9,0,1.3,0c0.7-0.1,2.2-0.3,3.7-1c2.4-1.3,3.7-2.9,3.8-6V91.9h-8.5v4.9h2.8v6.6c0,2.3-2.3,2.3-2.3,2.3h-1
		c-2.3,0-2.3-2.3-2.3-2.3V83.5c0-2.3,2.3-2.3,2.3-2.3h1c2.3,0,2.3,2.3,2.3,2.6v2.7L87,86.5z M107.5,127.6l0-27.2h-4.3v2.9
		c0,2.3-2.3,2.3-2.3,2.3h-1c-2.3,0-2.3-2.3-2.3-2.3s0-20,0-20.1c0.1-1.5,1.3-1.9,2-2v-4.9h-9.7v4.9c1.9,0.3,1.9,2.3,1.9,2.3v19.8
		c0,1.7-1.3,2.2-1.9,2.3c0,0.9,0,29.1,0,29.1c0,3.3-1,5.6-2.4,7.1c4.3-0.7,8.4-1.8,12.4-3.4v0C101.1,138,107.5,135.3,107.5,127.6
		 M123.8,100.4v2.9c0,2.3-2.3,2.3-2.3,2.3h-1c-2.3,0-2.3-2.3-2.3-2.3l0-8.5h5.9V90l-5.9,0v-6.4c0-2.3,2.3-2.3,2.3-2.3h1
		c2.3,0,2.3,2.3,2.3,2.3v2.1h4.1v-9.3l-17.4,0v4.9c1.9,0.3,1.9,2.3,1.9,2.3v19.8c0,1.7-1.3,2.2-1.9,2.3l0,21.5c0,2.5-0.5,5-1.3,6.6
		c4.3-2.6,8.2-5.8,11.7-9.5c1.1-1.2,2.2-2.4,3.2-3.6c1.9-2.5,3.9-6.6,3.9-12.3l0-8H123.8z M142.5,83.5c0,17.3-6.7,33.5-18.9,45.7
		c-12.2,12.2-28.3,18.9-45.5,18.9h-0.4c-17.2,0-33.4-6.8-45.5-18.9c-12.2-12.2-18.9-28.4-18.9-45.7c0-11.4,3-22.5,8.6-32.3
		c5.5-9.5,13.3-17.5,22.7-23.1c0.3-0.2,1.8-1,2.9-1.4c-1.4,1-2.5,2.4-3,4c-3,0.7-5.4,2.8-6.6,5.6c-3.3,0.9-5.9,3.6-6.7,6.8
		c-3.4,1.6-5.8,5-5.8,9c0,3.6,2,6.7,5,8.4c1.4,3.8,5,6.5,9.3,6.5c1.8,0,3.5-0.6,5-1.4c0.2,0,0.4,0,0.5,0c1.7,0,3.2-0.6,4.4-1.5
		c0.1-0.1,0.2-0.1,0.3-0.2c4.6,1,8.9-0.4,12.9-2.6c0.1,0,0.2,0,0.4,0c3,3.7,5.5,3.9,5.5,3.9s2.9-4.5,6.4-4.6
		c1.4,1.7,6.2,2.6,6.2,2.6s3.2-1.2,4-1.7c2.2,2.2,5,2.7,5,2.7s1.8-2.1,3-2.5c0.5,0.2,1.2,0.5,2.1,0.6c3.3,1.5,6.9,2.3,10.7,1.5
		c0.1,0.1,0.2,0.1,0.3,0.2c1.2,0.9,2.8,1.5,4.4,1.5c0.2,0,0.4,0,0.5,0c1.5,0.9,3.2,1.4,5,1.4c4.3,0.1,8-2.7,9.3-6.5
		c2.9-1.7,4.9-4.8,5-8.4c0-4-2.3-7.5-5.8-9c-0.9-3.3-3.5-5.9-6.7-6.8c-1.2-2.8-3.7-4.9-6.6-5.6c-0.5-1.6-1.6-3-3-4
		c1.1,0.4,2.5,1.2,2.9,1.4c9.4,5.6,17.3,13.6,22.7,23.1C139.5,61,142.5,72.2,142.5,83.5 M109.1,33c0,0.5-0.1,1-0.2,1.5
		c-1.1-1.9-2.3-3.9-3.7-5.7c-0.3-0.3-0.5-0.6-0.6-0.9C107.1,28.2,109.1,30.4,109.1,33 M117.7,46.7c1.5,1.4,2.5,3.4,2.4,5.5
		c0,1.9-0.8,3.6-2,4.9c-0.3-2.4-1.7-4.5-3.7-5.7C116.1,50.3,117.3,48.7,117.7,46.7 M115.4,45.2c0,1.6-0.8,3-1.9,3.9
		c-0.2-2.8-1-5.9-2.1-8.9C113.7,40.6,115.4,42.7,115.4,45.2 M110.4,37.5C110.4,37.5,110.3,37.5,110.4,37.5c-0.1-0.1-0.1-0.2-0.1-0.2
		c0.8-1.1,1.3-2.5,1.3-4c2.8,1.1,4.8,3.8,4.7,7c0,0.1,0,0.1,0,0.2C114.9,38.7,112.8,37.5,110.4,37.5 M118.7,40.3
		c0-0.4,0-0.8-0.1-1.1c2.4,1.3,4,3.7,3.9,6.6c0,1-0.2,2-0.6,2.9c-0.8-2-2.2-3.7-4-4.8C118.4,42.7,118.7,41.5,118.7,40.3 M123.5,50.8
		c0.9-1.4,1.4-3,1.4-4.7c1.9,1.4,3.1,3.6,3,6c0,1.9-0.8,3.7-2,5C125.9,54.6,125,52.4,123.5,50.8 M123.5,57.3
		c-0.1,4.1-3.4,7.3-7.5,7.3c-0.5,0-1-0.1-1.4-0.2c1.4-0.9,2.6-2.3,3.2-3.9c2.5-1.5,4.3-4.1,4.7-7.1
		C123.2,54.5,123.6,55.9,123.5,57.3 M112.7,57.1c0.4-1.1,0.6-2.2,0.8-3.4c1.4,0.9,2.3,2.5,2.3,4.3c0,2.8-2.4,5.1-5.2,5.1
		c-0.7,0-1.4-0.2-2-0.4C110.3,61.5,111.8,59.6,112.7,57.1 M39.4,40.2c0-3.2,1.9-5.9,4.7-7c0.1,1.5,0.5,2.8,1.3,4
		c0,0.1-0.1,0.2-0.1,0.2c0,0,0,0,0,0c-2.4,0-4.5,1.2-5.9,2.9C39.4,40.4,39.4,40.3,39.4,40.2 M40.3,45.2c0-2.5,1.7-4.5,4-5.1
		c-1.1,3.1-1.9,6.1-2.1,8.9C41,48.1,40.3,46.7,40.3,45.2 M38,46.7c0.4,2,1.6,3.6,3.2,4.7c-2,1.2-3.4,3.3-3.7,5.7
		c-1.2-1.3-1.9-3-2-4.9C35.5,50,36.5,48.1,38,46.7 M29.8,57c-1.2-1.3-2-3-2-5c0-2.5,1.2-4.7,3-6c0.1,1.7,0.6,3.3,1.4,4.7
		C30.7,52.4,29.8,54.6,29.8,57 M33.2,53.4c0.4,3,2.2,5.6,4.7,7.1c0.6,1.6,1.7,3,3.2,3.9c-0.5,0.1-0.9,0.2-1.4,0.2
		c-4.1,0-7.4-3.2-7.5-7.3C32.1,55.9,32.5,54.5,33.2,53.4 M37,40.3c0,1.3,0.3,2.5,0.7,3.6c-1.8,1.1-3.2,2.8-4,4.8
		c-0.4-0.9-0.6-1.9-0.6-2.9c0-2.9,1.6-5.3,3.9-6.6C37,39.5,37,39.9,37,40.3 M47.1,62.6c-0.6,0.3-1.3,0.4-2,0.4
		c-2.8,0-5.1-2.2-5.2-5.1c0-1.8,0.9-3.4,2.3-4.3c0.1,1.2,0.4,2.3,0.8,3.4C43.8,59.6,45.4,61.5,47.1,62.6 M46.6,33
		c0-2.6,1.9-4.8,4.5-5.1c-0.2,0.3-0.4,0.6-0.6,0.9c-1.4,1.8-2.6,3.7-3.7,5.7C46.7,34,46.6,33.5,46.6,33 M147.2,83.5
		c0-12.2-3.2-24.2-9.3-34.6c-5.9-10.2-14.3-18.7-24.4-24.8c-0.6-0.3-2.5-1.4-3.9-1.9c-4-1.6-7.7-1.2-9.4,1.1c-0.9,1.2-1.3,3.9,2,8.3
		c6.1,8.1,8.9,18.1,6.8,24.1c-0.8,2.4-2.3,4.1-4.7,4.7c-0.7,0.2-1.4,0.2-2.2,0.2c2-1.6,2.9-3.7,3-4.1l1-2.4c0,0-5.4-0.7-4.8-1.1
		c0.6-0.5,3.7-0.2,3.7-0.2c-0.7-1.1-4.4-5.1-5.8-5.8l1.9-0.9c0,0-0.5-1.6-1.6-2.8c0,0-0.7-3.8-2-5.9c0.8-1.4,3.7-2.2,3.7-2.2
		s-1.6-3-5.1-3.8c2.3-1.2,1.3-14,1.3-14s-1.4,2.3-2.9,3.8c-1.3,1.4-2.5,1.3-2.5,1.3c1.5-3.2,6.3-9.6,6.3-9.6l-4.4,0.5
		c-2.4,0.3-3.7,0.8-4.3,1.3c-1.5,0-2.7,1-3.2,2.3c-0.6-0.6-1.5-1-2.4-1c-0.4,0-0.7,0.1-1.1,0.2c0-0.2,0-0.4,0-0.6
		c0-1.6-0.9-3-2.1-3.8c0-0.2-1-4.4-2.9-7.1c-1.8,2.8-3.1,6.8-3.1,7.1c-1.3,0.7-2.1,2.1-2.1,3.8c0,0.2,0,0.4,0,0.6
		c-0.3-0.1-0.7-0.2-1.1-0.2c-0.9,0-1.8,0.4-2.4,1c-0.5-1.3-1.8-2.3-3.2-2.3c-0.7-0.5-1.9-1-4.3-1.3l-4.4-0.5c0,0,5.6,8,8.2,13.5
		c0,0-1.3,1-1.4,1.1c-0.7,0.4-1.6,1.4-2,2.3c-1.6,0.2-4.7,1.4-5.9,2.6c-2.3,2.3-2,5.4,0.1,8.4c-1.4,0.1-2.9-0.4-2.9-0.4
		s-0.2,6.8,8.6,5.7c0,0,0,0,0,0s2.1,2.1,5.1,2.3c1.8,0,2.8-1.1,2.8-1.1s0.4,0.5,0.9,0.7c-0.6,0.5-2.9,1.8-6.6,1.4
		c0,0.8,0.1,1.8,0.4,2.9c-0.8,0.4-2.9,1.1-4.9,1.2c-2.2,0.2-4.7-0.1-4.7-0.1s-0.8,3.9,2.5,6.3c-2.1,0.8-4.2,1.2-6.2,0.7
		c-2.4-0.5-3.8-2.2-4.7-4.7c-2.1-6,0.8-16,6.8-24.1c3.3-4.4,2.9-7,2-8.3c-1.7-2.3-5.4-2.7-9.4-1.1c-1.4,0.5-3.4,1.6-3.9,1.9
		c-10.1,6.1-18.5,14.6-24.4,24.8c-6.1,10.5-9.3,22.5-9.3,34.6c0,18.5,7.2,35.9,20.3,49c13,13,30.3,20.2,48.7,20.3v0h0.7v0
		c18.4-0.1,35.6-7.3,48.6-20.3C139.9,119.5,147.2,102.1,147.2,83.5"/>
	<path class="st2" d="M81,31.4c-0.7-0.5-2.2-0.8-3.3-0.8c-0.1,0,0,0,0,0.1c0.1,0.1,0.2,0.4,0.2,0.7c0,0.2-0.1,0.5-0.1,0.6
		c-0.2-0.8-0.9-1.5-1.8-1.6c0,0,0,0,0,0c0.5,0.3,0.9,0.8,0.8,1.4c0,0.9-0.7,1.6-1.7,1.6c-0.1,0-0.2,0-0.4-0.1
		c0.1-0.3,0.2-0.7,0.1-1.2c-0.2-0.7-0.8-1.1-1.5-1.3c-1.4,0.9-3.2,0.2-3.5,0c1.6-0.2,3.4-1,4-1.7c0.1-0.1,0.6-0.3,1.8-0.2
		C78.2,29.1,80.5,30.6,81,31.4C81,31.4,81,31.5,81,31.4 M100.9,50.9c-1.1-1.7-5.6-3.2-5.6-3.2s1-1.7,2.7-2.6
		c-1.1-2.1-4.6-1.8-4.6-1.8s0.5-1.9,3.4-1.5c-0.6-2.5-1.9-4.4-1.9-4.4s0.2-2.1,2.5-2.9c-2.3-2.3-5.1-1.1-6.5-0.3
		c-0.5,0.3-0.3-0.1,0-0.3c0.9-0.7,3.2-2.9,3.9-4.7c0.9-2.4,0.9-6.8,0.9-6.8s-1.6,1.5-3.3,2c-1.7,0.5-2.4,0.9-3.3,2
		c-0.9,1.1-0.9,1.7-0.9,1.7L87.5,27c-3.2-0.2-6.4-0.4-9.7-0.4c-3.5,0-6.4,0-9.7,0.3c-1.2,0.4-2.6,1.6-2.6,1.6c3.2,1.3,2,1.7,3.6,3
		c3.5,2.8,8.2,6.8,6.4,12C75,44.9,74,45.9,71.7,46c0.6,1,2.1,0.7,1.9,1.6c-0.8,2.6-7.3,3.4-7.3,3.4s0.3,1.4,1.5,1.8
		c-2.5,1.9-5.7,3-10.2,2.8c0.4,3.8,7.2,4,7.2,4s1.3,2.4,3,3.1c3.3-4.3,8-4.2,8-4.2s1,1.9,5,2.7c2.4-0.9,3.2-1.1,4.8-2.8
		c0.1,1.7,2.1,2.8,3.8,3.5c1.9-2.1,3.9-2.3,3.9-2.3s1.8,1.5,5,0.6c3.2-0.9,4.7-4.5,4.7-4.5s-6.4-1.5-6.4-3.3
		C96.7,50.8,97.8,50.4,100.9,50.9"/>
	<path class="st3" d="M77.8,23.4c3.8,0,7.6,0.1,11.1,0.4c1.5-2.9,3.2-5.7,5-8.3l0.1-0.1c0,0-3.1,0.2-3.3,0.9
		c-0.1,0.2-0.1,0.9-0.1,1.2c-0.6-0.6-1.5-0.6-2-0.1c-0.6,0.5-0.5,1.5,0.1,2.1c0.3,0.3,0.7,0.5,1.1,0.5c-0.4,0.4-1,0.7-1.7,1
		c-0.9,0.3-1.8,0.4-2.6,0.3c-0.3,0-0.5-0.1-0.7-0.2c0,0,0,0,0,0c0,0,0,0,0,0c-0.1-0.1-0.2-0.1-0.2-0.2c0.5-0.2,0.9-0.7,0.9-1.3
		c0.1-0.9-0.6-1.7-1.4-1.7c-0.9-0.1-1.7,0.6-1.7,1.4c0,0.4,0.1,0.9,0.4,1.2c-1.1,0.3-2.7-0.4-3.6-2.9c0.9-0.2,1.6-1,1.6-2.1
		c0-1.2-0.9-2.1-1.9-2.1c0,0,0,0,0,0c-0.1-0.7-0.1-1.5-0.1-1.6c-0.1-0.5-0.8-2.7-0.8-2.7c0,0-0.7,2.2-0.8,2.7c0,0.1-0.1,1-0.1,1.6
		c0,0,0,0,0,0c-1.1,0-1.9,0.9-1.9,2.1c0,1,0.7,1.9,1.6,2.1c-0.9,2.6-2.5,3.2-3.6,2.9c0.3-0.3,0.4-0.7,0.4-1.2
		c-0.1-0.9-0.8-1.5-1.7-1.4c-0.9,0.1-1.5,0.9-1.4,1.7c0.1,0.6,0.4,1.1,0.9,1.3c0,0.1-0.1,0.1-0.2,0.2c0,0,0,0,0,0c0,0,0,0,0,0
		c-0.2,0.1-0.4,0.2-0.7,0.2c-0.8,0.1-1.7,0.1-2.6-0.3c-0.7-0.3-1.3-0.6-1.7-1c0.4,0,0.8-0.2,1.1-0.5c0.6-0.6,0.6-1.6,0.1-2.1
		c-0.5-0.5-1.4-0.5-2,0.1c0-0.3,0-1-0.1-1.2c-0.3-0.7-3.3-0.9-3.3-0.9l0.1,0.1c1.9,2.6,3.6,5.4,5,8.3C70.3,23.6,74,23.4,77.8,23.4z
		 M67.9,26.2c3.1-0.2,6.5-0.4,10-0.4c3.5,0,6.8,0.2,10,0.4c0.2-0.5,0.4-1,0.7-1.5c-3.4-0.2-7-0.3-10.7-0.3l0,0
		c-3.7,0-7.2,0.1-10.7,0.3C67.4,25.2,67.6,25.7,67.9,26.2 M55.4,42c0,0,1.1,2.6,4.7,2.4c4.1-0.2,5.2-2.6,8-2.9
		c2.8-0.3,4,0.8,4.5,1.3c-1,1.4-2.4,0.7-4.1,0.8c-1.7,0.1-2.8,1.2-4.6,1.2c0.1,0.1,2.2,1.5,3.1,1.5c1.6-0.1,1.7-1.8,3.7-1.7
		c0.6,0,1,0.1,1.6,0.3c0,0,1.3-0.4,1.8-1.2c1.9-2.8-0.2-7.3-5.4-11.2c-1.5-1.1-1.2-1.9-2.8-2.8c-0.5-0.3-1-0.5-1.1-0.5
		c-0.6,0.1-1.2,1.1-1.5,2.4c-1.6-0.3-4.4,0.7-5.6,1.9c-2.1,2-1.1,4.6,0.9,6.5c0.2,0.2,0.5,0.4,0.7,0.6c0.7-1.5,2.3-2.4,4.2-2.4
		c0.9,0,1.8,0.5,2.3,0.5c0.5,0,1.1-1,2.8-0.9c2.8,0.2,4.3,2.1,4.6,3.8c0,0.2,0,0.4,0,0.3c-0.4-0.5-2.2-2.3-5.6-2.1
		c-2.9,0.2-3.6,1.3-7.6,2.5C57.6,43.1,55.4,42,55.4,42"/>
</g>
</svg>
