<svg xmlns="http://www.w3.org/2000/svg" viewBox="0 0 200 200"><defs><style>.cls-1,.cls-3{fill:#1d1d1b;}.cls-2,.cls-7{fill:#ffe000;}.cls-2,.cls-3{fill-rule:evenodd;}.cls-4{fill:#ffed00;}.cls-5{fill:#e40520;}.cls-6{fill:#fff;}.cls-8{fill:none;}</style></defs><g id="Lager_2" data-name="Lager 2"><g id="Lager_1-2" data-name="Lager 1"><path class="cls-1" d="M176.17,190.55l-17.06-11.22L176.65,167H175l1.16-.82H134l-.12.64,1.06.42v.07l14.9,6v1h-.19v-.82h-1.1v0l-1-.4.08-.4-15.5-6.26v6.89h1.15v.22H69.22v-5.93l-.82.32V166.6l-1.76.68H66l.48-.19-.12-.63-42.49,0,17.92,12.27L23.51,190.31h2.32l-.76.48,25.76.11,0,6.13H52v.48h98.52v-7H151V191H176.6l-.74-.49ZM53,173.14v.06h1.38l-.45.17v0H52.31Z"/><path class="cls-1" d="M175.9,51.48c-.84-.84-1.62-1.69-2.47-2.47-.28-.26-.56-.5-.83-.73l0-.05c-2.07-1.87-4.05-3.28-5.55-3.68l-.47-.12.06.49c.85,6.46,1.37,14.14,5.47,19.66a23.92,23.92,0,0,0,2.52,2.7,12.58,12.58,0,0,0,1.1.86L181.33,72l0-.21.83.58,1.37-7c0-.16,0-.32,0-.48C183.58,61.42,179.87,55.81,175.9,51.48Z"/><path class="cls-1" d="M198.76,83l0-.38-.24.29c-.17.19-.31.37-.45.52,0-.36-.05-.73-.09-1.1l-.08-.78-.5.6a7.31,7.31,0,0,1-1.24,1.31l-4.57,3.67a8.87,8.87,0,0,0-2.58,2,24.87,24.87,0,0,0,4.22-13.68,20.54,20.54,0,0,0-1.35-7.42l-1.91-5.28-.36.57-.58-1.6-4.92,7.64c-1.23,1.79-1.16,3.76-1.93,5.27l-2.06-1.64L175,70.28l-1.37-.78c-.41-.2-.77-.32-1.1-.48a48.49,48.49,0,0,1-4.17-2.51L167,65.46l-.09.56a9.46,9.46,0,0,0-.1,1.41c0,4,2.41,8.3,5.32,10.84h0c.15.15.27.21.34.29a15.73,15.73,0,0,0,2.15,1.72c3.55,2.37,8.31,4.09,10.7,9l0,.09.09,0a3.23,3.23,0,0,1,.42.5c.1.12.19.24.29.34a.66.66,0,0,0,.44.24.35.35,0,0,0,.21-.07l0,0,0,0h0l.09.12c.21.23.32.46.6.51h0c-.29.43-.56.85-.83,1.28L186,91.13A15.32,15.32,0,0,0,184.73,90c-2.69-2.55-6.33-4.11-9.17-5.82a4.63,4.63,0,0,1-.53-.49,24.31,24.31,0,0,0-2.53-1.91,2.5,2.5,0,0,0-1.19-.47h-.39L172,87.44l.18,1.08a28.66,28.66,0,0,0,2.31,7.3,17.26,17.26,0,0,0,2.87,4.33c1,1.41,4.89,9.08,5.65,10.78l.17.37.65-.47c.13.28.25.52.32.69l.08.18,8-5.82c4.86-4.2,6.55-10.73,6.73-17v-2.4C198.94,85.33,198.88,84.18,198.76,83Z"/><path class="cls-1" d="M198.76,104.6v-.3l-.25.18-.54.38c0-.31,0-.62,0-.92l0-.6-.49.35c-.41.29-1.56,1.08-1.95,1.3-4.12,2.74-9.13,4.75-12.38,8.16-2.12-4.13-5.57-7.35-7.16-11.48a6.28,6.28,0,0,1-.41-1.13l-.11-.39-.36.69a6.91,6.91,0,0,1-.36-1l-.23-.79-2.42,4.7L171,105.87v0a11.59,11.59,0,0,0-.57,3.63,16.08,16.08,0,0,0,.32,3.07,45.34,45.34,0,0,0,1.33,5.14,31.51,31.51,0,0,1,1.79,8.73v.36l1-.09h.12c0,.13,0,.26,0,.4v.17l.84-.07,6.78-.61c6.5-1.09,11-5.69,13.76-10.28a25.87,25.87,0,0,0,2.44-10.76C198.78,105.25,198.78,104.92,198.76,104.6Z"/><path class="cls-1" d="M190.05,127.32l-.05-.17-.17.07-.5.17a2.61,2.61,0,0,0-.11-.77l-.1-.35-.34.14c-3.59,1.41-7,1.42-10.65,1.72l-3.39.54-2.23.38c-.35-5.14-1.25-11.28-5.38-15.19l-.17-.15,0,.07c-.22-.24-.44-.47-.68-.7l-.33-.31-2,4.26-3.8,8.09v0a69.83,69.83,0,0,0-1.09,9.08,11,11,0,0,0,.63,4l.08.22H160l.69,0c0,.15.08.29.13.43l0,.11H161c2.23-.08,4.21-.47,6.21-.47a11.75,11.75,0,0,1,3.17.41,16.28,16.28,0,0,0,3,.24,17.38,17.38,0,0,0,2.49-.18c4.77-.54,9.49-2.84,11.93-6.31.93-1.66,2.4-2.92,2.42-4.56A2.76,2.76,0,0,0,190.05,127.32Z"/><path class="cls-1" d="M175,141.74l0-.11-.74-.09,0,0-.09-.45-.05-.24-.24,0-1.56-.18a57.89,57.89,0,0,0-9.54-1.29,15.38,15.38,0,0,0-5.46.93c.18-3.21.94-6.59.94-9.83a13,13,0,0,0-1.05-5.47l-.13-.27-.16.24c0,.07-.09.14-.14.21a8.83,8.83,0,0,0-.35-.9l-.09-.2h-.45l-.09.15a47.69,47.69,0,0,1-5.25,6.32c-1.38,1.5-2.76,2.94-4.09,4.39a15.62,15.62,0,0,0-3.39,9.14,9.8,9.8,0,0,0,.19,2l0,.19,1.09.29s0,.09,0,.13l0,.1,6.64,1.77a2.25,2.25,0,0,0,.69.12,34.28,34.28,0,0,0,6.32.62,22.2,22.2,0,0,0,11-2.68,46.46,46.46,0,0,0,4.28-2.78,9.87,9.87,0,0,0,1.65-1.58l0-.06Z"/><path class="cls-1" d="M53.78,135.55c-1.27-1.45-2.65-2.89-4-4.33a52.3,52.3,0,0,1-5.33-6.35l-.16-.23-.12.26v0l-.56-.79-.32-.48-.25.52a12.77,12.77,0,0,0-1.07,5.48c0,3.6,1,7.36,1,10.84a15.86,15.86,0,0,0-6.47-1.26,62.29,62.29,0,0,0-9.57,1.21c-.54.12-1.07.18-1.56.24l-.23,0-.11.53,0,.16.11.12c.49.55,1.67,1.61,1.67,1.61a50.75,50.75,0,0,0,4.35,2.78c.58.32,1.17.6,1.77.86a22.75,22.75,0,0,0,10.39,2.33,35,35,0,0,0,6.38-.62c.16-.06.41-.06.67-.12L57,146.59l0-.1a9.94,9.94,0,0,0,.16-1.82A15.56,15.56,0,0,0,53.78,135.55Z"/><path class="cls-1" d="M40.12,125.72v0l-3.85-8.13-1.9-4-.16.15a1.45,1.45,0,0,0-.17.18l-.6-1.26-.33.3c-4.46,4.17-5.23,10.77-5.55,16.12L27,129l-2.48-.36-3.36-.54c-3.7-.36-7.14-.37-10.8-1.78l-.32-.13-.11.33a2.71,2.71,0,0,0-.13.83c0,1.74,1.62,3,2.5,4.6a14.84,14.84,0,0,0,6.27,4.85,20.58,20.58,0,0,0,6.87,2.1c.85.06,1.64.12,2.48.12a17.38,17.38,0,0,0,3-.24,11.12,11.12,0,0,1,3.21-.44c2,0,4,.42,6.18.51h.11l0-.11a11.57,11.57,0,0,0,.65-4.16A62.34,62.34,0,0,0,40.12,125.72Z"/><path class="cls-1" d="M29.25,106.48l-1.15-2.19-2.29-4.24-.16.53L24.79,99l-.24.72c-.12.37-.24.79-.36,1.14-1.67,4.39-5.61,7.78-7.67,12.38-.28-.26-.57-.52-.87-.76-3.24-3.06-8-5-11.92-7.59-.45-.22-1.54-1.06-2-1.33l-.46-.26,0,.53c0,.32,0,.65,0,1a26.21,26.21,0,0,0,2.45,10.89,22.81,22.81,0,0,0,9.94,9.13,16.81,16.81,0,0,0,5,1.68l6.86.61.66.06h.18V127a31.55,31.55,0,0,1,1.79-8.78c.54-1.75,1-3.43,1.38-5.18a17.64,17.64,0,0,0,.27-3A12.67,12.67,0,0,0,29.25,106.48Z"/><polygon class="cls-2" points="174.11 166.81 135.69 166.81 150.04 172.6 150.04 172.6 150.49 172.77 150.49 189.89 173.97 189.89 157.1 178.79 174.11 166.81"/><polygon class="cls-2" points="145.81 172.54 132.78 167.28 132.78 172.54 145.81 172.54"/><polygon class="cls-2" points="148.99 196.38 148.99 190.63 148.99 174.07 51.48 174.07 51.48 190.63 51.45 196.38 148.99 196.38"/><polygon class="cls-2" points="64.62 167.12 26.02 167.17 43.02 178.8 25.76 189.66 49.95 189.77 49.98 172.72 50.2 172.65 50.59 172.52 64.62 167.12"/><polygon class="cls-2" points="54.81 172.54 67.75 172.54 67.75 167.56 54.81 172.54"/><path class="cls-3" d="M157.35,43.67c0-7.43,1.89-14.21,7.26-19.77l.21-.22-.3-.05-.94-.18.12-.12.36-.37-.51-.09A248.93,248.93,0,0,1,100,2.54l-.12-.06-.12.06A224.59,224.59,0,0,1,35.63,22.87L35.1,23l.38.37c5.13,5.08,6.93,11.89,6.94,19.59,0,18.11-10.06,41-10.07,57.09,0,4.69.86,8.82,3.1,12.09,4,5.35,11.09,10,19.22,14.31,11.14,6,24.44,11.21,34.37,16.45,4.54,2.45,8.29,4.91,10.68,7.46l.18.19.2-.18.07-.06c.22.21.42.41.62.62l.11.12.12-.11c17.59-16,47.56-20,63.6-38.2A25.4,25.4,0,0,0,168,99.18C168,82.42,157.34,61.26,157.35,43.67Z"/><path class="cls-4" d="M151.08,26.92l2,.42a38.14,38.14,0,0,0-3.18,12.91l-.06,3.18A86.17,86.17,0,0,0,152,59.58c2.52,10.93,6.24,21.74,8,32.85.55,5.4,1.27,12.73-2.7,17a56.16,56.16,0,0,1-9.6,7.57c-8.53,5.34-17.9,9.18-27,13.33a124.31,124.31,0,0,0-21,12A106.62,106.62,0,0,0,87,134.94c-11-5.22-22.39-10-33-15.79-4.93-3-10.09-6-13.69-10.57-1.86-3.12-2-6.3-2-9.79.9-12.13,4.8-23.83,7.38-35.66a107.49,107.49,0,0,0,2.64-20l-.06-3.24L48,36.65a53.11,53.11,0,0,0-2.52-9.19,228.45,228.45,0,0,0,54.22-18,255.58,255.58,0,0,0,51.4,17.47Z"/><path class="cls-5" d="M156.72,90.45c.78,5.22,1.68,11.53-1,16.39-6.66,7.32-16.45,11.77-25.28,15.91-9.78,4.32-19.69,8.71-28.7,14.53l-2.1,1.44h-.06c-8.71-5.76-18.73-9.78-28.16-14.17-9.13-4.2-18.25-8.46-26.06-14.83a18.72,18.72,0,0,1-3.06-3.48c-1.5-3.9-1-7.87-.6-11.95C43.6,81.74,47.86,69.55,50,57a88.21,88.21,0,0,0,1.44-13.75l-.12-3.42-.36-3.54-.6-3.43-.85-3.12c4.51-1,9-2.1,13.51-3.3A225.22,225.22,0,0,0,99.74,12.87c15.67,7.38,32.49,12.67,49.24,16.75l-.06.12-1,3.42-.66,3.49-.3,3.48-.12,3.36a102.12,102.12,0,0,0,3.78,23.3c2.1,7.81,4.56,15.67,6.06,23.66Z"/><path class="cls-6" d="M36.87,85.16,154.68,33c-1.68,11.17-1.32,20.66,2,30.09L40.9,114.22c-6.61-3.24-7-14.47-4-29.06Z"/><polygon class="cls-1" points="60.89 100.11 53.75 83.78 56.99 82.28 62.87 95.61 70.8 92.07 72.18 95.07 60.89 100.11 60.89 100.11"/><polygon class="cls-1" points="73.98 94.23 66.78 77.96 71.7 75.74 80.47 86.72 78.13 72.85 83.11 70.69 90.31 86.96 87.19 88.41 81.37 75.2 83.89 89.85 80.47 91.35 71.28 79.7 77.1 92.85 73.98 94.23 73.98 94.23"/><polygon class="cls-1" points="97.1 83.96 91.16 70.57 86.35 72.73 85.03 69.79 98 64.03 99.26 66.97 94.52 69.07 100.4 82.52 97.1 83.96 97.1 83.96"/><path class="cls-1" d="M99.8,63.19l3.36-1.5,4.57,10.2a4.34,4.34,0,0,0,2,2.47,4,4,0,0,0,4.74-2.17,4.21,4.21,0,0,0-.42-3.06l-4.56-10.27,3.36-1.5L117.51,68a6.47,6.47,0,0,1,.36,5.34,7.46,7.46,0,0,1-4.08,3.79,7.76,7.76,0,0,1-5.58.54,6.7,6.7,0,0,1-3.73-3.85L99.8,63.19Z"/><polygon class="cls-1" points="123.34 72.31 116.13 55.98 119.61 54.42 131.2 62.71 126.22 51.48 129.52 50.04 136.73 66.31 133.31 67.87 121.72 59.64 126.64 70.81 123.34 72.31 123.34 72.31"/><path class="cls-1" d="M143,47.27,154,58.68l-3.54,1.56-2.58-2.88L143,59.52l-1.5.66L142,64l-3.54,1.56L137,46.67,140.87,45,143,47.27Zm0,8.95,2.7-1.2L143,52.08l-2.64-3,.84,8,1.8-.84Z"/><path class="cls-1" d="M48.34,89.43l10.87,11.4-3.54,1.57-2.52-2.89-4.81,2.17-1.5.66.42,3.84-3.54,1.56L42.34,88.83l3.84-1.69,2.16,2.29Zm0,8.94,2.71-1.2-2.71-2.94-2.64-3,.84,8,1.8-.84Z"/><path class="cls-4" d="M124.42,92.49h3.48V96l.48.12c3.66,1.08,6.25,2.4,7.69,4a8.47,8.47,0,0,1,2.28,6.19,9.7,9.7,0,0,1-10.27,10.21,12.13,12.13,0,0,1-4.74-.9,10.23,10.23,0,0,1-3.79-2.53v2.77h-4.74V104.62h4.74a11.34,11.34,0,0,0,2.83,5.4,7.11,7.11,0,0,0,4.92,1.8,5.26,5.26,0,0,0,3.78-1.38,4.47,4.47,0,0,0,1.51-3.48,3.84,3.84,0,0,0-1.33-3.06,10.18,10.18,0,0,0-3.36-1.74v3.12h-3.48v-4.14l-1.26-.37c-3-.84-5.23-2-6.55-3.42a8.13,8.13,0,0,1-2-5.64,9.12,9.12,0,0,1,2.82-6.79,10,10,0,0,1,7-2.7,12.11,12.11,0,0,1,4.2.72A10.1,10.1,0,0,1,132,85V82.82h4.57v9.79H132a8.36,8.36,0,0,0-2.46-4.26,5.82,5.82,0,0,0-4.2-1.57A4.91,4.91,0,0,0,121.9,88a3.79,3.79,0,0,0-1.32,3,3.89,3.89,0,0,0,.78,2.46,6.59,6.59,0,0,0,3.06,1.5V92.49Z"/><path class="cls-4" d="M90.73,43h2.83a2.65,2.65,0,0,0,.54,1.86,2.28,2.28,0,0,0,1.74.6,2.46,2.46,0,0,0,1.68-.54,2.48,2.48,0,0,0,.6-1.68,1.9,1.9,0,0,0-.72-1.62,3.19,3.19,0,0,0-2-.54h-.42V39h.3a2.76,2.76,0,0,0,1.86-.48,1.93,1.93,0,0,0,.6-1.5,1.87,1.87,0,0,0-.48-1.32,1.91,1.91,0,0,0-1.44-.48,1.86,1.86,0,0,0-1.44.54,2.2,2.2,0,0,0-.54,1.62v.12H91a4.66,4.66,0,0,1,1.32-3.42,5,5,0,0,1,3.54-1.21A5.2,5.2,0,0,1,99.38,34a3.6,3.6,0,0,1,1.26,2.88,3.86,3.86,0,0,1-.42,1.68,3.69,3.69,0,0,1-1.32,1.2A3.77,3.77,0,0,1,100.58,41a3.72,3.72,0,0,1,.6,2,4.44,4.44,0,0,1-1.44,3.48,5.7,5.7,0,0,1-3.9,1.27,5.55,5.55,0,0,1-3.78-1.21,4.81,4.81,0,0,1-1.33-3.54V43Zm11.71,4.45a7.07,7.07,0,0,1,.78-3.31,9.87,9.87,0,0,1,2.89-2.76,8.81,8.81,0,0,0,.9-.54c1.86-1.2,2.76-2.34,2.76-3.42a1.9,1.9,0,0,0-.6-1.5,2.17,2.17,0,0,0-1.56-.6,2.09,2.09,0,0,0-1.68.72,3.11,3.11,0,0,0-.6,2V38h-2.65A5.24,5.24,0,0,1,104,34.19a5.09,5.09,0,0,1,3.79-1.33,5.27,5.27,0,0,1,3.6,1.21,4.25,4.25,0,0,1,1.32,3.3,4.7,4.7,0,0,1-.66,2.46,10.57,10.57,0,0,1-2.76,2.46c-.24.18-.66.42-1.14.78A6,6,0,0,0,106,44.93h6.61V47.4ZM84.73,32h-.06a1,1,0,0,0-.9.48,1.69,1.69,0,0,0-.42,1.26,1.42,1.42,0,0,0,.42,1.15,1.21,1.21,0,0,0,1,.42h.06a1.41,1.41,0,0,0,1-.36,1.74,1.74,0,0,0,.36-1.15V33.7a2.09,2.09,0,0,0-.36-1.26A2,2,0,0,0,84.73,32Zm0,8h-.24a3.49,3.49,0,0,1-2-.54,2.63,2.63,0,0,1-.78-1.8h1.86a1,1,0,0,0,.3.66,1.55,1.55,0,0,0,.84.24h.06a1.11,1.11,0,0,0,1-.6,4.48,4.48,0,0,0,.42-1.86,1.83,1.83,0,0,1-.78.54,4.43,4.43,0,0,0-.72.12h-.3a2.59,2.59,0,0,1-2.1-.84,2.65,2.65,0,0,1-.84-2.17,3,3,0,0,1,3.18-3.3h.06a3.19,3.19,0,0,1,2.52,1.2,5.55,5.55,0,0,1,.9,3.43,6.34,6.34,0,0,1-.9,3.66A3.07,3.07,0,0,1,84.73,40Zm0,1.86H80.41V40.49h8.28v1.38Zm0,10.09a3.41,3.41,0,0,1-2.34-.72,2.94,2.94,0,0,1-.84-2.16,2.07,2.07,0,0,1,.3-1.26,2,2,0,0,1,1-1h.06a1.79,1.79,0,0,1-.84-.78,1.92,1.92,0,0,1-.3-1.08,2.34,2.34,0,0,1,.78-1.86,3.45,3.45,0,0,1,2.16-.72h.12a3.62,3.62,0,0,1,2.22.66A2.41,2.41,0,0,1,87.91,45a2.62,2.62,0,0,1-.24,1.08,3.42,3.42,0,0,1-.84.78,2.35,2.35,0,0,1,1,.91,2.42,2.42,0,0,1,.36,1.32,2.94,2.94,0,0,1-.84,2.16,3.87,3.87,0,0,1-2.46.72Zm0-4.32a1.13,1.13,0,0,0-.9.36,1.41,1.41,0,0,0-.42,1,1.24,1.24,0,0,0,.36,1,1.31,1.31,0,0,0,1,.42h.12a1.45,1.45,0,0,0,1-.42,1.24,1.24,0,0,0,.42-1,1.34,1.34,0,0,0-1.44-1.38Zm0-3.73a1.22,1.22,0,0,0-.84.36,1.34,1.34,0,0,0-.3.78.92.92,0,0,0,.3.78,1.56,1.56,0,0,0,.84.36h.12a2,2,0,0,0,1-.3,1.51,1.51,0,0,0,.36-.84,1,1,0,0,0-.36-.78,1.36,1.36,0,0,0-1-.36ZM59.27,47.4v-10H55.79v-2H56a5.16,5.16,0,0,0,2.76-.54,2.51,2.51,0,0,0,1-2h2.34V47.4Zm12.37-4.69h-.48a4.62,4.62,0,0,1-3.42-1.26A4.77,4.77,0,0,1,66.48,38a5,5,0,0,1,1.38-3.66,4.81,4.81,0,0,1,3.66-1.45h.12a4.58,4.58,0,0,1,3.9,1.81A8.7,8.7,0,0,1,76.92,40a9.92,9.92,0,0,1-1.44,5.82,4.73,4.73,0,0,1-3.84,2h-.42a4.68,4.68,0,0,1-3.12-1,3.84,3.84,0,0,1-1.26-2.7h2.94a1.55,1.55,0,0,0,.54,1,2,2,0,0,0,1.26.36h.06a2.12,2.12,0,0,0,1.62-1,6.79,6.79,0,0,0,.66-2.88,3.75,3.75,0,0,1-1.2.78,7,7,0,0,1-1.08.24Zm0-7.5h-.12a1.86,1.86,0,0,0-1.56.72,3.12,3.12,0,0,0-.54,2,2.69,2.69,0,0,0,.54,1.8,2.26,2.26,0,0,0,1.68.66,2.17,2.17,0,0,0,1.62-.6,3,3,0,0,0,.6-1.86,3.37,3.37,0,0,0-.6-2,2.53,2.53,0,0,0-1.62-.72Z"/><path class="cls-3" d="M65.52,178.65v8.47c0,.1,0,.19,0,.29a3.08,3.08,0,0,1-.6,2,2.61,2.61,0,0,1-2,.72,2.5,2.5,0,0,1-2-.72,3.14,3.14,0,0,1-.59-2,2.81,2.81,0,0,1,0-.29v-8.47H57.47v8.76h0a5.18,5.18,0,0,0,1.38,3.84,5.89,5.89,0,0,0,4,1.32,5.79,5.79,0,0,0,4-1.32,5,5,0,0,0,1.38-3.84h0v-8.76Z"/><path class="cls-3" d="M80.29,179.79A4.2,4.2,0,0,0,77,178.65H71v13.51H73.8v-4.8h3.42a4,4,0,0,0,3.07-1.14A4.34,4.34,0,0,0,81.37,183,4.43,4.43,0,0,0,80.29,179.79Zm-2.16,4.69a2.54,2.54,0,0,1-1.63.42H73.8V181h2.88a2,2,0,0,1,1.45.55A2,2,0,0,1,78.6,183,2.14,2.14,0,0,1,78.13,184.48Z"/><path class="cls-3" d="M92.84,179.79a4.28,4.28,0,0,0-3.25-1.14h-6v13.51h2.76v-4.8h3.42a4,4,0,0,0,3.07-1.14A4.34,4.34,0,0,0,93.92,183,4.43,4.43,0,0,0,92.84,179.79Zm-2.17,4.69a2.49,2.49,0,0,1-1.62.42h-2.7V181h2.88a1.91,1.91,0,0,1,1.44.55,2,2,0,0,1,.49,1.44A2.14,2.14,0,0,1,90.67,184.48Z"/><path class="cls-3" d="M106.42,187.41h0a3.63,3.63,0,0,0-.31-1.07,3.25,3.25,0,0,0-1.26-1.26,4.77,4.77,0,0,0-1.09-.42,17,17,0,0,0-2.1-.6c-.24-.06-.54-.12-1-.24q-2.34-.54-2.34-1.62A1.5,1.5,0,0,1,99,181a2.79,2.79,0,0,1,1.68-.42,3.71,3.71,0,0,1,2,.48,2.13,2.13,0,0,1,.72,1.51h2.71a4.08,4.08,0,0,0-1.45-3.13,5.35,5.35,0,0,0-3.66-1.14,6.44,6.44,0,0,0-3.9,1,3.68,3.68,0,0,0-1.32,3.07,4,4,0,0,0,.36,1.8,2.78,2.78,0,0,0,1.08,1.26,7.75,7.75,0,0,0,2.7.9c.12.06.24.06.3.12h.06a9.61,9.61,0,0,1,2.72.95h0c.55.32.82.69.82,1.09a1.44,1.44,0,0,1-.6,1.26,3.16,3.16,0,0,1-1.86.42,3.84,3.84,0,0,1-2.16-.54,2.42,2.42,0,0,1-.9-1.62H95.48A4.38,4.38,0,0,0,97,191.38a6.29,6.29,0,0,0,4,1.2,6.23,6.23,0,0,0,4-1.2,3.9,3.9,0,0,0,1.38-3.24A5.58,5.58,0,0,0,106.42,187.41Z"/><path class="cls-3" d="M115.29,178.65h-3.24l-4.8,13.51h2.94l.9-2.76h5.22l1,2.76h2.89Zm-1.62,8.47h-1.86l1.86-5.77,1.92,5.77Z"/><polygon class="cls-3" points="124.36 189.7 124.36 178.65 121.54 178.65 121.54 192.16 130.96 192.16 130.96 189.7 124.36 189.7"/><path class="cls-3" d="M139.13,178.65h-3.24l-4.81,13.51H134l.9-2.76h5.22l.9,2.76H144Zm-1.62,8.47h-1.86l1.86-5.77,1.86,5.77Z"/><path class="cls-1" d="M33.32,45.25a6.8,6.8,0,0,0-.71.25l.09-.7.06-.49-.47.13c-1.5.39-3.48,1.8-5.54,3.67-.86.8-1.64,1.64-2.48,2.48-4.05,4.41-7.78,9.95-7.8,13.53,0,.16,0,.33,0,.48l1.42,7.3.91-.61.2,1L24.5,68.6c.38-.31,1.1-.86,1.1-.86a16.28,16.28,0,0,0,2.48-2.66c4.12-5.52,4.6-13.18,5.44-19.66l0-.23Z"/><path class="cls-1" d="M28.25,82.23l.19-1.06h-.39a2.72,2.72,0,0,0-1.25.47,23.4,23.4,0,0,0-2.5,1.89c-.23.23-.4.34-.59.53-2.75,1.65-6.25,3.22-8.9,5.58,2.44-5,7.28-6.69,10.77-9A26.76,26.76,0,0,0,27.65,79c.17-.11.29-.23.38-.27,2.86-2.49,5.32-6.67,5.32-10.57a8.84,8.84,0,0,0-.13-1.55l0-.28-.66.57a8,8,0,0,0-.12-1l-.1-.57L31,66.46c-1.38.84-2.69,1.67-4.17,2.44a7.61,7.61,0,0,1-1,.46h0l-1.41.8-5.12,2.77-1.66,1.32c-.41-1.34-.55-2.89-1.55-4.21L11.22,62.7l-.13.36-.9-1.38-2,5.6A20.59,20.59,0,0,0,6.8,74.8a24.58,24.58,0,0,0,5.56,15.44l.05.05.07,0a.35.35,0,0,0,.18.05.8.8,0,0,0,.37-.16l.45.57,0,0h0a.27.27,0,0,0,.12,0l.1,0-.93,1.3A13.42,13.42,0,0,0,10,88.86a8.74,8.74,0,0,0-2.43-1.75L3.48,83.78a11.3,11.3,0,0,1-.79-.94l-.25-.33,0,.28c-.18-.2-.37-.43-.58-.71l-.5-.66-.09.82c-.12,1.1-.18,2.25-.24,3.39v2.48c.18,6.3,1.87,12.88,6.78,17.12l8.26,6,.1-.2.83.6.08-.18c.84-1.73,4.81-9.37,5.7-10.85a18.53,18.53,0,0,0,2.89-4.21h0a29,29,0,0,0,2.29-7.24l.18-1L29.23,82H29A1.76,1.76,0,0,0,28.25,82.23Z"/><path class="cls-7" d="M26.65,117.43c.54-1.74,1-3.41,1.37-5.12a17.72,17.72,0,0,0,.26-2.88A12.13,12.13,0,0,0,27.8,106l-1.12-2.13L25,100.66c-.05.14-.09.28-.14.41-1.85,4.79-6.06,8.27-7.93,13l-.2.51-.35-.43c-3-3.63-8.47-5.74-12.93-8.68a16.16,16.16,0,0,1-1.52-1c0,.13,0,.25,0,.37a25.52,25.52,0,0,0,2.38,10.57c2.74,4.4,7.11,8.94,13.44,10l6.84.6.31,0A34,34,0,0,1,26.65,117.43Z"/><path class="cls-7" d="M39.17,137.66a11.7,11.7,0,0,0,.54-3.76,62.38,62.38,0,0,0-1.05-8.72l-3.82-8.05-1.61-3.37c-4,4-4.75,10.48-5,15.73l0,.38-1.26-.25-2.47-.36-3.34-.54c-3.53-.35-6.95-.35-10.6-1.69a1.42,1.42,0,0,0,0,.29c0,1.28,1.42,2.55,2.39,4.25,2.32,3.32,6.94,5.58,11.65,6.16.84.06,1.61.12,2.44.12a17.49,17.49,0,0,0,2.91-.22,11.25,11.25,0,0,1,3.33-.45C35.21,137.18,37.12,137.57,39.17,137.66Z"/><path class="cls-7" d="M31.45,145.34A22,22,0,0,0,42.29,148a35,35,0,0,0,6.28-.61c.25-.07.47-.07.65-.12l6.34-1.69a9.45,9.45,0,0,0,.12-1.52,15,15,0,0,0-3.26-8.8c-1.26-1.44-2.63-2.88-4-4.32a56.8,56.8,0,0,1-5-5.91,12.55,12.55,0,0,0-.78,4.66c0,3.66,1,7.61,1,11.35v.52l-.47-.22a15.18,15.18,0,0,0-6.67-1.41A63.58,63.58,0,0,0,27,141.08c-.44.1-.87.16-1.26.21a12.49,12.49,0,0,0,1.39,1.32h0A48,48,0,0,0,31.45,145.34Z"/><path class="cls-1" d="M158.36,151.69l0,0,.62-.43-4.55-1a24.46,24.46,0,0,0-3.56-1.21,42.39,42.39,0,0,0-10.27-1.37l1.48-3.42,1.56-5.24,2.21-3.87.79-1.66-1.41.62.77-1.61-7.35,3.24c-8.36,3.3-13.06,8.21-17,15.15-3.21.83-5.94,2.9-8.66,3.88a96.24,96.24,0,0,0-13.1,8.11,90.18,90.18,0,0,0-13.36-8.22c-2.67-.94-5.22-2.83-8.26-3.69a33.4,33.4,0,0,0-7.26-9,32.07,32.07,0,0,0-10.39-6.32l-7.12-3.26.76,2.09,2.21,3.89,1.62,5.19,1.73,4a43.84,43.84,0,0,0-11.36,1.39c-1.19.36-2.39.72-3.6,1.2l-4.62,1,.62.43a30.62,30.62,0,0,0,4.57,2.62,28.2,28.2,0,0,0,4.06,1.7,25.53,25.53,0,0,0,7,1.27h.34c7.09,0,13.25-1.87,19.79-2.1.21,0,.58-.11.81-.11h.11c.78.28,1.61.62,2.47,1a51.53,51.53,0,0,1,15.12,11.3,8.55,8.55,0,0,0-2.24,5.1v.33h1.17c0,.1,0,.21,0,.32v.16h13.54V173a8.92,8.92,0,0,0-2.29-5.09,50.75,50.75,0,0,1,18.52-12.82.43.43,0,0,1,.24-.05c.23,0,.54.06.73.06,6.46.29,12.56,2.16,19.6,2.16h.33a25.63,25.63,0,0,0,7.08-1.27,29.25,29.25,0,0,0,7.42-3.8l.31-.22Z"/><path class="cls-7" d="M156.09,125a52.09,52.09,0,0,1-5,6c-1.38,1.5-2.77,2.94-4.07,4.36a15,15,0,0,0-3.24,8.72,9.57,9.57,0,0,0,.14,1.62l6.37,1.7a2,2,0,0,0,.56.1h.06a34.37,34.37,0,0,0,6.24.61,21.64,21.64,0,0,0,10.75-2.61,48.74,48.74,0,0,0,4.24-2.74,10.43,10.43,0,0,0,1.41-1.32l-1.26-.14a56.83,56.83,0,0,0-9.45-1.28,14.21,14.21,0,0,0-6.5,1.43l-.46.22,0-.5v-.23c0-3.7,1-7.6,1-11.23A12.83,12.83,0,0,0,156.09,125Z"/><path class="cls-7" d="M186.34,131.72c1-1.73,2.37-3,2.34-4.31a2.11,2.11,0,0,0,0-.25c-3.6,1.33-7,1.33-10.45,1.62l-3.36.54-2.47.42-1.26.17v-.36c-.29-5.19-1-11.62-5-15.67l-1.61,3.43-3.76,8a70.88,70.88,0,0,0-1.08,8.94,10.61,10.61,0,0,0,.51,3.53c2.09-.09,4-.46,6-.46a12,12,0,0,1,3.26.42,15.93,15.93,0,0,0,2.88.23,16.64,16.64,0,0,0,2.43-.17C179.42,137.27,184,135,186.34,131.72Z"/><path class="cls-7" d="M172.65,117.55a33.5,33.5,0,0,1,1.81,8.56l.31,0,6.75-.6c6.3-1.06,10.68-5.54,13.39-10a25.22,25.22,0,0,0,2.4-10.53c0-.12,0-.24,0-.36-.51.36-1.18.8-1.49,1-4.49,3-9.86,5.07-12.9,8.76l-.35.43-.2-.52c-1.87-4.76-6-8.24-7.86-13a3.43,3.43,0,0,1-.19-.44l-1.68,3.27-1.07,2.08a10.67,10.67,0,0,0-.53,3.4,15.09,15.09,0,0,0,.31,3,44.15,44.15,0,0,0,1.31,5.07Z"/><path class="cls-7" d="M172.84,88.4a27.74,27.74,0,0,0,2.25,7.13,16.85,16.85,0,0,0,2.8,4.22c1,1.47,4.49,8.28,5.56,10.55l7.52-5.45c4.7-4,6.38-10.44,6.55-16.62V85.84c0-.88-.09-1.76-.16-2.63a4.51,4.51,0,0,1-.86.83l-4.59,3.68,0,0c-2.36,1.2-3.65,3.41-5,5.52l-.26.42-2-2.9c-2.58-2.63-6.38-4.25-9.42-6.06a4.06,4.06,0,0,1-.62-.57,24.68,24.68,0,0,0-2.42-1.82l-.44-.25Z"/><path class="cls-7" d="M172.56,77.78c.08.08.2.14.37.31a15.49,15.49,0,0,0,2,1.64c3.4,2.3,8.34,4.06,10.88,9.18a3.08,3.08,0,0,1,.45.5c.08.11.17.22.24.3a24.49,24.49,0,0,0,5.16-14.84,20,20,0,0,0-1.31-7.25l-1.58-4.36-4.21,6.54c-1.19,1.67-1,3.75-2.09,5.57l-.19.31-2.61-2.07-5.09-2.75-1.36-.78c-.34-.16-.7-.28-1.09-.48a48.93,48.93,0,0,1-4.26-2.55l-.44-.36c0,.25,0,.49,0,.74,0,3.74,2.32,7.94,5.1,10.34Z"/><path class="cls-7" d="M182.11,64.24c0-3.17-3.62-8.82-7.55-13.07-.84-.85-1.62-1.68-2.45-2.45a17.84,17.84,0,0,0-4.79-3.37c.8,6.38,1.43,13.69,5.28,18.84h0A14.06,14.06,0,0,0,175,66.78c.36.3.71.59,1.05.82l4.81,3.32,1.22-6.27A2.75,2.75,0,0,0,182.11,64.24Z"/><path class="cls-7" d="M26.7,64.13c3.91-5.21,4.48-12.52,5.28-18.9a17.84,17.84,0,0,0-4.79,3.37c-.83.76-1.61,1.6-2.44,2.44-4,4.32-7.65,9.92-7.63,13.08,0,.14,0,.28,0,.38l1.23,6.3,4.85-3.24a11,11,0,0,1,1.09-.85A17,17,0,0,0,26.7,64.13Z"/><path class="cls-7" d="M26.34,77.94h0a4.5,4.5,0,0,1,.42-.3c2.73-2.38,5.11-6.48,5.1-10.17a8.46,8.46,0,0,0-.05-.87l-.47.41h0c-1.38.84-2.7,1.68-4.23,2.47A8.23,8.23,0,0,1,26,70l-1.36.77-5.08,2.75L17,75.55l-.19-.29c-1.15-1.78-.91-4-2.17-5.59l-4.26-6.53L8.78,67.51A20.13,20.13,0,0,0,7.46,74.8,23.88,23.88,0,0,0,12.7,89.61l.17-.22a3.68,3.68,0,0,1,.51-.6c2.54-5.18,7.53-6.94,10.94-9.18h0a14.61,14.61,0,0,0,2-1.64Z"/><path class="cls-7" d="M26.64,87.39l1-5.45c-.14.07-.31.15-.49.26A24.32,24.32,0,0,0,24.74,84c-.26.26-.45.39-.6.54l0,0,0,0c-3,1.81-6.82,3.49-9.4,6.06l-2.07,2.9-.26-.41C11,91,9.66,88.83,7.25,87.68l0,0L2.69,84a6.37,6.37,0,0,1-.87-.87c-.07.83-.12,1.69-.16,2.53V88.1c.17,6.19,1.85,12.58,6.53,16.61l7.61,5.48c1.11-2.25,4.68-9.1,5.54-10.54l0,0,0,0a17.57,17.57,0,0,0,2.82-4.13h0a28.35,28.35,0,0,0,2.25-7.11Z"/><path class="cls-7" d="M48.75,154.74A24.88,24.88,0,0,0,55.61,156h.33c7,0,13.15-1.86,19.78-2.1.09,0,.5-.1.82-.11a.94.94,0,0,1,.34.07,51.23,51.23,0,0,1,19,13.18l.18.21-.18.21A8.73,8.73,0,0,0,93.66,172h12.51a8.93,8.93,0,0,0-2.24-4.56l-.18-.22.18-.21A51.33,51.33,0,0,1,122.72,154a1,1,0,0,1,.43-.08c.29,0,.62.06.74.06,6.56.3,12.65,2.16,19.6,2.16h.31a24.91,24.91,0,0,0,6.93-1.25,27.93,27.93,0,0,0,6.68-3.31l-3.13-.69h0a23.61,23.61,0,0,0-3.5-1.18,43.76,43.76,0,0,0-11.68-1.37h-.5l2.11-4.87,1.57-5.26,2.23-3.91.22-.46L139,136.33c-8.28,3.28-12.82,8.06-16.71,15l-.07.13-.14,0c-3.09.75-5.84,2.84-8.68,3.87a94.25,94.25,0,0,0-13.17,8.2l-.2.16-.2-.16a88.37,88.37,0,0,0-13.42-8.3c-3-1.05-5.64-3.14-8.79-3.83l-.14,0-.07-.13c-3.89-7-8.49-11.76-16.91-15.05l-5.71-2.62.21.56,2.22,3.91,1.62,5.22,2.12,4.91h-.5a43.75,43.75,0,0,0-11.67,1.36c-1.2.36-2.39.72-3.58,1.2h0l-3.17.68a27.6,27.6,0,0,0,6.79,3.31Z"/><rect class="cls-8" width="200" height="200"/></g></g></svg>