<?xml version="1.0" encoding="UTF-8"?><svg id="Lager_2" xmlns="http://www.w3.org/2000/svg" xmlns:xlink="http://www.w3.org/1999/xlink" viewBox="0 0 199 199"><defs><style>.cls-1{fill:none;}.cls-2{clip-path:url(#clippath);}.cls-3{fill:#002d74;}.cls-4{fill:#fff;}</style><clipPath id="clippath"><rect class="cls-1" x="2.76" y="10.86" width="193.48" height="177.27"/></clipPath></defs><g id="Lager_1-2"><g><g><path class="cls-4" d="M6.05,79.8c.74-.21,1.38,.48,1.43,1.17,.32,2.22,.14,4.48,.19,6.7v15c0,1.78,.04,3.57-.18,5.34-.06,.46-.27,1.04-.79,1.15-.69,.2-1.4-.36-1.45-1.07-.22-1.54-.19-3.11-.22-4.67v-16.75c.03-1.89-.07-3.78,.18-5.66,.04-.52,.31-1.08,.85-1.22h0Z"/><path class="cls-4" d="M6.05,79.8l.04,.13,.24-.03c.52,0,.99,.54,1.02,1.08h0c.16,1.15,.2,2.29,.2,3.45,0,.8-.01,1.6-.01,2.4,0,.28,0,.56,0,.84h.13s-.13,0-.13,0v15c0,.5,0,1.01,0,1.51,0,1.28-.02,2.55-.18,3.82-.05,.44-.27,.96-.69,1.04h0s0,0,0,0l-.25,.04c-.51,0-.99-.45-1.03-.99h0c-.22-1.53-.19-3.1-.22-4.66h-.13s.13,0,.13,0v-16.75h0c0-.29,0-.59,0-.88,0-.45,0-.89,0-1.34,0-1.15,.02-2.29,.17-3.42h0c.04-.5,.3-1,.75-1.1h0s0,0,0,0l-.04-.13-.03-.13c-.62,.16-.91,.78-.95,1.33h.13s-.13,0-.13,0c-.15,1.15-.17,2.3-.17,3.45,0,.45,0,.89,0,1.34,0,.29,0,.59,0,.88h0v16.75h0c.03,1.55,0,3.14,.22,4.69l.13-.02h-.13c.06,.69,.63,1.24,1.3,1.25l.33-.05-.04-.13,.03,.13c.62-.14,.84-.79,.9-1.27,.16-1.28,.18-2.57,.18-3.85,0-.5,0-1,0-1.51v-15h0c0-.28,0-.56,0-.84,0-.8,.02-1.6,.02-2.4,0-1.15-.03-2.32-.2-3.47l-.13,.02h.13c-.05-.67-.58-1.33-1.29-1.34l-.31,.04,.04,.13-.03-.13,.03,.13h0Z"/><path class="cls-3" d="M98.92,190.9c-.51,0-1.02-.14-1.46-.42l-.07-.04c-9.97-6.15-19.21-12.95-27.44-20.2-10.34-9.09-19.23-19.05-26.42-29.59-4.79-7.02-8.9-14.42-12.24-22.03-.43,.07-.85,.14-1.28,.21-1.61,.26-3.27,.53-4.88,.84-.68,.14-1.39,.26-2.1,.38-.89,.15-1.73,.3-2.55,.48-.87,.19-1.75,.36-2.62,.53-1.75,.34-3.4,.66-4.94,1.18-.02,0-.03,.01-.05,.02-.1,.04-.22,.07-.32,.09-.66,.15-1.32,.31-1.98,.47-.7,.17-1.39,.34-2.09,.5-.17,.04-.35,.06-.52,.07,0,0-.34,.01-.35,.01-3.03-.01-5.73-2.49-6.07-5.55,0-.02-.06-.54-.06-.54-.01-.1-.02-.2-.01-.29,0-.86,.22-1.59,.37-2.13l.08-.28c.07-.27,.2-.56,.35-.8,.33-.55,.71-1.15,1.09-1.75,.44-.71,.87-1.38,1.27-2.06,0-3.21,0-6.42,0-9.63v-19.16c-.84-.48-1.73-1.03-2.56-1.71-.1-.08-.19-.17-.27-.26-.09-.1-.2-.23-.28-.34l-.12-.16c-.33-.43-.95-1.24-1.12-2.4,0,0,0,0,0,0,0,0-.02-.06-.04-.11-.08-.32-.21-.8-.23-1.38,0-.03,0-.08,0-.11,0-.13,0-.27,.03-.4,.01-.08,.03-.17,.05-.24l.09-.4c.09-.4,.17-.8,.29-1.19,.04-.13,.09-.26,.14-.39,.02-.04,.05-.1,.07-.14,.72-1.38,1.88-2.45,3.29-3.03,.14-.06,.28-.11,.42-.15,.03,0,.07-.02,.1-.02,2.78-.62,5.6-1.2,8.34-1.77,1.71-.35,3.41-.7,5.11-1.07,.05-.01,1.6-.29,1.93-.35-.01-.76-.02-1.51-.02-2.25,0-3.76,.16-7.67,.49-11.95,.58-7.1,1.65-14.17,3.19-21.04,1.58-6.86,3.23-12.36,5.19-17.3l.06-.15c.29-.73,.89-1.3,1.63-1.56,.3-.11,.62-.16,.93-.16,.46,0,.91,.11,1.32,.34l.13,.07c7.28,4,13.49,6.69,19.56,8.48,5.11,1.5,9.66,2.22,13.91,2.22h.34c4.08,0,8.05-.71,11.8-2.11,.05-.02,.1-.04,.15-.06,4.7-1.68,8.87-4.5,12.34-7.03,.71-.51,1.4-1.02,2.09-1.52,1.33-.98,2.71-1.99,4.13-2.95,.33-.23,.7-.37,1.07-.44,.19-.04,.38-.06,.58-.06,.18,0,.36,.02,.54,.05l.6,.12c.33,.06,.64,.19,.93,.37,.04,.02,.1,.06,.13,.09,1.42,.98,2.82,2.01,4.18,3.01,3.15,2.31,6.12,4.49,9.38,6.22,4.32,2.32,9,3.76,13.56,4.18,1.11,.1,2.24,.15,3.35,.15,3.18,0,6.55-.39,10.02-1.17,7.18-1.62,14.69-4.65,23.62-9.54l.14-.07c.41-.22,.86-.34,1.32-.34,.31,0,.63,.05,.93,.16,.74,.27,1.33,.83,1.63,1.56l.06,.14c2.09,5.27,3.79,11,5.35,18.04,1.51,6.9,2.55,13.99,3.09,21.07,.29,4.31,.42,7.82,.42,11.08,0,.74,0,1.48-.02,2.22,.65,.12,1.29,.24,1.94,.36,2.03,.37,4.13,.76,6.21,1.25,.71,.15,1.48,.31,2.24,.47,1.24,.25,2.52,.51,3.8,.82,1.82,.29,3.46,1.52,4.42,3.32,.03,.05,.05,.1,.07,.14,.06,.13,.11,.28,.16,.42,.11,.38,.2,.75,.28,1.13l.09,.41c.08,.31,.1,.64,.07,.96-.04,.54-.17,1.03-.27,1.42-.03,.12-.06,.24-.09,.36-.02,.1-.04,.19-.07,.29-.03,.09-.06,.18-.1,.27-.75,1.83-2.29,2.78-3.24,3.36-.04,.03-.08,.05-.12,.07-.39,.22-.77,.45-1.15,.67-.02,.01-.05,.03-.07,.04,.57,5.19,1.16,10.37,1.76,15.56,.49,4.3,.99,8.59,1.47,12.9l.06,.12c.73,1.23,1.49,2.45,2.25,3.67l.17,.28c.56,.79,.77,1.59,.91,2.13l.06,.22c.05,.17,.08,.35,.1,.53l.06,.58c.01,.1,.02,.2,.02,.3-.01,3.42-2.81,6.31-6.11,6.33,0,0-.15,0-.22,0l-.44-.03c-.17-.01-.33-.04-.49-.08-.66-.15-1.3-.3-1.95-.46-.58-.14-1.17-.28-1.75-.42-.09-.02-.18-.04-.26-.07l-.11-.03c-1.34-.42-2.61-.82-3.88-1.1-.56-.12-1.13-.24-1.71-.35-1.12-.23-2.24-.46-3.36-.72-.07-.02-.13-.03-.2-.05-.38-.1-.84-.16-1.34-.22-.58-.08-1.24-.16-1.92-.32-2.95-.55-5.83-1.05-8.6-1.5-4.26,9.69-9.7,18.97-16.2,27.62-6.62,8.82-14.52,17.24-23.49,25.01-7.91,6.88-16.83,13.4-26.51,19.39,0,0-.08,.05-.09,.05-.44,.27-.94,.4-1.43,.4Z"/><g class="cls-2"><path class="cls-4" d="M98.72,10.99l.58,.11c4.59,3.18,8.91,6.79,13.86,9.4,4.53,2.44,9.53,4.04,14.65,4.51,4.77,.43,9.59-.03,14.26-1.07,8.59-1.94,16.69-5.61,24.38-9.83,2.25,5.69,3.88,11.62,5.21,17.58,1.49,6.8,2.5,13.72,3.03,20.66,.35,5.14,.55,10.29,.32,15.44,3.48,.74,7,1.24,10.45,2.07,2.05,.44,4.11,.82,6.16,1.31,1.05,.13,1.92,.91,2.41,1.83,.14,.48,.23,.95,.35,1.43-.04,.5-.22,.99-.32,1.47-.38,.95-1.27,1.53-2.12,2.05-.97,.55-1.89,1.14-2.87,1.67,1.11,10.26,2.34,20.5,3.48,30.76-.01,.29,.19,.5,.33,.73,.84,1.42,1.7,2.8,2.57,4.19,.35,.45,.45,1.01,.59,1.53,.44,2.07-1.44,4.36-3.59,4.03-1.28-.28-2.54-.61-3.82-.9-1.4-.44-2.8-.88-4.23-1.2-1.69-.36-3.38-.68-5.05-1.07-1.14-.31-2.34-.31-3.48-.6-3.65-.68-7.32-1.31-10.98-1.88-4.33,10.34-10,20.13-16.75,29.09-6.75,9.01-14.56,17.19-23.06,24.56-8.16,7.09-16.95,13.43-26.14,19.12-9.54-5.89-18.65-12.52-27.07-19.92-9.77-8.59-18.61-18.3-25.94-29.05-5.05-7.41-9.38-15.31-12.84-23.57l-.1-.04c-2.79,.49-5.6,.9-8.39,1.43-1.57,.32-3.16,.53-4.74,.88-2.66,.6-5.37,.94-7.94,1.82-1.36,.3-2.71,.66-4.07,.97-1.7,.14-3.29-1.35-3.44-3.02-.16-.72,.12-1.43,.3-2.12,.93-1.53,1.92-3.02,2.8-4.57,.01-10.41,0-20.83,0-31.25-1.23-.72-2.51-1.37-3.63-2.28-.29-.41-.68-.81-.75-1.33-.07-.39-.23-.78-.24-1.17,.11-.49,.2-.97,.34-1.44,.4-.78,1.07-1.4,1.88-1.72,4.46-.99,8.95-1.87,13.42-2.83,1.43-.25,2.86-.53,4.29-.71-.22-5.49-.03-10.97,.39-16.44,.56-6.93,1.6-13.83,3.13-20.63,1.32-5.71,2.89-11.4,5.05-16.86,6.41,3.52,13.09,6.64,20.12,8.72,4.89,1.43,9.96,2.38,15.07,2.34,4.41,0,8.8-.78,12.93-2.34,4.75-1.7,9.02-4.46,13.07-7.42,2.05-1.47,4.05-3,6.13-4.42h0Zm-.46,8.79c-3.15,2.32-6.34,4.63-9.76,6.56-2.43,1.35-4.98,2.48-7.62,3.32-2.66,.81-5.37,1.42-8.08,1.95-3.67,.59-7.42,.68-11.1,.26-3.45-.33-6.81-1.17-10.16-1.98-5.63-1.35-11.01-3.52-16.26-5.95-.22,.45-.29,.94-.46,1.4-.63,2.21-1.26,4.42-1.75,6.66-.98,4.53-1.76,9.12-2.31,13.72-.67,5.6-1.08,11.24-1.02,16.88,.01,1.39-.07,2.79,.03,4.19,.74-.07,1.46-.28,2.19-.32,1.46-.16,2.87-.54,4.33-.72,3.13-.49,6.28-.91,9.42-1.34,1.24-.14,2.48-.2,3.71-.43,.75-.03,1.49-.09,2.21-.29,3.87-.42,7.74-.94,11.63-.98,1.01,.04,2.04,.03,3.02,.33,.98,.17,1.96,.45,2.83,.98,.26-.62,.67-1.18,1.24-1.53,.46-.45,1.12-.41,1.69-.62,.14-.64,.63-1.1,.99-1.61,.59-.66,1.26-1.25,1.85-1.9,.07-4.86,.01-9.74,.03-14.62-.76-.64-1.5-1.28-2.26-1.91-.51-.46-1.03-.98-1.08-1.7-.22-.56,.01-1.15,.16-1.72,.38-.65,1.01-1.22,1.78-1.35,.99-.28,2.02-.25,3.04-.29,1.1-.17,2.22-.05,3.32-.19,.76-.1,1.53-.01,2.29-.08,2.7-.16,5.46-.45,8.1,.3,1.11,.22,2.11,.81,2.93,1.56,.34-.35,.21-.93,.57-1.27,.58-.84,1.62-1.07,2.57-1.1h6.06c.55,.09,1.13,.17,1.62,.45,.67-.19,1.32-.43,1.99-.39,1.98,.09,3.94,.1,5.9,.2,.71,.14,1.47,.25,2.01,.77,.79-.55,1.83-.62,2.77-.49,1.5-.03,2.99,.19,4.49,.16,1.2,.19,2.43,.03,3.59,.35,.85,.1,1.59,.7,1.98,1.46,.07,.39,.18,.76,.22,1.17-.07,.36-.14,.74-.26,1.1-.39,.65-.95,1.15-1.54,1.6-.84,.71-1.68,1.4-2.5,2.13-.29,.43-.41,.94-.62,1.4-.48,1.11-.92,2.23-1.38,3.35l-.14,.48c.92,2.58,1.83,5.17,2.74,7.76,.2,.65,.76,1.07,1.21,1.56,.82,.85,1.78,1.67,2.22,2.81,.71,0,1.4,.23,2.1,.39,.46,.24,.84,.58,1.2,.95,.29-.04,.56-.22,.84-.32,.79-.36,1.65-.52,2.48-.7,2.02-.55,4.18-.35,6.19,.18,1.57,.33,3.1,.95,4.43,1.89,.85,.62,1.73,1.24,2.4,2.08,.5,.58,.93,1.23,1.4,1.83,.75-.76,1.53-1.5,2.44-2.11,1.37-1.08,3.12-1.37,4.78-1.74,2.03-.33,4.07,.17,6.03,.68,1.72,.4,3.29,1.28,4.66,2.37,.91,.61,1.57,1.49,2.38,2.18,.06-.95,.08-1.91,.11-2.87-.02-4.09,.06-8.19-.25-12.27-.43-6.89-1.33-13.76-2.72-20.52-.62-3.3-1.57-6.54-2.51-9.76-.08-.27-.4-.04-.56,.03-4.76,2.25-9.71,4.19-14.82,5.53-2.5,.59-5,1.24-7.54,1.7-4.25,.76-8.63,1.01-12.93,.49-2.25-.25-4.46-.81-6.66-1.33-4.33-.98-8.47-2.73-12.27-5.05-3.07-1.85-5.97-3.99-8.88-6.11-.29-.03-.49,.29-.74,.42h0Zm-2.44,18.79c.02,7.65-.01,15.29,0,22.94,2.26,0,4.52,0,6.79-.01v-22.94c-2.26,.01-4.53-.03-6.79,.01h0Zm9.51,.09c.03,7.62,.01,15.26,0,22.88,2.27,.1,4.54,.14,6.8,.24-.02-3.19,.03-6.39-.02-9.58l.3,.67c1,3.03,2.07,6.05,3.05,9.09,2.39,.19,4.78,.39,7.17,.58,.52-.01,1.02,.16,1.53,.03-.95-1.04-1.9-2.09-2.86-3.13-.26-.35-.36-.76-.5-1.15-1.01-2.88-2.02-5.73-3.05-8.6l.1-.49c.84-2.01,1.66-4.01,2.5-6.02l.29-.43c1.01-.85,2.04-1.7,3.05-2.54,.23-.23,.52-.4,.71-.68-1.03-.17-2.06-.12-3.09-.2-1.93-.12-3.87-.16-5.8-.29-.98,2.41-1.89,4.87-2.85,7.29-.17,.42-.29,.9-.55,1.27,.05-2.9,0-5.8,.02-8.71-2.26-.13-4.53-.24-6.8-.22h0Zm-28.22,.65c-1.03,.1-2.08,.03-3.1,.2,1.01,.98,2.15,1.85,3.23,2.76l.27,.4c.01,5.39,0,10.78,.01,16.17l-.13,.57c-.95,1.05-1.92,2.09-2.86,3.16,.54,.06,1.08-.06,1.62-.04,2.01-.22,4.01-.31,6.02-.52,1.73-.12,3.46-.17,5.2-.3,1.07-.1,2.14-.17,3.16-.48,.98-.31,1.81-1.07,2.14-2.05,.51-1.5,.38-3.11,.41-4.67-.01-1.16-.04-2.37-.59-3.41-.61-1.08-1.89-1.57-3.07-1.72,.98-.4,2.12-.55,2.89-1.36,.68-.75,.74-1.8,.78-2.75-.03-1.32-.1-2.7-.71-3.88-.63-1.19-1.83-1.99-3.13-2.24-1.7-.33-3.45-.28-5.18-.19-2.31,.14-4.63,.22-6.94,.35h0Zm10.23,27.74c-1.18,1.54-1.57,3.49-1.74,5.39-.17,2.29-.23,4.61,.14,6.88,.36,2.08,1.14,4.24,2.76,5.67,2.04,2,4.41,3.66,6.52,5.59,.58,.53,1.18,1.06,1.61,1.73,.44,.85,.55,1.82,.62,2.76,.09,1.23,.17,2.48-.16,3.7-.16,.57-.49,1.16-1.08,1.34-.68,.25-1.61,.04-1.91-.68-.32-.89-.27-1.85-.32-2.77,.02-1.78-.03-3.54,.02-5.31-.53-.13-1.11-.04-1.66-.04-2.14,.03-4.26,.09-6.4,.17-.03,2.24,0,4.47,.16,6.71-1.69,0-3.36,.14-5.04,.16v-33.44c-.63-.1-1.26,0-1.89,.01-2.25,.04-4.49,.25-6.73,.35-.01,14.06,0,28.12,0,42.19,3.45-.23,6.9-.42,10.35-.55,1.4-.01,2.78-.07,4.17-.16,.06-1.44-.06-2.9,.06-4.34,1.21,2.68,4.03,4.37,6.89,4.78,2.35,.3,4.85,.13,7.03-.89,1.64-.78,3.19-2,3.95-3.69,.67-1.56,.82-3.26,.91-4.93,.1-1.73,.06-3.48-.09-5.21-.14-1.62-.39-3.25-.97-4.77-.43-1.11-1.15-2.08-1.93-2.97-1.85-2.07-4.03-3.81-6.21-5.49-.77-.63-1.56-1.27-2.05-2.13-.5-.95-.54-2.05-.58-3.1,.04-.97,.03-2.07,.71-2.83,.56-.66,1.83-.43,2.02,.46,.4,1.79,.06,3.67,.26,5.49,2.66-.06,5.33,0,7.98,.01-.01-2.71,.1-5.49-.59-8.13-.4-1.57-1.53-2.87-2.89-3.71-2.26-1.47-5.08-1.8-7.72-1.54-2.38,.24-4.76,1.36-6.23,3.31h0Zm19.06-2.61v42.18c2.86,.04,5.73,.13,8.6,.22,.05-5.73-.01-11.48,.03-17.21,.29,.09,.17,.47,.28,.71,1.14,5.55,2.25,11.11,3.41,16.67,2.96,.13,5.93,.3,8.89,.5-.78-3.61-1.68-7.21-2.5-10.8-.97-4.11-1.92-8.23-2.89-12.33v-.56c1.29-4.72,2.6-9.44,3.91-14.17,.38-1.45,.85-2.88,1.17-4.36-2.68-.13-5.35-.36-8.02-.42-1.34,5.12-2.71,10.21-4.06,15.33l-.22,.58c.03-5.37,.02-10.73,.02-16.1-2.87-.15-5.75-.17-8.62-.25h0Zm28.19,.92c-1.69,.18-3.32,.91-4.53,2.09-1.65,1.6-2.54,3.85-2.79,6.12-.26,2.63-.2,5.29-.28,7.92,.01,4.42-.02,8.85,.06,13.27,.04,1.69,.07,3.39,.3,5.08,.36,2.24,1.31,4.41,2.86,6.08,1.66,1.78,4.01,2.77,6.4,3.03,1.52,.16,3.07,.13,4.53-.38,1.8-.59,3.33-1.92,4.22-3.59,.9-1.57,1.27-3.37,1.34-5.15,.2-3.9,.18-7.8,.18-11.69s.03-7.8-.18-11.69c-.09-1.92-.52-3.83-1.4-5.53-.93-1.87-2.39-3.47-4.24-4.42-1.98-1.04-4.27-1.39-6.47-1.14h0Zm-82.74,1.74l-.45,.22c0,12.56,0,25.13-.01,37.7,0,.62,.04,1.24-.03,1.86-.03-1.1-.23-2.19-.35-3.29-1.43-11.96-2.83-23.92-4.27-35.88-4.2,.6-8.42,1.12-12.59,1.82-1.21,11.94-2.51,23.85-3.73,35.78-1.27-4.94-2.44-9.92-3.68-14.87-.04-.26-.17-.52-.1-.79,1.63-6.28,3.25-12.54,4.88-18.82,.07-.3,.2-.59,.19-.91-2.64,.44-5.3,.9-7.94,1.38-.78,3.09-1.55,6.18-2.31,9.29-.61,2.57-1.31,5.11-1.86,7.69-.15-.91-.05-1.82-.07-2.74v-13.4c-.69-.07-1.36,.16-2.02,.29-3.74,.76-7.47,1.56-11.2,2.31,1.49,1.01,3.1,1.85,4.62,2.8,.1,.24,.04,.52,.06,.78v33.2c.03,.32-.19,.55-.33,.81-.98,1.54-1.94,3.13-2.93,4.66,1.14-.29,2.28-.63,3.42-.94,2.77-.68,5.57-1.21,8.39-1.76v-16.36c-.02-.52-.02-1.04,.07-1.56,.06,.75,.26,1.49,.4,2.23,1.06,4.98,2.12,9.96,3.16,14.96l.26-.02c5.11-.94,10.23-1.76,15.36-2.55,.13-2.5,.3-5,.42-7.5,1.02-.17,2.05-.32,3.07-.44,.15,2.47,.31,4.92,.45,7.39,5.73-.78,11.47-1.47,17.24-1.99,.06-2.05,0-4.12,.03-6.16-.01-4.29,0-8.58-.01-12.84,.63-.08,1.33-.1,1.89,.24,.41,.23,.49,.72,.57,1.14,.24,1.6,.17,3.22,.19,4.82v12.53c1.95-.13,3.88-.32,5.83-.46,.75-.07,1.49-.06,2.22-.19-.01-3.96,0-7.92,0-11.88-.07-1.73-.01-3.48-.19-5.2-.13-1.04-.62-1.98-1.22-2.81-.78-1.01-2.04-1.49-3.25-1.78,.76-.29,1.59-.44,2.28-.93,.85-.5,1.46-1.34,1.75-2.28,.55-1.87,.55-3.84,.62-5.77-.07-2.27-.13-4.61-.92-6.76-.57-1.45-1.59-2.83-3.03-3.48-1.08-.46-2.3-.43-3.45-.49-3.82,.04-7.62,.56-11.42,.95h0Zm100.62,1.52c-1.71,1.05-3.13,2.7-3.65,4.67-.35,1.41-.43,2.87-.52,4.31-.2,3.9-.1,7.8-.11,11.7,.03,3.85-.1,7.7,.19,11.56,.13,1.8,.65,3.58,1.47,5.19,.95,1.8,2.45,3.32,4.23,4.31,1.53,.83,3.39,1.22,5.09,.77,1.37-.36,2.4-1.49,3-2.73,.4,.95,.46,2.06,.87,3.04,4.63,.66,9.25,1.52,13.86,2.34,.17-2.42,.33-4.86,.43-7.3,1.02,.06,2.04,.37,3.05,.52,.2,2.51,.32,5.01,.46,7.52,1.47,.39,2.99,.61,4.47,.95,2.5,.5,4.92,1.34,7.39,1.93-1.14-1.78-2.24-3.58-3.35-5.37-.26-.68-.22-1.44-.33-2.16-.87-7.58-1.73-15.16-2.59-22.73-.33-3.12-.76-6.24-1.04-9.37,1.73-.97,3.4-2.01,5.11-3.01l.42-.33c-3.13-.59-6.24-1.32-9.37-1.94-3.06-.58-6.14-1.15-9.2-1.72-.13,.33-.11,.69-.16,1.04-1.21,11.15-2.43,22.32-3.64,33.49-.07,.95-.27,1.91-.29,2.89-.01-6.12,.02-12.24-.01-18.35-3.33-.55-6.67-1.05-10.02-1.56-.09,.58-.01,1.14-.03,1.72,.01,1.55-.05,3.09,.03,4.63,.53,.19,1.15,.18,1.73,.29,0,2.06,.01,4.14-.01,6.2-.06,.91-.05,1.87-.46,2.69-.46,.85-1.8,.63-2.22-.13-.39-.69-.39-1.52-.45-2.28-.1-2.55-.06-5.09-.06-7.65-.01-4.72-.01-9.44,0-14.15,.07-1.32-.04-2.67,.27-3.97,.13-.55,.74-.88,1.27-.72,.72,.11,1.14,.82,1.2,1.5,.33,2.67,.07,5.37,.21,8.06,2.86,.35,5.69,.87,8.55,1.3,0-3.32,.06-6.7-.76-9.93-1.11-3.88-4.48-7.06-8.43-7.88-2.19-.5-4.63-.52-6.61,.65h0Zm-8.51,42.49c-1.14,.66-2.46,.88-3.73,1.19-1.86,.38-3.8,.23-5.61-.26-1.53-.33-3.08-.79-4.37-1.7l-.56-.13c-.65,.54-1.5,.65-2.31,.73-3.17-.18-6.35-.36-9.53-.53-2.37-.03-4.72-.18-7.07-.24-1.95-.16-3.96,.18-5.83-.48-.42-.24-.84-.52-1.14-.89l-.49,.03c-1.83,1.15-4,1.54-6.09,1.89-1.36,.09-2.75,.11-4.07-.18-1.28-.31-2.62-.54-3.81-1.13-.26-.14-.54-.27-.8-.38-.37,.32-.76,.63-1.2,.85-.46,.15-.93,.24-1.41,.35-7.65,.29-15.3,.74-22.93,1.4-1.11,.03-2.23,.14-3.32,.3-5.58,.55-11.16,1.18-16.72,1.96-.94,.02-1.88,.18-2.79,.39,.16,.61,.45,1.15,.72,1.72,3.51,7.66,7.74,15,12.62,21.87,5.76,7.9,12.33,15.17,19.46,21.84,8.03,7.45,16.7,14.22,25.95,20.08,6.7-4.23,13.08-8.95,19.13-14.04,8.53-7.18,16.41-15.15,23.3-23.92,3.55-4.49,6.71-9.28,9.58-14.22,2.06-3.51,3.91-7.12,5.66-10.79,.26-.68,.69-1.29,.82-1.99-1.42-.23-2.84-.49-4.19-1.02-2.47-1.17-4.6-3.05-5.99-5.42-.88,1.14-2.05,2.01-3.28,2.73h0Z"/></g><path class="cls-4" d="M98.7,11.12l.58,.11,.03-.13-.08,.11c4.58,3.17,8.9,6.79,13.87,9.41,4.54,2.44,9.56,4.05,14.7,4.52,1.21,.11,2.41,.16,3.62,.16,3.59,0,7.17-.46,10.68-1.23,8.61-1.94,16.72-5.63,24.42-9.85l-.06-.12-.12,.05c2.25,5.68,3.88,11.6,5.21,17.56,1.48,6.79,2.49,13.71,3.03,20.64,.25,3.61,.42,7.23,.42,10.85,0,1.53-.03,3.05-.1,4.57v.11s.11,.02,.11,.02c3.48,.74,7,1.24,10.45,2.06h0s0,0,0,0c2.05,.45,4.12,.82,6.16,1.31h0s0,0,0,0c1,.12,1.83,.87,2.31,1.77l.12-.06-.12,.04c.14,.46,.23,.94,.34,1.42l.13-.03h-.13c-.04,.47-.21,.95-.31,1.45l.13,.03-.12-.05c-.35,.9-1.21,1.47-2.07,1.98l.07,.11-.07-.12c-.97,.55-1.89,1.14-2.87,1.67l-.08,.04v.09c1.12,10.26,2.35,20.5,3.49,30.77h.13s-.13-.02-.13-.02v.03c0,.34,.23,.57,.35,.78l.11-.07-.12,.07c.84,1.42,1.7,2.8,2.57,4.19h0s0,.01,0,.01c.32,.41,.42,.96,.57,1.48l.13-.04-.13,.03,.06,.59c0,1.67-1.43,3.31-3.1,3.31l-.4-.03-.02,.13,.03-.13c-1.28-.29-2.54-.62-3.82-.9l-.03,.13,.04-.13c-1.4-.44-2.81-.88-4.24-1.2-1.69-.36-3.38-.68-5.05-1.07l-.03,.13,.03-.13c-1.16-.32-2.36-.32-3.48-.6h0s0,0,0,0c-3.65-.68-7.32-1.31-10.99-1.88l-.1-.02-.04,.1c-4.33,10.32-9.99,20.1-16.73,29.06-6.75,9-14.55,17.17-23.05,24.54-8.15,7.08-16.93,13.42-26.12,19.1l.07,.11,.07-.11c-9.54-5.89-18.64-12.51-27.05-19.91-9.76-8.59-18.59-18.29-25.92-29.03-5.05-7.4-9.37-15.29-12.83-23.55l-.02-.05-.15-.07-.04-.02h-.04c-2.78,.5-5.6,.9-8.39,1.44h0c-1.57,.32-3.16,.53-4.74,.88-2.65,.6-5.37,.94-7.95,1.83l.04,.13-.03-.13c-1.36,.31-2.72,.67-4.07,.97l.03,.13v-.13s-.23,0-.23,0c-1.54,0-2.95-1.38-3.08-2.91h0s0-.02,0-.02l-.05-.42c0-.53,.2-1.08,.35-1.64l-.13-.03,.12,.07c.92-1.53,1.92-3.01,2.8-4.58l.02-.03v-.03c0-3.47,0-6.94,0-10.42,0-6.94,0-13.89,0-20.84v-.08l-.07-.04c-1.23-.72-2.51-1.37-3.61-2.26l-.09,.1,.11-.08c-.3-.42-.67-.81-.73-1.27h0c-.08-.41-.23-.8-.24-1.15h-.13s.13,.03,.13,.03c.11-.5,.2-.97,.34-1.43l-.13-.04,.12,.06c.39-.75,1.03-1.35,1.81-1.66l-.05-.12,.03,.13c4.46-.99,8.95-1.87,13.43-2.82l-.03-.13,.02,.13c1.43-.25,2.86-.54,4.28-.71l.12-.02v-.12c-.07-1.57-.1-3.14-.1-4.71,0-3.91,.18-7.82,.48-11.72,.56-6.92,1.61-13.82,3.13-20.61,1.31-5.71,2.89-11.39,5.05-16.84l-.12-.05-.06,.12c6.42,3.53,13.11,6.65,20.15,8.73,4.79,1.4,9.76,2.35,14.77,2.35h.34c4.42,0,8.84-.78,12.98-2.35l-.05-.12,.04,.13c4.77-1.71,9.05-4.48,13.1-7.44,2.05-1.48,4.05-3,6.13-4.41l-.15-.22c-2.09,1.42-4.09,2.95-6.14,4.42-4.04,2.95-8.3,5.7-13.03,7.4h0c-4.11,1.55-8.5,2.33-12.89,2.33h-.34c-4.98,0-9.91-.94-14.69-2.34-7.02-2.07-13.69-5.19-20.1-8.71l-.13-.07-.06,.14c-2.17,5.47-3.74,11.16-5.06,16.88-1.53,6.81-2.57,13.71-3.13,20.65-.3,3.91-.48,7.82-.48,11.74,0,1.57,.03,3.14,.09,4.72h.13s-.01-.14-.01-.14c-1.44,.17-2.87,.46-4.29,.71h0c-4.47,.95-8.96,1.83-13.43,2.83h-.01s0,0,0,0c-.84,.33-1.53,.97-1.95,1.78h0s0,.02,0,.02c-.15,.48-.23,.96-.35,1.45v.02s0,.02,0,.02c.01,.42,.18,.82,.24,1.19l.13-.02-.13,.02c.09,.58,.5,.99,.78,1.39h.01s.01,.03,.01,.03c1.13,.92,2.42,1.57,3.64,2.29l.07-.11h-.13c0,6.95,0,13.89,0,20.84,0,3.47,0,6.94,0,10.42h.13l-.12-.06c-.88,1.55-1.87,3.03-2.8,4.57h0s0,.03,0,.03c-.14,.54-.35,1.11-.36,1.7l.05,.48,.13-.03h-.13c.15,1.68,1.65,3.16,3.34,3.16h.24s0-.01,0-.01h0c1.36-.31,2.72-.67,4.07-.97h0s0,0,0,0c2.55-.88,5.26-1.22,7.92-1.82,1.57-.35,3.15-.56,4.73-.88l-.03-.13,.02,.13c2.78-.53,5.6-.94,8.39-1.43l-.02-.13-.05,.12,.1,.04,.05-.12-.12,.05c3.47,8.28,7.8,16.18,12.86,23.6,7.34,10.76,16.19,20.48,25.96,29.08,8.42,7.41,17.54,14.04,27.08,19.94l.07,.04,.07-.04c9.2-5.69,18-12.03,26.16-19.13,8.51-7.38,16.32-15.57,23.09-24.58,6.75-8.97,12.43-18.77,16.76-29.12l-.12-.05-.02,.13c3.66,.56,7.33,1.2,10.98,1.87l.03-.13-.03,.13c1.16,.29,2.36,.29,3.48,.6h0s0,0,0,0c1.68,.4,3.37,.71,5.05,1.07,1.42,.31,2.82,.76,4.22,1.2h.01c1.28,.29,2.54,.62,3.82,.9h0s.44,.04,.44,.04c1.85,0,3.36-1.77,3.37-3.58l-.07-.64h0c-.14-.52-.25-1.1-.62-1.58l-.1,.08,.11-.07c-.87-1.39-1.73-2.77-2.57-4.19h0s-.31-.64-.31-.64v-.02h0s0-.02,0-.02c-1.14-10.27-2.37-20.5-3.48-30.76h-.13s.06,.13,.06,.13c.99-.54,1.91-1.13,2.87-1.67h0c.86-.52,1.78-1.12,2.18-2.11h0s0-.02,0-.02c.1-.48,.27-.96,.32-1.49v-.02s0-.02,0-.02c-.11-.47-.2-.95-.35-1.43h0s0-.02,0-.02c-.51-.95-1.4-1.77-2.51-1.91l-.02,.13,.03-.13c-2.05-.49-4.12-.87-6.17-1.31l-.03,.13,.03-.13c-3.46-.83-6.98-1.33-10.45-2.07l-.03,.13h.13c.07-1.52,.1-3.05,.1-4.58,0-3.63-.17-7.26-.42-10.87-.53-6.95-1.55-13.87-3.04-20.68-1.33-5.97-2.96-11.9-5.22-17.6l-.06-.14-.13,.07c-7.69,4.21-15.77,7.89-24.35,9.82-3.49,.78-7.06,1.23-10.62,1.23-1.2,0-2.4-.05-3.6-.16-5.1-.47-10.08-2.06-14.6-4.49-4.93-2.6-9.25-6.21-13.84-9.39h-.02s-.6-.13-.6-.13l-.05,.26h0Zm-.52,8.55c-3.15,2.32-6.33,4.63-9.74,6.55-2.42,1.35-4.97,2.47-7.6,3.31l.04,.13-.04-.13c-2.65,.8-5.36,1.41-8.07,1.95l.03,.13-.02-.13c-2.14,.34-4.31,.52-6.48,.52-1.53,0-3.07-.09-4.59-.26h0c-3.44-.33-6.79-1.16-10.14-1.97-5.62-1.34-10.99-3.51-16.23-5.94l-.12-.05-.06,.12c-.23,.47-.3,.97-.46,1.41h0c-.63,2.22-1.26,4.43-1.75,6.68-.98,4.54-1.76,9.13-2.31,13.74-.63,5.26-1.03,10.55-1.03,15.85,0,.35,0,.7,0,1.05v.32c0,.74-.02,1.5-.02,2.26,0,.54,.01,1.07,.05,1.61v.14s.15-.01,.15-.01c.75-.07,1.47-.27,2.19-.32h0c1.47-.16,2.88-.54,4.33-.72h0c3.13-.49,6.28-.91,9.42-1.34l-.02-.13,.02,.13c1.23-.14,2.48-.2,3.72-.44l-.03-.13v.13c.76-.03,1.51-.09,2.24-.29l-.03-.13v.13c3.88-.42,7.75-.94,11.64-.98v-.13s0,.13,0,.13c1.02,.04,2.03,.03,2.98,.32h0s0,0,0,0c.97,.18,1.94,.45,2.78,.97l.13,.08,.06-.14c.26-.6,.65-1.14,1.19-1.47h.01s.01-.02,.01-.02c.41-.41,1.04-.37,1.65-.59l.07-.02v-.07c.14-.59,.61-1.04,.99-1.56l-.11-.08,.1,.09c.58-.65,1.25-1.25,1.85-1.9l.03-.04v-.05c.03-1.98,.04-3.96,.04-5.94,0-2.38-.01-4.76-.01-7.13,0-.52,0-1.04,0-1.55v-.06l-.05-.04c-.76-.64-1.5-1.28-2.26-1.91l-.08,.1,.09-.1c-.51-.46-.99-.96-1.04-1.62v-.04s-.09-.45-.09-.45c0-.37,.14-.78,.24-1.19l-.13-.03,.12,.07c.36-.62,.97-1.17,1.68-1.29h.01c.97-.27,1.98-.25,3.02-.29h.01c1.07-.17,2.2-.05,3.32-.19h0c.35-.04,.7-.05,1.05-.05h.34c.3,0,.6,0,.9-.03v-.13s0,.13,0,.13c1.34-.08,2.69-.19,4.03-.19s2.71,.11,4.02,.49h0s0,0,0,0c1.08,.21,2.06,.79,2.87,1.53l.09,.09,.09-.09c.38-.43,.25-1,.56-1.27h.01s0-.02,0-.02c.54-.78,1.53-1.01,2.47-1.04v-.13s0,.13,0,.13h6.06v-.13l-.02,.13c.55,.09,1.11,.18,1.57,.44l.05,.03,.05-.02c.62-.18,1.21-.39,1.79-.39h.16s0,0,0,0h0c1.98,.09,3.94,.1,5.9,.2v-.13s-.02,.13-.02,.13c.72,.14,1.45,.25,1.94,.73l.08,.08,.09-.06c.55-.38,1.22-.53,1.91-.53,.26,0,.52,.02,.77,.06h.29c1.29,0,2.58,.16,3.89,.16h.32s0-.14,0-.14l-.02,.13c1.23,.19,2.45,.04,3.58,.35h.01s0,0,0,0c.8,.09,1.51,.67,1.88,1.38l.12-.06-.13,.02c.08,.4,.19,.77,.22,1.15h.13s-.13-.03-.13-.03c-.07,.36-.14,.73-.25,1.08l.12,.04-.11-.07c-.37,.63-.92,1.12-1.51,1.56h0c-.84,.71-1.68,1.4-2.5,2.13h-.01s-.01,.02-.01,.02c-.31,.46-.42,.97-.63,1.42h0s0,0,0,0c-.48,1.11-.93,2.24-1.38,3.35h0s-.15,.49-.15,.49v.04s0,.04,0,.04c.92,2.58,1.83,5.17,2.74,7.76l.12-.04-.13,.04c.22,.7,.81,1.13,1.24,1.61h0c.83,.86,1.77,1.68,2.19,2.77l.03,.09h.09c.68,0,1.36,.23,2.06,.38l.03-.13-.06,.12c.44,.23,.81,.56,1.16,.93l.05,.05h.07c.33-.07,.61-.25,.86-.34h0c.78-.35,1.62-.52,2.46-.7h0c.83-.23,1.68-.33,2.53-.33,1.21,0,2.43,.2,3.59,.51h0c1.56,.33,3.07,.95,4.38,1.87l.08-.11-.08,.11c.85,.62,1.72,1.24,2.37,2.05h0s0,0,0,0c.5,.57,.92,1.22,1.4,1.83l.09,.12,.1-.11c.75-.76,1.52-1.49,2.42-2.09h0s0,0,0,0c1.34-1.05,3.06-1.34,4.72-1.72l-.03-.13,.02,.13c.45-.07,.89-.11,1.35-.11,1.55,0,3.11,.39,4.63,.78h0c1.69,.4,3.25,1.27,4.61,2.34h0s0,0,0,0c.89,.59,1.55,1.46,2.37,2.17l.2,.17v-.26c.07-.95,.1-1.91,.13-2.88h0c0-.6,0-1.2,0-1.8v-1.17c0-3.1-.01-6.21-.24-9.31-.43-6.89-1.33-13.76-2.72-20.53l-.13,.03,.13-.03c-.62-3.31-1.57-6.55-2.51-9.77h0s-.29-.23-.29-.23l-.46,.17h0c-4.76,2.25-9.7,4.18-14.8,5.52l.03,.13-.03-.13c-2.5,.59-4.99,1.24-7.53,1.7-2.72,.49-5.49,.76-8.25,.76-1.55,0-3.1-.09-4.64-.27h0c-2.24-.24-4.44-.8-6.64-1.32h0c-4.31-.98-8.44-2.72-12.23-5.04-3.07-1.85-5.97-3.98-8.87-6.1l-.03-.02h-.04s-.05,0-.05,0c-.37,.02-.57,.35-.76,.44l.12,.24c.28-.16,.47-.42,.64-.41h.02v-.13s-.06,.11-.06,.11c2.9,2.12,5.8,4.26,8.88,6.11,3.81,2.33,7.96,4.08,12.31,5.07h0c2.19,.52,4.41,1.08,6.67,1.33l.02-.13-.02,.13c1.55,.19,3.11,.28,4.67,.28,2.78,0,5.56-.28,8.3-.77,2.55-.46,5.05-1.11,7.54-1.7h0c5.12-1.35,10.08-3.28,14.85-5.54l-.06-.12,.05,.12,.35-.15h.02l.02,.04,.12-.04-.13,.04c.94,3.22,1.89,6.45,2.51,9.74h0c1.39,6.75,2.28,13.62,2.71,20.5,.23,3.09,.24,6.19,.24,9.29v1.17c0,.6,0,1.2,0,1.8h0c-.03,.96-.06,1.91-.11,2.86h.13s.08-.09,.08-.09c-.8-.67-1.46-1.56-2.39-2.19l-.07,.11,.08-.1c-1.38-1.09-2.97-1.98-4.71-2.39l-.03,.13,.03-.13c-1.52-.39-3.1-.79-4.7-.79-.46,0-.93,.03-1.39,.11h0c-1.65,.38-3.43,.66-4.83,1.77l.08,.11-.07-.11c-.92,.62-1.71,1.36-2.46,2.13l.1,.09,.1-.08c-.47-.6-.89-1.25-1.41-1.84l-.1,.09,.1-.08c-.68-.86-1.57-1.48-2.42-2.1h0c-1.35-.95-2.89-1.58-4.48-1.92l-.03,.13,.03-.13c-1.18-.31-2.42-.52-3.66-.52-.87,0-1.75,.1-2.6,.33l.03,.13-.03-.13c-.84,.18-1.7,.35-2.51,.71l.05,.12-.04-.12c-.29,.11-.56,.27-.82,.31l.02,.13,.09-.09c-.36-.38-.75-.73-1.23-.98h-.01s-.02-.01-.02-.01c-.68-.15-1.39-.39-2.12-.39v.13l.13-.05c-.46-1.18-1.44-2.01-2.25-2.86l-.1,.09,.1-.09c-.46-.5-1-.91-1.18-1.51h0s0,0,0,0c-.91-2.6-1.82-5.18-2.74-7.76l-.13,.05,.13,.04,.14-.48-.13-.04,.12,.05c.46-1.11,.91-2.24,1.38-3.34l-.12-.05,.12,.06c.22-.48,.34-.98,.61-1.38l-.11-.07,.09,.1c.82-.73,1.66-1.42,2.49-2.12l-.09-.1,.08,.1c.6-.45,1.18-.97,1.58-1.64h0s0-.03,0-.03c.12-.37,.19-.75,.26-1.11v-.02s0-.02,0-.02c-.03-.43-.15-.8-.22-1.18v-.02s-.01-.02-.01-.02c-.4-.78-1.18-1.42-2.08-1.53v.13s.02-.13,.02-.13c-1.2-.32-2.43-.16-3.61-.35h-.01s-.01,0-.01,0h-.32c-1.29,0-2.58-.16-3.89-.16h-.28s0,.13,0,.13l.02-.13c-.26-.04-.53-.06-.8-.06-.72,0-1.46,.15-2.06,.57l.08,.11,.09-.09c-.58-.56-1.37-.66-2.07-.8h0s-.01,0-.01,0c-1.96-.1-3.93-.11-5.9-.2v.13s0-.13,0-.13h-.17c-.65,0-1.26,.22-1.87,.39l.04,.13,.06-.12c-.52-.29-1.12-.38-1.66-.46h0s-.01,0-.01,0h-6.07c-.97,.03-2.06,.26-2.67,1.15l.11,.08-.09-.1c-.41,.43-.28,1.01-.57,1.28l.09,.09,.09-.1c-.84-.77-1.85-1.37-2.99-1.59l-.03,.13,.04-.13c-1.35-.38-2.72-.5-4.09-.5s-2.71,.11-4.05,.19h0c-.29,.03-.58,.03-.87,.03h-.34c-.36,0-.72,0-1.09,.05h0c-1.08,.13-2.21,.02-3.33,.19l.02,.13v-.13c-1.02,.04-2.06,.01-3.08,.3l.04,.13-.02-.13c-.82,.14-1.48,.74-1.87,1.41h0s0,.03,0,.03c-.1,.39-.25,.81-.25,1.25l.1,.55,.12-.05h-.13c.07,.8,.62,1.34,1.12,1.8h0c.76,.63,1.5,1.27,2.27,1.91l.08-.1h-.13c0,.52,0,1.04,0,1.55,0,2.38,.01,4.76,.01,7.13,0,1.98,0,3.96-.04,5.93h.13l-.1-.09c-.59,.64-1.25,1.23-1.85,1.9h0s0,.01,0,.01c-.35,.5-.86,.96-1.02,1.65l.13,.03-.05-.12c-.52,.2-1.21,.15-1.73,.65l.09,.09-.07-.11c-.61,.37-1.02,.96-1.29,1.59l.12,.05,.07-.11c-.89-.54-1.89-.82-2.88-1l-.02,.13,.04-.13c-1.01-.31-2.05-.29-3.05-.33h0s0,0,0,0c-3.91,.04-7.78,.56-11.65,.98h-.01s-.01,0-.01,0c-.71,.2-1.43,.26-2.18,.28h-.02c-1.22,.24-2.45,.29-3.7,.43h0c-3.14,.44-6.29,.85-9.43,1.34l.02,.13-.02-.13c-1.47,.18-2.88,.57-4.33,.72v.13s0-.13,0-.13c-.76,.05-1.48,.25-2.2,.32v.13s.14-.01,.14-.01c-.04-.53-.05-1.06-.05-1.59,0-.75,.02-1.51,.02-2.26v-.32c0-.35,0-.7,0-1.05,0-5.29,.41-10.56,1.03-15.81,.54-4.6,1.32-9.18,2.3-13.71,.49-2.23,1.12-4.44,1.75-6.65l-.13-.04,.12,.05c.18-.48,.25-.97,.46-1.39l-.12-.06-.05,.12c5.25,2.43,10.64,4.61,16.28,5.95,3.35,.81,6.72,1.65,10.18,1.98v-.13s0,.13,0,.13c1.53,.18,3.07,.26,4.62,.26,2.18,0,4.37-.17,6.52-.52h0c2.71-.54,5.43-1.14,8.09-1.95h0c2.65-.84,5.22-1.97,7.65-3.33,3.43-1.93,6.62-4.24,9.77-6.57l-.16-.22h0Zm-2.49,18.9c0,1.63,0,3.26,0,4.88,0,4.42,0,8.83,0,13.24,0,1.61,0,3.21,0,4.82v.13h.13c2.26,0,4.52,0,6.79-.01h.13v-23.2h-.13c-.28,0-.57,0-.85,0-1.19,0-2.38-.01-3.56-.01-.79,0-1.58,0-2.37,.02v.27c.79-.01,1.58-.02,2.37-.02,1.18,0,2.37,.01,3.56,.01,.29,0,.57,0,.85,0v-.13h-.13v22.94h.13v-.13c-2.26,.01-4.52,.01-6.79,.01v.13h.13c0-1.6,0-3.21,0-4.81,0-4.41,.01-8.82,.01-13.24,0-1.63,0-3.26,0-4.88h-.27Zm9.52,.09c.01,3.23,.01,6.46,.01,9.69,0,4.39,0,8.79-.01,13.19v.13h.12c2.27,.11,4.54,.15,6.8,.25h.14s0-.13,0-.13c0-.49,0-.98,0-1.47,0-1.57,0-3.14,0-4.71,0-1.14,0-2.27-.02-3.4h-.13l-.12,.06,.3,.66,.12-.05-.12,.04c1,3.03,2.07,6.05,3.05,9.09l.03,.08h.09c2.39,.2,4.78,.4,7.17,.59h.07c.34,0,.68,.08,1.05,.08l.46-.05,.21-.06-.15-.16c-.95-1.04-1.91-2.09-2.86-3.13l-.1,.09,.11-.08c-.24-.32-.34-.72-.48-1.12l-.12,.05,.12-.05c-1.01-2.87-2.02-5.73-3.05-8.6l-.12,.04,.13,.03,.1-.49-.13-.03,.12,.05c.84-2.01,1.66-4.01,2.5-6.02l-.12-.05,.11,.07,.29-.43-.11-.07,.09,.1c1.01-.85,2.04-1.7,3.05-2.54h0s0,0,0,0c.22-.22,.51-.39,.72-.7l.12-.17-.2-.03c-1.05-.18-2.09-.12-3.1-.2h0c-1.94-.12-3.87-.16-5.8-.29h-.1s-.04,.08-.04,.08c-.98,2.42-1.89,4.87-2.84,7.29l.12,.05-.12-.05c-.18,.44-.29,.9-.54,1.25l.11,.08h.13c.02-1.03,.02-2.06,.02-3.09,0-1.43,0-2.86,0-4.28,0-.44,0-.89,0-1.33v-.13h-.13c-2.04-.12-4.07-.23-6.11-.23h-.69s0,.27,0,.27h.69c2.03,0,4.07,.1,6.1,.22v-.13s-.13,0-.13,0c0,.44,0,.89,0,1.34,0,1.43,0,2.86,0,4.28,0,1.03,0,2.06-.02,3.08v.44s.24-.36,.24-.36c.28-.4,.39-.89,.56-1.3h0c.95-2.43,1.86-4.88,2.84-7.29l-.12-.05v.13c1.93,.13,3.86,.18,5.8,.29v-.13s0,.13,0,.13c1.04,.09,2.07,.03,3.08,.2l.02-.13-.11-.08-.69,.66,.09,.09-.09-.1c-1.01,.84-2.04,1.69-3.05,2.54h-.01s-.3,.46-.3,.46h0s0,.02,0,.02c-.84,2-1.66,4.01-2.5,6.02h0s-.1,.52-.1,.52v.04s0,.03,0,.03c1.02,2.87,2.04,5.73,3.05,8.6h0s0,0,0,0c.14,.38,.24,.81,.52,1.19h0s0,.01,0,.01c.95,1.04,1.91,2.09,2.86,3.13l.1-.09-.03-.13-.39,.04c-.33,0-.67-.08-1.05-.08h-.07v.13s.01-.13,.01-.13c-2.4-.19-4.78-.39-7.17-.58v.13s.12-.04,.12-.04c-.98-3.05-2.05-6.06-3.05-9.09h0s-.31-.68-.31-.68l-.26-.57v.63c.02,1.13,.03,2.26,.03,3.4,0,1.57,0,3.14,0,4.71,0,.49,0,.98,0,1.47h.13v-.13c-2.26-.1-4.53-.14-6.79-.24v.13s.12,0,.12,0c0-4.39,.02-8.79,.02-13.19,0-3.23,0-6.46-.02-9.69h-.26Zm-28.1,.52c-1.01,.1-2.07,.03-3.11,.2l-.26,.04,.19,.18c1.02,.99,2.16,1.85,3.24,2.76l.09-.1-.11,.07,.28,.41,.11-.07h-.13c0,2.69,0,5.39,0,8.09s0,5.39,0,8.08h.13l-.13-.03-.13,.57,.13,.03-.1-.09c-.95,1.05-1.92,2.09-2.86,3.16l-.17,.2,.26,.03,.33,.02c.41,0,.82-.06,1.2-.06h.09s.01,0,.01,0h0c2-.22,4.01-.31,6.02-.52v-.13s0,.13,0,.13c1.73-.12,3.46-.17,5.2-.3h0c1.06-.1,2.14-.17,3.19-.48h0c1.02-.32,1.88-1.11,2.23-2.14,.38-1.14,.41-2.33,.41-3.5v-.55s0-.66,0-.66h0c-.01-1.16-.04-2.4-.6-3.47h0c-.64-1.14-1.97-1.64-3.17-1.78v.13s.03,.13,.03,.13c.96-.4,2.12-.54,2.93-1.39h0c.72-.8,.77-1.89,.82-2.84h0c-.03-1.33-.1-2.73-.72-3.95h0c-.66-1.23-1.89-2.06-3.22-2.31h0c-1.01-.19-2.03-.26-3.05-.26-.72,0-1.45,.03-2.17,.07h0c-2.31,.14-4.63,.22-6.94,.35v.27c2.32-.13,4.65-.2,6.96-.35v-.13s0,.13,0,.13c.72-.04,1.44-.07,2.15-.07,1.01,0,2.01,.06,2.99,.25h0c1.26,.24,2.43,1.02,3.04,2.17l.12-.06-.12,.06c.59,1.15,.67,2.51,.69,3.83h.13s-.13,0-.13,0c-.04,.95-.11,1.97-.75,2.67l.1,.09-.1-.09c-.72,.77-1.83,.91-2.84,1.33l-.47,.19,.5,.06c1.16,.14,2.4,.63,2.97,1.65l.11-.06-.12,.06c.53,1,.56,2.19,.58,3.35h0s0,.67,0,.67v.55c0,1.17-.02,2.33-.39,3.42-.31,.94-1.11,1.68-2.05,1.97l.04,.13-.04-.13c-1.01,.3-2.06,.37-3.13,.47v.13s0-.13,0-.13c-1.73,.13-3.46,.19-5.19,.3h0c-2,.22-4.01,.3-6.02,.52v.13s.02-.13,.02-.13h-.1c-.41,0-.82,.06-1.2,.06h-.31s-.01,.12-.01,.12l.1,.09c.94-1.07,1.91-2.11,2.86-3.16l.02-.03,.14-.61v-.02s0-.01,0-.01c0-2.69,0-5.39,0-8.08s0-5.39,0-8.09v-.04l-.3-.44h0s-.01-.02-.01-.02c-1.09-.91-2.23-1.78-3.23-2.75l-.09,.1,.02,.13c1-.17,2.05-.1,3.09-.2l-.03-.26h0Zm10.14,27.8c-1.21,1.57-1.6,3.55-1.77,5.45h0c-.08,1.06-.14,2.12-.14,3.18,0,1.25,.08,2.5,.28,3.74,.36,2.1,1.15,4.28,2.8,5.75l.09-.1-.09,.1c2.06,2,4.43,3.67,6.53,5.59,.58,.53,1.17,1.06,1.59,1.7l.11-.07-.12,.06c.42,.82,.54,1.77,.61,2.7,.04,.56,.08,1.12,.08,1.68,0,.66-.06,1.32-.23,1.96-.15,.55-.47,1.09-1,1.25h0l-.54,.09c-.51,0-1.01-.23-1.19-.69l-.13,.05,.13-.05c-.31-.86-.27-1.8-.31-2.73h-.13s.13,0,.13,0c0-.28,0-.56,0-.84,0-.86,0-1.72,0-2.58,0-.63,0-1.26,.02-1.89v-.11s-.1-.03-.1-.03l-.74-.08c-.33,0-.65,.03-.95,.03h0c-2.14,.03-4.26,.09-6.4,.18h-.12v.13c0,.49-.01,.99-.01,1.48,0,1.75,.04,3.5,.17,5.25h.13v-.14c-1.7,0-3.37,.14-5.04,.15v.13h.14v-33.56l-.11-.02-.64-.04c-.44,0-.86,.05-1.28,.06-2.26,.04-4.5,.25-6.73,.35h-.13v.13c0,4.68,0,9.37,0,14.06,0,9.37,0,18.75,0,28.13v.14h.14c3.45-.24,6.9-.43,10.35-.56v-.13s0,.13,0,.13c1.4-.01,2.79-.07,4.18-.16h.12s0-.13,0-.13c.01-.34,.02-.68,.02-1.02,0-.57-.01-1.15-.01-1.72,0-.54,.01-1.07,.05-1.6h-.13s-.12,.04-.12,.04c1.24,2.74,4.09,4.44,6.99,4.86h0c.68,.09,1.37,.13,2.06,.13,1.73,0,3.47-.3,5.04-1.04,1.66-.79,3.24-2.02,4.02-3.76h0c.67-1.59,.83-3.31,.92-4.97,.04-.64,.05-1.29,.05-1.93,0-1.1-.05-2.2-.14-3.3-.15-1.62-.39-3.27-.98-4.8-.44-1.13-1.17-2.11-1.96-3.01h0c-1.86-2.08-4.04-3.83-6.23-5.51l-.08,.11,.08-.1c-.77-.63-1.55-1.27-2.02-2.1l-.12,.07,.12-.06c-.48-.91-.52-1.99-.56-3.04h-.13s.13,.01,.13,.01c.04-.98,.04-2.04,.67-2.75h0c.19-.23,.48-.34,.78-.34,.47,0,.92,.27,1.01,.73h0c.17,.76,.2,1.53,.2,2.31,0,.55-.02,1.1-.02,1.66,0,.5,.01,1.01,.07,1.51v.12s.13,0,.13,0c.85-.02,1.71-.03,2.57-.03,1.8,0,3.61,.03,5.41,.04h.13v-1.8c0-2.17-.04-4.37-.6-6.5-.41-1.61-1.56-2.94-2.94-3.79l-.07,.11,.07-.11c-1.84-1.2-4.03-1.65-6.2-1.65-.54,0-1.08,.03-1.61,.08-2.41,.25-4.83,1.37-6.32,3.36l.21,.16c1.43-1.92,3.78-3.02,6.13-3.26,.52-.05,1.05-.08,1.58-.08,2.13,0,4.27,.44,6.05,1.6h0s0,0,0,0c1.33,.82,2.43,2.1,2.83,3.63,.55,2.08,.59,4.26,.59,6.43v1.66h.13v-.13c-1.8,0-3.61-.04-5.41-.04-.86,0-1.72,0-2.57,.03v.13s.14-.01,.14-.01c-.05-.49-.07-.98-.07-1.48,0-.55,.02-1.1,.02-1.66,0-.79-.04-1.58-.21-2.37l-.13,.03,.13-.03c-.13-.62-.71-.95-1.27-.95-.36,0-.73,.14-.98,.43l.1,.09-.1-.09c-.72,.82-.7,1.95-.74,2.92h0c.05,1.06,.07,2.18,.59,3.17h0c.51,.89,1.32,1.54,2.08,2.18h0s0,0,0,0c2.18,1.68,4.35,3.42,6.19,5.47l.1-.09-.1,.09c.77,.89,1.49,1.85,1.91,2.93,.57,1.5,.82,3.12,.96,4.73,.09,1.09,.14,2.18,.14,3.27,0,.64-.02,1.28-.06,1.92-.08,1.66-.24,3.35-.9,4.88l.12,.05-.12-.05c-.74,1.66-2.26,2.86-3.89,3.63-1.53,.72-3.23,1.01-4.93,1.01-.68,0-1.36-.05-2.03-.13l-.02,.13,.02-.13c-2.82-.4-5.6-2.07-6.78-4.7l-.21-.47-.04,.51c-.04,.54-.05,1.08-.05,1.62,0,.57,.01,1.15,.01,1.72,0,.34,0,.68-.02,1.01h.13s0-.13,0-.13c-1.38,.09-2.77,.14-4.16,.16h0c-3.45,.13-6.9,.32-10.36,.55v.13h.14c0-9.38,0-18.76,0-28.13,0-4.69,0-9.37,0-14.06h-.13v.13c2.25-.1,4.49-.3,6.73-.35,.43,0,.85-.06,1.27-.06l.6,.04,.02-.13h-.13v33.58h.13c1.68-.01,3.35-.16,5.04-.16h.14v-.14c-.13-1.74-.17-3.48-.17-5.23,0-.49,0-.98,0-1.48h-.13s0,.13,0,.13c2.13-.09,4.26-.15,6.39-.18v-.13s0,.13,0,.13c.32,0,.64-.03,.95-.03l.67,.07,.03-.13h-.13c-.02,.63-.02,1.26-.02,1.89,0,.86,0,1.72,0,2.58,0,.28,0,.56,0,.84h0c.05,.92,0,1.89,.33,2.82h0s0,0,0,0c.24,.59,.85,.86,1.44,.86l.63-.11-.04-.12,.04,.13c.66-.21,1.01-.85,1.17-1.44,.19-.67,.24-1.36,.24-2.04,0-.57-.04-1.14-.08-1.7-.07-.95-.19-1.93-.64-2.81h0s0-.01,0-.01c-.45-.69-1.06-1.23-1.64-1.76-2.12-1.94-4.49-3.6-6.52-5.59h0c-1.59-1.41-2.36-3.54-2.71-5.6-.2-1.22-.28-2.46-.28-3.69,0-1.05,.05-2.11,.13-3.16h-.13s.13,0,.13,0c.17-1.89,.56-3.81,1.72-5.31l-.21-.16h0Zm19.03-2.53v42.31h.13c2.86,.04,5.73,.13,8.6,.22h.14s0-.13,0-.13c.01-1.8,.02-3.61,.02-5.41,0-2.16,0-4.33,0-6.49,0-1.77,0-3.54,.02-5.31h-.13l-.04,.13,.12,.19,.08,.44,.12-.05-.13,.03c1.14,5.55,2.25,11.11,3.41,16.67l.02,.1h.1c2.96,.13,5.93,.31,8.89,.51h.18s-.04-.16-.04-.16c-.78-3.61-1.68-7.21-2.5-10.8-.97-4.11-1.92-8.23-2.89-12.32l-.13,.03h.13s-.01-.56-.01-.56h-.13s.13,.04,.13,.04c1.3-4.72,2.61-9.44,3.92-14.17h0c.37-1.45,.85-2.89,1.17-4.37l.03-.15h-.16c-2.68-.13-5.35-.37-8.03-.43h-.11s-.03,.1-.03,.1c-1.34,5.11-2.72,10.21-4.06,15.33l.13,.03-.12-.05-.22,.58,.12,.05h.13c.02-3.02,.02-6.04,.02-9.06,0-2.35,0-4.69,0-7.04v-.12h-.12c-2.88-.16-5.75-.18-8.62-.26v.26c2.87,.09,5.74,.1,8.61,.25v-.13s-.13,0-.13,0c0,2.35,0,4.69,0,7.04,0,3.02,0,6.04-.02,9.06v.74s.48-1.27,.48-1.27h0s0-.01,0-.01c1.34-5.13,2.72-10.22,4.06-15.33l-.13-.03v.13c2.66,.06,5.33,.29,8.02,.42v-.13s-.12-.03-.12-.03c-.31,1.46-.79,2.89-1.17,4.35l.13,.03-.13-.03c-1.31,4.72-2.62,9.44-3.92,14.17v.02s0,.58,0,.58h0s0,.03,0,.03c.97,4.1,1.92,8.21,2.89,12.33,.82,3.59,1.72,7.19,2.5,10.79l.13-.03v-.13c-2.95-.2-5.93-.38-8.89-.5v.13s.12-.03,.12-.03c-1.15-5.56-2.27-11.11-3.4-16.67h0s0-.03,0-.03l-.06-.38-.3-.41-.17-.05v.18c-.01,1.77-.02,3.54-.02,5.31,0,2.16,0,4.33,0,6.49,0,1.8,0,3.6-.02,5.41h.13v-.13c-2.87-.09-5.74-.17-8.6-.22v.13s.13,0,.13,0v-42.18h-.26Zm28.31,.79c-1.71,.19-3.37,.93-4.61,2.13-1.68,1.63-2.58,3.91-2.83,6.2-.26,2.64-.2,5.3-.28,7.93h0c0,.79,0,1.57,0,2.35,0,1.1,0,2.19,0,3.29,0,2.55,0,5.09,.06,7.63,.04,1.69,.07,3.4,.3,5.1h0c.37,2.26,1.33,4.45,2.89,6.15,1.69,1.8,4.07,2.81,6.48,3.07,.51,.05,1.03,.08,1.54,.08,1.03,0,2.06-.13,3.05-.47l-.04-.13,.04,.13c1.83-.6,3.39-1.95,4.29-3.66l-.12-.06,.11,.06c.91-1.59,1.29-3.42,1.36-5.21,.16-3.06,.17-6.12,.17-9.18v-5.04c0-3.06-.02-6.12-.17-9.17-.09-1.94-.52-3.86-1.42-5.58l-.12,.06,.12-.06c-.94-1.89-2.43-3.51-4.3-4.48-1.59-.84-3.39-1.23-5.17-1.23-.46,0-.92,.03-1.37,.08l.03,.26c.44-.05,.89-.07,1.34-.07,1.75,0,3.5,.38,5.05,1.2,1.82,.94,3.28,2.52,4.19,4.36h0c.87,1.68,1.3,3.57,1.38,5.48,.16,3.05,.18,6.1,.18,9.16v5.04c0,3.06-.02,6.11-.18,9.17-.07,1.76-.44,3.55-1.32,5.09h0c-.86,1.65-2.37,2.95-4.14,3.53h0c-.96,.33-1.96,.46-2.96,.46-.51,0-1.01-.03-1.52-.08-2.36-.26-4.68-1.25-6.31-2.99-1.52-1.65-2.47-3.79-2.83-6.01l-.13,.02,.13-.02c-.23-1.68-.26-3.38-.3-5.07-.05-2.54-.06-5.08-.06-7.63v-3.29c0-.78,0-1.57,0-2.35h0c.07-2.64,.01-5.29,.27-7.91,.24-2.24,1.13-4.46,2.75-6.04,1.19-1.16,2.79-1.87,4.46-2.06l-.03-.26h0Zm-82.78,1.76l-.45,.22-.07,.04v.08c0,12.56,0,25.13-.01,37.7,0,.34,.01,.68,.01,1.02,0,.28,0,.55-.04,.83l.13,.02h.13c-.03-1.12-.23-2.21-.35-3.3h0c-1.43-11.96-2.83-23.93-4.27-35.89l-.02-.13-.13,.02c-4.2,.6-8.41,1.12-12.59,1.83l-.1,.02v.1c-1.22,11.94-2.52,23.85-3.73,35.77h.13s.13-.02,.13-.02c-1.27-4.94-2.44-9.92-3.68-14.87l-.13,.03,.13-.02-.12-.6,.02-.14c1.63-6.28,3.25-12.54,4.88-18.82h0c.06-.27,.19-.55,.19-.89v-.21s-.16,.03-.16,.03c-2.64,.44-5.3,.9-7.94,1.38l-.08,.02-.02,.08c-.78,3.09-1.54,6.18-2.31,9.28-.61,2.57-1.31,5.11-1.86,7.7l.13,.03,.13-.02c-.06-.4-.08-.8-.08-1.21,0-.37,.01-.75,.01-1.13v-.39s-.14,0-.14,0h.13v-13.52h-.12s-.28-.03-.28-.03c-.63,0-1.22,.2-1.79,.31-3.74,.76-7.46,1.56-11.2,2.31l-.31,.06,.26,.18c1.5,1.02,3.11,1.85,4.62,2.8l.07-.11-.12,.05,.05,.34v.29s0,.11,0,.11h.13s-.13,0-.13,0v33.2h0s0,.01,0,.01v.05c0,.22-.17,.42-.31,.69l.12,.06-.11-.07c-.98,1.55-1.94,3.13-2.93,4.67l-.19,.28,.33-.08c1.14-.29,2.29-.63,3.43-.94l-.04-.13,.03,.13c2.77-.68,5.57-1.21,8.38-1.76l.11-.02v-16.47h0s0-.46,0-.46c0-.36,.02-.72,.08-1.08l-.13-.02h-.13c.06,.78,.26,1.52,.4,2.25h0c1.06,4.98,2.12,9.96,3.16,14.96l.02,.11,.38-.02h.01c5.11-.94,10.23-1.76,15.36-2.56l.1-.02v-.11c.14-2.5,.31-5,.42-7.49h-.13s.02,.12,.02,.12c1.02-.17,2.05-.32,3.07-.44l-.02-.13h-.13c.14,2.47,.3,4.93,.45,7.4v.14s.15-.02,.15-.02c5.73-.77,11.47-1.47,17.23-1.99h.12s0-.13,0-.13c.02-.76,.03-1.52,.03-2.28,0-.83,0-1.67,0-2.5,0-.46,0-.93,0-1.39h0c0-2.15,0-4.29,0-6.43s0-4.28,0-6.41h-.13v.13s.69-.05,.69-.05c.41,0,.8,.06,1.13,.27h0c.34,.19,.43,.63,.5,1.05l.13-.02-.13,.02c.17,1.1,.19,2.22,.19,3.34,0,.29,0,.57,0,.86v.61c0,4.17,0,8.35,0,12.53v.14h.14c1.95-.14,3.88-.33,5.83-.47h0c.74-.07,1.48-.06,2.23-.19l.11-.02v-.11c0-1.32,0-2.64,0-3.96,0-2.64,0-5.28,0-7.92h0c-.07-1.73-.01-3.48-.19-5.21h0c-.14-1.07-.64-2.03-1.24-2.87h0s0,0,0,0c-.81-1.05-2.1-1.53-3.32-1.83l-.03,.13,.05,.12c.75-.28,1.58-.44,2.31-.94l-.08-.11,.07,.11c.88-.52,1.51-1.39,1.8-2.35h0c.55-1.9,.55-3.88,.62-5.81h0c-.07-2.28-.13-4.63-.93-6.81h0c-.57-1.48-1.61-2.88-3.1-3.55h0c-1.12-.47-2.35-.44-3.5-.5h0c-3.84,.05-7.64,.57-11.43,.95l.03,.27c3.8-.39,7.59-.91,11.41-.95v-.13s0,.13,0,.13c1.16,.06,2.36,.04,3.41,.48l.05-.12-.05,.12c1.4,.63,2.41,1.97,2.96,3.4l.12-.05-.12,.05c.78,2.12,.84,4.45,.91,6.72h.13s-.13-.01-.13-.01c-.07,1.94-.07,3.89-.61,5.74l.13,.04-.13-.04c-.28,.91-.87,1.72-1.69,2.2h0s0,0,0,0c-.66,.46-1.47,.62-2.25,.91l-.4,.15,.42,.1c1.2,.29,2.43,.76,3.17,1.73l.1-.08-.11,.08c.59,.82,1.06,1.74,1.19,2.75l.13-.02h-.13c.17,1.72,.12,3.46,.19,5.2h.13s-.13,0-.13,0c0,2.64,0,5.28,0,7.92,0,1.32,0,2.64,0,3.96h.13s-.02-.13-.02-.13c-.72,.12-1.45,.12-2.21,.18v.13s0-.13,0-.13c-1.95,.15-3.88,.34-5.83,.46v.13h.14v-13.14c0-.29,0-.57,0-.86,0-1.12-.02-2.25-.19-3.38h0c-.08-.42-.16-.96-.63-1.23l-.07,.12,.07-.11c-.39-.24-.84-.31-1.27-.31l-.71,.05h-.12s0,.13,0,.13c0,2.13,0,4.28,0,6.41s0,4.28,0,6.43h0c0,.46,0,.92,0,1.39,0,.83,0,1.67,0,2.5,0,.76,0,1.52-.03,2.27h.13s-.01-.13-.01-.13c-5.76,.52-11.51,1.22-17.24,1.99l.02,.13h.13c-.14-2.47-.3-4.93-.45-7.39v-.14s-.15,.02-.15,.02c-1.03,.12-2.05,.27-3.08,.44l-.11,.02v.11c-.12,2.49-.29,4.99-.42,7.5h.13s-.02-.12-.02-.12c-5.12,.8-10.25,1.61-15.36,2.55l.03,.13v-.13s-.27,.01-.27,.01v.13s.14-.03,.14-.03c-1.04-5-2.1-9.98-3.16-14.96l-.13,.03,.13-.03c-.15-.74-.35-1.48-.4-2.21l-.08-1.07-.18,1.06c-.06,.38-.08,.75-.08,1.12v.46s.14,0,.14,0h-.13v16.36h.13l-.03-.13c-2.81,.55-5.62,1.08-8.39,1.76h0s0,0,0,0c-1.14,.31-2.28,.65-3.42,.94l.03,.13,.11,.07c1-1.53,1.95-3.13,2.93-4.67h0s0,0,0,0c.12-.22,.34-.46,.35-.82v-.07s-.14,.01-.14,.01h.13v-33.2h0s0-.11,0-.11v-.29s-.07-.44-.07-.44l-.02-.04-.04-.02c-1.52-.96-3.14-1.8-4.61-2.8l-.08,.11,.03,.13c3.74-.75,7.46-1.54,11.2-2.31,.59-.12,1.16-.31,1.73-.3h.25s.01-.12,.01-.12h-.13v13.4h0s0,.39,0,.39c0,.38-.01,.75-.01,1.13,0,.41,.02,.83,.08,1.25l.11,.71,.15-.7c.55-2.58,1.25-5.12,1.86-7.69,.76-3.1,1.53-6.19,2.31-9.28l-.13-.03,.02,.13c2.64-.48,5.3-.94,7.94-1.38l-.02-.13h-.13s0,.05,0,.05c0,.26-.11,.52-.18,.83l.13,.03-.13-.03c-1.63,6.28-3.25,12.54-4.88,18.82l-.03,.2,.12,.65h0s0,.01,0,.01c1.24,4.95,2.41,9.93,3.68,14.87l.19,.72,.07-.74c1.21-11.93,2.51-23.83,3.73-35.78h-.13s.02,.12,.02,.12c4.17-.7,8.38-1.22,12.58-1.83l-.02-.13h-.13c1.44,11.97,2.84,23.94,4.27,35.9h.13s-.13,0-.13,0c.12,1.1,.32,2.19,.35,3.28h.27c.03-.28,.04-.56,.04-.85,0-.34-.01-.68-.01-1.02,.01-12.57,.01-25.14,.01-37.7h-.13l.06,.12,.45-.22-.12-.24h0Zm100.62,1.52c-1.74,1.07-3.18,2.74-3.71,4.75h0c-.35,1.43-.44,2.9-.53,4.34-.11,2.04-.13,4.07-.13,6.11,0,1.6,.01,3.2,.01,4.79v.81c0,.45,0,.91,0,1.36,0,1.23-.01,2.47-.01,3.7,0,2.17,.03,4.33,.19,6.51,.13,1.82,.66,3.62,1.49,5.25h0c.97,1.83,2.49,3.36,4.28,4.37h0c1.11,.6,2.39,.97,3.66,.97,.51,0,1.03-.06,1.53-.19,1.42-.38,2.47-1.53,3.09-2.8l-.12-.06-.12,.05c.39,.92,.45,2.03,.87,3.04l.03,.07h.08c4.63,.67,9.25,1.53,13.85,2.35l.14,.03v-.14c.18-2.43,.34-4.86,.44-7.31h-.13s0,.13,0,.13c1,.06,2.01,.37,3.04,.52l.02-.13h-.13c.2,2.51,.32,5.01,.46,7.53v.1s.1,.02,.1,.02c1.48,.39,3,.61,4.48,.95h0c2.49,.5,4.91,1.34,7.39,1.93l.32,.08-.18-.28c-1.14-1.77-2.24-3.58-3.35-5.37l-.11,.07,.12-.05c-.25-.64-.21-1.4-.32-2.13l-.13,.02h.13c-.87-7.59-1.73-15.17-2.59-22.75-.33-3.12-.76-6.24-1.04-9.37h-.13s.06,.13,.06,.13c1.74-.97,3.41-2.01,5.11-3.01h0s.42-.34,.42-.34l.23-.18-.29-.05c-3.13-.59-6.23-1.32-9.37-1.94-3.06-.58-6.14-1.15-9.2-1.72l-.11-.02-.04,.1c-.14,.37-.12,.74-.17,1.07h0c-1.21,11.16-2.43,22.32-3.63,33.49h0c-.07,.94-.28,1.9-.29,2.9h.13s.13,0,.13,0c0-1.38,0-2.77,0-4.16,0-2.47,0-4.95,0-7.42,0-2.26,0-4.52-.01-6.77v-.11l-.11-.02c-3.34-.55-6.67-1.05-10.02-1.56l-.13-.02-.02,.13-.05,.69c0,.3,.02,.59,.02,.89v.16s0,0,0,0h0v.52c0,.75,0,1.5,0,2.25,0,.62,0,1.24,.04,1.86v.09s.09,.03,.09,.03c.57,.19,1.19,.18,1.75,.29l.03-.13h-.13c0,1.03,0,2.07,0,3.1s0,2.07-.02,3.1h0c-.06,.91-.05,1.84-.45,2.63l.12,.06-.12-.06c-.18,.33-.51,.48-.87,.48-.45,0-.92-.24-1.12-.61h0c-.37-.65-.38-1.46-.43-2.23h-.13s.13,0,.13,0c-.05-1.39-.07-2.77-.07-4.16,0-1.16,0-2.32,0-3.49,0-2.36,0-4.72,0-7.08s0-4.72,0-7.07h0c.07-1.33-.04-2.66,.27-3.94,.09-.39,.47-.67,.87-.66l.24,.03h0s0,0,0,0c.64,.09,1.03,.74,1.09,1.38h0c.15,1.2,.18,2.4,.18,3.61,0,.77-.01,1.55-.01,2.32,0,.7,0,1.41,.05,2.12v.11s.12,.01,.12,.01c2.85,.35,5.68,.87,8.54,1.3l.15,.02v-1.38c0-2.92-.04-5.87-.77-8.73h0c-1.13-3.93-4.52-7.14-8.53-7.98l-.03,.13,.03-.13c-.89-.2-1.82-.33-2.75-.33-1.38,0-2.75,.28-3.97,.99l.14,.23c1.16-.68,2.49-.95,3.83-.95,.9,0,1.81,.12,2.69,.32h0c3.9,.81,7.23,3.96,8.33,7.79l.13-.04-.13,.03c.72,2.82,.76,5.75,.76,8.67,0,.41,0,.82,0,1.23h.13l.02-.13c-2.86-.43-5.68-.95-8.55-1.3l-.02,.13h.13c-.04-.71-.05-1.41-.05-2.11,0-.77,.01-1.54,.01-2.32,0-1.21-.03-2.43-.18-3.64l-.13,.02h.13c-.06-.73-.5-1.51-1.31-1.63l-.02,.13,.04-.13-.31-.05c-.51,0-1,.34-1.12,.87-.32,1.32-.2,2.68-.28,3.99h0c0,2.36,0,4.72,0,7.08s0,4.72,0,7.08c0,1.16,0,2.32,0,3.49,0,1.39,.01,2.78,.07,4.17h0s0,0,0,0c.06,.76,.05,1.6,.46,2.34l.12-.06-.12,.06c.26,.48,.82,.75,1.35,.75,.43,0,.87-.19,1.1-.62h0c.44-.87,.42-1.84,.48-2.74h0c.01-1.04,.02-2.08,.02-3.11s0-2.07,0-3.1v-.11l-.11-.02c-.6-.12-1.22-.11-1.72-.29l-.04,.12h.13c-.03-.62-.04-1.24-.04-1.85,0-.75,.01-1.5,.01-2.25v-.52s-.14,0-.14,0h.13s0-.16,0-.16c0-.3-.02-.6-.02-.89l.04-.65-.13-.02-.02,.13c3.35,.5,6.68,1,10.01,1.56l.02-.13h-.13c.01,2.26,.01,4.51,.01,6.77,0,2.47,0,4.94,0,7.42,0,1.38,0,2.77,0,4.16h.27c.01-.96,.22-1.91,.29-2.87h-.13s.13,0,.13,0c1.21-11.17,2.42-22.34,3.64-33.49h-.13s.13,0,.13,0c.05-.36,.03-.71,.15-1.01l-.12-.05-.02,.13c3.06,.56,6.13,1.14,9.19,1.72,3.13,.62,6.23,1.34,9.37,1.94l.02-.13-.08-.1-.42,.33,.08,.1-.06-.12c-1.71,1-3.38,2.04-5.11,3.01l-.08,.04v.09c.28,3.13,.72,6.25,1.04,9.37,.86,7.58,1.72,15.16,2.59,22.74h0c.11,.7,.07,1.48,.34,2.19h0s0,.02,0,.02c1.11,1.79,2.21,3.59,3.35,5.37l.11-.07,.03-.13c-2.46-.59-4.89-1.43-7.4-1.93l-.03,.13,.03-.13c-1.5-.34-3.01-.56-4.47-.95l-.03,.13h.13c-.15-2.52-.26-5.02-.46-7.53v-.1s-.11-.02-.11-.02c-1-.14-2.01-.46-3.06-.52h-.14s0,.13,0,.13c-.1,2.44-.26,4.88-.43,7.3h.13s.02-.12,.02-.12c-4.6-.82-9.22-1.68-13.86-2.34l-.02,.13,.12-.05c-.4-.95-.45-2.06-.87-3.04l-.11-.27-.13,.26c-.59,1.22-1.6,2.31-2.92,2.66-.48,.13-.97,.18-1.46,.18-1.23,0-2.47-.36-3.54-.94l-.06,.12,.06-.12c-1.75-.98-3.24-2.48-4.18-4.26l-.12,.06,.12-.06c-.82-1.6-1.33-3.36-1.46-5.14-.16-2.16-.19-4.33-.19-6.49,0-1.23,0-2.47,0-3.7,0-.46,0-.91,0-1.36v-.81c0-1.6-.01-3.2-.01-4.79,0-2.03,.02-4.06,.13-6.09,.09-1.44,.18-2.89,.52-4.29l-.13-.03,.13,.03c.51-1.93,1.9-3.55,3.59-4.59l-.14-.23h0Zm-8.44,42.6l-.07-.12c-1.11,.65-2.41,.87-3.69,1.18l.03,.13-.03-.13c-.71,.14-1.43,.21-2.15,.21-1.15,0-2.29-.17-3.4-.47h0c-1.53-.33-3.05-.79-4.33-1.68h-.02s-.59-.15-.59-.15h-.06s-.05,.03-.05,.03c-.61,.51-1.43,.63-2.24,.71v.13s.02-.13,.02-.13c-3.18-.18-6.35-.36-9.53-.54h0c-2.36-.03-4.71-.17-7.07-.24v.13s0-.13,0-.13c-.51-.04-1.03-.05-1.54-.05-.3,0-.59,0-.89,0-1.15,0-2.29-.04-3.37-.42l-.04,.12,.07-.12c-.41-.24-.82-.51-1.1-.86l-.04-.05-.56,.03h-.03s-.03,.02-.03,.02c-1.8,1.14-3.95,1.52-6.04,1.87l.02,.13v-.13c-.54,.03-1.07,.05-1.6,.05-.83,0-1.65-.06-2.44-.23l-.03,.13,.03-.13c-1.29-.3-2.61-.54-3.78-1.12l-.06,.12,.06-.12c-.26-.14-.54-.27-.8-.39l-.08-.03-.06,.05c-.37,.32-.75,.62-1.17,.83l.06,.12-.04-.12c-.45,.14-.92,.24-1.4,.34l.03,.13v-.13c-7.66,.29-15.31,.74-22.95,1.4v.13s0-.13,0-.13c-1.12,.03-2.24,.14-3.34,.31l.02,.13v-.13c-5.6,.55-11.18,1.18-16.73,1.96l.02,.13v-.13c-.95,.01-1.9,.18-2.81,.39l-.13,.03,.03,.13c.16,.63,.46,1.18,.73,1.74l.12-.06-.12,.05c3.51,7.67,7.75,15.02,12.63,21.89h0c5.76,7.9,12.34,15.19,19.47,21.86,8.03,7.46,16.71,14.23,25.97,20.1l.07,.04,.07-.04c6.7-4.24,13.09-8.95,19.14-14.05,8.54-7.18,16.43-15.16,23.32-23.94,3.56-4.5,6.72-9.29,9.59-14.23,2.07-3.52,3.92-7.13,5.67-10.8h0s0,0,0,0c.25-.66,.69-1.27,.83-2.02l.03-.13-.14-.02c-1.41-.23-2.83-.49-4.16-1.02l-.05,.12,.06-.12c-2.44-1.16-4.56-3.03-5.93-5.37l-.1-.17-.12,.15c-.87,1.12-2.03,1.98-3.24,2.7l.07,.11,.07,.11c1.23-.72,2.42-1.61,3.32-2.76l-.11-.08-.12,.07c1.4,2.39,3.56,4.3,6.05,5.48h0s0,0,0,0c1.36,.54,2.8,.8,4.21,1.03l.02-.13-.13-.02c-.12,.67-.55,1.27-.82,1.97l.12,.05-.12-.06c-1.75,3.67-3.59,7.27-5.66,10.78-2.87,4.93-6.02,9.72-9.57,14.2-6.88,8.76-14.76,16.73-23.28,23.9-6.04,5.09-12.42,9.8-19.11,14.03l.07,.11,.07-.11c-9.25-5.86-17.91-12.62-25.93-20.07-7.13-6.66-13.69-13.93-19.44-21.82l-.11,.08,.11-.08c-4.88-6.86-9.1-14.19-12.61-21.85h0c-.27-.56-.56-1.11-.71-1.69l-.13,.03,.03,.13c.9-.22,1.83-.37,2.76-.39h.02c5.55-.78,11.13-1.41,16.71-1.96h0c1.09-.16,2.2-.28,3.3-.31h0c7.63-.66,15.28-1.11,22.93-1.4h.02c.47-.1,.96-.2,1.43-.35h0s.01,0,.01,0c.45-.23,.85-.55,1.22-.87l-.09-.1-.05,.12c.26,.12,.53,.25,.78,.38h0s0,0,0,0c1.22,.6,2.56,.83,3.84,1.14h0s0,0,0,0c.82,.18,1.66,.24,2.5,.24,.54,0,1.08-.02,1.61-.06h.01c2.09-.35,4.27-.74,6.14-1.91l-.07-.11v.13s.5-.03,.5-.03v-.13s-.11,.08-.11,.08c.32,.4,.76,.68,1.18,.92h.01s.01,.01,.01,.01c1.13,.4,2.3,.44,3.45,.44,.3,0,.59,0,.89,0,.51,0,1.02,0,1.52,.05h0c2.35,.07,4.7,.22,7.07,.24v-.13s0,.13,0,.13c3.18,.17,6.35,.35,9.53,.53h.02c.81-.09,1.69-.2,2.38-.77l-.08-.1-.03,.13,.56,.13,.03-.13-.08,.11c1.32,.92,2.89,1.39,4.42,1.72l.03-.13-.03,.13c1.13,.31,2.3,.48,3.47,.48,.74,0,1.48-.07,2.21-.21h0c1.27-.32,2.59-.54,3.76-1.21l-.06-.12h0Z"/><path class="cls-4" d="M98.26,19.79l.06,.12c.28-.16,.47-.42,.64-.4h.02v-.13s-.06,.11-.06,.11c2.9,2.12,5.8,4.26,8.88,6.12,3.81,2.33,7.96,4.08,12.31,5.07h0c2.19,.52,4.41,1.08,6.67,1.33v-.13s0,.13,0,.13c1.55,.19,3.11,.27,4.67,.27,2.78,0,5.56-.28,8.3-.77,2.55-.47,5.05-1.11,7.55-1.7h0c5.12-1.35,10.08-3.29,14.85-5.54l-.06-.12,.05,.12,.35-.15h.02s.02,.04,.02,.04l.13-.04-.13,.04c.94,3.22,1.89,6.45,2.51,9.74h0c1.39,6.76,2.28,13.62,2.72,20.5,.23,3.09,.24,6.19,.24,9.29v1.17c0,.6,0,1.2,0,1.8h0c-.03,.96-.06,1.91-.11,2.86h.13s.08-.09,.08-.09c-.79-.67-1.46-1.56-2.4-2.18l-.07,.11,.08-.1c-1.38-1.09-2.97-1.98-4.71-2.4l-.03,.13,.03-.13c-1.52-.39-3.1-.79-4.7-.79-.46,0-.93,.03-1.39,.11h0c-1.65,.38-3.43,.66-4.83,1.77l.08,.1-.07-.11c-.92,.62-1.71,1.36-2.46,2.13l.1,.09,.11-.08c-.47-.6-.89-1.25-1.4-1.84l-.1,.09,.11-.08c-.68-.85-1.57-1.48-2.42-2.1h0c-1.35-.95-2.89-1.58-4.48-1.92l-.03,.13,.03-.13c-1.18-.31-2.42-.52-3.66-.52-.87,0-1.75,.1-2.6,.33l.03,.13-.03-.13c-.84,.18-1.7,.35-2.51,.71l.05,.12-.04-.12c-.29,.11-.56,.27-.82,.31l.02,.13,.1-.09c-.37-.38-.75-.74-1.23-.98h-.01s-.02-.01-.02-.01c-.68-.15-1.39-.39-2.12-.39v.13l.12-.05c-.46-1.18-1.43-2.01-2.25-2.86l-.1,.09,.1-.09c-.46-.5-1-.91-1.18-1.51h0s0,0,0,0c-.91-2.6-1.82-5.18-2.74-7.76l-.13,.04,.13,.04,.14-.48-.13-.04,.13,.05c.46-1.11,.91-2.24,1.38-3.34l-.13-.05,.12,.06c.22-.48,.34-.98,.61-1.38l-.11-.07,.09,.1c.82-.72,1.66-1.42,2.49-2.12l-.09-.1,.08,.11c.6-.45,1.18-.97,1.58-1.64h0s0-.02,0-.02c.12-.37,.19-.75,.26-1.11v-.02s0-.02,0-.02c-.03-.42-.15-.8-.22-1.18v-.02s-.01-.02-.01-.02c-.41-.79-1.18-1.42-2.08-1.53v.13s.02-.13,.02-.13c-1.2-.33-2.43-.17-3.61-.35h-.01s-.01,0-.01,0h-.32c-1.29,0-2.58-.16-3.89-.16h-.28s0,.14,0,.14l.02-.13c-.26-.04-.53-.06-.8-.06-.72,0-1.45,.15-2.06,.57l.07,.11,.09-.1c-.58-.56-1.37-.65-2.08-.8h0s-.01,0-.01,0c-1.97-.1-3.93-.11-5.9-.2v.13s0-.13,0-.13h-.17c-.65,0-1.26,.22-1.87,.4l.04,.13,.06-.12c-.52-.29-1.11-.38-1.66-.46h0s-.01,0-.01,0h-6.07c-.97,.03-2.06,.26-2.68,1.15l.11,.07-.09-.09c-.41,.43-.28,1.01-.57,1.28l.1,.09,.09-.1c-.83-.77-1.85-1.37-2.99-1.59l-.02,.13,.04-.13c-1.35-.38-2.72-.5-4.09-.5s-2.71,.11-4.05,.19h0c-.29,.02-.58,.03-.87,.03h-.34c-.36,0-.72,0-1.09,.05h0c-1.08,.13-2.21,.01-3.33,.19l.02,.13v-.13c-1.02,.04-2.06,.02-3.08,.3l.04,.13-.02-.13c-.82,.14-1.48,.75-1.87,1.42h0s0,.03,0,.03c-.1,.39-.25,.81-.25,1.25l.1,.55,.12-.05h-.13c.07,.79,.62,1.34,1.13,1.8h0c.76,.62,1.5,1.27,2.26,1.91l.09-.1h-.13c0,.52,0,1.04,0,1.55,0,2.38,.01,4.76,.01,7.13,0,1.98,0,3.96-.04,5.93h.13s-.1-.09-.1-.09c-.59,.64-1.25,1.24-1.85,1.91h0s0,.01,0,.01c-.35,.49-.86,.96-1.02,1.65l.13,.03-.05-.12c-.52,.21-1.21,.15-1.74,.65l.09,.1-.07-.11c-.61,.37-1.02,.96-1.29,1.59l.12,.05,.07-.11c-.89-.54-1.89-.82-2.88-1l-.02,.13,.04-.12c-1.01-.31-2.05-.29-3.05-.33h0c-3.91,.04-7.78,.56-11.65,.98h-.01s-.01,0-.01,0c-.71,.2-1.43,.26-2.18,.28h-.02c-1.22,.24-2.45,.29-3.7,.43h0c-3.14,.44-6.29,.85-9.43,1.34l.02,.13-.02-.13c-1.47,.18-2.88,.57-4.33,.72v.13s0-.13,0-.13c-.76,.05-1.48,.25-2.2,.32v.13s.14-.01,.14-.01c-.04-.53-.05-1.06-.05-1.59,0-.75,.02-1.51,.02-2.26v-.32c0-.35,0-.7,0-1.05,0-5.29,.41-10.57,1.03-15.81,.54-4.6,1.32-9.18,2.31-13.71,.49-2.23,1.12-4.44,1.74-6.65l-.13-.04,.12,.05c.18-.48,.25-.96,.46-1.39l-.12-.06-.05,.12c5.25,2.43,10.64,4.61,16.28,5.96,3.35,.81,6.72,1.65,10.18,1.98v-.13s0,.13,0,.13c1.53,.18,3.07,.26,4.62,.26,2.18,0,4.36-.18,6.52-.52h0c2.71-.54,5.43-1.14,8.1-1.95h0c2.65-.84,5.21-1.97,7.65-3.33,3.43-1.93,6.62-4.24,9.77-6.56l-.08-.11,.06,.12-.06-.12-.08-.11c-3.15,2.32-6.33,4.63-9.74,6.55-2.42,1.35-4.97,2.47-7.6,3.31l.04,.12-.04-.13c-2.65,.81-5.36,1.41-8.07,1.95l.03,.13-.02-.13c-2.14,.34-4.31,.52-6.47,.52-1.53,0-3.07-.09-4.59-.26h0c-3.44-.33-6.79-1.16-10.14-1.97-5.62-1.34-10.99-3.51-16.23-5.94l-.12-.05-.06,.12c-.23,.47-.3,.97-.46,1.41h0c-.62,2.22-1.26,4.43-1.75,6.68-.98,4.54-1.76,9.13-2.31,13.74-.63,5.26-1.03,10.55-1.03,15.85,0,.35,0,.7,0,1.05v.32c0,.74-.02,1.5-.02,2.26,0,.53,.01,1.07,.05,1.61v.14s.15-.01,.15-.01c.75-.07,1.47-.27,2.19-.32h0c1.47-.16,2.88-.54,4.33-.72h0c3.13-.49,6.28-.91,9.42-1.34l-.02-.13,.02,.13c1.23-.14,2.48-.2,3.72-.43l-.02-.13v.13c.76-.03,1.5-.09,2.24-.29l-.03-.13v.13c3.88-.42,7.75-.93,11.64-.98v-.13s0,.13,0,.13c1.02,.04,2.03,.03,2.98,.32h0s0,0,0,0c.97,.17,1.94,.45,2.78,.97l.13,.08,.06-.14c.25-.6,.64-1.14,1.19-1.47h.01s.01-.02,.01-.02c.41-.4,1.04-.37,1.64-.59l.07-.03,.02-.07c.13-.59,.6-1.04,.97-1.56l-.11-.08,.1,.09c.58-.65,1.25-1.25,1.85-1.9l.03-.04v-.05c.03-1.98,.04-3.96,.04-5.94,0-2.38-.01-4.76-.01-7.13,0-.52,0-1.04,0-1.55v-.06l-.05-.04c-.76-.64-1.5-1.29-2.26-1.91l-.08,.1,.09-.1c-.51-.46-.99-.96-1.04-1.62v-.02s-.01-.02-.01-.02l-.08-.46c0-.37,.14-.78,.24-1.18l-.13-.03,.12,.07c.36-.62,.97-1.17,1.68-1.29h.01c.97-.27,1.98-.25,3.02-.29h.01c1.07-.17,2.2-.05,3.32-.19h0c.35-.04,.7-.05,1.05-.05h.34c.3,0,.6,0,.9-.03v-.13s0,.13,0,.13c1.34-.08,2.7-.19,4.03-.19s2.71,.11,4.02,.49h0s0,0,0,0c1.08,.21,2.06,.79,2.87,1.53l.1,.09,.09-.09c.39-.43,.26-1.01,.56-1.27h.01s0-.02,0-.02c.54-.78,1.53-1.01,2.47-1.04v-.13s0,.13,0,.13h6.06v-.13l-.02,.13c.55,.09,1.11,.18,1.57,.44l.05,.03h.05c.62-.19,1.21-.41,1.79-.41h.16s0,0,0,0h0c1.98,.09,3.94,.1,5.9,.2v-.13s-.02,.13-.02,.13c.72,.15,1.45,.25,1.95,.74l.08,.08,.09-.06c.55-.38,1.23-.52,1.91-.52,.26,0,.52,.02,.77,.06h.29c1.29,0,2.58,.16,3.89,.16h.33s0-.14,0-.14l-.02,.13c1.23,.19,2.45,.04,3.58,.35h0s0,0,0,0c.8,.1,1.51,.67,1.88,1.39l.12-.06-.13,.02c.07,.4,.18,.77,.21,1.15h.13s-.13-.04-.13-.04c-.07,.37-.14,.73-.26,1.08l.12,.04-.11-.07c-.37,.63-.92,1.12-1.51,1.56h0s0,0,0,0c-.84,.71-1.68,1.4-2.5,2.13h-.01s-.01,.03-.01,.03c-.31,.46-.42,.97-.63,1.42h0s0,0,0,0c-.48,1.11-.93,2.24-1.38,3.35h0s-.14,.49-.14,.49v.04s0,.04,0,.04c.92,2.58,1.83,5.17,2.74,7.76l.12-.04-.13,.04c.22,.7,.81,1.13,1.24,1.61h0c.83,.86,1.77,1.67,2.19,2.77l.03,.08h.09c.68,0,1.36,.23,2.07,.39l.03-.13-.06,.12c.44,.23,.81,.56,1.16,.93l.05,.05h.07c.33-.07,.61-.25,.86-.34h0s0,0,0,0c.78-.35,1.62-.51,2.46-.69h0s0,0,0,0c.83-.23,1.68-.32,2.53-.32,1.21,0,2.43,.19,3.59,.51h0c1.56,.33,3.07,.95,4.38,1.87l.08-.11-.08,.11c.85,.62,1.72,1.24,2.37,2.05h0s0,0,0,0c.5,.57,.91,1.21,1.4,1.83l.09,.12,.11-.11c.75-.76,1.52-1.49,2.42-2.09h0s0,0,0,0c1.34-1.06,3.06-1.35,4.72-1.72l-.03-.13,.02,.13c.45-.07,.89-.11,1.35-.11,1.55,0,3.11,.39,4.63,.78h0c1.69,.4,3.25,1.27,4.61,2.35h0s0,0,0,0c.89,.59,1.55,1.46,2.37,2.17l.2,.17v-.27c.07-.95,.1-1.91,.13-2.87h0c0-.6,0-1.21,0-1.81v-1.17c0-3.1-.01-6.21-.24-9.31-.43-6.89-1.33-13.77-2.72-20.53l-.13,.03,.13-.03c-.62-3.31-1.57-6.55-2.51-9.77h0l-.29-.22-.46,.17h0c-4.76,2.25-9.7,4.18-14.8,5.52l.03,.13-.03-.13c-2.5,.59-4.99,1.24-7.53,1.7-2.72,.49-5.49,.76-8.25,.76-1.55,0-3.1-.09-4.64-.27h0c-2.24-.24-4.44-.8-6.64-1.32h0c-4.31-.98-8.45-2.72-12.23-5.04-3.07-1.85-5.97-3.98-8.87-6.1l-.03-.02h-.03s-.05,0-.05,0c-.37,.02-.57,.35-.76,.44h0s0,.01,0,.01l.08,.11h0Z"/><path class="cls-4" d="M95.82,38.58v.13c.79-.01,1.58-.02,2.37-.02,1.19,0,2.37,.01,3.56,.01,.29,0,.57,0,.86,0v-.13h-.13v22.94h.13v-.13c-2.26,.01-4.52,.01-6.78,.01v.13h.13c0-1.6,0-3.21,0-4.81,0-4.42,0-8.83,0-13.24,0-1.63,0-3.26,0-4.88h-.13v.13s0-.13,0-.13h-.13c0,1.63,0,3.26,0,4.88,0,4.42,0,8.83,0,13.24,0,1.6,0,3.21,0,4.81v.13h.13c2.27,0,4.52,0,6.79-.01h.13v-23.2h-.13c-.28,0-.57,0-.85,0-1.19,0-2.38-.01-3.56-.01-.79,0-1.58,0-2.37,.02h-.13v.13h.13Z"/><path class="cls-4" d="M105.33,38.67v.13s.69,0,.69,0c2.03,0,4.07,.11,6.1,.22v-.13s-.13,0-.13,0c0,.44,0,.89,0,1.34,0,1.43,0,2.86,0,4.28,0,1.03,0,2.06-.02,3.09v.43s.24-.36,.24-.36c.28-.4,.39-.89,.56-1.3h0c.96-2.43,1.86-4.88,2.84-7.29l-.12-.05v.13c1.93,.13,3.86,.17,5.8,.29v-.13s0,.13,0,.13c1.04,.09,2.07,.03,3.08,.2l.02-.13-.11-.08-.69,.66,.09,.09-.09-.1c-1.01,.84-2.04,1.69-3.05,2.54h-.01s-.3,.46-.3,.46h0s0,.02,0,.02c-.84,2-1.66,4.01-2.5,6.02h0s-.1,.52-.1,.52v.04s0,.03,0,.03c1.02,2.87,2.04,5.73,3.05,8.6h0c.14,.38,.24,.81,.52,1.19h0s0,.01,0,.01c.95,1.04,1.91,2.09,2.86,3.13l.1-.09-.03-.13-.39,.04c-.32,0-.67-.08-1.04-.08h-.07s0,.14,0,.14v-.13c-2.39-.19-4.77-.39-7.16-.58v.13s.12-.04,.12-.04c-.98-3.05-2.05-6.06-3.05-9.09h0s-.31-.68-.31-.68l-.26-.57v.63c.03,1.13,.03,2.26,.03,3.4,0,1.57,0,3.14,0,4.71,0,.49,0,.98,0,1.47h.13v-.13c-2.26-.1-4.53-.14-6.79-.24v.13s.13,0,.13,0c0-4.39,.01-8.79,.01-13.19,0-3.23,0-6.46-.01-9.69h-.13v.13s0-.13,0-.13h-.13c.01,3.23,.02,6.46,.02,9.69,0,4.4,0,8.8-.02,13.19v.13h.13c2.27,.11,4.54,.15,6.8,.25h.14s0-.13,0-.13c0-.49,0-.98,0-1.47,0-1.57,0-3.14,0-4.71,0-1.14,0-2.27-.02-3.4h-.13l-.12,.06,.3,.66,.12-.05-.13,.04c1,3.03,2.07,6.05,3.05,9.09l.03,.09h.09c2.39,.2,4.78,.4,7.18,.58h0s0,0,0,0h.06c.33,0,.68,.08,1.04,.08l.46-.05,.21-.06-.15-.16c-.95-1.04-1.9-2.09-2.86-3.13l-.1,.09,.1-.08c-.24-.32-.34-.72-.48-1.12l-.12,.05,.13-.05c-1.01-2.88-2.03-5.73-3.05-8.6l-.12,.05,.13,.03,.1-.49-.13-.03,.12,.05c.84-2.01,1.66-4.01,2.5-6.02l-.12-.05,.11,.07,.29-.44-.11-.07,.09,.1c1.01-.85,2.03-1.7,3.04-2.54h0s0,0,0,0c.21-.22,.51-.4,.72-.7l.12-.17-.21-.03c-1.05-.18-2.09-.12-3.1-.2h0c-1.94-.12-3.87-.16-5.8-.29h-.09s-.04,.08-.04,.08c-.98,2.42-1.89,4.87-2.84,7.29l.12,.05-.12-.05c-.18,.44-.29,.9-.53,1.25l.11,.07h.13c.02-1.02,.02-2.06,.02-3.09,0-1.43,0-2.85,0-4.28,0-.44,0-.89,0-1.34v-.12h-.12c-2.04-.12-4.07-.23-6.12-.23h-.69s-.13,0-.13,0v.13h.13Z"/><path class="cls-4" d="M77.12,39.45c2.31-.13,4.63-.2,6.95-.35v-.13s0,.13,0,.13c.72-.04,1.44-.07,2.15-.07,1.01,0,2.01,.06,3,.26h0c1.26,.23,2.43,1.02,3.04,2.17l.12-.06-.12,.06c.59,1.15,.66,2.51,.69,3.83h.13s-.13-.01-.13-.01c-.04,.95-.11,1.97-.74,2.67l.1,.09-.1-.09c-.72,.77-1.83,.92-2.84,1.33l-.46,.2,.5,.06c1.16,.14,2.4,.63,2.97,1.65l.12-.07-.12,.06c.53,1,.56,2.19,.57,3.35h.13s-.13,0-.13,0v.67s0,.55,0,.55c0,1.17-.03,2.33-.39,3.42-.31,.94-1.11,1.68-2.05,1.97l.04,.12-.04-.13c-1,.3-2.06,.37-3.13,.47v.13s0-.13,0-.13c-1.73,.13-3.46,.19-5.19,.3h0c-2,.22-4.01,.3-6.02,.52v.13s.02-.13,.02-.13h-.1c-.41,0-.82,.06-1.2,.06h-.31s-.01,.12-.01,.12l.1,.09c.94-1.07,1.91-2.11,2.86-3.16l.02-.02,.14-.61h0v-.03c0-2.69,0-5.39,0-8.08s0-5.39,0-8.09v-.04l-.3-.44v-.02s-.02-.01-.02-.01c-1.09-.91-2.23-1.78-3.22-2.75l-.09,.09,.02,.13c1-.17,2.05-.1,3.09-.2l-.03-.26c-1.01,.1-2.07,.03-3.11,.2l-.26,.05,.19,.18c1.02,.98,2.16,1.86,3.24,2.76l.09-.1-.11,.07,.27,.41,.11-.07h-.13c0,2.69,0,5.39,0,8.08s0,5.39,0,8.09h.13l-.13-.03-.13,.57,.13,.03-.1-.09c-.95,1.05-1.92,2.09-2.86,3.17l-.17,.19,.25,.03h.33c.41,.01,.82-.04,1.2-.04h.11c2-.22,4.01-.3,6.02-.52v-.13s0,.13,0,.13c1.73-.11,3.46-.17,5.2-.3h0c1.07-.1,2.14-.17,3.19-.48h0c1.02-.32,1.88-1.11,2.23-2.13,.38-1.14,.41-2.33,.41-3.5v-.55s0-.67,0-.67h0c-.01-1.16-.04-2.39-.61-3.47h0c-.64-1.14-1.97-1.64-3.17-1.78l-.02,.13,.05,.12c.96-.4,2.12-.54,2.93-1.39h0c.72-.8,.77-1.89,.82-2.84h0c-.03-1.33-.1-2.73-.72-3.95h0c-.66-1.23-1.89-2.06-3.22-2.31h0c-1.01-.2-2.03-.26-3.05-.26-.72,0-1.45,.03-2.17,.07h0c-2.31,.14-4.63,.22-6.94,.35v.27h.01Zm7.07,3.37c0,.86,0,1.71,0,2.57s0,1.71,0,2.57v.14s.14,0,.14,0c.57-.03,1.43,.06,1.84-.61h0s0-.03,0-.03c.21-.65,.23-1.32,.23-1.97v-.47s0-.46,0-.46h0c-.01-.59-.06-1.33-.65-1.75h-.01s-.01-.01-.01-.01c-.27-.11-.55-.14-.82-.14l-.59,.03v.26s.59-.02,.59-.02l.73,.12,.05-.12-.08,.11c.45,.31,.52,.95,.53,1.53h.13s-.13,0-.13,0v.46s0,.47,0,.47c0,.65-.02,1.29-.22,1.89l.13,.04-.12-.07c-.28,.5-1.01,.46-1.62,.48v.13h.14c0-.86,0-1.72,0-2.57s0-1.71,0-2.57h-.27Zm.13,8.66h-.13c0,.72,0,1.45,0,2.18,0,1.45,0,2.91,0,4.37v.15h.14c.49-.06,1.04-.11,1.51-.39h0s0,0,0,0c.52-.38,.5-1.05,.53-1.53h0c0-.77,0-1.54,0-2.31,0-.38,0-.76,0-1.15h0s0-.02,0-.02c-.06-.36-.03-.87-.43-1.19h0s-.01-.01-.01-.01c-.52-.26-1.1-.21-1.61-.23h-.14s0,.13,0,.13h.13v.13c.53,.01,1.06-.02,1.5,.2l.06-.12-.08,.11c.26,.18,.27,.61,.32,1.01l.13-.02h-.13c0,.38,0,.76,0,1.14,0,.76,0,1.53,0,2.3h0c-.03,.5-.04,1.07-.42,1.32l.08,.11-.07-.12c-.4,.24-.91,.3-1.4,.35v.13h.14c0-1.46,0-2.92,0-4.37,0-.73,0-1.45,0-2.18h-.13v.13s0-.13,0-.13h0Z"/><path class="cls-4" d="M84.32,42.82c.44-.02,.92-.07,1.36,.1,.52,.36,.58,1.06,.59,1.63-.03,.95,.07,1.94-.23,2.86-.35,.58-1.14,.52-1.73,.55,.02-1.72,0-3.43,.02-5.14h0Z"/><path class="cls-4" d="M84.32,42.82v.13s.58-.03,.58-.03l.73,.12,.05-.12-.08,.11c.45,.31,.52,.95,.53,1.53h.13s-.13,0-.13,0v.46s0,.46,0,.46c0,.65-.02,1.29-.22,1.89l.13,.04-.12-.07c-.28,.49-1.01,.46-1.62,.48v.13s.14,0,.14,0c0-.86,0-1.72,0-2.58s0-1.71,0-2.57h-.13v.13s0-.13,0-.13h-.13c0,.85,0,1.71,0,2.57s0,1.71,0,2.57v.14s.14,0,.14,0c.57-.03,1.43,.06,1.84-.61h0s0-.03,0-.03c.21-.65,.23-1.32,.23-1.98v-.46s0-.46,0-.46h0c-.01-.59-.06-1.33-.65-1.75h-.01s-.01-.01-.01-.01c-.27-.11-.55-.14-.82-.14l-.59,.02h-.12s0,.13,0,.13h.13Z"/><path class="cls-4" d="M84.32,51.48c.52,.02,1.08-.03,1.56,.22,.33,.25,.32,.72,.38,1.1,.01,1.14,0,2.29,0,3.45-.03,.49-.03,1.12-.48,1.43-.43,.26-.97,.31-1.45,.36,0-2.2-.02-4.37,0-6.55h0Z"/><path class="cls-4" d="M84.32,51.48v.13c.53,.01,1.06-.02,1.5,.2l.06-.12-.08,.11c.26,.18,.27,.61,.32,1.01l.13-.02h-.13c0,.38,0,.76,0,1.14,0,.76,0,1.53,0,2.3h0c-.03,.5-.04,1.07-.42,1.32l.08,.11-.07-.12c-.4,.24-.91,.3-1.4,.35v.13h.14c0-1.46,0-2.92,0-4.37,0-.73,0-1.45,0-2.18h-.13v.13s0-.13,0-.13h-.13c0,.72,0,1.45,0,2.18,0,1.45,0,2.91,0,4.37v.15h.14c.49-.06,1.04-.11,1.51-.39h0s0,0,0,0c.52-.38,.5-1.05,.53-1.53h0c0-.77,0-1.54,0-2.31,0-.38,0-.76,0-1.15h0s0-.02,0-.02c-.06-.36-.03-.87-.43-1.19h0s-.01-.01-.01-.01c-.52-.26-1.1-.21-1.61-.23h-.14s0,.13,0,.13h.13Z"/><path class="cls-4" d="M87.35,67.06l.11,.08c1.43-1.92,3.78-3.02,6.13-3.26,.52-.05,1.05-.08,1.58-.08,2.13,0,4.27,.44,6.05,1.6h0s0,0,0,0c1.33,.82,2.44,2.1,2.83,3.63,.55,2.08,.59,4.26,.59,6.43,0,.36,0,.72,0,1.07v.59h.14v-.13c-1.8-.01-3.61-.04-5.41-.04-.86,0-1.72,0-2.57,.03v.13s.13-.01,.13-.01c-.05-.49-.07-.98-.07-1.48,0-.55,.02-1.1,.02-1.66,0-.79-.03-1.58-.21-2.36l-.13,.03,.13-.03c-.13-.62-.71-.95-1.27-.95-.36,0-.73,.13-.98,.43l.1,.08-.1-.09c-.72,.82-.7,1.95-.74,2.91h0c.04,1.06,.07,2.18,.59,3.17h0s0,0,0,0c.51,.89,1.32,1.54,2.08,2.17h0c2.18,1.68,4.35,3.42,6.19,5.47l.1-.09-.1,.09c.78,.89,1.49,1.84,1.91,2.93,.57,1.5,.82,3.12,.96,4.73,.09,1.09,.14,2.18,.14,3.27,0,.64-.02,1.28-.05,1.92-.09,1.66-.25,3.35-.9,4.88l.12,.05-.12-.06c-.74,1.66-2.26,2.86-3.89,3.63-1.53,.72-3.23,1.01-4.93,1.01-.68,0-1.36-.05-2.02-.13l-.02,.13,.02-.13c-2.82-.4-5.6-2.07-6.78-4.7l-.21-.47-.04,.51c-.04,.54-.06,1.08-.06,1.62,0,.57,.01,1.15,.01,1.72,0,.34,0,.67-.02,1.01h.13s0-.13,0-.13c-1.38,.09-2.77,.14-4.16,.16h0c-3.45,.13-6.9,.32-10.35,.55v.13h.14c0-9.38,0-18.76,0-28.14,0-4.69,0-9.37,0-14.06h-.13v.13c2.25-.1,4.49-.3,6.73-.35,.44,0,.86-.06,1.27-.06l.6,.04,.02-.13h-.13v33.58h.14c1.68-.01,3.35-.16,5.04-.16h.14v-.14c-.13-1.74-.18-3.49-.18-5.23,0-.49,0-.99,.01-1.48h-.13s0,.13,0,.13c2.13-.09,4.25-.15,6.39-.18v0c.32,0,.64-.03,.95-.03l.67,.07,.03-.13h-.13c-.01,.63-.02,1.26-.02,1.89,0,.86,0,1.72,0,2.58,0,.28,0,.56,0,.84h0c.04,.92,0,1.89,.32,2.81h0c.24,.6,.86,.87,1.44,.87l.63-.11-.05-.12,.04,.13c.66-.21,1-.85,1.17-1.44,.18-.68,.24-1.36,.24-2.04,0-.57-.04-1.14-.08-1.7-.07-.94-.19-1.93-.64-2.81h0s0-.01,0-.01c-.44-.69-1.06-1.23-1.64-1.76-2.12-1.94-4.48-3.6-6.52-5.59h0s0,0,0,0c-1.59-1.41-2.36-3.53-2.71-5.59-.2-1.22-.28-2.45-.28-3.69,0-1.05,.06-2.11,.14-3.16h-.13s.13,0,.13,0c.17-1.89,.56-3.81,1.72-5.31h0s-.11-.08-.11-.08l-.11-.08c-1.21,1.57-1.6,3.55-1.77,5.45h0c-.08,1.06-.14,2.12-.14,3.18,0,1.25,.08,2.5,.28,3.74,.36,2.1,1.15,4.28,2.8,5.75l.09-.1-.09,.09c2.06,2.01,4.43,3.67,6.53,5.59,.58,.53,1.17,1.06,1.59,1.7l.11-.07-.12,.06c.42,.82,.54,1.77,.61,2.71,.04,.56,.08,1.12,.08,1.68,0,.67-.05,1.32-.23,1.97-.15,.55-.47,1.09-.99,1.25h0s-.54,.09-.54,.09c-.52,0-1.01-.23-1.2-.69l-.12,.05,.12-.05c-.31-.86-.27-1.8-.31-2.73h-.13s.13,0,.13,0c0-.28,0-.56,0-.84,0-.86,0-1.72,0-2.58,0-.63,0-1.25,.02-1.89v-.11s-.1-.03-.1-.03l-.74-.08c-.33,0-.65,.03-.95,.03h0c-2.14,.03-4.26,.09-6.4,.17h-.12s0,.13,0,.13c0,.49,0,.99,0,1.48,0,1.75,.04,3.49,.17,5.24h.13v-.14c-1.7,0-3.37,.14-5.04,.16v.13h.13v-33.56l-.11-.02-.64-.04c-.43,0-.86,.05-1.28,.06-2.26,.05-4.5,.25-6.73,.35h-.13v.13c0,4.68,0,9.37,0,14.06,0,9.38,0,18.75,0,28.14v.14h.14c3.45-.24,6.9-.43,10.35-.56v-.13s0,.13,0,.13c1.4-.01,2.79-.07,4.18-.16h.12s0-.13,0-.13c.01-.34,.02-.68,.02-1.02,0-.58-.01-1.15-.01-1.72,0-.54,.01-1.07,.05-1.6h-.13s-.12,.04-.12,.04c1.24,2.74,4.09,4.45,6.99,4.85h0c.68,.09,1.37,.14,2.06,.14,1.73,0,3.47-.3,5.05-1.04,1.66-.79,3.23-2.02,4.02-3.76h0c.68-1.59,.84-3.31,.92-4.97,.04-.64,.06-1.29,.06-1.93,0-1.1-.05-2.2-.14-3.3-.14-1.63-.39-3.27-.98-4.8-.44-1.13-1.17-2.11-1.96-3.01h0c-1.86-2.08-4.04-3.83-6.22-5.5l-.08,.11,.09-.1c-.77-.63-1.55-1.27-2.02-2.1l-.12,.07,.12-.06c-.49-.92-.52-1.99-.56-3.05h-.13s.13,.01,.13,.01c.04-.98,.04-2.04,.67-2.75h0c.19-.23,.48-.33,.78-.33,.46,0,.91,.27,1.01,.73h0c.17,.75,.21,1.53,.21,2.31,0,.55-.02,1.11-.02,1.66,0,.5,.01,1.01,.07,1.51v.12s.14,0,.14,0c.86-.02,1.71-.03,2.57-.03,1.8,0,3.61,.03,5.41,.04h.13s0-.13,0-.13v-.59c0-.36,0-.72,0-1.07,0-2.18-.04-4.38-.6-6.5-.41-1.61-1.57-2.94-2.95-3.79l-.07,.11,.07-.11c-1.84-1.2-4.03-1.65-6.2-1.65-.54,0-1.08,.03-1.61,.08-2.41,.25-4.83,1.38-6.32,3.36l.11,.08-.11-.08,.11,.08h0Z"/><path class="cls-4" d="M106.4,64.45v.13c2.87,.08,5.74,.1,8.61,.26v-.13s-.12,0-.12,0c0,2.35,0,4.69,0,7.04,0,3.02,0,6.04-.02,9.06v.74s.47-1.27,.47-1.27h0s0-.01,0-.01c1.34-5.12,2.71-10.22,4.06-15.33l-.13-.03v.13c2.66,.06,5.33,.29,8.02,.42v-.13s-.12-.03-.12-.03c-.31,1.46-.79,2.89-1.17,4.35l.13,.03-.13-.04c-1.31,4.72-2.63,9.44-3.93,14.17v.02s.01,.58,.01,.58h0s0,.03,0,.03c.97,4.1,1.92,8.21,2.89,12.32,.82,3.59,1.72,7.19,2.5,10.8l.13-.03v-.13c-2.95-.2-5.93-.38-8.88-.5v.13s.12-.03,.12-.03c-1.15-5.56-2.26-11.12-3.4-16.67h0s0-.03,0-.03l-.06-.38-.3-.41-.17-.05v.18c-.02,1.77-.02,3.54-.02,5.31,0,2.16,0,4.33,0,6.49,0,1.8,0,3.61-.02,5.41h.13s0-.13,0-.13c-2.87-.09-5.75-.18-8.6-.21v.13s.13,0,.13,0v-42.18h-.13v.13s0-.13,0-.13h-.13v42.31h.13c2.86,.04,5.73,.13,8.6,.21h.14s0-.13,0-.13c.01-1.8,.02-3.61,.02-5.41,0-2.16,0-4.33,0-6.49,0-1.77,0-3.54,.02-5.31h-.13s-.04,.12-.04,.12l.12,.19,.08,.44,.12-.05-.13,.03c1.14,5.56,2.25,11.11,3.41,16.67l.02,.1h.11c2.96,.13,5.93,.31,8.89,.51h.18s-.04-.16-.04-.16c-.78-3.61-1.67-7.21-2.5-10.8-.97-4.11-1.92-8.23-2.89-12.33l-.13,.03h.13s-.01-.56-.01-.56h-.13s.13,.04,.13,.04c1.3-4.72,2.61-9.44,3.92-14.17h0c.37-1.45,.85-2.89,1.17-4.36l.03-.16h-.16c-2.68-.13-5.35-.37-8.03-.43h-.1l-.03,.1c-1.35,5.12-2.72,10.21-4.06,15.33l.13,.03-.12-.05-.22,.58,.12,.05h.13c.02-3.02,.02-6.04,.02-9.06,0-2.34,0-4.69,0-7.04v-.13h-.13c-2.88-.16-5.75-.18-8.62-.26h-.14s0,.13,0,.13h.13Z"/><path class="cls-4" d="M134.61,65.5c.44-.05,.89-.08,1.34-.08,1.75,0,3.5,.39,5.05,1.2,1.82,.94,3.28,2.52,4.19,4.36h0c.87,1.68,1.3,3.57,1.39,5.48,.16,3.05,.18,6.11,.18,9.16,0,.84,0,1.68,0,2.52s0,1.68,0,2.52c0,3.06-.02,6.11-.18,9.17-.07,1.76-.44,3.55-1.32,5.09h0s0,0,0,0c-.86,1.65-2.37,2.95-4.14,3.53h0c-.95,.33-1.96,.46-2.96,.46-.5,0-1.01-.03-1.51-.08-2.36-.26-4.68-1.24-6.31-2.99-1.52-1.65-2.47-3.79-2.83-6.01l-.13,.02,.13-.02c-.23-1.68-.26-3.38-.3-5.07-.05-2.54-.06-5.08-.06-7.63,0-1.1,0-2.19,0-3.29,0-.78,0-1.57,0-2.35h-.13s.13,0,.13,0c.07-2.64,.01-5.3,.27-7.92,.24-2.24,1.13-4.46,2.75-6.04,1.19-1.16,2.79-1.87,4.45-2.06l-.03-.26c-1.72,.19-3.37,.92-4.61,2.13-1.67,1.63-2.58,3.91-2.83,6.2-.26,2.64-.2,5.3-.27,7.93h0c0,.79,0,1.57,0,2.36,0,1.1,0,2.19,0,3.29,0,2.54,0,5.09,.06,7.63,.04,1.69,.07,3.4,.3,5.1h0c.37,2.26,1.33,4.45,2.89,6.15,1.69,1.8,4.07,2.81,6.48,3.07,.51,.05,1.02,.08,1.54,.08,1.03,0,2.06-.13,3.05-.47l-.05-.12,.04,.12c1.83-.6,3.39-1.95,4.29-3.66l-.12-.06,.12,.07c.91-1.59,1.28-3.42,1.36-5.21,.16-3.06,.17-6.12,.17-9.18,0-.84,0-1.68,0-2.52s0-1.68,0-2.52c0-3.06-.02-6.12-.17-9.17-.09-1.94-.53-3.86-1.42-5.58l-.12,.06,.12-.06c-.93-1.89-2.42-3.51-4.3-4.48-1.59-.84-3.39-1.23-5.17-1.23-.46,0-.91,.03-1.37,.08l.03,.26h0Zm2.04,6.98l-.03-.13c-.62,.16-.91,.78-.95,1.33h.13s-.13,0-.13,0c-.15,1.15-.17,2.3-.17,3.45,0,.45,0,.89,0,1.34,0,.29,0,.59,0,.88h0v16.75h0c.03,1.55,0,3.14,.22,4.69l.13-.02h-.13c.06,.69,.63,1.24,1.3,1.25l.33-.05-.04-.13,.03,.13c.62-.14,.84-.79,.9-1.27,.16-1.28,.18-2.57,.18-3.85,0-.5,0-1,0-1.51v-15h0c0-.28,0-.56,0-.84,0-.8,.02-1.6,.02-2.4,0-1.15-.03-2.32-.2-3.47l-.13,.02h.13c-.05-.67-.58-1.33-1.29-1.34l-.31,.04,.04,.13-.03-.13,.03,.13,.04,.13,.24-.03c.52,0,.99,.54,1.02,1.08h0c.16,1.15,.2,2.29,.2,3.45,0,.8-.01,1.6-.01,2.4,0,.28,0,.56,0,.84h.13s-.13,0-.13,0v15c0,.5,0,1.01,0,1.51,0,1.28-.02,2.55-.18,3.82-.05,.44-.27,.96-.69,1.04h0s0,0,0,0l-.25,.04c-.51,0-.99-.45-1.03-.99h0c-.22-1.53-.19-3.1-.22-4.66h-.13s.13,0,.13,0v-16.75h0c0-.29,0-.59,0-.88,0-.45,0-.89,0-1.34,0-1.15,.02-2.29,.17-3.42h0c.04-.5,.3-1,.75-1.1h0s0,0,0,0l-.04-.13h0Z"/><path class="cls-4" d="M51.87,67.24c3.8-.39,7.59-.91,11.41-.95v-.13s0,.13,0,.13c1.16,.06,2.36,.04,3.41,.48l.05-.12-.05,.12c1.4,.63,2.41,1.98,2.96,3.41l.12-.05-.12,.04c.78,2.12,.84,4.45,.91,6.72h.13s-.13,0-.13,0c-.07,1.94-.07,3.89-.61,5.74l.13,.04-.13-.04c-.28,.91-.87,1.72-1.69,2.2h0s0,0,0,0c-.66,.46-1.47,.62-2.25,.91l-.41,.15,.42,.1c1.2,.29,2.43,.76,3.17,1.73l.1-.08-.11,.08c.59,.82,1.06,1.74,1.19,2.75l.13-.02h-.13c.17,1.72,.11,3.46,.19,5.2h.13s-.13,0-.13,0c0,2.64,0,5.28,0,7.92,0,1.32,0,2.64,0,3.96h.13l-.02-.13c-.72,.12-1.45,.11-2.21,.18v.13s0-.13,0-.13c-1.95,.15-3.88,.34-5.83,.46v.13h.14v-13.14c0-.29,0-.57,0-.86,0-1.12-.02-2.25-.19-3.38h0c-.08-.42-.16-.96-.63-1.23l-.07,.11,.07-.11c-.39-.24-.84-.31-1.27-.31l-.71,.05h-.12s0,.13,0,.13c0,2.13,0,4.27,0,6.42s0,4.28,0,6.43h0c0,.46,0,.92,0,1.39,0,.83,0,1.67,0,2.5,0,.76,0,1.51-.03,2.27h.13s-.01-.13-.01-.13c-5.76,.52-11.51,1.21-17.24,1.99l.02,.13h.13c-.14-2.47-.3-4.93-.45-7.39v-.14s-.15,.02-.15,.02c-1.03,.12-2.05,.27-3.08,.44l-.11,.02v.11c-.12,2.49-.29,4.99-.42,7.49h.13s-.02-.12-.02-.12c-5.12,.8-10.25,1.62-15.36,2.56l.03,.13v-.13s-.27,.02-.27,.02v.13s.14-.03,.14-.03c-1.04-5-2.1-9.98-3.16-14.96l-.13,.03,.13-.03c-.15-.74-.35-1.48-.4-2.21l-.08-1.08-.18,1.06c-.06,.38-.08,.75-.08,1.12v.46s.14,0,.14,0h-.13v16.36h.13l-.02-.13c-2.81,.55-5.62,1.08-8.39,1.76h0c-1.14,.32-2.28,.65-3.42,.94l.03,.13,.11,.07c1-1.53,1.95-3.12,2.93-4.66h0s0,0,0,0c.12-.23,.34-.46,.35-.82v-.07s-.14,.01-.14,.01h.13v-33.2h0s0-.11,0-.11v-.29s-.07-.44-.07-.44v-.04s-.05-.02-.05-.02c-1.52-.96-3.14-1.79-4.61-2.8l-.08,.11,.03,.13c3.74-.75,7.46-1.54,11.2-2.31,.59-.12,1.16-.31,1.73-.31h.25s.01-.12,.01-.12h-.13v13.4h0s0,.39,0,.39c0,.38-.01,.75-.01,1.13,0,.41,.02,.83,.08,1.25l.11,.71,.15-.7c.55-2.58,1.25-5.12,1.86-7.69,.76-3.1,1.53-6.2,2.31-9.28l-.13-.03,.02,.13c2.64-.49,5.3-.94,7.94-1.38l-.02-.13h-.13s0,.05,0,.05c0,.26-.11,.52-.19,.83l.13,.03-.13-.03c-1.63,6.28-3.25,12.55-4.88,18.82l-.03,.2,.12,.65h0s0,0,0,0c1.24,4.95,2.41,9.93,3.68,14.87l.18,.72,.08-.74c1.21-11.93,2.51-23.83,3.73-35.78h-.13s.02,.12,.02,.12c4.17-.7,8.38-1.22,12.58-1.82l-.02-.13h-.13c1.44,11.97,2.84,23.94,4.27,35.9l.13-.02h-.13c.12,1.12,.32,2.21,.35,3.29h.26c.03-.28,.04-.56,.04-.85,0-.34-.01-.68-.01-1.02,.01-12.57,.01-25.14,.01-37.7h-.13l.06,.12,.45-.22-.12-.24-.45,.22-.07,.04v.08c0,12.56,0,25.13-.01,37.7,0,.34,.01,.68,.01,1.02,0,.28,0,.55-.04,.83l.13,.02h.13c-.03-1.12-.23-2.21-.35-3.3h0c-1.43-11.96-2.83-23.92-4.27-35.88l-.02-.14-.13,.02c-4.2,.6-8.41,1.12-12.59,1.83l-.1,.02v.1c-1.22,11.94-2.52,23.85-3.73,35.78h.13s.13-.02,.13-.02c-1.27-4.94-2.44-9.92-3.68-14.87l-.13,.03,.13-.02-.12-.6,.02-.14c1.63-6.28,3.25-12.54,4.88-18.82h0c.06-.27,.19-.56,.19-.89v-.21s-.16,.03-.16,.03c-2.64,.44-5.3,.9-7.94,1.38l-.08,.02-.02,.08c-.78,3.09-1.54,6.18-2.31,9.28-.61,2.57-1.31,5.11-1.86,7.7l.13,.03,.13-.02c-.07-.4-.08-.8-.08-1.21,0-.37,.01-.75,.01-1.13v-.39s-.14,0-.14,0h.13v-13.52h-.12s-.28-.03-.28-.03c-.63,0-1.22,.19-1.78,.31-3.74,.76-7.47,1.56-11.2,2.31l-.31,.06,.26,.18c1.5,1.01,3.11,1.85,4.62,2.8l.07-.11-.12,.05,.05,.34v.29s0,.11,0,.11h.13s-.13,0-.13,0v33.2h0s0,.01,0,.01v.04c0,.22-.17,.42-.32,.69l.12,.06-.11-.07c-.99,1.55-1.94,3.13-2.93,4.66l-.19,.29,.33-.08c1.14-.29,2.29-.63,3.43-.94l-.04-.13,.03,.13c2.76-.67,5.56-1.21,8.38-1.76l.11-.02v-16.47h0s0-.46,0-.46c0-.36,.02-.72,.08-1.08l-.13-.02h-.13c.06,.78,.26,1.52,.41,2.25h0c1.06,4.98,2.12,9.96,3.16,14.96l.02,.11,.38-.02h.01c5.11-.94,10.23-1.76,15.36-2.56l.11-.02v-.11c.14-2.5,.31-5,.42-7.5h-.13s.02,.13,.02,.13c1.02-.17,2.05-.32,3.07-.44l-.02-.13h-.13c.14,2.47,.3,4.93,.45,7.39v.14s.15-.02,.15-.02c5.73-.78,11.47-1.47,17.23-1.99h.12s0-.13,0-.13c.02-.76,.03-1.52,.03-2.28,0-.83,0-1.67,0-2.5,0-.46,0-.93,0-1.39h0c0-2.15,0-4.29,0-6.43s0-4.28,0-6.42h-.13l.02,.13,.68-.04c.4,0,.8,.06,1.13,.27h0c.34,.19,.43,.63,.5,1.05l.13-.02-.13,.02c.17,1.1,.19,2.22,.19,3.34,0,.28,0,.57,0,.86v.61c0,4.17,0,8.36,0,12.53v.14h.14c1.95-.14,3.88-.33,5.83-.48h0c.74-.07,1.48-.06,2.23-.19l.11-.02v-.11c0-1.32,0-2.64,0-3.96,0-2.64,0-5.28,0-7.92h0c-.07-1.73-.01-3.48-.19-5.21h0c-.14-1.07-.64-2.03-1.24-2.87h0c-.81-1.06-2.1-1.54-3.32-1.83l-.03,.13,.05,.12c.75-.28,1.59-.44,2.31-.94l-.08-.11,.07,.11c.88-.52,1.51-1.39,1.8-2.35h0c.56-1.9,.56-3.88,.63-5.81h0c-.07-2.28-.13-4.63-.93-6.81h0c-.57-1.48-1.61-2.88-3.1-3.55h0c-1.12-.47-2.35-.44-3.5-.5h0c-3.84,.04-7.64,.57-11.43,.95l.03,.26h0Zm7.98,6.19c0,1.02,0,2.05,0,3.07,0,2.05,0,4.1,0,6.15v.14h.14c.85-.07,2.03-.23,2.44-1.22h0c.29-.93,.33-1.88,.33-2.82,0-.28,0-.55,0-.83v-.33h0s0-.21,0-.21c0-.33,.01-.67,.01-1.01,0-.74-.04-1.49-.32-2.22h0s0,0,0,0c-.32-.7-1.07-.93-1.76-.93l-.73,.09,.06,.26,.67-.08c.64,0,1.27,.21,1.52,.78l.12-.05-.12,.05c.26,.67,.3,1.39,.3,2.12,0,.33,0,.67,0,1.01v.21h0s0,.33,0,.33c0,.27,0,.55,0,.83,0,.93-.03,1.85-.31,2.73l.13,.04-.12-.05c-.31,.81-1.36,.99-2.21,1.04v.13h.14c0-2.05,0-4.1,0-6.15,0-1.02,0-2.05,0-3.07h-.26Zm-19.58,10.52h-.13c-.32,4.01-.64,8-.97,12.02v.17s.15-.02,.15-.02c.87-.13,1.73-.26,2.59-.36h.13s0-.14,0-.14c-.35-5.76-.75-11.52-1.11-17.28v-.02l-.09-.3-.24-.79-.02,.82c-.06,1.97-.31,3.93-.43,5.89h.13s-.13,0-.13,0h.13s.13,.02,.13,.02c.13-1.95,.37-3.92,.43-5.91h-.13s-.13,.03-.13,.03l.09,.29,.13-.04h-.13c.36,5.77,.77,11.53,1.11,17.29h.13s-.01-.14-.01-.14c-.87,.1-1.74,.23-2.6,.36l.02,.13h.13c.33-4.01,.65-8,.97-12.02h0s-.13-.01-.13-.01h0Z"/><path class="cls-4" d="M152.54,68.75c1.16-.68,2.49-.96,3.83-.96,.9,0,1.81,.12,2.69,.32h0c3.9,.81,7.23,3.96,8.33,7.79l.13-.04-.13,.03c.72,2.82,.76,5.75,.76,8.67,0,.41,0,.82,0,1.23h.13l.02-.13c-2.86-.43-5.69-.95-8.55-1.3l-.02,.13h.13c-.04-.71-.05-1.41-.05-2.11,0-.77,.01-1.54,.01-2.32,0-1.21-.03-2.43-.18-3.64l-.13,.02h.13c-.06-.73-.5-1.51-1.31-1.63l-.02,.13,.04-.13-.31-.05c-.51,0-1,.34-1.12,.87-.33,1.32-.21,2.68-.28,3.99h0c0,2.36,0,4.72,0,7.08s0,4.72,0,7.08c0,1.16,0,2.32,0,3.48,0,1.39,.01,2.78,.07,4.17h0c.06,.76,.05,1.61,.46,2.34l.12-.07-.12,.06c.26,.48,.82,.75,1.35,.75,.43,0,.87-.19,1.1-.62h0c.44-.87,.42-1.84,.48-2.74h0c.01-1.04,.02-2.08,.02-3.11s0-2.07,0-3.1v-.11l-.11-.02c-.6-.12-1.21-.11-1.72-.29l-.04,.13h.13c-.03-.62-.04-1.24-.04-1.86,0-.75,.01-1.5,.01-2.25v-.52s-.14,0-.14,0h.13s0-.16,0-.16c0-.3-.02-.6-.02-.89l.04-.65-.13-.02-.02,.13c3.35,.5,6.68,1,10.01,1.56l.02-.13h-.13c.01,2.26,.01,4.51,.01,6.77,0,2.47,0,4.94,0,7.41,0,1.38,0,2.77,0,4.16h.27c.01-.96,.22-1.91,.29-2.87h-.13s.13,0,.13,0c1.21-11.17,2.42-22.33,3.64-33.49h-.13s.13,0,.13,0c.05-.37,.03-.71,.15-1.01l-.12-.05-.02,.13c3.06,.56,6.13,1.14,9.19,1.72,3.13,.62,6.23,1.34,9.37,1.94l.03-.13-.08-.11-.42,.33,.08,.1-.07-.11c-1.71,.99-3.38,2.04-5.11,3l-.08,.04v.09c.28,3.13,.72,6.25,1.04,9.37,.85,7.58,1.72,15.16,2.59,22.74h0c.11,.71,.07,1.48,.34,2.19h0s0,.02,0,.02c1.11,1.79,2.21,3.59,3.35,5.37l.11-.07,.03-.13c-2.46-.59-4.89-1.43-7.4-1.93l-.03,.13,.03-.13c-1.49-.35-3.01-.56-4.47-.95l-.03,.13h.13c-.14-2.52-.26-5.02-.46-7.53v-.11s-.11-.02-.11-.02c-1-.14-2.01-.46-3.06-.52h-.14s0,.12,0,.12c-.1,2.44-.26,4.88-.43,7.3h.13s.02-.12,.02-.12c-4.6-.82-9.22-1.68-13.86-2.34l-.02,.13,.12-.05c-.39-.95-.45-2.06-.87-3.04l-.11-.27-.13,.26c-.59,1.22-1.6,2.31-2.92,2.66-.48,.13-.97,.18-1.46,.18-1.23,0-2.47-.36-3.54-.94l-.06,.12,.06-.12c-1.75-.98-3.24-2.48-4.18-4.26l-.12,.06,.12-.06c-.82-1.6-1.33-3.36-1.46-5.14-.16-2.16-.19-4.33-.19-6.49,0-1.23,0-2.47,0-3.7,0-.45,0-.91,0-1.36,0-.27,0-.54,0-.8,0-1.6-.01-3.2-.01-4.79,0-2.03,.02-4.07,.13-6.1,.09-1.43,.17-2.89,.52-4.29l-.13-.03,.13,.03c.51-1.93,1.9-3.55,3.59-4.59l-.14-.23c-1.74,1.07-3.18,2.74-3.71,4.74h0c-.35,1.43-.44,2.9-.53,4.34-.1,2.04-.13,4.07-.13,6.11,0,1.6,.01,3.19,.01,4.79v.8c0,.46,0,.91,0,1.36,0,1.23,0,2.47,0,3.7,0,2.17,.03,4.33,.19,6.51,.13,1.82,.66,3.61,1.49,5.24h0c.97,1.83,2.48,3.36,4.28,4.37h0c1.11,.6,2.39,.97,3.66,.97,.51,0,1.02-.06,1.53-.19,1.42-.38,2.47-1.53,3.09-2.8l-.12-.06-.12,.05c.39,.92,.45,2.03,.87,3.04l.03,.07h.07c4.63,.67,9.25,1.53,13.85,2.35l.15,.03v-.15c.18-2.43,.34-4.86,.44-7.31h-.13s0,.13,0,.13c1.01,.06,2.01,.37,3.04,.52l.02-.13h-.13c.2,2.51,.32,5.01,.46,7.53v.1s.1,.02,.1,.02c1.48,.39,3,.61,4.48,.95h0c2.49,.5,4.91,1.34,7.39,1.93l.32,.08-.18-.28c-1.14-1.77-2.24-3.58-3.35-5.37l-.11,.07,.12-.05c-.25-.64-.21-1.4-.32-2.13l-.13,.02h.13c-.87-7.59-1.73-15.17-2.59-22.75-.33-3.12-.76-6.24-1.04-9.36h-.13s.06,.13,.06,.13c1.74-.97,3.41-2.02,5.11-3.01h0s.42-.34,.42-.34l.23-.18-.29-.05c-3.13-.59-6.23-1.32-9.37-1.94-3.06-.58-6.14-1.16-9.19-1.72l-.11-.02-.04,.1c-.14,.37-.12,.74-.17,1.07h0c-1.21,11.16-2.43,22.32-3.63,33.49h0c-.07,.94-.27,1.9-.29,2.9h.13s.13,0,.13,0c0-1.39,0-2.77,0-4.16,0-2.47,0-4.95,0-7.41,0-2.26,0-4.52-.01-6.77v-.11s-.11-.02-.11-.02c-3.33-.55-6.67-1.05-10.02-1.56l-.13-.02-.02,.13-.04,.69c0,.3,.02,.59,.02,.89v.16h0s0,.52,0,.52c0,.75-.01,1.5-.01,2.25,0,.62,0,1.24,.04,1.86v.09s.09,.03,.09,.03c.57,.2,1.19,.18,1.75,.29l.03-.13h-.13c0,1.03,0,2.07,0,3.1s0,2.07-.02,3.1h0c-.06,.91-.05,1.85-.45,2.63l.12,.06-.12-.06c-.18,.33-.51,.48-.87,.48-.44,0-.92-.24-1.12-.61h0c-.37-.65-.38-1.45-.43-2.23h-.13s.13,0,.13,0c-.06-1.39-.07-2.77-.07-4.16,0-1.16,0-2.32,0-3.48,0-2.36-.01-4.72-.01-7.08s0-4.71,.01-7.07h0c.07-1.33-.04-2.66,.27-3.93,.09-.39,.47-.67,.87-.66l.24,.03h0s0,0,0,0c.64,.09,1.03,.74,1.09,1.38h0c.15,1.2,.18,2.4,.18,3.61,0,.77-.01,1.55-.01,2.32,0,.71,0,1.41,.04,2.12v.11s.12,.01,.12,.01c2.85,.35,5.68,.87,8.54,1.3l.15,.02v-1.38c0-2.92-.04-5.88-.77-8.73h0c-1.13-3.93-4.52-7.14-8.53-7.97l-.03,.13,.03-.13c-.89-.2-1.82-.33-2.75-.33-1.38,0-2.75,.28-3.97,.99l.14,.23h0Zm26.26,12.77h-.13c-.01,1.76-.26,3.54-.37,5.32h.13s-.13,0-.13,0c-.33,4.04-.67,8.07-.98,12.11v.12s.11,.02,.11,.02c.85,.16,1.69,.33,2.56,.49l.15,.03v-.16s0-.15,0-.15c0-.8-.11-1.58-.13-2.35h0c-.27-4.33-.55-8.65-.82-12.98h0s0,0,0,0c-.1-.8,0-1.65-.25-2.48l-.26-.87v.91s.13,0,.13,0l-.13,.04c.22,.76,.14,1.59,.24,2.44l.13-.02h-.13c.27,4.34,.55,8.66,.82,12.99h.13s-.13,0-.13,0c.03,.78,.13,1.57,.13,2.34v.15h.13s.03-.13,.03-.13c-.87-.16-1.7-.33-2.55-.49l-.03,.13h.13c.32-4.03,.65-8.06,.98-12.1h0c.12-1.78,.36-3.56,.38-5.34h-.13l-.13,.04,.13-.04h0Z"/><path class="cls-4" d="M136.64,72.49c.74-.21,1.38,.48,1.43,1.17,.32,2.22,.14,4.48,.19,6.7v15c0,1.78,.04,3.57-.18,5.34-.06,.46-.27,1.04-.79,1.15-.69,.2-1.4-.36-1.45-1.07-.22-1.54-.19-3.11-.22-4.67v-16.75c.03-1.89-.07-3.78,.18-5.66,.04-.52,.31-1.08,.85-1.22h0Z"/><path class="cls-4" d="M136.64,72.49l.04,.13,.24-.03c.52,0,.99,.54,1.02,1.08h0c.16,1.15,.2,2.29,.2,3.45,0,.8-.01,1.6-.01,2.4,0,.28,0,.56,0,.84h.13s-.13,0-.13,0v15c0,.5,0,1.01,0,1.51,0,1.28-.02,2.55-.18,3.82-.05,.44-.27,.96-.69,1.04h0s0,0,0,0l-.25,.04c-.51,0-.99-.45-1.03-.99h0c-.22-1.53-.19-3.1-.22-4.66h-.13s.13,0,.13,0v-16.75h0c0-.29,0-.59,0-.88,0-.45,0-.89,0-1.34,0-1.15,.02-2.29,.17-3.42h0c.04-.5,.3-1,.75-1.1h0s0,0,0,0l-.04-.13-.03-.13c-.62,.16-.91,.78-.95,1.33h.13s-.13,0-.13,0c-.15,1.15-.17,2.3-.17,3.45,0,.45,0,.89,0,1.34,0,.29,0,.59,0,.88h0v16.75h0c.03,1.55,0,3.14,.22,4.69l.13-.02h-.13c.06,.69,.63,1.24,1.3,1.25l.33-.05-.04-.13,.03,.13c.62-.14,.84-.79,.9-1.27,.16-1.28,.18-2.57,.18-3.85,0-.5,0-1,0-1.51v-15h0c0-.28,0-.56,0-.84,0-.8,.02-1.6,.02-2.4,0-1.15-.03-2.32-.2-3.47l-.13,.02h.13c-.05-.67-.58-1.33-1.29-1.34l-.31,.04,.04,.13-.03-.13,.03,.13h0Z"/><path class="cls-4" d="M59.98,73.44c.81-.19,1.95-.09,2.34,.78,.42,1.09,.29,2.26,.31,3.39-.02,1.31,.08,2.66-.32,3.92-.36,.9-1.47,1.07-2.32,1.13,0-3.07,.01-6.15,0-9.22h0Z"/><path class="cls-4" d="M59.98,73.44l.03,.13,.67-.08c.64,0,1.27,.22,1.52,.78l.12-.06-.12,.05c.26,.67,.3,1.39,.3,2.12,0,.33,0,.67,0,1.01v.21h0s0,.33,0,.33c0,.28,0,.56,0,.83,0,.93-.03,1.85-.31,2.73l.12,.04-.12-.05c-.31,.81-1.36,.99-2.21,1.04v.13h.14c0-2.05,0-4.1,0-6.15,0-1.02,0-2.05,0-3.07h-.13l.03,.13-.03-.13h-.13c0,1.02,0,2.05,0,3.07,0,2.05,0,4.1,0,6.15v.14h.14c.86-.07,2.03-.23,2.44-1.22h0s0,0,0,0c.29-.92,.33-1.87,.33-2.81,0-.28,0-.55,0-.83v-.33h0v-.21c0-.33,0-.67,0-1.01,0-.74-.04-1.5-.32-2.22h0c-.32-.71-1.07-.94-1.76-.94l-.73,.08-.1,.03v.11h.13Z"/><path class="cls-4" d="M40.26,83.96c.13-1.96,.37-3.92,.43-5.9l.08,.29c.36,5.76,.77,11.52,1.11,17.28-.86,.1-1.73,.23-2.6,.36,.33-4.02,.65-8.01,.97-12.03h0Z"/><path class="cls-4" d="M40.26,83.96h.13c.13-1.94,.37-3.91,.43-5.9h-.13s-.13,.03-.13,.03l.09,.29,.13-.04h-.13c.36,5.77,.77,11.53,1.11,17.29h.13s-.01-.14-.01-.14c-.87,.1-1.74,.23-2.6,.36l.02,.13h.13c.33-4.01,.65-8,.97-12.02h0s-.13-.01-.13-.01h-.13c-.32,4.01-.64,8-.97,12.02v.17s.15-.02,.15-.02c.87-.13,1.73-.26,2.59-.36h.13s0-.14,0-.14c-.35-5.76-.75-11.52-1.11-17.28v-.02l-.09-.3-.24-.79-.02,.82c-.06,1.97-.31,3.93-.43,5.89h.13s-.13,0-.13,0h.13Z"/><path class="cls-4" d="M178.81,81.52c.23,.8,.14,1.63,.25,2.46,.27,4.33,.55,8.65,.82,12.98,.03,.82,.15,1.66,.13,2.49-.87-.16-1.7-.33-2.55-.49,.32-4.04,.65-8.07,.98-12.11,.11-1.78,.36-3.56,.37-5.33h0Z"/><path class="cls-4" d="M178.81,81.52l-.13,.04c.22,.76,.14,1.59,.24,2.44l.13-.02h-.13c.27,4.34,.55,8.66,.82,12.99h.13s-.13,0-.13,0c.03,.78,.13,1.57,.13,2.34v.15h.13s.03-.13,.03-.13c-.87-.16-1.7-.33-2.55-.49l-.03,.13h.13c.32-4.03,.65-8.06,.98-12.1h0c.12-1.78,.36-3.56,.38-5.34h-.13l-.13,.04,.13-.04h-.13c-.01,1.76-.26,3.54-.37,5.32h.13s-.13,0-.13,0c-.33,4.04-.67,8.07-.98,12.11v.12s.11,.02,.11,.02c.85,.16,1.69,.33,2.56,.49l.15,.03v-.16s0-.15,0-.15c0-.8-.11-1.58-.13-2.35h0c-.27-4.33-.55-8.65-.82-12.98h0s0,0,0,0c-.1-.8,0-1.65-.25-2.48l-.26-.87v.91s.13,0,.13,0h0Z"/><path class="cls-4" d="M144.03,111.23c1.23-.73,2.42-1.61,3.32-2.76l-.11-.08-.12,.07c1.4,2.4,3.56,4.3,6.05,5.48h0c1.36,.55,2.8,.81,4.21,1.04l.02-.13-.13-.03c-.12,.67-.55,1.27-.82,1.97l.12,.05-.12-.06c-1.75,3.66-3.59,7.27-5.66,10.78-2.87,4.93-6.02,9.72-9.57,14.2-6.88,8.77-14.76,16.73-23.28,23.9-6.04,5.1-12.42,9.8-19.11,14.03l.07,.11,.07-.11c-9.25-5.85-17.91-12.62-25.93-20.07-7.13-6.66-13.69-13.93-19.44-21.82l-.11,.08,.11-.08c-4.88-6.86-9.1-14.19-12.61-21.85h0c-.27-.56-.56-1.1-.71-1.69l-.13,.03,.03,.13c.9-.22,1.83-.37,2.76-.38h0s0,0,0,0c5.55-.78,11.13-1.41,16.71-1.96h0c1.09-.16,2.2-.28,3.3-.3h0c7.63-.67,15.28-1.12,22.93-1.4h.01s.01,0,.01,0c.47-.1,.96-.2,1.43-.35h0s.01,0,.01,0c.45-.23,.85-.55,1.22-.87l-.09-.1-.05,.12c.26,.11,.53,.24,.78,.38h0c1.22,.6,2.56,.84,3.84,1.14h0c.82,.18,1.66,.24,2.5,.24,.54,0,1.08-.02,1.61-.06h.01c2.09-.35,4.27-.74,6.14-1.91l-.07-.11v.13s.5-.02,.5-.02v-.13s-.11,.08-.11,.08c.32,.4,.76,.68,1.18,.93h.01s.01,0,.01,0c1.13,.4,2.3,.44,3.45,.44,.3,0,.59,0,.89,0,.51,0,1.02,0,1.52,.05h0c2.35,.07,4.7,.22,7.07,.24v-.13s0,.13,0,.13c3.18,.17,6.35,.35,9.53,.53h.01s.01,0,.01,0c.81-.08,1.69-.2,2.38-.76l-.08-.1-.03,.13,.56,.13,.03-.13-.08,.11c1.32,.92,2.89,1.39,4.42,1.72l.03-.13-.03,.13c1.13,.3,2.3,.48,3.47,.48,.74,0,1.48-.07,2.21-.22h0c1.27-.31,2.59-.53,3.76-1.21l-.13-.23c-1.11,.65-2.41,.86-3.69,1.18l.03,.13-.03-.13c-.71,.14-1.43,.21-2.15,.21-1.15,0-2.29-.17-3.4-.47h0c-1.53-.33-3.05-.79-4.33-1.68h-.02s-.59-.15-.59-.15h-.06s-.05,.03-.05,.03c-.61,.51-1.43,.62-2.24,.71v.13s.02-.13,.02-.13c-3.18-.18-6.35-.36-9.53-.54h0c-2.36-.02-4.71-.17-7.07-.24v.13s0-.13,0-.13c-.51-.04-1.03-.05-1.54-.05h-.89c-1.15,0-2.29-.04-3.37-.42l-.04,.12,.07-.11c-.41-.24-.82-.51-1.1-.86l-.04-.05-.56,.03h-.03l-.03,.02c-1.8,1.14-3.95,1.53-6.04,1.87l.02,.13v-.13c-.54,.03-1.07,.06-1.6,.06-.83,0-1.65-.06-2.44-.23l-.03,.13,.03-.13c-1.29-.3-2.61-.54-3.78-1.12l-.06,.12,.06-.12c-.26-.14-.54-.28-.8-.39l-.08-.03-.06,.05c-.37,.32-.75,.63-1.17,.84l.06,.12-.04-.13c-.45,.14-.92,.24-1.4,.34l.03,.13v-.13c-7.66,.29-15.31,.74-22.95,1.4v.13s0-.13,0-.13c-1.12,.03-2.24,.14-3.34,.31l.02,.13v-.13c-5.6,.55-11.18,1.18-16.73,1.96l.02,.13v-.13c-.95,.02-1.9,.18-2.81,.39l-.13,.03,.03,.13c.16,.63,.46,1.18,.73,1.74l.12-.06-.12,.05c3.51,7.68,7.75,15.02,12.63,21.9h0c5.76,7.9,12.34,15.19,19.47,21.86,8.03,7.45,16.71,14.23,25.97,20.1l.07,.04,.07-.04c6.7-4.24,13.09-8.95,19.14-14.06,8.54-7.18,16.43-15.16,23.32-23.94,3.56-4.5,6.72-9.29,9.59-14.23,2.07-3.52,3.92-7.13,5.67-10.8h0s0,0,0,0c.25-.65,.69-1.27,.83-2.01l.03-.13-.14-.02c-1.41-.23-2.83-.49-4.16-1.02l-.05,.12,.06-.12c-2.44-1.16-4.56-3.03-5.93-5.37l-.1-.17-.12,.16c-.87,1.12-2.03,1.98-3.24,2.69l.14,.23h0Zm4.97,8.13c-6.19,10.06-13.93,19.15-22.66,27.09-8.32,7.58-17.51,14.18-27.16,19.99l.07,.11-.03-.13-.45,.1,.03,.13,.07-.11c-7.23-4.34-14.22-9.12-20.77-14.44-11.42-9.24-21.56-20.21-29.25-32.75h0s-.34-.42-.34-.42l-.36-.44,.13,.56c.11,.46,.37,.84,.55,1.22h0c4.68,9.12,10.58,17.6,17.43,25.22,7.7,8.64,16.55,16.2,26.03,22.81,2.17,1.49,4.32,3.02,6.59,4.35l.07,.04,.07-.04c1.49-.88,2.91-1.87,4.35-2.82h0c9.03-6.1,17.51-13.03,25.05-20.89,7.69-7.99,14.39-16.98,19.62-26.78,.59-1.1,1.22-2.19,1.68-3.36l.4-1.01-1.11,1.55,.22,.16,.47-.66-.11-.08-.12-.05c-.46,1.14-1.08,2.23-1.67,3.33-5.22,9.78-11.91,18.75-19.58,26.72-7.53,7.85-15.99,14.77-25.01,20.86l.07,.11-.07-.11c-1.45,.95-2.86,1.94-4.34,2.81l.07,.11,.06-.11c-2.26-1.32-4.41-2.85-6.57-4.34-9.47-6.6-18.3-14.15-25.99-22.77-6.83-7.6-12.72-16.06-17.39-25.16l-.12,.06,.12-.06c-.19-.4-.43-.77-.52-1.17l-.13,.03-.1,.09,.33,.4,.1-.08-.11,.07c7.7,12.57,17.86,23.55,29.31,32.82,6.56,5.33,13.56,10.11,20.8,14.46l.04,.02,.5-.11h.02s.02-.02,.02-.02c9.66-5.82,18.87-12.42,27.2-20.02,8.75-7.96,16.51-17.07,22.71-27.15l-.23-.14h0Zm-58.81-.17c-.85,.4-1.47,1.23-1.59,2.15h0c-.07,.76-.1,1.51-.1,2.27,0,.45,.01,.9,.03,1.35h.13s-.13,0-.13,0c.03,.74,.16,1.58,.76,2.14,.53,.49,1.25,.74,1.95,.74s1.43-.25,1.95-.75l-.09-.1h-.13s0,.41,0,.41c0,.43,.01,.86,.01,1.29,0,.31,0,.62-.04,.92h0s-.45,.37-.45,.37l-.44-.27-.12,.05,.13-.03c-.08-.36-.03-.76-.07-1.17v-.12s-.13,0-.13,0c-.36,0-.71,0-1.07,0-.71,0-1.43,0-2.14,0h-.13v.13s0,.19,0,.19c0,.96,.23,2.02,1.05,2.7l.08-.1-.09,.1c.78,.66,1.77,.86,2.75,.86,.45,0,.9-.04,1.32-.1h0c1.37-.23,2.63-1.33,2.75-2.78h0c.05-.78,.06-1.55,.06-2.31,0-.86-.02-1.71-.02-2.56,0-.35,0-.7,.01-1.05h0s0-.52,0-.52v-.35c0-.79-.03-1.62-.5-2.33l-.11,.07,.12-.07c-.55-1.01-1.71-1.46-2.78-1.54h0c-.29-.02-.59-.03-.89-.03-.71,0-1.44,.09-2.1,.43l.12,.24c.6-.32,1.28-.4,1.97-.4,.29,0,.58,.01,.87,.03h0c1.01,.07,2.08,.51,2.56,1.4h0s0,.01,0,.01c.42,.63,.46,1.4,.46,2.19v.35s0,.52,0,.52h.13s-.13,0-.13,0c0,.35,0,.7,0,1.06,0,.86,.01,1.71,.01,2.56,0,.76-.01,1.53-.06,2.29h.13s-.13,0-.13,0c-.1,1.3-1.27,2.33-2.53,2.54l.02,.13-.02-.13c-.42,.06-.86,.1-1.29,.1-.95,0-1.87-.19-2.58-.79h0c-.72-.6-.95-1.57-.95-2.5v-.18s-.13,0-.13,0v.13c.71,0,1.42,0,2.14,0,.35,0,.71,0,1.06,0v-.13s-.13,.01-.13,.01c.04,.37-.02,.78,.07,1.2h0s0,.02,0,.02c.11,.3,.41,.44,.69,.44,.33,0,.69-.2,.71-.61h-.13s.13,0,.13,0c.03-.32,.04-.63,.04-.95,0-.43-.02-.86-.02-1.29v-.41s.02-.32,.02-.32l-.24,.22c-.47,.45-1.12,.68-1.77,.68s-1.3-.22-1.77-.67c-.52-.47-.65-1.23-.68-1.96h0c-.02-.45-.03-.89-.03-1.34,0-.74,.03-1.49,.1-2.24h-.13s.13,0,.13,0c.11-.83,.67-1.59,1.44-1.95l-.11-.24h0Zm24.51,.14c-.89,.57-1.3,1.63-1.3,2.64v.25s.14,0,.14,0h-.13s0,.19,0,.19c0,.9,.38,1.81,1.16,2.34l.07-.11-.06-.12c-.44,.24-.84,.61-1.01,1.11h0c-.23,.71-.25,1.45-.25,2.16v.91s0,0,0,0h0c.01,.84,.14,1.78,.73,2.47h0c.74,.84,1.86,1.13,2.93,1.13h.15v-.13s0,.13,0,.13h.29c1.06,0,2.21-.22,3.01-1.02h0c.65-.67,.71-1.62,.77-2.42h0s0-.3,0-.3c0-.26,0-.53,0-.8,0-.57-.02-1.14-.13-1.71l-.13,.03,.13-.02c-.12-.72-.67-1.27-1.29-1.56l-.06,.12,.09,.09c.4-.4,1.1-.71,1.2-1.47h0c.03-.36,.06-.74,.06-1.11,0-.74-.11-1.5-.55-2.14l-.11,.07,.12-.07c-.47-.8-1.41-1.1-2.22-1.21h0c-.37-.03-.74-.05-1.12-.05-.85,0-1.72,.12-2.47,.57l.14,.23c.69-.42,1.5-.53,2.34-.53,.36,0,.73,.02,1.1,.05v-.13s0,.13,0,.13c.78,.1,1.63,.4,2.02,1.08h0s0,0,0,0c.39,.57,.5,1.27,.5,1.99,0,.36-.03,.73-.06,1.08h.13s-.13,0-.13,0c-.06,.58-.65,.87-1.12,1.31l-.14,.14,.18,.08c.56,.26,1.03,.75,1.14,1.36h0c.11,.55,.13,1.1,.13,1.66,0,.26,0,.53,0,.8v.29s.14,0,.14,0h-.13c-.06,.8-.14,1.67-.7,2.24l.1,.09-.1-.09c-.72,.73-1.79,.95-2.82,.95h-.28s0,0,0,0h-.14c-1.02,0-2.06-.28-2.73-1.04l-.1,.09,.1-.09c-.52-.61-.65-1.49-.66-2.3h-.13s.13,0,.13,0v-.56s0-.35,0-.35c0-.71,.02-1.42,.23-2.08l-.12-.04,.12,.04c.14-.42,.49-.74,.89-.96l.19-.11-.18-.12c-.69-.47-1.04-1.3-1.04-2.13v-.18s0,0,0,0h0s0-.24,0-.24c0-.94,.38-1.92,1.17-2.41l-.14-.22h0Zm-37.72,1.74l-.05,.76,.03,.67v.1s.11,.01,.11,.01c.61,.09,1.18,0,1.69,.2h0c.24,.08,.34,.4,.34,.68h0c0,.62,.01,1.24,.01,1.86,0,1.27-.01,2.54-.01,3.81,0,.91,0,1.81,.03,2.72v.13s.13,0,.13,0c.43,0,.86,0,1.29,0,.64,0,1.28,0,1.92-.03h.12s0-.13,0-.13c.02-.56,.03-1.12,.03-1.68,0-.78-.01-1.55-.01-2.33,0-.39,0-.78,.01-1.17h0c0-.46,0-.91,0-1.37,0-.99,0-1.98,0-2.96,0-1.1,0-2.21-.03-3.32v-.13h-.13c-.36,0-.71,0-1.07,0-.28,0-.56,0-.84,.03h-.06s-.04,.05-.04,.05c-.84,1.03-2.08,1.68-3.39,1.99l.06,.26c1.35-.33,2.65-.99,3.54-2.08l-.1-.09v.13c.28-.02,.55-.03,.83-.03,.35,0,.71,0,1.07,0v-.13h-.13c.03,1.11,.03,2.21,.03,3.32,0,.99,0,1.98,0,2.96,0,.46,0,.91,0,1.37h.13s-.13,0-.13,0c-.01,.39-.01,.79-.01,1.18,0,.78,.01,1.55,.01,2.33,0,.56,0,1.12-.03,1.67h.13s0-.13,0-.13c-.63,.02-1.27,.03-1.91,.03-.43,0-.86,0-1.29,0v.13s.13,0,.13,0c-.02-.91-.03-1.81-.03-2.72,0-1.27,.01-2.54,.01-3.81,0-.62,0-1.24-.01-1.86h0c0-.33-.1-.78-.52-.93l-.04,.13,.05-.13c-.59-.22-1.2-.12-1.74-.21l-.02,.13h.13s-.03-.66-.03-.66l.04-.72-.26-.03h0Zm24.82-2.02h-.13c-.03,.3-.04,.62-.04,.94,0,.45,.02,.9,.03,1.34v.12s.13,0,.13,0h.72c.43,.01,.86,0,1.28,0,.39,0,.78,0,1.17,.04v-.13s-.12-.03-.12-.03c-.52,2.19-.98,4.39-1.47,6.59h0c-.26,1.3-.63,2.6-.82,3.92l-.02,.15h.15c1.05,.02,2.13,.02,3.18,.02h.11l.02-.11c.61-3.09,1.23-6.17,1.85-9.24l-.13-.03,.13,.03c.17-.62,.21-1.24,.21-1.86,0-.54-.03-1.08-.03-1.61v-.29s-.13,0-.13,0c-1.22,0-2.44-.03-3.66-.03-.8,0-1.61,0-2.41,.03h-.12s-.01,.12-.01,.12h.13s0,.15,0,.15c.8-.02,1.6-.03,2.4-.03,1.22,0,2.44,.01,3.66,.03v-.13h-.13s0,.16,0,.16c0,.54,.03,1.08,.03,1.61,0,.61-.04,1.21-.2,1.79h0c-.62,3.08-1.24,6.15-1.85,9.25l.13,.03v-.13c-1.05,0-2.12,0-3.17-.02v.13s.13,.02,.13,.02c.19-1.3,.56-2.6,.82-3.9l-.13-.03,.13,.03c.49-2.2,.95-4.4,1.47-6.58l.03-.15h-.15c-.4-.04-.8-.05-1.19-.05-.43,0-.86,0-1.28,0h-.71s0,.12,0,.12h.13c0-.45-.03-.9-.03-1.34,0-.31,.01-.62,.05-.92h-.13s0,.12,0,.12v-.13h0Z"/><path class="cls-4" d="M149.12,119.43l.48-.66c-.46,1.15-1.08,2.25-1.68,3.34-5.22,9.79-11.92,18.77-19.6,26.75-7.53,7.86-16.01,14.78-25.03,20.88-1.45,.95-2.86,1.93-4.35,2.81-2.26-1.33-4.42-2.86-6.59-4.35-9.48-6.6-18.32-14.16-26.01-22.79-6.84-7.61-12.73-16.08-17.41-25.19-.19-.39-.43-.76-.54-1.19l.33,.41c7.69,12.56,17.84,23.53,29.27,32.78,6.55,5.33,13.56,10.1,20.79,14.45l.45-.1c9.66-5.82,18.85-12.42,27.18-20.01,8.75-7.95,16.5-17.05,22.69-27.12h0Z"/><path class="cls-4" d="M149.12,119.43l.11,.08,.48-.66-.11-.08-.12-.05c-.46,1.14-1.08,2.23-1.67,3.33-5.22,9.78-11.91,18.75-19.58,26.72-7.53,7.85-16,14.77-25.01,20.86l.08,.11-.07-.11c-1.45,.95-2.86,1.94-4.34,2.81l.07,.12,.07-.12c-2.26-1.32-4.41-2.85-6.58-4.34-9.48-6.6-18.3-14.15-25.99-22.77-6.83-7.6-12.72-16.06-17.39-25.16l-.12,.06,.12-.06c-.19-.4-.43-.76-.52-1.17l-.13,.03-.1,.09,.33,.4,.1-.09-.11,.07c7.7,12.57,17.86,23.55,29.3,32.82,6.56,5.33,13.56,10.11,20.8,14.46l.04,.03,.5-.11h.02s.02-.01,.02-.01c9.66-5.82,18.87-12.42,27.2-20.02,8.75-7.96,16.51-17.07,22.71-27.15l-.11-.07,.11,.08-.11-.08-.11-.07c-6.19,10.06-13.93,19.15-22.67,27.09-8.32,7.59-17.51,14.18-27.16,19.99l.07,.12-.03-.13-.45,.1,.03,.13,.07-.12c-7.23-4.34-14.22-9.12-20.77-14.44-11.42-9.25-21.56-20.21-29.25-32.75h0s-.34-.42-.34-.42l-.37-.44,.13,.56c.11,.46,.36,.85,.54,1.22h0c4.68,9.12,10.58,17.6,17.43,25.22,7.7,8.64,16.55,16.2,26.03,22.81,2.17,1.49,4.32,3.02,6.59,4.35l.07,.04,.07-.04c1.49-.88,2.91-1.87,4.35-2.81h0c9.03-6.1,17.51-13.03,25.05-20.9,7.69-7.99,14.4-16.98,19.62-26.78,.59-1.1,1.22-2.19,1.68-3.36l.4-1.01-1.11,1.55h0s0,0,0,0l.11,.07h0Z"/><path class="cls-4" d="M90.25,119.31c.89-.48,1.94-.44,2.92-.39,1.04,.07,2.15,.52,2.67,1.47,.62,.93,.44,2.08,.49,3.12-.04,1.98,.07,3.94-.06,5.91-.11,1.38-1.33,2.44-2.64,2.66-1.35,.19-2.89,.19-3.97-.72-.82-.68-1.02-1.79-.99-2.78,1.07,0,2.13-.02,3.2,0,.05,.39-.01,.79,.07,1.18,.19,.52,1.11,.46,1.14-.13,.09-.88,0-1.76,.03-2.64-.99,.95-2.71,.95-3.72,.01-.56-.52-.69-1.31-.72-2.05-.06-1.2-.04-2.39,.07-3.6,.12-.88,.71-1.67,1.51-2.05h0Zm2.09,1.68c-.33,.09-.45,.48-.45,.79-.01,.91,.02,1.82-.01,2.75,.01,.27-.04,.61,.13,.85,.18,.3,.68,.38,.89,.08,.26-.35,.19-.81,.22-1.21-.03-.86,.01-1.74-.03-2.61,0-.37-.32-.82-.75-.65h0Z"/><path class="cls-4" d="M90.31,119.43c.6-.32,1.28-.4,1.97-.4,.29,0,.58,.01,.87,.03h0c1.01,.07,2.08,.51,2.56,1.4h0s0,.01,0,.01c.42,.64,.46,1.4,.46,2.19v.87s.14,0,.14,0h-.13c0,.35-.01,.7-.01,1.05,0,.85,.02,1.71,.02,2.56,0,.77-.01,1.53-.06,2.29h.13s-.13,0-.13,0c-.1,1.3-1.27,2.33-2.53,2.54l.02,.13-.02-.13c-.42,.06-.85,.1-1.28,.1-.95,0-1.87-.19-2.58-.79h0c-.73-.59-.95-1.57-.95-2.5v-.18s-.13,0-.13,0v.13c.71,0,1.42,0,2.13,0,.36,0,.71,0,1.07,0v-.13h-.13c.04,.38-.02,.79,.07,1.21h0s0,.02,0,.02c.11,.3,.41,.44,.69,.44,.33,0,.69-.2,.71-.61h-.13s.13,0,.13,0c.03-.32,.04-.63,.04-.95,0-.43-.01-.86-.01-1.29v-.41s.02-.32,.02-.32l-.24,.22c-.47,.45-1.12,.68-1.77,.68s-1.29-.23-1.77-.67c-.52-.48-.65-1.23-.68-1.96h0c-.02-.45-.03-.9-.03-1.34,0-.74,.03-1.49,.1-2.24h-.13s.13,0,.13,0c.11-.83,.67-1.59,1.44-1.94l-.11-.24c-.85,.4-1.47,1.23-1.59,2.15h0c-.07,.76-.11,1.51-.11,2.26,0,.45,.01,.9,.03,1.36h.13s-.13,0-.13,0c.03,.74,.16,1.58,.76,2.14,.53,.49,1.24,.74,1.95,.74s1.43-.25,1.95-.75l-.09-.1h-.13s0,.41,0,.41c0,.43,.02,.86,.02,1.29,0,.31,0,.62-.04,.92h0s-.44,.37-.44,.37l-.44-.27-.13,.04,.13-.03c-.08-.36-.02-.76-.07-1.17v-.12h-.13c-.36,0-.71,0-1.07,0-.71,0-1.42,0-2.13,0h-.13v.13s0,.19,0,.19c0,.97,.23,2.03,1.04,2.7l.09-.1-.09,.1c.78,.65,1.77,.85,2.75,.85,.45,0,.9-.04,1.32-.1h0c1.37-.23,2.63-1.33,2.75-2.78h0c.05-.78,.06-1.55,.06-2.31,0-.85-.02-1.71-.02-2.56,0-.35,0-.7,.01-1.05h0s0-.52,0-.52v-.35c0-.79-.02-1.62-.5-2.33l-.11,.07,.12-.06c-.55-1.01-1.71-1.47-2.78-1.54h0c-.29-.02-.59-.03-.89-.03-.71,0-1.44,.08-2.1,.44l.12,.24h0Zm2.03,1.56l-.03-.13c-.43,.12-.55,.58-.55,.92h0v.59c0,.38,0,.76,0,1.14,0,.34,0,.67-.01,1.01h0s0,0,0,0v.29l.15,.64,.11-.08-.11,.06,.62,.34,.5-.24c.3-.41,.21-.9,.24-1.28h0c0-.27-.01-.53-.01-.79s0-.54,0-.81c0-.34,0-.68-.02-1.02h-.13s.13,0,.13,0c0-.37-.25-.8-.7-.82l-.23,.04,.05,.12-.03-.13,.03,.13,.05,.12,.14-.03c.23,0,.43,.29,.43,.55h0c.02,.34,.02,.68,.02,1.02,0,.27,0,.54,0,.81s0,.52,.01,.79h.13s-.13-.01-.13-.01c-.03,.43,.03,.86-.19,1.14l-.29,.13-.39-.2h0s0,0,0,0l-.11-.48v-.3s-.14,0-.14,0h.13c.01-.34,.01-.68,.01-1.01,0-.38,0-.76,0-1.14v-.59s0,0,0,0c0-.29,.12-.61,.35-.67h.01s-.05-.13-.05-.13h0Z"/><path class="cls-4" d="M114.77,119.45c1.04-.63,2.32-.59,3.51-.51,.79,.1,1.69,.41,2.12,1.14,.62,.91,.57,2.09,.46,3.16-.07,.67-.72,.97-1.16,1.39,.59,.27,1.1,.79,1.22,1.46,.19,.91,.12,1.85,.13,2.77-.06,.81-.13,1.72-.74,2.34-.84,.84-2.08,1.02-3.2,.98-1.08,.03-2.24-.25-2.97-1.08-.55-.65-.68-1.57-.69-2.39,.03-1.01-.07-2.05,.25-3.03,.16-.46,.53-.81,.95-1.04-.79-.54-1.15-1.5-1.1-2.43-.07-1.04,.31-2.19,1.23-2.77h0Zm2.25,1.53c-.37,.22-.29,.74-.31,1.1,.04,.55-.12,1.17,.23,1.64,.29,.13,.8,.07,.78-.34,.05-.72,.09-1.46-.04-2.17-.06-.29-.42-.31-.65-.23h0Zm0,5.05c-.26,.06-.3,.43-.33,.65-.08,.99-.1,2.01,.04,3,.05,.46,.62,.57,.94,.31,.25-.64,.13-1.35,.16-2.01-.01-.56,.07-1.17-.15-1.71-.1-.29-.42-.28-.66-.23h0Z"/><path class="cls-4" d="M114.84,119.56c.69-.42,1.51-.54,2.34-.54,.37,0,.73,.02,1.1,.05v-.13s0,.13,0,.13c.78,.1,1.63,.4,2.02,1.08h0s0,0,0,0c.39,.57,.5,1.27,.5,1.99,0,.36-.03,.73-.06,1.08h.13s-.13,0-.13,0c-.06,.58-.65,.87-1.12,1.31l-.14,.14,.18,.08c.56,.26,1.03,.75,1.14,1.36h0c.11,.55,.13,1.1,.13,1.66,0,.26,0,.53,0,.8v.29s.14,0,.14,0h-.13c-.06,.8-.14,1.67-.7,2.25l.1,.09-.1-.09c-.72,.73-1.79,.95-2.82,.95h-.28s0,0,0,0h-.14c-1.02,0-2.06-.28-2.73-1.04l-.1,.09,.1-.09c-.52-.61-.65-1.49-.66-2.31h-.13s.13,0,.13,0v-.56s0-.35,0-.35c0-.71,.02-1.42,.23-2.08l-.12-.04,.12,.04c.14-.42,.49-.74,.89-.96l.19-.1-.18-.12c-.69-.47-1.04-1.3-1.04-2.13v-.18s0,0,0,0h0s0-.24,0-.24c0-.94,.38-1.92,1.17-2.42l-.14-.22c-.89,.57-1.3,1.63-1.3,2.64v.25s.14-.01,.14-.01h-.13s0,.19,0,.19c0,.9,.38,1.81,1.16,2.34l.07-.11-.06-.12c-.44,.24-.84,.6-1.02,1.11h0s0,0,0,0c-.23,.71-.25,1.45-.25,2.16v.91s0,0,0,0h0c.01,.83,.14,1.78,.73,2.47h0c.74,.84,1.86,1.13,2.93,1.13h.15v-.13s0,.13,0,.13h.29c1.06,0,2.21-.22,3.01-1.02h0c.65-.67,.71-1.62,.78-2.42h0s0-.3,0-.3c0-.26,0-.53,0-.8,0-.57-.02-1.14-.13-1.71l-.13,.03,.13-.02c-.12-.72-.67-1.27-1.29-1.56l-.06,.12,.09,.1c.4-.4,1.1-.71,1.2-1.47h0c.03-.36,.06-.74,.06-1.11,0-.74-.11-1.5-.55-2.14l-.11,.07,.12-.07c-.47-.79-1.41-1.1-2.22-1.21h0s0,0,0,0c-.37-.03-.74-.05-1.12-.05-.85,0-1.72,.12-2.47,.57l.14,.23h0Zm2.11,1.3c-.47,.29-.34,.88-.38,1.2h0v.23s0,.51,0,.51c0,.33,.03,.68,.26,.99l.02,.03h.03s.36,.09,.36,.09c.27,0,.61-.15,.61-.52v-.02h-.13s.13,.01,.13,.01c.02-.36,.04-.72,.04-1.09s-.02-.74-.09-1.1h0c-.06-.29-.33-.38-.54-.38l-.28,.04,.08,.26,.2-.03,.28,.16,.13-.03-.13,.02c.06,.34,.09,.7,.09,1.06s-.02,.72-.05,1.08h0v.03l-.34,.26-.25-.05-.05,.12,.11-.08c-.17-.23-.21-.52-.21-.83v-.51s0-.23,0-.23h-.13s.13,.02,.13,.02c.02-.4-.03-.85,.25-.99l-.14-.23h0Zm.07,5.17l-.03-.13c-.39,.12-.4,.55-.43,.76h0c-.04,.48-.07,.95-.07,1.42,0,.54,.03,1.08,.11,1.61l.13-.02h-.13c.04,.39,.37,.59,.67,.58l.49-.17,.03-.02v-.03c.16-.38,.18-.77,.18-1.16v-.66s0-.24,0-.24h0s0,0,0,0v-.7c0-.35-.02-.71-.15-1.05l-.12,.05,.13-.04c-.09-.27-.35-.35-.55-.35l-.26,.03h0l.03,.13,.02,.13,.22-.02,.3,.17h0s0,0,0,0c.12,.3,.14,.62,.14,.96v.57s0,.15,0,.15h.13s-.13,0-.13,0v.25s0,.66,0,.66c0,.37-.02,.73-.15,1.06l.12,.05-.09-.1-.32,.11-.4-.33h0c-.07-.52-.1-1.05-.1-1.58,0-.46,.02-.93,.07-1.4h-.13s.13,0,.13,0l.23-.54-.03-.13,.02,.13-.02-.13h0Z"/><path class="cls-4" d="M77.11,121.09c1.33-.32,2.6-.97,3.47-2.04,.64-.05,1.27-.02,1.91-.02,.06,2.56,.01,5.09,.03,7.65-.05,1.72,.04,3.45-.03,5.18-1.07,.03-2.13,.03-3.2,.02-.08-2.8,.01-5.59-.03-8.39,0-.31-.1-.69-.43-.81-.55-.2-1.14-.11-1.72-.2-.05-.46-.05-.94,.01-1.4h0Z"/><path class="cls-4" d="M77.11,121.09l.03,.13c1.35-.33,2.65-.99,3.54-2.08l-.1-.09v.13c.28-.02,.56-.03,.83-.03,.36,0,.71,0,1.07,0v-.13h-.13c.03,1.11,.03,2.21,.03,3.32,0,.99,0,1.98,0,2.97,0,.45,0,.91,0,1.36h0c-.01,.39-.01,.78-.01,1.17,0,.78,.01,1.55,.01,2.33,0,.56,0,1.12-.03,1.68h.13s0-.13,0-.13c-.64,.02-1.27,.03-1.91,.03-.43,0-.86,0-1.29,0v.13h.13c-.02-.91-.03-1.81-.03-2.72,0-1.27,.01-2.54,.01-3.82,0-.62,0-1.24-.01-1.86h-.13s.13,0,.13,0c0-.32-.11-.78-.52-.93l-.05,.12,.05-.12c-.59-.22-1.19-.12-1.74-.21l-.02,.13h.13s-.03-.66-.03-.66l.04-.72-.13-.02,.03,.13-.03-.13-.13-.02-.05,.76,.03,.67v.1s.11,.02,.11,.02c.61,.09,1.19,0,1.69,.2h0c.24,.08,.34,.4,.34,.68h0c0,.62,.01,1.24,.01,1.85,0,1.27-.01,2.54-.01,3.82,0,.91,0,1.81,.03,2.72v.13h.13c.43,0,.86,.01,1.29,.01,.64,0,1.28,0,1.92-.03h.12s0-.12,0-.12c.02-.56,.03-1.13,.03-1.69,0-.78-.01-1.55-.01-2.33,0-.39,0-.78,.01-1.17h0c0-.46,0-.91,0-1.37,0-.99,0-1.98,0-2.97,0-1.1,0-2.21-.03-3.32v-.13h-.13c-.35,0-.71-.01-1.07-.01-.28,0-.56,0-.84,.03h-.06s-.04,.05-.04,.05c-.84,1.03-2.09,1.67-3.39,1.99l-.09,.02v.09s.12,.02,.12,.02h0Z"/><path class="cls-4" d="M101.8,119.06c2.02-.05,4.04-.02,6.06,0-.01,1.19,.15,2.42-.17,3.6-.62,3.07-1.24,6.14-1.85,9.24-1.05,0-2.12,0-3.18-.02,.19-1.31,.56-2.61,.82-3.91,.49-2.19,.95-4.4,1.47-6.58-1.07-.09-2.12,0-3.18-.04-.01-.75-.07-1.51,.01-2.28h0Z"/><path class="cls-4" d="M101.8,119.06v.13c.8-.02,1.6-.03,2.4-.03,1.22,0,2.44,.01,3.66,.03v-.13h-.13s0,.16,0,.16c0,.54,.03,1.08,.03,1.61,0,.61-.04,1.21-.2,1.79h0c-.62,3.08-1.24,6.15-1.85,9.25l.13,.03v-.13c-1.05,0-2.12,0-3.17-.02v.13s.13,.02,.13,.02c.19-1.3,.56-2.6,.82-3.9l-.13-.03,.13,.03c.49-2.2,.95-4.4,1.47-6.58l.03-.15h-.15c-.4-.04-.8-.05-1.19-.05-.43,0-.86,0-1.28,0h-.71s0,.12,0,.12h.13c0-.45-.03-.9-.03-1.34,0-.31,.01-.62,.05-.92h-.13s0,.12,0,.12v-.13s-.14-.01-.14-.01c-.03,.32-.04,.63-.04,.95,0,.45,.02,.9,.03,1.34v.12s.13,0,.13,0h.72c.43,.01,.86,0,1.28,0,.39,0,.78,0,1.17,.04v-.13s-.12-.03-.12-.03c-.52,2.19-.98,4.39-1.47,6.59h0c-.26,1.3-.63,2.6-.82,3.92l-.02,.15h.15c1.05,.02,2.13,.02,3.18,.02h.11l.02-.11c.61-3.09,1.23-6.17,1.85-9.24l-.13-.03,.13,.03c.17-.62,.21-1.24,.21-1.86,0-.54-.03-1.08-.03-1.61v-.29h-.13c-1.22-.01-2.44-.03-3.66-.03-.8,0-1.61,0-2.41,.03h-.12s-.01,.12-.01,.12h.13Z"/><path class="cls-4" d="M117.03,126.03l.02,.13,.22-.02,.3,.17h0s0,0,0,0c.12,.3,.14,.62,.14,.96v.57s0,.15,0,.15h.13s-.13,0-.13,0v.25s0,.66,0,.66c0,.37-.02,.73-.15,1.06l.12,.05-.09-.1-.32,.11-.4-.33h0c-.07-.52-.1-1.05-.1-1.58,0-.46,.02-.93,.07-1.4h-.13s.13,0,.13,0l.23-.54-.03-.13,.02,.13-.02-.13-.03-.13c-.39,.12-.4,.55-.43,.76h0c-.04,.48-.07,.95-.07,1.42,0,.54,.03,1.08,.11,1.61l.13-.02h-.13c.04,.39,.37,.59,.67,.58l.49-.17,.03-.02v-.03c.16-.38,.18-.77,.18-1.16v-.66s0-.24,0-.24h0s0,0,0,0v-.7c0-.35-.01-.71-.15-1.05l-.12,.05,.13-.04c-.09-.27-.35-.35-.55-.35l-.26,.03h0l.03,.13h0Z"/></g><rect class="cls-1" width="199" height="199"/></g></g></svg>