<?xml version="1.0" encoding="UTF-8"?><svg id="Lager_2" xmlns="http://www.w3.org/2000/svg" viewBox="0 0 199 199"><defs><style>.cls-1{fill:none;}.cls-2{fill:#ffd000;}.cls-3{fill:#0b5640;}.cls-4{fill:#0d5540;}</style></defs><g id="Lager_1-2"><g><g><path class="cls-4" d="M73.03,18.1c3.52-2,2.1,6.15,3.64,7.11,1.14,.71,3.73-1.06,5.96-2.12,5.85-2.77,8.32-5.95,12.61-10.8,3.55-4.02,5.92-10.87,7.86-11.3,.69-.15,16.08,9.61,25.34,17.12,3.14,2.55,7.36,6.68,7.86,6.77,2.02,.38,.9-6.75,2.86-7.1,1.42-.26,5.88,4.11,9.33,7.12,3.98,3.47,6.27,5.46,9.51,9.63,8.31,10.67,10.95,18.87,12.11,32.48,.12,1.46-.19,2.81,.71,3.68,1.13-.79,5.45-3.81,6.58-3.68,1.7,.21,3.79,10.85,4.27,18.08,.75,11.33-2.65,20.5-5.63,28.57,.62,.91,3.97-2.15,4.86-1.3,.27,.25-1.34,3.86-1.54,4.3-2.21,4.87-4.21,8.91-7.68,14.14-16.85,25.41-36.11,35.62-66.94,40.35-1.3,.2-2.61-.04-2.86,1.61-.32,2.19,9.81,8.14,10.91,10.95-.06,1.09-19.13,12.81-21.79,14.02-2.41,1.09-3.48-1.25-4.9-2.86-6.82-7.72-10.15-26.67-11.38-27.77-.4-.36-6.99-1.52-11.28-3.07-20.92-7.55-33.85-18.09-41.7-38.89-2.28-6.02-3.42-11.22-3.8-16.07-.23-2.84,3.5,.96,3.13-1.42-.5-3.21-2.8-6.3-3.35-11.44-1.45-13.69,.48-24.17,5.17-37.06,.31-.85,.86-2.8,1.43-3.56,1.57-2.1,5.37,6.8,6.91,4.4,.99-1.54,6.35-12.65,12.1-19.52,9.31-11.12,21.43-13.38,29.75-22.29l-.04-.08h0Z"/><path class="cls-2" d="M174.73,118.5c-.84-1.43-5.02,2.88-5.38,.89-.11-.64,1.88-4.34,2.23-5.14,4.47-10.13,7.36-17.64,6.98-29.42-.16-4.86-.78-10.79-1.76-12.36-1.78-2.87-8.01,6.03-9.11,2.18-.79-2.79-.6-11.56-1.8-16.53-3.24-13.51-8.53-21.12-18.73-30.39-1.02-.92-4.14-3.97-5.25-4.43-3.02-1.25-2.14,9.2-5.05,7.83-.75-.35-7.78-8.06-9.33-9.41-2.56-2.23-21.79-16.12-23.23-15.89-.8,.13-3.75,5.74-4.44,6.72-3.82,5.41-7.18,9.62-13.02,12.99-1.51,.87-9.64,4.65-11.16,4.19-3.31-.99-2.07-7.01-5.32-4.78-1.37,.94-2.73,2.2-4.07,3.22-7.48,5.7-16.46,8.74-22.66,16.09-4.15,4.92-7.22,11.75-9.66,17.69-.14,.35-1.48,3.89-1.65,4.01-1.49,1.08-5.13-5.93-6.12-5.29l-.25,.37c-4.84,10.04-7.37,20.36-5.34,33.38,1.19,7.66,6.61,18.53,6.57,18.77-.3,1.68-2.92-1.21-4.32-.11-2.59,2.04,1.97,10.6,3.05,13.21,6.69,16.22,17.07,25.14,32.67,32.53,5.76,2.73,11.08,4.45,17.38,5.51,.64,.11,1.55,.01,2.08,.48,1.35,1.18,6.35,26.6,11.75,29.08,1.5,.69,13.53-7.41,15.2-8.55,.5-.34,1.56-.63,1.63-1.35,.04-.39-2.26-2.09-2.62-2.42-2.64-2.36-9.39-10.35-8.27-13.94,.68-2.18,4.5-.6,6.21-.8,27.62-3.27,45.79-8.69,62.96-31.25,1.65-2.16,10.19-14.95,9.83-17.09h0Z"/><path class="cls-3" d="M98.75,183.38c-.63,.89-6.76,4.56-7.38,4.52-2.18-.13-6.76-11.57-7.98-19.81-.33-2.2,.69-3.7-.48-5.68-.59-1-9.1-1.95-14.64-4.05-14.2-5.4-23.37-9.66-32.06-22.12-3.98-5.71-9.43-14.84-7.72-16.09,1.8-1.32,5.27-.48,7.67-.73,.71-5.69-16.48-18.03-7.97-45.37,2.56-8.23,5.59,7.06,7.73,2.38,.56-1.24,.13-4.65,.64-7.57,2-11.4,6.69-17.54,14.99-25.61,5.24-5.09,13.98-9.96,15.43-10.61,2.17-.98,2.73,3.82,5.1,4.4,1.33,.32,11.31-3.49,17.51-7.62,7.65-5.1,16.19-17.02,16.3-17.04,1.1-.25,13.58,7.51,20.78,14.17,6.3,5.82,12.85,16.67,14.09,16.89,3.1,.55,1.45-9.93,3.88-10.3,1.82-.28,5.86,5.63,8.75,9.89,5.64,8.31,7.4,14.29,8.65,24.26,.9,7.19,.29,12.28-.62,18.57-.15,1.06-.44,4.49,1.57,3.47,2.94-1.48,3.6-8.07,8.4-8.29,5.6-.26,1.43,16.62-1.98,26.34-2.88,8.22-7.05,11.67-11.84,18.95-.92,1.39-2.83,2.66-2.37,3.56,.71,1.4,5.21-2.19,6.78-.58,.31,.32-.17,1.32-.31,1.58-1.69,3.32-6.17,8.43-11.04,12.93-15.64,14.44-29.95,17.18-51.15,19.03-3.74,.33-8.55-1.33-9.63,.39-4.08,6.48,8.79,18.6,8.92,20.17h0Z"/><path class="cls-2" d="M45.74,51.61c-.43,.9-1.18,4.44-.86,5.34l.61,.32c1.46-.84,5.78-3.87,6.94-2.1,1.05,1.61-2.55,17.52-1.01,19.14,1.07,.35,2.43-.45,3.45-.73,7.16-2.02,2.32-2.59,4.54-7.15,1.18-2.43,10.04-3.07,12.32-1.31,6.26,4.83-.81,7.88-5.28,8.81-2.28,.47-4.4-1.9-6.22-.3-.42,.37-2.67,2.37-2.62,2.87,.27,2.98,11.28,3.14,13.44,2.46,6.81-2.16,10.42-11.47,15.35-14.04,2.69-1.4,1.4,6.77,.98,7.85-1.35,3.46-9.04,4.95-8.85,10.92,.08,2.66,.75,5.24,3.33,6.49,8.47,4.11,8.24-13.26,10.87-15.15,.5-.36,2.69-2,3.22-1.6,.6,.46,2.31,9.02,10.31,4.72,5.43-2.92,7.44-10.57,9.18-11.89,2.71-2.08,2.96,6.61,6.43,8.24,3.23,1.51,5.83-1.26,6.76-1.05,.74,.17,.16,2.1,.55,2.68,.55,.8,1.9,.4,2.7,.41,4.75,.05,2.8-5.86,3.93-9.14,1.33-3.88,13.98-10.66,12.98-3.59-.22,1.59-4.98,3.61-6.43,3.93-3.66,.8-5.24-.51-4.62,3.9,.19,1.33,.34,2.64,.91,3.87,3.5,7.43,20.09,1.61,21.37-.11,.71-.95-1.46-4.3-2.55-4.46-1.24-.18-11.74,7.1-14.11,2.24-.87-1.78,4.86-3.18,5.83-3.87,2.09-1.47,3.82-1.85,4.63-4.73,1.15-4.09-2.26-7.65-5.98-8.66-2.58-.7-4.78,.36-7.09,1.39-.77,.34-3.35,2.58-4.02,1.93-2.46-2.37,6.03-15.1-3.42-14.08-4.77,.51,.83,24.75-7.96,24.82-5.97,.05,.25-7.48-.67-8.88-.94-1.44-5.46,2.88-6.21-.11-.4-1.57,1.09-3.69-2.56-3.64-2.39,.04-2.04,5.4-5.45,6.86-.28,.12-4.87-2.43-7.45-2.1-4.88,.63-6.93,6.43-10.38,7.68l-.62-1.01c.15-2.79,2.69-8.51-.87-10.08-4.05-1.79-10.91,5.65-11.94,5.4-.3-.07-2.43-2.85-3.46-3.52-.93-.6-3.48-1.14-3.66-1.32-.5-.51,1.57-2.51,1.88-3.01,1.49-2.44,3.07-5.27,1.56-8.09-.83-1.55-2.15-2.45-3.74-3.12-3.88-1.63-22.08,4.29-26.05,6.58h0Z"/><path class="cls-4" d="M60.98,50.73c1.71-.42,3.38-1.57,5.15-.71,4.29,2.09,2.54,7.31-1.22,8.88-5.89,2.46-5.27,.45-4.7-4.12,.17-1.36,.47-2.71,.77-4.05h0Z"/><path class="cls-2" d="M85.52,40.27c-2.45,2.37,.93,7.74,4.33,7.59,1.02-.04,1.69-.18,2.49-.81,1.92-1.49,1.33-4.32-.17-6.22-.68-.87-1.35-1.46-2.29-1.67-1.38-.3-3.1-.12-4.37,1.1h0Z"/><path class="cls-2" d="M99.9,47.11c-1.94,1.56-2.96,3.95-1.76,6.13,.53,.97,1.02,1.59,2.07,1.92,2.1,.67,2.03-3.62,4.23-3.76,.14,0,.22-.02,.37,0,1.11,.06,1.22,1.28,2.19,1.83,2.51,1.45,4.97,1.98,7.42,.44,2.32-1.46,4.58-4.21,2.91-6.39-1.82-2.37-4.36,4-7.11,2.84-1.21-.51-1.42-1.52-2.55-2.19-2.63-1.54-5.4-2.74-7.77-.83h0Z"/><path class="cls-2" d="M82.46,105.39l.42,.2c.08,6,1.16,13.21,9.31,11.68,6.26-1.18,7.25-6.42,10.27-8.96,.87-.73,7.55-.81,8.38-.31,.98,.58,2.08,2.5,3.17,3.37,7.61,6.11,13.36-.24,19.2-4.47,2.92-2.11,.38,3.73,.99,4.41,.43,.48,2.24,.25,2.89,.33,.84,.1,1.77,.7,2.6,.24,1.21-3.36,2.06-9.5,4.65-11.91,1.74-1.62,4.47-2.37,4.91,.87,.42,3.13-2.18,8.27,.41,10.69,2.68,2.51,10.61-1.96,13.06-3.71,.69-.5,1.23-.82,1.7-1.57,.27-.43-.63-4.88-1.47-4.86-1.66,.02-6.24,6.41-8.03,4.88-.63-.53-.11-2.72-.02-3.46,.7-5.74-2.71-12.11-9.23-8.7-.79,.42-1.55,1.27-2.49,1.31l-.5-.3c-.3-2.15-2.56-2.79-4.57-2.12-.88,.29-.83,1.57-1.05,2.29-1.36,4.53-13.86,14.87-18.63,12.07-3.63-2.13,11.79-4.86,7.64-13.18-1.46-2.93-4.76-3.35-7.68-2.85-6.88,1.18-5.8,8.57-7.64,10.98-.59,.77-1.72,.77-2.59,.79-.68,.01-2.56,.01-3.05-.46-.67-.65-1.93-14.72-11.99-7.85-5.4,3.68,.62,9.87,3.31,12.59,.71,.72-1.17,3.29-2.97,4.13-.7,.32-1.15,.4-1.92,.48-5.38,.54-1.99-13.12-2.46-13.65-.45-.49-2.02,.55-2.5,.75-2.5,1.04-7.01,3.23-9.67,2.34-3.45-1.15-3.85-4.15-9.04-3.52-7.44,.89-6.45,6.99-11.58,8.08-2.79,.59-5.46-1.77-6.21-4.31-.89-3,7.91-5.58,9.06-12,1.13-6.27-6.26-9.85-10.99-5.94-4.01,3.32-3.75,10.87-4.66,11.9-2.32,2.65-7.01-.08-7.61,4.13-.07,.52-.38,1.41-.23,1.91,.84,2.82,7.05-.49,8.3,0,.71,.28,2.73,5.17,4.26,6.55,6.24,5.6,9.56,2.13,12.43,2.88,1.12,.29,.79,3.1,7,3.77,7.59,.83,10.31-8.38,10.51-8.43l4.33-1.05h0Z"/><path class="cls-4" d="M51.07,87.94c1.16-.62,3.68-.72,3.45,1.25-.16,1.41-3.89,5.54-5.51,5.02-1.82-.59,1.46-5.45,2.06-6.27h0Z"/><path class="cls-2" d="M61.81,89.86c-.34,1.13,.54,5.51,1.51,5.96,.77,.36,3.05-1.39,3.8-1.8,3.42-1.88,4.92,5.57,8.78,3.05,1.53-.99,3.44-1.09,5.05-2.02,1.84-5.23-5.28-1.91-6.94-2.56-3.18-1.27-.16-8.17-12.21-2.63h0Z"/><path class="cls-4" d="M102.41,68.12c1.47-.73,6.79-1.31,6.24,1.48-.41,2.08-5.3,6.09-7.1,4.13-1.56-1.7-1.41-4.48,.87-5.61h0Z"/><path class="cls-4" d="M85.12,80.21c2.97-1.47,.08,6.19-2.09,5.25-1.42-.61,1.4-4.75,2.14-5.18l-.04-.08h0Z"/><path class="cls-4" d="M67.3,102.84c4.42-2.55,7.53,3.61,3.89,6.57-.45,.36-1.01,.84-1.59,1.01-3,.86-5.29-2.02-4.33-4.87,.39-1.15,1.15-1.85,2.02-2.7h0Z"/><path class="cls-2" d="M45.39,116.48c-16.62,16.41,1.13,29.15,8.74,23.83,2-1.4,3.39-3.96,4.87-5.85,.84-1.08,3.98-4.46,3.89-5.69-.07-1.01-3-3.3-3.94-3.62-3.8-1.28-7.23,12.23-11.87,9.48-8.25-4.88,4.93-11.33,4.55-15.09-.15-1.5-4.88-4.41-6.25-3.06h0Z"/><path class="cls-4" d="M96.79,99.04c2.59-1.4,4.13,2.36,2.24,3.54-2.05,1.28-3.58-1.72-2.24-3.54h0Z"/><path class="cls-4" d="M118.55,96.61c.81-.79,2.81-.83,2.69,.87-.08,1.06-3.28,3.7-4.41,3.25-1.98-.79,1.14-3.54,1.73-4.12h0Z"/><path class="cls-2" d="M68.11,131.34c-1.89,3.04-9.34,14.23-9.63,16.49,1.21,.69,3.35,2.73,4.72,2.66,2.25-.12,4-9.77,6.65-8.81,2.41,.88-2.81,15.21,8.67,13.18,3.99-.71,4.47-9.34,6.84-8.41,.21,1.58-.69,9.12,0,9.77,.65,.62,1.71,.28,2.5,.31,.78,.03,2.89,.35,3.48-.23,.59-.59,.24-18.79-.45-19.6l-.08-.07c-.94-.61-6.42-.29-7.42-.28-1.42,.01-3.7,7.11-4.69,7.6l-.82-.13c-1.23-1.32,.03-8.58-1.06-9.98-.69-.88-3.66-1.05-4.78-1.51-1.24-.5-2.53-1.69-3.94-.99h0Z"/><path class="cls-2" d="M116.43,118.29c-6.37,5.72,1.06,13.77,7.59,8.45,6.96-5.67-.85-14.5-7.59-8.45h0Z"/><path class="cls-4" d="M118.83,120.01c2.96-1.94,5.32,2.01,3.43,4.06-2.48,2.7-7.13-1.65-3.43-4.06h0Z"/><path class="cls-2" d="M97.34,136.13c-.15,1.14,1.67,20.59,2.09,21.12,1.77,.52,17.59-.19,18.53-1.04l.11-.16c-.33-1.62-.58-3.26-.86-4.89-1.03-1.05-9.56,1.11-11.69,.48l-.74-.83c-1.13-5.74,8.66-1.39,10.69-3.47,.3-.81,0-3.02-.12-3.85-.75-.55-10.24,.95-10.62,.49-4.97-5.9,8.91-3.37,10.06-4.94,.37-.51,.09-3.08-.05-3.75l-.84-.64c-5.44,.5-11.21,.34-16.56,1.48h0Z"/><path class="cls-2" d="M124.31,153.38c1.65,1.05,3.44,.2,5.14-.35,6.33-2.03-2.8-6.11,3.59-10.13,12.73-8,9.37,4.97,18.76-3.81-.64-1.52-9.68-5.48-10.9-6.11-11.81-6.05-7.74-5.71-19.01-.19-2.37,1.16,2.71,17.14,2.42,20.59h0Z"/><path class="cls-4" d="M128.78,134.82c2.16-1.78,6.31,.36,5.67,2.14-.28,.8-4.39,3.59-5.15,3.29-1.77-.69-2.02-4.2-.52-5.44h0Z"/></g><rect class="cls-1" width="199" height="199"/></g></g></svg>