<?xml version="1.0" encoding="UTF-8"?><svg id="Lager_2" xmlns="http://www.w3.org/2000/svg" viewBox="0 0 300 300"><defs><style>.cls-1{fill:none;}.cls-1,.cls-2,.cls-3,.cls-4,.cls-5,.cls-6{stroke-width:0px;}.cls-2{fill:#d01f2d;}.cls-3{fill:#000;}.cls-4{fill:#181716;}.cls-5{fill:#fff;}.cls-6{fill:#2c5235;}</style></defs><g id="Lager_1-2"><path class="cls-4" d="M190,278.52c0,2.8-2.28,5.07-5.1,5.07s-5.1-2.27-5.1-5.07,2.28-5.07,5.1-5.07,5.1,2.27,5.1,5.07Z"/><path class="cls-3" d="M229.52,87.42c4.91-11.66,6.19-23.74,4.43-36.21-.64,2.17-1.55,3.91-2.7,5.28-.32-2.45-1.04-4.79-2.15-6.98-3.04,4.83-6.55,8.25-10.4,10.68,4.4-14.08,5.13-27.04,1-38.46-.4,2.36-1.21,4.74-2.42,7.13-.79-3.25-2.3-6.13-4.13-8.85-2.17,5.79-5.04,9.38-8.28,11.98,2.02-11.06,1.89-20.61-1.43-27.93-.47,2.08-.96,4.17-1.43,6.28-1-3.55-2.66-6.83-4.98-9.85-2.7,16.89-23.04,27.53-39.33,31.93-15.17,4.11-33.63,8-44.46,16.83,1.77-5.42,2.96-10.57,6.34-15.7-36.19,20-54.5,50.14-63.71,85.09-8.17,31-7.55,60.65.66,88.63.36-1.51.81-3.06,1.7-4.83.47,2,1.47,3.81,2.72,5.55.21-4.15.85-8.08,2.13-11.68,2.06,29.61,13.1,52.72,32.78,69.54.04-2.91.28-5.77,1.15-8.4,1,1.83,2.3,3.4,3.83,4.7-.02-5.94.72-11.55,2.57-16.68,5.21,18.61,14.19,31.44,25.8,40.19.09-3.11.36-6.13,1-8.98,1.17,2.06,2.7,3.74,4.4,5.28-.47-7.34-.21-14.42,1.72-20.95,10.17,18.17,23.08,30.55,38.59,37.48-.57-2.7-1.13-5.4-1.7-8.13,1.42,1.04,2.85,2.09,4.28,3.15-.19-15.59-.38-31.17-.58-46.76,1.53,6.83,1.87,14.04,1,21.66,1.49-1.47,2.89-2.94,3.85-4.4.36,2.49.45,4.89.28,7.13,18.44-20.15,30.12-45.87,33.36-78.54,2.28,6,4.55,11.98,6.83,17.96,18.95-23.93,27.44-50.76,22.1-81.35,11.23-14.61,5.3-34.34-14.83-41.76ZM223.6,197.85c-3.04-7.49-7-13.38-11.55-18.19.49,16.79-3.26,31.17-8.79,45.63-4.98,13.1-13.25,26.68-22.23,35.72.53-9.91-1.19-19.19-4.83-27.95-6.08,16.38-8,36-5.72,58.84-18.91-10.13-31.1-25.25-35.19-46.4-5.3,9.36-8.3,20.04-9.02,32.04-11.89-11.76-19.74-26.78-21.74-46.53-5.3,7.55-9.06,15.85-10.55,25.29-19.1-18.59-30.04-42.85-27.85-76.27-3.55,5.13-6.34,10.76-8.76,16.66-6.57-35.48-2.34-67.86,9.79-98.75,9.17-23.34,25.12-41.8,41.95-52.25-2.23,4.42-3.36,9.06-3.68,13.87,12.7-13.87,29.91-18.21,47.5-22.38,17.1-4.04,37.08-12.4,44.5-28.21,3.87,10.7,2.32,23.23-2.94,36.97,7.32-3.98,13.53-9.49,18.19-17.27,4.19,14.27,1.62,27.66-5.59,40.42,7.94-1.96,15.17-5.32,20.85-11.83,1.38,11.04-1.17,21.89-7,32.55,17.53,2.11,29.76,18.61,17.91,37.87,5.91,21.55.89,48.27-15.25,70.16Z"/><polygon class="cls-5" points="144.36 136.62 144.17 135.45 143.91 134.35 143.57 133.24 143.14 132.16 142.63 131.11 142.04 130.09 141.38 129.14 140.66 128.24 139.85 127.43 138.97 126.71 138.08 126.07 137.1 125.54 136.08 125.14 135.02 124.84 133.89 124.67 133.42 124.65 132.7 124.63 131.46 124.75 130.15 125.03 128.83 125.46 127.64 126.01 126.61 126.63 125.72 127.35 124.93 128.14 124.27 129.01 123.7 129.94 123.25 130.92 122.89 132.01 122.62 133.09 122.44 134.22 122.38 135.39 122.38 136.56 122.49 137.71 122.66 138.88 122.93 140.01 123.27 141.11 123.7 142.22 124.21 143.28 124.79 144.3 125.44 145.26 126.17 146.15 126.98 146.98 127.83 147.71 128.72 148.35 129.7 148.88 130.7 149.28 131.78 149.58 132.91 149.75 133.42 149.77 134.1 149.79 135.38 149.66 136.72 149.39 138.02 148.94 139.19 148.41 140.21 147.77 141.1 147.05 141.89 146.26 142.55 145.39 143.12 144.43 143.57 143.45 143.93 142.37 144.21 141.26 144.38 140.13 144.46 138.96 144.44 137.79 144.36 136.62"/><path class="cls-5" d="M220.94,89.82c5.83-10.66,8.38-21.51,7-32.55-5.68,6.51-12.91,9.87-20.85,11.83,7.21-12.76,9.79-26.15,5.59-40.42-4.66,7.79-10.87,13.3-18.19,17.27,5.25-13.74,6.81-26.27,2.94-36.97-7.42,15.81-27.4,24.17-44.5,28.21-17.59,4.17-34.8,8.51-47.5,22.38.32-4.81,1.45-9.45,3.68-13.87-16.83,10.45-32.78,28.91-41.95,52.25-12.13,30.89-16.36,63.27-9.79,98.75,2.43-5.89,5.21-11.53,8.76-16.66-2.19,33.42,8.74,57.67,27.85,76.27,1.49-9.45,5.25-17.74,10.55-25.29,2,19.74,9.85,34.76,21.74,46.53.72-12,3.72-22.68,9.02-32.04,4.08,21.15,16.27,36.27,35.19,46.4-2.28-22.85-.36-42.46,5.72-58.84,3.64,8.76,5.36,18.04,4.83,27.95,8.98-9.04,17.25-22.61,22.23-35.72,5.53-14.47,9.28-28.85,8.79-45.63,4.55,4.81,8.51,10.7,11.55,18.19,16.15-21.89,21.17-48.61,15.25-70.16,11.85-19.25-.38-35.76-17.91-37.87ZM221.79,96.57l.89.3.87.34.83.38.83.43.77.47.74.51.72.55.68.57.66.6.62.66.6.66.55.7.51.72.49.74.87,1.57.74,1.66.6,1.72.25.87.43,1.98.25,1.94.09.96.02.94v.94l-.06.94-.11.91-.13.89-.19.87-.23.87-.28.85-.32.83-.36.83-.4.79-.47.77-.49.74-.55.72-.6.7-.64.66-.66.64-.72.62-.77.57-.81.55-.85.51-.87.49-.94.45-.96.43-1.02.38-1.04.34-1.06.32-3.17.83-1.08.23-1.06.17-.7.09-.34.04-1.04.06-1,.04-1-.02-.96-.09-.96-.11-.94-.17-.89-.21-.89-.26-.85-.3-.83-.36-.81-.38-.79-.45-.74-.47-.72-.53-.7-.55-.66-.6-.64-.64-.6-.68-.57-.7-.55-.74-.49-.77-.49-.81-.45-.83-.79-1.77-.68-1.87-.51-1.83-.36-1.79-.21-1.79-.04-.91v-.89l.04-.89.09-.89.13-.87.17-.87.19-.87.25-.85.32-.85.34-.83.38-.81.45-.79.47-.79.53-.74.6-.74.62-.7.68-.68.7-.64.77-.64.83-.57.85-.55.91-.53.94-.49c1.08-.49,2.17-.94,3.3-1.28,1.38-.4,2.79-.79,4.19-1.13l1.13-.21,1.11-.17.53-.06.55-.06,1.06-.06h1.04l1.02.06,1,.09.98.15.96.21.91.23ZM102.51,54.02c-.66,4.38-.64,8.93.09,13.7,2.62-4.31,6.03-7.94,9.98-11.05h0c.06-.06.13-.11.2-.16.42-.33.85-.66,1.28-.98,1.48-1.13,3-2.21,4.58-3.23l.16.11c8.61-5.07,18.83-8.35,28.9-10.7,4.61-1.08,9.59-2.45,14.56-4.07l.03-.12c1.2-.36,2.4-.75,3.6-1.15l.04-.19.09.15c.75-.25,1.51-.53,2.26-.79,11.39-4.25,21.99-9.83,27.3-16.44,1.06,13.51-2.81,24.25-8.4,34.04,9.55-3.45,17.93-9.21,24.93-17.74-.11,15.91-6.23,28.95-15.72,40.4,11.68-1.66,21.78-5.47,29.57-12.38-2.13,11.13-7.21,20.83-15,29.23l-81.65,21.99h0s-3.84,1.04-3.84,1.04l-.16.43-.08-.37-4.05,1.09h0s-60.2,16.21-60.2,16.21c6.57-33.08,19.51-59.88,41.53-79.01ZM153.08,116.12l-.85-3.11.85-.23,13.62-3.66,1.28-.28,1.25-.23,1.21-.17,1.19-.13,1.06-.09h.09l1.11-.02,1.09.02,1.06.06,1.02.11,1,.17.96.21.94.28.89.3.85.36.83.4.81.45.77.49.72.53.68.57.66.6.6.66.6.68.53.72.51.74.47.77.43.81.4.85.7,1.74.57,1.83.28,1.17.21,1.15.15,1.15.09,1.11.02,1.08-.04,1.04-.13,1.04-.19,1.02-.23.98-.32.96-.36.94-.43.89-.49.87-.53.83-.6.81-.64.77-.68.74-.75.7-.77.68-.83.66-.85.62-.89.6-.94.55-1.98,1.04-2.11.96-2.23.85-2.34.74-.7.19-10.85,2.94-8.77-32.53ZM153.91,137.67l-.02.94-.04.94-.11.91-.13.89-.19.87-.23.87-.11.36-.17.49-.32.85-.36.81-.4.79-.47.77-.49.74-.55.72-.6.7-.64.66-.66.62-.7.62-.77.57-.81.55-.85.51-.87.49-.94.45-.96.43-1.02.38-1.04.34-1.09.32-3.08.81-1.08.23-1.06.17-.72.09-.32.04-1.04.08-1,.02-1-.02-.96-.06-.96-.13-.94-.17-.89-.21-.89-.25-.85-.3-.83-.34-.81-.4-.79-.43-.77-.49-.72-.51-.68-.57-.68-.6-.64-.62-.6-.68-.57-.68-.55-.74-.51-.77-.47-.81-.47-.83-.79-1.74-.7-1.87-.51-1.85-.19-.87-.17-.91-.21-1.79-.04-.91v-.89l.04-.89.09-.89.13-.87.17-.87v-.09l.21-.79.26-.85.3-.85.34-.83.38-.81.45-.81.49-.77.53-.77.57-.72.64-.7.68-.68.72-.66.77-.62.81-.6.87-.55.89-.51.96-.49c1.08-.49,2.17-.96,3.3-1.3,1.38-.38,2.77-.77,4.15-1.11l1.13-.21,1.11-.17.57-.06.53-.06,1.06-.06h1.04l1.04.04,1,.11.98.15.94.19.94.25.89.3.87.34.85.38.81.43.77.47.76.51.7.53.68.57.66.62.6.64.6.68.55.7.51.72.49.74.45.79.79,1.62.66,1.68.49,1.6.04.17.43,1.96.26,1.94.08.96.02.94ZM58.75,187.02c-.47-1.81-.77-4.04-.66-5.85l4.98-1.42c-1.77,2.15-3.13,4.7-4.32,7.28ZM60.84,137.67l9.81-2.64,18.34,21.06,5.25-27.44,9.87-2.66,9.19,34.04.45,1.6-.45.11-8.53,2.3-5.25-19.44-3.91,21.93-7.64,2.06-14.98-17.21,5.34,19.81-7.87,2.13-9.62-35.63ZM238.09,149.03c-.74,15.89-6.08,28.61-13.83,39.63-3.23-7.15-8.3-12.25-15.25-15.32.04,30.21-8.83,57.08-25.06,81.16.55-10.85-2.23-20.4-7.79-28.89-8.85,17.76-12.23,37.63-9.55,59.8-14.3-10.15-24.7-24.59-30.19-44.59-7.34,8.98-12.28,18.57-12.85,29.25-9.19-12-15.36-26.61-17.1-45.06-6.79,6.21-11.76,13.64-14.15,22.89-16.57-17.78-25.42-40.4-23-70.05l167.95-45.44c.43,3.04.68,5.98.81,8.81v7.81Z"/><polygon class="cls-5" points="219.88 104.86 218.96 104.25 218.01 103.71 216.98 103.31 215.9 103.01 214.77 102.84 214.26 102.82 213.6 102.8 212.35 102.91 211.03 103.18 209.71 103.63 208.52 104.16 207.5 104.8 206.58 105.52 205.8 106.33 205.14 107.18 204.56 108.14 204.09 109.12 203.73 110.18 203.45 111.29 203.28 112.41 203.2 113.58 203.2 114.73 203.31 115.9 203.5 117.05 203.75 118.18 204.09 119.31 204.52 120.39 205.03 121.46 205.62 122.48 206.28 123.43 207.01 124.33 207.82 125.16 208.67 125.88 209.58 126.52 210.56 127.05 211.58 127.46 212.65 127.75 213.79 127.92 214.26 127.94 214.99 127.94 216.26 127.84 217.6 127.56 218.9 127.11 220.05 126.58 221.07 125.94 221.96 125.24 222.73 124.43 223.41 123.56 223.96 122.6 224.43 121.63 224.81 120.54 225.07 119.44 225.26 118.29 225.35 117.14 225.32 115.95 225.24 114.78 225.05 113.63 224.79 112.5 224.45 111.41 224.03 110.33 223.52 109.27 222.92 108.27 222.26 107.31 221.54 106.42 220.73 105.61 219.88 104.86"/><path class="cls-5" d="M170.69,139.6l1.76-.62.23-.11,1.41-.57,1.51-.74,1.34-.77,1.21-.85,1.04-.89.89-.94.74-1,.6-1.06.25-.55.19-.55.17-.6.15-.62.09-.64.06-.66.02-.68-.02-.7-.06-.74-.13-.79-.15-.79-.45-1.66-.55-1.49-.64-1.3-.72-1.11-.79-.94-.85-.79-.94-.66-1-.53-1.06-.4-1.15-.3-1.17-.17-.04-.02-1.3-.06-1.34.02-1.43.13-1.45.23-1.51.32-2.62.7,6.3,23.29c.45-.13.91-.28,1.38-.4Z"/><path class="cls-2" d="M148.23,47.57l-6.53-3.77,9.98-1,9.4-.94,1.18-4.24c-4.97,1.63-9.95,2.99-14.56,4.07-10.07,2.36-20.29,5.63-28.9,10.7l12.58,8.38,16.85-13.21Z"/><polygon class="cls-2" points="150.04 68.55 151.68 62.44 154.63 51.34 157.67 55.34 158.4 53.76 151.68 49.34 151.38 49.15 144.95 68.91 150.04 68.55"/><path class="cls-2" d="M172.16,38.53l.91,2.13,19.17-1.45-13.47,12.85,6.06,13.34-12.68,12.68-2.36,2.36,2.36,6.64,3.34,9.36-3.34-1.94-12.3-7.15-1.21.6,8.36,7.64-15.34,1.08-15.93,1.11-6.42,16.84,81.65-21.99c7.79-8.4,12.87-18.1,15-29.23-7.79,6.91-17.89,10.72-29.57,12.38,9.49-11.45,15.61-24.49,15.72-40.4-7,8.53-15.38,14.3-24.93,17.74,5.6-9.79,9.47-20.53,8.4-34.04-4.96,6.18-14.55,11.46-25.08,15.59.01.03.02.05.02.05l1.64,3.81Z"/><polygon class="cls-2" points="172.16 66.34 181.33 65.4 172.16 61 169.2 59.57 163.01 66.36 163.38 67.21 172.16 66.34"/><path class="cls-2" d="M117.06,99.59l-37.46,2.91,34.08-28.85-1.11-16.99c-3.94,3.11-7.36,6.74-9.98,11.05-.72-4.77-.74-9.32-.09-13.7-22.02,19.12-34.95,45.93-41.53,79.01l60.2-16.22-4.13-17.23Z"/><path class="cls-2" d="M58.75,187.02c1.19-2.57,2.55-5.13,4.32-7.28l-4.98,1.42c-.11,1.81.19,4.04.66,5.85Z"/><path class="cls-2" d="M122.1,195.66s.04-.02.09-.02c.43-.17.83-.44,1.2-.76.22-1.12.31-2.24.29-3.17-.06-3.12-.34-8.82-3.15-8.72-1.05,1.13-1.7,2.76-2.25,5.09-.89,3.85.83,8.66,3.83,7.59Z"/><path class="cls-2" d="M69.32,177.85c-2.43,29.66,6.42,52.27,23,70.05,2.38-9.25,7.36-16.68,14.15-22.89,1.74,18.44,7.91,33.06,17.1,45.06.57-10.68,5.51-20.27,12.85-29.25,5.49,20,15.89,34.44,30.19,44.59-2.68-22.17.7-42.04,9.55-59.8,5.55,8.49,8.34,18.04,7.79,28.89,16.23-24.08,25.1-50.95,25.06-81.16,6.96,3.06,12.02,8.17,15.25,15.32,7.74-11.02,13.08-23.74,13.83-39.63v-7.81c-.13-2.83-.38-5.77-.81-8.81l-167.95,45.44ZM182.73,149.05c5.34-1.3,9.81-2.66,14.87-4.96.57,3.37-.32,5.57-2.06,7.16-.55,1.01-1.34,1.87-2.36,2.59.56-.24,1.11-.49,1.63-.75.04,2.51-.23,5.74-2.11,7.11-.15.11-.32.22-.51.33-.37.72-.89,1.35-1.62,1.88-.28.2-.56.38-.86.55,3.27-1.34,6.41-2.86,9.3-4.69.62,3.06.35,4.91-.66,6.36-.33,2.14-1.53,3.59-3.53,4.98-3.25,2.28-8.68,2.72-12.85,4.62-.34.15-.68.32-1,.49-.57-5.19-1.49-9.64-1.89-14.47-.19-2.51.03-5.04,1.2-7.19.4-1.38,1.05-2.7,1.88-3.88.19-.04.38-.09.55-.13ZM162.99,153.66l.89,6.25c1.74-2.51,2.7-2.57,4.45-5.08,2.59-3.74,8.02-6.02,11.38-4.17-.7.9-1.47,1.76-2.27,2.62.2.03.41.06.61.1-2.56,3.27-5.42,6.53-7.85,9.8,2.14,1.84,4.38,3.89,6.53,6.88,1.79,2.51,3.4,4.74,6,6.72.85.64,1.81,1.26,2.92,1.85-.87.38-1.85.58-2.92.64-.43.02-.87,0-1.31-.02.19.14.37.29.57.43.85.62,1.81,1.21,2.91,1.81-.87.32-1.87.49-2.91.53-4.77.19-10.83-2.11-13.51-4.94-.87-.91-1.73-1.86-2.59-2.79.09,3.24-1.26,9.22-5.79,11.73,0-.8-.06-1.66-.15-2.57-.91,1.19-1.96,2.18-3,2.72-.06-6.36-.6-12.93-1.28-19.57-.13-1.26.07-2.69.57-4.08-.12-3.28,2.04-7.39,6.75-8.86ZM104.47,223.99l-.1-.38c-.41.75-.85,1.49-1.33,2.21l-3.91-15.81-3.43,3.87,1.13,6.25c.76,4.22-.26,7.68-2.43,10.63-.72,2.04-1.94,3.87-3.65,5.47l-6.15-28.31c-.13-.55-.19-1.11-.23-1.64v-1.24c.03-.49.11-.97.21-1.45-.94-4.17-.2-9.55,5.72-12.12l2.91,12.13,4.15-3.86-.11-.65c-.38-2.21-.03-4.4.99-6.56.35-3.07,1.88-6.23,5.48-8.6l4.49,22.93c1.19,6.08.7,12.85-3.74,17.12ZM124.61,205.53c-1.26,1.34-2.72,2.39-4.42,2.96-.21.06-.4.13-.6.17-5.23,1.3-10.4-3.51-10.53-13.32-.02-1.94.24-3.99.75-6.01.39-10.52,5.19-14.41,11.12-16.29.43-.13.85-.23,1.26-.28,5.32-.74,9.68,4.79,10.62,12.13,1.03,8.04-1.72,17.05-8.19,20.63ZM134.1,182.62c.03-1.47.17-2.9.41-4.26.09-8.75,4.75-15.69,11.37-16.88.79-.15,1.62-.15,2.45-.02,2.62.4,5.15,2.21,5.49,5.57-.74-.04-1.42,0-2.08.05.26.35.5.73.72,1.14-1.38-.06-2.72.13-3.98.55-1.27.43-2.44,1.07-3.48,1.87-1.04,1.52-1.58,3.42-1.6,5.57-.02,4.06,2.36,6.49,4.93,5.49,1.4-.57,2.89-2.17,4.02-5.15,3.29,3.43,1.05,9.69-3.01,13.11-.27.37-.55.74-.86,1.08-.77.85-1.66,1.6-2.7,2.21-5.55,3.28-11.83-2.79-11.68-10.34ZM226.2,141.84c-.25,6.53-3.21,13.47-7.3,18.74-2.11,2.71-4.51,5.25-7.06,7.7-9.26,10.85-21.51,19.39-29.84,30.97h-.02c-8.25,11.45-15.72,23.87-19.23,37.55-3.21,12.55-3.7,26.06-.28,38.89-5.6-3.77-10.66-10.83-13.98-18.87-.77-1.87-1.44-3.8-2.01-5.75-2.84-7.53-4.41-15.54-3.5-22.16.68-5,2.6-9.74,5.36-14.15,6.13-9.76,16.34-17.93,26.02-24.06,2.62-1.66,5.47-3.47,8.38-5.38,9.73-6.36,20.12-13.72,24.43-19.43.18-.31.34-.62.48-.91-4.04-2.19-7.68-7.55-8.19-12.51-.12-1.13.14-2.36.67-3.49-.14-3.31,3.18-8.63,7.92-6.87-.63,7.1-1.15,12.46,3.69,16.81,3.72-4.39,3.81-7.53,4.27-12.1.05-.51.22-1.01.48-1.51.02-1,.05-1.97.14-2.89.32-3.17,7.02-5.19,9.23-5.47.19,1,.3,2.02.34,3.04v1.85Z"/><polygon class="cls-5" points="151.25 85.29 151.38 80.19 145.63 76.85 140.36 73.76 139.87 75.46 145.63 80.42 151.25 85.29"/><path class="cls-5" d="M79.6,102.5l37.46-2.91,4.13,17.23h0s4.05-1.09,4.05-1.09l-4.18-20.14-30.32,2.19,27.42-21.95-2.42-21.34,14.66,12.36,15.23-12.34,2.13-1.72-2.13,6.15-4.68,13.51,4.68-.6,8.04-1,2.06-13.7,5.94,13.34,2.79-.36,13.96-1.81-12.25,11.27,4.25,10.79-5.96-3.28-5.7-3.15-4.59,3.64,5.94,5.47-14.47.98-12.32.83-7.84,20.8,3.84-1.03h0s6.42-16.85,6.42-16.85l15.93-1.11,15.34-1.08-8.36-7.64,1.21-.6,12.3,7.15,3.34,1.94-3.34-9.36-2.36-6.64,2.36-2.36,12.68-12.68-6.06-13.34,13.47-12.85-19.17,1.45-.91-2.13-1.66-3.86c-.75.28-1.48.58-2.22.85-.75.27-1.51.54-2.26.79l4.86,7.74,12.51-.85-8.98,7.76,6.17,11.64-11.51-6.68-4.62,3.7-3.28,2.62,1.21-10.19-11.87-6.68,13.57-.72.36-1.7,1.43-6.59c-1.2.4-2.4.79-3.6,1.15l-.03.12-1.18,4.24-9.4.94-9.98,1,6.53,3.77-16.85,13.21-12.58-8.38-.16-.11c-1.58,1.02-3.1,2.11-4.58,3.23-.43.33-.86.64-1.28.98-.07.05-.13.1-.2.15h0s1.11,17,1.11,17l-34.08,28.85ZM169.2,59.57l2.96,1.43,9.17,4.4-9.17.94-8.79.87-.36-.85,6.19-6.79ZM151.38,49.15l.3.19,6.72,4.42-.72,1.57-3.04-4-2.96,11.1-1.64,6.11-5.08.36,6.42-19.76Z"/><path class="cls-6" d="M133.32,94.86l12.32-.83,14.47-.98-5.94-5.47,4.59-3.64,5.7,3.15,5.96,3.28-4.25-10.79,12.25-11.27-13.96,1.81-2.79.36-5.94-13.34-2.06,13.7-8.04,1-4.68.6,4.68-13.51,2.13-6.15-2.13,1.72-15.23,12.34-14.66-12.36,2.42,21.34-27.42,21.95,30.32-2.19,4.18,20.14.08.37.16-.43,7.84-20.8ZM140.36,73.76l5.28,3.08,5.74,3.34-.13,5.11-5.62-4.87-5.77-4.96.49-1.7Z"/><polygon class="cls-6" points="164.46 42.96 164.1 44.66 150.53 45.38 162.4 52.06 161.18 62.25 164.46 59.63 169.08 55.93 180.59 62.61 174.42 50.98 183.39 43.21 170.89 44.06 166.02 36.32 165.93 36.17 165.89 36.36 164.46 42.96"/><path class="cls-5" d="M144.8,233.44c.55-4.15,1.85-8.11,3.68-11.87,5.32-10.91,15.21-20.17,25.1-27.63,2.53-1.89,5.4-4,8.4-6.17,10.22-7.48,21.77-16.01,25.18-21.88-4.32,5.71-14.71,13.07-24.43,19.43-2.91,1.91-5.77,3.72-8.38,5.38-9.68,6.13-19.89,14.3-26.02,24.06-2.77,4.4-4.68,9.15-5.36,14.15-.9,6.62.66,14.63,3.5,22.16-1.72-5.94-2.43-12.09-1.67-17.63Z"/><path class="cls-5" d="M216.62,142.41c-.09.92-.12,1.89-.14,2.89,1.33-2.6,5.09-4.87,6.95-5.11,1.53,7.74-2.98,16.36-7.62,22.98-1.24,1.77-2.58,3.46-3.98,5.11,2.55-2.45,4.96-4.99,7.06-7.7,4.08-5.28,7.04-12.21,7.3-18.74v-1.85c-.04-1.02-.15-2.04-.34-3.04-2.21.28-8.91,2.3-9.23,5.47Z"/><path class="cls-5" d="M145.02,164.71c1.26-.34,2.42-.34,3.47-.04,1.27.38,2.37,1.21,3.26,2.41.66-.06,1.34-.09,2.08-.05-.34-3.36-2.87-5.17-5.49-5.57-.83-.13-1.66-.13-2.45.02-6.63,1.19-11.29,8.13-11.37,16.88,1.18-6.81,4.89-12.09,10.5-13.65Z"/><path class="cls-5" d="M89.34,196.66l2.94,13.42,5.87-5.72-.78-4.61-4.15,3.86-2.91-12.13c-5.92,2.58-6.66,7.95-5.72,12.12.56-2.59,2.16-4.98,4.77-6.95Z"/><path class="cls-5" d="M103.72,183.94c-3.6,2.38-5.14,5.53-5.48,8.6.78-1.67,1.95-3.33,3.55-4.97l4.77,22.02c1.1,5.15.1,9.8-2.18,14.02l.1.38c4.45-4.28,4.94-11.04,3.74-17.12l-4.49-22.93Z"/><path class="cls-5" d="M94.87,222.74c.54,2.98.37,5.65-.48,8.03,2.17-2.95,3.2-6.41,2.43-10.63l-1.13-6.25-2.02,2.27,1.19,6.57Z"/><path class="cls-5" d="M162.46,170.79c.11,1.85.19,3.68.28,5.53.11,2.07-1.11,4.94-2.79,7.13.09.91.15,1.77.15,2.57,4.53-2.51,5.88-8.49,5.79-11.73-1.14-1.24-2.29-2.45-3.43-3.51Z"/><path class="cls-5" d="M185.39,157.3l.09,2.45c2.91-1.06,4.91-1.87,7.47-3.15.03,1.51-.17,2.82-.74,3.93.19-.11.36-.22.51-.33,1.87-1.36,2.15-4.6,2.11-7.11-.52.26-1.07.51-1.63.75-.25.18-.51.36-.79.52-2.11,1.21-4.77,2.23-7,2.94Z"/><path class="cls-5" d="M161.27,157.15c.21,2.83.43,5.64.64,8.47,1.74-2.51,3.49-5.04,5.23-7.55,2.49-3.56,6.26-5.35,10.3-4.78.8-.86,1.57-1.73,2.27-2.62-3.36-1.85-8.79.43-11.38,4.17-1.74,2.51-2.7,2.57-4.45,5.08l-.89-6.25c-4.7,1.47-6.87,5.58-6.75,8.86.83-2.27,2.52-4.4,5.02-5.37Z"/><path class="cls-5" d="M180.78,152.26c.4-.09.81-.19,1.21-.3,5.08-1.3,9.66-3.06,14.53-5.28.04,1.76-.28,3.28-.98,4.56,1.74-1.59,2.63-3.79,2.06-7.16-5.06,2.3-9.53,3.66-14.87,4.96-.17.04-.36.09-.55.13-.83,1.18-1.48,2.49-1.88,3.88.15-.27.3-.53.48-.79Z"/><path class="cls-5" d="M140.31,180.24c.53,4.96,4.83,6.85,8.17,3.3.89-.94,1.7-2.26,2.38-4,1.29,3.22.65,7.1-1.52,10.13,4.06-3.42,6.3-9.68,3.01-13.11-1.13,2.98-2.62,4.57-4.02,5.15-2.57,1-4.96-1.42-4.93-5.49.02-2.15.56-4.05,1.6-5.57-3.12,2.4-5.04,6.18-4.69,9.59Z"/><path class="cls-5" d="M205.45,144.96c-.66,7.38.6,12.02,4.83,15.55.54-.55,1.02-1.08,1.45-1.6-4.84-4.35-4.32-9.71-3.69-16.81-4.74-1.76-8.06,3.57-7.92,6.87,1-2.13,2.98-3.92,5.33-4.02Z"/><path class="cls-5" d="M186.37,167.24c4.23-1.6,8.3-3.4,11.96-5.74.18,1.21.18,2.22.04,3.12,1.01-1.45,1.28-3.29.66-6.36-2.9,1.83-6.03,3.36-9.3,4.69-1.03.59-2.19,1-3.63,1.41.11.96.19,1.92.28,2.87Z"/><path class="cls-5" d="M119.59,200.68c.13-.02.26-.04.38-.11,1.84-.65,2.93-3.19,3.41-5.7-.37.33-.77.59-1.2.76-.04,0-.06.02-.09.02-3,1.06-4.72-3.74-3.83-7.59.56-2.32,1.21-3.95,2.25-5.09-.14,0-.28,0-.43.04-.17.04-.34.11-.51.17-2.91,1.11-4.15,5.51-4.11,9.28.06,3.79,1.36,8.72,4.11,8.21Z"/><path class="cls-5" d="M122.19,172.77c-.4.04-.83.15-1.26.28-5.93,1.87-10.73,5.76-11.12,16.29,1.42-5.59,4.8-10.97,9.78-13.27.13-.06.26-.11.38-.17,5.7-2.4,10.49,4.28,10.49,12.23-.02,5.73-1.85,13.13-5.85,17.4,6.48-3.58,9.23-12.59,8.19-20.63-.94-7.34-5.3-12.87-10.62-12.13Z"/><path class="cls-5" d="M175.97,173.32c1.65,2.3,3.17,4.2,5.45,5.93.45.03.89.04,1.31.02,1.06-.06,2.04-.25,2.92-.64-1.11-.6-2.06-1.21-2.92-1.85-2.59-1.98-4.21-4.21-6-6.72-2.15-2.99-4.39-5.04-6.53-6.88-.6.81-1.19,1.62-1.72,2.43,2.43,2.09,5.02,4.28,7.49,7.7Z"/><path class="cls-6" d="M148.48,190.74c.31-.34.6-.71.86-1.08,2.17-3.03,2.81-6.91,1.52-10.13-.68,1.74-1.49,3.06-2.38,4-3.34,3.55-7.64,1.66-8.17-3.3-.35-3.41,1.57-7.2,4.69-9.59,1.04-.8,2.22-1.45,3.48-1.87,1.26-.43,2.59-.62,3.98-.55-.22-.41-.46-.79-.72-1.14-.89-1.2-1.99-2.03-3.26-2.41-1.04-.3-2.21-.3-3.47.04-5.62,1.56-9.32,6.84-10.5,13.65-.24,1.37-.38,2.79-.41,4.26-.15,7.55,6.13,13.61,11.68,10.34,1.04-.62,1.94-1.36,2.7-2.21Z"/><path class="cls-6" d="M155.67,166.6c.68,6.64,1.21,13.21,1.28,19.57,1.04-.54,2.08-1.53,3-2.72,1.68-2.19,2.9-5.06,2.79-7.13-.08-1.85-.17-3.68-.28-5.53,1.14,1.06,2.28,2.27,3.43,3.51.86.93,1.72,1.88,2.59,2.79,2.68,2.83,8.74,5.13,13.51,4.94,1.04-.04,2.04-.21,2.91-.53-1.11-.6-2.06-1.19-2.91-1.81-.2-.14-.38-.28-.57-.43-2.28-1.74-3.8-3.63-5.45-5.93-2.47-3.43-5.06-5.62-7.49-7.7.54-.81,1.12-1.62,1.72-2.43,2.43-3.27,5.29-6.53,7.85-9.8-.2-.04-.41-.07-.61-.1-4.05-.57-7.81,1.21-10.3,4.78-1.74,2.51-3.49,5.04-5.23,7.55-.21-2.83-.43-5.64-.64-8.47-2.5.97-4.19,3.1-5.02,5.37-.51,1.38-.7,2.81-.57,4.08Z"/><path class="cls-6" d="M130.47,188.13c0-7.96-4.79-14.64-10.49-12.23-.13.06-.26.11-.38.17-4.98,2.3-8.36,7.68-9.78,13.27-.51,2.02-.77,4.07-.75,6.01.13,9.81,5.3,14.62,10.53,13.32.19-.04.38-.11.6-.17,1.7-.58,3.17-1.62,4.42-2.96,4-4.27,5.84-11.67,5.85-17.4ZM119.59,183.19c.17-.06.34-.13.51-.17.15-.03.29-.04.43-.04,2.81-.1,3.09,5.6,3.15,8.72.02.93-.07,2.05-.29,3.17-.48,2.51-1.58,5.05-3.41,5.7-.13.06-.26.09-.38.11-2.74.51-4.04-4.42-4.11-8.21-.04-3.77,1.19-8.17,4.11-9.28Z"/><path class="cls-6" d="M181.99,151.96c-.4.11-.81.21-1.21.3-.18.26-.33.52-.48.79-1.17,2.14-1.39,4.67-1.2,7.19.4,4.83,1.32,9.28,1.89,14.47.32-.17.66-.34,1-.49,4.17-1.89,9.59-2.34,12.85-4.62,2.01-1.39,3.2-2.84,3.53-4.98.14-.9.14-1.92-.04-3.12-3.66,2.34-7.72,4.15-11.96,5.74-.08-.96-.17-1.92-.28-2.87,1.44-.41,2.6-.82,3.63-1.41.29-.17.58-.34.86-.55.73-.53,1.25-1.16,1.62-1.88.57-1.1.77-2.42.74-3.93-2.55,1.28-4.55,2.08-7.47,3.15l-.09-2.45c2.23-.7,4.89-1.72,7-2.94.28-.16.54-.34.79-.52,1.02-.73,1.81-1.59,2.36-2.59.7-1.28,1.02-2.8.98-4.56-4.87,2.21-9.44,3.98-14.53,5.28Z"/><path class="cls-6" d="M106.55,209.59l-4.77-22.02c-1.59,1.64-2.76,3.3-3.55,4.97-1.02,2.16-1.37,4.35-.99,6.56l.11.65.78,4.61-5.87,5.72-2.94-13.42c-2.6,1.98-4.21,4.36-4.77,6.95-.1.48-.18.96-.21,1.45v1.24c.04.53.11,1.08.23,1.64l6.15,28.31c1.71-1.6,2.93-3.43,3.65-5.47.84-2.38,1.01-5.06.48-8.03l-1.19-6.57,2.02-2.27,3.43-3.87,3.91,15.81c.48-.72.92-1.46,1.33-2.21,2.28-4.22,3.28-8.87,2.18-14.02Z"/><path class="cls-6" d="M223.43,140.2c-1.86.23-5.61,2.51-6.95,5.11-.25.5-.43,1-.48,1.51-.46,4.57-.55,7.71-4.27,12.1-.44.51-.91,1.04-1.45,1.6-4.23-3.53-5.49-8.17-4.83-15.55-2.35.1-4.33,1.89-5.33,4.02-.53,1.13-.79,2.36-.67,3.49.51,4.96,4.15,10.32,8.19,12.51-.13.29-.3.6-.48.91-3.41,5.87-14.95,14.4-25.18,21.88-3,2.17-5.87,4.28-8.4,6.17-9.89,7.47-19.78,16.72-25.1,27.63-1.83,3.76-3.13,7.72-3.68,11.87-.75,5.54-.05,11.7,1.67,17.63.56,1.95,1.24,3.88,2.01,5.75,3.32,8.04,8.38,15.1,13.98,18.87-3.43-12.83-2.94-26.34.28-38.89,3.51-13.68,10.98-26.1,19.23-37.55h.02c8.33-11.58,20.59-20.12,29.84-30.97,1.4-1.64,2.74-3.34,3.98-5.11,4.64-6.62,9.15-15.23,7.62-22.98Z"/><path class="cls-3" d="M153.55,133.84l-.43-1.96-.04-.17-.49-1.6-.66-1.68-.79-1.62-.45-.79-.49-.74-.51-.72-.55-.7-.6-.68-.6-.64-.66-.62-.68-.57-.7-.53-.76-.51-.77-.47-.81-.43-.85-.38-.87-.34-.89-.3-.94-.25-.94-.19-.98-.15-1-.11-1.04-.04h-1.04l-1.06.06-.53.06-.57.06-1.11.17-1.13.21c-1.38.34-2.77.72-4.15,1.11-1.13.34-2.21.81-3.3,1.3l-.96.49-.89.51-.87.55-.81.6-.77.62-.72.66-.68.68-.64.7-.57.72-.53.77-.49.77-.45.81-.38.81-.34.83-.3.85-.26.85-.21.79v.09l-.17.87-.13.87-.09.89-.04.89v.89l.04.91.21,1.79.17.91.19.87.51,1.85.7,1.87.79,1.74.47.83.47.81.51.77.55.74.57.68.6.68.64.62.68.6.68.57.72.51.77.49.79.43.81.4.83.34.85.3.89.25.89.21.94.17.96.13.96.06,1,.02,1-.02,1.04-.08.32-.04.72-.09,1.06-.17,1.08-.23,3.08-.81,1.09-.32,1.04-.34,1.02-.38.96-.43.94-.45.87-.49.85-.51.81-.55.77-.57.7-.62.66-.62.64-.66.6-.7.55-.72.49-.74.47-.77.4-.79.36-.81.32-.85.17-.49.11-.36.23-.87.19-.87.13-.89.11-.91.04-.94.02-.94-.02-.94-.08-.96-.26-1.94ZM144.38,140.13l-.17,1.13-.28,1.11-.36,1.09-.45.98-.57.96-.66.87-.79.79-.89.72-1.02.64-1.17.53-1.3.45-1.34.28-1.28.13-.68-.02-.51-.02-1.13-.17-1.08-.3-1-.4-.98-.53-.89-.64-.85-.72-.81-.83-.72-.89-.66-.96-.57-1.02-.51-1.06-.43-1.11-.34-1.11-.28-1.13-.17-1.17-.11-1.15v-1.17l.06-1.17.17-1.13.28-1.08.36-1.08.45-.98.57-.94.66-.87.79-.79.89-.72,1.02-.62,1.19-.55,1.32-.43,1.32-.28,1.23-.13.72.02.47.02,1.13.17,1.06.3,1.02.4.98.53.89.64.87.72.81.81.72.89.66.96.6,1.02.51,1.04.43,1.08.34,1.11.26,1.11.19,1.17.09,1.17.02,1.17-.09,1.17Z"/><path class="cls-3" d="M219.92,96.12l-.98-.15-1-.09-1.02-.06h-1.04l-1.06.06-.55.06-.53.06-1.11.17-1.13.21c-1.4.34-2.81.72-4.19,1.13-1.13.34-2.21.79-3.3,1.28l-.94.49-.91.53-.85.55-.83.57-.77.64-.7.64-.68.68-.62.7-.6.74-.53.74-.47.79-.45.79-.38.81-.34.83-.32.85-.25.85-.19.87-.17.87-.13.87-.09.89-.04.89v.89l.04.91.21,1.79.36,1.79.51,1.83.68,1.87.79,1.77.45.83.49.81.49.77.55.74.57.7.6.68.64.64.66.6.7.55.72.53.74.47.79.45.81.38.83.36.85.3.89.26.89.21.94.17.96.11.96.09,1,.02,1-.04,1.04-.06.34-.04.7-.09,1.06-.17,1.08-.23,3.17-.83,1.06-.32,1.04-.34,1.02-.38.96-.43.94-.45.87-.49.85-.51.81-.55.77-.57.72-.62.66-.64.64-.66.6-.7.55-.72.49-.74.47-.77.4-.79.36-.83.32-.83.28-.85.23-.87.19-.87.13-.89.11-.91.06-.94v-.94l-.02-.94-.09-.96-.25-1.94-.43-1.98-.25-.87-.6-1.72-.74-1.66-.87-1.57-.49-.74-.51-.72-.55-.7-.6-.66-.62-.66-.66-.6-.68-.57-.72-.55-.74-.51-.77-.47-.83-.43-.83-.38-.87-.34-.89-.3-.91-.23-.96-.21ZM222.26,107.31l.66.96.6,1,.51,1.06.43,1.08.34,1.08.25,1.13.19,1.15.09,1.17.02,1.19-.09,1.15-.19,1.15-.25,1.11-.38,1.08-.47.98-.55.96-.68.87-.77.81-.89.7-1.02.64-1.15.53-1.3.45-1.34.28-1.28.11h-.72l-.47-.02-1.15-.17-1.06-.3-1.02-.4-.98-.53-.91-.64-.85-.72-.81-.83-.72-.89-.66-.96-.6-1.02-.51-1.06-.43-1.08-.34-1.13-.26-1.13-.19-1.15-.11-1.17v-1.15l.09-1.17.17-1.13.28-1.11.36-1.06.47-.98.57-.96.66-.85.79-.81.91-.72,1.02-.64,1.19-.53,1.32-.45,1.32-.28,1.26-.11.66.02.51.02,1.13.17,1.08.3,1.02.4.96.53.91.62.85.74.81.81.72.89Z"/><path class="cls-3" d="M172.69,145.71l.7-.19,2.34-.74,2.23-.85,2.11-.96,1.98-1.04.94-.55.89-.6.85-.62.83-.66.77-.68.75-.7.68-.74.64-.77.6-.81.53-.83.49-.87.43-.89.36-.94.32-.96.23-.98.19-1.02.13-1.04.04-1.04-.02-1.08-.09-1.11-.15-1.15-.21-1.15-.28-1.17-.57-1.83-.7-1.74-.4-.85-.43-.81-.47-.77-.51-.74-.53-.72-.6-.68-.6-.66-.66-.6-.68-.57-.72-.53-.77-.49-.81-.45-.83-.4-.85-.36-.89-.3-.94-.28-.96-.21-1-.17-1.02-.11-1.06-.06-1.09-.02-1.11.02h-.09l-1.06.09-1.19.13-1.21.17-1.25.23-1.28.28-13.62,3.66-.85.23.85,3.11,8.77,32.53,10.85-2.94ZM165.63,116.01l1.51-.32,1.45-.23,1.43-.13,1.34-.02,1.3.06.04.02,1.17.17,1.15.3,1.06.4,1,.53.94.66.85.79.79.94.72,1.11.64,1.3.55,1.49.45,1.66.15.79.13.79.06.74.02.7-.02.68-.06.66-.09.64-.15.62-.17.6-.19.55-.25.55-.6,1.06-.74,1-.89.94-1.04.89-1.21.85-1.34.77-1.51.74-1.41.57-.23.11-1.76.62c-.47.13-.94.28-1.38.4l-6.3-23.29,2.62-.7Z"/><polygon class="cls-3" points="78.32 171.17 72.98 151.37 87.96 168.58 95.6 166.51 99.51 144.58 104.77 164.02 113.3 161.73 113.74 161.62 113.3 160.03 104.11 125.99 94.24 128.65 88.98 156.09 70.64 135.03 60.84 137.67 70.45 173.3 78.32 171.17"/><path class="cls-5" d="M180.87,278.52c0-2.23,1.78-4.01,4.03-4.01s4.03,1.78,4.03,4.01-1.78,4.01-4.03,4.01-4.03-1.78-4.03-4.01ZM188.32,278.52c0-1.89-1.58-3.4-3.42-3.4s-3.42,1.5-3.42,3.4,1.58,3.4,3.42,3.4,3.42-1.5,3.42-3.4ZM186.82,280.69h-.74l-1.32-2.03h-.74v2.03h-.62v-4.39h1.91c.79,0,1.56.21,1.56,1.16,0,.86-.61,1.18-1.39,1.2l1.33,2.03ZM184.76,278.05c.54,0,1.5.1,1.5-.6,0-.45-.6-.54-1.07-.54h-1.17v1.13h.74Z"/><rect class="cls-1" width="300" height="300"/></g></svg>