<?xml version="1.0" encoding="utf-8"?>
<!-- Generator: Adobe Illustrator 27.9.0, SVG Export Plug-In . SVG Version: 6.00 Build 0)  -->
<svg version="1.1" id="Lager_1" xmlns="http://www.w3.org/2000/svg" xmlns:xlink="http://www.w3.org/1999/xlink" x="0px" y="0px"
	 viewBox="0 0 369.9 369.9" style="enable-background:new 0 0 369.9 369.9;" xml:space="preserve">
<style type="text/css">
	.st0{fill:#FFFFFF;}
	
		.st1{clip-path:url(#SVGID_00000076576221734006829360000017052976678074635198_);fill:url(#SVGID_00000132776822275576116480000014065267273826698149_);}
	.st2{clip-path:url(#SVGID_00000054956443488070188750000013625358417576064903_);fill:#FFFFFF;}
	.st3{fill:url(#SVGID_00000118368388789224129760000003180218178653814197_);}
	
		.st4{clip-path:url(#SVGID_00000000938352391834996750000000982924558123207861_);fill:url(#SVGID_00000029728112738290517760000007912998883841012410_);}
	.st5{clip-path:url(#SVGID_00000165217704356828013900000010248461455340757671_);fill:#FFFFFF;}
	.st6{clip-path:url(#SVGID_00000141418841042536505330000005706754263926702987_);fill:#FFFFFF;}
	.st7{clip-path:url(#SVGID_00000000913057122347488970000015286903283242860451_);fill:#FFFFFF;}
	.st8{clip-path:url(#SVGID_00000160895099210166111000000012369135021414046603_);fill:#FFFFFF;}
	.st9{clip-path:url(#SVGID_00000133499376133520142630000000328949451074442638_);fill:#FFFFFF;}
	.st10{clip-path:url(#SVGID_00000134237824266440563710000017540974454880315827_);fill:#FFFFFF;}
	.st11{clip-path:url(#SVGID_00000157291336877212052030000005328346171382425997_);fill:#FFFFFF;}
	.st12{clip-path:url(#SVGID_00000103258269720631753600000004214378809483205031_);fill:#FFFFFF;}
	.st13{clip-path:url(#SVGID_00000071549233462064927900000015899045677764344971_);fill:#FFFFFF;}
	.st14{clip-path:url(#SVGID_00000036942966075243460280000002637033909181607588_);fill:#FFFFFF;}
	.st15{clip-path:url(#SVGID_00000076574566048491098610000001747820958924805053_);fill:#FFFFFF;}
	.st16{clip-path:url(#SVGID_00000023959394053468645260000001611206178990768797_);fill:#FFFFFF;}
	.st17{clip-path:url(#SVGID_00000136406606714928957720000016183966822910470045_);fill:#FFFFFF;}
	.st18{clip-path:url(#SVGID_00000044891241037225396220000017449088806017595036_);fill:#FFFFFF;}
	.st19{clip-path:url(#SVGID_00000132081519118026164380000014676920047706287545_);fill:#FFFFFF;}
	.st20{clip-path:url(#SVGID_00000067917783968250705280000015100183850137766816_);fill:#FFFFFF;}
	
		.st21{clip-path:url(#SVGID_00000149379361709128859270000003332932725161100683_);fill:url(#SVGID_00000057135787492952902880000015085557185669027730_);}
	
		.st22{clip-path:url(#SVGID_00000172413202616080610760000007658812935313124016_);fill:url(#SVGID_00000027597392231080428840000008575396282480189857_);}
	.st23{clip-path:url(#SVGID_00000049206672452562446180000010847718352891025588_);fill:#FFFFFF;}
	.st24{clip-path:url(#SVGID_00000073690206252246038140000011034212736826237833_);fill:#FFFFFF;}
	.st25{clip-path:url(#SVGID_00000142145698725276974250000017791306673692623750_);fill:#FFFFFF;}
	.st26{clip-path:url(#SVGID_00000090289519089625115370000003241024396249583758_);fill:#FFFFFF;}
	
		.st27{clip-path:url(#SVGID_00000057138156194489047800000007668213181710633660_);fill:url(#SVGID_00000078741964013668202580000012844175830158835866_);}
	.st28{clip-path:url(#SVGID_00000171682435038687024490000009801605290380060095_);fill:#FFFFFF;}
	.st29{clip-path:url(#SVGID_00000008113567966961445050000013187437144986881178_);fill:#FFFFFF;}
	.st30{clip-path:url(#SVGID_00000155129668632880200030000006020781566636592013_);fill:#FFFFFF;}
	.st31{clip-path:url(#SVGID_00000041988520744403024950000007694655964671928988_);fill:#FFFFFF;}
	
		.st32{clip-path:url(#SVGID_00000066509995688817142790000007470376409555361213_);fill:url(#SVGID_00000114759999631885494640000014640883741762695359_);}
	.st33{clip-path:url(#SVGID_00000165943515826909285330000014107030988776042670_);fill:#FFFFFF;}
	.st34{clip-path:url(#SVGID_00000065796450698460436340000007774042925151936143_);fill:#FFFFFF;}
	.st35{clip-path:url(#SVGID_00000112634729454697390780000006830953158338942904_);fill:#FFFFFF;}
	.st36{clip-path:url(#SVGID_00000116213537139948058140000010060118368856023190_);fill:#FFFFFF;}
	.st37{clip-path:url(#SVGID_00000129914854827810933010000004571545358736980358_);fill:#FFFFFF;}
	
		.st38{clip-path:url(#SVGID_00000003794270509734837890000007754724883890397598_);fill:url(#SVGID_00000074431503125651914440000008012028433300894861_);}
	
		.st39{clip-path:url(#SVGID_00000160903594299455114510000005890741359667286408_);fill:url(#SVGID_00000155115257319433877820000004139101389492451748_);}
	.st40{clip-path:url(#SVGID_00000038410362692704593660000009617937628838174102_);fill:#911004;}
	.st41{clip-path:url(#SVGID_00000128452558852902412050000010281078806385002173_);}
	
		.st42{clip-path:url(#SVGID_00000005227166726365427380000012612198011767534764_);fill:none;stroke:#000000;stroke-width:0.3473;stroke-miterlimit:10;}
	
		.st43{clip-path:url(#SVGID_00000034081579827538581070000000888320188390625163_);fill:url(#SVGID_00000079467608396468135120000017517697823658928551_);}
	
		.st44{clip-path:url(#SVGID_00000012458140167921468410000011639968847691127938_);fill:url(#SVGID_00000088106670695269068600000015034151973465550225_);}
</style>
<g>
	<circle class="st0" cx="186.4" cy="185.1" r="153"/>
	<g>
		<g>
			<g>
				<defs>
					<path id="SVGID_1_" d="M63.8,185c0-66.8,54.3-121.1,121.1-121.1S306,118.2,306,185s-54.3,121.2-121.1,121.2
						C118.2,306.1,63.8,251.8,63.8,185 M3.7,185C3.7,285,85,366.3,185,366.3S366.3,285,366.3,185C366.2,85,284.9,3.7,185,3.7
						C85,3.7,3.7,85,3.7,185"/>
				</defs>
				<clipPath id="SVGID_00000147916625511679824090000002842844951417761969_">
					<use xlink:href="#SVGID_1_"  style="overflow:visible;"/>
				</clipPath>
				
					<radialGradient id="SVGID_00000119109776329791107970000006169275687934590341_" cx="-653.2676" cy="349.1755" r="14.2019" gradientTransform="matrix(12.7659 0 0 12.7659 8524.5488 -4272.5391)" gradientUnits="userSpaceOnUse">
					<stop  offset="0" style="stop-color:#E30613"/>
					<stop  offset="0.2312" style="stop-color:#E10613"/>
					<stop  offset="0.4124" style="stop-color:#DA0812"/>
					<stop  offset="0.5766" style="stop-color:#CF0B10"/>
					<stop  offset="0.7307" style="stop-color:#BF0D0D"/>
					<stop  offset="0.8764" style="stop-color:#AA0F09"/>
					<stop  offset="1" style="stop-color:#931004"/>
				</radialGradient>
				
					<rect x="3.7" y="3.7" style="clip-path:url(#SVGID_00000147916625511679824090000002842844951417761969_);fill:url(#SVGID_00000119109776329791107970000006169275687934590341_);" width="362.6" height="362.6"/>
			</g>
		</g>
	</g>
	<g>
		<g>
			<g>
				<defs>
					<rect id="SVGID_00000090265163861384357830000017782512068950997385_" width="369.9" height="369.9"/>
				</defs>
				<clipPath id="SVGID_00000162354041491641577290000006270995720856639900_">
					<use xlink:href="#SVGID_00000090265163861384357830000017782512068950997385_"  style="overflow:visible;"/>
				</clipPath>
				<path style="clip-path:url(#SVGID_00000162354041491641577290000006270995720856639900_);fill:#FFFFFF;" d="M185,367.1
					C84.5,367.1,2.8,285.4,2.8,185S84.5,2.8,185,2.8c100.4,0,182.2,81.7,182.2,182.2S285.4,367.1,185,367.1 M185,4.6
					C85.5,4.6,4.6,85.5,4.6,185S85.5,365.4,185,365.4s180.4-81,180.4-180.4C365.4,85.5,284.5,4.6,185,4.6 M185,307
					c-67.3,0-122-54.7-122-122S117.7,63,185,63s122,54.7,122,122S252.2,307,185,307 M185,64.7c-66.3,0-120.3,53.9-120.3,120.3
					s54,120.2,120.3,120.2s120.3-54,120.3-120.3S251.3,64.7,185,64.7"/>
			</g>
		</g>
	</g>
	<g>
		<g>
			<g>
				
					<linearGradient id="SVGID_00000086685325118351479920000000369497378300679096_" gradientUnits="userSpaceOnUse" x1="0.5" y1="187" x2="369.3001" y2="187" gradientTransform="matrix(1 0 0 -1 0 372)">
					<stop  offset="0" style="stop-color:#D0920D"/>
					<stop  offset="0.1963" style="stop-color:#FFFAD3"/>
					<stop  offset="0.3926" style="stop-color:#D29B08"/>
					<stop  offset="0.6503" style="stop-color:#F9F1BC"/>
					<stop  offset="0.9816" style="stop-color:#CB8712"/>
					<stop  offset="1" style="stop-color:#CB8712"/>
				</linearGradient>
				
					<path id="SVGID_00000177465469091080807730000001473641941519249563_" style="fill:url(#SVGID_00000086685325118351479920000000369497378300679096_);" d="
					M67,185c0-65.1,52.9-118,118-118s118,52.9,118,118s-53,118-118,118S67,250,67,185 M60.7,185c0,68.6,55.8,124.3,124.3,124.3
					S309.3,253.5,309.3,185S253.5,60.7,185,60.7C116.4,60.7,60.7,116.4,60.7,185 M6.9,185C6.9,86.8,86.8,6.9,185,6.9
					S363.1,86.8,363.1,185S283.2,363.1,185,363.1S6.9,283.2,6.9,185 M0.5,185c0,101.7,82.7,184.5,184.4,184.5S369.3,286.8,369.3,185
					C369.4,83.3,286.7,0.5,185,0.5S0.5,83.3,0.5,185"/>
			</g>
			<g>
				<defs>
					<path id="SVGID_00000139275746740995258890000002032652608610136737_" d="M67,185c0-65.1,52.9-118,118-118s118,52.9,118,118
						s-53,118-118,118S67,250,67,185 M60.7,185c0,68.6,55.8,124.3,124.3,124.3S309.3,253.5,309.3,185S253.5,60.7,185,60.7
						C116.4,60.7,60.7,116.4,60.7,185 M6.9,185C6.9,86.8,86.8,6.9,185,6.9S363.1,86.8,363.1,185S283.2,363.1,185,363.1
						S6.9,283.2,6.9,185 M0.5,185c0,101.7,82.7,184.5,184.4,184.5S369.3,286.8,369.3,185C369.4,83.3,286.7,0.5,185,0.5
						S0.5,83.3,0.5,185"/>
				</defs>
				<clipPath id="SVGID_00000104665826489776401560000007470556280480255419_">
					<use xlink:href="#SVGID_00000139275746740995258890000002032652608610136737_"  style="overflow:visible;"/>
				</clipPath>
				
					<linearGradient id="SVGID_00000068664678975015506130000001887023445522669466_" gradientUnits="userSpaceOnUse" x1="-709.3646" y1="308.6982" x2="-704.5452" y2="308.6982" gradientTransform="matrix(76.5448 0 0 76.5448 54298.668 -23444.293)">
					<stop  offset="0" style="stop-color:#D0920D"/>
					<stop  offset="0.1963" style="stop-color:#FFFAD3"/>
					<stop  offset="0.3926" style="stop-color:#D29B08"/>
					<stop  offset="0.6503" style="stop-color:#F9F1BC"/>
					<stop  offset="0.9816" style="stop-color:#CB8712"/>
					<stop  offset="1" style="stop-color:#CB8712"/>
				</linearGradient>
				
					<rect x="0.5" y="0.5" style="clip-path:url(#SVGID_00000104665826489776401560000007470556280480255419_);fill:url(#SVGID_00000068664678975015506130000001887023445522669466_);" width="368.9" height="368.9"/>
			</g>
		</g>
	</g>
	<g>
		<g>
			<defs>
				<rect id="SVGID_00000062885572354760271300000010311569261486854328_" width="369.9" height="369.9"/>
			</defs>
			<clipPath id="SVGID_00000125575374765811138030000003416673223312998040_">
				<use xlink:href="#SVGID_00000062885572354760271300000010311569261486854328_"  style="overflow:visible;"/>
			</clipPath>
			<polygon style="clip-path:url(#SVGID_00000125575374765811138030000003416673223312998040_);fill:#FFFFFF;" points="36,147.4 
				22.5,140.3 24.3,133.4 38.7,141.4 57.8,142.1 55.9,149.4 41.4,148.4 41,149.8 54.8,153.3 53.1,160.1 19.5,151.5 21.3,144.7 
				35.7,148.4 			"/>
		</g>
	</g>
	<g>
		<g>
			<defs>
				<rect id="SVGID_00000153703109234783809080000002665440315091720890_" width="369.9" height="369.9"/>
			</defs>
			<clipPath id="SVGID_00000175304967995569973510000003986504737754352781_">
				<use xlink:href="#SVGID_00000153703109234783809080000002665440315091720890_"  style="overflow:visible;"/>
			</clipPath>
			<path style="clip-path:url(#SVGID_00000175304967995569973510000003986504737754352781_);fill:#FFFFFF;" d="M57.7,131.4l3.7,2.3
				l-2.8,6.3l-29-19.7l3-6.7l34.2,8.4l-2.8,6.3l-4.2-1.2L57.7,131.4z M53,128.5l1.3-2.9L42.5,122L53,128.5z"/>
		</g>
	</g>
	<g>
		<g>
			<defs>
				<rect id="SVGID_00000035503226162676029120000013030589286274650797_" width="369.9" height="369.9"/>
			</defs>
			<clipPath id="SVGID_00000098906491419618334420000011228854702274298785_">
				<use xlink:href="#SVGID_00000035503226162676029120000013030589286274650797_"  style="overflow:visible;"/>
			</clipPath>
			<polygon style="clip-path:url(#SVGID_00000098906491419618334420000011228854702274298785_);fill:#FFFFFF;" points="40.2,99.2 
				44.1,93.3 67.6,108.6 71.5,102.8 76.2,107.4 69.1,118.1 			"/>
		</g>
	</g>
	<g>
		<g>
			<defs>
				<rect id="SVGID_00000114031447837499227690000017227677586533485195_" width="369.9" height="369.9"/>
			</defs>
			<clipPath id="SVGID_00000066509959188164634100000014185896385454237618_">
				<use xlink:href="#SVGID_00000114031447837499227690000017227677586533485195_"  style="overflow:visible;"/>
			</clipPath>
			<polygon style="clip-path:url(#SVGID_00000066509959188164634100000014185896385454237618_);fill:#FFFFFF;" points="72.2,86.5 
				84.1,97.6 79.5,102.5 54.3,78.9 59.3,73.6 72.5,80.9 64.5,68.2 69.5,62.9 94.8,86.4 90.1,91.3 78.2,80.2 85.3,92.8 			"/>
		</g>
	</g>
	<g>
		<g>
			<defs>
				<rect id="SVGID_00000153707585132821285080000004583817904506320015_" width="369.9" height="369.9"/>
			</defs>
			<clipPath id="SVGID_00000107555469957497470320000001310633632715762849_">
				<use xlink:href="#SVGID_00000153707585132821285080000004583817904506320015_"  style="overflow:visible;"/>
			</clipPath>
			<path style="clip-path:url(#SVGID_00000107555469957497470320000001310633632715762849_);fill:#FFFFFF;" d="M101.7,75.8l2,3.8
				L98,83.7L82.8,52.2l6-4.3l25.4,24.2l-5.6,4.1l-3-3.1L101.7,75.8z M99.1,71l2.6-1.9l-8.5-8.9L99.1,71z"/>
		</g>
	</g>
	<g>
		<g>
			<defs>
				<rect id="SVGID_00000060024601088731765480000012845241915241960627_" width="369.9" height="369.9"/>
			</defs>
			<clipPath id="SVGID_00000173859466267008082980000013842919669991660719_">
				<use xlink:href="#SVGID_00000060024601088731765480000012845241915241960627_"  style="overflow:visible;"/>
			</clipPath>
			<path style="clip-path:url(#SVGID_00000173859466267008082980000013842919669991660719_);fill:#FFFFFF;" d="M127.9,49.6
				c0.7,1.4,0.4,3.2-1.5,4.1l8.1,8.3l-6.5,3.1l-7.8-8.4l-0.8,0.4l4.8,9.9l-6.2,3l-15.1-31l11.8-5.7c2.9-1.4,5-0.5,6.2,2L127.9,49.6z
				 M111.8,41.4L117,52l3.1-1.5c0.5-0.2,0.5-0.5,0.3-0.9l-4.6-9.4c-0.2-0.4-0.5-0.6-0.9-0.3L111.8,41.4z"/>
		</g>
	</g>
	<g>
		<g>
			<defs>
				<rect id="SVGID_00000168094492754265370760000015147806298407896490_" width="369.9" height="369.9"/>
			</defs>
			<clipPath id="SVGID_00000022546096147156798760000002279328683378125458_">
				<use xlink:href="#SVGID_00000168094492754265370760000015147806298407896490_"  style="overflow:visible;"/>
			</clipPath>
			<polygon style="clip-path:url(#SVGID_00000022546096147156798760000002279328683378125458_);fill:#FFFFFF;" points="165.9,53.8 
				159,55.2 156.2,41.8 152.5,42.5 155.3,56 148.3,57.4 141.4,23.7 148.3,22.3 151.3,36.7 155,36 152,21.6 158.9,20.1 			"/>
		</g>
	</g>
	<g>
		<g>
			<defs>
				<rect id="SVGID_00000163786562125536299170000010613084034878543293_" width="369.9" height="369.9"/>
			</defs>
			<clipPath id="SVGID_00000148622781157524820550000016182425411852268174_">
				<use xlink:href="#SVGID_00000163786562125536299170000010613084034878543293_"  style="overflow:visible;"/>
			</clipPath>
			<path style="clip-path:url(#SVGID_00000148622781157524820550000016182425411852268174_);fill:#FFFFFF;" d="M189.1,47.8
				c0.1,2.6-1,4.9-4.8,5l-8,0.2c-3.9,0.1-5-2.1-5.1-4.7l-0.7-25c-0.1-2.7,1.3-4.5,4.6-4.6l8.6-0.2c3.2-0.1,4.7,1.6,4.8,4.3
				L189.1,47.8z M178,24.6c-0.5,0-0.6,0.2-0.6,0.7l0.6,21c0,0.5,0.1,0.7,0.7,0.7l2.6-0.1c0.6,0,0.7-0.2,0.6-0.7l-0.6-21
				c0-0.4-0.2-0.7-0.6-0.7L178,24.6z"/>
		</g>
	</g>
	<g>
		<g>
			<defs>
				<rect id="SVGID_00000114758139424342321500000015312186187684946348_" width="369.9" height="369.9"/>
			</defs>
			<clipPath id="SVGID_00000137117404774314163100000008234332871303681673_">
				<use xlink:href="#SVGID_00000114758139424342321500000015312186187684946348_"  style="overflow:visible;"/>
			</clipPath>
			<path style="clip-path:url(#SVGID_00000137117404774314163100000008234332871303681673_);fill:#FFFFFF;" d="M200.1,53.9
				c-3.9-0.5-5.1-2.2-4.6-6l3.3-24.6c0.4-2.7,2.3-4,4.6-3.7l9.1,1.2l0.3,6.5l-6.6-0.9c-0.5-0.1-0.7,0.2-0.7,0.6l-2.7,20.1
				c-0.1,0.4,0.1,0.7,0.5,0.7l6.6,0.9l-2.1,6.2L200.1,53.9z"/>
		</g>
	</g>
	<g>
		<g>
			<defs>
				<rect id="SVGID_00000026854077926902623040000002729542720734363267_" width="369.9" height="369.9"/>
			</defs>
			<clipPath id="SVGID_00000037658498233056630740000011142739062323768207_">
				<use xlink:href="#SVGID_00000026854077926902623040000002729542720734363267_"  style="overflow:visible;"/>
			</clipPath>
			<polygon style="clip-path:url(#SVGID_00000037658498233056630740000011142739062323768207_);fill:#FFFFFF;" points="227.4,39.5 
				235.2,26.5 242,28.5 233.4,42.5 231.9,61.4 224.6,59.2 226.2,44.9 224.9,44.5 220.7,58 213.9,56 224,23.1 230.8,25.1 226.5,39.2 
							"/>
		</g>
	</g>
	<g>
		<g>
			<defs>
				<rect id="SVGID_00000140712630625376561700000017939820181315116214_" width="369.9" height="369.9"/>
			</defs>
			<clipPath id="SVGID_00000024003061688050846570000013120331333355710363_">
				<use xlink:href="#SVGID_00000140712630625376561700000017939820181315116214_"  style="overflow:visible;"/>
			</clipPath>
			<polygon style="clip-path:url(#SVGID_00000024003061688050846570000013120331333355710363_);fill:#FFFFFF;" points="251.4,32.4 
				263.5,38.4 261.7,44.6 254.9,41.3 251.3,48.6 256.4,51.1 253.8,56.5 248.7,53.9 245.3,60.7 251.8,63.9 247.9,69.1 236.1,63.3 			
				"/>
		</g>
	</g>
	<g>
		<g>
			<defs>
				<rect id="SVGID_00000178888528309965621570000006161867399867118764_" width="369.9" height="369.9"/>
			</defs>
			<clipPath id="SVGID_00000168077185243421160480000006664993127378055046_">
				<use xlink:href="#SVGID_00000178888528309965621570000006161867399867118764_"  style="overflow:visible;"/>
			</clipPath>
			<polygon style="clip-path:url(#SVGID_00000168077185243421160480000006664993127378055046_);fill:#FFFFFF;" points="264.2,79.7 
				258.2,75.5 263.4,68.4 273,43.7 278.9,47.8 271.9,62.8 284,51.5 289.8,55.6 269.3,72.6 			"/>
		</g>
	</g>
	<g>
		<g>
			<defs>
				<rect id="SVGID_00000019644921325902050770000015028390732918980255_" width="369.9" height="369.9"/>
			</defs>
			<clipPath id="SVGID_00000067956432161183689260000013413425117380637602_">
				<use xlink:href="#SVGID_00000019644921325902050770000015028390732918980255_"  style="overflow:visible;"/>
			</clipPath>
			<path style="clip-path:url(#SVGID_00000067956432161183689260000013413425117380637602_);fill:#FFFFFF;" d="M283.3,97.3
				c-2.6-3-2.4-5,0.5-7.5l18.9-16.3c2-1.8,4.4-1.4,5.9,0.3l6,6.8l-4.1,5.1l-4.4-5c-0.3-0.4-0.6-0.3-0.9,0L289.8,94
				c-0.3,0.3-0.4,0.6-0.1,0.9l4.3,5l-5.7,3.3L283.3,97.3z"/>
		</g>
	</g>
	<g>
		<g>
			<defs>
				<rect id="SVGID_00000106110072670049446630000003163931487634275764_" width="369.9" height="369.9"/>
			</defs>
			<clipPath id="SVGID_00000100380039213258039500000017133920250342454459_">
				<use xlink:href="#SVGID_00000106110072670049446630000003163931487634275764_"  style="overflow:visible;"/>
			</clipPath>
			<polygon style="clip-path:url(#SVGID_00000100380039213258039500000017133920250342454459_);fill:#FFFFFF;" points="321.4,89.7 
				325.2,95.7 301.5,110.7 305.2,116.6 299.2,119 292.2,108.2 			"/>
		</g>
	</g>
	<g>
		<g>
			<defs>
				<rect id="SVGID_00000144304833659620410730000006296175492346267784_" width="369.9" height="369.9"/>
			</defs>
			<clipPath id="SVGID_00000183241078793012158240000015114135409683758982_">
				<use xlink:href="#SVGID_00000144304833659620410730000006296175492346267784_"  style="overflow:visible;"/>
			</clipPath>
			<path style="clip-path:url(#SVGID_00000183241078793012158240000015114135409683758982_);fill:#FFFFFF;" d="M304.3,129.1
				c-1.6-3.6-0.7-5.5,2.8-7l26.9-11.5l2.8,6.4l-25.5,11c-0.5,0.2-0.7,0.4-0.4,0.9l1,2.2c0.2,0.5,0.5,0.5,1,0.3l25.6-11l2.8,6.4
				l-26.9,11.6c-3.5,1.5-5.5,0.8-7.1-2.8L304.3,129.1z"/>
		</g>
	</g>
	<g>
		<g>
			<defs>
				<rect id="SVGID_00000027567603136351063260000012578953208775083699_" width="369.9" height="369.9"/>
			</defs>
			<clipPath id="SVGID_00000153675017915391850720000002083196208257447844_">
				<use xlink:href="#SVGID_00000027567603136351063260000012578953208775083699_"  style="overflow:visible;"/>
			</clipPath>
			<path style="clip-path:url(#SVGID_00000153675017915391850720000002083196208257447844_);fill:#FFFFFF;" d="M335.4,157.9
				c-1.7,0.4-3.1,0.1-4-1.5c0.3,1.9-0.9,3-2.4,3.3l-8.8,2c-3.7,0.9-5.5-0.2-6.4-4l-2.9-12.1l33.7-7.9l3.1,13.1
				c0.6,2.6-0.7,4.3-3.2,4.9L335.4,157.9z M326.4,153.3c0.8-0.2,0.9-0.6,0.7-1.2l-0.7-3.1l-8,1.9l0.8,3.4c0.1,0.6,0.4,0.6,0.9,0.5
				L326.4,153.3z M340.4,145.8l-8.8,2.1l0.8,3.1c0.1,0.5,0.5,0.8,1.1,0.6l7.3-1.7c0.4-0.1,0.6-0.3,0.5-0.7L340.4,145.8z"/>
		</g>
	</g>
	<g>
		<g>
			<g>
				<defs>
					<path id="SVGID_00000168110802610809687360000002003369399241954947_" d="M13.9,185.6c4.5,12.3,4.9,12.6,7,19.2
						c10.2,0,15.2,0,26.6,0c2.1-6.6,4.3-12.2,6.8-18.4c-13.2,17.4-17.5,6-20.6-12.5C30.8,192.3,27.1,203.6,13.9,185.6"/>
				</defs>
				<clipPath id="SVGID_00000026164133770350623420000006512510910852626582_">
					<use xlink:href="#SVGID_00000168110802610809687360000002003369399241954947_"  style="overflow:visible;"/>
				</clipPath>
				
					<linearGradient id="SVGID_00000145019667473370736250000009084986002077078676_" gradientUnits="userSpaceOnUse" x1="-635.9037" y1="372.7263" x2="-631.0877" y2="372.7263" gradientTransform="matrix(8.3888 0 0 8.3888 5348.3687 -2937.3765)">
					<stop  offset="0" style="stop-color:#D0920D"/>
					<stop  offset="0.4969" style="stop-color:#FFFAD3"/>
					<stop  offset="0.9816" style="stop-color:#CB8712"/>
					<stop  offset="1" style="stop-color:#CB8712"/>
				</linearGradient>
				
					<rect x="13.9" y="173.9" style="clip-path:url(#SVGID_00000026164133770350623420000006512510910852626582_);fill:url(#SVGID_00000145019667473370736250000009084986002077078676_);" width="40.4" height="30.9"/>
			</g>
		</g>
	</g>
	<g>
		<g>
			<g>
				<defs>
					<rect id="SVGID_00000044861906162078178400000004810501999810958753_" x="21.2" y="206.3" width="25.8" height="4.4"/>
				</defs>
				<clipPath id="SVGID_00000005242897218450235520000014605982455368840580_">
					<use xlink:href="#SVGID_00000044861906162078178400000004810501999810958753_"  style="overflow:visible;"/>
				</clipPath>
				
					<linearGradient id="SVGID_00000160177960441648476850000012667438454494536382_" gradientUnits="userSpaceOnUse" x1="-588.2156" y1="416.2339" x2="-583.3993" y2="416.2339" gradientTransform="matrix(5.3568 0 0 5.3568 3172.1533 -2021.1815)">
					<stop  offset="0" style="stop-color:#D0920D"/>
					<stop  offset="0.4969" style="stop-color:#FFFAD3"/>
					<stop  offset="0.9816" style="stop-color:#CB8712"/>
					<stop  offset="1" style="stop-color:#CB8712"/>
				</linearGradient>
				
					<rect x="21.2" y="206.3" style="clip-path:url(#SVGID_00000005242897218450235520000014605982455368840580_);fill:url(#SVGID_00000160177960441648476850000012667438454494536382_);" width="25.8" height="4.4"/>
			</g>
		</g>
	</g>
	<path class="st0" d="M35.8,258.7l-3.2,1.1l-2.4-4.8l26.1-7.8l2.6,5.1l-21.7,16.5l-2.4-4.8l2.7-1.9L35.8,258.7z M39.9,257.3l1.1,2.2
		l7.9-5.4L39.9,257.3z"/>
	<polygon class="st0" points="62.1,258.1 64.9,262.4 57.5,270.6 66.4,264.7 69.5,269.2 47.1,284.1 44.1,279.5 51.8,270.9 
		42.5,277.1 39.8,273 	"/>
	<g>
		<g>
			<g>
				<defs>
					<rect id="SVGID_00000173146128421558568880000007908135869789012886_" width="369.9" height="369.9"/>
				</defs>
				<clipPath id="SVGID_00000058586320282558202670000007038018024684163987_">
					<use xlink:href="#SVGID_00000173146128421558568880000007908135869789012886_"  style="overflow:visible;"/>
				</clipPath>
				<path style="clip-path:url(#SVGID_00000058586320282558202670000007038018024684163987_);fill:#FFFFFF;" d="M51.5,289.7l3.2-4
					l3.7,4.4c0.3,0.3,0.5,0.4,0.8,0.1l3.7-3.2c0.3-0.2,0.4-0.4,0.4-0.6s-0.2-0.4-0.4-0.7l-1.8-2.1c-0.3-0.3-0.5-0.6-0.7-0.9
					s-0.3-0.6-0.3-1s0.1-0.7,0.3-1.1s0.6-0.8,1.1-1.2l6.9-5.9c0.8-0.7,1.6-1,2.5-1s1.7,0.5,2.5,1.5l4.8,5.6l-3.2,3.9l-3.9-4.6
					c-0.3-0.3-0.6-0.4-0.9-0.1l-3.7,3.2c-0.2,0.2-0.3,0.4-0.3,0.5c0,0.2,0.1,0.4,0.3,0.6l2.2,2.6c0.6,0.7,0.8,1.3,0.8,1.9
					s-0.4,1.2-1.2,1.9l-6.7,5.7c-1.1,1-2.1,1.4-3,1.3s-1.8-0.7-2.8-1.8L51.5,289.7z"/>
			</g>
		</g>
		<g>
			<g>
				<defs>
					<rect id="SVGID_00000152952966594586650010000001662367097246445973_" width="369.9" height="369.9"/>
				</defs>
				<clipPath id="SVGID_00000012432432473767812170000000382365794033239203_">
					<use xlink:href="#SVGID_00000152952966594586650010000001662367097246445973_"  style="overflow:visible;"/>
				</clipPath>
				<polygon style="clip-path:url(#SVGID_00000012432432473767812170000000382365794033239203_);fill:#FFFFFF;" points="87.2,288.5 
					91.1,292.2 69.2,308.5 65.1,304.6 79.8,281.7 83.8,285.4 81.8,288.2 73.6,299.6 84.5,290.7 				"/>
			</g>
		</g>
		<g>
			<g>
				<defs>
					<rect id="SVGID_00000127726553920632292320000010124286962426077363_" width="369.9" height="369.9"/>
				</defs>
				<clipPath id="SVGID_00000158719359003433561520000002021678192749813939_">
					<use xlink:href="#SVGID_00000127726553920632292320000010124286962426077363_"  style="overflow:visible;"/>
				</clipPath>
				<path style="clip-path:url(#SVGID_00000158719359003433561520000002021678192749813939_);fill:#FFFFFF;" d="M80.8,313.8
					l-2.4,2.4l-4.3-3.2l20-18.5l4.6,3.5l-12.2,24.3l-4.3-3.2l1.6-3L80.8,313.8z M83.8,310.7l2,1.5l4.7-8.3L83.8,310.7z"/>
			</g>
		</g>
		<g>
			<g>
				<defs>
					<rect id="SVGID_00000019665396652123289300000014995390121126084284_" width="369.9" height="369.9"/>
				</defs>
				<clipPath id="SVGID_00000173136288126777809870000006524797203364808074_">
					<use xlink:href="#SVGID_00000019665396652123289300000014995390121126084284_"  style="overflow:visible;"/>
				</clipPath>
				<path style="clip-path:url(#SVGID_00000173136288126777809870000006524797203364808074_);fill:#FFFFFF;" d="M108,322.4
					c-0.3,0.5-0.7,0.9-1.3,1.1c-0.6,0.2-1.2,0.1-1.9-0.3l-1.9,8.8l-4.8-2.8l2-8.7l-0.6-0.4l-4.3,7.4l-4.6-2.7l13.4-23.2l8.8,5.1
					c1.1,0.6,1.7,1.4,1.9,2.2c0.2,0.8,0,1.7-0.5,2.6L108,322.4z M106.4,308.5l-4.6,8l2.3,1.3c0.3,0.2,0.5,0.1,0.7-0.2l4.1-7
					c0.2-0.3,0.1-0.6-0.2-0.7L106.4,308.5z"/>
			</g>
		</g>
	</g>
	<g>
		<g>
			<g>
				<defs>
					<path id="SVGID_00000086679309783559465220000006835277463430360473_" d="M130.1,323.9c-0.9,0.1-1.6,0.3-2.4,0.6
						c-0.7,0.4-1.4,0.9-2,1.5s-1,1.4-1.3,2.2c-0.3,0.8-0.4,1.7-0.4,2.5c0.1,0.9,0.3,1.7,0.6,2.4c0.4,0.8,0.9,1.4,1.5,2
						s1.4,1,2.2,1.3s1.7,0.4,2.5,0.3c0.9-0.1,1.6-0.3,2.4-0.7s1.4-0.9,2-1.5s1-1.4,1.3-2.2c0.3-0.9,0.4-1.7,0.4-2.6
						c-0.1-0.9-0.3-1.7-0.6-2.4c-0.4-0.8-0.9-1.4-1.5-2s-1.4-1-2.2-1.3c-0.7-0.2-1.4-0.4-2.1-0.4
						C130.3,323.9,130.2,323.9,130.1,323.9"/>
				</defs>
				<clipPath id="SVGID_00000101078379144534794320000008758432051870938017_">
					<use xlink:href="#SVGID_00000086679309783559465220000006835277463430360473_"  style="overflow:visible;"/>
				</clipPath>
				
					<linearGradient id="SVGID_00000159454131265685697040000008215328938188778917_" gradientUnits="userSpaceOnUse" x1="-702.1832" y1="693.4789" x2="-697.3642" y2="693.4789" gradientTransform="matrix(1.9075 -1.9075 1.9075 1.9075 142.4969 -2327.219)">
					<stop  offset="0" style="stop-color:#D0920D"/>
					<stop  offset="0.4969" style="stop-color:#FFFAD3"/>
					<stop  offset="0.9816" style="stop-color:#CB8712"/>
					<stop  offset="1" style="stop-color:#CB8712"/>
				</linearGradient>
				
					<polygon style="clip-path:url(#SVGID_00000101078379144534794320000008758432051870938017_);fill:url(#SVGID_00000159454131265685697040000008215328938188778917_);" points="
					130.5,343.5 143.5,330.4 130.5,317.4 117.4,330.4 				"/>
			</g>
		</g>
	</g>
	<g>
		<g>
			<g>
				<defs>
					<rect id="SVGID_00000031900441144791940880000015946080639698334119_" width="369.9" height="369.9"/>
				</defs>
				<clipPath id="SVGID_00000180366371730001481160000009453785291784951470_">
					<use xlink:href="#SVGID_00000031900441144791940880000015946080639698334119_"  style="overflow:visible;"/>
				</clipPath>
				<path style="clip-path:url(#SVGID_00000180366371730001481160000009453785291784951470_);fill:#FFFFFF;" d="M154.8,325.5
					c0.1-1,0.5-1.7,1.1-2.2s1.4-0.7,2.5-0.5l7.6,1.2l0.1,5.1l-5.8-0.9c-0.3,0-0.5,0.1-0.6,0.4l-2.4,15.7c-0.1,0.3,0.1,0.5,0.4,0.6
					l2.4,0.4l1.6-10.5l5.2,0.8l-2.4,15.3l-9.2-1.4c-1.5-0.2-2.6-0.7-3.1-1.5c-0.5-0.7-0.7-1.8-0.4-3.3L154.8,325.5z"/>
			</g>
		</g>
		<g>
			<g>
				<defs>
					<rect id="SVGID_00000142855775397307138070000010994927888894823592_" width="369.9" height="369.9"/>
				</defs>
				<clipPath id="SVGID_00000055702028971511626080000010168121108282775978_">
					<use xlink:href="#SVGID_00000142855775397307138070000010994927888894823592_"  style="overflow:visible;"/>
				</clipPath>
				<polygon style="clip-path:url(#SVGID_00000055702028971511626080000010168121108282775978_);fill:#FFFFFF;" points="
					171.4,324.5 176.9,324.9 175.7,346.7 181.1,347 179.8,351.9 169.9,351.3 				"/>
			</g>
		</g>
		<g>
			<g>
				<defs>
					<rect id="SVGID_00000166648841712117178280000000889866014235130775_" width="369.9" height="369.9"/>
				</defs>
				<clipPath id="SVGID_00000047768868310629121680000002212468369050717112_">
					<use xlink:href="#SVGID_00000166648841712117178280000000889866014235130775_"  style="overflow:visible;"/>
				</clipPath>
				<path style="clip-path:url(#SVGID_00000047768868310629121680000002212468369050717112_);fill:#FFFFFF;" d="M199.3,347.8
					c0,0.5,0,1-0.1,1.5s-0.3,0.9-0.6,1.2c-0.3,0.4-0.7,0.6-1.2,0.9c-0.5,0.2-1.1,0.4-1.8,0.4l-6.3,0.2c-0.7,0-1.4-0.1-1.9-0.2
					s-0.9-0.5-1.2-0.8s-0.5-0.7-0.6-1.2s-0.2-0.9-0.2-1.5l-0.7-19.6c0-1.1,0.2-1.9,0.8-2.6c0.5-0.6,1.4-1,2.7-1l6.7-0.2
					c1.3,0,2.2,0.2,2.8,0.9c0.6,0.6,0.9,1.4,0.9,2.5L199.3,347.8z M185.1,321.4c0-0.8,0.2-1.4,0.7-2s1.1-0.9,1.9-0.9
					c0.8,0,1.4,0.2,1.9,0.8c0.5,0.5,0.8,1.2,0.9,1.9c0,0.8-0.2,1.4-0.7,2s-1.1,0.9-1.9,0.9c-0.8,0-1.4-0.2-2-0.7
					C185.4,322.8,185.1,322.2,185.1,321.4 M190.7,329.7c-0.3,0-0.5,0.2-0.5,0.5l0.6,16.4c0,0.2,0,0.3,0.1,0.4s0.2,0.1,0.4,0.1l2-0.1
					c0.2,0,0.4-0.1,0.4-0.1c0.1-0.1,0.1-0.2,0.1-0.4l-0.6-16.4c0-0.3-0.2-0.5-0.5-0.5L190.7,329.7z M192.4,321.2
					c0-0.8,0.2-1.4,0.7-2s1.1-0.9,1.9-0.9c0.8,0,1.4,0.2,2,0.7s0.8,1.2,0.9,1.9c0,0.8-0.2,1.4-0.7,2s-1.1,0.9-1.9,0.9
					c-0.8,0-1.4-0.2-1.9-0.7C192.7,322.6,192.4,321.9,192.4,321.2"/>
			</g>
		</g>
		<g>
			<g>
				<defs>
					<rect id="SVGID_00000106865059618625184760000005601875487437751424_" width="369.9" height="369.9"/>
				</defs>
				<clipPath id="SVGID_00000163757544976115332470000002263287528118923147_">
					<use xlink:href="#SVGID_00000106865059618625184760000005601875487437751424_"  style="overflow:visible;"/>
				</clipPath>
				<path style="clip-path:url(#SVGID_00000163757544976115332470000002263287528118923147_);fill:#FFFFFF;" d="M218,345
					c0.2,1.5,0.1,2.6-0.5,3.3s-1.6,1.2-3.1,1.4L205,351l-3.8-26.5l10.4-1.5c1.1-0.1,1.9,0,2.5,0.5s1,1.3,1.1,2.2L218,345z
					 M207.1,328.4l2.5,17.2l2.5-0.4c0.2,0,0.4-0.1,0.4-0.2c0.1-0.1,0.1-0.2,0-0.4l-2.3-16.2c-0.1-0.3-0.2-0.5-0.6-0.4L207.1,328.4z"
					/>
			</g>
		</g>
	</g>
	<g>
		<g>
			<g>
				<defs>
					<path id="SVGID_00000146494467517275322940000014737728806173797284_" d="M237.5,324.8c-0.8,0.3-1.6,0.7-2.2,1.3
						c-0.6,0.6-1.1,1.2-1.5,2c-0.4,0.7-0.6,1.5-0.6,2.4c-0.1,0.9,0,1.7,0.4,2.6c0.3,0.8,0.7,1.6,1.3,2.2s1.2,1.1,2,1.5
						s1.5,0.6,2.4,0.7s1.7,0,2.5-0.3s1.6-0.7,2.2-1.3c0.6-0.6,1.1-1.2,1.5-2s0.6-1.5,0.6-2.4c0.1-0.9,0-1.7-0.3-2.5
						c-0.3-0.9-0.7-1.6-1.3-2.3c-0.6-0.6-1.2-1.1-2-1.5s-1.5-0.6-2.4-0.7c-0.2,0-0.3,0-0.5,0C238.8,324.4,238.2,324.5,237.5,324.8"
						/>
				</defs>
				<clipPath id="SVGID_00000038378268267503214190000015565359262217730707_">
					<use xlink:href="#SVGID_00000146494467517275322940000014737728806173797284_"  style="overflow:visible;"/>
				</clipPath>
				
					<linearGradient id="SVGID_00000052798881820641658940000017855945148823003547_" gradientUnits="userSpaceOnUse" x1="-679.3732" y1="718.8397" x2="-674.5542" y2="718.8397" gradientTransform="matrix(1.8957 -1.8957 1.8957 1.8957 160.2218 -2315.0806)">
					<stop  offset="0" style="stop-color:#D0920D"/>
					<stop  offset="0.4969" style="stop-color:#FFFAD3"/>
					<stop  offset="0.9816" style="stop-color:#CB8712"/>
					<stop  offset="1" style="stop-color:#CB8712"/>
				</linearGradient>
				
					<polygon style="clip-path:url(#SVGID_00000038378268267503214190000015565359262217730707_);fill:url(#SVGID_00000052798881820641658940000017855945148823003547_);" points="
					239.6,344 252.6,331 239.6,317.9 226.5,331 				"/>
			</g>
		</g>
	</g>
	<polygon class="st0" points="279.5,325.6 274.7,328.3 269.4,319 266.8,320.5 272.2,329.8 267.5,332.5 254.1,309.3 258.8,306.5 
		264.5,316.5 267.1,315 261.3,305.1 266.1,302.3 	"/>
	<g>
		<g>
			<g>
				<defs>
					<rect id="SVGID_00000049938132319566483180000007517361689605529218_" width="369.9" height="369.9"/>
				</defs>
				<clipPath id="SVGID_00000151515072822314356740000003780592274055706042_">
					<use xlink:href="#SVGID_00000049938132319566483180000007517361689605529218_"  style="overflow:visible;"/>
				</clipPath>
				<path style="clip-path:url(#SVGID_00000151515072822314356740000003780592274055706042_);fill:#FFFFFF;" d="M274.9,310.1
					l4.2-3.1l6.1,8.1c0.2,0.3,0.4,0.3,0.7,0.1l1.6-1.2c0.3-0.2,0.3-0.4,0-0.7l-9.9-13.1l-4.6,3.5l-2.3-4.5l8.2-6.2l13.8,18.3
					c0.6,0.9,0.9,1.8,0.9,2.7c0,1-0.5,1.8-1.5,2.5l-5.1,3.8c-0.8,0.6-1.7,0.9-2.6,0.8s-1.7-0.6-2.3-1.4L274.9,310.1z"/>
			</g>
		</g>
		<g>
			<g>
				<defs>
					<rect id="SVGID_00000078730711239652961540000002624195347665881236_" width="369.9" height="369.9"/>
				</defs>
				<clipPath id="SVGID_00000082333698742063325300000007211912122822282916_">
					<use xlink:href="#SVGID_00000078730711239652961540000002624195347665881236_"  style="overflow:visible;"/>
				</clipPath>
				<path style="clip-path:url(#SVGID_00000082333698742063325300000007211912122822282916_);fill:#FFFFFF;" d="M278.6,288.1
					c-0.5-0.5-0.8-1.2-0.8-1.9c0-0.8,0.3-1.4,0.8-2c0.5-0.5,1.2-0.8,1.9-0.8c0.8,0,1.4,0.3,1.9,0.9c0.5,0.5,0.8,1.2,0.8,2
					s-0.3,1.4-0.8,1.9c-0.6,0.5-1.2,0.8-2,0.8C279.7,288.9,279.1,288.6,278.6,288.1 M283.8,283c-0.5-0.5-0.8-1.2-0.8-2
					s0.3-1.4,0.8-1.9s1.2-0.8,2-0.8s1.4,0.3,1.9,0.8s0.8,1.2,0.8,2s-0.3,1.4-0.8,1.9s-1.2,0.8-1.9,0.8
					C285,283.8,284.3,283.5,283.8,283 M300.9,304.5l2,2.7L299,311l-15.3-22.6l4.1-4l22.2,15.9l-3.9,3.8l-2.7-2L300.9,304.5z
					 M298.3,301l1.8-1.7l-7.6-6L298.3,301z"/>
			</g>
		</g>
		<g>
			<g>
				<defs>
					<rect id="SVGID_00000072265088984175403490000002396517608781152155_" width="369.9" height="369.9"/>
				</defs>
				<clipPath id="SVGID_00000158727114875435189280000009067096815303494047_">
					<use xlink:href="#SVGID_00000072265088984175403490000002396517608781152155_"  style="overflow:visible;"/>
				</clipPath>
				<path style="clip-path:url(#SVGID_00000158727114875435189280000009067096815303494047_);fill:#FFFFFF;" d="M313.4,278.7
					c0.5,0.4,0.8,0.9,0.9,1.5s0,1.2-0.5,1.9l8.5,3.1l-3.4,4.4l-8.3-3.2l-0.4,0.5l6.7,5.3l-3.3,4.2l-21.1-16.6l6.3-8
					c0.8-1,1.6-1.5,2.4-1.6c0.9-0.1,1.7,0.2,2.5,0.9L313.4,278.7z M299.4,278.4l7.3,5.7l1.6-2.1c0.2-0.3,0.2-0.5-0.1-0.8l-6.4-5
					c-0.3-0.2-0.5-0.2-0.8,0.1L299.4,278.4z"/>
			</g>
		</g>
		<g>
			<g>
				<defs>
					<rect id="SVGID_00000047058029171760677270000017765863151751714745_" width="369.9" height="369.9"/>
				</defs>
				<clipPath id="SVGID_00000027569960826529710310000008359233398112883092_">
					<use xlink:href="#SVGID_00000047058029171760677270000017765863151751714745_"  style="overflow:visible;"/>
				</clipPath>
				<polygon style="clip-path:url(#SVGID_00000027569960826529710310000008359233398112883092_);fill:#FFFFFF;" points="
					307.8,257.6 312.8,259.1 310.9,262.2 329.6,273.5 326.7,278.2 308.1,266.8 306.2,269.9 302.7,266.1 				"/>
			</g>
		</g>
		<g>
			<g>
				<defs>
					<rect id="SVGID_00000049212329048508051850000012803725726006456481_" width="369.9" height="369.9"/>
				</defs>
				<clipPath id="SVGID_00000026879006430562655940000010085484730820478114_">
					<use xlink:href="#SVGID_00000049212329048508051850000012803725726006456481_"  style="overflow:visible;"/>
				</clipPath>
				<path style="clip-path:url(#SVGID_00000026879006430562655940000010085484730820478114_);fill:#FFFFFF;" d="M331.9,262.2
					l2.8,1.9l-2.3,4.9l-22.1-16l2.5-5.2L339,255l-2.3,4.9l-3.2-1L331.9,262.2z M328.3,259.8l1.1-2.2l-9.1-3L328.3,259.8z"/>
			</g>
		</g>
	</g>
	<g>
		<g>
			<g>
				<defs>
					<path id="SVGID_00000169538449795214224060000017098751391856672904_" d="M314.8,185.6c4.5,12.3,4.9,12.6,7,19.2
						c10.2,0,15.2,0,26.6,0c2.1-6.6,4.3-12.2,6.8-18.4c-13.3,17.4-17.5,6-20.6-12.5C331.7,192.3,328,203.6,314.8,185.6"/>
				</defs>
				<clipPath id="SVGID_00000183237121148115494160000010538169706176704958_">
					<use xlink:href="#SVGID_00000169538449795214224060000017098751391856672904_"  style="overflow:visible;"/>
				</clipPath>
				
					<linearGradient id="SVGID_00000122699063130179986950000010346893238355814333_" gradientUnits="userSpaceOnUse" x1="-607.4839" y1="372.7223" x2="-602.6682" y2="372.7223" gradientTransform="matrix(8.3892 0 0 8.3892 5411.104 -2937.4922)">
					<stop  offset="0" style="stop-color:#D0920D"/>
					<stop  offset="0.4969" style="stop-color:#FFFAD3"/>
					<stop  offset="0.9816" style="stop-color:#CB8712"/>
					<stop  offset="1" style="stop-color:#CB8712"/>
				</linearGradient>
				
					<rect x="314.8" y="173.9" style="clip-path:url(#SVGID_00000183237121148115494160000010538169706176704958_);fill:url(#SVGID_00000122699063130179986950000010346893238355814333_);" width="40.4" height="30.9"/>
			</g>
		</g>
	</g>
	<g>
		<g>
			<g>
				<defs>
					<rect id="SVGID_00000029041715644564192090000007477270019859931306_" x="322.2" y="206.3" width="25.8" height="4.4"/>
				</defs>
				<clipPath id="SVGID_00000087370733254430578550000017206800270595295115_">
					<use xlink:href="#SVGID_00000029041715644564192090000007477270019859931306_"  style="overflow:visible;"/>
				</clipPath>
				
					<linearGradient id="SVGID_00000176736475417493063210000010889641236363882929_" gradientUnits="userSpaceOnUse" x1="-543.666" y1="416.2505" x2="-538.8489" y2="416.2505" gradientTransform="matrix(5.356 0 0 5.356 3234.0247 -2020.9375)">
					<stop  offset="0" style="stop-color:#D0920D"/>
					<stop  offset="0.4969" style="stop-color:#FFFAD3"/>
					<stop  offset="0.9816" style="stop-color:#CB8712"/>
					<stop  offset="1" style="stop-color:#CB8712"/>
				</linearGradient>
				
					<rect x="322.2" y="206.3" style="clip-path:url(#SVGID_00000087370733254430578550000017206800270595295115_);fill:url(#SVGID_00000176736475417493063210000010889641236363882929_);" width="25.8" height="4.4"/>
			</g>
		</g>
	</g>
	<g>
		<g>
			<defs>
				<rect id="SVGID_00000047017615794197806330000003582284393603729808_" width="369.9" height="369.9"/>
			</defs>
			<clipPath id="SVGID_00000006668962514482353420000007013321655242588584_">
				<use xlink:href="#SVGID_00000047017615794197806330000003582284393603729808_"  style="overflow:visible;"/>
			</clipPath>
			<path style="clip-path:url(#SVGID_00000006668962514482353420000007013321655242588584_);fill:#911004;" d="M156.6,266.9
				c-13.8,0-33.2-1.4-43.2-13.5l-5.2-6.3l7.2,3.9c2.3,1.2,4.2,1,6-0.9c3.1-3.4,7.9-14.8,4.7-53.3c-0.3-3.9-9.5-8.3-15.2-10.2
				l-4.6-1.5l4.6-1.5c5.7-1.9,14.9-6.3,15.2-10.2c3.2-38.6-1.6-50-4.7-53.3c-1.7-1.9-3.7-2.1-6-0.9l-7.2,3.9l5.2-6.3
				c10-12.1,29.5-13.5,43.2-13.5c1.7,0,3.3,0,4.7,0c1.1,0,2.1,0,2.9,0h7l-5.9,3c-4.1,2.1-4.1,16-3.7,40.3c0.1,3.3,0.3,14.3,0.4,20.6
				c12.4-17.1,28.6-41,34.2-50.3c4.1-6.7,3.9-8.2,3.5-9.1l-3.4-2.7h4.6c20.2,0,29-4.4,47,14.1l1,1.8l0.9,5.5l-5.3-3.8
				c-0.9-0.6-1.7-0.9-2.5-0.9c-5.7,0-17.8,20.5-39.8,45.8c-6.7,7.7-12.5,11.3-19.9,13.6c12.9,3,20.2,9.3,31,20.4l5.9,6.1
				c22.1,23,29.3,35.3,35,35.3c0.9,0,1.8-0.3,2.7-0.9l4.5-0.4l-2.6,3c-12,15.9-22.2,20.5-48.1,20.5h-4.9l3.9-2.8
				c0.6-1.1,1.4-7.2-3.6-13.7c-3-3.9-7.4-9.8-12.5-16.7c-9.2-12.5-22.9-27.7-31.4-37.9c-0.1,5-0.2,12.8-0.4,19.4
				c-0.1,4.6-0.2,8.5-0.2,10.1c-0.4,24.3-0.4,38.2,3.7,40.3l5.9,3h-7c-0.9,0-1.8,0-2.9,0C159.9,266.9,158.3,266.9,156.6,266.9"/>
		</g>
	</g>
	<g>
		<g>
			<defs>
				<rect id="SVGID_00000037690717427478998650000005547863580399618704_" width="369.9" height="369.9"/>
			</defs>
			<clipPath id="SVGID_00000063602832375258324290000009907361050717980809_">
				<use xlink:href="#SVGID_00000037690717427478998650000005547863580399618704_"  style="overflow:visible;"/>
			</clipPath>
			<path style="clip-path:url(#SVGID_00000063602832375258324290000009907361050717980809_);" d="M115.3,252.8
				c9.7,11,28.2,12.3,41.3,12.3c1.5,0,2.9,0,4.2,0h0.5c1,0,1.9,0,2.8,0c-4.3-3-4.5-14.2-4.1-41.6c0-1.4,0.1-4.5,0.2-8.3l0.1-2.1
				c0.1-6.6,0.3-14.2,0.4-19.1l0.1-4.8l3.1,3.7c8.4,10.3,22.3,25.6,31.4,38c5.1,6.9,9.4,12.8,12.4,16.7c5.4,7,4.6,14,3.7,15.6
				l-0.1,0.2c47.3-4,36.2-3.6,47.8-18.7c-1,0.5-3.6,0-4.7,0c-6.5,0-13.2-11.7-36.3-35.8l-5.9-6.2c-11.1-11.5-18.1-17.1-30.1-19.9
				l-6.3-1.5l6.1-1.9c7.6-2.4,13-6.1,19.1-13.1c23.6-27.1,34.7-46.4,41.1-46.4c1,0,1.9,0.2,2.9,0.8c-16.1-20.4-23.9-14-43.5-14
				l0.1,0.3c0.7,1.8,0.5,3.9-3.6,10.7c-5.6,9.2-21.7,33.1-34.3,50.5l-3.1,4.2l-0.1-5.2c-0.1-6.4-0.4-17.3-0.4-20.6
				c-0.4-27.3-0.2-38.5,4.1-41.6c-0.8,0-1.7,0-2.8,0c-1.4,0-2.9,0-4.6,0c-13.2,0-31.6,1.3-41.3,12.2c2.7-1.2,5.3-0.6,7.4,1.7
				c4,4.4,8.2,17.4,5.1,54.7c-0.5,5.8-13.2,10.6-15.9,11.5c2.7,0.9,15.4,5.7,15.9,11.5c3.1,37.3-1.1,50.3-5.1,54.7
				C120.6,253.4,118,254,115.3,252.8"/>
		</g>
	</g>
	<g>
		<g>
			<defs>
				<rect id="SVGID_00000127744061728007368540000001287660345940287129_" width="369.9" height="369.9"/>
			</defs>
			<clipPath id="SVGID_00000170254719197260579690000015628976100816565901_">
				<use xlink:href="#SVGID_00000127744061728007368540000001287660345940287129_"  style="overflow:visible;"/>
			</clipPath>
			
				<path style="clip-path:url(#SVGID_00000170254719197260579690000015628976100816565901_);fill:none;stroke:#000000;stroke-width:0.3473;stroke-miterlimit:10;" d="
				M115.3,252.8c9.7,11,28.2,12.3,41.3,12.3c1.5,0,2.9,0,4.2,0h0.5c1,0,1.9,0,2.8,0c-4.3-3-4.5-14.2-4.1-41.6c0-1.4,0.1-4.5,0.2-8.3
				l0.1-2.1c0.1-6.6,0.3-14.2,0.4-19.1l0.1-4.8l3.1,3.7c8.4,10.3,22.3,25.6,31.4,38c5.1,6.9,9.4,12.8,12.4,16.7
				c5.4,7,4.6,14,3.7,15.6l-0.1,0.2c47.3-4,36.2-3.6,47.8-18.7c-1,0.5-3.6,0-4.7,0c-6.5,0-13.2-11.7-36.3-35.8l-5.9-6.2
				c-11.1-11.5-18.1-17.1-30.1-19.9l-6.3-1.5l6.1-1.9c7.6-2.4,13-6.1,19.1-13.1c23.6-27.1,34.7-46.4,41.1-46.4c1,0,1.9,0.2,2.9,0.8
				c-16.1-20.4-23.9-14-43.5-14l0.1,0.3c0.7,1.8,0.5,3.9-3.6,10.7c-5.6,9.2-21.7,33.1-34.3,50.5l-3.1,4.2l-0.1-5.2
				c-0.1-6.4-0.4-17.3-0.4-20.6c-0.4-27.3-0.2-38.5,4.1-41.6c-0.8,0-1.7,0-2.8,0c-1.4,0-2.9,0-4.6,0c-13.2,0-31.6,1.3-41.3,12.2
				c2.7-1.2,5.3-0.6,7.4,1.7c4,4.4,8.2,17.4,5.1,54.7c-0.5,5.8-13.2,10.6-15.9,11.5c2.7,0.9,15.4,5.7,15.9,11.5
				c3.1,37.3-1.1,50.3-5.1,54.7C120.6,253.4,118,254,115.3,252.8z"/>
		</g>
	</g>
	<g>
		<g>
			<defs>
				<path id="SVGID_00000085962727602329416980000001342306259697381795_" d="M114.4,117.6c6.8-3.7,17.5,1.2,13,55.8
					c-0.5,6.4-16.3,11.6-16.3,11.6s15.8,5.2,16.3,11.6c4.5,54.5-6.2,59.5-13,55.8c10.9,13.3,34.5,13.1,46.2,12.9c1.5,0,2.8,0,3.8,0
					c-4.9-2.5-5-14.7-4.6-41.7c0.1-4.7,0.7-29.3,0.6-33.7c12.9,14.9,37.5,46.1,46.7,57.9c5.7,7.4,4.5,15,3.4,15.8
					c21.9,0,47.1-4,46.9-19.9c0-0.1,0.3-0.7,0.3-0.8c-7.3,4.7-13.1-6.3-45.8-40.3c-11.8-12.3-16.5-16.5-33-21.2
					c10.1-5.2,13.2-5,21.9-14.9c29.2-33.5,38.2-50.1,44.5-45.1c4.4,2.8,3.9-0.9,3.8-1c-10.5-15.5-28.8-13.8-48.3-13.8
					c1.1,0.8,1.4,3.4-3.3,11.1c-6.4,10.5-24.3,37-37,54.2c-0.1-1.1-0.5-20.6-0.6-25.3c-0.4-27.1-0.3-39.2,4.6-41.7
					c-1.1,0-2.3,0-3.8,0c-1.3,0-2.7,0-4.2,0C143.9,104.7,124.1,105.9,114.4,117.6"/>
			</defs>
			<clipPath id="SVGID_00000183215726611244686270000000259463504948340892_">
				<use xlink:href="#SVGID_00000085962727602329416980000001342306259697381795_"  style="overflow:visible;"/>
			</clipPath>
			
				<radialGradient id="SVGID_00000152226176242122772690000002409973741039682432_" cx="-565.1122" cy="414.7897" r="14.2034" gradientTransform="matrix(5.4131 0 0 5.4131 3243.3586 -2060.3105)" gradientUnits="userSpaceOnUse">
				<stop  offset="0" style="stop-color:#E30613"/>
				<stop  offset="0.381" style="stop-color:#E20613"/>
				<stop  offset="0.5472" style="stop-color:#DD0812"/>
				<stop  offset="0.6716" style="stop-color:#D40A11"/>
				<stop  offset="0.7752" style="stop-color:#C80C0F"/>
				<stop  offset="0.8659" style="stop-color:#B80E0C"/>
				<stop  offset="0.9461" style="stop-color:#A41008"/>
				<stop  offset="1" style="stop-color:#931004"/>
			</radialGradient>
			
				<rect x="111.1" y="98.9" style="clip-path:url(#SVGID_00000183215726611244686270000000259463504948340892_);fill:url(#SVGID_00000152226176242122772690000002409973741039682432_);" width="146.5" height="166.7"/>
		</g>
	</g>
	<g>
		<g>
			<g>
				<defs>
					<path id="SVGID_00000139972538682302847140000001263474094780201898_" d="M247,121l-0.3-0.5L247,121z M119.1,254.7
						c1.6-0.3,3.1-1.2,4.4-2.6c6.1-6.7,8-25.4,5.5-55.7c-0.4-5.2-8.3-9.3-13.4-11.4c5.1-2.1,12.9-6.2,13.4-11.4
						c2.5-30.3,0.6-49.1-5.5-55.8c-1.3-1.4-2.8-2.2-4.4-2.6c11.2-9,30.5-9,37.3-9c1.6,0,3.1,0,4.4,0c-2.9,5.5-2.9,17.5-2.6,40.2
						c0.1,4.7,0.5,24.2,0.6,25.3l0.2,4.4l2.7-3.6c13.2-17.8,31-44.2,37.1-54.3c3.3-5.4,4.7-7.5,4.4-10.7
						c17.9-2.1,42.3,2.4,44.5,13.9c-0.3-0.2-0.5-0.4-0.8-0.6c-10.3-7.2-23.4,16.8-47.4,44.3c-8.2,9.4-22.7,16-22.7,16
						s21.9,9.8,33.9,22.3l5.9,6.1c23.4,24.4,33.6,40.6,40.6,35c-2.8,12.3-22.9,16.8-44.5,17.1c0-0.1,0.1-0.3,0.1-0.4
						c0.5-3.6-0.4-9.4-4.5-14.8c-3-3.9-7.4-9.8-12.4-16.6c-10.3-14-25.6-31.3-34.3-41.4l-2.8-3.3v4.3c0,2.9-0.3,14.9-0.4,23.6
						c-0.1,4.6-0.2,8.5-0.2,10.1c-0.3,22.7-0.4,34.7,2.6,40.2c-1.3,0-2.8,0-4.4,0C149.6,263.7,130.4,263.7,119.1,254.7 M113.2,116.6
						L108,123l7.2-3.9c2.3-1.2,4.2-0.9,6,0.9c3.1,3.4,7.8,14.8,4.7,53.3c-0.3,3.9-9.5,8.3-15.2,10.2l-4.6,1.5l4.6,1.5
						c5.7,1.9,14.9,6.3,15.2,10.2c3.2,38.5-1.6,50-4.7,53.3c-1.7,1.9-3.7,2.1-6,0.9L108,247l5.2,6.3c10,12.1,29.5,13.5,43.2,13.5
						c1.7,0,3.3,0,4.7,0c1.1,0,2.1,0,2.9,0h7l-5.9-3c-4.1-2.1-4.1-16-3.7-40.3c0-1.6,0.1-5.5,0.2-10.1c0.1-6.6,0.3-14.4,0.4-19.4
						c8.4,10.2,22.1,25.4,31.4,37.9c5.1,6.9,9.4,12.8,12.5,16.7c5,6.4,4.1,12.6,3.6,13.7l-3.9,2.8l7.7-0.2
						c32.6,0.3,49.2-9,49.2-25.4l-5.8,2.5c-0.9,0.6-1.8,0.8-2.7,0.8c-5.8,0-12.9-12.3-35-35.3l-5.9-6.1c-10.7-11.1-18-17.4-31-20.4
						c7.4-2.3,13.2-5.9,19.9-13.6c22-25.3,34.1-45.8,39.8-45.8c0.9,0,1.7,0.3,2.5,0.9l5.3,3.8c3.9-13.8-19.2-26.4-53.5-21.4l3.4,2.7
						c0.4,1,0.5,2.4-3.5,9.1c-5.7,9.4-21.8,33.2-34.2,50.4c-0.2-6.3-0.4-17.3-0.4-20.6c-0.4-24.3-0.4-38.2,3.7-40.3l5.9-3h-7
						c-0.9,0-1.8,0-2.9,0c-1.4,0-3,0-4.7,0C142.6,103.1,123.2,104.5,113.2,116.6"/>
				</defs>
				<clipPath id="SVGID_00000101805588869774079820000014758748996982209965_">
					<use xlink:href="#SVGID_00000139972538682302847140000001263474094780201898_"  style="overflow:visible;"/>
				</clipPath>
				
					<linearGradient id="SVGID_00000157278894477635545620000016870532518070520759_" gradientUnits="userSpaceOnUse" x1="-694.7209" y1="319.2912" x2="-689.9033" y2="319.2912" gradientTransform="matrix(32.464 0 0 32.464 22659.5195 -10182.0713)">
					<stop  offset="0" style="stop-color:#D0920D"/>
					<stop  offset="0.1963" style="stop-color:#FFFAD3"/>
					<stop  offset="0.3926" style="stop-color:#D29B08"/>
					<stop  offset="0.6503" style="stop-color:#F9F1BC"/>
					<stop  offset="0.9816" style="stop-color:#CB8712"/>
					<stop  offset="1" style="stop-color:#CB8712"/>
				</linearGradient>
				
					<rect x="106.1" y="99.9" style="clip-path:url(#SVGID_00000101805588869774079820000014758748996982209965_);fill:url(#SVGID_00000157278894477635545620000016870532518070520759_);" width="156.4" height="167"/>
			</g>
		</g>
	</g>
</g>
</svg>
