<?xml version="1.0" encoding="UTF-8"?><svg id="Lager_2" xmlns="http://www.w3.org/2000/svg" viewBox="0 0 200 200"><defs><style>.cls-1{fill:none;}.cls-2,.cls-3{fill:#fff;}.cls-4{fill:#e73137;}.cls-5{fill:#fed68f;}.cls-6{fill:#7c7c7b;}.cls-6,.cls-7{stroke:#000;stroke-width:1.31px;}.cls-3{stroke:#fff;stroke-width:.41px;}</style></defs><g id="Lager_1-2"><path class="cls-3" d="m101.02,196.81c-.36,0-.73-.06-1.08-.18-.55-.18-1.02-.53-1.34-1.01-.94-1.36-1.76-2.63-2.35-4.23-1.32-2.54-2.84-4.88-4.44-7.35-.49-.76-.98-1.52-1.47-2.29-1.09-1.37-2.47-2.58-3.92-3.86-.27-.24-.54-.48-.81-.72-.07.1-.14.19-.22.28-.56.63-1.36.99-2.19.99s-1.45-.35-1.75-.52c0,0-.02,0-.03-.01-1.43-.64-2.63-1.53-3.69-2.32-.56-.41-1.08-.81-1.59-1.12-1.73-.78-3.53-1.69-4.98-3.34,0,0,0,0-.01-.01-.08.39-.26.77-.51,1.08-.58.74-1.44,1.16-2.35,1.16-.1,0-.2,0-.3-.02-.18.04-.36.06-.54.06-.08,0-.16,0-.24-.01-.48-.04-.9-.17-1.27-.32-1.51,1.73-3,3.52-4.46,5.26-2.54,3.04-5.16,6.19-7.97,9.12-.5.52-1.18.81-1.9.81,0,0-36.93,0-36.94,0-1.79-.03-3.59-.1-5.51-.2-.15,0-.31-.03-.46-.06-.15.02-.32.04-.52.04-.08,0-.16,0-.24-.01-.1.01-.2.02-.31.02-.08,0-.16,0-.24,0-.05,0-.1,0-.16,0h0c-.1,0-.2,0-.29-.02-.09,0-.18.01-.28.01-.06,0-.12,0-.19,0-.08,0-.16-.01-.24-.01-.3-.02-.64-.04-1.01-.09-.02,0-.13,0-.17,0-.11.01-.22.02-.33.02-.1,0-.2,0-.3-.02-.1.01-.2.02-.29.02-.17,0-.35-.02-.52-.05-.09,0-.19.01-.3.01-.38,0-.75-.06-1.09-.19-.96-.36-1.63-1.25-1.7-2.27-.06-.93,0-1.82.05-2.6.04-.56.07-1.09.05-1.5,0-.09,0-.18,0-.27,0-.15.01-.29.02-.43.01-.35.03-.72.07-1.15-.03-.24-.03-.48,0-.72.13-.92.1-2,.06-3.13-.02-.79-.05-1.61-.02-2.45l.07-5.67c0-.63.24-1.24.67-1.71.81-.91,1.94-1.43,3.08-1.43.28,0,.56.04.82.13.21-.04.42-.06.64-.06.8,0,1.49.26,2.03.56.29.04.61.07.95.1.66.06,1.4.12,2.14.32.61.03,1.14.11,1.61.18.32.05.59.09.84.11.06,0,.12.01.17.02,0,0,11.44,1.61,11.46,1.61,2.34.39,4.93.73,7.44,1.07,2.11.28,4.29.58,6.34.89,1.51.26,3.03.48,4.36.68.05,0,.09,0,.14,0,.5,0,.96.08,1.32.14.13.02.26.04.39.06.03,0,.06,0,.09.01,1.57.24,3.12.42,4.99.59.67-.23,1.31-.61,2.08-1.08.08-.05.15-.09.23-.14,1.37-1.58,2.64-3.08,3.85-4.54-1.03-1.05-1.87-2.07-2.53-3.08-.45.25-.98.4-1.54.4-.69,0-1.36-.23-1.9-.64-1.7-1.25-2.86-2.8-3.99-4.3-.55-.74-1.08-1.44-1.64-2.07-.44-.44-.84-.87-1.2-1.31-.5-.01-.98-.16-1.39-.43-2.58-1.69-3.94-4.06-5.14-6.15-.45-.78-.87-1.51-1.33-2.18-.12-.18-.23-.38-.3-.58-.77-2.11-1.24-4.29-1.62-6.45-.35.16-.7.32-1.04.48-.34.15-.71.23-1.08.23-.4,0-.81-.09-1.18-.28-1.73-.86-2.03-2.55-1.58-3.76,0-.02.03-.07.03-.07.21-.69.53-1.19.88-1.54.19-.3.43-.57.7-.81.01-.02.03-.05.04-.07.04-.08.1-.18.13-.23.09-.31.24-.61.44-.86.03-.1.07-.21.11-.33l.88-3.7c-.28-2.21-.08-4.51.59-7.01.08-.31.12-.77.15-1.25.07-.93.15-2.09.67-3.21.17-.52.35-1.04.53-1.55.5-1.43.97-2.79,1.28-4.22.04-.2.11-.39.19-.58,1.18-2.49,2.91-4.66,4.68-6.72-.26.05-.52.09-.77.14-.6.11-1.17.21-1.72.33-.62.15-1.26.23-1.9.23-2.4,0-4.41-1.09-6.03-1.97l-.33-.18c-1.01-.55-1.55-1.69-1.33-2.82l.13-.65c.18-.91.83-1.66,1.71-1.96,1.05-.36,2.07-1.02,3.16-1.7,1.39-.88,2.96-1.88,4.86-2.43,3.79-1.07,6.65-4.29,8.4-6.82.46-.72.95-1.4,1.43-2.06,1.09-1.51,2.12-2.93,2.53-4.43.01-.05.03-.1.04-.14.11-.34.23-.68.34-1.02.45-1.39.92-2.83,1.7-4.21.37-.74.9-1.48,1.48-2.06.06-.1.13-.19.21-.29-.15-1.51-.12-3.14-.05-4.63-.05-.27-.06-.55-.02-.83.08-.6.14-1.2.2-1.78.13-1.28.26-2.59.62-4l-1.27-1.93-6.27-9.45c-2.21-3.23-4.58-6.74-6.84-10.29l-6.36-9.47-6.2-9.05c-.29.13-.61.21-.93.23l-.59.03s-.1,0-.15,0c-.79,0-1.54-.36-2.04-.97-1.13-1.39-2.29-2.82-3.36-4.33-.83-1.17-.56-2.78.6-3.63,3.18-2.32,6.27-4.58,9.39-6.87.47-.34,1.02-.51,1.56-.51.78,0,1.56.35,2.08,1.01.65.83,1.3,1.69,1.93,2.53.42.55.83,1.11,1.25,1.65.14.18.25.38.34.59.22.52.75,2.26-.94,3.69l1.97,2.76,8.37,11.72,7.7,10.92c1.41,2.06,2.86,4.12,4.27,6.12.21.3.42.6.64.91.22-.42.43-.85.65-1.29.67-1.35,1.37-2.75,2.29-4.14,0,0,0,0,0-.01-2.82-2.78-5.25-5.66-7.19-8.05-.02-.03-.05-.06-.07-.09-3.29-4.43-6.13-9.1-8.53-13.12-.07-.11-.12-.22-.17-.34-.2-.49-.42-.98-.64-1.48-.79-1.77-1.68-3.77-1.99-6.05-.03-.16-.07-.32-.1-.49-.31-1.43-.82-3.81.95-5.75.03-.03.14-.15.14-.15.5-.5,1.18-.77,1.87-.77.27,0,.54.04.81.13,2.43.78,4,2.73,5.26,4.29.35.43.68.84.99,1.18,1.61,1.76,3.51,3.09,5.52,4.5,1.03.72,2.1,1.47,3.16,2.29.39.26.78.54,1.17.81,1.36.95,2.64,1.86,3.92,2.22.2.06.4.14.58.24.88.5,1.86.73,3.1,1.01l.5.12c.33.07.66.14.99.22.59.13,1.19.26,1.79.38.26-.09.54-.13.82-.13.05,0,.11,0,.17,0h.41c.12,0,.33,0,.58.02,2.25-1.73,4.5-3.48,6.68-5.18l.67-.52c.21-.17.45-.3.7-.39.6-.22,1.27-.72,1.97-1.25.97-.73,2.07-1.55,3.46-2.02,1.99-1.14,4.02-1.89,5.99-2.61.52-.19,1.04-.39,1.57-.59,1.36-1.08,2.92-1.19,4-1.27.45-.03.87-.06,1.14-.15.24-.07.5-.11.75-.11.15,0,.3.01.45.04.51.09,1,.18,1.49.27,1.31.24,2.55.47,3.89.63.2.02.39.07.57.13.77.27,1.44.64,2.02.96.67.37,1.25.69,1.72.73.36.04.71.15,1.03.32.52.29,1.09.57,1.68.87,1.33.66,2.84,1.4,4.18,2.5.53.44,1.05.84,1.6,1.26.95.73,1.93,1.49,2.93,2.42.01.01.02.02.04.03.16.09.31.2.44.32.72.64,1.47,1.29,2.23,1.95,1.09.94,2.21,1.92,3.28,2.88,0,0,.01.01.02.02.13.07.23.15.31.21.19-.03.39-.07.59-.1.85-.15,1.81-.32,2.87-.32.1,0,.2,0,.3,0,1.74-.22,3.44-.85,5.23-1.52l.7-.26c.48-.2.99-.49,1.52-.79.26-.15.52-.3.79-.44.43-.27.85-.38,1.11-.44h.03c3-1.31,5.68-3.04,7.96-5.14.09-.08.19-.16.29-.23,2.57-1.77,5.07-4.11,7.24-6.76.36-.44.85-.75,1.4-.89.29-.07.67-.15,1.13-.15.7,0,1.37.2,1.98.58,1.36.85,1.88,2.22,1.54,4.04,0,.04-.01.08-.02.11.04.32.03.65-.05.96-.95,3.88-2.73,7.26-4.46,10.52-.35.67-.7,1.33-1.05,2.01-.01.03-.03.06-.04.08-1.8,3.2-3.8,6.3-5.96,9.22-.07.1-.15.19-.23.27-.51.52-1.01,1.03-1.51,1.55-2.23,2.29-4.34,4.46-6.7,6.58-.06.08-.13.15-.2.22.61.74.86,1.55,1.04,2.09.05.15.12.36.15.43.07.13.12.25.17.39.19.55.48,1.13.77,1.74.1.2.2.41.31.63,0,0,2.51-3.26,2.52-3.27,0,0,8.27-10.41,8.29-10.43l1.09-1.3c5.01-6,9.77-11.7,14.37-17.65-.03-.03-.06-.06-.09-.09-.84-.79-1.07-2.05-.55-3.08.32-.63.77-1.23,1.29-1.7.53-.83,1.15-1.56,1.7-2.22.26-.3.51-.6.74-.9.44-.57,1.09-.93,1.81-1,.09,0,.18-.01.27-.01.62,0,1.22.22,1.7.62.75.63,1.54,1.23,2.38,1.86.71.53,1.44,1.08,2.15,1.66.28.19.54.38.79.57.27.2.52.39.73.52.08.05.16.1.23.16l.22.17c.91.7,1.86,1.42,2.72,2.18,1.03.91,1.18,2.44.36,3.54-.11.14-.2.27-.29.39-.24.34-.51.71-.88,1.1-.09.18-.19.34-.32.49l-1.94,2.36c-.52.63-1.28.96-2.04.96-.53,0-1.07-.16-1.52-.49-.17.2-.31.38-.44.57-.04.06-.08.11-.13.16l-13.55,16.08c-3.06,3.81-6.11,7.74-9.06,11.55-2.74,3.54-5.57,7.18-8.46,10.79.05.22.09.42.12.61.07.36.13.68.22.94.05.14.08.28.1.42.51,3.16.62,6.62.69,9.88,0,.06,0,.13,0,.19-.02.44-.08.88-.14,1.3.05.1.09.21.13.33.07.12.13.25.18.38.68,1.82,1.84,3.42,3.45,4.76.17.14.32.3.45.48,1.01,1.39,1.68,2.83,2.32,4.23.56,1.21,1.09,2.36,1.8,3.35.08.12.16.24.22.37.18.38.36.76.54,1.14.87,1.88,1.62,3.49,3.12,4.33.03.02.06.04.09.06,1.79,1.1,3.34,2.41,4.83,3.68.36.31.73.62,1.1.93.56.36.97.54,1.33.59.92.13,1.7.73,2.05,1.58.6,1.43.15,2.48-.17,2.98-.85,1.32-2.29,1.38-2.79,1.4-.12.03-.25.05-.37.06-.49.05-1,.07-1.53.07-1.73,0-3.45-.24-5.13-.52.06.09.11.18.17.27,3.16,3.39,5.11,7.17,7.16,11.39.04.08.08.17.11.26,1.07,2.98,2.3,6.96,2.42,11.39,0,.1,0,.2,0,.3-.32,3.59-1.22,6.91-2.2,10.29-.25.85-.9,1.51-1.73,1.77-.02.58-.05,1.15-.08,1.7-.02.46-.05.91-.06,1.35,0,.21-.04.42-.1.63-.52,1.76-1.14,3.45-1.89,5.16-.1.22-.23.43-.39.62-.47.57-.92,1.2-1.39,1.87-.89,1.27-1.82,2.58-3.11,3.74-.41.37-.92.6-1.47.66-.12.01-.23.02-.34.02s-.22,0-.33-.02c-.38.48-.76.93-1.15,1.36-.14.26-.33.49-.56.71-.26.44-.71,1.09-1.45,1.55-1.35,1.57-2.98,2.74-4.69,3.36-.36.3-1.04.76-2.03.76-.1,0-.2,0-.29-.01-.05.14-.11.27-.18.4-.16.28-.31.6-.48.95-.59,1.22-1.32,2.73-2.83,3.82l-1.88,1.37c.22.26.44.59.59.99.55.65,1.3,1.12,2.31,1.44,1.27-.11,2.54-.25,3.77-.39,1.5-.17,3.03-.35,4.59-.46.44-.25.91-.38,1.42-.38.31,0,.62.05.92.15.8-.09,1.59-.17,2.39-.26,2.66-.29,5.42-.59,8.21-.93.11-.01.22-.02.33-.02.16,0,.33.02.49.04l2.63-.25c.36-.12.75-.19,1.16-.19h.1s.06,0,.09-.01c3.04-.39,6.09-.72,9.04-1.04,2.83-.31,5.76-.62,8.67-.99.11-.01.22-.02.33-.02.14,0,.39-.03.63-.06.4-.05.86-.11,1.37-.11.79,0,1.48.14,2.13.42.69.3,1.21.87,1.45,1.58.13.39.15.73.15.92.07.63-.09,1.27-.45,1.79,0,0,0,0,0,0,0,.16-.03.32-.06.5-.22,5.28-.43,10.75-.65,16.21l-.03.72c-.06,1.41-1.22,2.52-2.63,2.52,0,0-42.48-.07-42.5-.07-.79-.02-1.52-.03-2.24-.03-.99,0-1.81.03-2.56.09-.07,0-.14,0-.21,0-.22,0-.43-.03-.64-.08-1.77-.44-2.38-1.88-2.65-2.5-.02-.04-.04-.09-.06-.13-.02-.02-.03-.04-.05-.07-1.9-2.66-3.76-5.39-5.56-8.03-1.34-1.97-2.73-4-4.11-5.98-.15-.07-.29-.14-.42-.22-.83-.06-1.57-.5-2.02-1.18-1.61,1.08-3.14,1.84-4.73,2.36-1.69.89-2.62,1.69-3.19,2.71-.35.63-.94,1.08-1.63,1.27-.28.07-.56.11-.84.11-.97,0-2.29-.4-3.09-2.29l-.03-.07c-.11-.22-.19-.45-.24-.69-.1-.51-.17-1.02-.2-1.52-1,1.1-2.02,2.16-3.02,3.2-2.86,2.97-5.57,5.78-7.41,9.02l-3.1,5.58c.15.85-.11,1.65-.51,2.22-.42.61-1.07,1-1.78,1.1-.38.22-1.01.53-1.85.53Z"/><path d="m36.21,10.71c.23.55-.29.72-.59.98-.42-.1-.23.42-.55.49-.2.03-.49.13-.59.26-.13.1-.62.13-.39.39l3.43,4.83,8.32,11.68,7.64,10.87c2.32,3.39,4.73,6.79,7.08,10.18h.13c2.12-2.81,3.03-5.84,4.89-8.65,1.04-.03,1.99.33,2.97.59l.23-.69c-3.92-3.26-7.31-7.11-10.47-11.03-3.07-4.14-5.74-8.52-8.32-12.86-.91-2.22-2.12-4.4-2.45-6.92-.23-1.27-.82-2.94.2-4.05l.06-.07c2.22.72,3.62,3.13,5.09,4.73,2.68,2.94,5.94,4.7,9.01,7.11,1.89,1.27,3.72,2.81,5.87,3.43,1.37.78,2.77,1.04,4.31,1.4,1.53.33,3.13.72,4.7.91,0-.26-.36-.26-.55-.39.52.03,1.08-.1,1.47.26h.26c2.81-2.15,5.64-4.37,8.32-6.46,2.02-.75,3.49-2.71,5.55-3.3,2.48-1.47,5.09-2.25,7.83-3.33,1.17-1.21,2.94-.72,4.47-1.17,1.86.33,3.56.69,5.48.91,1.47.52,2.71,1.66,4.34,1.83,1.79,1.01,3.82,1.76,5.45,3.1,1.5,1.24,2.94,2.22,4.37,3.56-.1.39.26.36.52.39,1.76,1.57,3.69,3.2,5.45,4.8-.13.13,0,.36.2.42.16-.29.36.03.52.1.29.13.13.39.2.52,1.76-.07,3.26-.65,4.99-.55,2.38-.26,4.54-1.14,6.75-1.96.95-.39,1.79-.95,2.71-1.44.1-.1.46-.13.69-.23,3.16-1.37,6.13-3.23,8.74-5.64,2.84-1.96,5.48-4.47,7.73-7.24.39-.1.69-.13,1.04.1.88.55.13,1.47.33,2.28-1.04,4.31-3.26,8.03-5.25,11.91-1.7,3.03-3.62,6.04-5.74,8.91-2.77,2.84-5.32,5.55-8.19,8.12-.39.52-.95.85-1.4,1.27-.82.72-1.63,1.21-2.51,1.76,0,.26.07.49.26.69.29.13.72.07.95-.03.39-.23.88-.29,1.34-.49.23.07.49.03.75.2.78.55.78,1.6,1.21,2.38.55,1.6,1.53,3,1.96,4.63.29.42,0,1.5.95,1.31.2.29.55.13.65-.16l4.54-5.91,8.19-10.34c5.84-7.02,11.58-13.87,17-21.05-.69-.42-1.37-.95-1.96-1.5.23-.46.59-.88.95-1.14.69-1.17,1.7-2.22,2.48-3.23,1.5,1.27,3.13,2.38,4.63,3.62.55.36,1.11.85,1.7,1.21.98.75,1.92,1.47,2.77,2.22-.49.65-.75,1.11-1.34,1.63l-.07.26-1.93,2.35-1.79-1.44c-.26,0-.46.26-.55.46.07.46-.52.42-.62.78-.42.49-.78.91-1.11,1.37l-13.48,16.05c-6.13,7.67-12.01,15.53-18.27,23.36.42.98.42,1.96.75,2.94.49,3.07.59,6.49.65,9.5-.03.65-.2,1.44-.26,2.15.42.13.36.59.59.88.85,2.28,2.28,4.24,4.21,5.84,1.7,2.35,2.38,5.16,4.08,7.54,1.17,2.41,2.09,5.12,4.7,6.59,2.06,1.27,3.78,2.87,5.71,4.47.78.52,1.6.95,2.51,1.08.42,1.01-.72.62-1.14.82-3.1.29-6.56-.62-9.66-1.01-.49.2-.1.91-.33,1.27.46,1.34.91,2.64,1.76,3.82,3.07,3.26,4.96,7.05,6.79,10.83,1.18,3.3,2.15,6.79,2.25,10.54-.29,3.36-1.17,6.59-2.09,9.76-.46.03-.65-.39-.88-.69-.42-.42-.39-1.21-1.01-1.37.26,2.32.03,5.12-.07,7.47-.49,1.66-1.08,3.26-1.76,4.83-1.44,1.73-2.51,3.79-4.21,5.32-.29.03-.39-.29-.23-.49.42-1.4.72-2.84.72-4.4l-.13-.1c-.33.33-.33.98-.46,1.47-.52,2.35-2.02,4.24-3.65,6.07-.03.33-.42.36-.46.62-.23.39-.49.85-.95.95-1.11,1.44-2.58,2.61-4.21,3.1-.39.16-.59.69-1.04.42-.03-.59.29-1.11.46-1.66.33-1.44.72-2.71.55-4.27l-.16-.23c-.46.55-.33,1.47-.62,2.15-.82,1.96-2.41,3.65-2.74,5.81-.75,1.34-1.24,2.97-2.55,3.92l-4.11,3c-.03.49.55.72.78,1.08.16.78,1.14.78,1.17,1.53,1.11,1.63,2.71,2.48,4.44,2.94,3.26-.26,6.36-.75,9.56-.95.16-.16.33-.46.62-.23.2.2.59.1.85.07,3.56-.39,7.05-.75,10.7-1.21l.07.1,3.72-.36c.29-.23.62-.07.98-.16,5.87-.75,11.65-1.27,17.59-2.02.95,0,2.09-.39,3.07.03.03.1,0,.26.03.39-.88.1-.29,1.08-.52,1.6-.23,5.58-.46,11.39-.69,17.16l-42.16-.06c-1.73-.03-3.36-.07-5.02.06-.78-.2-.78-1.14-1.24-1.66-3.46-4.86-6.72-9.85-10.12-14.68-.33-.07-.82-.1-.91-.55l-.95-.03c-.13-.52.42-.75.56-1.14-.26-.1-.1-.78-.62-.59.23-.49-.36-.52-.55-.82-.23.13-.29-.2-.52-.1-2.06,1.73-4.24,3.23-6.75,4.01-1.76.91-3.43,2.02-4.44,3.85-.62.16-.75-.55-.95-.91-.42-2.12-.03-4.24.13-6.36-.23-.36-.29.16-.55.1-.95.91-2.15,1.5-3.16,2.25-4.01,4.67-8.88,8.71-11.81,13.9l-3.69,6.66c0,.39.52.49.23.91-.69-.1-1.01.69-1.7.46-.85-1.24-1.6-2.38-2.09-3.78-1.83-3.56-4.01-6.72-6.13-10.08-2.48-3.16-6.04-5.35-8.65-8.61-.46-.59-.62-1.5-1.4-1.79-.1,1.01-.03,1.99.07,3.03-.03,1.11,1.01,1.83.98,2.87-.26.29-.62-.1-.91-.2-1.89-.85-3.43-2.35-5.09-3.36-1.53-.69-3.07-1.44-4.21-2.74-1.17-1.34-2.77-2.32-3.88-3.72-.91.29-1.47,1.34-2.06,2.06.36.78.65,1.53,1.27,2.19.1.2.16.39.13.65-.36.46-.75-.29-1.11.2-.72-.07-1.44-.75-2.19-.88-4.6,5.12-8.78,10.7-13.54,15.69H15.42c-1.79-.03-3.56-.1-5.38-.2-.33-.23-.75-.03-1.11-.03-.29-.36-.49.29-.75-.16-.26.52-.52-.42-.75.16-.46-.03-.95-.03-1.37-.16-.16.16-.36-.16-.55.07-.16-.13-.42-.13-.59,0-.29-.2-.72.03-.98-.07-.1-1.4.16-2.84.1-4.05.03-.65.03-1.21.13-1.92l-.07-.13c.26-1.86,0-3.88.07-5.87l.06-5.68c.26-.29.65-.55,1.11-.55.29.2.75.33,1.14.2l.1-.1c.42-.1.88.13,1.21.39,1.21.29,2.61.2,3.69.55.98,0,1.76.23,2.64.29l11.32,1.6c4.34.72,9.3,1.27,13.7,1.96,1.53.26,3.07.49,4.63.72.49-.07,1.08.1,1.63.16,1.93.29,3.72.49,5.61.65,1.4-.36,2.45-1.08,3.72-1.83,1.96-2.25,3.85-4.5,5.68-6.79-1.63-1.44-3.33-3.16-4.37-5.09-1.14-1.96-2.06-3.95-3.26-5.94-.36.29-.2.98-.16,1.44.06,1.44.26,2.94.62,4.27-.07.26-.49.36-.72.16-2.19-1.6-3.46-4.05-5.29-6.07-1.14-1.14-2.02-2.28-2.68-3.65-.16-.16-.2-.55-.49-.46-.16.59.42,1.08.72,1.6-.1.2-.16.42-.42.39h-.16c-2.87-1.89-3.92-4.99-5.71-7.6-.98-2.68-1.44-5.61-1.89-8.45.2-.33,0-.72-.16-.98-.39-.03-.59.55-.95.39l-.07.2c-1.04.42-2.09.95-3.1,1.4-.2-.1-.39-.23-.29-.49.13-.29.13-.72.52-.78.07-.36.33-.62.65-.78.2-.46.52-.85.65-1.34.39-.23.33-.72.52-1.08l1.04-4.4c-.36-2.22-.1-4.37.46-6.43.36-1.34.1-2.94.72-4.14.69-2.09,1.47-4.01,1.93-6.2,1.27-2.71,3.39-5.09,5.45-7.47.36-.78.69-1.6,1.17-2.35.2-.69.55-1.34.59-2.02l-.16-.13c-2.38,1.27-5.19,1.53-7.83,2.09-2.38.62-4.44-.62-6.36-1.66l.13-.65c2.81-.98,4.93-3.23,7.83-4.08,4.05-1.14,7.37-4.34,9.79-7.86,1.5-2.35,3.52-4.5,4.27-7.21.55-1.63,1.01-3.36,1.86-4.83.29-.62.82-1.31,1.31-1.7.1-.62,1.14-.42.78-1.24-.29-1.7-.23-3.82-.13-5.61l-.07-.1c.29-2.15.29-4.08.95-6.13.2-.13.13-.46,0-.59l-1.79-2.74-6.23-9.43c-2.28-3.36-4.57-6.75-6.79-10.25l-6.33-9.46-6.3-9.23-1.24-1.6c0-.2.07-.39-.13-.49-.33.33-.82.46-.98.82-.2.26-.59.36-.75.55l-.59.03c-1.11-1.37-2.22-2.74-3.23-4.18,3.16-2.32,6.23-4.57,9.33-6.85,1.04,1.34,2.09,2.77,3.13,4.14h0Z"/><path class="cls-2" d="m108.68,12.57c.49.23,1.11.16,1.57.49-1.27,7.8-1.99,15.69-2.25,23.72-.13,4.01-.23,7.6-.52,11.45.03,1.93.23,3.98.2,5.87-1.66.33-3.3.95-5.06.82-1.11-.98-2.61-1.17-3.69-2.22-.1-1.31.16-2.48.2-3.88l.16-5.61-.07-.23c.16-3.52.13-6.72.29-10.25-.23-.98.1-1.79.07-2.74h.07c.1-3.65.13-7.44.62-10.83.16-2.22.65-4.37.69-6.66.39-.03.91-.13,1.27-.39,1.47-.1,2.97-.2,4.47,0l1.99.46h0Z"/><path d="m106.91,12.86c.42.59.65,1.17.56,1.93-.16.85-.88,1.5-1.7,1.63-.59.1-1.31-.07-1.76-.46-.69-.75-.91-1.7-.46-2.71.29-.62,1.11-.85,1.73-1.01.59-.03,1.17.33,1.63.62h0Z"/><path class="cls-3" d="m53.37,15.25c1.76,2.06,3.88,3.3,5.78,5.35,1.14.75,2.28,1.79,3.46,2.45,1.63.88,3.3,2.02,5.19,2.48.52.42,1.3.46,1.92.75.36.1.72.29,1.01.42.42,0,.75.29,1.11.23,1.63.85,3.72,1.63,4.67,3.36.95.65.91,1.99,1.4,2.84-.13,2.71-2.32,4.08-4.08,5.81l-2.19,1.34-.23-.03c-1.14-.95-2.64-1.53-3.56-2.77-2.45-1.86-4.5-4.11-6.23-6.59-1.79-1.53-2.74-3.72-4.4-5.45-.23-.82-1.14-1.04-1.31-1.89-1.37-1.89-2.51-4.11-3.59-6.2,0-.36-.33-.59-.42-.95,0-.62-.62-1.08-.39-1.76-.16-.13.1-.39,0-.59.16-.16.36-.23.62-.16.36.55.85.95,1.24,1.37h0Z"/><path class="cls-2" d="m159.68,14.63c-.2.78-.56,1.27-.72,2.09-1.21,2.02-1.96,4.34-3.36,6.3-.72,1.6-1.83,3.07-2.84,4.63-.75,1.17-1.73,2.12-2.64,3.23-.33.1-.39.49-.62.69-3.59,3.65-7.34,7.7-12.01,9.72-.95-.23-1.79-1.31-2.74-1.76-1.4-1.44-3-2.64-3.85-4.5-.42-1.83.46-3.75,1.86-4.89,3.3-1.73,7.28-2.22,10.74-3.78,2.87-.91,5.68-2.61,8.03-4.57.49-.2.82-.78,1.34-1.11,2.35-1.66,4.34-4.24,6.62-6.1.03.07.13,0,.2.07h0Z"/><path d="m106.23,21.71c.39.49.36,1.17.29,1.76-.39.95-1.21,1.5-2.22,1.47-.78-.1-1.66-.75-1.86-1.57-.06-.75-.03-1.6.72-2.12.46-.42,1.08-.46,1.73-.42.46.13,1.08.49,1.34.88h0Z"/><path class="cls-5" d="m174.23,23.37l.07.23c.1.03.2-.1.26.03.03.1-.13.16,0,.23.03-.36.29.1.49.07.1.26.42.29.59.52-.49.52-.69,1.04-1.24,1.27v.23c-.1.03-.13-.07-.2-.13-.1.13-.1.16,0,.26-.49.49-.78,1.24-1.37,1.47v.29h-.33l.13.23c-.49.49-.95,1.08-1.4,1.37l-.1.26c-.07,0-.13-.03-.2-.03l-.07.33-.2-.1c.07.46-.52.91-.88,1.21.07.36-.42.16-.26.52-.39.46-.85.82-1.11,1.34-.07,0-.16-.03-.23.03.2.46-.46.82-.69,1.14-.2.07-.13.42-.39.26l.03.23h-.29c.2.46-.49.78-.59,1.11-.1.07-.23.03-.29.16.2.42-.36.75-.59,1.08-.26-.03-.13.55-.42.29-.13.1.03.2-.07.29-.03-.03-.1-.03-.13-.1-.2.1,0,.2,0,.29-.29.39-.59.75-.91,1.08v.1h-.23l-.03.39c-.07,0-.07-.23-.2-.13-.1.03-.07.1-.07.13.03.07.1.07.13.07.03.1-.1.13-.13.2l-.2-.16c-.07.03-.03.1-.03.16l.13.1c-.2.33-.42.65-.72.82.03.07.03.13.03.2l-.26.07v.23c-.07-.07-.16-.03-.23-.03l.07.23c-.39.42-.91.95-1.14,1.44-.1.03-.26-.07-.29.1.39.42-.39.49-.49.88-.2.26-.55.65-.82.78.03.1.13.2,0,.23-.1.07-.2-.16-.26,0,.26.16,0,.42-.1.55-.23.16-.36.52-.62.62.03.36-.46.23-.39.55-.03-.03-.07-.1-.1-.07-.2.07,0,.2-.07.29l-.23-.07v.36c-.2.07-.23-.29-.36,0l.2.16c-.2.33-.52.62-.69.98-.16-.03-.29.07-.23.26-.13.03-.23-.03-.29.07.13.52-.69.82-.78,1.24-.2.07-.13.39-.42.33l-.13.13c.03.07.13.1.1.16-.16.16-.23-.16-.33.07.16.2-.07.39-.16.55-.36.36-.72.91-1.08,1.11-.06.03-.03.13-.03.2-.39-.2-.16.42-.52.26v.23l-.2-.03c-.07.55-.65.98-.85,1.44-.23-.07-.29.13-.26.26v.03h-.23l.03.23h-.29c.16.52-.65,1.11-1.01,1.44.13.46-.62.07-.29.52-.1.1-.2-.26-.29,0l.2.16c-.33.33-.59.65-.78,1.01-.23,0-.26-.26-.29-.42.13-.55-.59-.65-.55-1.17.07.03.1-.07.13-.1-.2-.13-.29-.13-.36-.42.23-.26.36-.59.55-.78,0-.07.1-.33.33-.23v-.26c.07-.03.13,0,.2.07.16-.1-.03-.2,0-.33l.42-.65c.23.07.13-.42.39-.26l.03-.29c.07-.07.2.23.26,0-.16-.42.52-.78.56-1.17h.2v-.26c.1-.03.23.2.33,0l-.2-.16c.36-.29.49-.85.95-1.01-.13-.26.13-.42.29-.55.07.03.1.13.16.13l.07-.1c-.42-.23.29-.59.29-.88l.23-.07c0-.07-.1-.23.03-.26.07,0,.13.13.23.07-.16-.55.62-.82.78-1.37.39.03.13-.49.52-.42-.1-.36.49-.03.26-.46l.2.03c.1-.13-.1-.26.1-.39.03.03.03.23.2.16.07-.07.03-.16-.03-.2l-.1-.1c.16-.42.62-.59.75-1.01l.16.1.07-.39s.07.2.2.13c.07,0,.07-.1,0-.13l-.07-.1c.1-.29.49-.55.65-.95.36.1.07-.46.49-.33,0-.1-.07-.23.07-.29.07,0,.1.1.16.13.13-.13-.13-.29.07-.39.13-.03.07.16.2.1l.1-.07c-.29-.46.46-.62.59-1.11.1-.23.52-.23.46-.59.07.03.16.16.23,0-.03-.1-.2-.2-.03-.29l.03-.03.2.2c.23-.13-.07-.2-.07-.33.46-.39.91-1.11,1.4-1.44-.1-.16.13-.36.26-.29.1-.1-.13-.2.07-.29.07-.03.16.26.26.03-.03-.1-.16-.16-.03-.29l.03-.03.2.16c.06-.03.06-.13,0-.2-.03-.03-.1-.03-.13-.03.29-.46.82-.85,1.04-1.27h.2c.03-.07-.16-.26.07-.33.1.03.03.16.16.13-.2-.39.29-.65.46-.98.1.07.13-.07.13-.13v-.13l.23.03c.13-.49.55-1.11,1.04-1.44.13-.13-.06-.23.13-.33.03,0,.23.26.23-.03l-.1-.13c.23-.26.52-.78.82-.91.1-.69.91-.98,1.21-1.66.26.13.13-.2.23-.29.1-.03.2.2.29,0-.07-.1-.13-.13-.1-.26h.33c-.1-.07-.1-.13-.1-.26.42-.52,1.11-.82,1.24-1.4.03.03.16.23.23.03,0-.07-.2-.2,0-.26h.1s0,.1.07.1c.03.03.07-.03.07-.07-.46-.42.49-.46.39-.88.36.13.03-.46.39-.23l.07-.29.2.03c-.03-.42.46-.75.69-1.14.46.03.03-.46.46-.39l-.07-.07.16-.16c-.03.07.03.07.07.1.03.03.1.03.13-.03l-.13-.23c.36-.16.49-.62.72-.91.33.16.1-.46.46-.29-.07-.46.46-.65.62-1.08.26.13.42.42.75.49h0Z"/><path class="cls-5" d="m39.01,23.01c.16.49.69.82.88,1.34l.2.1c0,.16-.23.23-.1.36.2.1.1-.26.26-.03,0,.1-.1.13-.07.23l.29.03c-.03.07-.07.13-.03.2.49.29.65.95,1.08,1.31,0,.1-.23.07-.16.23l.33.03-.07.16c.39-.07.1.49.46.42-.1.23.13.26.23.29.2.33.42.62.62.88-.03.03-.23.13-.13.26.06.03.13.13.2,0v-.07h.07v.33c.33-.26.16.36.42.33.39.69.95.95,1.31,1.66,0,.13-.13.29.03.39.03-.03.07-.13.16-.16l.03.39h.2c-.16.36.29.23.26.49.16.26.69.52.46.85v.16l.26-.03c-.23.46.33.13.23.55.29.33.59.65.78,1.04-.07,0-.07.07-.1.07v.13c.42-.2.07.39.46.39l.62.95s-.16.03-.16.1c-.03.1.07.13.1.16.03-.03.07-.1.16-.1-.26.39.46.2.29.59l.16-.07v.26l.39.03c-.1,0-.13.16-.13.26.16.13.2-.23.33,0-.07.07-.1.13-.07.2.39-.16.1.55.46.36-.03.49.55.59.62,1.01-.03.07-.2.03-.2.16.16.2.49-.2.29.2,0,.07.07.1.1.16.03-.07.1-.03.16-.03v.26h.2c.07.26.23.52.46.65.03.42.52.52.26.88l.23.03c-.1.23.16.29.23.36l.85,1.24c-.03.07-.23.07-.13.2.1.16.2-.13.23-.07.2.07-.1.42.23.36-.1.36.29.13.33.46.1.46.69.65.69,1.21.42-.03.03.46.42.42.16.36.39.69.65.98l-.16.2c.1.23.46-.13.26.2,0,.26.16.07.29.16l-.07.2c.46-.1.07.49.49.39.1.46.36.59.65.95-.06.1-.26.07-.2.23h.33c.1.13-.23.23,0,.33.07-.03.16-.16.23,0l-.07.16c.1.13.36.03.26.29.36.29.65.75.82,1.14-.03,0-.1,0-.1.03v.13l.26.03c-.03.26.2.42.39.59.07.46.69.69.52,1.14l.23.03c-.1.23.16.29.23.33.13.36.75.75.36,1.24-.2.03-.1.49-.39.33.16.2-.03.42-.1.62-.07.03-.16.07-.23.16.03.03.1.07.1.13l-.1.1-.16-.13c-.03.07-.1.1-.1.16l.1.13c.03-.07.1-.03.13-.07.1.26-.36.29-.23.59-.1.07-.16-.1-.23,0,0,.07-.03.2.07.16h.07c.03.26-.26.39-.26.62-.26-.16-.39-.52-.59-.82.1-.07.16-.16.07-.26h-.23c.2-.39-.36-.16-.23-.52-.26-.2-.42-.52-.62-.85-.03,0,.16.03.2-.1-.03-.26-.23.07-.33-.03v-.36l-.2.1-.03-.33h-.2c.13-.29-.29-.23-.23-.46-.23-.23-.49-.52-.59-.82-.03,0,.23-.2.03-.29l-.16.13c0-.07-.13-.16,0-.23-.26-.39-.65-.72-.82-1.17.03,0,.1,0,.13-.07v-.1l-.33-.03.07-.26c-.23-.07-.46-.36-.69-.65-.23-.46-.85-.85-.78-1.4-.07-.07-.16-.03-.23-.03.16-.36-.39-.2-.26-.52-.23-.2-.46-.49-.59-.82.07.03.13-.03.16-.1.03-.03-.03-.07-.07-.1l-.2.03c.16-.55-.33-.23-.42-.65-.23-.36-.75-.78-.52-1.17h-.26c.03-.42-.26-.33-.39-.59-.26-.42-.69-.82-.91-1.27l.16-.16c-.42.1-.13-.46-.52-.39.06-.29-.33-.23-.36-.49-.13-.42-.85-.75-.59-1.21-.03-.1-.13-.1-.2-.07l-.03.07-.07-.1c.07-.03.07-.1.07-.2-.07-.07-.16-.03-.23-.03v-.23c-.33-.36-.98-.85-.72-1.31-.1-.2-.2.07-.26.03.07-.33-.49-.65-.55-1.11.07,0,.13-.03.13-.1s-.03-.13-.1-.2c-.07.07-.1.16-.2.13.1-.49-.42-.62-.59-1.11.07-.03.26,0,.2-.2l-.1-.1-.16.13c.13-.2-.2-.36-.23-.52-.26-.2-.46-.52-.59-.85.03,0,.16-.07.1-.2-.03-.13-.16,0-.26-.03.13-.1-.03-.42-.23-.29l.03-.1c-.33-.39-.72-.82-1.04-1.34-.03-.13.23-.23.03-.33l-.2.13c-.26-.13.26-.29-.1-.42-.03.03-.03.1-.1.1-.16-.42-.59-.78-.95-1.24-.26-.29-.72-.65-.55-1.08-.07-.03-.13-.13-.2,0-.1-.1.07-.39-.2-.33-.52-.46-.82-1.11-1.27-1.66-.1-.13.16-.36-.1-.36h-.1c.16-.42-.42-.07-.29-.49-.46-.23-.52-.72-.85-1.08.07,0,.2.03.2-.1.03-.03-.03-.1-.1-.13l-.2.1c.26-.36-.29-.23-.23-.55-.33-.26-.59-.62-.82-1.04.03-.03.13-.03.16-.13.03-.07-.1-.1-.13-.2l-.16.16c-.2-.07.26-.33-.1-.39l-.13.13s-.13-.1-.03-.16c.16-.07.42-.03.52.03l.03-.29c.07.03.13.03.2.1l.03-.29c.13-.16.2.23.33,0,0-.13-.2-.16,0-.29.03.07.1.07.13.13.16-.03,0-.52.29-.23-.03-.39.36-.29.55-.52h.13Z"/><path d="m105.58,30.03c.49.59.49,1.66.13,2.32-.36.46-.88.95-1.53,1.01-.85.07-1.66-.33-2.12-.98-.2-.52-.46-1.11-.23-1.73.2-.88,1.04-1.31,1.89-1.5.65.1,1.37.26,1.86.88h0Z"/><path d="m105.35,38.8c.42.65.23,1.66-.1,2.28-.52.55-1.17.95-1.92.91-.78-.07-1.44-.69-1.79-1.34-.2-.62-.2-1.47.2-1.99.33-.49.75-.72,1.31-.95,1.01-.16,1.83.36,2.32,1.08h0Z"/><path d="m104.56,46.9c.42.46.85,1.01.75,1.7-.1.75-.46,1.63-1.24,1.86-.75.33-1.73.13-2.32-.42-.59-.69-.95-1.6-.42-2.41.33-.82,1.14-1.08,1.96-1.24v-.07c.33.26.88.29,1.27.59h0Z"/><path class="cls-2" d="m90.79,51.66l-.1.1-.1-.13.1-.16c.07.07.1.13.1.2h0Z"/><path class="cls-2" d="m147.99,51.79c.03.23-.16.55-.39.65-.16-.03-.36-.29-.16-.46.16-.13.33-.23.55-.2h0Z"/><path class="cls-4" d="m69.91,56.91c-.69,1.63-.23,3.59-.75,5.25-.1.52.29.85.69,1.04l.69.29c-.03,1.24-.1,2.77-.85,3.75l-.06-.03c-.07-.88.1-1.79-.13-2.68-.16-.23-.52,0-.72-.2-.75-.72-1.14-1.7-1.6-2.61-.33-.26-.75-.16-1.08,0-.33.52.36.82.29,1.34l.2,1.01-.07.07c.13,1.57.46,3.33-.23,4.73-.2,1.34-.65,2.71-1.31,3.85-.03.39-.13.88-.46,1.01-.39,1.01-.91,2.15-1.7,2.97-1.24,1.5-2.97,2.9-4.76,3.39-.91.49-1.83,1.14-2.51,1.83-.65.29-.52,1.08-1.01,1.5.07.23-.39.36-.07.52.26.13.29.36.49.49,1.24-.07,1.17-1.73,2.38-1.96.13-.16.23-.36.39-.42.1.75-.07,1.66-.13,2.45.1.59-.16,1.27-.06,1.89-.23,2.06-.88,3.95-1.57,5.84-1.17,2.64-2.71,5.25-4.7,7.5-.65.42-.88,1.14-1.53,1.7-.52.75-1.47,1.66-2.06,2.55-.49.49-.98.65-1.37,1.21,0,.33.39.42.62.55.65.1.75-.78,1.27-.85.29.13.39-.2.65-.13-.36.98-.55,2.02-.59,3.03-.23.26-.1.55-.13.82-.16.72-.07,1.6-.07,2.41.16.78.1,1.76.33,2.58.26,1.66.85,3.2,1.17,4.86.36.82.55,1.57.72,2.48-.26.29-.13.62-.13.95.13.23.42.33.65.16.29-.1.42-.23.59-.52-.2-2.38.36-4.5,1.17-6.66,0,.62.26,1.17.07,1.73l.06.1c-.06,2.15.36,4.47-.29,6.66l.06.06c-.03.26.1.82-.1,1.11-.1.91.33,1.7.26,2.58.2.26.1.69.55.69.29,0,.65-.03.82-.39.52-1.08-.03-2.12.46-3.26.49-.62-.03-1.66.36-2.32.03-.88.39-1.44.49-2.25.49-.75.98-1.63,1.7-2.28.52-.78,1.34-1.21,1.96-1.86-.95,1.66-1.11,3.69-1.6,5.58-.78,3.59-.26,7.34-.75,11.03.16,2.32-.52,4.73.29,6.85.29.36.52.91,1.01,1.01.2-.03.39-.2.52-.39l.03-.46c1.21-2.94,3.43-5.68,6.17-7.41,1.14-1.14,2.19-2.38,3.13-3.75.33,0,.23.39.26.62-.1,1.66.42,3.33.2,4.96-.03.2.1.36.26.46.23.03.36-.1.52-.2.39-2.25.98-4.67,2.97-6.04,1.47-1.66,2.58-3.62,2.71-5.91l.1-.13c1.4,1.73,1.57,4.18,2.28,6.3.07.69-.33,1.31-.13,2.06.16.13.42.13.59.03.39-.42.33-1.04.69-1.5.13.23.2.55.26.88.55,1.73,1.6,3.23,2.51,4.83.23.07.16.39.46.39.29.49.65.88,1.01,1.31v.16c.78.69,1.31,1.6,2.12,2.25,1.21,1.89,2.41,3.79,2.94,6,.03.36-.1.78.13,1.04.46.33.85,0,1.34-.13.23-.16.03-.46.03-.59-.23-.26-.07-.62-.36-.85-.16-1.01-.75-1.86-.85-2.94,1.04.1,1.99.85,2.97,1.17.75.55,1.63.98,2.25,1.76.33.03.33.39.65.52.55.26.85.95,1.31,1.34.23.59.2,1.4.75,1.66-.1.85-1.47.78-1.21,1.86.46.42.91-.13,1.34-.33l.03-.2c1.86-1.57,3.72-2.81,5.84-4.11,1.34-.59,2.58-1.24,3.92-1.76.85-.26,1.73-.52,2.58-.85.65-.16,1.24-.26,2.02-.33-.88.95-1.83,1.53-2.68,2.58-.49.82-1.34,1.53-1.86,2.15-.2.26.07.49.1.72.69.52.91-.55,1.47-.78.69-.55,1.44-1.37,2.15-1.89.52.03.56-.36.95-.62,2.22-1.27,4.57-2.35,6.3-4.37,1.79-2.15,2.84-5.09,4.89-7.08,1.4-1.86,3.75-1.73,5.68-2.41.49.1.59,1.34,1.27.59-.33-1.01-.13-2.25,0-3.33.33.33.52.88.88,1.27,1.5,1.73,3.75,2.74,4.7,4.86.46,1.04.85,2.02,1.4,3.03.13.03.23.13.39.1.42-.88.42-1.96.69-2.9,1.14,1.89,2.74,3.59,2.94,5.91.23,1.44.42,2.71.65,4.14-.07.42-.33,1.08.13,1.4,1.01-.52,1.4-1.89,2.06-2.87,3.16-5.45,4.08-12.76,2.25-19.06-.46-1.27-.75-2.61-1.3-3.85.52-.03.78.52,1.27.82.91.72,1.83,1.63,2.58,2.54.1.2.23.49.49.55.42,1.08,1.37,1.73,1.7,2.84.52.39.2,1.04.62,1.5.2.59-.13,1.11.42,1.57.26.49-.16,1.04.2,1.44.33.13.69,0,.98-.2.36-.65.1-1.34.26-2.15.82-3.46,1.24-7.31.52-10.87-.39-1.6-.78-3.23-1.18-4.76.62,1.01,1.44,2.15,1.66,3.46.33.33.33.98.55,1.37.36,1.53.75,3.23.42,4.76,0,.39.33.82.03,1.27.03.16.13.23.26.29.26.1.36-.13.55-.2.49-.2-.16-1.01.55-.91,0-.13-.07-.29.13-.33.46-1.76,1.44-3.46,1.27-5.32.1-.36.06-.78.1-1.27,0-.33-.07-.85.2-.91.03-.03.03-.1.03-.13-.36-.03-.13-.52-.2-.78.1-.82-.1-1.99-.1-3-.46-3.16-1.7-5.91-2.54-8.97-.36-.75-.69-1.66-.91-2.48.49.2.65,1.4,1.4.82.1-.26.49-.29.39-.65-1.27-1.08-1.93-2.51-2.74-3.88-1.89-2.81-3.26-5.71-4.44-8.71-.46-1.76-1.17-3.39-1.21-5.29h.16c1.14.91,2.19,2.32,3.69,2.35.29-.16.59-.62.29-.95-.36-.36-.78-.55-1.21-.91-1.86-1.24-3.46-2.68-5.09-4.18-2.41-2.51-4.08-5.71-4.63-9.2-.07-.98.13-2.15.13-3.23-.07-.26.42-.36.36-.69h.03c-.13-.13-.03-.46-.36-.42-.33-.13-.46.16-.69.26-.33.98-1.6,1.08-1.86,2.12.1.46.23.91.23,1.37-.62-.91-1.14-1.86-1.47-2.9.52-.16,1.08-.39,1.4-.91.23-.42.1-1.01-.03-1.47-.62-1.63-1.01-3.23-1.6-4.86,1.99-.78,4.11-.91,6.1-1.76,2.06.98,2.81,3.13,4.27,4.86.85,1.17,1.18,2.68,1.37,3.98l.1.13c-.03,2.58-.13,5.55-2.41,7.02-.39.07-.72.49-.95.82-.23.42.1.55.23.88.42.42.78-.29,1.14.29,1.66.26,2.54,1.63,3.65,2.77.26.49.52.78.82,1.31-.03.42.33.55.36,1.01.36.39.65,1.08,1.08,1.47.36.49.69.98,1.14,1.47.59.55,1.24,1.04,1.83,1.76.55,1.6.88,3.16,1.93,4.5.52,1.66,1.63,2.94,2.12,4.54.49.98,1.3,1.66,1.96,2.51.36.1.29.52.65.65.39.39.88.75,1.17,1.14.23.29.69.2.78.55.1.13.39.07.29.26-1.76.39-3.56-.03-5.32.16-.91.07-1.96-1.27-2.35.13-.13.46.13.65.52.65,1.11.07,1.92.78,2.94,1.01.16,1.01-.16,2.02.29,2.9h-.03c.23.49.07,1.08.49,1.5-.07.62.56.91.52,1.5.46.42.42,1.14.88,1.63,0,.55.59.75.59,1.27.62.91,1.11,1.83,1.92,2.64.33.42.42.88.91,1.11.26.55.52,1.01.98,1.47,0,.49.59.62.55,1.08.16.65.72,1.17.85,1.76,1.14,1.89,1.76,3.92,2.32,6.07-.1.26,0,.49.03.78.16,1.76.2,3.59-.13,5.19.36.42-.33.72-.03,1.14l-.1.82h-.2c-1.83-2.58-3.1-5.22-4.63-7.86-.33-.62-.52-1.17-.98-1.73-.26.03-.49.07-.65.26-.03.36.33.55.26.95.2.1.07.36.16.46l.29.39c.49,1.83,1.4,3.46,1.76,5.35.26.2.16.52.26.82l-.1.07c0-.07-.1-.13-.1-.2-.16.16.03.33.13.39.06.03.03.1.06.13l-.1-.1c-.16.03-.06.2-.06.29l.23.16c-.23.16.1.55-.07.78.29.98.33,2.09.42,3.2.03,3.03.03,6.59-.95,9.4l-.13.13c-.33-.69-.49-1.53-.62-2.32-.69-1.73-1.37-3.52-2.58-4.93-.07-.75-.88-1.04-1.14-1.73-.26-.13-.55-.39-.81-.23l-.39.2c0,.23.2.46.39.65-.23.33-.1.65.06.95.91.78.78,2.09,1.18,3.13.07,2.45.2,5.09-.85,7.41-.62,2.09-1.99,3.85-3,5.78-.59.78-1.53,1.44-2.06,2.28-.2-.69.07-1.27-.2-1.92.03-1.79-.59-3.46-1.01-5.12l.07-.1c-.49-.98-.56-2.06-1.18-3.03.07-.23-.2-.36-.33-.49-.26-.13-.49.1-.69.2-.16.72.33,1.37.03,2.09-.1,1.01-.1,1.99-.13,2.97-.39.36-.1.88-.29,1.31-.29,1.11-.52,2.35-1.08,3.39-.75,1.04-1.44,2.22-2.15,3.26-.33.62-.36,1.34-.85,1.86-.49,1.08-.78,2.32-1.44,3.39-.85,1.21-1.89,2.02-3.07,3.03-.98.65-2.12,1.21-3.36,1.3-.29-.42.07-.78-.1-1.27.39-2.12.39-4.44.88-6.56.1-1.08.42-2.15.62-3.26.03-1.14.88-2.71-.26-3.62-.49-.07-.85.16-1.01.52-.33.78-.69,1.44-.52,2.28-.23,2.48-1.11,4.76-2.35,6.72-.07.52-.62.78-.65,1.31-1.7,2.19-3.82,4.08-6.49,5.06-1.27.88-2.71,1.4-4.01,2.22-.26-.07-.26.29-.49.29-.29.1-.55.23-.78.42-.23-.55.13-1.31.07-1.93.1-.69.16-1.34.06-1.96l.13-.13c.1-.88.1-1.66.42-2.41.16-.33-.23-.55-.46-.65-.75-.39-.88.59-1.31.91-1.96,1.76-4.63,2.32-6.62,4.11-.49.49-1.21.82-1.6,1.34-.72.39-1.21,1.04-1.86,1.47-.33.75-.95,1.04-1.57,1.57-.29.69-1.08.85-1.3,1.5-.69.39-.88,1.27-1.44,1.76-2.84,3.59-4.93,7.83-7.44,11.68l-.49,1.21c-.72-1.31-1.3-2.81-2.12-4.14-.36-.78-.91-1.44-1.37-2.22-.95-2.48-3.1-4.14-4.5-6.23.03-.36-.39-.39-.59-.62-1.34-1.5-2.77-2.81-4.18-4.18-1.57-2.25-4.08-4.44-4.18-7.37-.62-.33.13-1.89-.98-1.47-1.21,1.31-2.02,2.84-2.32,4.54-.36.82-.13,1.89-.36,2.74-.52-.16-1.04-.55-1.5-.85-1.89-1.37-3.98-2.48-5.74-4.14-2.22-2.06-4.24-4.31-5.55-7.02-.2-.42-.62-.82-.65-1.34-.29-.65-.88-1.21-.88-1.99-.1-.39-.49-.72-.36-1.17-.29-.91-.59-1.7-.52-2.77-.33-.29.07-1.04-.59-.88-.23.1-.39.39-.52.59.1.49-.42.78-.26,1.37-.42,1.01-.13,2.28-.23,3.43-.2.72.16,1.4,0,2.15-.07,2.51.2,4.96.91,7.24-.49-.39-.91-1.14-1.4-1.66-1.27-1.08-2.61-2.09-3.59-3.52-1.93-1.7-2.94-4.05-4.41-6.1-1.08-2.81-2.94-5.25-4.31-7.93-.26-.49.03-1.24-.39-1.63-.42.06-.78.36-1.01.69.13.49.23.98.46,1.44-.16,1.93-.2,3.95.16,5.78-.29-.13-.39-.55-.69-.72-2.48-2.74-4.67-5.55-5.51-9.07l-.46-1.73c-.52-.75-.29-1.79-.78-2.54-.03-1.01-.46-1.76-.23-2.84l-.2-.39c-.42.13-.82.2-1.04.65.03.88-.36,1.83-.07,2.74-.23.1.13.23,0,.33-.03,1.37.23,2.9.23,4.31v.91c-1.21-2.58-2.32-5.29-2.25-8.29-.07-.55-.26-1.17,0-1.7-.13-.42.16-.78.2-1.24.59-1.53.75-3.26,1.37-4.86.26-.33.69-.55.78-.98-.03-.29-.36-.2-.49-.39-.29-.07-.49.39-.78.49l-.07.33c-1.24,1.27-2.25,2.68-3.13,4.14-.13.13-.23.23-.39.23.55-1.47,1.11-3.07,1.37-4.73.1-.55.06-1.17.29-1.66-.03-.46.07-1.08.16-1.5.16-1.63.39-3.56.95-5.16.29-1.73.85-3.46,1.53-5.06.03-.55.55-.95.55-1.53.39-.49.65-1.11.82-1.76.26-.1.26-.39.36-.55,1.11-1.47,2.12-3.07,3.2-4.54.69-1.4,1.34-2.87,1.96-4.27-.16-.59.26-.98.26-1.53.36-.65.46-1.47.91-2.09.91-1.11,2.06-2.15,2.97-3.23,0-.33.49-.49.69-.78.49-.07,0-.42.07-.65l-.59-.23c-.46.65-1.24.72-1.83,1.08-1.86,1.44-3.88,2.32-6,3.03-.72.46-1.73.49-2.58.72-.98.23-1.86.59-2.9.59,1.5-.75,3.13-1.53,4.5-2.64.78-.42,1.5-1.14,2.38-1.53,1.96-1.53,4.14-3.52,5.45-5.61,2.71-3.07,3.98-6.98,5.71-10.57.07-.49.49-.91.72-1.4,0-.13.03-.29.2-.39.23.39,0,1.04.2,1.5-.1.49.1,1.08.42,1.34.26.07.62.2.82-.1-.29-.55.39-.72.03-1.21-.16-1.01-.1-2.19-.23-3.17.16-.36-.07-.75,0-1.14.16-1.47.07-2.87.2-4.27.07.03.1-.03.13-.07l-.1-.1c.65-2.51,1.08-4.99,2.15-7.34.49-.55.62-1.24,1.11-1.79.39-1.21,1.17-2.19,1.96-3.13.1-.36.36-.72.72-.91,1.53.59,3.33.72,4.8,1.4h0Z"/><path class="cls-5" d="m122.15,62.17c-.33.59-.85.98-1.17,1.44-.2.03-.29.13-.23.33l-.36-.03.2.23c-.39.49-.65.78-.98,1.17l-.2-.03c.13.36-.36.85-.62,1.17-.1,0-.16,0-.2.07,0,.07.03.13.03.2l-.07.1c-.13,0-.1-.2-.26-.13l-.03.03c.49.26-.1.62-.23.88l-.23.07.03.23c-.13.16-.23-.2-.36.03.42.23-.2.62-.26.91l-.23.03c.26.33-.23.59-.29.91h-.2c-.1.33-.2.78-.56.98-.07.36-.23.78-.52.95.13.33-.29.65-.46.98-.03,0-.06-.13-.13-.1-.2.2.16.16.1.33-.13.46-.52.39-.42.88-.42.65-.59,1.4-.95,2.06-.16,0-.2-.2-.23-.33.16-.26-.39-.62-.03-.98-.46-.07-.13-.82-.42-.95.07-.65-.42-1.01-.39-1.6.07-.03.26-.03.23-.2-.55-.03-.1-.69-.39-1.01.07-.03.2-.07.16-.2-.23.07-.23-.23-.16-.36.07,0,.16.03.23-.07-.1-.2-.33-.1-.23-.39.07,0,.16.03.23-.1-.1-.16-.33-.07-.23-.39.07,0,.2.03.26-.03,0-.26-.36-.07-.23-.42.1,0,.2.03.23-.07-.1-.13-.2-.26-.16-.46l.16-.07c-.23-.33.23-.69.13-1.11l.2-.07c-.23-.23.03-.42.07-.65.33-.07.16-.42.33-.69.1-.33.56-.23.46-.62.1,0,.26.16.29-.03l-.2-.13c.13-.29.39-.62.78-.65,0,.07-.03.16.03.23.03,0,.16,0,.16-.07l-.1-.2c.33.36.62-.65.72.03h.1v-.33l.2.13c.1-.33.42-.16.65-.33.26.13.55-.39.88-.1l.33-.2c.16,0-.03.33.23.23l.03-.33c.23.29.23-.2.49-.1l.2.23c.16-.03.03-.16.03-.29.23.16.26-.23.55-.23.07.1,0,.26.13.33.07,0,.13-.07.13-.13l-.07-.23c.29.33.59-.55.62.07.03.1.1.03.16.07.13-.07,0-.16,0-.26l-.1-.07c.13-.16.16.13.33.07-.07-.46.39-.16.55-.42.13.07,0,.29.23.2-.07-.46.36-.2.59-.39,0,.07.03.13.07.16.07-.1.13-.42.36-.2h0Z"/><path class="cls-5" d="m88.35,63.54l.36.03c-.07.13-.2.23,0,.33.06,0,.13-.07.13-.13v-.1l.26-.07c.13.1-.1.16.03.26.23-.26.52.1.75.07-.1.1.03.16.03.23.13-.07.23-.23.46-.1v.07c.2,0,.91-.13.82.36.07-.46.46,0,.62-.1.16.1-.1.39.2.36.07-.03.03-.13.03-.23.16,0,.33,0,.33.2.13.16.13-.13.26-.13.2.03.33.29.55.13-.07.1-.23.26-.03.33,0,.03.1.03.1,0l.07-.29c.26.03.23.1.33.33.26-.03.13-.39.39-.2l.1.2.23-.16c.1.1.1.26,0,.33.03.13.16.03.2,0-.03.29.49.46.39.85-.07,0-.1.07-.13.07.23.23.29.23.36.55l-.1.29c.33.07.1.65.33.85.03.13-.03.26-.13.26.2.46.23,1.04.26,1.66l-.13.1c.1.13.29.2.2.36l-.07.1-.07-.1c-.1.07-.1.13-.1.2l.23.03c.1,1.04-.13,2.09-.1,3.1-.13.03-.07.26-.2.13.26.26-.23.59-.03.88l-.16.36c-.07-.03-.13-.2-.2-.07,0,.07-.07.2.07.2h.1c-.1.33-.13.59-.26.95-.29.33-.26.82-.62,1.08v.2c-.16-.03-.36-.03-.42-.23.33-.23-.2-.52.16-.75-.07-.1-.16-.16-.13-.29l.2-.13c-.36-.13-.42-.55-.55-.85.03-.26-.36-.42-.26-.78.03-.03.13.03.16-.07-.13-.23-.29-.13-.42-.39-.07-.16-.23-.26-.16-.49.03.03.06-.07.1-.1.03-.2-.16-.07-.23-.13-.16-.26-.36-.59-.23-.91-.33.03-.23-.33-.36-.52v-.1c.07,0,.16,0,.2-.1,0-.07-.07-.1-.1-.13-.1.03-.13.1-.2.07-.1-.33-.36-.59-.26-.91-.26-.2-.46-.62-.42-.98-.2-.07-.23-.36-.29-.59l.1-.2c-.29-.07-.46-.46-.49-.78.1-.33-.39-.36-.33-.78,0-.1.26-.07.16-.26l-.29.03c.03-.29-.49-.55-.2-.98l-.26-.03c-.07-.07.1-.1,0-.16-.49-.49-.98-1.24-1.44-1.83l.07-.2h-.33v-.29h-.26l.03-.13c.2.07.52.1.62.26h0Z"/><path class="cls-5" d="m73.63,65.07c.16-.29.46.03.69.03.1.1-.2.26.07.26l.07-.23c.16.07.36.03.39.2.26-.1.52.03.72.13-.03.07.03.1.06.16.16-.16.36-.03.52,0,.03.1-.07.16-.13.23-.1,0-.1-.16-.23-.13v.29h-.26l.03.2h-.33c.07.23.2.33-.03.59-.1.16-.29.13-.23.39h-.26c0,.07-.03.16.06.13h.07c.03.26-.16.36-.26.52-.06,0-.16-.03-.2.03.13.2.13.49-.03.69-.03.03-.23.03-.2.2l.07.07s-.1.1-.16.07l-.1-.1-.16.16c.07.03.1.16.2.1l.07-.07c.07.26.1.59-.03.82-.07-.1-.16.03-.23.07.03.33.29.03.33.36-.16.23.07.46-.1.69l.1.07c-.29.26.2.26.03.55-.07,0-.13-.03-.16.03-.03.16.13.16.23.2,0,.29-.29.13-.23.42h.23l.03.78c.33.03.13.49.46.62,0,.13-.07.2-.1.29.13.16.16-.07.33,0-.29.39.33.1.23.46l.26.03c.03.2-.16.13-.26.2-.1.07-.13-.07-.2-.1-.07.26-.29.33-.55.36h-.1c-.03-.07,0-.13-.07-.16-.1-.07-.13.07-.1.16v.1c-.33-.1-.72.65-.95.16-.07,0-.16.07-.13.16v.1c-.29.03-.46.33-.78.36l-.1-.2c.07.39-.42.26-.62.42-.2-.03,0-.26-.2-.23-.2.1.03.26,0,.29-.33-.03-.82.55-1.04.13-.13.07-.03.23,0,.29-.13.13-.39-.1-.33.2l-.78.36c-.1-.07-.03-.16-.13-.2-.03.07-.2.1-.06.2.06.1.13.07.03.13-.13.13-.2-.07-.29-.07l-.03.26h-.26l.03.16c-.29.07-.55.39-.82.59-.55.39-1.14.95-1.57,1.5-.36,0-.1.49-.49.39.13.49-.49-.07-.29.42-.13-.1-.36.2-.2.26-.16.2-.2-.2-.33.07-.03.16.26.16.03.29l-.23-.2c-.03.07-.1.13-.07.2l.2.13c-.1.26-.52.46-.52.69h-.16l-.03.29c-.1.03-.2-.2-.26,0,.23.55-.46.75-.55,1.17-.1.03-.16-.1-.23,0,.36.33-.33.65-.39.95l-.03-.07c-.2.1.07.33-.13.39-.1.03-.13-.26-.26-.1.26.2,0,.42-.1.65-.36-.03-.03.55-.42.29-.07.13.1.23,0,.29-.1.07-.13-.07-.2-.1l-.13.1c.49.13-.03.42,0,.69-.29-.13-.07.16-.2.33l-.29.69c-.1,0-.16,0-.2.07.13.36-.23.69-.2,1.08l-.16.13c.13.1.13.23.13.36-.07.03-.13-.03-.16.03.46.29-.23.49,0,.85.07.16-.2.2-.03.33h.07c.16.29-.33.42-.03.65.1.52-.55.85-.2,1.24v.2c-.06,0-.13-.03-.2-.03-.16.23.33.2.16.46-.1.03-.16-.03-.2.03,0,.07-.03.13.03.16l.23-.1c.2.13-.2.26.03.39.16-.07.16-.23.36-.16.07-.07.03.16.16.2l.16-.33.06.1c.1-.2.16-.46.2-.72.07,0,.1-.07.16-.13-.16-.23.03-.36.03-.62l.26-.07c-.33-.1-.03-.46.07-.69l.23-.07c-.23-.16.07-.49.1-.75.03.07.1.07.13.03.13-.1-.2-.26.07-.39l.16.2c.2-.07,0-.2,0-.29.06-.29.49-.46.33-.75.46-.65.82-.91,1.37-1.5v-.1c.29.1.2-.16.26-.36.26.13.42-.2.69-.36.39-.46.82-.91,1.47-1.17,0,.1-.03.2.03.23h.1c-.16-.23.07-.49.36-.59.03.07.07.13.13.13l.1-.07c-.03-.13-.2-.13-.13-.26l.16-.1c.07.07,0,.23.16.2l.07-.1c-.1-.07-.13-.13-.1-.26l.13-.07c.1.07,0,.23.16.2.2-.13-.2-.23.03-.36l.2.1.1-.29.2.07c-.06-.42.33-.03.36-.42.26-.13.62-.52,1.01-.62l.16.2c.2-.1-.23-.39.13-.39,0,.07.07.07.1.1-.07-.46.42-.1.49-.46.26-.07.52-.46.78-.2l.13-.13c-.07,0-.03-.07-.03-.1.29-.07.49-.33.82-.36,0,.07.07.1.13.16.1-.07.07-.2.03-.29.29,0,.52-.13.82-.29l.16.1c-.06-.42.39-.16.59-.42.2-.03.03.23.16.29.16-.1.03-.2.06-.33.36,0,.65-.26.98-.23-.03-.26.33-.13.42-.16-.1.1.03.16.03.23.07.03.1-.03.13-.07l-.07-.23c.1-.13.33.2.33-.13.26.03.39-.23.65-.07.1,0,.2-.26.42-.16,0,.03,0,.1-.03.1l.1.13c0-.33.39-.29.62-.36l.16.13c.07-.49.85-.03,1.11-.39l.16.16c.33-.42,1.01-.16,1.47-.26.26.29.55-.2.75.13.03-.1.49-.29.52,0l.03.03c.03-.2.16-.2.39-.2l.07.23c.03-.26.26-.16.42-.2,0,.1,0,.2.1.26.03,0,.07-.07.1-.1l-.03-.2h.88v.29s.03,0,.07.03c.13-.07.1-.2.03-.29.16.03.52-.03.42.26.07-.29.49-.13.59.03.26-.03.75.03,1.08-.03.16.16.69-.07.59.39.13-.07.13-.23.36-.13.07,0,.1.1.2.16,0-.07.06-.03.1-.03.03.07-.07.26.1.29h.07l.03-.26c.46-.33.29.75.49.03.16-.03.36.07.39.23.2-.33.46.13.69.1,0,.07-.03.16.03.23.13-.1.2-.23.39-.23l.13.26c.16-.33.46-.03.75.03l-.1.16.13.07.13-.23c.23.16.62.13.59.52.16-.07.13-.23.33-.13l.2.16s.07-.1.13-.07c.1.1-.1.33.16.29l.07-.2c.16.13.69.1.52.42l.07.1.2-.16c.2.16-.23.33.1.39l.07-.23c.13.03.29.03.36.2.23-.16.42.07.69.16v.1l.29.03c-.03.07-.07.13-.03.2l.07.1c.06-.33.39-.03.55.03,0-.03.07-.03.1-.03.03.1-.07.26.1.29l.16-.23c.23.16.46.52.72.39.16.16-.16.26.1.36l.16-.2c.26.1.49.49.78.46-.1.07-.03.13-.07.2l.29-.03c.07.16-.16.26.03.36.1-.39.39.07.62.07.23.29.52.52.75.72-.13.33.33.1.23.39.33.03.13.39.49.39.13.29.39.65.62.98,0,.16-.23.03-.16.2.03.03.07.1.13.07l.1-.1c.13.1-.13.49.23.39-.03.23.29.29.29.55.16.23.1.62.36.72.13.33-.49.26-.1.49l.13-.13c-.07.42.42.65.26,1.11.16.23.16.62.33.88-.1.13-.16.26-.13.36.33.13,0,.65.29.88-.03.36-.26.75-.07,1.11-.33.2.26.52-.1.72.03.07.1.03.16.03.1.36.1.88,0,1.17.69.33-.59.49.2.62-.03.42.07.91-.1,1.27-.03-.07-.06-.03-.1-.03l-.13.1c.03.2.29.26.42.33v.26c-.1-.03-.13.1-.2.13,0,.16.29.13.2.36-.06.03-.13.03-.2.1-.03.46.52.33.52.69.13-.2.29-.29.59-.36l.26.1c.07-.07.03-.23.03-.33.13-.03.07.2.26.1l.03-.36c-.07-.03.29.33.23-.03-.2.03-.13-.2-.2-.29l.2-.07c.13-.42-.33-.98.33-1.24-.23-.23.07-.42.07-.65.07-.03.2.13.2-.07.07-.23-.16-.03-.2-.13-.16-.33.46-.29.07-.55l.26-.52s.07.07.13.03c.16-.16-.13-.16-.03-.29-.03-.39.56-.36.36-.75l.2.13c.13-.26-.2-.39.13-.65-.13-.36.16-.65.29-.88.07.03.16.03.2-.03-.16-.23.03-.46.13-.69l.07.1c.13-.1.03-.2,0-.33.1-.33.39-.39.42-.78.07.03.1.1.16.07-.03-.46.36-.98.75-1.21.23.07.03-.23.16-.29l.16.07c.07-.07,0-.2.03-.33.1-.03.13.1.2.13.26-.1-.07-.2.07-.36l.2.1.13-.36s.07.16.2.1c.13-.2-.26-.33.06-.46-.03.1.03.2.1.26.07.03.13-.03.1-.1,0-.07.03-.13-.03-.16h-.07c.36-.46.95-.98,1.44-1.37.03.03.03.23.2.2.23-.16-.26-.26.06-.42,0,.13.1.13.16.2.26-.16-.2-.29.1-.42.13.03,0,.23.2.2.03-.03.1-.13.03-.16l-.1-.1c.07-.13.23-.07.33,0,.06-.07.03-.2.03-.29.06,0,.16,0,.2.07.23-.07-.13-.33.2-.26.26-.13.65-.52.98-.59-.03.07.03.1.1.16l.13-.33.1.07c.2-.2.62-.49.98-.62,0,.07-.03.16.03.2.23.07.03-.23.16-.29l.16.07c.13-.26.52-.46.82-.59.13,0,.03.2.2.13-.03-.42.33-.16.55-.39.2-.07.07.33.26.2.06-.07.03-.2.03-.29.13.03.29,0,.29-.16l.49-.2c.06.13-.03.16.13.26l.1-.33c.23.16.23-.2.49-.16.13.03.03.29.23.23v-.29c.23,0,.59-.36.95-.16.13-.23.42-.2.62-.33.07.07.1.16.2.13-.03-.33.39-.13.52-.33.23.29.59-.39.69.13l.13-.13s-.1-.03-.1-.1c.06-.03.1-.1.16-.1l.1.1c.03-.16.2-.16.33-.16.07.07.03.16.13.2-.03-.39.46-.2.65-.36l.13.13c.07-.16.2-.2.36-.23.1.07-.03.23.1.26.07,0,.16-.07.13-.16v-.1c.62-.03,1.04-.03,1.63.03.49-.13.78.1,1.27-.03.39,0,.78.23,1.24.13l.23.07c-.03.07-.1.1-.07.2.03.03.1.13.16.03-.06-.23.2-.29.36-.2.1.07-.13.16.07.23.1-.52.49.13.62-.07.2.1.75-.1.59.39.07,0,.13-.07.13-.13v-.13c.29-.13.29.42.55.16.16.16.39.16.52.33.33-.03.59.13.85.36,0-.07.07-.03.1-.07l.1.29c.2-.42.42.2.69.16l.03.1c.23-.23.65.26.91.29l.07.26c.29-.23.62.23.95.36v.16l.29-.07c.07.16-.23.26,0,.36.03,0,.1-.03.1-.1v-.13c.29.16.72.46.91.75.07-.1.13-.13.23-.03.03.1-.1.13-.13.2.1.2.23-.03.29-.07.23.16.42.36.69.46.1.33.36.13.36.49.07-.03.1-.1.16-.1.13.13-.13.36.16.33.07-.03.03-.1.03-.2l1.37,1.27c0-.07.07-.03.13-.03.13.07,0,.16,0,.23l.26.03v.23l.26.03c.07.1-.2.26.07.29.1,0,.07-.13.2-.1.07.16-.16.23.03.36l.1-.16c.33.07-.1.29.13.39l.16-.13c.33.36.62.69.82.91-.07.07-.1.13-.07.2h.26l-.03.29.23.03v.2l.23.03v.23l.23.07c-.16.36.42.13.26.49.36.26,0,.78.46.82-.2.36.36.2.23.55.36.2-.23.26.03.42.03-.03.1-.03.1-.1.23.03,0,.49.36.42.16.29.07.78.39.98.23.36-.2.72.2,1.01-.1,0-.2,0-.26.1,0,.07.07.07.1.1.1.07.13-.07.2-.1.1.2.13.46.1.69-.03.03-.07,0-.07-.03-.03.07-.1.1-.07.16l.23.03.36,1.21c-.26.1-.03.33.03.39.07.33.16.78,0,1.08.07.07.26.13.2.29-.07.07-.29.03-.2.2.36.16.13.75.2,1.11-.26.33.13.65-.1.98.03.2.29.23.36.39.39-.1.75-.52.88-.95.07-.06.13.13.23,0-.03-.03.03-.13-.03-.16h-.1c.13-.16.03-.75.39-.55,0-.03,0-.16-.07-.13h-.1c.33-.39.03-.85.26-1.27-.03-.23-.2-.46,0-.65.42.03.07-.49.46-.59-.16-.2.29-.26.03-.39l-.16.07c-.03-.23-.26-.55,0-.75-.33-.03-.16-.46-.26-.62.07-.03.03-.1.03-.16-.36-.16-.13-.75-.36-1.08.07,0,.13.03.16-.03.07-.26-.2-.07-.23-.16-.03-.26-.13-.59-.03-.78-.26.03-.13-.33-.29-.49.2-.16-.16-.26-.1-.46.07-.42-.13-.78-.16-1.17.03-.33-.1-.65-.16-.91.07.03.07-.03.13-.07.03-.16-.16-.07-.2-.16-.23-.33-.16-.88-.52-1.14-.29-.42-.2-.82-.59-1.21-.2-.2.07-.55-.23-.65-.13-.23-.46-.65-.26-.95-.39-.29-.72-.75-.78-1.31h-.13c-.2-.36-.59-.82-.59-1.24-.42-.2-.59-.69-.95-1.04-.85-1.08-1.89-1.99-2.77-2.87.16-.39-.42.03-.26-.39-.23,0-.39-.13-.29-.33-.46.1-.82-.36-1.17-.62.07,0,.03-.07.03-.1-.1-.23-.26.07-.42-.1-.13-.2-.52-.2-.59-.46-.36-.1-.82-.2-.98-.55-.23,0-.65.07-.75-.26-.2.07-.62.03-.78-.16,0-.13-.03-.29.13-.36.07,0,.07.07.13.07-.16-.42.55-.07.26-.46.03-.07.13-.1.2-.03l.07.07c.2-.07-.03-.16-.03-.26.13-.33.36-.62.59-.75-.16-.26.1-.42.16-.65.07.03.1-.03.16-.1-.23-.23.03-.46.07-.69l.16.07c.07-.03.03-.13.03-.2l-.2-.03c0-.16.1-.29.23-.36-.03-.1-.26-.23-.07-.36.26-.13-.23-.42.13-.62-.42-.2.26-.42-.13-.62l.16-.36c-.16,0-.26-.2-.29-.36.16-.55-.46-.59-.52-1.14.03,0,.2-.1.2-.23-.1-.16-.2,0-.29,0v-.23c-.69-.69-1.34-1.44-1.86-1.96.07-.03-.07-.1-.1-.16l-.2.03c.1-.1-.03-.23-.03-.33-.16.16-.29.16-.46,0v-.1c.36-.16.85-.16,1.17-.39.13-.07.39-.13.52,0,.03-.36.42-.26.65-.39,0,.26.29.55.03.72h.26v.26l.2-.03c.1.1-.07.29.16.26.26.29.42.72.65,1.08-.1-.07-.1.07-.13.1l.07.13.2-.16.13.13s-.2.13-.13.23l.07.07s.13-.07.13-.13c.1-.07.1.07.16.1,0,.13-.2.07-.13.2.03.16.23.07.23,0-.16.29.26.26.29.52.07.39.78.62.42,1.01.03.1.13.1.2,0v-.13c.2.13-.1.59.26.46-.1.33.42.16.29.46.42.36.69.82,1.01,1.17,0,.13-.23.23-.03.36l.16-.2.13.16c-.03.07-.16.1-.1.2l.03.03.2-.16c.23.16-.16.26.03.42l.2-.16.13.13c-.07.07-.16.13-.13.23.16.23.16-.26.33,0-.03.1-.13.13-.1.23l.29.07c-.03.07-.07.1-.03.2l.26.07c-.03.07-.07.13-.03.2l.07.07c.07-.03.1-.1.16-.07.26.1-.2.2.07.33l.2-.13c.2.13-.2.23.06.36.1-.07.16-.23.26,0,0,.13-.2.1-.13.23.03.07.13.03.16.03.07-.03.03-.13.03-.2.42.13-.2.65.33.33.29.13-.23.26.03.39.1-.03.23-.23.29-.03,0,.07-.13.1-.1.2l.1.07.1-.16c.07.07.13.07.16.13,0,.07-.1.13-.16.2l.13.1.1-.2.16.16-.16.2c.03.07.16.13.2.03l.1-.1.16.16c0,.13-.2.07-.13.2h.33l-.07.29.2-.07c.13.59.88.78.98,1.24.33-.03.2.42.49.39,0,.23.36.26.23.52-.03.2-.33-.07-.26.2l.26.03c.03.23-.13.29-.26.39.42.42.26,1.21.59,1.73l-.13.29c.23,0,.2.29.33.46-.33.26.2.26.13.52-.26.55.52.69.26,1.24.49.39.36,1.14.69,1.63l-.07.07c.13.23.55.52.23.78.26.1.42.49.52.75-.23.29.2.33.23.52.07.62.59,1.04.65,1.66.65.95,1.11,2.22,1.86,3.23.03.23.29.36.23.65.39.36.75.95,1.04,1.4-.07.69.1,1.47.13,2.06-.07.42.1.95.26,1.37-.2.42.36.62.13.95.46.42.03.85.46,1.27.26.72.39,1.57.78,2.28-.33.52.59.65.16,1.17.26.1.42.49.46.82-.1.23.2.2.2.36.13.2-.07.55.16.65.07.23.36.46.13.69.23.07.16.29.26.46-.29.39.33.42.29.82l-.16.2c.13.03.23.07.26.23.23.26-.29.59.16.65,0,.65.33,1.21.33,1.83-.07,0-.13,0-.13.03.33-.03.23.39.33.59l-.07.03c-.16-.16-.42-.49-.52-.78,0,.03.03.07.06.07.03-.03.1-.07.07-.13-.07-.13-.16-.03-.26-.03.16-.36-.29-.23-.23-.52-.55-.42-.88-1.27-1.5-1.63l-1.21-1.27c-.06.03-.13.07-.2.07v-.33l-.23.16c-.2-.07-.13-.39-.42-.29-.23-.1-.26-.42-.55-.42,0-.07,0-.16-.1-.23-.33.2-.55-.06-.88.13-.03-.07.03-.13-.03-.16-.1-.03-.16.03-.13.1v.13c-.29-.13-.42.2-.59.33.07.16-.13.13-.2.2.1.42.98.75.72,1.27.23.13.33.39.33.69-.03,0-.1-.03-.1.03,0,.03-.03.13.03.16l.16-.1c-.13.29.39.52,0,.75l.26.07c-.03.33.33.59.2.91.52.26-.03.88.49,1.17.03.49.26.95.33,1.44-.03.1-.16.03-.2.13.03.07-.03.13.07.16l.13-.16.16.65c-.03.07-.2.03-.16.16.49.13.03.85.39,1.17.23.36-.07.72.13,1.01l-.13.33c.36,0,.16.42.33.59l-.13.13c.13.1.2.23.16.42h-.16v.16h.2l.13,1.04c-.06-.03-.1.03-.16.07-.03.06.07.1.1.13l.13-.16c-.1.26.23.52,0,.78.36.33.16.75.26,1.21,0,.2.16.29.1.52-.03-.03-.07-.1-.1-.07-.1.03-.03.1-.07.13.26-.1.16.29.26.39-.23.42.03.75.07,1.11l-.16.23c.07.07.2.03.16.16-.07.07-.13.1-.2.03-.13-.55-.59-1.04-.65-1.53l-1.44-1.83c.06-.03.06-.13.13-.16-.1-.2-.16.03-.26,0,.29-.46-.49-.07-.29-.55h-.2l-.03-.26c-.07.07-.16.03-.23.03v-.29c-.13.03-.23.07-.29-.07l.13-.13-.07-.1-.2.16c-.78-.59-1.27-1.31-2.06-1.57-.33-.03-.26-.55-.65-.46.03-.29-.33-.1-.42-.29-.33-.16-.62-.42-.75-.65-.36.16-.75-.26-.98-.49-.13-.1-.46-.07-.62-.23-.16-.13-.39-.13-.39-.39-.26.1-.52.07-.72-.1,0-.26-.26-.33-.39-.49-.1-.23-.33-.36-.52-.49-1.4-1.73-2.71-3.46-4.34-4.89l-.2-.07.03-.1-.29-.16c.07-.1.07-.16-.03-.23-.36.2-.49-.39-.78-.39-.29-.23-.49-.55-.85-.72.13-.07,0-.16-.07-.23-.33.33-.52-.26-.82-.36-.03-.23-.39-.13-.33-.39h-.23v-.26l-.26.03c-.07-.07.16-.26,0-.36-.1-.03-.13.07-.16.1l.03.2c-.26-.1-.49-.33-.65-.55l-.13.03s-.13-.65-.23-.13c-.26-.03-.52-.39-.78-.46v-.2c-.36.23-.65-.26-.95-.33l-.07-.26c-.1,0-.13.1-.16.13-.2-.2-.59-.1-.62-.46-.13.33-.42.07-.59-.03.03-.26-.26-.13-.36-.2-.07-.03.13-.13.07-.26l-.07-.1-.2.33c-.2,0-.26-.33-.49-.23-.1-.13.07-.23-.07-.33-.23.07,0,.39-.33.2-.07-.1-.26-.26-.39-.2.06-.03.03-.13.06-.2l-.1-.07c-.1.36-.33-.03-.49,0l-.26-.29c-.1.23-.23.16-.39.16-.2-.1-.55-.06-.78-.23-.16-.26-.72-.03-.82-.42-.16.29-.42-.03-.65-.03l-.03-.2c-.1-.03-.33.16-.36,0-.1-.2.13-.16.2-.26-.07-.07-.1-.16-.1-.29.16.03.13-.16.13-.23v-.13c.1-.07.2.16.23-.03-.42-.39.26-.49.42-.82.29-.26.55-.42.88-.69l.2.2.1-.1c-.07-.07-.07-.13-.07-.2.23.13.33-.23.55-.16l.16.23c.1-.29.46-.39.69-.65.46-.23.75-.55,1.01-.98l.13.03.03-.33.23.1c.1-.59-.03-1.57.13-2.09-.1-.13-.1-.2-.16-.39.06-.1.13.07.2-.07-.33-.13-.2-.72-.26-1.11.23-.2-.26-.52.07-.72-.42-.13.06-.82-.42-1.04.07-.39-.33-.62.03-.95-.2-.16-.36-.52-.59-.75,0-.33-.72-.42-.29-.82-.07-.03-.13-.13-.16-.03-.07.07-.03.16-.03.23-.23-.03-.33-.33-.55-.23-.16-.1.13-.23-.1-.33-.16.55-.46-.2-.65.1-.52-.36-.91-.26-1.4-.62h-.13c.03-.13.13-.23-.03-.33-.1.03-.16.2-.07.26-.42.2-.29-.46-.65-.26.07-.07.03-.2.07-.26l-.07-.07c-.23.07-.1.39-.39.2,0-.29-.46,0-.33-.39l-.2.07c-.03-.16.07-.23-.1-.36l-.2.2c-.42-.36-.98-.75-1.14-1.31.1,0,.2.1.26-.03v-.13h-.33s.16-.2,0-.26c-.13-.1-.16.2-.26.03.03-.07.16-.13.1-.26l-.1-.1-.16.33c-.46.1-.1-.52-.49-.2.03.1.16.16.07.23l-.26-.1c.2.26-.2.46-.07.72-.1.03-.2,0-.23.1-.03.07.03.1.07.16l.2-.13.03.36c.13.03.2-.2.29,0l-.1.2c.39-.26.23.33.46.46.13.36.82.72.49,1.08l.1.07c.16,0,.1-.29.26-.07l-.13.26h.36c.07.13-.23.2-.07.33.1.03.16-.1.2-.16.33.13.62.49.95.65.07.1.1.36.29.23l.03.29c.39-.2.1.42.52.2l-.03.36c.23-.46.52.16.78.23.42.26.59.75.62,1.24.23.1.03.39.07.52.23.72.29,1.5.1,2.19.46.26-.2.49.16.75-.07.55.26,1.31-.13,1.66-.29.29-.75.62-1.14.49-.46.49-1.37.88-1.63,1.57l-.23.07c.29.23-.13.42-.07.69,0,.33.1.72-.23.88-.13.07-.16-.07-.2-.16-.36.23-.82-.03-1.21-.07-.06-.07.1-.29-.13-.33-.13.16.03.36-.29.29-.07-.06-.07-.16-.16-.23-.07.07-.2.29-.36.13l-.2-.13c-.2.36-.39-.26-.62.07-.23-.16-.59,0-.85-.16-.62.07-1.24-.07-1.89-.03-.13-.1-.29,0-.46,0-.59-.16-1.14,0-1.73-.16.23-.33.49-.69.75-.85-.1-.07-.03-.16-.07-.23.16-.16.2.33.33,0-.23-.16-.1-.49.03-.59.1-.1.2-.23.33-.13.03.33.59.2.78.52.29.07.62-.07.75.29.16-.29.36.07.59,0,.29.07.59-.13.85.03l.75-.33c0,.07-.03.16.07.23h.03c.03-.13,0-.42.26-.33.03-.62.65-.91.65-1.57.29-.13.23-.65.52-.82-.23-.2.06-.39.06-.62.07,0,.13,0,.2-.1-.26-.23.13-.42.13-.69.36.03-.07-.33.2-.49.2-.13.16-.65.49-.49,0-.07,0-.16-.07-.16h-.1c-.07-.29.29-.33.29-.59l.07.07c.1,0,.16-.13.1-.23-.03-.07-.13-.03-.16-.03.03-.33.59-.46.42-.78-.2-.13.23-.39-.16-.42l-.03-.72h-.23c.03-.07.07-.29-.1-.29-.13.33-.42-.13-.62-.1.03-.1-.07-.13-.1-.2-.1.16-.16.26-.36.2,0-.1-.03-.2-.13-.26l-.1.36c-.23-.16-.56.29-.69-.1l-.1.33c-.23-.03-.46.29-.72.29l-.16-.13c-.16,0,0,.52-.26.23l-.13.07c0,.16.13.16,0,.29-.03-.03-.1-.13-.2-.1-.16.2.29.26-.03.39-.1.07-.07-.33-.23-.2-.2.16.2.26-.03.39l-.16-.2c-.23.13.13.39-.16.39l-.13-.1c-.2.1.07.23-.06.33-.13.03-.07-.16-.2-.1-.26.16.2.2-.07.36l-.2-.13c-.1.07-.03.2-.07.26-.1.1-.2-.13-.26.07.03.07.03.16.03.23-.03.03-.06.03-.1.03l-.1-.13c-.16.1,0,.23-.03.36l-.33-.03c.23.52-.46.85-.59,1.21l-.13-.07c-.16.13.1.26-.1.36-.07.03-.2-.26-.26-.07.36.46-.29.55-.33.95-.03,0-.1.03-.1-.03-.23.1.03.26-.07.36-.2.13-.16-.29-.29-.03.33.36-.29.42-.29.82-.39-.1-.13.59-.49.29.23.59-.59.65-.69,1.14-.1-.03-.13.1-.2.13.1.03.1.13.1.23-.1.13-.2-.29-.33-.03.36.29-.29.62-.29.88l-.2.1c-.03.07.07.1.03.16l-.1.07-.13-.13-.13.13c.03.1.23.1.16.26-1.37,1.37-2.51,2.58-4.01,3.62l-.2-.13c-.16.49-.78.03-1.11.33-.13-.26-.46.23-.59-.13-.16.03-.33.23-.46.03-.2,0-.49.2-.62-.1-.03.2-.13.07-.26.16-.16-.55-.52.33-.69-.2-.16.03-.2.16-.42.1.03-.03-.03-.07-.06-.1-.29.26-.56-.23-.78.03-.33-.26-.55.13-.91-.16,0-.1.03-.23-.03-.33l-.16.13-1.01-.72s.03-.06.03-.1c-.07-.16-.2-.03-.26-.03.03-.13.03-.26-.1-.33l-.1.07c.16-.36-.39-.1-.29-.46-.39.07-.07-.42-.42-.39,0-.29-.55-.59-.23-.91l-.13-.1c-.1,0-.1.2-.23.07l.13-.23c-.36.07-.16-.39-.49-.33-.16-.33-.62-.72-.49-1.08.07-.03.03-.1.03-.16-.03-.07-.1-.03-.16-.03-.03.03-.03.07-.03.1h-.07c-.03-.13.07-.42-.26-.39.2-.26-.29-.16-.26-.42-.03-.33-.69-.55-.42-.95-.39.16-.07-.42-.42-.33-.23-.42-.59-.85-.59-1.31l-.13.13c-.1-.07,0-.46-.26-.33.1-.13-.03-.33-.2-.33-.1-.26-.52-.59-.26-.88-.03-.03-.07-.1-.13-.1-.1.07-.03.13-.07.2-.1.07-.1-.07-.13-.1,0-.13.16-.26,0-.36l-.13.13c.1-.36-.39-.26-.26-.55-.42-.29-.69-.88-.98-1.31l.03-.2c-.26-.36-.59-.62-.78-1.08,0-.1.13-.13.1-.26-.16-.23-.16.13-.33.1-.2-.36-.55-.55-.91-.75.03,0,.03-.07.03-.13-.03-.03-.1-.1-.16-.07-.03.1-.1.13-.06.23-.36.2-.29-.69-.46-.1-.1.16-.36.16-.52.29-.07-.07-.03-.2-.16-.26-.2.2.07.36-.16.59-.36,0-.2.42-.46.49.29.23-.07.42-.03.65-.16.46.42.82.23,1.17.23.16.13.69.39.85-.13.69.59.82.26,1.44.33-.07.2.33.33.46l-.13.23c.29-.03.33.36.39.55.07.07-.39.13-.1.29.07,0,.16-.13.23,0-.03.07-.07.13-.03.2.13.03.2.1.23.23.2.36.78.65.42.98.03.16.23.1.23,0-.16.42.46.26.33.59.13-.07.2-.23.42-.23,0,.1-.03.2.03.23.2,0,.26-.26.46-.07.07.2.16.07.29.03.55.03.95.16,1.53.16-.1.1-.13.26.03.26.16.03.16-.23.03-.26.55-.2.55.62.91.82.13.2-.13.26-.03.42l.23-.07c.06.07.03.2.03.26-.49-.1-.88-.1-1.34,0-.16-.29-.55.33-.65-.2-.16.13-.13.26-.36.2l-.1-.23c-.2.07-.13.46-.39.23-.1-.03,0-.33-.16-.26-.16.07-.06.2,0,.26-.49.1-1.04,0-1.5.1-.26-.36-.39.2-.62,0-.03-.07-.03-.16-.13-.2-.07.16-.13.33-.39.26.03-.26-.39-.52.07-.69-.1-.13-.2-.13-.29-.07.07-.26-.33-.55.03-.72-.07-.07-.16-.03-.26-.07-.2-.29.2-.62-.13-.72l-.07.2c-.2-.1.03-.26,0-.39-.06-.07-.16-.03-.23-.07.16-.29-.33-.16-.23-.42-.36.03-.16-.59-.55-.29v-.29h-.2l-.03-.26c-.16-.03-.2.26-.33.03-.03-.07.23-.16.07-.26-.16.23-.36,0-.46-.16l-.13-.13c.1-.03.23-.13.13-.23l-.03-.03-.16.2-.16-.16c.07-.03.16-.13.13-.26l-.03-.07-.16.26c-.29-.23.03-.23-.1-.49l-.2.16c-.03-.23-.59-.29-.26-.62-.07-.16-.1-.33.07-.42l-.2-.2c0-.16.2-.13.26-.29-.07-.23-.36.07-.26-.26l.26-.2c-.29-.33.13-.72.07-1.08.46-.13-.1-.46.23-.69-.16-.26.13-.49.1-.69.07,0,.13.03.2-.03,0-.23-.36-.16-.13-.42.07.03.1-.03.16-.07-.36-.39.29-.78,0-1.27l.1-.42c.1,0,.2.1.26-.03-.52-.23.1-.42,0-.75l.23.07v-.29c.13.03.26.03.26-.2.42-.33,1.08-.16,1.5-.55h.1c-.03.07.03.1.1.16.07-.29.26-.2.49-.39.23-.13.42-.36.55-.03.16-.23-.29-.42.16-.49,0,.07-.03.16.03.2.06.03.1-.03.16-.07l-.13-.16c.03-.1.16-.13.26-.03.26.03-.07-.2.1-.29.33.03.75-.55,1.11-.82.26-.26.69-.52.98-.82-.29-.07-.36-.59-.72-.26l-.1-.13c-.06.07-.16.13-.13.23l-.42-.23c-.07.2-.16.13-.33.2-.07-.07,0-.26-.16-.26-.13.03-.06.2-.03.26l-.26.03c-.03.26-.33.26-.55.36-.1-.07,0-.2-.13-.23-.26.03.03.29-.07.36-.16-.26-.33.13-.52.1l-.2-.23c-.13.07-.07.23-.03.33-.33-.13-.62.36-.98.2,0,.26-.26.13-.39.1.03-.1-.03-.16-.1-.2-.2.07-.03.26.03.29-.29-.23-.65.42-.75-.1-.07.29-.42.33-.65.36l-.1-.13c-.13.2-.36.23-.59.33-.23-.26-.59.23-.78-.13-.03.16-.07.33-.26.26l-.03.29c-.07,0-.13-.03-.16-.07-.1.03-.1.13-.03.2l.03.03c-.06.16-.16.03-.23,0l-.16.36-.13-.13c-.23.1.1.26-.1.36-.07-.03-.1-.1-.16-.13-.26.13.16.29-.1.39l-.2-.13c-.16.23.29.42-.07.65l-.07.59c-.07.1-.2-.13-.26.03,0,.29.42.07.2.39l-.2.16c.26.33-.07.59.13.91-.07,0-.1.07-.16.1.13.36,0,.78-.1,1.14-.1,0-.16-.03-.2.03.55.23-.33.42.1.72v.23c-.23.13-.03.39-.16.59l-.26.2c0,.23.23.13.16.39l-.2.13c.16.16.23.26.29.49-.23.29.16.52-.07.78.29,0,0,.23.16.36.36.91,1.11,1.76,1.96,2.32v.16l.29.03c0,.1-.16.23,0,.29l.13-.2c.26.16.65.39.78.65.36-.07.13.39.46.33.13.33.59.62.65.98-.1-.03-.2.13-.16.16l.23.13c-.03.2.23.42.33.62-.23-.23-.69.46-.72-.13-.23-.03-.07.23-.16.29-.23-.1-.46.26-.62-.03-.16.46-.72.07-1.01.33h-.16c.03-.07-.03-.1-.06-.13-.23.03-.03.13-.13.23-.2.23-.72-.13-.82.16-.06.07-.16.03-.23.03-.13-.1.07-.26-.16-.29.16.39-.33.29-.52.36-.33-.29-.42.33-.82.29-.07-.07-.07-.13-.13-.16-.2-.03-.03.16-.1.23l-.52.16c-.03-.07-.06-.16-.16-.23-.23.1.16.59-.26.29-.03.33-.42.23-.59.39l-.2-.2c-.23.1.13.33-.16.33-.23.03-.59.29-.88.2-.07.13-.1.16-.2.2-.2,0-.39.16-.55,0,.03.33-.42.23-.62.29,0-.03-.07-.06-.1-.1-.03.42-.52.49-.95.55l-.1-.13c-.07.07-.03.2-.03.26-.33.1-.62.36-.95.26-.13.29-.46.23-.69.29,0-.07-.07-.1-.1-.16-.03.1-.13.03-.13.13l.1.07c-.26.16-.78.55-1.04.29-.07.1.03.39-.23.26-.26.2-.59.46-.95.52l-.06-.13c-.1.42-.62.46-.95.69,0-.1,0-.16-.06-.2-.07-.03-.1.03-.13.07,0,.1.16.16.03.23-.33-.13-.23.26-.49.29-.23.1-.59.46-.75.13-.03.16,0,.33-.23.26-.13.26-.39.29-.62.39-.06-.1-.06-.26-.2-.26-.16.16.1.16.03.33-.16.1-.36-.1-.36.2-.36,0-.59.59-.95.2v.33l-.29-.07.06.26h-.33l-.03.26c-.07,0-.1-.03-.2-.03-.07.07-.03.16-.03.23-.23-.1-.26.16-.36.23-1.04.85-2.09,1.53-3.03,2.58-.49-.26-.69.33-1.11.33.03-.1-.06-.16-.13-.23-.26.13.2.29-.03.39l-.23-.13c-.07.07-.03.16-.03.23-.39-.03-.69.62-.98.2v.29c-.39-.13-.39.29-.75.29-.13.26-.42.33-.55.1v.29l-.23-.07-.13.26-.03-.03c-1.04.59-1.86,1.44-2.64,2.35-.03-.03-.1-.03-.13-.03.39-.29-.03-.78.26-1.04l.13.1c.07-.03.2-.13.07-.23l-.2-.03c.03-.1.03-.36.2-.29,0-.16-.23-.42.07-.59-.23-.23.1-.42,0-.65.07-.03.23.2.29,0,.03-.1-.07-.13-.1-.2l-.13.06v-.33c.07-.03.1.13.2.07.07-.03.03-.1.03-.16l-.23-.07c-.13-.36.59-.26.13-.59.23-.07,0-.59.33-.36.16-.13-.1-.2-.07-.36l.23-.42c.03.07.1.03.13.03l.07-.07c-.49-.13.16-.42,0-.72.1-.03.13.1.2.13.07-.07.1-.13.1-.2l-.26-.1c0-.23.39-.26.26-.52.13-.03.2.16.29-.07l-.2-.23c.29-.03.23-.36.49-.46-.07-.36-.36-.46-.59-.62-.26.23-.42-.33-.65.03-.03.06-.13.03-.23.03.03-.1-.07-.13-.1-.2-.2.07,0,.39-.33.26-.29.52-.91.65-1.14,1.11l.1.06c-.03.2-.23,0-.29.07l-.03.26c-.07.13-.2-.23-.26,0,0,.07.03.13.03.2h-.29c.03.07-.03.16.07.2-.07.03-.07.1-.13.07l-.13-.1-.07.36c-.1-.03-.2-.23-.26-.07l.1.29c-.1.03-.2.03-.26-.1l-.13.13c.23.39-.36.69-.55.95v.1c-.07.03-.23-.07-.23.1-.03.06.03.1.1.16-.36.46-.52.91-.95,1.37,0-.36-.23-.72-.03-1.04-.1-.16-.2-.39.03-.52-.13-.1-.2-.2-.16-.36.07.03.1-.03.16-.1,0-.16-.26-.1-.16-.33.07-.07.16-.07.23-.16-.13-.03-.39-.23-.23-.42.07-.03.1.07.16.03.03-.07.1-.1.07-.16-.1,0-.29-.1-.23-.33l.07-.07.1.07.1-.1c-.03-.2-.33-.07-.23-.33l.23-.16c-.03-.1-.29-.1-.2-.29.55-.16-.23-.49.2-.75l.1-.59c.07,0,.2.03.26-.03,0-.2-.23-.2-.16-.42.2-.1.1-.55.26-.78.07-.03.16.03.23-.07-.33-.1-.06-.42,0-.62l.23-.07c-.33-.23.1-.46.07-.75.07.07.13.03.2.03l.1-.07c-.42-.1-.03-.49,0-.72.1-.03.16.13.23,0-.23-.13-.06-.42,0-.62l.26-.13c-.26-.16.03-.39.07-.62.42.07,0-.52.46-.36-.07-.26.16-.59.36-.85.36.1.03-.62.42-.26l.13-.13c-.49-.1,0-.42.03-.62.1-.03.16-.1.2-.2v-.13c.1-.03.16.13.23,0-.26-.13,0-.42.07-.62.33-.03.1-.49.46-.39-.16-.29.2-.65.42-.91.36.13.03-.39.39-.26-.13-.36.36-.55.39-.95.23-.07.16-.46.36-.65l.23-.33s.03.07.07.03c.13-.03.03-.13.03-.23.07-.29.33-.62.55-.78.06-.07.03-.16.03-.26.16-.1.16.16.29.03-.29-.16.03-.42.07-.62.16-.36.46-.36.49-.82.2-.13.2-.52.46-.49-.1-.62.62-1.01.62-1.66.1,0,.2,0,.23-.1-.29-.29.16-.69.13-1.08.29-.07.03-.26.13-.39.23-.65.29-1.21.39-1.93.03-.55,0-1.17.2-1.7.06.03.13,0,.2-.07-.16-.07-.26-.2-.2-.39.36-.13-.26-.36.1-.59-.1-.1-.2-.29-.03-.39l.13-.1c-.1-.1-.16-.23-.13-.39l.13-.07c-.13-.1-.13-.26-.13-.42.23-.16-.06-.42.16-.62-.07-.52.13-.98.1-1.57.36-.03.39-.42.75-.46l.23.2.1-.07c0-.13-.2-.07-.13-.2l.36-.03c-.07-.03-.03-.1-.03-.16.36.13.26-.39.59-.36.78-.59,1.6-1.5,2.25-2.06v-.26h.33c-.26-.36.39-.75.52-1.08l.26-.13c-.2-.16.03-.33.07-.49l.26-.26-.07-.03c.29,0,.23-.26.26-.42.1-.2.23-.55.46-.59-.1-.39.33-.69.42-.98.03.07.1.03.16.03.16-.13-.13-.1-.07-.26.03-.16.16-.46.33-.42-.07-.36.26-.69.36-.98.1-.07.16.1.23,0-.26-.23.03-.46.1-.69.36.1.03-.46.42-.26.07-.07.03-.16.03-.23.33.29.2-.42.52-.26-.07-.29.36-.1.29-.42.1,0,.33.03.26-.16v-.07l.26-.03c-.07-.07-.03-.16-.03-.23l.23.03.03-.36c.1,0,.13.16.23.16l.1-.1c-.07-.13-.16-.13-.13-.29.2-.29.59-.55.62-.88l.2.07c-.03-.23.07-.49.16-.69.29-.1.16-.62.39-.75.06-.26,0-.75.36-.72,0-.13-.33-.49.03-.59-.2-.03-.1-.23-.1-.36.2-.1-.03-.23.1-.36.33.03.91-.13.98.36h0Z"/><path class="cls-2" d="m80.65,67.29c-.91.75-1.3,1.89-1.5,3.03.13.49.23,1.01.49,1.4.03.75.62,1.4,1.08,1.79-.78.16-1.7.2-2.45.26-.07-.16,0-.42-.23-.52-.36.03-.65-.13-.88-.36-.49-.69-.39-1.5-.39-2.38.2-1.27.59-2.51,1.47-3.46.75-.49,1.73-.07,2.41.23h0Z"/><path class="cls-2" d="m127.89,68.63c1.37.91,3.49,1.34,3.78,3.26.29.46.39,1.21.2,1.7-.46,1.04-.82,2.09-1.73,2.81.03.26-.23.33-.39.23-.36-.07-.85,0-1.17-.2-.07-.26.29-.36.36-.55.55-1.5.36-3.33-.75-4.54-.75-.82-1.73-1.66-2.77-2.12v-.13c.65-.36,1.44-.65,2.15-.82l.33.36h0Z"/><path class="cls-2" d="m119.74,72.54c-.1,1.34.16,2.48,1.01,3.49.13.33-.33.26-.42.26-1.57.16-2.9.55-4.5.39l-.1-.1c1.08-1.44,2.71-2.87,4.01-4.05h0Z"/><path class="cls-2" d="m89.39,72.93c.69.78,1.5,1.76,2.06,2.71l-.1.07c-1.21-.52-2.58-.85-3.78-1.37.07-.26.49-.1.69-.29.42-.23.82-.69.98-1.11h.16Z"/><path class="cls-2" d="m100.55,82.07c.03.07-.07.13-.13.13h-.13l.13-.26c.07,0,.1.07.13.13h0Z"/><path class="cls-4" d="m113.6,102.5c1.63.23,3.39.62,5.06,1.01.78.03,1.47.23,2.25.42,1.34.55,2.94.65,4.11,1.63,1.01.26,1.63.98,2.64,1.31.39.46.85.62,1.34.98,1.83,1.11,3.36,2.41,5.09,3.82.03.36.42.29.46.62.16-.23.2.13.36.13-.03.46.49.52.62.85l.07-.03.07.23c.23-.1.16.29.36.39,1.79,1.6,2.61,3.85,3.75,5.68.07.55.52.85.59,1.4.2.2.1.36.23.55,1.08,2.32,1.57,4.89,1.99,7.41.16,1.47.23,2.81.1,4.21-.26,1.5-.23,3.1-.95,4.44-.42-.1-.2-.65-.36-.95-1.27-2.94-3.49-5.55-4.27-8.71,0-.85-.65-1.37-.46-2.28-.2-.65-.07-1.24.26-1.79-.2-.33-.59-.46-.88-.29-.62.26-.42,1.08-.62,1.57-.36.95-.16,1.96-.59,2.84.07.49-.13,1.04-.16,1.47h-.13c-.1-.2.06-.59-.26-.62-.98-1.5-3-1.92-3.69-3.62-.16-.75-.65-1.37-.62-2.12-.36-.72-.26-1.66-.55-2.38.06-.46-.1-1.01-.16-1.5.23-.52-.13-1.11.16-1.6-.26-.36.52-.36.06-.72-.33-.29-.78-.29-1.17-.1-.49.2-.26.75-.49,1.04-.42,2.35-1.27,4.5-1.37,7.02-.91-1.04-1.99-2.25-2.71-3.46-.2-.36-.52-.75-.56-1.14-.49-.29-.49-1.11-.62-1.7-.39-1.57-.1-2.94-.07-4.5-.13-.2-.23-.46-.52-.52-1.11.2-1.34,1.44-2.09,2.15-1.34,1.34-1.63,3.2-2.28,4.86-.13.52-.29,1.08-.33,1.57-.56-.03-.98-.69-1.53-.88-.56-.59-1.57-.88-2.19-1.44-.98-.65-1.57-1.34-2.35-2.12.13-.42-.55-.55-.46-.98-.52-.23-.26-1.7-1.24-1.04-.29.23-.07.55-.13.85-.26,1.57.75,2.81,1.17,4.21-.26.16-.36-.2-.65-.16-1.14-.85-2.35-1.63-3.62-2.35-1.47-1.44-2.9-3.07-3.82-4.99.03-1.96-.2-3.69.07-5.78.39-.13,1.01-.03,1.47-.23v-.13c.52-.1,1.01-.26,1.5-.39.2-.29.65-.39.95-.65.88-.78,1.63-1.89,2.55-2.74.23-.42.75-.59.88-1.11,1.17.29,2.61.2,3.75.39h0Z"/><path class="cls-4" d="m95.13,102.5c.95,1.17,1.96,2.61,2.81,3.78.42-.03.62.55,1.04.52.52.59,1.4.36,2.19.52.13.2-.1.42-.03.69-.03,2.55.95,5.22.2,7.8-.49,1.83-1.31,3.62-2.68,5.02-.85.49-1.76.75-2.68,1.08-.1-.26.03-.65.07-.95-.13-1.37-.46-2.9-.07-4.24.29-.2.91.07.88-.46-.1-.55-.75-.82-1.17-1.04-.29.03-.26.33-.36.52-2.61.33-3.88,2.84-5.84,4.44-.55.88-1.24,1.53-1.73,2.45-.29-.52-.78-.98-.82-1.6-.29-.26-.2-.75-.36-1.08-.16-.52.03-1.04-.13-1.6.26-.26-.13-.65.23-.91-.07-.52.03-1.14.42-1.47-.13-.59,1.27-1.24.07-1.5-.42.26-.85-.16-1.24.2-2.74,1.57-5.68,3.82-7.02,6.75l-.55,1.04h-.13c-.59-1.24-1.66-2.28-2.55-3.33-.72-.72-1.73-1.11-2.64-1.34-.26.07-.55.13-.69.42.42,2.15-.2,4.08-.85,5.97-.33.59-.69,1.17-1.08,1.76-.33-1.04-.78-1.99-.88-3.13-.16-.59-.29-1.24-.42-1.89-.29-.16-.62-.46-.98-.23-.46.59-.03,1.24-.26,1.92-.62,1.93-1.53,3.82-3.07,5.29-1.7,1.47-3.65,2.77-5.16,4.54-.33-1.37-.1-2.81-.03-4.27-.33-.39.29-.85-.1-1.27.13-1.01.23-2.06.23-3.1.33-1.27.33-2.64.91-3.82-.23-.52.46-.55.23-1.08.46-.82.72-1.66.98-2.54.33-.62.49-1.34,1.01-1.86.2-.59.65-1.08,1.08-1.6.42,0,.72-.49.85-.85.39-.88,1.37-.69,1.89-1.4.59-.23,1.04-.95,1.76-1.08.29-.49.91-.26,1.17-.78.82.2.95-.78,1.73-.69.36-.49,1.08-.33,1.4-.85.69-.1,1.21-.82,1.96-.69.33-.59,1.08-.29,1.47-.75.72-.23,1.44-.46,2.09-.82.62.23.85-.42,1.44-.36.29.1.49-.39.78-.23.49.07.78-.59,1.27-.23.46-.42.98-.13,1.47-.55.55.03,1.11-.23,1.63-.1.36-.36,1.01-.13,1.44-.42.88.07,1.57-.29,2.41-.26,1.6-.36,3.3-.16,4.89-.55.52,0,1.01.13,1.5.2h0Z"/><path class="cls-5" d="m120.45,119.89c-.13.55.42.88.29,1.4.13.52.36.88.29,1.4l.2.29c0,.13-.26.03-.23.23l.13.1.07-.07.69,1.04c-.07.1-.16.03-.2.13,0,.07.1.13.13.2l.13-.2c.1,0,.16.13.07.2l-.1.13.1.1.16-.16s.16.2.03.29c0,.03,0,.1.07.1l.2-.13.62.62c0,.1-.26.07-.16.26l.07.1c.2-.07.1-.39.33-.2.36.23-.07.42.16.69.1-.07.13-.16.1-.29.26.1.49.26.59.52.16.1.2.13.29.29l.16-.1.03.29c.16-.13.33,0,.55.07,0,.07.13.13.03.2-.16.07-.2-.07-.29-.16-.1.13-.23.2-.42.2,0-.07.03-.16-.07-.23-.07.29-.42.33-.69.36l-.07-.13c-.07.23-.46.16-.62.33-.33-.33-.33.26-.69.23l-.29-.1c.03.2-.2.2-.33.29-.23.2-.65.69-.95.33-.16.1.03.2,0,.29-.23-.2-.29.23-.52.26-.1.06-.03.16-.07.26l-.2-.03c-.49.42-1.01.82-1.4,1.37-.16.13-.42.39-.65.49-.2.1.03.2-.03.33h-.29c-.07.16.23.26,0,.36l-.23-.16c-.13.13.07.23.03.36-.2.23-.33.55-.55.65.1.39-.46.1-.29.52-.1,0-.23-.1-.29.03-.03.13.23.2.07.33l-.26-.16c.03.29.1.49-.13.75-.26-.03-.1.26-.2.29-.03-.03-.13-.1-.2-.07-.1.03-.03.13-.06.2.03.03.1.03.13.03-.07.33-.49.46-.39.78-.13.07-.2-.13-.26.03.2.2-.07.39-.1.59-.1.07-.26.16-.2.36-.1,0-.23-.1-.26.03.33.16.03.49-.1.69h-.1c.13.23-.16.39-.16.65l-.2.07c-.07-.07-.03-.26-.2-.23.13.33-.26.23-.42.39-.16.07-.2-.07-.29-.16-.16.59-.91,0-1.17.52-.46-.13-.69.29-1.11.2-.23.42-.81-.03-.91.39-.29.2-.62-.23-.72.2-.23,0-.56.39-.65-.03.16.49-.42.2-.55.49-.29.03-.52.13-.82.33l-.23.07c-.07-.07-.07-.16-.16-.23-.16.06-.03.2-.03.29-.29.03-.69.52-.98.23-.07.36-.46.42-.82.55l-.26-.13v.26c-.1,0-.36,0-.33.2-.33.07-.62.39-.91.26-.03.33-.46.33-.65.59-.26.2-.2-.2-.36-.2-.16.1-.03.2,0,.29-.39.03-.59.29-.95.49-.49-.36-.23.46-.62.23l-1.27,1.04-.26-.2c-.33.23.33.23,0,.42l-.23-.2c-.16.1-.03.26.03.29l.03.03c-.1.26-.23,0-.36-.03v.29c-.1.13-.2-.23-.29,0,.23.13.03.39-.13.46-.1-.1.07-.29-.2-.26-.03-.42-.42-.55-.55-.98-.03-.13.2-.26,0-.39l-.2.13c-.13-.13.23-.29-.07-.36h-.13c.03-.1-.03-.2-.1-.26-.03.03-.1.03-.13.03l-.03-.26h-.2c.1-.23-.13-.33-.26-.33.1-.06-.03-.16-.1-.23-.03.03-.07.03-.1.03.07-.13-.13-.42-.29-.33.1-.07-.03-.16-.07-.23-.06,0-.1.07-.16.03l-.03-.26h-.23c0-.13.13-.23-.07-.33-.07.03-.13.13-.23.1-.13-.1.07-.1.1-.16.03-.03-.03-.13-.1-.2-.42.39-.62-.52-1.14-.52-.03-.03.07-.23-.07-.26-.26.16-.55-.2-.82-.33-.07-.16-.23-.23-.36-.1-.29-.07-.39-.39-.65-.33-.03-.03-.13-.07-.1-.1l.1-.1-.13-.16c-.13.13-.2.23-.36.13-.23-.13-.23-.39-.55-.36,0-.06.03-.2-.03-.26-.13-.07-.16.07-.2.16l-.49-.26c.07,0,0-.1.03-.13-.13-.23-.26.06-.36.06-.16-.2-.52-.06-.46-.42-.26-.07-.2.36-.49.16,0-.1,0-.16-.07-.2-.33.29-.75-.1-1.14-.13-.1-.16-.2-.07-.33-.03-.33-.16-.85.03-1.01-.36-.23.33-.46-.1-.75-.07l.1-.2-.29-.13c.03-.07.07-.13.07-.2-.52-.26-.78-.91-1.04-1.37.03-.07.16-.1.13-.2-.1-.07-.16-.07-.23.03-.13-.03-.07-.2,0-.26l-.33-.1c.23-.33-.33-.2-.23-.49-.29-.26-.59-.65-.75-.98l.13-.29c-.39.1-.13-.33-.49-.33-.13-.26-.55-.59-.23-.91-.13-.16-.36.13-.26-.2.07-.1-.16-.16-.2-.2-.1-.23-.49-.59-.23-.85l-.13-.13c-.03.06-.1.03-.13.03-.07-.33-.33-.65-.23-.98-.13-.07-.23-.2-.2-.39l.23-.03c.07-.2-.2-.23-.26-.2.03-.23-.36-.55.07-.62-.1-.16-.2-.2-.26-.36.1-.07.29,0,.26-.2l-.1-.13-.1.1c-.07-.29-.03-.78-.03-1.11.1-.55-.03-1.11.13-1.76.07.07.2.13.26-.03-.59-.16.29-.49-.07-.78,0-.16.07-.42.29-.39l-.2-.46c.29-.06.07-.52.33-.75.2,0,.16-.2.16-.33.1-.13.2.26.29,0-.36,0-.1-.39,0-.55.1-.13.33-.13.26-.39.07,0,.13.1.23.07.07-.78.85-1.37,1.4-1.76,0,.75.29,1.63.03,2.25.16.07.13.23.13.36-.07.07-.16.03-.2.13.16.03.29.2.2.39-.07.03-.29-.07-.23.1.29.13.49.49.59.88l-.1.06c.1.29.62.65.42,1.04.36.29.59.69.85,1.14-.03.07-.2.03-.13.16.07.13.1.03.2,0,.1.29.42.59.55.85.13-.33.69-.23.62-.72.1-.03.2.1.26-.07-.1-.13-.29-.13-.23-.42.07,0,.16.03.2-.03-.07-.1-.23-.23-.1-.42.16-.13.1-.52.42-.33l.69.78c.23-.1.2.16.2.23.26-.1.62.2.88.36.03.1.03.26.2.23h.1c.03.33.36.23.59.33.16.23.42.39.59.39.33.07.46.33.78.39.1.03-.16.2.07.26.03-.46.42,0,.65,0l.07.26c.2-.23.49-.03.69.07,0,.07-.03.16.03.23.07-.29.46-.07.62,0,.03.03.07,0,.1-.03.26.13-.2.23.07.36l.16-.23c.23.46,1.01-.13,1.08.49.06-.13.2-.2.36-.1.2.23.42,0,.72.1.16.13-.07.33.2.36.07-.06.03-.16.03-.23.16-.03.33.03.39.2.42-.16.75,0,1.21.1-.07.07-.03.13-.03.2l.07.1c.1-.03.16-.16.1-.23v-.07c.1,0,.33,0,.36.16l.07.1c.07-.13.13-.26.36-.2l.1.23c.03-.13.23-.36.39-.2l.13.2c.1-.13.26-.29.42-.13-.03.07.03.13.1.16.13-.13.16-.23.33-.23.07.1.03.29.2.26.07-.16-.03-.29.26-.29.16.23.36-.16.49.03.33.03.52-.07.88-.1-.03.1.03.13.07.16.1-.39.69-.16.95-.36.46.39.62-.36,1.14-.1.07-.13.16-.13.29-.13-.03.1.07.13.13.2,0-.26.26-.33.49-.36l.29.13c0-.26.29-.29.49-.36l.26.13c.03-.26.36-.29.62-.36-.07.1.07.13.1.2.07.03.1-.03.13-.06-.07-.07-.1-.13-.07-.2.29,0,.65-.39,1.01-.26-.07-.33.33-.13.46-.33h.2c0,.07-.03.13.03.2.07,0,.1-.07.13-.1l-.07-.16c.36.06.46-.49.88-.33-.03.03.07.07.1.1-.03-.26.26-.2.33-.42.33-.1.72-.59.98-.23l.07-.29c.36.2.13-.36.46-.26.23-.2.52-.36.85-.52l.13.13c.49-.72,1.66-1.24,2.15-2.12.06-.07.23,0,.23-.16v-.07c.36.03.59.42.91.59v.16l.23.03c0,.1-.03.2.03.26.29-.29.62.33.91.36.13.13.33.26.36.42.13-.26.39.07.59.13,0,.07.06.2.2.16.1-.07.07.06.1.1v.1c.23-.23.59.16.82.03l.29.03c.13-.33-.1-.69,0-.98-.26-.23.16-.46-.03-.75.23-.26-.13-.36,0-.69.36-.13-.23-.2-.07-.49.1.03.16,0,.2-.07-.06-.13-.29-.2-.13-.39l.2-.13c-.07-.2-.29-.07-.2-.33.07-.07.13-.07.2-.13-.03-.16-.33-.13-.2-.36l.23-.1c-.46-.16.23-.46-.13-.69.23-.46.16-1.04.52-1.47.42.16-.03.62.29.82h0Z"/><path d="m114.65,124.98c-.13.03-.2-.03-.2-.13l.1-.16c.03.1.1.2.1.29h0Z"/><path d="m115.3,125.01c.23.29-.23.33.03.62-.33.33.13.62-.16.91.13,0,.07.13.1.2-.1,0-.13-.16-.23-.13l-.07.36c-.06-.03-.1-.16-.2-.13.2.42-.29.2-.26.52-.2.1-.39.36-.46.59.06,0,.26.13.13.23l-.2-.23c-.2.1-.13.29-.03.39v.03h-.1s0-.1-.07-.1c-.1-.07-.13.06-.2.1,0,.1.16.13.13.23l-.33-.03v.33c-.29-.07-.33.2-.49.39-.26.36-.75.65-.95,1.08l.2.13-.07.07-.2-.2c-.69.62-1.34,1.18-2.02,1.66.13.46-.59.07-.39.46h-.07c0-.07-.07-.07-.07-.1l-.13.39-.13-.2c-.2.13-.56.03-.62.39-.26-.23-.13.2-.26.23-.16-.29-.42.03-.62.03-.1.16-.2.2-.33.13l-.03.29h-.1c-.07-.55-.33.13-.62,0,0,.1.03.2-.07.23-.16-.46-.39.1-.69-.03-.07.07-.03.16-.03.23-.16-.42-.36.1-.65-.03-.06.2-.2.26-.36.13-.16.13-.59,0-.55.36-.1-.36-.46.03-.65-.1l-.1.29c-.1-.13-.23-.36-.42-.16-.07.13-.49,0-.75.16-.07.03-.03.13-.03.2h-.1c-.07-.42-.42,0-.65-.07l-.07.1s.1.1.07.16c-.29.07,0-.42-.42-.26l-.1.26c-.1-.07-.23-.33-.46-.16-.03,0-.03.07-.03.1-.23-.29-.42.07-.75,0-.1.07.1.26-.07.26-.13-.1-.03-.1,0-.2-.07-.16-.26-.07-.39-.1l-.07.29c-.13-.16-.13-.36-.36-.26-.16-.03-.1.16-.16.2-.1-.1-.13-.23-.33-.2l-.13.16c-.33-.26-.82.03-1.31-.07v.26c0-.36-.55-.23-.78-.26-.33-.1-.03.2-.23.26-.06-.1-.06-.13,0-.23-.16,0-.36-.23-.49,0,.03.07.13.1.1.16-.03.03-.1.03-.13,0l-.07-.29-.36.07v.26c-.2-.13-.07-.33-.39-.33-.2.03.03.36-.2.26l.03-.26c-.55-.2-1.08-.1-1.57-.23-.16.39-.46-.26-.65.13l-.29-.23-.23.2c0-.26-.33-.29-.49-.36-.29.2-.46-.29-.69.03-.23-.49-.62.33-.82-.23-.2-.07-.2.16-.23.23,0-.07-.07-.07-.1-.13.03.03.07,0,.1-.03-.2-.29-.85-.07-1.14-.36-.07.03-.03.13-.03.16h-.13c.1-.23-.2-.23-.29-.26-.23.06.1.29-.16.26.23-.46-.36-.2-.59-.39l-.13.13c0-.29-.62-.33-.16-.55.03-.13-.16-.26-.07-.39.03-.07.2.13.23-.07v-.13c.26.1.23-.13.29-.26.07.13.23.16.39.2.03-.07.03-.1.06-.16.13.16.39.26.59.03,0,.2.2.23.33.13.13-.29.29.03.49,0,.52-.1,1.14.23,1.4-.29.07.13.2.2.36.16.1-.2.49-.07.36-.39.13.26.42.07.65.07l.16-.26c.07.39.42.07.62,0l.13-.23c.06,0,.1.13.2.07.26-.1-.2-.2.07-.29.13.03.07.2.2.13l.13-.1c0-.1-.2-.1-.16-.23.03-.07.1-.13.16-.07l.06.26c.36-.1.55-.39.75-.69.06-.2-.33-.07-.1-.26.07.29.42-.03.65-.03,0-.1,0-.16.07-.2.07-.03.1.03.13.07.03.07-.03.1-.07.16.33-.1.49.52.72.07.26.52.46-.36.69.16.1,0,.26.03.26-.13l.39.2c0-.07.13-.13.16-.2.07.2.16.26.36.29l.1-.29c.1.13.13.46.36.29.16-.03,0-.23.16-.23.13.03,0,.36.26.29.13.03.2-.03.16-.16v-.1c.29-.1.06.33.36.23l.2-.23c.03.2.2.36.46.36v-.36c.23-.03.07.23.16.29.16,0,.39,0,.36-.23.16.13.23.23.46.13v-.1c.29.16.46,0,.75.07.07-.1.03-.26.03-.36.2.52.52-.2.85.16.16-.13.55.07.42-.29v-.03c.23-.03,0,.23.26.26.2-.52.62.07.95-.2.13-.1-.1-.23.13-.26.26.1-.2.26.07.33.2.03.33-.16.39-.33.1.1.07.33.33.23l.13-.2c.2.39.46-.06.72,0,0-.1-.03-.23.13-.23.1.1-.13.26.1.26.26-.46.72.13,1.01-.2.07-.1-.1-.26.13-.26.1.06-.03.29.16.23.13-.23.49,0,.49-.39.16.16.49.03.69-.03.1-.59.42.23.75-.23l.2-.2s.06.03.1.03l.1-.26c.07-.07.23.2.33,0-.03-.16-.23-.03-.13-.2.03-.07.1-.13.13-.07,0,.1.03.16-.03.2.46.03.75-.55,1.11-.62l.16-.26c0-.1.07.13.2.07l.03-.29c.13.42.59-.1.78-.26.39-.29.69-.72,1.18-.88-.1-.42.49,0,.36-.49.2.1.23-.13.26-.26.03-.03.26.1.23-.13v-.1c.1-.03.23.2.33,0l-.1-.2c.52.1.16-.36.52-.42l.06-.13.36.33.16-.33h0Z"/><path class="cls-5" d="m66.49,161.36l-.1.2c.55.26.65.95,1.01,1.37,0,.07-.1.13-.07.23h.23l.03.26.16-.03c-.13.36.39.13.29.46.07.03.13.1.2.16l-.59.75c-.39-.07,0,.39-.39.23l-.06.29c-.1.07-.2-.16-.26.03,0,.1.1.2,0,.26-.2.03-.1-.23-.23-.29l.2-.2c-.33.03-.26-.33-.33-.55.26-.26-.13-.29-.16-.52.2-.39-.33-.69,0-.98-.36.03-.13-.39-.29-.55.26-.26-.23-.29-.13-.62-.1-.39-.07-.85-.16-1.24.36.03.46.52.65.75h0Z"/><path class="cls-5" d="m137.29,165.67c0,.29.1.65-.23.82.1.36-.2.75-.2,1.17-.13.1-.07.42-.2.62-.52.03.07.52-.36.62.13-.33-.36-.23-.29-.55-.13-.16-.49-.36-.52-.62.13.07.39-.03.36-.26.07,0,.1.03.16.07.13-.07,0-.16,0-.23.26-.42.72-.82.88-1.31.07.03.13,0,.16.07-.03-.2-.03-.39.23-.39h0Z"/><path class="cls-5" d="m63.22,167.49l1.04,1.17c-.2.36-.55.52-.72.82l-.13-.03c-.13.07-.03.42-.33.23l-.03.36c-.07.03-.2-.26-.26-.03,0,.1.16.23,0,.29-.13-.03-.07-.2-.2-.13-.2.07,0,.2.03.29-.52.49-.91,1.14-1.4,1.5,0,.07-.03.13-.1.2l-.07-.1-.16.36-.1-.1c-.23.1.1.29-.13.42-.06-.07-.06-.2-.16-.2l-.1.1c.42.2-.1.59-.26.75-.42.03-.03.59-.42.39-.13.03,0,.46-.26.23,0,.59-.59.91-.88,1.44-.1.07-.23,0-.29.13.03.07.1.07.07.13l-.26.03v.29c-.13.1-.23-.23-.33.03.03.03.13.1.13.16-.13.2-.16-.06-.33-.06-.2.13.1.29.1.29-.07.42-.75.42-.69.95-.2.2-.62.23-.55.59-.03-.07-.1-.03-.13-.07l-.1.36-.16-.16c-.1.1-.13.2-.03.29v.03h-.26c.23.49-.52.75-.69,1.11-.23.13-.42.46-.65.59.1.39-.46.13-.33.52-.06,0-.1-.07-.13-.1-.39.1.2.26-.13.39-.07-.07-.13-.16-.23-.13-.1.1.07.23.1.29-.2.26-.52.52-.69.82-.26-.03-.23.33-.42.29l-.1.29-.2-.03c-.07.07-.03.16-.03.26-.13.07-.2-.13-.26.03.2.33-.29.52-.39.78-.42,0-.26.62-.69.59-.07.03-.03.13-.03.2-.29-.2-.29.29-.59.23-.07-.1.13-.2-.07-.29-.16,0-.06.2-.1.29-.26-.1-.33.23-.59.13.03-.1-.07-.13-.1-.2-.03.2-.26.26-.46.23.07-.07.1-.26-.07-.26-.07.2-.16.26-.39.23l-.07-.23c-.23.03-.1.33-.33.23l-.26-.23c-.1.07-.03.16-.07.23-.33.16-.36-.62-.49-.07-.23.03-.36-.07-.39-.26-.07,0-.13.1-.16.13l.07.07-.33.07c-.03-.1,0-.2-.07-.26-.23.1-.13.33-.46.29,0-.1.03-.23-.03-.33-.2.1-.23.29-.52.29,0-.1.1-.2,0-.29h-.16v.23c-.29.23-.69-.26-.98.13-.06-.07-.13-.16-.23-.2l-.07.07c-.03-.07.03-.29-.13-.33l-.16.13c.07.07.13.1.1.16-.26-.07-.59.16-.82-.03-.1-.03.03-.26-.13-.33-.13.07-.1.2-.06.33-.13.07-.2-.1-.33-.03-.07-.1.03-.2-.13-.29-.03.13-.2.26-.39.2-.07-.03,0-.13-.1-.2-.06.03-.16.1-.13.16v.13c-.23-.1-.55.2-.75-.1.23-.29-.13-.59.16-.88-.29-.23.26-.39-.03-.62.26-.29-.23-.59.13-.85-.33-.23.26-.39-.06-.65.13-.59.13-1.44.16-2.15.23-.1-.1-.16,0-.33l.2-1.83c-.1-.16.03-.46.03-.65.07,0,.13.03.2.03.06-.03.03-.1.06-.16-.06-.07-.16-.03-.26-.03v-.33h.2c.06-.13-.1-.42.13-.55-.16-.16-.07-.49-.07-.72.29.03.88-.13.98.26.13-.07.16-.23.39-.16.13.2.62.1.85.23.23-.03.62.1.91.07.07.07-.03.2.07.26.23.03.13-.33.42-.2.07.07.03.16.13.2.16-.03.13-.23.36-.16.13.42.55-.07.82.2.07.1-.1.26.07.33.07,0,.13,0,.13-.1,0-.07-.03-.13-.1-.2.2-.07.52-.03.46.2l.07.1.13-.29c.1.1.33.06.33.29.39-.29.82,0,1.31.03.23-.03.55,0,.46.33.07-.13.16-.42.39-.26.13.1-.03.33.16.29.03-.07.1-.1.1-.16l-.1-.07c.46-.03.91-.13,1.34-.1.07-.13.23-.07.33-.03l.06.16c.13-.1.16-.33.39-.23.1.03-.03.26.16.23.06-.07.03-.16.03-.23.46-.03.82-.62,1.21-.39.1-.29.42-.26.62-.36,0,.06.1.1.13.16l.13-.13-.16-.2c.13-.29.26.23.39-.03-.03-.1-.16-.2-.03-.29.13-.03.07.13.2.16.33-.1-.2-.46.2-.36l.1.13c.07-.1.03-.23.03-.36l.29.03c.03-.1-.1-.13-.03-.23h.26c-.1-.82.88-1.11,1.21-1.66h.1l.03-.29.23.03c.2-.1-.2-.2.03-.29.06,0,.2.13.29.03.03-.1-.1-.13-.13-.2.13-.23.23.13.36-.03l-.13-.29c.39-.55.98-.91,1.21-1.44l.16.06c.16-.1-.13-.26.1-.39l.13.2c.1,0,.16-.1.13-.2l-.2-.1c.23-.33.49-.59.72-.88.2.03.2-.2.29-.33.03.03.07.1.13.06l.1-.13s-.1-.03-.07-.1c.1-.26.2.2.33-.1,0-.07-.2-.2,0-.26l.2.16c.07-.23-.23-.52.1-.69.26-.2.52-.39.75-.65l-.03-.13c.59.29.98.82,1.4,1.31h0Z"/><path class="cls-5" d="m6.68,170.07c.26.16.1-.13.2-.2.16-.03.33.1.36.23.16-.46.46.2.72-.1.26-.07.29.33.59.1.42.16.95.03,1.44.2l.07.26c.16-.03.1-.2.16-.29.16,0,.29.13.39.29.1-.13.13-.36.36-.2.1.16-.03.33-.16.39.16.07.33.13.2.33-.06.1-.29,0-.23.16.1.06.26.03.23.2.1.26-.23.07-.26.29.16.03.26.16.23.39l-.23.07c.06.13.42.16.23.42-.06.1-.26-.1-.23.13.26.03.26.23.2.42-.07,0-.1-.07-.16-.03l-.06.07c.2.03.26.26.2.42-.07,0-.1.03-.13-.03l-.13.13c.07.16.23.07.33.1-.06.85,0,1.66-.2,2.48.16.16-.03.33-.03.42-.03-.03-.07-.1-.13-.07-.03.03-.1.1-.07.16.16.03.29.2.2.39-.1,0-.2-.03-.23.03,0,.29.42.07.23.42-.03.03-.29,0-.23.16.2-.03.26.16.23.36-.13.1-.23-.1-.33.1.1.23.33.07.29.33l-.29.16c.1.13.36.2.2.42-.07,0-.16-.03-.23.03.1.16.33.16.23.42-.07.07-.29-.07-.23.16.03.06.13.03.2.03l-.03.33c-.07,0-.1-.07-.16-.03-.07.03-.03.1-.03.13.16,0,.2.16.2.33-.1.07-.2.07-.29.13.1.07.36.13.26.33-.1.06-.2.1-.26.16.46.23-.2.46.13.62v.29c-.07-.03-.1.03-.16.07.49.2-.29.46.13.72-.42.2.23.59-.2.78l.07.07c-.13.23-.33-.07-.49,0-.03-.07.07-.07.03-.16-.07-.03-.1-.1-.16-.06,0,.2-.1.33-.33.23-.03-.1-.03-.33-.23-.23v.23c-.16.07-.42-.03-.39-.29-.16,0-.07.2-.16.26l-.26-.03c0-.1.03-.2-.07-.23h-.1l-.03.29c-.16-.16-.36.03-.39-.29-.2,0-.1.36-.33.2l-.23-.2c.1.42-.42.13-.49.29-.13-.36-.98.29-.39-.2-.2-.13-.16-.46.03-.62-.29-.39-.13-.88-.16-1.4-.03-.36.03-.85.13-1.14-.1-.13-.23-.52.03-.62-.2-.03-.2-.23-.13-.36.07-.03.13-.03.16-.07-.1-.16-.29-.16-.16-.39.1.03.13-.07.2-.1-.42-.26.33-.52-.16-.78l.2-.26c-.13-.03-.2-.23-.1-.36.07-.03.23-.13.1-.2-.03-.07-.1-.03-.13-.03-.07-.2-.07-.39.2-.36.03-.03.03-.1,0-.13-.07-.07-.13,0-.2-.03l.03-.29c.07.03.13.03.2-.07.03-.16-.13-.07-.2-.13v-.33c.07,0,.16.03.23-.07-.16-.1-.29-.26-.23-.49.07.03.1.06.2.03.03,0,.03-.07.03-.1-.07-.07-.16-.03-.23-.03-.03-1.01-.13-1.93.07-2.74-.16-.06-.13-.29-.07-.39.29-.2-.39-.36.07-.55-.46-.33.36-.55-.16-.88l.2-.2c-.26-.13.07-.42,0-.65.2-.03.49,0,.36.23h0Z"/><path class="cls-5" d="m141.66,171.25c0,.13-.2.06-.13.2.1.23.16-.1.33,0,.07.13-.23.26.03.33l.1-.13c.2.1.07.23,0,.33.1.07.16.07.26-.03.16.59.85,1.14,1.31,1.83.33.26.62.72.98,1.01-.03.1-.16.13-.1.29l.07.07.13-.23c.29.33.62.49,1.01.69,0,.1-.03.23.03.29.13-.39.46,0,.69.1.2.23.62.1.85.46l.72.03c-.07.07-.07.16-.07.23.03.07.1.03.13.03.2-.07-.03-.16.03-.26.33.07.65.03.88.1,0,.1-.03.16.03.2.1,0,.13-.13.16-.2.52-.03.98-.03,1.44-.07.26.29.52-.26.72.07.1-.07.23-.13.39-.1-.03.07,0,.13.07.2.06,0,.13,0,.13-.1v-.1l.33-.03c.03.07-.03.2.07.26.03.03.07-.03.1-.07,0-.06-.07-.1-.03-.16.36-.13.85-.1,1.24-.03.16.07.42-.26.46.07.26-.13.69-.42,1.01-.2-.03.07-.16.16,0,.23.2.03.03-.16.1-.23l.59-.13c0,.06.07.1.1.13.13-.07.2-.2.39-.16l.07.2c.1-.07.26-.23.42-.1,0,.07.1.1.13.13.13-.03.03-.16.03-.26.36-.2.72.26,1.08-.07l.13.13c.13-.2.42-.07.59-.1,0,2.06-.29,4.21-.33,6.49l-.13.13c.23.75-.29,1.57-.06,2.25-.36.23.13.52-.13.75.29.26-.1.52.13.82-.13.1-.26.13-.39.13l-.07-.33c-.03-.07-.1.07-.13.1l.07.2c-.49.1-1.08-.07-1.5,0-.62-.07-1.44-.23-2.09-.07l-.16-.13c-.16.23-.46.23-.56,0,0,.26-.23.06-.36.1-.03-.06-.03-.1-.07-.16-.2.07-.23.36-.49.26,0-.1.13-.23-.03-.29-.07,0-.07.07-.1.1-.03.06.03.1.07.13-.13.1-.29.03-.42.07-.03-.1.1-.23-.03-.29-.13.23-.23.13-.39.16.03-.1-.1-.13-.13-.2-.23.07-.03.36-.33.2l-.23-.2c-.03.16-.23.2-.36.13l-.13-.16c-.1.13-.23.1-.36.1l-.13-.1c-.07.16-.26.1-.39.1-.03-.2-.16-.03-.26-.03-.72-.2-1.11-1.04-1.53-1.66.03-.07.1-.1.06-.16h-.26v-.29c-.26.07-.13-.23-.26-.33-.36-.23-.46-.72-.72-.98.03-.07.1-.1.07-.16-.07-.1-.16,0-.2.03.13-.39-.36-.2-.29-.59-.26.03-.16-.39-.39-.39.03-.36-.55-.55-.29-.91-.13-.16-.1.16-.26.07v-.33l-.2.03c.16-.36-.33-.13-.23-.46-.49-.49-.95-1.04-1.27-1.6-.07-.1.23-.26-.03-.29l-.1.13c-.16-.13.1-.49-.26-.39,0-.1.07-.29-.1-.23h-.13c.1-.42-.36-.16-.29-.55-.36-.29-.78-.78-.69-1.21-.23.07-.29-.1-.23-.29h-.26c.03-.1,0-.36-.2-.29.03-.29-.33-.33-.46-.59-.33-.42-.91-.85-.78-1.37-.1-.13-.23.23-.33,0-.03-.1.16-.13.1-.29-.46.26-.03-.49-.46-.36-.1-.39-.82-.72-.49-1.11-.07-.2-.16.03-.26,0l.03-.26-.26-.07c.16-.2-.16-.29-.23-.36.23-.39.65,0,.91-.46.23.03.39-.26.56.03-.03-.2.16-.33.33-.26.2-.26.62-.16.78-.36.39.33.78.82,1.14,1.24h0Z"/><path class="cls-5" d="m193.45,172.06c0,.98-.16,2.15,0,3.03-.13.23-.1.55-.03.82-.26.33.13.36,0,.72-.07,0-.13-.03-.16.03.07.13.29.2.16.42-.1-.03-.2.03-.2.13.46.2.13,1.01.13,1.4-.03-.07-.1-.03-.13-.03-.07.03-.03.1-.03.13,0,.1.1.03.16.07v.39c-.07-.07-.1-.13-.16-.13l-.1.06c.1.2.26.13.2.36l-.2.13c0,.13.23.1.2.26l-.2.23c.26.07.07.23.13.39-.07.03-.13,0-.16.07.39.13.03.62.16.98-.07,0-.1-.06-.13-.1-.03.07-.1.1-.07.16.36.03.1.69.23.98-.16,1.66-.16,3.26-.16,4.86-.29.1-.75-.1-1.01.03h-.16c.03-.07-.03-.07-.06-.13-.13.2-.29.1-.46.1-.03-.03,0-.1-.07-.13-.16.26-.62.16-.91.23-.13-.07-.55.03-.49-.23-.36-.26.03.42-.36.16-.33.2-.59-.03-.88.13,0-.07-.1-.13-.13-.16-.07.1-.16.29-.39.23-.07-.07-.03-.36-.2-.23v.23l-.49-.03c.2-.13-.33-.52.13-.62,0-.13-.36-.23-.1-.39.2-.16-.29-.52.16-.59-.1-.2-.23-.13-.16-.36l.16-.1c-.03-.2-.26-.2-.16-.42.36-.13-.26-.52.23-.62l-.23-.23.23-.29c-.1-.1-.29-.13-.16-.29l.16-.16c-.16-.1-.13-.26-.13-.42.03,0,.1,0,.13-.03-.42-.29.29-.46-.07-.75-.13-.26.36-.29.03-.49v-.23s.1.03.1-.03c0-.16-.26-.26-.1-.42.07,0,.13,0,.2-.1-.13-.13-.2-.16-.16-.39.07.03.1-.03.16-.07-.03-.13-.26-.2-.16-.39.07-.03.13-.03.2-.13-.07-.07-.29-.2-.2-.39.07,0,.16.03.23-.03-.03-.26-.36-.07-.23-.42l.23-.03c.16-.36-.36,0-.23-.39.07-.1.36.03.26-.2-.2-.03-.29-.2-.2-.39.1-.03.16.1.26,0,0-.26-.39-.13-.26-.39.1-.07.29,0,.29-.2-.2-.1-.36-.13-.23-.36.07,0,.16.03.23-.03-.03-.29-.39-.1-.23-.42l.23-.1c-.03-.2-.39-.13-.23-.42l.26-.03c.03-.29-.46-.2-.16-.52.03.03.07.1.13.1l.1-.13-.13-.16s-.07.07-.1.03l-.07-.23.29-.16c-.1-.07-.33-.1-.26-.33.07-.1.36.03.26-.2-.07-.07-.16-.03-.23-.07v-.29c.1,0,.26,0,.29-.13-.16-.13-.39,0-.29-.29.13-.03.29-.1.23-.26-.16,0-.2-.07-.23-.23.07-.23.16.03.29-.07.03-.2-.13-.16-.26-.2l.07-.33c.13.07.26-.07.33-.16.52-.1,1.01.1,1.47-.1l.16.16c.13-.36.62-.13.88-.36.13,0,.29-.07.33.1.36-.23.88-.16,1.34-.13.13-.2.42-.16.49,0-.07-.26.2-.26.39-.26h0Z"/><polyline class="cls-6" points="94.03 64.87 103.48 67.43 121.14 62.59 143.94 55.47 146.98 53.51 142.63 44.16 103.04 55.9 65.84 42.85 61.28 51.99 93.18 64.71"/><polygon class="cls-6" points="94.12 65.07 95.26 68.1 95.43 71.35 95.26 74.57 94.19 77.08 92.82 79.39 103.26 83.09 113.9 79.39 114.79 78.96 113.34 75.51 112.18 71.35 112.36 68.82 112.98 66.41 113.7 64.39 103.48 67.43 94.12 65.07 94.12 65.07"/><polyline class="cls-7" points="106.3 66.56 103.26 83.09 101.08 67"/><path d="m102.93,64.68c1.78,0,3.23-1.45,3.23-3.23s-1.45-3.23-3.23-3.23-3.23,1.45-3.23,3.23,1.45,3.23,3.23,3.23h0Z"/><polygon points="69.87 62.21 71.83 52.86 73.13 52.53 76.5 53.18 78.46 54.49 80.85 56.99 87.27 63.08 78.35 65.58 69.87 62.21 69.87 62.21"/><polygon points="135.73 58.84 133.11 53.45 132.14 52.8 130.99 52.8 130.18 52.96 129.04 53.45 127.89 54.27 126.75 55.41 125.77 56.88 122.02 62.75 135.73 58.84 135.73 58.84"/><path d="m91.19,61.74c1.78,0,3.23-1.45,3.23-3.23s-1.45-3.23-3.23-3.23-3.23,1.45-3.23,3.23,1.45,3.23,3.23,3.23h0Z"/><path d="m78.95,57.01c1.78,0,3.23-1.45,3.23-3.23s-1.45-3.23-3.23-3.23-3.23,1.45-3.23,3.23,1.45,3.23,3.23,3.23h0Z"/><path d="m67.86,52.44c1.78,0,3.23-1.45,3.23-3.23s-1.45-3.23-3.23-3.23-3.23,1.45-3.23,3.23,1.45,3.23,3.23,3.23h0Z"/><path d="m113.22,56.42c-1.36,1.15-1.53,3.19-.37,4.55,1.15,1.36,3.19,1.53,4.55.37,1.36-1.15,1.53-3.19.37-4.55-1.15-1.36-3.19-1.53-4.55-.37h0Z"/><path d="m125.61,52.12c-1.36,1.15-1.53,3.19-.37,4.55,1.15,1.36,3.19,1.53,4.55.37,1.36-1.15,1.53-3.19.37-4.55-1.15-1.36-3.19-1.53-4.55-.37h0Z"/><path d="m137.03,48.43c-1.36,1.15-1.53,3.19-.37,4.55,1.15,1.36,3.19,1.53,4.55.37,1.36-1.15,1.53-3.19.37-4.55-1.15-1.36-3.19-1.53-4.55-.37h0Z"/><rect class="cls-1" width="200" height="200"/></g></svg>