<svg xmlns="http://www.w3.org/2000/svg" viewBox="0 0 200 200"><defs><style>.cls-1{fill:#d4b882;}.cls-1,.cls-2{stroke:#000;stroke-width:1.76px;}.cls-2{fill:#0064b0;}.cls-3,.cls-4,.cls-5{fill:#ffdf00;}.cls-4,.cls-5{stroke:#0063a3;}.cls-4{stroke-width:0.77px;}.cls-5{stroke-width:0.39px;}.cls-6{fill:none;}</style></defs><g id="Lager_2" data-name="Lager 2"><g id="Lager_1-2" data-name="Lager 1"><path class="cls-1" d="M177.46,24.15a68.71,68.71,0,0,1,4-23.15H18.55a68.56,68.56,0,0,1,4,23.15c0,13.18-15.3,83-15.3,108.58S20.15,199,45.3,199c14.77,0,24.75-14,24.75-14s11.34,8.35,30,8.35S130,185,130,185s10,14,24.75,14c25.15,0,38.05-40.72,38.05-66.27S177.46,37.33,177.46,24.15Z"/><path class="cls-2" d="M169,29.12c0-12.09.73-21.54.73-21.54H30.36a164.15,164.15,0,0,1,1.33,21.25c0,12.09-15.48,76.21-15.48,99.66S24,190.84,45.54,190.84c12.64,0,23.63-15.07,23.63-15.07s14.94,8.39,30.88,8.39,31-9.62,31-9.62,12.21,14.67,24.84,14.67c21.51,0,28.52-38.47,28.52-61.92S169,41.21,169,29.12Z"/><path class="cls-3" d="M20.94,157.09a140.27,140.27,0,0,1-3.31-28.43c0-22.39,15.22-86.37,15.22-98.88C32.85,17.69,32.18,9,32.18,9H168.1Z"/><path class="cls-4" d="M150.57,62.25V43.8h-3.22V39.53a6.11,6.11,0,0,0,3.18-.84A3,3,0,0,0,152,36.24h5.38v26Z"/><path class="cls-4" d="M147.35,92.76V88.27h6.82V92a1,1,0,0,0,1,1.14c.73.06,1-.65,1-1.18V86.13l-1,.5a7.23,7.23,0,0,1-3.45.62c-3-.19-4.34-1.64-4.34-4.21V75.52a4.17,4.17,0,0,1,1.09-3.16c1-1.08,2.55-1.18,4-1.18h5.92a4.74,4.74,0,0,1,3.48,1.09A3.83,3.83,0,0,1,163,75V92.05c0,1.2.11,3.09-1.2,4.3-1.13,1-2.68,1-4.22,1h-5c-1.12,0-3-.06-4.1-1.05S147.35,93.75,147.35,92.76Zm8.79-16.53c0-.5-.35-.71-.81-.81a1.09,1.09,0,0,0-1.16,1.15V81.3a1,1,0,0,0,1.08,1c.7-.07.89-.59.89-1.12Z"/><path class="cls-4" d="M163.19,110.58V126c0,2.2.35,4.4-1.4,5.55a6.53,6.53,0,0,1-3.91.83h-5.76a4.77,4.77,0,0,1-3.64-1.08c-1.13-1.12-1.13-2.45-1.13-5.08V111c0-1.55,0-2.78,1.44-3.8a7,7,0,0,1,4.45-1h4.1c.78,0,3.06-.06,4.34.81A3.79,3.79,0,0,1,163.19,110.58Zm-9,1.61v14.24c0,.77.15,1.82,1.16,1.79s.85-.93.85-1.2V111.38a.81.81,0,0,0-.85-.83C154.4,110.52,154.17,111.45,154.17,112.19Z"/><path class="cls-4" d="M162.92,145.77v4.48a6.57,6.57,0,0,1-.08,1.74,4.85,4.85,0,0,1-1.16,2.26L155.33,163h7.59v4.3H147.39v-4.18l7.51-10.34A6.59,6.59,0,0,0,156,150.9a6.78,6.78,0,0,0,.11-1.76V146.6a.88.88,0,0,0-1-1c-.77,0-1,.77-1,1.36v3.56h-6.82V146c0-.49,0-2.81,1.2-3.8s2.36-1,4-1h4.65c1.85,0,3.32.12,4.56,1.23A4,4,0,0,1,162.92,145.77Z"/><path class="cls-5" d="M100.73,140.34v2.84a3.88,3.88,0,0,1,0,1.09,3.06,3.06,0,0,1-.73,1.43l-4,5.55h4.79V154h-9.8v-2.64l4.74-6.53a2.77,2.77,0,0,0,.79-2.32v-1.61a.55.55,0,0,0-.61-.62c-.49,0-.62.48-.62.86v2.24h-4.3v-2.83a3.33,3.33,0,0,1,.76-2.41,3.46,3.46,0,0,1,2.54-.62h2.94a4,4,0,0,1,2.88.78A2.53,2.53,0,0,1,100.73,140.34Z"/><path class="cls-5" d="M113.08,140.34v2.84a3.88,3.88,0,0,1,0,1.09,3.06,3.06,0,0,1-.73,1.43l-4,5.55h4.79V154h-9.8v-2.64L108,144.8a2.71,2.71,0,0,0,.78-2.32v-1.61a.55.55,0,0,0-.61-.62c-.49,0-.61.48-.61.86v2.24h-4.3v-2.83c0-.31,0-1.78.76-2.41a3.46,3.46,0,0,1,2.54-.62h2.93a4,4,0,0,1,2.88.78A2.5,2.5,0,0,1,113.08,140.34Z"/><path class="cls-5" d="M107.38,162.24v2.83a4,4,0,0,1,0,1.1,3,3,0,0,1-.74,1.43l-4,5.55h4.79v2.72h-9.8v-2.64l4.74-6.53a4.58,4.58,0,0,0,.71-1.22,4.48,4.48,0,0,0,.07-1.11v-1.6a.56.56,0,0,0-.61-.63c-.49,0-.61.49-.61.86v2.25h-4.3v-2.84c0-.31,0-1.77.75-2.4a3.43,3.43,0,0,1,2.55-.63h2.93a3.91,3.91,0,0,1,2.88.79A2.49,2.49,0,0,1,107.38,162.24Z"/><rect class="cls-3" x="89.74" y="155.4" width="24.64" height="1.83"/><path class="cls-1" d="M100.74,21.23V51.32h10.18c5.55,0,5.09-5.9,5.09-5.9V21.23h13.45V47.05a12.09,12.09,0,0,1-5.1,10.38,13.66,13.66,0,0,1,5.1,11v35c0,6.77,6.72,5.91,6.72,5.91v12.22H125.79c-10.59,0-9.78-11.2-9.78-11.2V70.67c0-7.69-5.09-6.92-5.09-6.92H100.74v64.76c0,7.08-7.13,6.32-7.13,6.32H66.93v25.25c0,8.2-7.13,7.34-7.13,7.34h-25V154.79H50.23c3.41,0,3.05-4.48,3.05-4.48V136.66c0-3.67-3.87-6.52-3.87-6.52l-11.15-9.31a9,9,0,0,1-3.41-7.18v-25c0-5.66,5.8-5.81,5.8-5.81H65.2V95.72h-14c-3.62,0-3.47,3.67-3.47,3.67v8a6,6,0,0,0,2.65,5L63.16,123H82.51c4.48,0,4-4.69,4-4.69V101.22c0-4.17-4-6.31-4-6.31L63.06,81.67a9.82,9.82,0,0,1-4.48-8.55v-20s-.35-4.12,1.63-6.78a8.21,8.21,0,0,1,6.11-3.2H86.53V21.23ZM86.53,82.79V57.53H76.6s-3.87-.3-3.87,3v8.25s-.25,3.31,1.84,4.88Z"/><rect class="cls-6" width="200" height="200"/></g></g></svg>