<svg xmlns="http://www.w3.org/2000/svg" viewBox="0 0 200 149.46"><defs><style>.cls-1{fill:#fdd200;}.cls-1,.cls-2{fill-rule:evenodd;}</style></defs><g id="Lager_2" data-name="Lager 2"><g id="Lager_1-2" data-name="Lager 1"><path class="cls-1" d="M133.89,53.52l2.81-11.73L197.54,0c10.72,40.65-15.6,83.72-39.95,99.81l12.6,23.42-10.28,26.23H141.73l-5.86-10.89c-45.19,24.31-81.9-3.72-88.19-36C20,87-9.44,35,2.89,0L65.32,42l2.8,11.54,65.77,0Z"/><path class="cls-2" d="M92.15,125.38V54.22H86.86l0,70C60.91,117.55,50.65,100,41.1,77,22,68.6,7.92,46.18,5.86,42.88c3,13.37,19.59,44.57,43.15,58.57,9.76,40.13,50.17,56.94,87.37,34.55l6.26,12h16.22l9.5-23.74-18.89,0-6.81-13.82c-4.81,3.67-12.55,11.45-26.73,14l-.05-70.2h-5.24l-.06,71.29a37.18,37.18,0,0,1-18.43-.13Z"/><path class="cls-2" d="M154.84,93.84c2-4.12,4.5-8,6.34-16.93,21.08-12.21,31.9-30.85,33.77-34-4.71,17.29-19.7,43-38.1,55.45l-2-4.49Z"/><path class="cls-2" d="M68.14,68.14,64.59,43.39C54.72,57,56.72,80.19,68.17,92l0-23.86Z"/><path class="cls-2" d="M133.93,68.14l3.55-24.75c9.87,13.57,7.87,36.8-3.59,48.61l0-23.86Z"/></g></g></svg>