<?xml version="1.0" encoding="UTF-8"?><svg xmlns="http://www.w3.org/2000/svg" viewBox="0 0 200 200"><defs><style>.cls-1{stroke-width:.78px;}.cls-1,.cls-2,.cls-3,.cls-4{fill:none;}.cls-1,.cls-5,.cls-6,.cls-7,.cls-8,.cls-4{stroke-miterlimit:11.47;}.cls-1,.cls-6{stroke-linecap:round;}.cls-1,.cls-6,.cls-7,.cls-8,.cls-4{stroke:#000;}.cls-2,.cls-9,.cls-10,.cls-11,.cls-12,.cls-13,.cls-14,.cls-15,.cls-16,.cls-17,.cls-18,.cls-19,.cls-20,.cls-21,.cls-22{stroke-width:0px;}.cls-9{fill:#1d1d1b;}.cls-10,.cls-12,.cls-5,.cls-13,.cls-14,.cls-6,.cls-15,.cls-16,.cls-17,.cls-8,.cls-18,.cls-20,.cls-21{fill-rule:evenodd;}.cls-10,.cls-17{fill:#ccc;}.cls-11,.cls-6,.cls-7,.cls-20{fill:#000;}.cls-12{fill:#b3b3b3;}.cls-5{stroke:#d08138;}.cls-5,.cls-3{stroke-width:.72px;}.cls-5,.cls-16{fill:#d08138;}.cls-13{fill:#f8ac00;}.cls-14,.cls-15,.cls-22{fill:#fd0;}.cls-14,.cls-17,.cls-21{mix-blend-mode:multiply;}.cls-6{stroke-width:.05px;}.cls-3{stroke:#fff;stroke-miterlimit:10;}.cls-7{stroke-width:1.45px;}.cls-8{stroke-width:.51px;}.cls-8,.cls-18,.cls-19{fill:#fff;}.cls-23{isolation:isolate;}.cls-4{stroke-width:2.33px;}.cls-21{fill:#f28e77;}</style></defs><g class="cls-23"><g id="Lager_2"><g id="Layer_3"><path class="cls-3" d="M100.81,168.43c-38.46,0-69.74-31.31-69.74-69.79S62.35,28.84,100.81,28.84s69.85,31.31,69.85,69.79-31.33,69.79-69.85,69.79Z"/><path class="cls-4" d="M100.81,30.29c37.67,0,68.4,30.72,68.4,68.35s-30.73,68.35-68.4,68.35-68.29-30.73-68.29-68.35S63.19,30.29,100.81,30.29h0Z"/><path class="cls-6" d="M34.29,102.18s0,.52-.26.52c-.21,0-5.06-14.09-11.01-13.41,0,0,5.17-2.15,11.27,12.88h0Z"/><path class="cls-6" d="M35.27,101.3s-.15.52-.36.41c-.21-.05,0-14.92-5.84-16.38,0,0,5.63-.26,6.2,15.97h0Z"/><path class="cls-6" d="M43.31,113.66s.47.26.37.47c-.16.21-14.51-3.55-17.27,1.83,0,0,1.1-5.53,16.91-2.3h0Z"/><path class="cls-6" d="M42.53,116.63s.52.16.47.37c-.1.21-14.92,1.2-15.81,7.2,0,0-.78-5.63,15.34-7.56h0Z"/><path class="cls-6" d="M41.27,115.02s.52.21.42.42c-.1.21-14.92-.99-16.7,4.8,0,0,.1-5.63,16.27-5.22h0Z"/><path class="cls-6" d="M38.14,109.7s.37.41.21.52c-.21.21-12.99-7.41-17.11-2.98,0,0,2.55-5.01,16.9,2.46h0Z"/><path class="cls-6" d="M35.95,110.89s.42.42.26.52c-.16.21-13.77-5.84-17.32-.99,0,0,1.93-5.28,17.06.46h0Z"/><path class="cls-6" d="M35.17,112.1s.47.31.31.52c-.1.21-14.4-3.96-17.27,1.3,0,0,1.25-5.48,16.96-1.83h0Z"/><path class="cls-6" d="M38.3,112.31s.36.41.16.57c-.21.1-11.95-9.03-16.64-5.22,0,0,3.23-4.59,16.48,4.64h0Z"/><path class="cls-6" d="M32.51,103.85s.21.47,0,.58c-.26.05-8.61-12.26-14.25-10.02,0,0,4.49-3.44,14.25,9.44h0Z"/><path class="cls-6" d="M32.72,107.14s.31.42.1.57c-.21.16-11.9-9.02-16.59-5.17,0,0,3.24-4.64,16.49,4.59h0Z"/><path class="cls-6" d="M32.77,105.89s.26.47.05.57c-.26.11-11.06-10.12-16.01-6.67,0,0,3.54-4.38,15.96,6.1h0Z"/><path class="cls-20" d="M157.84,101.19c1.43-.25,1.41.94,2.19,1.34-.48-3-2.11-5.5-1.94-8.75.84-.8,1.45.17,2.06.61-.65-2.75-1.26-5.54-2.31-7.9-.02-.55.91-.64.61-1.09-1.1-3.56-3.24-6.07-5.1-8.87.18-.67.69-1.01,1.09-1.46-1.63-2.59-3.23-5.09-5.35-7.17-2.17-2.13-4.99-3.04-7.53-4.86-.64-2.39,1.36-3.33,2.55-4.98,3.04-4.21,6.32-10.23,4.49-17.01-2.25-.03-3.61,2.43-6.44,2.55-.35.02-.74-.1-1.22-.12-2.95-.16-7.26.94-10.2,0-1.24-.4-2.35-1.77-3.4-2.43-4.29-2.7-10.65-4.67-17.98-4.25-2.9.17-5.71,1.21-8.5,1.58-2.82.38-3.89-1.34-6.68-1.58-7.13-.62-11.94,3.42-18.71,4.13-.08,0-.15.09-.24.12-2.2.67-4.6,3.43-7.05,5.1-2.5,1.7-5.71,2.88-7.41,4.62-.97.99-1.32,2.55-2.67,3.04.14,1.7-.88,2.11-1.58,3.28-.4.66-.47,1.5-.85,1.94-.63.74-1.68,1.09-2.19,1.82.06,2.07-.67,4.33-2.31,5.1-.4,1.48-1.44,2.96-1.82,4.62-.31,1.33-.45,2.25-1.46,2.92-.62-.1-.88.17-1.46.12-.22.72-.64,1.22-.97,1.82.07.29-.15.88.12.97-.74,2.67-2.68,5.18-2.92,8.63-.11,1.57.41,3.07-.61,4.13.39,1.24,2.08,2.6.97,4.25-.77,1.15-3.47,1.46-4.62,2.67-.88.93-1.12,2.73-2.07,4.13-1.07,1.58-2.52,2.43-3.28,4.25-.13,2.64.68,5.12,1.09,7.53.26,1.5-.22,3.43.36,5.1.3.85,1.2,1.64,1.34,2.67.25,1.97.09,3.66,1.7,4.62,2.74,1.21,6.25.6,8.26,2.43.67.61,1.98,2.37,2.55,3.28,1.36,2.15,1.25,4.72.73,8.02,2.07,1.64-.56,3.95-.73,5.95.93-.66,2.64-1.51,3.52-.24.05,2.73-2.05,3.3-2.43,5.59.92-.23,2.14.15,2.19,1.46,1.3-.8,2.51-1.7,4.86-1.46,1.2.93.26,2.68-.36,3.52,2.63-.6,4.16,1.35,2.43,2.79-.82.68-2.18,1.16-3.16,2.07-1.06.98-1.72,1.94-2.31,2.79.8.3.92,1.84.49,2.67,1.19.92,1.24,2.97,1.22,5.1.53-.23,2.13-.91,2.92-.12,1.28,1.29-1,3.64-.73,5.47.61-.04.98-.54,1.7-.49.98.07,1.74,1.14,2.55,1.34.97-.82,1.25-2.47,2.55-2.67,2.67-.42,1.91,3.17,1.46,5.22.18.38.89.25,1.34.36.02.46.11.86.24,1.22.4-1.99.17-4.62,1.7-5.23,2.32-.92,3.34,2.3,4.01,4.13.98-.64,3.45-2.62,4.74-.61.57-.56,1.66-1.36,2.67-.73.72-.9,1.12-2.12,1.7-3.16.82.27,1.57.62,2.43.85-.2.51-.03.75-.12,1.46.94.05,1.57-.22,2.55-.12.15.5.66-1.36.7-.75.61-1.89,1.28-2.83,1.44-.69-.24-1.46,1.52.02.9-1.48.59-.59,1.33-1.02,2.07-1.46-.09-.4-.2-.78-.24-1.21.62-.31,1.06-.8,1.7-1.09-.06-.51-.23-.9-.36-1.34,1.48-2.61,4.59-3.59,7.41-4.86.4-1.26-.09-1.38-.61-2.19,1.27-3.95,4.89-8.32,10.69-8.02,2.37.12,5.73.71,6.68,2.79,1.67-4.29,6.9-1.21,8.26,1.58.26-.71,1.23-.71,1.34-1.58,1.27.88,3.03.81,5.1,1.22,2.95.58,5.42,2.4,8.02,2.67.63-.78-.16-2.28.97-2.92,2.33.02,3.85,1.49,5.1,2.67,1.3,1.23,2.57,2.61,3.16,4.5.87-.4.94-2.2,2.07-1.94.79-2.53-.89-5.09.24-6.56,1.01-1.32,2.99-.78,4.2-2.17-.64-1.45-1.35-5.34.53-6.1,1.26-.5,2.4.64,3.28,1.34-.08-1.14-.45-2.16-.73-3.28-.26-1.04-.87-2.35-.85-3.16.03-1.02,1.13-1.66.24-2.55.05-.6.68-.62,1.09-.85-.11-1.22-.22-2.45-.61-3.4.16-.37.3-.75.73-.85-.3-1.39-.46-2.58-.85-3.89-.35-1.16-1.08-2.41-1.21-3.52-.14-1.18.35-2.38-.36-3.52.25-.15.46-.35.61-.61.78.11,1.2.58,1.94.73-.71-2.01-2.65-6.7-3.04-9.84-.09-.72-.17-2.34.61-2.55,1.52-.43,2.36,2.88,3.89,2.67.66-.35-.74-4.18.06-4.07.06.92,1.62,3.6-.12,4.47-2.11-.04-1.87-1.07-3.72-2.23-.42,2.45,2.2,9.01,2.69,9.97.45.89,1.71,1.87.73,2.79-.6-.17-1.5-.04-1.94-.37-.69,3.48,2.99,6.59,1.7,10.57.19,1.36.88,3.2.61,4.74-.05.28-.39.48-.49.85-.18.7.01,1.26-.61,1.58.39,1.06,3.85,10,.12,9.6-1.22-.13-2.45-1.15-3.66-1.56.51,1.46-.03,2.41-.37,3.95-1.05.25.38,1.89-1.07,1.75-.27.09-.05.68-.12.97-.47-.06-.59.22-1.09.12.53,3-.65,5.23-.97,7.77h-.97c-.41,1.1-.24,1.59-1.59,1.38-.57-.09-1.26-.48-1.69-1.14-1.42-2.13-3.8-3.86-5.71-5.1-1.57.58-2.26.56-2.83,2.14-1.15-1.24-1.95-.8-3.24-1.89-2.02-.48-3.25-1-5.59-1.58-1.17-.29-2.05-.7-2.67-.61-1.37.21-1.82,2.36-2.57,3.44-2.56-1.01-2.71-4.97-5.93-5.26-.08,3.54-4.83,3.16-5.35,0-5.77-1.55-10.75.47-11.91,4.98.31.69.84,1.7,1.34,2.79.42.91,1.29,2.16,1.22,2.92-.17,1.69-2.54,1.63-3.77.49-1.63.62-4.46-1.24-5.83.24.43,1.72.94,3.36,1.09,5.35-.91-.27-1.38.43-1.82.24.14,1.39-.32,2.19-1.09,2.67.86,1.26-.81-.09-2.5.08-1.83.19-1.81.83-2.88.05-.81.69-1.06,2.08-1.97,2.67-.74-.31-.28,2.6-.91,2.18-.61,1.71-3.83,1.58-3.52-.85-.58.76-1.25,1.42-1.94,2.07-.55,1.48-1.21,2.83-2.31,3.77-.71-.62-.59-2.08-.97-3.04-.49-.44-1.25-.61-1.82-.97-.78.56-.94,1.73-1.94,2.07-1.43-1.44-1.99-3.76-2.92-5.71-1.47,1.41-.19,5.56-2.31,6.32-1.1-.4-2.16-1.89-2.67-3.28-.62.1-.92-.13-1.34-.24-.54-.6-.58-1.69-.73-2.67-.82,1.1-1.04,3.4-3.28,2.67-.42-.86-.82-2.3-.49-3.52-.96-1.12-2.51.84-3.56.64-1.08-.21-1.25-2.86-.94-4.89-.62-.44-.58-1.53-1.46-1.7-1.28-2.28-.24-6.89-2.92-7.78-.22-2.53.92-4.17,2.19-5.59,1.11-1.24,3.16-2.24.73-3.52-1.72-.91-3.34-.52-5.35,0-1.69-1.58.53-5.32-2.34-6.06-.13-2.3,1.61-4.47,1.12-6.33.22-.35.42-.71.61-1.09-.22-.43-.63-.66-.97-.97,1.99-4.32.14-9.43-2.92-11.18-2.2.07-4.26-.88-6.32-1.34-4.14-4.6-5.47-10.56-5.83-18.83-.06-1.39-.47-3.1-.24-4.49.32-1.94,2.87-3.58,3.77-5.22.43-.79.57-1.69.97-2.43,1.02-1.86,2.72-3.19,4.98-3.89-.74-1.26-2.02-3.68-.24-4.74-.59-4.72,1.51-7.8,2.67-11.18,0-2.39,1.07-4.75,3.65-4.98.93-3.08,1.79-6.23,4.01-8.02.3-2.78,1.35-4.81,3.28-5.95.17-1.12.75-1.84,1.46-2.43.16-.77.34-1.53.49-2.31.57-.24.6-1.02,1.46-.97,1.3-3.28,5.11-4.63,8.38-6.68,1.34-.84,2.87-1.91,4.37-3.16,1.31-1.09,2.86-2.58,4.37-3.04,1.63-.5,3.3-.28,4.86-.85,4.55-1.66,10.81-4.73,17.25-3.04,1.06.28,2.01,1.07,3.04,1.22,1.05.15,2.76-.52,4.49-.85,11.14-2.15,21.89.62,28.07,6.44,3.42-.77,6.34.11,9.96-.36,2.76-.36,3.46-2.7,6.2-2.67,2.96.03,3.52,3.16,3.52,6.08.01,7.32-4.29,13.36-7.77,17.37,3.15,1.69,5.75,3.38,8.02,6.07,2.14,2.54,3.74,5.53,5.47,8.5-.21.6-.79.83-1.09,1.34.73,1.98,3.26,4.66,3.52,7.17.08.77.02,1.38-.49,1.82.12,1.36,2.17,5.95,1.82,7.9-.25,1.41-1.62,1.19-2.31.12.06,1.45.6,2.96.97,4.37.36,1.35,1.08,3.05.34,4.11-1.1-.11-1.14-1.05-2.02-1.39,1,2.97,1.78,4.67,2.04,6.76-.91-1.88-2.04-4.6-2.43-7.41ZM95.27,166.55c-.5.11-1,.86-.97,1.09.27-.42.87-.51.97-1.09Z"/><path class="cls-15" d="M47.17,139.87c-.16.14-.26.24-.26.24.1-.04.18-.13.26-.24ZM160.12,109.18s-2.6-6.84-2.45-8.2h0c.2.06.83.37,1.2.89,0,0,1.99,3.13.47-2.25,0,0-2.71-8.4-.1-5.11,0,0,1.77,2.09.78-1.93-1.1-4.8-1.88-6.67-1.88-6.67,0,0,3.45,1.46-4.43-10.12l2.56,1.04s-5.69-11.59-12-13.15l-2.35-1.72s11.22-11.06,7.46-21.86c0,0-1.98-1.51-4.75,1.14,0,0-1.93,1.41-3.65.94,0,0-9.03.36-9.65.36-.52,0-10.7-10.9-29.9-5.74,0,0-1.57.58-2.82.21,0,0-5.37-4.64-19.62,2.04,0,0-2.92.57-3.44.57-.47,0-1.25,0-3.6,1.83-2.35,1.93-2.45,2.14-3.03,2.61,0,0-4.8,3.29-6.2,3.55,0,0-3.39,1.83-4.7,4.75l-1.04.31s-.47,2.14-.58,2.51c0,0-1.41,1.04-1.62,2.71,0,0-2.61,1.72-2.5,3.03,0,0-.47,1.51-.68,2.92,0,0-2.14,1.41-1.88,2.19,0,0-2.2,4.12-1.88,6.11,0,0-1.88-.16-2.67.57,0,0-.26,1.41-.72,1.57,0,0-.84.31-.11,1.51,0,0-.47.78-.57,1.25,0,0,.21.83-1.09,2.45,0,0-1.88,5.53-1.25,7.04,0,0,.1,1.41-.68,1.83,0,0-1.09-.05,1.36,3.44,0,0,.2.37-.68,1.04,0,0-5.06,1.04-5.74,5.85,0,0-4.01,4.33-4.01,5.84,0,.68.1,1.62.31,2.97,0,0,0,.12.07.32.21,1.69.47,3.57.92,4.44,0,0-1.04,3.65,1.57,7.46,0,0-.16,2.14.36,3.08,0,0,1.14,2.45,2.56,2.66,1.09.21,3.65,1.09,6.57,1.51,0,0,5.01,4.12,4.01,7.88,0,0-.09,3.95-.88,5.03.74-.66,2.64-2.18.36,1.87l-1.35,5.48s7.51-6.32,2.98-.89l-2.98,7.56s5.74-5.37,3.65-2.92l-.93,2.61s12.67-7.99,3.65.68c0,0,2.29-1.04,3.59-.26,0,0,1.99-.32,1.78.15,0,0-6.1,3.03-7.14,8.4,0,0,2.45-2.92,1.51.21l.1,3.44s1.2-6.36,1.09,4.64c0,0,5.59-5.22,2.2.83v4.91s4.43-4.8,2.61-1.04c0,0,2.92-2.56,1.72,1.88,0,0-.21,3.03,1.04-.26,0,0,4.7-8.92,2.92-1.3,0,0-.2,5.64,1.2,1.3,0,0,.1,3.08,2.82,5.22,0,0-.37-14.87,3.39-4.38l1.14,4.8s.83-2.71.68-4.22c0,0,4.38-4.8,2.35,2.35,0,0,4.43-6.63,3.54-2.77,0,0-2.24,4.64-1.77,6.05,0,0,4.9-10.17,5.27-10.64,0,0-.57,12.36,2.56,1.88,0,0,1.67,3.49.83,4.8,0,0,2.35-2.35,2.09-3.28,0,0,1.36-2.41,2.19,1.57,0,0,.52,2.76.99,1.83,0,0,1.2,7.04,1.51.36,0,0,.47-4.01-1.62-7.41,0,0,.2-.94-.63-2.09,0,0,4.02,6.31,1.93-2.15,0,0,3.23,2.35,3.54,2.35,0,0-3.91-6.72-1.36-5.37,0,0-1.57-2.98,3.75.47,0,0-4.7-4.64.47-1.83,0,0,2.3,1.83.11-1.04,0,0-4.23-4.75,2.19.57,0,0,3.44,4.8,3.65,5.58,0,0-2.92-8.5-4.22-9.34,0,0,2.5-10.7,14.5-6.1,0,0,1.99,5.06,3.29-.36,0,0,3.75-1.88,6.99,6.2,0,0,1.2-3.96.93-4.8,0,0,2.04.36,1.78,0,0,0,3.86,1.3,4.22,1.09,0,0,1.98,1.99,2.09.94,0,0,2.72.78,2.14-.26,0,0,2.55,4.59,2.66,5.58l.73-4.07.57.83s.47-2.25.26-2.61c-.26-.37,5.79,1.98,7.2,8.09l.58,2.5s1.77-4.38,1.3-5.53c0,0,1.57.21,1.67,1.51,0,0,1.2-6.78-.26-8.51,0,0,1.3-.26,1.67.78v-2.09s2.09.21,2.09-.46c0,0,1.25-1.15,1.83.2,0,0-3.59-10.27,1.78-4.64,0,0,2.09,3.13,1.09-2.35-1.09-5.54-2.24-5.95-.83-6.11,0,0,.21-1.04-.36-1.51-.57-.46.36,0,.36,0,0,0,1.41,1.15-.15-5.27,0,0,1.93.47-1.57-8.09,0,0,.78-.67-.37-3.13,0,0,2.3,1.25,3.13.83,0,0-.1-.46-1.04-1.62,0,0-6.31-16.06-.36-9.65,0,0,3.44,4.02,1.62-2.71Z"/><g id="Lower"><path class="cls-18" d="M34.25,110.7l71.78-3.85,51.65-5.93c-.21,1.25,2.45,8.25,2.45,8.25,1.83,6.73-1.62,2.71-1.62,2.71-5.95-6.41.36,9.65.36,9.65.94,1.15,1.04,1.62,1.04,1.62-.83.42-3.13-.83-3.13-.83,1.15,2.46.37,3.13.37,3.13,3.49,8.56,1.57,8.09,1.57,8.09,1.57,6.42.15,5.27.15,5.27,0,0-.93-.46-.36,0,.57.47.36,1.51.36,1.51-1.41.16-.26.57.83,6.11.99,5.48-1.09,2.35-1.09,2.35-5.37-5.64-1.78,4.64-1.78,4.64-.57-1.35-1.83-.2-1.83-.2,0,.67-2.09.46-2.09.46v2.09c-.36-1.04-1.67-.78-1.67-.78,1.46,1.72.26,8.51.26,8.51-.1-1.3-1.67-1.51-1.67-1.51.46,1.15-1.3,5.53-1.3,5.53l-.58-2.5c-1.41-6.11-7.46-8.46-7.2-8.09.21.36-.26,2.61-.26,2.61l-.57-.83-.73,4.07c-.11-.99-2.66-5.58-2.66-5.58.57,1.04-2.14.26-2.14.26-.1,1.04-2.09-.94-2.09-.94-.36.21-4.22-1.09-4.22-1.09.26.36-1.78,0-1.78,0,.26.83-.93,4.8-.93,4.8-3.24-8.09-6.99-6.2-6.99-6.2-1.3,5.42-3.29.36-3.29.36-12-4.59-14.5,6.1-14.5,6.1,1.3.84,4.22,9.34,4.22,9.34-.21-.78-3.65-5.58-3.65-5.58-6.42-5.33-2.19-.57-2.19-.57,2.19,2.87-.11,1.04-.11,1.04-5.17-2.82-.47,1.83-.47,1.83-5.32-3.45-3.75-.47-3.75-.47-2.56-1.35,1.36,5.37,1.36,5.37-.31,0-3.54-2.35-3.54-2.35,2.09,8.46-1.93,2.15-1.93,2.15.83,1.14.63,2.09.63,2.09,2.09,3.39,1.62,7.41,1.62,7.41-.31,6.68-1.51-.36-1.51-.36-.47.93-.99-1.83-.99-1.83-.83-3.97-2.19-1.57-2.19-1.57.26.94-2.09,3.28-2.09,3.28.83-1.3-.83-4.8-.83-4.8-3.13,10.48-2.56-1.88-2.56-1.88-.37.46-5.27,10.64-5.27,10.64-.47-1.41,1.77-6.05,1.77-6.05.89-3.86-3.54,2.77-3.54,2.77,2.04-7.15-2.35-2.35-2.35-2.35.15,1.51-.68,4.22-.68,4.22l-1.14-4.8c-3.76-10.49-3.39,4.38-3.39,4.38-2.72-2.14-2.82-5.22-2.82-5.22-1.41,4.33-1.2-1.3-1.2-1.3,1.78-7.62-2.92,1.3-2.92,1.3-1.25,3.29-1.04.26-1.04.26,1.2-4.43-4.33-.83-4.33-.83v-4.91c3.39-6.05-2.2-.83-2.2-.83.11-11.01-1.09-4.64-1.09-4.64l-.1-3.44c.93-3.13-1.51-.21-1.51-.21,1.04-5.37,7.14-8.4,7.14-8.4.21-.47-1.78-.15-1.78-.15-1.3-.78-3.59.26-3.59.26,9.02-8.67-3.65-.68-3.65-.68l.93-2.61c2.09-2.45-3.65,2.92-3.65,2.92l2.98-7.56c4.54-5.43-2.98.89-2.98.89l1.35-5.48c2.77-4.91-.62-1.62-.62-1.62,1.04-.46,1.14-5.27,1.14-5.27.99-3.75-4.01-7.88-4.01-7.88-2.92-.42-5.48-1.3-6.57-1.51-1.41-.21-2.56-2.66-2.56-2.66-.52-.94-.36-3.08-.36-3.08-2.61-3.8-1.57-7.46-1.57-7.46-.47-.89-.73-2.87-.94-4.59l2.21,3.04Z"/></g><path class="cls-13" d="M36.22,107.56l.83-3.45s-.31,5.74,12.52,2.61c.73-.15,1.46-.36,2.04-.78,3.44-2.55,5.12-4.07,7.41-4.33,3.45-.42,4.49,2.56,5.07,3.34.83,1.14,1.25,1.04,1.67.83.52-.26,5.38-7.3,13.46-4.28,0,0,10.07,4.91,4.64-.93,0,0-6.99-8.66-2.09-5.43,4.96,3.29,26.71,1.78,21.96-8.14-4.33-9.34,3.08-2.35,4.96-2.56,1.88-.26,13.36,6.99,14.3,6.78.93-.26.2-3.08,4.17-1.88,3.96,1.14,9.59-5.64,28.54,7.93l1.67,4.96s-27.8-1.88-31.09-.73c-3.28,1.15-52.69,10.02-52.69,10.02,0,0-37.88,11.01-40.43.99,0,0-4.22-16.54,3.08-4.96h0Z"/><path class="cls-20" d="M112.49,89.5c1.93-.2,13.36,7.04,14.3,6.78.94-.2.21-3.02,4.23-1.83,3.97,1.15,7.25-7.35,26.19,6.26l1.41,6.37s-25.25-1.67-28.54-.47c-3.29,1.15-52.64,10.07-52.64,10.07,0,0-39.86,14.76-42.42,4.75,0,0-2.55-16.17,1.15-9.39l1.98.93s3.08,3.19,13.88-1.46c.72-.31,1.72-.68,2.19-1.15,1.09-1.09,1.67-1.77,2.14-2.55,1.99-3.24,5.64,1.88,5.53,4.49-.15,1.88,2.77-.42,3.91-.73-2.66.78,11.9-6.99,17.22-4.96,0,0,10.07,4.91,4.7-.94,0,0-6.99-8.66-2.09-5.37,4.91,3.23,28.17,4.28,21.97-8.2-4.54-9.18,3.02-2.35,4.9-2.61h0Z"/><path class="cls-15" d="M36.16,112.52l2.09,1.36s3.44,3.44,14.24-2.14c2.72-1.36,3.45-3.81,4.91-3.91,3.24-.26,3.91,3.28,3.76,4.8-.16,1.93,3.39.26,3.96.1-3.81.94,12.93-7.62,18.31-5.58,0,0,10.01,4.91,4.64-.99,0,0-6.99-8.66-2.09-5.37,4.22,2.81,28.48,5.79,21.96-8.2-4.28-9.28,3.08-2.3,4.96-2.56,1.83-.26,13.36,7.04,14.25,6.78.93-.2.26-3.02,4.17-1.88,4.01,1.2,7.09-7.46,26.03,6.11l1.36,6.52s-24.99-1.62-28.28-.42c-3.28,1.14-52.64,10.01-52.64,10.01,0,0-39.96,15.24-42.57,5.17,0,0-2.76-16.28.94-9.8h0Z"/><path class="cls-20" d="M48.32,121.23s-2.14,3.44,3.97,7.3c0,0,.41.42-4.86-.83,0,0-1.83-.57-2.25-3.6,0,0-1.41-1.3-2.87-2.92-1.36-1.67,6,.05,6,.05h0Z"/><path class="cls-20" d="M54.16,129.1s.83,0,2.61.21c3.08.47-1.41,8.25-1.41,8.25l2.35-.73c0,1.88-1.67,4.44-1.67,4.44l2.61-.94c-.26,5.38,1.83,4.22,2.97,6.11,1.2,1.83-.62,4.17-.62,4.17.21-1.83-4.75-4.17-4.75-4.17,1.2-1.41-.21-3.76-.21-3.76l-2.14.94c.93-.73,1.2-3.96,1.2-3.96l-1.88.67c4.22-9.13.94-11.22.94-11.22h0Z"/><path class="cls-20" d="M59.9,155.4l36.26-13.67c-.57,20.24-3.39,18.62-3.39,18.62-2.46.68-3.76-2.25-5.38-2.45-1.62-.26-.67,3.86-.67,3.86-1.57-4.33-.94-.83-.94-.83-.47,0,1.72,6.31,1.72,6.31-.58-.46-3.03-6.67-3.03-6.67-.31-1.88-2.35-1.88-2.35-1.88-1.62-.94.36,2.61.36,2.61-.93-2.04-4.12-2.46-4.12-2.46-1.36-.62-.21,1.62-.21,1.62-1.41-2.55-3.76-2.24-3.76-2.24-.67.1-2.35,7.82-2.35,7.82.21-.83.21-3.86.21-3.86.26-3.34-1.57-2.77-1.57-2.77-1.2-.52-2.4,1.72-2.4,1.72.36-1.93,0-3.86,0-3.86-.88-.1-2.56,2.92-2.56,2.92,0-3.13-2.19-3.28-2.19-3.28-1.67-.11-4.7,3.65-4.7,3.65.21-1.51,2.19-4.8,2.19-4.8-1.04-.36-4.07,1.88-4.07,1.88l2.92-2.25h0Z"/><path class="cls-20" d="M61.31,128.27s4.33-1.72,16.02,0c0,0,2.09.1,4.12-2.45,1.99-2.56,9.81-4.64,11.64-4.07l2.87,1.83.21.36s3.65,3.03,3.7,5.27c.16,2.24-4.17,16.28-6.99,20.92-2.76,4.7-5.58,8.35-11.22,7.62,0,0-6.1-1.2-13.51,0,0,0-8.61-.47-9.44-2.77-.78-2.35,3.29-6.78,3.29-6.78,0,0,1.3-2.5.93-6.72-.31-4.17-.2-12.37-1.62-13.2h0Z"/><path class="cls-18" d="M82.96,88.31c-7.41-1.09-.93-1.62-8.45.88,0,0,.73-6.99.41-8.5-.41-1.57-2.03-11.69-1.72-12.16.36-.47,5.32-6.68,9.49-6.47,4.7.26,8.87,0,10.33,2.51,1.35,2.4,2.66,6.15,2.35,6.99,0,0,2.66,3.13,2.19,5.74-.47,2.55-7.25,12.05-14.61,11.01h0Z"/><path class="cls-5" d="M67.78,128.89s18.78,0,23.95.94c5.17.88,2.09,7.93,2.09,7.93,0,0-3.7,12.99-10.59,17.54,0,0-11.84-1.2-15.02-.47-2.98.73-7.2-1.04-6.63-1.51,0,0,8.61-19.04,6.21-24.42h0Z"/><path class="cls-21" d="M67.88,130.71c8.76-2.14,9.33,2.77,14.03-1.77,4.7-4.54,8.93-3.23,10.07-.94,1.2,2.35-.94,14.5-3.03,15.33-2.14.84-3.49,2.67-3.49,2.67-1.04,4.38-3.65,4.01-3.65,4.01-2.71-.83-7.14.21-7.14.21l-3.5-.42c-1.67-1.77-2.92-4.75-2.66-5.89.21-1.2.42-1.78-.52-4.17-.88-2.51-.1-9.03-.1-9.03h0Z"/><path class="cls-8" d="M67.62,150.39c-1.41,4.33-6.2,3.18-6.2,3.18-1.99-.88-5.01-6.83-5.01-6.83-1.3-3.34.73-1.72.73-1.72,2.4,3.6,8.98,4.7,8.98,4.7,1.3.05,1.51.68,1.51.68h0Z"/><path class="cls-17" d="M91,131.66c-.47.83-7.14,1.14-9.81,1.14s-3.18.94-3.18.94c-.21-1.62-11.11,1.78-11.11,1.78-.26-2.92.26-6.99.26-6.99,8.76-2.14,9.33,2.77,14.03-1.77,3.24-3.13,8.2-4.7,10.07-.94.52,1.04-.05,3.54-.26,5.84h0Z"/><path class="cls-7" d="M78.37,128.74s1.41,1.41.36,4.22c0,0-4.22,4.64-3.65,8.77"/><path class="cls-8" d="M64.34,153.57s-1.25-3.81,1.3-1.78c0,0,1.41.57,1.04,1.04-.31.47-1.99,1.62-2.35.73h0Z"/><path class="cls-8" d="M65.79,153.89s-.99-2.97,1.04-1.41c0,0,1.3.73.84.83-1.3.42,0,1.14-1.88.57h0Z"/><path class="cls-8" d="M67.26,153.89s-1.04-2.97.99-1.41c0,0,1.3.67.83.83-.94.42,0,1.14-1.83.57h0Z"/><path class="cls-8" d="M69.13,153.94s-.99-2.97,1.04-1.36c0,0,1.25.68.83.78-.83.37,0,1.15-1.88.57h0Z"/><path class="cls-8" d="M71.07,153.94s-1.04-3.02.99-1.41c0,0,1.15.47.84.83-.26.42,0,1.09-1.83.57h0Z"/><path class="cls-8" d="M73,154.15s-1.41-3.6,1.3-1.77c0,0,1.41.58,1.04,1.04-.36.47,0,1.41-2.35.73h0Z"/><path class="cls-8" d="M79.68,147c1.2,2.45,1.62,5.84,1.51,6.67-.1.78-3.28.94-3.28.94-2.46.1-2.46-1.41-2.46-1.41.47-.84,1.41-1.88,2.25-5.59.83-3.8,1.99-.62,1.99-.62h0Z"/><path class="cls-12" d="M62.51,155.04s5.27.93,6.52.52c0,0,2.56,0,.1.57,0,0-3.7,0-6.05-.37,0,0-3.39-1.62-.57-.72h0Z"/><path class="cls-8" d="M66.58,127.8s5.12,0,5.69.26c0,0,2.14,8.98,1.09,11.22,0,0-.36.83-1.14-.83,0,0-5.43-9.55-6.36-10.17-.94-.57.36-.47.72-.47h0Z"/><path class="cls-8" d="M44.04,127.02s2.61.47,6.26,1.25c0,0,1.41,6.57,2.35,7.99.94,1.36-.1,1.36-1.14.57-1.1-.83-5.38-4.9-5.95-6.21-.63-1.3-1.51-3.6-1.51-3.6h0Z"/><path class="cls-8" d="M50.4,128.32s1.72.47,1.99,1.15c.31.62-.31,1.56-.31,1.56,0,0-.31.99-.68.31-.31-.63-1.2-2.82-.99-3.03h0Z"/><path class="cls-20" d="M50.4,128.27c2.35.73,8.93.36,8.93.36.78-.26,4.59-.78,4.59-.78,0,0-1.41,1.25-1.78,1.83-.36.63-1.3.84-2.14.47-.78-.31-1.57-.05-2.3-.26-1.98-.36-1.83.26-3.23-.05-.78-.16-.88,0-1.93,0s-2.14-1.57-2.14-1.57h0Z"/><path class="cls-8" d="M63.45,128.32c.21.11.73,3.5.52,4.17-.15.68-.93-.62-.93-.62,0,0-1.72-1.09-1.57-1.78.15-.73,1.98-1.78,1.98-1.78h0Z"/><path class="cls-8" d="M52.49,129.94c.47-1.62,0-.41,1.78-.41.52,0,.37.41.37.41-.11,3.24-2.14,0-2.14,0h0Z"/><path class="cls-8" d="M54.63,130c.31-1.62.2-.26,1.62-.16.52.05.52.16.52.16.15,3.28-2.14,0-2.14,0h0Z"/><path class="cls-8" d="M56.72,130c.46-1.3.52-.37,1.67-.16.52.1.47.47.47.47.15,2.82-2.14-.31-2.14-.31h0Z"/><path class="cls-8" d="M58.7,130.05c.94-1.46.73-.21,2.4.05.52.05.06.47.06.47-.16,2.82-2.46-.52-2.46-.52h0Z"/><path class="cls-20" d="M96.52,78.35s-20.97,9.49-20.4,8.87c.62-.58,1.67-2.67,1.67-2.67,2.56-6.36,7.2-4.49,7.2-4.49,3.39.52,11.53-1.72,11.53-1.72h0Z"/><path class="cls-20" d="M97.62,77.66c.16.99-1.83,2.19-2.24,2.3-.52.1-6.73,1.78-6.73,2.4,0,.57-1.14,3.86-1.14,3.86-2.77,4.64-7.15,1.83-7.15,1.83l-3.02-1.51c-1.88,1.14-1.78.68-1.78.68.93-.42,3.44-3.13,3.44-3.13,2.45-4.28,7.25-2.93,7.25-2.93,2.92.11,11.37-3.49,11.37-3.49h0Z"/><path class="cls-13" d="M83.79,88.2c-2.03,0-4.49-1.09-4.49-2.92s2.46-3.7,4.49-3.7,3.6,1.46,3.6,3.34-1.62,3.28-3.6,3.28h0Z"/><path class="cls-17" d="M82.7,83.3c-1.41.26-2.92.67-2.87.57.47-1.3,2.3-2.3,3.96-2.3,1.25,0,2.35.57,3.03,1.46,0,0-1.56-.11-4.12.26h0Z"/><path class="cls-18" d="M86.25,83.24c-.26.99-1.3-.31-1.3-.31,0-.57,1.3.31,1.3.31h0Z"/><path class="cls-20" d="M83.27,85.59c-.67,0-1.3-.57-1.3-1.3s.63-1.3,1.3-1.3c.78,0,1.36.58,1.36,1.3s-.58,1.3-1.36,1.3h0Z"/><path class="cls-18" d="M52.91,81.74c-.62,1.77-1.51,3.7-2.92,3.02-3.18-1.51-3.81-5.69-3.81-5.69l-2.19-1.2c-.11-1.15.47-1.88.47-1.88-.58-.78.2-1.51.2-1.51.37-.16.73-1.62.73-1.62.47-.58,2.66-.52,2.66-.52v-.58c-.2-1.88,2.87-7.09,2.87-7.09,1.72-1.88,3.91-.1,4.28.11.36.2.47,5.48.47,5.48.15,1.09-3.03,4.01-3.03,4.01-.73,1.25.26,7.46.26,7.46h0Z"/><path class="cls-20" d="M51.71,79.33s-3.44-.83-3.7-.83-2.92-2.4-2.92-2.4c.26.26,6.62,3.23,6.62,3.23h0Z"/><path class="cls-20" d="M46.7,77.5s5.38,1.04,5.38,2.35c0,.84-.05,4.8-1.67,4.33-2.45-.68-1.35-4.91-3.7-6.68h0Z"/><path class="cls-13" d="M49.16,78.66s2.61.41,2.92,1.2c.15.47.36,2.93-1.2,3.24-1.35.26-2.04-2.77-1.72-4.43h0Z"/><path class="cls-20" d="M74.3,91.07c.47,1.67-1.14-.88-1.14-.88,1.04.94,1.83-3.65,5.22-3.34,0,0,6.05,2.66,7.2,1.67,1.2-.99.42.99,1.83,0,0,0,5.07-4.38,5.69-6.16,0,0,1.78-2.3,3.55-.73,0,0,.83.42-1.93.78,0,0-1.98,1.67-2.35,2.61,0,0-.26,1.25-.1,1.78,0,0,2.35,1.2,1.67,1.67,0,0-3.23-.62-3.8,0,0,0-.68.58,1.3,1.15,0,0,1.36.67,1.67.05,0,0,1.78-1.67,1.83-.05,0,0,.36.88.83-1.3,0,0,1.2-.05,1.51-1.46.31-1.3.68-2.4,1.57-2.24,0,0,.47.41.52-.89,0,0,1.72-1.35,1.56-2.14,0,0-.78-1.72-1.3-1.57-.47.21-.99.94-1.67.88-.73-.05-1.41-1.36-2.25-1.25,0,0,1.62-2.04,2.4-1.99,0,0,.99.47,1.78-.05,0,0,1.78-.52,2.4-1.51,0,0,2.72-2.92,3.08-2.35,0,0,.68-.57.16,3.49,0,0-.73,2.04.15,3.03,0,0,.47.99.47,1.36s.88,1.36.83,1.67c0,0,.94,5.22-1.35,1.98,0,0-.26-1.51-.99-2.71,0,0-2.14-1.88-2.19-.78,0,0-.94.99-.05,3.6,0,0,1.72,5.06-4.07,6.99,0,0-3.65,2.14-7.93-.88,0,0-.99-.83-1.72-1.14,0,0-1.88-.06-3.29-.42,0,0-1.3-.73-1.83-1.04,0,0-3.86-1.25-4.12-.52-.21.83-3.76,1.93-4.38,2.09-.52.16-.89.1-.73.62h0Z"/><path class="cls-20" d="M131.27,42.45l10.28-.36c.73.1,2.71-.84,2.71-.84,2.09-2.19,4.59-1.72,4.59-1.72,1.72.1,1.35,3.34,1.35,3.34,1.04,7.41-3.39,12.88-4.96,15.44-1.46,2.61-3.34,3.28-3.34,3.28l-7.93,2.46c-5.53,2.24-5.07.78-5.07.78-.57-.89-.67-2.77-.67-2.77-6-5.17-5.27-11.79-5.27-11.79.78-5.53,8.29-7.83,8.29-7.83h0Z"/><path class="cls-20" d="M147.24,42.14c.62,4.01-3.91,12.83-5.95,14.76-2.04,1.93-3.44-.26-3.44-.26-2.35-1.67-1.2-9.54-1.2-9.54,1.25-3.86,5.53-4.49,5.53-4.49,2.2,0,4.28-1.67,4.28-1.67,1.41-1.41.78,1.2.78,1.2h0Z"/><path class="cls-13" d="M84.79,102.08s-5.95-5.64-8.3-5.85c0,0-10.01-1.14-14.35,4.12,0,0,5.12-6,13.2-4.38,0,0-6.31-1.25-9.91-.31,0,0-4.7-.16-7.51,3.91l-1.04,1.57s.94-4.22,6.52-6.05c0,0,6.68-1.46,9.81,0,0,0-6.26-2.04-9.24-1.46,0,0-8.87-.67-12.57,7.04,0,0,1.15-4.22,5.48-6.31,0,0,3.96-2.56,9.91-1.78,0,0,4.22.99,5.74,1.62,1.51.73,1.2-.05-1.3-1.46,0,0-1.62-2.98-5.74-2.82,0,0-12.47,1.04-15.49,4.59,0,0,3.91-3.29,6.99-4.17,0,0,6.57-2.3,9.02-2.04,0,0,7.2.26,9.44-.89,0,0-3.23,1.46-2.29,2.35.88.94,2.92,3.19,2.92,3.55,0,.31,7.04,6.83,8.09,8.09l.62.68h0Z"/><path class="cls-20" d="M139.04,160.98s-7.72-16.01-13.14-23.11c0,0,12.67,10.96,14.14,18.73l.16,1.62-.84-.73s-.15,2.61-.31,3.49h0Z"/><path class="cls-20" d="M155.59,146.79c-.78.78-.21,3.39-.21,3.39-.89-2.19-18.52-21.49-18.52-21.49.41.72,18.73,18.1,18.73,18.1h0Z"/><path class="cls-20" d="M100.44,159.52s5.69-15.18,11.27-8.61c0,0,4.38,2.97,4.23,3.8,0,0-1.2-1.93-6.47-1.77,0,0-5.53-.89-9.03,6.57h0Z"/><path class="cls-20" d="M156.16,122.27c1.14,2.04.57,2.77.57,2.77-1.46-3.08-19.4-12.21-15.91-11.54,2.14.42,15.34,8.77,15.34,8.77h0Z"/><path class="cls-20" d="M112.02,153.41s6-.57,8.03-2.5l1.25.99,5.17-11.22,1.04,1.51s4.17-4.33,3.96-6.67c-.21-2.35,3.76,1.77,3.76,1.77,0,0-.26-3.39,1.88-1.41,0,0-.73-4.59,1.72-2.19,0,0-3.07-8.87,3.5-1.3,1.67,1.88.36-.16.36-.16,0,0-7.57-13.98-1.3-9.8,0,0,.63-6.68.31-7.99-.36-1.25-.93-7.78-2.35-9.34-1.46-1.51.06-1.98,1.72-.47,0,0-3.23-6.99.62-3.49,0,0-1.09-4.43-2.35-5.27,0,0-1.67-5.01,2.77-1.88,0,0-1.3-3.65-2.19-4.54,0,0-3.39-8.09-1.3-6.67l1.3,1.04s-2.04-4.07-.16-2.77c1.93,1.3,1.93,1.14,1.93,1.14,0,0-6.2-9.7-.31-4.59,0,0-2.35-4.07-3.34-6.05,0,0-5.53-5.95-1.3-4.07l1.41.42s-2.61-2.93-4.91-3.34c-2.35-.52.73-2.4,2.56-1.78,1.88.57,6.47,2.82,6.47,2.82,0,0,3.7,5.48,4.9,5.58,0,0-5.84-2.19-4.12.16,0,0,4.22,4.07,2.14,3.91,0,0-1.77,2.14-.37,4.7,0,0-5.42-5.38-1.04,2.09l1.99,4.8s-7.15-7.2-3.86-.78c0,0,5.01,6.89,5.64,6.99.57.16,1.83,2.71,1.83,2.71l-1.25-.62,1.51,2.61s-3.29-3.55-1.51.31l1.61,4.22s-5.95-6.41-2.04,2.25c0,0-4.75-1.51-2.14,3.49,0,0-.52,4.7-.36,6.21.05,1.51.41,9.86-.83,12.16-1.3,2.35,1.77,7.98,2.35,9.13.57,1.14,1.62,4.38-.94,1.67-2.56-2.71-1.3-1.09-.73,1.51.57,2.56,2.35,7.14,2.14,8.77,0,0-.36.36-1.3-.73,0,0-4.33-6.63-3.86-2.4,0,0-.32,2.35-1.25,4.9,0,0-.99,3.13-.99.52,0,0-.94-4.85-1.72-2.66-.83,2.25-1.88,4.02-2.71,4.7-.78.68-2.35-5.95-2.71-2.97,0,0-3.45-3.55-4.86,1.2l-3.44,4.8s-.11-3.65-.42-1.88c0,0-8.82,1.77-11.89.46h0Z"/><path class="cls-20" d="M102,49.13s-1.14.31-1.41-.32c-.21-.57-22.33-4.85-22.33-4.85,2.82-.16.37,0-.36-.42-.68-.41-5.79.31-6.47,1.04-.68.68-7.88,2.61-7.88,2.61.21-.1,3.54-2.3,4.12-2.5.57-.32,6.05-4.54,6.05-4.54,1.04-.93,5.48-1.3,5.48-1.3,2.5-1.41,7.51-2.76,7.51-2.76,8.03-2.04,11.48.57,11.68.72.16.16.89.26.89.26,2.35-.46,7.51-1.41,7.51-1.41,10.28-1.51,16.8,2.19,16.8,2.19,5.38,2.09,7.46,4.49,7.46,4.49-5.33-3.86-15.76-4.96-15.76-4.96-3.54-.58,1.41,1.36,1.41,1.36,1.72.36,9.54,3.7,10.38,3.96.89.31,3.6-.1,3.6-.1-2.04.1-6.78,4.75-7.3,4.85-.41.16-1.51,1.15-1.72,2.3-.21,1.2.93-.05.93-.05-1.3.88-.57,3.86.21,6.26.83,2.5,2.35,3.08,2.35,3.08,1.77,1.51,3.6,3.65,3.6,3.65,0,0,.41,1.14-.31,0-.68-1.2-3.86-2.35-3.86-2.35,1.67,2.55-3.76.57-3.76.57-3.28-3.29-.67-6.11-.67-6.11.78-1.04-.11-1.77-.11-1.77-1.09.15-2.5-.68-2.5-.68-12.05-8.04-21.24-5.38-20.09-5.48,1.14-.16,4.54,2.25,4.54,2.25h0Z"/><path class="cls-15" d="M122.87,46.41s-2.97-2.19-3.54-2.19-4.23-2.98-5.43-2.82c-1.25.05-4.8-2.82-12.83-.47,0,0-.16-.57.88-.78,0,0,1.88-.62,1.99-.83,0,0,5.94-1.2,8.03-.16,0,0,2.72.78,4.54,2.56,0,0,3.23.94,4.17.63,0,0,2.56.67,2.66,1.2,0,0,1.73.83,1.15,1.62,0,0,.16.47-1.62,1.25h0Z"/><path class="cls-15" d="M119.22,45.79c.26.15.52.21.73.41.1.16,0,.26-.1.26-.32.11-.63-.1-.99.11-.05.05-.26,0-.42-.05-.47-.11-1.04-.16-1.51.05-.57-.31-1.3-.11-1.88-.42-.05,0-.05.05-.1.05-.89-.36-2.04-.26-2.66-.93-.78-.11-1.41-.21-2.14-.42-.52-.15-.93-.47-1.41-.67-.42-.21-.83-.37-1.3-.47-.52-.16-1.04-.11-1.62-.26,0,0-.11.1-.11.05-.1,0-.2-.16-.2-.16-.52.16-.94-.15-1.46-.05-.31-.36-.83-.26-1.25-.41-.88-.26-1.83.15-2.66-.16,1.2-.52,2.56-.16,3.7-.78.68-.31,1.46,0,2.25-.21.1-.05.31-.1.41.05.06-.05.11-.05.16-.05.68.31,1.35.68,2.09.99.1.05.26-.05.36.05.42.37.99.31,1.41.68.47-.16.99-.05,1.52-.26,0,0,.05.1.1.1.31-.21.68-.1.88-.05.16.05.32.1.42.16.36.05.57.2.94.26.05,0,.05-.11.05-.11.36.16.67.11.88.47,0-.05.05-.1.11-.1.31.1.46.31.78.41.15,0,.31.16.52.26.67.16,1.25.68,1.88.89.21.1.47.15.62.31h0Z"/><path class="cls-15" d="M96.84,41.61c-.72-.52-1.41-.78-2.14-1.36-.05-.06-.15,0-.21-.06-.31-.1-.57-.26-.83-.52-.21-.1-.41-.05-.57-.15-.73-.42-1.51-.52-2.25-.89.21-.2.52-.15.73-.36,0,.1.11.16.21.1.47-.26.99-.31,1.56-.26.47,0,.94.11,1.51.16.05.05.1.16.21.21.67.21,1.36.05,1.98.26.47.21.89.47,1.25.83.1.05,0,.16-.1.21.15,0,.2.05.2.15.06,0,.06.16,0,.21,0,.05-.05.11-.2.11-.42.05.15-.32-.11-.21-.31.26-.15.67-.31,1.04-.1-.05-.21-.16-.16-.26.11.15-.1.26-.1.31-.16.26-.42.68-.68.47h0Z"/><path class="cls-15" d="M87.34,43.8c-.94-.26-1.83-.26-2.71-.62l-.11.1c-.36-.15-.67-.41-.99-.73-.26-.26-.72-.2-1.09-.31-.1,0-.15-.21-.26-.21-.36-.05-.62-.31-.93-.46.67-.26,1.41-.21,2.14-.37,0,0,.05.11.1.11s.05-.06.11-.11c.05.11.15.21.26.11.1-.16.31-.11.41-.11.11,0,.11.11.16.11,0,0,.05-.11.1-.11s.05.11.11.11c.1,0,.1-.06.1-.11.26.21.52.11.73.11.31.1.41.41.73.52,1.36.36,2.55.99,3.86,1.62.06.05.11.1.06.21h.26c.31.2.62.41.83.72.05.06-.05.21-.16.21-1.25-.31-2.45-.52-3.7-.78h0Z"/><path class="cls-16" d="M83.27,56.69c-.46-.37-.62-.94-.93-1.46-.11-.1,0-.16.1-.21.16-.05.31.05.42.16.52.21.99.62,1.56.62.57.68,1.83.73,1.83,1.78,0,.26-.42-.05-.57.21-.68-.26-1.41-.26-2.09-.68-.21-.1-.06-.26-.32-.41h0Z"/><path class="cls-16" d="M75.24,41.35l2.09.05c0,.1-2.3.42-2.41.36,0-.05-2.24.68-2.29.68.1-.05,2.5-1.09,2.61-1.09h0Z"/><path class="cls-20" d="M79.73,44.17l17.84,3.33,4.96,1.99-12.73.99-7.3,3.08s-1.25,6.26-1.62,5.84c-.41-.47-1.35.1-1.35.1,0,0-2.25-1.57-2.19-2.35.05-.72-.52.06-.89,0-.31-.05-1.67,1.67-1.78,2.09,0,.52-1.09-.15-1.09-.15l-1.04.88-3.02,2.4c.41-1.83,2.76-3.33,2.97-3.96.16-.67-1.3,1.04-1.3,1.04,0,0,.05-.57.21-.99.1-.41-.89-.15-1.3.42-.42.52-2.09.05-3.34.21-1.25.1-1.14.15-1.14.15l.36-.2-3.29.72-.26-.52c-1.09-.05-4.01,1.51-5.22,2.77-1.14,1.25,1.1.68,1.1.68.88,0,2.03-.52,2.03-.52,1.67-.42-.05.78-.05.78,0,0,.42-.16-.05.15-.47.31-2.51,2.77-2.51,2.77-.57.73-.26,2.4-.26,2.4-.62.68.21,1.41.21,1.41l-1.04-.72c-.36-.84-.36.93-.52,1.14-.1.21-.73,1.3-1.09,2.25-.42.93-.62,2.5-.62,2.5-.21.99,0,1.25,0,1.25-.26-.47-.52-.73-.52-.73-.26.73.93,2.82.99,3.34.11.47.89,2.92.68,2.09-.26-.83-1.04-1.3-2.19-1.99-1.1-.67-.68-.05-.78-.26-.16-.15-.47-3.02-.47-3.7,0-.73,2.3-4.49,2.3-4.49.2-.47.41-1.93.41-1.93-.52-1.62.57-3.86.57-3.86,1.1-1.04-.1-.31-.1-.31-2.61,0-5.48,1.72-5.48,1.72,1.72-2.19,3.44-2.45,3.44-2.45,1.56-.37,3.44-2.92,3.44-2.92,2.72-3.03,11.48-6.11,11.48-6.11,4.75-2.19,8.35-2.4,8.35-2.4,3.5,0,4.75-1.14,4.75-1.14.57-.68-.58-.63-.58-.63-1.41.57-2.4-.47-2.4-.47-.31-1.09-.78-.57-.78-.57.26.63-.67,1.36-.67,1.36-1.62-.31-3.34.26-3.34.26-.68,2.04-3.39.47-3.39.47-1.2,0-5.43,2.72-5.43,2.72-.26.36-1.57,1.25-1.57,1.25-1.51.26-5.64,3.19-5.64,3.19-.57.57-2.45,1.67-2.45,1.67.21-.1,1.25-1.62,1.25-1.62.31-.42,4.07-3.81,4.07-3.81.89-.41,2.56-1.72,2.56-1.72.73-.99,1.78-1.83,1.78-1.83.57-.21,9.49-3.86,9.49-3.86,2.61-1.04,4.23.26,4.23.26,1.36,1.2,2.14.93,2.14.93,1.46-.31.57-.93,2.14.26,1.57,1.2,2.61-.1,2.61-.1-1.93-1.09-.21-1.41-.21-1.41.83-.11-4.7-1.41-4.7-1.41.31-.52-6,.83-6,.83.57-.93-6.52,2.3-6.52,2.3.16-.62-3.44,1.88-3.44,1.88.1-.78-3.91,2.98-3.91,2.98-.68.78-2.82,1.78-2.82,1.78,4.96-5.9,8.87-7.41,8.87-7.41.89-.62,6.31-2.82,7.56-3.18,1.3-.36,5.64-.88,5.64-.88h0Z"/><path class="cls-20" d="M85.88,103.7h1.25c1.51,1.88,5.43,6.93-1.25,0h0Z"/><path class="cls-20" d="M90.68,103.7h2.82c.72.93,1.09,1.72-.06,1.41,0,0-2.5-.67-1.88,0,0,0,2.04,4.7,10.8,3.86,0,0,4.8-.68,1.51,4.22,0,0-1.62,3.39-2.35,1.41,0,0,1.88-3.86-2.24-2.35,0,0-1.15-.47-2.2-1.67,0,0-5.94-4.54-6.78-5.11,0,0-1.41-2.09.63-1.41,0,0-.11-.1-.26-.36h0Z"/><path class="cls-20" d="M95.07,103.7h18.62c-.16.99.05,2.24,1.62,3.34,0,0,6,3.65,2.61,3.85,0,0-.88,1.67-.67,2.82,0,0,1.3.68-1.04,1.25,0,0-1.72.47-1.77.78-.05.36,3.23,1.2,2.09,1.62,0,0,.73,3.13-1.3,3.86,0,0-1.41,1.78-1.3,2.4,0,0-.63,1.04,1.36,0,0,0,5.22,2.14,5.84.11,0,0,2.98-3.5,3.5-4.28,0,0,2.14-4.02,3.39-4.12,0,0,.15-.2.52-2.61,0,0,.67-.99.52-2.19,0,0,.88-1.46.78-2.56,0,0-5.01-2.04-6-2.5,0,0-.94-1.99.41-1.46,0,0,2.67,1.04,1.46-.31h7.88c.52,1.72,1.36,3.96,2.14,4.49,0,0,2.93,3.6,2.72,4.17,0,0-1.3-.47-2.51-1.14-1.14-.68,1.57,4.22.73,5.27,0,0-2.82-1.78-3.86-1.67,0,0,1.04,4.02,0,7.04,0,0-.31,1.98-1.51,1.67,0,0-3.65-4.22-4.7,2.87,0,0-1.77,2.35-2.55.47,0,0-2.51,1.77-1.98,3.18l-1.09.67s-3.13-1.51-3.96-3.13c0,0-4.07-2.5-1.15,7.36,0,0,4.07,1.88,2.35,8.19,0,0,.42,1.78.11,2.82,0,0-.11,2.66-2.35-.57,0,0-2.56-2.25-3.19-2.35,0,0-.2,1.51-1.36,1.98,0,0-12.52,4.7-11.17,9.24,0,0,.26,3.65-1.25,4.22-1.51.57-.84-.37-.58-3.44,0,0,.68-4.64,3.03-6.42,0,0-.83-1.93,1.67-2.45,0,0,3.03-1.62,2.3-3.03,0,0,1.88-1.67,3.29-1.67,0,0,1.41-3.5.36-4.8,0,0,2.92-.05.94-2.4,0,0,.31-1.2,2.04-1.51,0,0,.88-1.46-.52-2.61,0,0,.46-1.52,1.25-1.14,0,0-2.5-2.14-3.49-2.72,0,0-4.33-2.19.21-2.09,0,0,2.87.58-2.09-6.2,0,0,1.57-4.43,2.3-4.86,0,0-3.08-2.4-3.55-3.91-.47-1.57,1.14-3.49.57-4.01,0,0-3.02-2.2-8.3.36,0,0-.57.57-3.33-1.88h0Z"/><path class="cls-20" d="M113.69,103.7h-18.62c-.11,0-.21-.16-.32-.21,0,0-2.66-1.99-3.39-1.99,0,0,1.3,1.2,2.14,2.2h-2.82c-.89-1.15-3.91-5.33-4.91-5.48,0,0-4.49-2.92-4.12-2.09,0,0,2.72,5.53,4.91,6.88,0,0,.26.26.57.68h-1.25c-.41-.37-.88-.89-1.41-1.41,0,0-7.88-8.4-8.35-8.87.68.73,1.09,1.1,1.88,1.41,0,0,2.3,1.56,2.56,2.09,0,0,.36-.31.05-.73,0,0-3.34-4.22-.41-3.65,0,0,.72.83,1.36,1.25,0,0,3.18,2.97,9.49,2.5,2.35-.15.73,1.46.68,1.41-.05-.05-2.56,1.25-1.3,1.3,0,0,2.35-.78,4.59-.73,2.2.1,3.39-.47,3.39-.47,0,0,1.99,0,3.65.63,1.67.67,4.96.88,5.48.83l.42-.05s4.54,1.25,4.38-1.57c0,0,1.14-.11.88-.68-.21-.57-1.09-1.83-1.2-2.3,0-.52.26.05.26.05,0,0-3.71-2.71-.73-2.97,0,0,.83-.83-2.3-4.59,0,0-2.4-2.97.83-2.45,0,0,2.82-.05,1.09-1.99,0,0-2.71-1.14.58-2.97,0,0,2.66-1.83,2.81-4.17,0,0,.26-1.46.73-1.78,0,0-.21-1.51,2.09-1.09,0,0,2.3-.47,2.98.36.57.89-1.98,2.3-2.82,3.5,0,0-2.14,3.7-2.82,5.22,0,0,.88,3.96,1.46,5.79,0,0-.32,6.31-.37,7.35-.05,1.04,2.35,4.7-1.36,7.09,0,0-.62.73-.78,1.67h0Z"/><path class="cls-20" d="M133.57,103.7h-7.88c-.16-.11-.36-.26-.62-.52,0,0-3.39-2.09-.73-1.88,0,0,2.66,1.3,2.3.78,0,0-2.04-2.87-.32-2.41,0,0,1.93.89.37-.88,0,0-.99-1.04-.52-.99,0,0-1.99-3.86-2.25-4.17,0,0-.41-.26.16-.88,0,0,1.25-5.33.62-6.47,0,0-1.72-3.08-1.67-5.69,0,0,.31-7.04-1.51-8.82-1.83-1.72-3.6-2.92-4.59-5.89-.99-2.98-4.8-7.36-5.16-7.41-.47-.05.1-.72.57-.67.41.1.15-.57-.47-.94-.68-.41-3.96-4.75-3.39-2.76,0,0,2.4,3.59.57,3.86,0,0,4.43,6.78,3.5,10.12-.26.94-.52,2.25-.78,3.03,0,0-.32,1.14-.73,1.78,0,0-1.83-.58-2.3.57,0,0-.68.15-1.2-.42,0,0-.83-1.04-.1-2.5,0,0,1.04-.52,1.52-2.41,0,0-.42-2.4-3.13-2.24-.94.05-.16-1.04-.11-1.83,0,0,1.72-2.2,1.3-2.98l-1.3-2.76s-1.09,2.19-1.88-1.62c0,0-1.09-2.35-1.14-3.03,0,0-.26-1.72-.68-1.09,0,0-2.4-1.99-2.5-1.35,0,0,3.44,6.2,2.66,8.92,0,0-.11,2.4-3.24-2.46,0,0-3.13-3.18-8.19-2.87,0,0-2.14-1.14-1.83-1.46,0,0-4.64-1.67-3.65-.68,0,0,1.25,2.66,2.14,3.03,0,0,2.61.99,2.66,1.14.06.21,4.8,2.04,5.48,3.34,0,0,.78,1.09-5.22.16,0,0-3.39-.63-4.75,1.14,0,0-2.66,1.09-4.54-1.35,0,0-2.3-6.16,5.43-9.86l15.44-1.3s1.51-.21,5.84.78c0,0,1.62-.05,5.01,3.91,0,0,1.41,1.41,1.56,2.66,0,0,1.36,1.99,3.13,3.5,0,0,.94,2.24,1.51,2.71,0,0,5.27,3.08,2.92,3.08,0,0,8.46,3.23,3.5,2.92,0,0-1.04-.26.15.78,0,0,2.82,1.88,4.33,2.25,0,0,.47.72-1.3.57,0,0-3.18,3.13,2.56,3.08,0,0,3.44.88-.42,1.93,0,0-2.82,1.57-2.14,2.61.68,1.04,4.9,5.27,2.56,4.7,0,0-.11,1.14,1.41,2.4,0,0,4.02-.05,2.72.73,0,0-2.25,1.41-.26,3.29,1.98,1.88-.37,1.36-1.15,1.04,0,0-.21-.11,0,1.88,0,0-1.78,3.28-1.78,4.22,0,0,2.93,4.43.84,3.34,0,0,.26,1.04.67,2.35h0Z"/><path class="cls-14" d="M52.18,80.84c-1.88.63-3.08-.88-3.08-.88-.05-.42,0-.89.06-1.3,0,0,2.66.41,2.97,1.25.05.15-.05.99.05.93h0Z"/><path class="cls-20" d="M51.03,81.16c-.16-.1-.47-.57-.47-.99s.21-.84.36-.84c.26,0,1.04.32,1.04.68,0,.47.26,1.57-.93,1.14h0Z"/><path class="cls-20" d="M37.57,109.59s-1.67,2.93,5.64,1.15c0,0,4.07-.37,4.75-1.04.52.31,3.49.99,3.86,1.09,1.98.42,4.22-2.3,4.22-2.3,0,0,1.36-3.02,2.14-3.02.83,0-.1.41-.1.41,0,0-1.93,2.98-1.83,3.44,0,0-1.46,5.85-6.16,6.11,0,0-4.75.26-4.33,1.93,0,0,2.55-.62,3.28,0,0,0,3.13-.05.78,1.78l-1.98,3.39s.05,1.14-2.93.16c-2.87-1.04-5.89-4.8-5.89-4.8,0,0-4.64-4.22-1.46-8.3h0Z"/><path class="cls-20" d="M37.21,110.74s-.57,2.76,10.17-.21c0,0,1.3,0,1.98.21.73.21,4.23,1.04,4.8.67,0,0-2.09,4.02-5.48,3.55,0,0-3.86.47-3.76,1.83,0,0,1.2,2.14,2.61,2.82,0,0,.78.73.68,1.62-.16.99-.94,1.46-1.51,1.67-.57.26-1.51-.67-2.04-.67-.41,0-2.92-1.88-4.17-3.29-1.3-1.41-3.75-4.91-3.65-5.74.16-.83.37-2.45.37-2.45h0Z"/><path class="cls-17" d="M38.14,115.85v.37c1.25,1.51,2.09,1.67,2.82,1.77.73.1.78-.26.37-.32-.52-.15-1.2-1.2-1.67-2.24-.47-1.04.26-.37.73.57.42.94,1.93,1.72,3.49,1.99,1.51.26,1.46-.52,1.46-.52.47.67,1.25,1.72,2.19,2.14,0,0,.78.73.68,1.62-.16.99-.94,1.46-1.51,1.67-.57.26-1.51-.67-2.04-.67-.41,0-2.92-1.88-4.17-3.29-.62-.67-1.62-1.93-2.35-3.08h0Z"/><path class="cls-13" d="M37.36,109.7l-.57,1.09c.16-.57-.1-6.16-.1-6.16-.05-.67.52-1.51.52-2.09,0-.62.05-1.51.47-1.88.41-.31.78-1.51.78-1.51.1-.99.88-2.24,1.51-2.71.58-.47,1.51-2.14,1.83-3.23.42-1.1,3.86-3.19,5.43-4.02,1.51-.88,2.98-3.44,2.98-3.44,3.23-3.39,3.39-5.43,2.71-4.07-.99,2.09.42,1.72.42,1.72-4.59,2.82.15,3.6.15,3.6-4.01-1.15-5.95,3.13-5.95,3.13,0,0,.06-.21-.78.05-.83.31-2.61,2.82-3.75,3.29-1.2.46-1.25,1.62-2.09,3.23-.88,1.57-1.51,3.39-2.14,4.64-.73,1.2-.52,3.18-.52,3.18-.37,1.2-.89,5.17-.89,5.17h0Z"/><path class="cls-18" d="M34.91,111.05l-.47,2.82s.26,3.75.63,5.84c.41,2.09.05,2.72.05,2.72,0-.42-2.14-10.07-2.14-10.07,1.3-1.78,1.93-1.3,1.93-1.3h0Z"/><path class="cls-13" d="M41.17,93.32s-5.12.88-5.01,9.49l-.26,7.2s-.37-7.46-.68-7.93c-.31-.42.83-3.71-.1-1.99,0,0-4.07,4.12-1.78,10.28,0,0,.42.99-.42-.36,0,0-1.36-3.65-1.04-5.58,0,0,.06-.63.63-1.41,0,0,2.5-3.44,3.28-4.12,0,0,.58-4.22,5.01-5.74,0,0,1.72-.67.36.16h0Z"/><path class="cls-20" d="M81.97,73.96c-.36.15-.41.57-.41.83-.05.52-.05,1.14-.52,1.46-.11.05-.26,0-.37.05-.46.31-.93.57-1.51.73-.68.62-1.25,1.51-1.99,2.19-.05.05,0,.16,0,.16-.16.26-.26.41-.42.62-.1.26-.36.57-.62.42-.16-.06-.26-.42-.1-.63.72-1.09,1.41-2.19,2.45-3.08-.1-.26.05-.57.1-.78.21-.31.42-.57.63-.83.52-.73.99-1.41,1.36-2.24l-.1-.06c.2-1.04.57-2.03.36-3.07-.05-.21-.16-.47.05-.73-.26-.68-.57-1.46-.36-2.2.1-.26.47-.1.73-.1.26.05.05.31.15.47.26.36.63.62.73,1.04.1.21.16.41.26.52.36.73.57,1.46.94,2.19.1.16.05.42,0,.68-.16.41-.21.88-.47,1.25-.16.26-.21.57-.52.62-.21.05-.21.36-.37.47h0Z"/><path class="cls-20" d="M79.42,72.61c-.21.15-.32.26-.52.41-.06.05-.11.05-.21,0-.16-.1-.26-.21-.37-.36v-.21c.52-.57.21-1.3.58-1.88-.16-.52-.42-1.04-.68-1.57-.16-.37.1-.83.1-1.25.06-.05.21-.16.21-.21s-.05-.05-.05-.15c-.1-.16,0-.47.1-.52.42-.42.84-.06,1.1.36.31.42.31.99.62,1.46.1.31.05.62-.26.83.31.83.26,1.72-.42,2.45-.05,0,0,.16,0,.26-.05.05-.2.11-.2.21-.06.05,0,.16,0,.16h0Z"/><path class="cls-20" d="M97.73,69.58c-.42-.52-.89-1.04-1.09-1.72-.11-.26-.16-.57,0-.78.2-.36.41-.72.26-1.04-.52-.93-1.25-1.83-.99-2.97.1-.31.52-.47.78-.68-.05-.05-.05-.1-.05-.15s0-.05.05-.05c.05-.16-.05-.21-.05-.32,0-.26.15-.72.52-.52.36.21.57.73,1.04.84.52,1.04.72,2.24,1.09,3.33.57.21,1.14.32,1.36.94.05.16,0,.26.05.36.73.94.94,2.2.37,3.29-.16.36-.63.62-.73,1.04-.31-.05-.52.21-.83.21-.11,0-.16.15-.16.26-.57.15-1.56.73-1.72-.26.63-.37.52-1.2.11-1.78h0Z"/><path class="cls-20" d="M86.82,75c.26-.26.57-.37.78-.68.05-.05.21,0,.31-.05.16-.16.37-.26.57-.36.16-.06.16-.32.37-.42-.05-.1-.16-.16-.26-.1-.05.05-.11.15-.21.2h-.21c-.52.37-.94.68-1.41,1.04h-.37c-.1.06-.15.26-.2.26-.42-.05-.68.21-.73.58-.47.15-1.04.62-1.51.15-.1-.1-.1-.41,0-.62.78-.89,1.99-1.56,2.09-2.77.16,0,.21-.05.21-.15.15-.73.47-1.3.57-1.99,0-.05-.1-.16-.21-.21-.1.31-.21.52-.57.52-.36.05-.68-.31-.57-.67.1-.42.31-.73.47-1.15-.58-.41-.42-1.2-.89-1.62-.26-.31-.78-.16-1.04-.42-.26-.26-.62-.36-.88-.67-.05.1-.16.15-.21.15.05-.15-.05-.26-.16-.26-.57-.05-.99.73-1.51.52-.37-.15-.37-.83-.06-1.2.32-.37.58-.83,1.04-1.09.42-.21.78-.52,1.25-.63.21-.1.37-.1.63-.31h.36c.26.1.36.42.52.42.57,0,1.04-.58,1.62-.37.26.11.47.37.37.68.31.1.41.41.57.57-.05.05-.11.1-.11.1,0,.06.11.11.11.11-.05.47-.16.88.15,1.25.26.36.42.57.73.83.47.36,1.04.15,1.62.05.21-.42.58-.68.99-.36.21.26,0,.57.11.78,0,.1.1.36.1.41,0,.57-.21,1.2-.21,1.83-.52.83-1.25,1.41-1.88,2.14.21.52,0,1.04-.05,1.67,0,0,.1.1.21.05.15-.1.26-.31.46-.42.06-.05.16,0,.21-.05.37-.21.42-.52.73-.78h.21c.36-.52.73-.62,1.3-.67.05-.06.1.05.1.05.11-.16.31-.11.42-.16.36-.1.73-.15,1.14-.36.26-.11.63.05.89-.05.1-.06.31,0,.36-.21.26.1.62-.16.94.1.2.11.2.31.31.47.36.73.1,1.3-.52,1.78-.05.05,0,.15-.05.26-.06.1-.37.15-.32.41h-.2c-.37.37-.73.63-1.1.78-.36.16-.72.32-1.09.47-.99.37-1.98.68-3.08.63-.36.36-.93.36-1.46.57-.05.05-.16-.05-.21-.05-.68.1-1.25.41-1.88.83-.05.1-.16.05-.21,0-.88-.52.16-1.3.52-1.83h0Z"/><path class="cls-20" d="M70.7,60.55l.11.37s.41-.83-.63.67l-2.04,3.65c-.36,1.51,3.91,2.09,3.91,2.09,2.72,1.99.73,6.21.73,6.21-.36-7.14-4.22-4.91-4.22-4.91-.42,0-2.35-2.14-2.35-2.14,0,0,.16.26-1.15,2.25-1.3,1.98-.21,2.24-.21,2.24l.31.58,1.2-1.72c2.66,1.36,4.17,6.52,4.17,6.52,0-1.41-2.77-3.18-3.97-4.8-1.14-1.67-.57,1.41-.57,1.41-.52,4.54.21,7.83.21,7.83l-1.3-3.49.36-4.7c-.72-1.51-1.62-.47-1.62-.47.26.93-2.09,6.93-2.09,6.93.78-.62.94-5.42,1.25-6.46.36-1.04,0-1.04-.68-.68-.72.36-5.37,9.7-5.37,9.7.21-.57,1.88-4.8,1.88-4.8-.36-2.72,3.7-5.85,3.7-5.85.94-1.98-1.35.42-1.35.42-.99.73-5.32,5.43-5.32,5.43l3.02-4.7c.63-1.15,3.91-2.25,4.59-2.82.67-.57,1.41-2.09,1.41-2.09,3.29-7.51,6-6.68,6-6.68h0Z"/><path class="cls-20" d="M64.86,65.35s.57.67-.63,1.04c-1.14.36-6.2,3.28-6.2,3.28l2.09-2.76c.93-1.57,4.75-1.57,4.75-1.57h0Z"/><path class="cls-20" d="M53.12,67.23c.93-.47.47.83.21,1.2-.21.31-.68.88-.68,2.03,0,1.2-.57.52-.83-.31-.21-.83.47-.93.57-1.72.16-.89.73-1.2.73-1.2h0Z"/><path class="cls-20" d="M50.56,85.13l-1.67,2.24c.72-3.08-3.5-1.51-2.72-2.04.89-.41-1.25-.57-.78-.78.47-.26.11-.72-1.04-.36-2.35.73-2.04-3.49-2.04-3.49l1.2-2.25s-.31,4.7,1.41,4.8c1.41.11,1.25-1.41,2.25-.31.88.99,3.39,2.2,3.39,2.2h0Z"/><path class="cls-20" d="M46.86,89.35c-1.83,1.09-4.8,2.82-4.8,2.82,0,0,.73-.94.89-1.2.15-.26-1.41-.62-1.41-.62,0,0-.36-.06-.99-.94-.63-.88.78-1.56.78-1.56.99,2.82,5.53,1.51,5.53,1.51h0Z"/><path class="cls-18" d="M110.87,117.94c0-.52-.52-1.04-.15-1.51.05.05.1.05.15.05,0,0,.05,0,.11-.05.46.62,1.51.93,1.41,1.72,0,.11-.31.42-.05.63-.52.36-.52,1.04-.78,1.57-.37,0-.68-.16-1.04-.32.05-.41.05-.88.31-1.3.1-.15.05-.46.05-.78h0Z"/><path class="cls-20" d="M62.25,115.28s-4.91,2.98-.83-1.46c2.55-2.87,5.58-4.33,5.58-4.33,0,0,2.92-1.46,4.01-1.83,1.04-.36,5.48-1.88,6.42-1.93.94-.16,3.75-1.3,5.79-.16,1.93,1.2,4.28,2.45,4.28,2.45,0,0-4.8-2.45-5.85-1.72-1.04.67-3.13.57-4.91,1.51,0,0-4.33,1.25-5.27,1.88-.93.52-3.96,3.96-4.43,3.75-.47-.26.11-.36.47-1.2.31-.84-.26-1.3-2.61.57-2.3,1.88-2.66,2.45-2.66,2.45h0Z"/><path class="cls-20" d="M64.44,113.56s.42-3.81,2.87-3.34c0,0,2.4-1.2,3.18-1.78,0,0,2.41-.52,2.77-.68,5.43-2.55,9.7-1.25,9.86-1.57.15-.31,5.89,1.78,6.99,2.98.05.1-2.98-1.62-5.85-2.2-2.45-.52-8.71.06-11.95,1.67-.88.41-3.44,2.14-4.17,2.14-.78-.05-3.7,2.77-3.7,2.77h0Z"/><path class="cls-20" d="M69.03,118.83s-2.56-.21,0-.47c0,0,2.56-.99,3.18-1.78,0,0,2.04-1.35,2.45-1.41.42-.11,4.43-1.15,4.54-1.51.05-.36,10.01-4.01,11.32-3.13.83.62-2.04.16-4.91,1.46-.36.15-10.27,4.44-11.22,4.59-.93.21-2.71,1.36-3.39,1.51-.78.16-1.98.73-1.98.73h0Z"/><path class="cls-20" d="M66.69,119.5s1.51-.1,1.14.37c-.31.47-1.04.21-1.04.21l-.1-.58h0Z"/><path class="cls-20" d="M64.55,119.97s1.57-.1,1.2.37c-.31.46-1.04.26-1.04.26l-.15-.63h0Z"/><path class="cls-20" d="M61.57,120.44s1.51-.1,1.15.36c-.37.42-1.1.21-1.1.21l-.05-.57h0Z"/><path class="cls-20" d="M59.33,120.66s1.51-.05,1.14.36c-.36.52-1.04.21-1.04.21l-.1-.57h0Z"/><path class="cls-20" d="M70.55,109.07s1.3,0,.93.52c-.36.42-1.3.37-1.3.37l.37-.89h0Z"/><path class="cls-20" d="M67.62,110.74s1.93-.63,1.15.36c-.37.42-.99.21-.99.21l-.16-.57h0Z"/><path class="cls-20" d="M64.34,112.15s1.51-.1,1.14.37c-.31.41-.99.2-.99.2l-.15-.57h0Z"/><path class="cls-20" d="M62.14,113.87s1.51-.05,1.15.36c-.37.47-1.04.21-1.04.21l-.11-.57h0Z"/><path class="cls-20" d="M60.11,115.28s1.51-.1,1.2.37c-.31.46-1.04.26-1.04.26l-.15-.63h0Z"/><path class="cls-20" d="M71.59,117.16s1.98-.1,1.57.52c-.52.58-1.46.26-1.46.26l-.1-.78h0Z"/><path class="cls-20" d="M74.61,115.75s2.04-.16,1.56.47c-.47.62-1.41.31-1.41.31l-.16-.78h0Z"/><path class="cls-20" d="M77.79,114.45s1.99-.1,1.51.52c-.47.62-1.41.31-1.41.31l-.11-.83h0Z"/><path class="cls-20" d="M80.82,113.09s2.04-.16,1.57.41c-.52.63-1.46.32-1.46.32l-.1-.73h0Z"/><path class="cls-20" d="M72.74,107.82s2.04-.16,1.56.46c-.52.63-1.67.52-1.67.52l.1-.99h0Z"/><path class="cls-20" d="M75.66,106.88s2.04-.21,1.56.42c-.47.67-1.78.57-1.78.57l.21-.99h0Z"/><path class="cls-20" d="M69.03,118.57s1.51-.11,1.14.36c-.31.47-1.04.21-1.04.21l-.1-.57h0Z"/><path class="cls-13" d="M47.64,89.56s-1.3,2.61-1.46,3.49c0,0,.26-2.56.63-3.13.36-.57.83-.36.83-.36h0Z"/><path class="cls-13" d="M42.27,93.63s-.93,4.22-.83,5.06c0,0-.36-3.39-.26-3.76.16-.36,1.09-1.3,1.09-1.3h0Z"/><path class="cls-20" d="M48.32,71.87c3.86,4.49,3.6,6.88,3.6,6.88-.1-2.24-4.28-5.89-4.28-5.89l.62-.06.05-.93h0Z"/><path class="cls-20" d="M49.47,72.24c-.11-.15-.05-.36-.16-.47-.21-.1.37-.1.31-.36-.1-.31-.05-.31-.1-.68,0-.26.16-.67.26-.78.42-.46.05-1.36.52-1.83.1-.05.21-.26.31-.31.16-.31.52-.47.78-.67.11-.11.05-.32.21-.32.21.06.57,0,.52.21,0,.68-.36,1.15-.73,1.67.11.15,0,.36-.1.52-.37.78-.37,1.57-.37,2.45h-.1c.1.73.26,1.36.52,2.04.1.26.26.52.26.78.05.21.1.47-.05.67.57.84.26,1.56.57,2.67.05.15.57.72.42.67-.73-.26-.73-.36-.84-.57,0-.21-.1-.62-.2-.78,0-.05-.06-.62-.06-.62-.46-.68-.05-.68-.46-1.3-.42-.26-.68-.58-.99-.89-.11-.05.26-.26.21-.36-.32-.37-.68-.57-.58-1.04.06-.16.11-.52-.15-.68h0Z"/><path class="cls-20" d="M48.48,72.71s.05,1.99.78,2.51c.73.41.36.2-.57-.16-.99-.36-.63-.57-.63-.57,0,0-.78.1-.1.73.73.57,1.78,1.25,1.3,1.25-.42,0-2.71-1.2-2.71-1.98,0-.83-.26-2.04-.26-2.04,0,0,.31-.21,1.72-.16,0,0,.42.16.47.42h0Z"/><path class="cls-6" d="M48.21,78.19s3.23.62.26.21c-5.53-.68-8.19-.05-8.19-.05,5.42-.99,7.93-.16,7.93-.16h0Z"/><path class="cls-6" d="M48.84,78.14s3.19.88.21.26c-5.43-1.09-8.14-.78-8.14-.78,5.53-.52,7.93.52,7.93.52h0Z"/><path class="cls-6" d="M49.36,78.19s3.08,1.09.16.26c-5.32-1.56-8.04-1.41-8.04-1.41,5.53-.06,7.88,1.14,7.88,1.14h0Z"/><path class="cls-6" d="M49.73,78.24s2.66,1.2.15.26c-4.64-1.78-7.09-1.83-7.09-1.83,4.91.31,6.94,1.57,6.94,1.57h0Z"/><path class="cls-6" d="M83.43,81.32s-.26.16-.21-.16c.05-.31,8.35-4.22,9.34-4.12,0,0-8.82,3.8-9.13,4.28h0Z"/><path class="cls-6" d="M82.44,81.48s-.26.26-.21-.11c0-.36,7.93-4.85,9.03-4.85,0,0-8.56,4.54-8.82,4.96h0Z"/><path class="cls-6" d="M81.5,81.89s-.26.21-.26-.1c0-.37,5.84-4.91,8.66-5.43,0,0-5.22,2.35-8.4,5.53h0Z"/><path class="cls-6" d="M80.61,82.41s-.21.26-.21-.05c.06-.31,5.22-4.43,7.88-4.91,0,0-4.75,2.14-7.67,4.96h0Z"/><path class="cls-20" d="M92.72,114.76c.1.99-2.72,3.5-3.39,4.07-.68.57-6,2.04-6.84,2.76-.88.78-5.48,2.3-5.48,2.3-.93.57-6.83,1.15-6.83,1.15-1.88-.52.21-.58.21-.58,2.14.26,6.05-1.2,6.05-1.2,2.3-.57,9.03-3.24,9.03-3.24,4.17-.93,6.05-4.01,6.05-4.01.31-.73,1.2-1.25,1.2-1.25h0Z"/><path class="cls-20" d="M75.55,124s1.51-.11,1.2.36c-.31.47-1.09.21-1.09.21l-.1-.57h0Z"/><path class="cls-20" d="M73.47,124.36s1.46-.05,1.2.42c-.36.46-1.09.2-1.09.2l-.1-.62h0Z"/><path class="cls-20" d="M70.39,124.78s1.56-.11,1.2.31c-.37.52-1.1.26-1.1.26l-.1-.57h0Z"/><path class="cls-20" d="M68.14,124.88s1.51-.05,1.2.42c-.31.46-1.04.2-1.04.2l-.16-.62h0Z"/><path class="cls-20" d="M80.35,121.8s2.04-.05,1.62.52c-.46.63-1.36.31-1.36.31l-.26-.83h0Z"/><path class="cls-20" d="M83.38,120.55s1.72-.99,1.62.47c-.1.78-1.41.26-1.41.26l-.21-.73h0Z"/><path class="cls-20" d="M86.09,119.71s2.04-1.09,1.57.52c-.26.68-1.41.26-1.41.26l-.16-.78h0Z"/><path class="cls-20" d="M88.86,118.31s1.25-1.46,1.57.52c.15.73-1.41.26-1.41.26l-.15-.78h0Z"/><path class="cls-20" d="M77.9,123.16s1.51-.1,1.2.37c-.36.41-1.09.21-1.09.21l-.1-.58h0Z"/><path class="cls-20" d="M89.17,106.31s6.42,6.52,9.13,7.56c0,0,2.66,3.28,1.51,10.91,0,0-.94,2.19-1.88-3.86,0,0,.93-7.41-2.35-2.66,0,0-2.51-2.98-.58-2.82,0,0,.94.57.99.1.16-.47-2.19-4.43-7.2-8.66-5.01-4.22.36-.57.36-.57h0Z"/><path class="cls-6" d="M72.05,117.68s-.05-.57.47-.31c.52.21,28.07,2.04,37.35,9.03,0,0-13.25-6.78-37.82-8.72h0Z"/><path class="cls-6" d="M75.08,116.37s-.05-.52.47-.31c.57.21,40.48-.05,47.43,9.39,0,0-6.47-7.36-47.9-9.08h0Z"/><path class="cls-6" d="M78.53,115.18s-.05-.47.47-.31c.52.26,51.18-3.55,58.12,5.94,0,0-2.82-7.51-58.59-5.63h0Z"/><path class="cls-6" d="M81.45,113.82s-.1-.58.42-.32c.57.21,36.31-11.06,43.2-1.62,0,0-3.91-7.2-43.62,1.93h0Z"/><path class="cls-6" d="M64.49,120.44s-.1-.52.42-.31c.52.21,5.79.88,6.31,12.26,0,0-2.09-12.31-6.73-11.95h0Z"/><path class="cls-6" d="M61.88,120.92s0-.57.47-.26c.52.21,4.7-1.15,3.86,10.17,0,0,.36-10.22-4.33-9.91h0Z"/><path class="cls-6" d="M59.53,121.02s-.05-.52.47-.31c.52.26,5.06.47,1.41,6.99,0,0,2.81-7.04-1.88-6.68h0Z"/><path class="cls-6" d="M73.42,108.08c19.62-25.88,30.78-22.38,30.78-22.38-16.28,1.72-25.77,18.88-30.47,22.59-.47.37-.31-.2-.31-.2h0Z"/><path class="cls-6" d="M76.7,107.56s-.41-.37.11-.58c.52-.15,33.44-21.39,44.92-19.04,0,0-7.93-2.19-45.03,19.62h0Z"/><path class="cls-6" d="M70.55,109.33c7.35-22.75,16.8-18.41,16.8-18.41-12.73.36-13.83,17.06-16.43,18.57-.47.31-.36-.16-.36-.16h0Z"/><path class="cls-6" d="M64.75,112.57c13.15-14.87,22.49-10.7,22.49-10.7-12.99-1.46-19.25,10.59-22.23,11.01-.57.05-.26-.31-.26-.31h0Z"/><path class="cls-6" d="M68.04,110.79c10.07-17.17,20.04-14.82,20.04-14.82-13.04.99-16.85,14.04-19.72,15.03-.52.15-.31-.21-.31-.21h0Z"/><path class="cls-6" d="M62.72,114.08c10.64-12.11,18.2-8.67,18.2-8.67-10.54-1.2-15.59,8.56-18.05,8.87-.41.06-.15-.2-.15-.2h0Z"/><path class="cls-6" d="M60.42,115.75c12.26-10.43,15.75-4.91,15.75-4.91-5.37-4.54-14.3,5.12-15.49,5.22-.52,0-.26-.31-.26-.31h0Z"/><path class="cls-6" d="M80.82,106.41s-.36-.36.21-.47c.52-.15,35.84-17.01,46.95-13.2,0,0-7.62-3.24-47.16,13.67h0Z"/><path class="cls-6" d="M71.01,125.24s-.05-.52.47-.31c.52.26,5.01.47,1.41,6.99,0,0,2.81-7.04-1.88-6.68h0Z"/><path class="cls-6" d="M74.04,124.78s0-.52.47-.32c.52.26,5.79.94,6.36,12.21,0,0-2.14-12.21-6.83-11.89h0Z"/><path class="cls-6" d="M76.08,124.31s-.11-.52.41-.31c.52.26,7.72,1.25,14.67,10.7,0,0-10.43-10.75-15.08-10.38h0Z"/><path class="cls-6" d="M78.26,123.73s-.1-.52.42-.37c.57.16,6.57-.36,17.69,9.6,0,0-13.51-10.22-18.11-9.23h0Z"/><path class="cls-18" d="M146.66,42.66c.63,3.65-3.44,11.69-5.32,13.46-1.93,1.78-3.18-.2-3.18-.2-2.09-1.57-1.04-8.72-1.04-8.72,1.14-3.44,5.01-4.06,5.01-4.06,1.99,0,3.86-1.51,3.86-1.51,1.3-1.3.67,1.04.67,1.04h0Z"/><path class="cls-6" d="M81.34,122.43s-.16-.52.42-.32c.57.11,10.7,1.46,25.83,11.64,0,0-21.65-12.26-26.25-11.32h0Z"/><path class="cls-6" d="M69.5,119.04s-.06-.47.41-.26c.57.2,16.17.93,25.09,8.81,0,0-10.22-7.25-25.51-8.55h0Z"/><path class="cls-6" d="M66.58,120.24s-.05-.52.47-.31c.47.21,7.72,1.25,14.61,10.7,0,0-10.43-10.75-15.08-10.38h0Z"/><path class="cls-6" d="M84.47,121.07s-.16-.46.42-.36c.57.1,10.85.68,26.61,9.75,0,0-22.64-10.07-27.03-9.39h0Z"/><path class="cls-6" d="M86.98,120.34s-.16-.47.41-.32c.52.06,10.75.63,26.61,9.76,0,0-22.54-10.17-27.02-9.44h0Z"/><path class="cls-6" d="M89.79,118.88s-.2-.47.37-.31c.57.05,13.14,1.36,39.39,11.37,0,0-35.27-11.79-39.76-11.06h0Z"/><path class="cls-20" d="M57.19,120.92s1.51-.11,1.2.31c-.36.52-1.04.31-1.04.31l-.16-.62h0Z"/><path class="cls-20" d="M66.21,125.04s1.56-.16,1.2.36c-.37.42-1.04.21-1.04.21l-.16-.57h0Z"/><path class="cls-20" d="M63.66,124.88s1.51-.1,1.2.36c-.37.47-1.09.21-1.09.21l-.11-.57h0Z"/><path class="cls-20" d="M35.79,121.44s1.46.36.94.67c-.47.37-1.04-.1-1.04-.1l.1-.57h0Z"/><path class="cls-20" d="M36.37,118.62s1.46.42.93.73c-.47.31-1.04-.16-1.04-.16l.11-.57h0Z"/><path class="cls-20" d="M34.29,117.37s1.46.37.93.68c-.47.31-1.09-.11-1.09-.11l.16-.57h0Z"/><path class="cls-10" d="M56.92,162.49c-.36.26-.36.73-.67.89-.11.05-.57,1.3-.63,1.25-.15,0,.21-1.3.26-1.46.42-.78.84-1.62,1.41-2.3.05-.05.15-.1.21-.16.1-.05.26.06.26.16,0,.47-.42.88-.68,1.3-.1.05,0,.26-.16.31h0Z"/><path class="cls-10" d="M61.83,168.23c-.21.42-1.09,1.15-1.09.99.1-1.72,1.14-2.09,1.46-2.35.31-.21.15.21.2.47,0,.26-.46.62-.57.88h0Z"/><path class="cls-10" d="M76.29,177.78c.15-2.56-4.02.93-4.02.93,2.98-2.87,4.07-7.67,4.07-7.67-.11.88-.05,6.73-.05,6.73h0Z"/><path class="cls-10" d="M67.83,177.62s-.31-4.54.31-5.17c0,0,0-1.88-.1-2.19,0,0,1.14-1.83,1.25.36,0,0,.36,2.25,1.2,3.65,0,0,1.04,1.52.99,3.39,0,0-2.92-8.81-3.65-.05h0Z"/><path class="cls-10" d="M66.79,169.59s-1.93,3.13-2.45,8.67c0,0-.37-1.78.73-6,0,0,1.2-4.49,1.72-2.67h0Z"/><path class="cls-10" d="M57.03,169.02c.26-1.83-2.98,1.04-2.98,1.04,6.37-7.57,2.98-1.04,2.98-1.04h0Z"/><path class="cls-10" d="M52.55,164.79s1.36-5.53,2.19-5.48c0,0,2.4-2.61.42.47,0,0-1.72,2.82-1.57,5.69,0,0-.16-2.77-1.04-.68h0Z"/><path class="cls-10" d="M149.12,161.45c.47,1.3-.26,3.5-.26,3.5,0-2.04-3.96-7.46-3.96-7.46.67,1.04,4.22,3.96,4.22,3.96h0Z"/><path class="cls-20" d="M155.69,109.96c-.57,0-.1,2.66-.1,2.66-.78-2.51-3.81-4.43-3.81-4.43.42-.57,3.91,1.78,3.91,1.78h0Z"/><path class="cls-20" d="M158.2,133.54l.57,2.61c-.16-1.2-5.69-6.15-5.69-6.15l5.12,3.54h0Z"/><line class="cls-1" x1="43.94" y1="126.92" x2="50.35" y2="128.32"/><path class="cls-1" d="M60.21,175.8s.57-1.93-1.3-.57"/><path class="cls-1" d="M76.03,178.25s.41-3.24-2.93.57"/><polygon class="cls-20" points="13.68 51.94 19.83 43.18 25 46.83 24.32 47.66 30.48 49.75 26.56 44.59 25.88 45.58 20.72 41.98 26.87 33.16 32.04 36.76 30.48 38.85 42.06 53.93 38.56 58.88 20.35 53.4 18.84 55.59 13.68 51.94 13.68 51.94"/><polygon class="cls-15" points="16.65 51.22 20.25 46.05 22.18 47.46 21.14 48.92 35.59 53.3 26.56 41.19 25.47 42.71 23.53 41.3 27.3 35.93 29.17 37.33 27.97 39.11 39.29 54.08 37.68 56.37 19.73 50.95 18.53 52.62 16.65 51.22 16.65 51.22"/><polygon class="cls-20" points="29.8 30.71 37.78 23.72 42.16 28.36 40.86 29.4 48.53 38.11 49.83 37.07 54 41.88 46.03 48.92 41.79 44.11 43.05 43.07 35.38 34.36 34.13 35.4 29.8 30.71 29.8 30.71"/><polygon class="cls-15" points="32.87 30.76 37.57 26.64 39.14 28.36 37.88 29.4 48.37 41.19 49.68 40.15 51.03 41.77 46.34 45.84 44.98 44.27 46.23 43.18 35.74 31.44 34.44 32.43 32.87 30.76 32.87 30.76"/><path class="cls-20" d="M42.84,19.8l7.41-4.01,7.41,4.33.21-8.61,7.2-4.01,2.97,5.64-1.3.83,5.64,10.12,1.36-.84,2.97,5.59-8.71,4.96-3.03-5.64,1.46-.88-2.77-5.06-.31,5.27-2.82,1.57-4.38-2.61,2.77,5.06,1.46-.83,2.97,5.58c-2.77,1.57-5.95,3.34-8.87,4.91l-2.97-5.64,1.46-.83-5.69-10.12-1.46.84-2.98-5.59h0Z"/><polygon class="cls-15" points="45.61 20.54 50.25 18.09 59.53 23.51 59.79 12.81 64.23 10.31 65.33 12.35 63.87 13.18 71.53 26.96 73 26.17 73.99 27.94 68.98 30.76 67.88 28.93 69.4 28.2 61.94 14.8 61.52 26.12 60.53 26.69 50.46 20.75 58.03 34.41 59.59 33.58 60.63 35.4 55.47 38.17 54.42 36.35 55.88 35.56 48.21 21.79 46.81 22.57 45.61 20.54 45.61 20.54"/><path class="cls-20" d="M74.14,4.2l8.25-1.25,5.43,6.78,3.28-8.04,8.14-1.2.93,6.37-1.51.2,1.62,11.33,1.57-.16.93,6.37-9.91,1.46-.99-6.41,1.67-.16-.83-5.64-1.99,4.7-3.23.42-3.34-3.91.83,5.64,1.72-.21.99,6.36c-3.33.42-6.78.94-10.06,1.46l-.94-6.37,1.67-.2-1.67-11.33-1.67.16-.89-6.37h0Z"/><polygon class="cls-15" points="76.39 5.88 81.61 5.14 88.44 13.54 92.4 3.48 97.47 2.75 97.88 5.09 96.21 5.3 98.51 20.96 100.18 20.75 100.49 22.83 94.6 23.67 94.34 21.58 96 21.37 93.71 6.14 89.43 16.67 88.18 16.88 81.03 7.8 83.27 23.19 84.95 22.98 85.26 25.07 79.42 25.96 79.1 23.83 80.87 23.62 78.58 7.96 76.86 8.17 76.39 5.88 76.39 5.88"/><polygon class="cls-20" points="107.79 1.07 126.31 4.1 125.12 11.77 118.7 10.67 118.91 9.37 115.78 8.9 115.42 11.35 121.26 12.24 120.26 18.4 114.42 17.51 113.95 20.27 117.13 20.7 117.39 19.02 123.76 20.12 122.56 28.15 104.09 25.23 105.03 18.81 106.7 19.02 108.47 7.7 106.86 7.49 107.79 1.07 107.79 1.07"/><polygon class="cls-15" points="109.78 3.42 123.91 5.62 123.24 9.37 121.15 9.06 121.36 7.59 113.85 6.5 112.91 13.13 118.7 13.96 118.39 15.84 112.55 14.96 111.45 22.15 119.07 23.25 119.22 21.48 121.26 21.79 120.68 25.59 106.6 23.46 106.96 21.37 108.57 21.58 111.03 5.93 109.36 5.72 109.78 3.42 109.78 3.42"/><polygon class="cls-20" points="170.66 40.26 175.93 36.61 181.46 44.69 176.61 48.09 176.2 47.51 174.63 50.27 177.81 49.96 177.5 49.39 182.35 46 187.62 53.93 182.35 57.53 181.2 55.75 171.34 56.9 168.99 58.41 170.04 59.82 164.72 63.37 158.66 54.55 163.99 51.06 164.92 52.46 167.27 50.9 171.86 41.98 170.66 40.26 170.66 40.26"/><polygon class="cls-15" points="168.99 52.26 174.42 41.93 173.64 40.78 175.51 39.58 178.49 44.01 176.61 45.22 175.93 44.22 171.76 52.05 180.57 51.16 179.9 50.11 181.78 48.92 184.86 53.35 183.03 54.55 182.09 53.45 170.66 54.66 166.07 57.84 166.91 59.19 165.18 60.29 161.64 55.13 163.41 54.03 164.4 55.44 168.99 52.26 168.99 52.26"/><path class="cls-11" d="M146.2,25.07l3.02-6.1-1.67-5.64-13.35-6.67-2.93,5.74,1.57.78-5.22,10.28-1.57-.78-2.81,5.64,8.97,4.54,2.71-5.27-1.09-.57,1.35-2.77,1.36.63-.06,3.49-.41-.21-2.72,5.22,8.61,4.33,2.82-5.74-1.83-.89.16-5.16,3.08-.84ZM142.02,33.06l-.99,1.88-4.91-2.5.99-1.88,1.2.58.32-7.46-4.28-2.14-3.02,6.1,1.09.57-1.04,1.88-5.27-2.61,1.04-1.88,1.56.68,7.04-14.09-1.46-.68.99-2.09,10.38,5.22,1.41,4.12-2.4,4.7-3.76,1.15-.2,7.77,1.3.68Z"/><path class="cls-22" d="M144.68,23.46l2.4-4.7-1.41-4.12-10.38-5.22-.99,2.09,1.46.68-7.04,14.09-1.56-.68-1.04,1.88,5.27,2.61,1.04-1.88-1.09-.57,3.02-6.1,4.28,2.14-.32,7.46-1.2-.58-.99,1.88,4.91,2.5.99-1.88-1.3-.68.2-7.77,3.76-1.15ZM140.51,22.2l-5.12-2.66,3.03-6,5.37,2.72.52,1.77-1.83,3.39-1.98.78Z"/><path class="cls-11" d="M144.31,18.03l-.52-1.77-5.37-2.72-3.03,6,5.12,2.66,1.98-.78,1.83-3.39ZM140.87,19.85l-2.56-1.25,1.04-2.2,2.51,1.25-.99,2.19Z"/><path class="cls-11" d="M169.83,30.4l-11.22-9.96-4.22,4.7,1.2,1.09-7.67,8.71-1.2-1.14-4.23,4.7,11.17,9.91,6.05-.16,4.64-5.37v-1.72l1.67-.1,4.12-4.7-.31-5.95ZM164.82,39.16l-2.87.11.1,2.92-3.23,3.65-4.86.26-8.61-7.67,1.41-1.62,1.46,1.2,10.43-11.9-1.3-1.09,1.51-1.72,8.66,7.62.32,4.85-3.03,3.39Z"/><path class="cls-22" d="M158.87,23.3l-1.51,1.72,1.3,1.09-10.43,11.9-1.46-1.2-1.41,1.62,8.61,7.67,4.86-.26,3.23-3.65-.1-2.92,2.87-.11,3.03-3.39-.32-4.85-8.66-7.62ZM156.83,43.59l-2.19.21-4.23-3.8,4.64-5.33,4.28,3.76.16,2.14-2.67,3.02ZM162.83,36.81l-1.83.11-4.49-3.86,4.33-4.96,4.49,3.91.1,1.93-2.61,2.87Z"/><path class="cls-11" d="M160.86,28.1l-4.33,4.96,4.49,3.86,1.83-.11,2.61-2.87-.1-1.93-4.49-3.91ZM161.69,34.83l-2.25-1.88,1.73-1.88,2.19,1.93-1.67,1.83Z"/><path class="cls-11" d="M155.07,34.67l-4.64,5.33,4.23,3.8,2.19-.21,2.67-3.02-.16-2.14-4.28-3.76ZM155.69,41.72l-2.19-1.88,1.88-2.19,2.19,1.88-1.88,2.19Z"/><polygon class="cls-20" points="48.53 153.54 56.4 159.44 52.86 164.23 51.97 163.61 50.35 165.7 53.01 167.73 54.63 165.65 53.74 164.97 57.35 160.22 65.22 166.17 61.42 171.28 60.11 170.28 53.07 179.41 54.42 180.41 50.51 185.52 42.58 179.57 46.29 174.83 47.17 175.45 49.05 173.1 46.34 171.02 44.51 173.36 45.4 174.05 41.69 178.84 33.87 172.89 37.78 167.73 39.03 168.72 46.08 159.59 44.77 158.65 48.53 153.54 48.53 153.54"/><polygon class="cls-15" points="49.26 156.57 53.43 159.7 52.08 161.57 51.4 161.05 47.59 166.11 53.38 170.49 57.19 165.54 56.35 164.86 57.82 162.98 62.25 166.43 60.84 168.31 59.48 167.21 49.99 179.83 51.29 180.93 49.99 182.54 45.56 179.05 46.86 177.44 47.64 178.06 51.97 172.43 46.23 167.99 41.85 173.62 42.53 174.2 41.22 175.87 37.05 172.74 38.3 171.07 39.45 171.91 48.95 159.33 47.79 158.49 49.26 156.57 49.26 156.57"/><path class="cls-11" d="M77.33,171.39l-8.56-3.45-5.43,2.3-6,14.92,2.51,5.43,8.66,3.39,5.43-2.35,5.89-14.71-2.5-5.53ZM72.27,190.17l-3.91,1.62-7.04-2.82-1.62-3.96,5.17-12.94,4.12-1.88,6.78,2.71,1.62,4.12-5.12,13.15Z"/><path class="cls-22" d="M75.76,172.89l-6.78-2.71-4.12,1.88-5.17,12.94,1.62,3.96,7.04,2.82,3.91-1.62,5.12-13.15-1.62-4.12ZM69.76,188.44l-1.93.78-4.54-1.72-.63-1.83,4.75-12.05,1.93-.73,4.33,1.67.83,1.83-4.75,12.05Z"/><path class="cls-11" d="M69.34,172.89l-1.93.73-4.75,12.05.63,1.83,4.54,1.72,1.93-.78,4.75-12.05-.83-1.83-4.33-1.67ZM67.88,186.93l-3.02-1.25,4.22-10.75,3.03,1.2-4.23,10.8Z"/><polygon class="cls-20" points="86.09 173.52 94.7 175.04 98.14 179.99 97.26 185.15 90.47 183.96 91.05 180.88 87.97 180.3 85.99 191.67 89.07 192.2 89.74 188.7 96.42 189.91 95.33 195.59 90.16 198.93 81.92 197.47 78.37 192.41 81.13 176.65 86.09 173.52 86.09 173.52"/><polygon class="cls-15" points="86.66 175.66 93.39 176.81 95.79 180.3 95.48 182.6 93.03 182.18 93.39 180.3 92.25 178.89 87.5 178.11 85.78 179.1 83.59 191.89 84.79 193.76 89.27 194.49 91.05 193.19 91.36 191.1 93.81 191.52 93.39 194.08 89.74 196.74 83.12 195.59 80.72 191.89 83.12 178.11 86.66 175.66 86.66 175.66"/><polygon class="cls-20" points="98.66 175.3 108.63 174.1 109.31 179.99 107.85 180.15 108.26 183.28 110.72 179.78 110.35 179.78 109.73 173.89 119.9 172.53 120.73 178.89 118.18 179.26 115.47 183.07 120.05 190.69 122.56 190.32 123.39 196.69 112.91 198.09 112.07 191.83 113.38 191.67 111.55 188.65 109.52 191.31 109.68 192.1 110.98 192.04 111.76 198.25 101.74 199.5 100.91 193.14 102.52 192.98 101.12 181.45 99.45 181.66 98.66 175.3 98.66 175.3"/><polygon class="cls-15" points="118.29 174.88 118.49 177.02 117.08 177.23 113.01 183.07 119.01 193.14 120.63 192.88 121 194.96 114.84 195.7 114.47 193.56 116.46 193.35 111.5 185.26 107.48 190.89 107.9 194.49 109.31 194.28 109.68 196.43 103.68 197.15 103.31 195.07 104.98 194.91 102.95 179.15 101.33 179.36 101.12 177.02 107.12 176.23 107.33 178.53 105.92 178.79 107.12 188.18 114.47 177.59 112.29 177.96 112.02 175.66 118.29 174.88 118.29 174.88"/><polygon class="cls-20" points="120.21 172.53 137.33 164.86 140.61 171.96 134.72 174.57 134.04 173.31 131.17 174.57 132.16 176.81 137.43 174.41 140.09 180.1 134.82 182.49 135.97 185.1 138.89 183.8 138.11 182.23 144 179.57 147.44 186.98 130.34 194.65 127.73 188.86 129.18 188.13 124.39 177.59 122.87 178.32 120.21 172.53 120.21 172.53"/><polygon class="cls-15" points="123.18 173.36 136.18 167.52 137.69 170.86 135.65 171.8 135.03 170.49 128.25 173.47 131.07 179.62 136.28 177.23 137.07 178.95 131.74 181.4 134.82 188.02 141.7 185 140.92 183.39 142.91 182.49 144.52 185.94 131.53 191.73 130.6 189.96 132.11 189.28 125.59 174.78 124.02 175.4 123.18 173.36 123.18 173.36"/><polygon class="cls-20" points="142.12 169.24 138.05 164.34 145.57 157.97 149.38 162.62 148.86 163.09 151.83 164.28 151.1 161.15 150.68 161.62 146.82 157.04 154.12 150.88 158.2 155.84 156.63 157.14 158.61 166.95 160.38 169.04 161.74 167.94 165.86 172.84 157.62 179.73 153.5 174.78 154.91 173.57 153.08 171.54 143.79 167.83 142.12 169.24 142.12 169.24"/><polygon class="cls-15" points="154.28 169.66 143.48 165.39 142.49 166.27 140.87 164.44 144.99 161.1 146.51 162.88 145.57 163.61 153.86 166.95 152.09 158.18 151.15 159.07 149.59 157.3 153.81 153.8 155.33 155.57 154.18 156.57 156.47 167.73 160.07 172.01 161.43 171.07 162.89 172.74 157.94 176.7 156.47 175.04 157.88 173.94 154.28 169.66 154.28 169.66"/><polygon class="cls-19" points="12.01 147.13 12.01 143.99 15.1 143.99 15.1 132.91 12.46 135.05 10.42 132.67 15.53 128.41 18.26 128.41 18.26 143.99 21.26 143.99 21.26 147.13 12.01 147.13"/><polygon class="cls-9" points="20.54 146.4 12.74 146.4 12.74 144.71 15.82 144.71 15.82 131.39 12.55 134.04 11.45 132.76 15.79 129.14 17.54 129.14 17.54 144.71 20.54 144.71 20.54 146.4"/><path class="cls-19" d="M183.92,147.31c-2.15,0-3.93-.69-4.88-1.88l-.34-.43,1.8-2.45.6.62c.62.64,1.73,1.12,2.59,1.12.99,0,2.65-.5,2.65-2.36v-1.21c0-1.37-1.06-2.06-3.16-2.06h-.72v-3.08h.72c2.65,0,2.65-1.15,2.65-1.77v-.91c0-1.5-1.33-1.66-1.9-1.66-.78,0-1.86.61-2.26,1.03l-.57.6-1.84-2.28.28-.44c.51-.81,2.27-2,4.42-2,3.11,0,5.12,1.82,5.12,4.64v.91c0,1.38-.47,2.52-1.27,3.23,1.27.87,1.78,2.39,1.78,3.42v1.82c0,3.34-2.92,5.15-5.66,5.15Z"/><path class="cls-9" d="M183.92,146.59c-2.09,0-3.59-.7-4.32-1.61l.97-1.31c.8.83,2.12,1.34,3.11,1.34,1.47,0,3.38-.86,3.38-3.08v-1.21c0-1.72-1.23-2.79-3.89-2.79v-1.64c2.39,0,3.38-.86,3.38-2.49v-.91c0-1.72-1.34-2.39-2.63-2.39-1.02,0-2.28.72-2.79,1.26l-.99-1.23c.38-.59,1.88-1.66,3.81-1.66,2.47,0,4.4,1.29,4.4,3.91v.91c0,1.77-.86,3.11-2.41,3.3,2.09.24,2.92,2.17,2.92,3.35v1.82c0,2.9-2.49,4.42-4.93,4.42Z"/><path class="cls-19" d="M172.18,128.14c-2.67,0-5.55,1.47-5.55,4.69v3.49c0,2.81,1.98,4.56,5.18,4.56.65,0,1.69-.17,2.6-.53v2.13c0,1.52-1.59,1.85-2.2,1.85-1.14,0-2.34-.46-3.12-1.2l-.6-.57-1.79,2.49.39.43c.79.88,2.53,1.82,5.04,1.82,3.25,0,5.52-1.93,5.52-4.69v-9.73c0-3.08-2.82-4.75-5.47-4.75ZM175.13,137.47c-.62.4-1.98,1.05-3.14,1.05-1.23,0-2.84-.48-2.84-2.28v-3.33c0-1.8,1.77-2.52,3-2.52s2.98.86,2.98,2.65v4.42Z"/><path class="cls-19" d="M172.15,130.4c-1.23,0-3,.72-3,2.52v3.33c0,1.8,1.61,2.28,2.84,2.28,1.15,0,2.52-.64,3.14-1.05v-4.42c0-1.8-1.77-2.65-2.98-2.65ZM174.4,137.06c-.63.34-1.61.73-2.41.73s-2.12-.2-2.12-1.55v-3.33c0-1.47,1.69-1.8,2.28-1.8.79,0,2.25.57,2.25,1.93v4.01Z"/><path class="cls-9" d="M172.18,128.87c-2.49,0-4.83,1.37-4.83,3.97v3.49c0,2.65,2.01,3.83,4.45,3.83.88,0,2.49-.35,3.32-1.02v3.35c0,1.85-1.74,2.57-2.92,2.57-1.34,0-2.71-.54-3.62-1.39l-.97,1.34c.72.8,2.33,1.58,4.5,1.58,2.52,0,4.8-1.37,4.8-3.97v-9.73c0-2.52-2.31-4.02-4.75-4.02ZM175.13,137.47c-.62.4-1.98,1.05-3.14,1.05-1.23,0-2.84-.48-2.84-2.28v-3.33c0-1.8,1.77-2.52,3-2.52s2.98.86,2.98,2.65v4.42Z"/><path class="cls-19" d="M28.05,128.14c-2.67,0-5.55,1.47-5.55,4.69v3.49c0,2.81,1.98,4.56,5.18,4.56.65,0,1.69-.17,2.6-.53v2.13c0,1.52-1.59,1.85-2.2,1.85-1.14,0-2.34-.46-3.12-1.2l-.6-.57-1.79,2.49.39.43c.79.88,2.53,1.82,5.04,1.82,3.25,0,5.52-1.93,5.52-4.69v-9.73c0-3.08-2.82-4.75-5.47-4.75ZM30.99,137.47c-.62.4-1.98,1.05-3.14,1.05-1.23,0-2.84-.48-2.84-2.28v-3.33c0-1.8,1.77-2.52,3-2.52s2.98.86,2.98,2.65v4.42Z"/><path class="cls-19" d="M28.02,130.4c-1.23,0-3,.72-3,2.52v3.33c0,1.8,1.61,2.28,2.84,2.28,1.15,0,2.52-.64,3.14-1.05v-4.42c0-1.8-1.77-2.65-2.98-2.65ZM30.27,137.06c-.63.34-1.61.73-2.41.73s-2.12-.2-2.12-1.55v-3.33c0-1.47,1.69-1.8,2.28-1.8.79,0,2.25.57,2.25,1.93v4.01Z"/><path class="cls-9" d="M28.05,128.87c-2.49,0-4.83,1.37-4.83,3.97v3.49c0,2.65,2.01,3.83,4.45,3.83.88,0,2.49-.35,3.32-1.02v3.35c0,1.85-1.74,2.57-2.92,2.57-1.34,0-2.71-.54-3.62-1.39l-.97,1.34c.72.8,2.33,1.58,4.5,1.58,2.52,0,4.8-1.37,4.8-3.97v-9.73c0-2.52-2.31-4.02-4.75-4.02ZM30.99,137.47c-.62.4-1.98,1.05-3.14,1.05-1.23,0-2.84-.48-2.84-2.28v-3.33c0-1.8,1.77-2.52,3-2.52s2.98.86,2.98,2.65v4.42Z"/><rect class="cls-2" width="200" height="200"/></g></g></g></svg>